<svg xmlns="http://www.w3.org/2000/svg" viewBox="0 0 292.25 369.51"><g id="圖文"><path d="M11.07,190.17V191H3.18v-.81H6.56v-.89H4.17v-.78H6.56v-.79h-2a6,6,0,0,1-1.07,1.37A4.83,4.83,0,0,0,3,188.2a5.76,5.76,0,0,1-1.12,3.2,3.74,3.74,0,0,0-.76-.63,5.54,5.54,0,0,0,1-3.57v-2.09H3.44a4.38,4.38,0,0,0-.44-.43c.82-.14,1.75-.34,2.64-.56-.78-.22-1.55-.41-2.26-.56l.55-.42H2.15v-.78H6a5.41,5.41,0,0,0-.49-.7l.69-.34a6,6,0,0,1,.76,1h3.64v.78H9l.47.3a16,16,0,0,1-1.51.64c.72.2,1.39.42,1.91.6l-.49.43h1.56v.82H3v1.28c0,.31,0,.64,0,1a5.59,5.59,0,0,0,1.37-2.13l.86.24c-.08.21-.17.4-.26.61h1.6v-.8h1v.8h2.79v.79H7.55v.79h2.51v.78H7.55v.89Zm-2.19-5.06c-.57-.2-1.3-.43-2.07-.67-.88.27-1.79.49-2.63.67Zm-4.47-2c.78.18,1.63.4,2.45.63a11,11,0,0,0,1.66-.63Z" fill="#002a5e"/><path d="M16,189.6A9,9,0,0,1,12.78,191a4.47,4.47,0,0,0-.6-.73,9,9,0,0,0,3.08-1ZM21.62,188v.84H17.38v2.5h-1v-2.5H12.22V188H16.4v-.65H13.22v-.75H16.4v-.64H12.7v-.79h2.16a6.16,6.16,0,0,0-.47-.92l.62-.15H12.27v-.8h1.6a7.45,7.45,0,0,0-.79-1.45l.88-.3a7.54,7.54,0,0,1,.86,1.54l-.57.21h1.2v-1.85h.94v1.85h1.06v-1.85h.95v1.85h1.17l-.42-.14a9.24,9.24,0,0,0,.75-1.59l1,.27c-.29.52-.62,1.06-.9,1.46h1.54v.8H18.76l.84.21a9.58,9.58,0,0,1-.7.86h2.29v.79H17.38v.64h3.3v.75h-3.3V188Zm-6.25-3.9a4.84,4.84,0,0,1,.5.94l-.48.13h2.93l-.38-.12a8.85,8.85,0,0,0,.6-.95Zm3.24,5.13c.95.34,2.26.86,3,1.2l-.66.58c-.67-.33-2-.9-3-1.28Z" fill="#002a5e"/><path d="M29.68,181.6a6.77,6.77,0,0,0,3,3.93,4.38,4.38,0,0,0-.72.91,6.51,6.51,0,0,1-1-.77c0,.06,0,.14,0,.18-.14,3.27-.28,4.52-.65,4.94a1.18,1.18,0,0,1-.89.44,12.89,12.89,0,0,1-1.66,0,2.31,2.31,0,0,0-.33-1,15.05,15.05,0,0,0,1.52.08.57.57,0,0,0,.45-.16c.25-.25.39-1.26.5-3.77H27.48c-.28,2.09-1,4-3.73,5a3,3,0,0,0-.65-.89,4.4,4.4,0,0,0,3.3-4.1h-2v-.74a7.66,7.66,0,0,1-.88.84,5.57,5.57,0,0,0-.85-.74,7.67,7.67,0,0,0,2.72-3.94l1.05.24a10.62,10.62,0,0,1-1.84,3.37h6.19a9,9,0,0,1-1.82-2.87H27.13v-.93Z" fill="#002a5e"/><path d="M37,187.83c-.17-.35-.52-.94-.85-1.47v4.94h-1v-4.68a10.44,10.44,0,0,1-1.32,2.76,5.08,5.08,0,0,0-.51-.92,10.77,10.77,0,0,0,1.71-3.84H33.68v-1h1.54v-2.25h1v2.25h1.54v1H36.18v.49c.39.48,1.25,1.64,1.45,1.94Zm6.3-1.84H41.86v5.31h-1V186H39.16c0,1.63-.19,3.84-1.18,5.28a4.07,4.07,0,0,0-.83-.5c1-1.41,1.06-3.46,1.06-5v-3.23a16.64,16.64,0,0,0,3.68-1.05l.85.78a18.44,18.44,0,0,1-3.58,1v1.75h4.17Z" fill="#002a5e"/><path d="M45.59,186.94h2.48v3.3H45.59V191h-.9V183h.9a11.19,11.19,0,0,0,.38-1.6l1.1.13c-.18.49-.39,1-.59,1.47H48v3.07H45.59Zm1.49-3.08H45.59v1.37h1.49Zm-1.49,3.94v1.59h1.59V187.8Zm6.06-4.94V184h2.11v4.68c0,.42-.06.69-.33.84a2.82,2.82,0,0,1-1.21.15,3.49,3.49,0,0,0-.25-.86h.73c.1,0,.14,0,.14-.14v-3.77H51.65v6.35h-.93v-6.35H49.63v4.75h-.91V184h2v-1.16H48.34V182h5.72v.91Z" fill="#002a5e"/><path d="M5.83,203.21a6.82,6.82,0,0,0,2.39.3c.64,0,3.74,0,4.54,0a3.34,3.34,0,0,0-.41,1H8.23c-2.15,0-3.44-.31-4.25-1.66a6.2,6.2,0,0,1-.56,1.93,4.76,4.76,0,0,0-.81-.45,10.52,10.52,0,0,0,.7-4.62l.9.07c0,.51,0,1-.06,1.49a3.13,3.13,0,0,0,.79,1.4V199h-2v-.9H4.78V197H3.12v-.87H4.78v-1.21H5.7v1.21H7.3V197H5.7v1.17H7.51v.38A3.08,3.08,0,0,0,9,196.15H7.64v-.85h4.68s0,.25,0,.37c-.09,1.87-.2,2.63-.43,2.9a1,1,0,0,1-.67.32,10.5,10.5,0,0,1-1.16,0,2.16,2.16,0,0,0-.26-.85c.41,0,.79,0,1,0a.37.37,0,0,0,.32-.11c.13-.15.2-.62.27-1.83H9.92A4,4,0,0,1,8,199.25a4.77,4.77,0,0,0-.49-.41V199H5.83v1.36H7.39v.87H5.83ZM8,199.41h4.13v3.32H8Zm.92,2.51h2.21v-1.69H8.87Z" fill="#002a5e"/><path d="M16.33,200.12a9.79,9.79,0,0,1-.56,2.27c.67,1.15,1.95,1.33,3.85,1.33,1.12,0,2.77-.06,3.91-.17a3,3,0,0,0-.33.93c-1.05.07-2.39.1-3.6.1-2.07,0-3.36-.22-4.19-1.38a5.12,5.12,0,0,1-1.32,1.58,3.38,3.38,0,0,0-.67-.69,5.06,5.06,0,0,0,1.92-3.33h-.91a1.06,1.06,0,0,0-.63.16,5,5,0,0,0-.35-.85,1,1,0,0,0,.53-.33,16.77,16.77,0,0,0,1.18-1.59H13.61v-.8h2.18l.12-.06.63.28c-.42.62-1.14,1.67-1.72,2.4h.92l.16,0Zm-1.11-3.07A12.84,12.84,0,0,0,14,195.31l.76-.44A14.24,14.24,0,0,1,16,196.51Zm2.45,6.1H16.8V198.5h.79v-3.28h4.49v3.28h.82v3.72c0,.42-.08.66-.36.79a3.59,3.59,0,0,1-1.33.14,2.63,2.63,0,0,0-.24-.8c.39,0,.75,0,.86,0s.16,0,.16-.14v-2.94H17.67Zm3.55-1h-2v.37h-.75v-2.67h2.78Zm-2.74-3.67h.84v-1.74h1.86V196h-2.7Zm2,2H19.19v1h1.27Zm.72-3.11h-1.1v1.08h1.1Z" fill="#002a5e"/><path d="M24.77,202.88H26.5v-5.3H25.08v-.78a4.73,4.73,0,0,0,1.73-.6h.93v6.68h1.55v1H24.77Z" fill="#002a5e"/><path d="M30.49,200c0-2.6,1-4,2.56-4s2.56,1.38,2.56,4-1,4-2.56,4S30.49,202.61,30.49,200Zm3.93,0c0-2.22-.57-3-1.37-3s-1.38.77-1.38,3,.57,3,1.38,3S34.42,202.23,34.42,200Z" fill="#002a5e"/><path d="M36.62,200c0-2.6,1-4,2.56-4s2.56,1.38,2.56,4-1,4-2.56,4S36.62,202.61,36.62,200Zm3.94,0c0-2.22-.57-3-1.38-3s-1.37.77-1.37,3,.57,3,1.37,3S40.56,202.23,40.56,200Z" fill="#002a5e"/><path d="M46.18,195.21a16.59,16.59,0,0,1-1,2.22v7.3h-1V199a8.82,8.82,0,0,1-.88,1.07,7.27,7.27,0,0,0-.56-1,11.67,11.67,0,0,0,2.55-4.14Zm6.29,8.14v1H45.78v-1h3.73a39.13,39.13,0,0,0,1-5.17l1,.17c-.29,1.62-.7,3.62-1.08,5Zm-.4-5.63H46.21v-1h5.86Zm-4.51,5.22a40.91,40.91,0,0,0-.67-4.49l.89-.21a40.43,40.43,0,0,1,.77,4.41Zm1.23-6.24a10.43,10.43,0,0,0-.49-1.7l.94-.23a13.15,13.15,0,0,1,.54,1.65Z" fill="#002a5e"/><circle cx="17.27" cy="150" r="2.29" fill="#f8a908" stroke="#002a5e" stroke-miterlimit="10" stroke-width="0.45"/><path d="M22,158.08a4.68,4.68,0,1,0-9.35,0Z" fill="#f8a908" stroke="#002a5e" stroke-miterlimit="10" stroke-width="0.45"/><circle cx="27.67" cy="158.96" r="2.29" fill="#f8a908" stroke="#002a5e" stroke-miterlimit="10" stroke-width="0.45"/><path d="M32.34,167A4.68,4.68,0,0,0,23,167Z" fill="#f8a908" stroke="#002a5e" stroke-miterlimit="10" stroke-width="0.45"/><circle cx="38.06" cy="150" r="2.29" fill="#f8a908" stroke="#002a5e" stroke-miterlimit="10" stroke-width="0.45"/><path d="M42.73,158.08a4.67,4.67,0,1,0-9.34,0Z" fill="#f8a908" stroke="#002a5e" stroke-miterlimit="10" stroke-width="0.45"/><circle cx="27.67" cy="143.73" r="2.29" fill="#f8a908" stroke="#002a5e" stroke-miterlimit="10" stroke-width="0.45"/><path d="M32.34,151.81a4.68,4.68,0,1,0-9.35,0Z" fill="#f8a908" stroke="#002a5e" stroke-miterlimit="10" stroke-width="0.45"/><path d="M29.79,131.89v2.61a19.85,19.85,0,0,1,0,39.48v2.61a22.45,22.45,0,0,0,0-44.7ZM5.21,154.24a22.48,22.48,0,0,0,20.33,22.35V174a19.87,19.87,0,0,1,0-39.5v-2.6A22.47,22.47,0,0,0,5.21,154.24Z" fill="#002a5e" stroke="#002a5e" stroke-miterlimit="10" stroke-width="0.45"/><path d="M246.49,186.45a7.67,7.67,0,0,1-3.05,4.71,4.39,4.39,0,0,0-.8-.75,6.21,6.21,0,0,0,2.58-3.26h-2.34v-1h2.77l.18,0Zm5.76-.87a24.83,24.83,0,0,1-2.73,2.22,6.53,6.53,0,0,0,3.11,2.48,4.3,4.3,0,0,0-.7.88,7.49,7.49,0,0,1-3.73-3.75v3.19c0,.57-.13.86-.51,1a5.42,5.42,0,0,1-1.89.18,3.51,3.51,0,0,0-.35-1c.59,0,1.25,0,1.43,0s.25-.07.25-.25v-5.51h-2.84v-.95h3.91V185A11.23,11.23,0,0,0,249,187a15.71,15.71,0,0,0,2.29-2.13Zm-3.12-1.32a18.74,18.74,0,0,0-3.92-1.47l.5-.82a17.73,17.73,0,0,1,3.95,1.35Z" fill="#002a5e"/><path d="M254.67,189a14.82,14.82,0,0,1-.52,2.75,4.51,4.51,0,0,0-.76-.25,12.4,12.4,0,0,0,.5-2.64Zm1.75-.44-.11-.59a10.11,10.11,0,0,0-2.55.49,5.07,5.07,0,0,0-.28-.83c.23-.06.45-.32.76-.73a12.29,12.29,0,0,0,.76-1.11,5.42,5.42,0,0,0-1.32.24,6.15,6.15,0,0,0-.28-.82c.2,0,.36-.25.56-.59a12.92,12.92,0,0,0,1.24-2.7l.84.35a16.69,16.69,0,0,1-1.43,2.76l.9-.07c.25-.48.51-1,.72-1.46l.78.46a19.9,19.9,0,0,1-2.18,3.42l1.32-.18c-.09-.32-.19-.65-.28-.94l.69-.19a18.54,18.54,0,0,1,.59,2.25Zm-.79.28a20.85,20.85,0,0,1,.28,2.46l-.74.14a20.61,20.61,0,0,0-.23-2.48Zm.94-.27a18.66,18.66,0,0,1,.56,2l-.68.21a16.59,16.59,0,0,0-.53-2Zm4.62,1.7c.77.27,1.57.59,2.1.83l-.41.71c-.57-.27-1.47-.68-2.28-1l.32-.56h-1.74l.59.55c-.81.37-1.86.77-2.61,1.05a4.9,4.9,0,0,0-.38-.7,19,19,0,0,0,2.19-.9h-1.58v-3.16h5.34v3.16Zm-1.56-7.12H257v-.68h2.64v-.53h1v.53h2.52v.68h-2.52v.47h2.14v.65h-5.34v-.65h2.22ZM257,184.63h6v2.07h-6Zm.83,1.42h1v-.77h-1Zm.42,2h3.52v-.38h-3.52Zm0,.82h3.52v-.4h-3.52Zm0,.85h3.52v-.43h-3.52Zm2.29-3.67v-.77h-.94v.77Zm1.63-.77h-.87v.77h.87Z" fill="#002a5e"/><path d="M274,189.48h-2.49v1.33c0,.47-.09.73-.48.87a6.23,6.23,0,0,1-1.77.13A3.06,3.06,0,0,0,269,191c.59,0,1.21,0,1.37,0s.21-.06.21-.18v-1.3H267a8.68,8.68,0,0,1,1.47,1.18l-.74.64a8.61,8.61,0,0,0-1.69-1.4l.49-.42h-2.18v-.8h6.22v-.55l-5.76.12,0-.76,3.9,0V187h-3.21v-3h3.21v-.51h-4v-.77h4V182h1v.76h4v.77h-4V184h3.31v3h-1a8.38,8.38,0,0,1,1.67,1l-.59.53c-.15-.13-.35-.25-.56-.4l-.94,0v.58H274Zm-7.62-4.31h2.26v-.54h-2.26Zm2.26,1.17v-.56h-2.26v.56Zm1-1.71v.54H272v-.54Zm2.33,1.15h-2.33v.56H272Zm-2.33,1.69,1.73,0a6.06,6.06,0,0,0-.65-.28l.24-.2h-1.32Z" fill="#002a5e"/><path d="M283.74,186.43c-.46.37-1,.75-1.52,1.12a4.91,4.91,0,0,0,2.69,3,3.49,3.49,0,0,0-.66.81,5.7,5.7,0,0,1-2.81-3.32l-.44.26a3.16,3.16,0,0,1-.49,3.07,1.47,1.47,0,0,1-1.16.43c-.25,0-.57,0-.89,0a2.63,2.63,0,0,0-.27-.94c.37,0,.72.05.95.05a.77.77,0,0,0,.65-.23,2,2,0,0,0,.38-1.53,15.81,15.81,0,0,1-4.48,2.19,3.47,3.47,0,0,0-.53-.82,12.76,12.76,0,0,0,4.83-2.29,3.73,3.73,0,0,0-.22-.61,18,18,0,0,1-3.93,1.82,5.21,5.21,0,0,0-.5-.79,13.61,13.61,0,0,0,4-1.68,4,4,0,0,0-.42-.52,14,14,0,0,1-3,1.2,5.2,5.2,0,0,0-.53-.79,11.88,11.88,0,0,0,3.65-1.38h-2.19v-.86h6.09v.86h-2.55a6.42,6.42,0,0,1-.7.53,4.56,4.56,0,0,1,1,1.5,17.77,17.77,0,0,0,2.19-1.72Zm-7.35-1.28h-1v-2.29h3.94a7.65,7.65,0,0,0-.33-.7l1-.3a7.25,7.25,0,0,1,.51,1h3.88v2.29h-1v-1.39h-7.05Z" fill="#002a5e"/><path d="M252.73,203.7c2.2-2.16,3.54-3.54,3.54-4.74a1.26,1.26,0,0,0-1.35-1.4,2.17,2.17,0,0,0-1.56.88l-.7-.69a3.12,3.12,0,0,1,2.41-1.18,2.21,2.21,0,0,1,2.39,2.32c0,1.41-1.28,2.83-2.93,4.55.4,0,.91-.07,1.29-.07h2v1h-5.11Z" fill="#002a5e"/><path d="M258.86,203.7c2.21-2.16,3.54-3.54,3.54-4.74a1.25,1.25,0,0,0-1.34-1.4,2.15,2.15,0,0,0-1.56.88l-.7-.69a3.09,3.09,0,0,1,2.41-1.18,2.21,2.21,0,0,1,2.38,2.32c0,1.41-1.28,2.83-2.92,4.55.4,0,.9-.07,1.29-.07h2v1h-5.11Z" fill="#002a5e"/><path d="M268.45,195.73a18,18,0,0,1-1,2.23v7.29h-1v-5.72a9.52,9.52,0,0,1-.88,1.06,6,6,0,0,0-.56-1,11.67,11.67,0,0,0,2.55-4.14Zm6.29,8.14v1h-6.69v-1h3.73a39.13,39.13,0,0,0,1-5.17l1,.17c-.29,1.62-.69,3.63-1.08,5Zm-.4-5.62h-5.86v-1h5.86Zm-4.5,5.22a43.89,43.89,0,0,0-.68-4.5l.89-.21a41.54,41.54,0,0,1,.78,4.41Zm1.22-6.25a10.06,10.06,0,0,0-.49-1.69l.94-.24a11.4,11.4,0,0,1,.54,1.66Z" fill="#002a5e"/><path d="M248.33,148.17h7.18v2h-4.84v2.7h4.11v2h-4.11v3.13h5v2h-7.35Z" fill="#f8a908" stroke="#002a5e" stroke-miterlimit="10" stroke-width="0.45"/><path d="M257.89,158.33l1.35-1.62a6,6,0,0,0,3.6,1.34c1.22,0,2.29-.41,2.29-1.26s-1-1.25-2.24-1.66l-1.68-.59a3.6,3.6,0,0,1-2.77-3.21c0-1.94,1.85-3.38,4.45-3.38a6.42,6.42,0,0,1,4.31,1.55L266,151a5.11,5.11,0,0,0-3.11-1.07c-1.08,0-2.06.39-2.06,1.25s1.14,1.17,2.29,1.54l1.66.57c1.55.52,2.75,1.52,2.75,3.26,0,2-1.78,3.49-4.69,3.49A7.46,7.46,0,0,1,257.89,158.33Z" fill="#f8a908" stroke="#002a5e" stroke-miterlimit="10" stroke-width="0.45"/><path d="M269.64,154.08c0-3.86,2.49-6.11,5.61-6.11a4.91,4.91,0,0,1,3.62,1.5L277.64,151a3.16,3.16,0,0,0-2.31-1c-1.95,0-3.31,1.52-3.31,4s1.17,4.08,3.48,4.08a2.41,2.41,0,0,0,1.46-.44v-2.31h-2.08v-1.91H279v5.28a5.52,5.52,0,0,1-3.79,1.41C272.07,160.11,269.64,158,269.64,154.08Z" fill="#f8a908" stroke="#002a5e" stroke-miterlimit="10" stroke-width="0.45"/><path d="M241,154.24a22.48,22.48,0,0,0,20.33,22.35V174a19.85,19.85,0,0,1,0-39.48v-2.61A22.47,22.47,0,0,0,241,154.24Zm24.58-22.35v2.6a19.86,19.86,0,0,1,0,39.5v2.6a22.45,22.45,0,0,0,0-44.7Z" fill="#002a5e" stroke="#002a5e" stroke-miterlimit="10" stroke-width="0.45"/><path d="M160.76,315.63a12.15,12.15,0,0,1-1,4,4.65,4.65,0,0,0,1.93,2.08,3.46,3.46,0,0,0-.64.78,5.26,5.26,0,0,1-1.8-2,6.49,6.49,0,0,1-2.38,2.06,4.66,4.66,0,0,0-.36-.58l-.29.26a11.07,11.07,0,0,0-1.33-.65,9.51,9.51,0,0,1-2.83.92,2.53,2.53,0,0,0-.41-.65,9.57,9.57,0,0,0,2.3-.65c-.52-.18-1-.34-1.5-.47.19-.25.4-.56.61-.88h-1.26v-.71h1.69l.31-.59h-1.54v-1.8h1.95v-.41h-1.74v-1.18h-.73v-.74h.73v-1.11h1.74v-.67h.77v.67h1.85v1.11h.6v.74h-.6v1.18h-1.85v.41H157v.52a15.48,15.48,0,0,0,1.43-4.63l.84.16c-.12.64-.26,1.27-.42,1.9h2.71v.88ZM153.05,318h1.12v-.59h-1.12Zm.15-4v.49h1V314Zm1,1.69v-.57h-1v.57Zm-.24,4.18c-.1.18-.22.35-.32.51.37.11.74.24,1.11.37a1.83,1.83,0,0,0,.7-.88Zm2.33,0a2.42,2.42,0,0,1-.7,1.21,12.36,12.36,0,0,1,1.14.54,5.19,5.19,0,0,0,2.08-2,15.38,15.38,0,0,1-.73-2.55,9.53,9.53,0,0,1-.51,1.06,7.29,7.29,0,0,0-.55-.51v1h-2.34c-.09.19-.2.38-.31.59h1.18v-.37h.8v.37h1v.71ZM154.94,314v.49H156V314Zm1.06,1.69v-.57h-1.06v.57Zm-1.06,1.68V318h1.18v-.59Zm3.64-1.77,0,.08a15.89,15.89,0,0,0,.71,2.91,12.54,12.54,0,0,0,.64-3Z" fill="#002a5e"/><path d="M164.58,318.45v3c0,.48-.1.75-.38.9a3.05,3.05,0,0,1-1.39.19,3.51,3.51,0,0,0-.27-.92c.43,0,.83,0,1,0s.19,0,.19-.18v-2.77l-1.15.36-.24-1c.39-.08.88-.22,1.39-.37v-2h-1.21v-.92h1.21v-2.1h.9v2.1h.92v.92h-.92v1.77l.94-.29.14.9Zm2.12-.81a8.81,8.81,0,0,1-1.15,4.93,2.82,2.82,0,0,0-.73-.51,7.71,7.71,0,0,0,1-4.43v-3.08h2.38v-1.84h1v.59h2.48V314h-2.48v.52h2.28l.14,0,.62.14a12.38,12.38,0,0,1-.52,1.59l-.76-.17a6.41,6.41,0,0,0,.25-.8H169v.51l1.6-.14.06.57-1.66.17v0c0,.25,0,.35.29.35h1.36a5.08,5.08,0,0,0,.82-.06c0,.22,0,.42.07.62a4,4,0,0,1-.83.05h-1.58c-.73,0-.92-.26-1-.78l-1.2.11-.08-.74,1.27-.12v-.58H166.7Zm5.49,1.48a9.47,9.47,0,0,1-1.15.56,3.28,3.28,0,0,0,1.39,2,2.85,2.85,0,0,0-.57.63,4.11,4.11,0,0,1-1.42-2.33,4.13,4.13,0,0,1-.45.17,2.13,2.13,0,0,1-.21,2.16,1,1,0,0,1-.8.32h-.55a1.51,1.51,0,0,0-.22-.72l.63,0a.4.4,0,0,0,.38-.15,1.24,1.24,0,0,0,.18-.94,10,10,0,0,1-2.59,1.44,3.69,3.69,0,0,0-.38-.56,8,8,0,0,0,2.83-1.48c0-.1-.1-.22-.16-.32a9.06,9.06,0,0,1-2.14,1.05,1.9,1.9,0,0,0-.35-.52,7,7,0,0,0,2.22-.94l-.25-.26a8.27,8.27,0,0,1-1.49.57,3.47,3.47,0,0,0-.3-.52,8.32,8.32,0,0,0,2.15-.85h-2v-.67h5.22v.67h-2.27a6.53,6.53,0,0,1-.72.5,2.55,2.55,0,0,1,.58.7,20.2,20.2,0,0,0,1.87-.95Z" fill="#002a5e"/><path d="M175.09,317.54a12.69,12.69,0,0,0-2-1.09l.52-.77a10.55,10.55,0,0,1,2,1Zm-1.66,4.17a30.74,30.74,0,0,0,1.84-3.34l.78.66c-.51,1.11-1.14,2.34-1.72,3.34Zm.79-8.86a12.86,12.86,0,0,1,1.9,1.07l-.59.8a12.14,12.14,0,0,0-1.87-1.13Zm8.48,8.52c0,.55-.11.85-.45,1a3.78,3.78,0,0,1-1.68.2,4.84,4.84,0,0,0-.32-1c.55,0,1.09,0,1.27,0s.22-.07.22-.24V314h-4.56v8.54h-1v-9.45h6.47Zm-1.48-5.61h-3.49v-.83h3.49Zm-2.45,4.38v.65H178v-4.12h3v3.47Zm0-2.63v1.79h1.36v-1.79Z" fill="#002a5e"/><path d="M192.39,321.52c.42,0,.49-.17.53-1.47a3,3,0,0,0,.94.41c-.12,1.61-.4,2-1.37,2H190.9c-1.13,0-1.41-.3-1.41-1.31v-2h-1.55c-.25,1.71-.92,2.81-3.43,3.38a3.17,3.17,0,0,0-.57-.88c2.2-.43,2.73-1.22,2.93-2.5h-1.38v-6.16h6.84v6.16h-1.82v2c0,.32.07.36.51.36Zm-5.94-6.68h4.87v-.9h-4.87Zm0,1.73h4.87v-.91h-4.87Zm0,1.76h4.87v-.93h-4.87Z" fill="#002a5e"/><path d="M204.05,313.12v9.41h-1V322h-6.91v.55h-.91v-9.46Zm-1,8.12V313.9h-6.91v7.34Zm-.3-1.65h-1.46v.86c0,.35-.09.47-.35.55a5.29,5.29,0,0,1-1.29.08,2.24,2.24,0,0,0-.21-.54h.86c.11,0,.15,0,.15-.14v-.82h-4V319h4v-.36h.84V319h1.46Zm-1.2-1.94a7,7,0,0,1,1,1l-.53.41c-.11-.14-.26-.29-.42-.46-1.83.06-3.67.11-5,.13l0-.57,2.53,0v-.44H197v-2.17h2.2v-.38h-2.56v-.59h2.56v-.44H200v.44h2.62v.59H200v.38h2.29v2.17Zm-3.19,3.26a5.31,5.31,0,0,0-.84-1l.62-.32a5.24,5.24,0,0,1,.9,1Zm-.64-4.57h1.42v-.4h-1.42Zm1.42.85v-.41h-1.42v.41Zm.83-1.25v.4h1.49v-.4Zm1.49,1.25v-.41H200v.41Zm-.36.88-.19-.16.4-.26H200v.44Z" fill="#002a5e"/><path d="M209.09,313.5c-.31.89-.68,2-1,2.85a3.32,3.32,0,0,1,.89,2.24,1.54,1.54,0,0,1-.44,1.29,1.71,1.71,0,0,1-.59.2,5.43,5.43,0,0,1-.71,0,2.15,2.15,0,0,0-.22-.86,3.47,3.47,0,0,0,.55,0,.51.51,0,0,0,.32-.1c.15-.1.2-.35.2-.67a3,3,0,0,0-.88-2c.28-.74.56-1.68.76-2.4h-1.16v8.52h-.88v-9.43h2.38l.14,0Zm6,2.91a15.13,15.13,0,0,1-1.35.91,8.33,8.33,0,0,0,1.75,3.11,3.63,3.63,0,0,0-.65.65,10.36,10.36,0,0,1-1.8-3.34l-.13.06c.53,1.74.3,3.58-.33,4.15a1.34,1.34,0,0,1-1.14.48c-.2,0-.55,0-.85,0a2.32,2.32,0,0,0-.24-.89,8.15,8.15,0,0,0,.92,0,.65.65,0,0,0,.6-.26,2.81,2.81,0,0,0,.39-1.84,12.26,12.26,0,0,1-2.9,1.72,2.79,2.79,0,0,0-.6-.73,8.55,8.55,0,0,0,3.38-2,4.62,4.62,0,0,0-.18-.71,14,14,0,0,1-2.26,1.43,3.39,3.39,0,0,0-.54-.72,9.24,9.24,0,0,0,2.49-1.43,4.22,4.22,0,0,0-.45-.73,11,11,0,0,1-1.89,1.14,3.22,3.22,0,0,0-.59-.72,8.05,8.05,0,0,0,2.42-1.44H209v-.87h1.93a6.74,6.74,0,0,0-1.14-1.21l.74-.46a6,6,0,0,1,1.28,1.31l-.54.36h1.1a9.18,9.18,0,0,0,1.07-1.73l1,.29a12.92,12.92,0,0,1-1,1.44h1.84v.86h-2.92a4.43,4.43,0,0,1-.48.49,5.41,5.41,0,0,1,.81,1.28,16.68,16.68,0,0,0,1.83-1.32Z" fill="#002a5e"/><path d="M219.3,321a7.06,7.06,0,0,0,2.39.3c.64,0,3.74,0,4.54,0a3.34,3.34,0,0,0-.41,1H221.7c-2.15,0-3.44-.32-4.25-1.66a6.28,6.28,0,0,1-.56,1.93,4.76,4.76,0,0,0-.81-.45,10.67,10.67,0,0,0,.7-4.62l.89.06c0,.52,0,1,0,1.5a3.09,3.09,0,0,0,.79,1.4v-3.63h-2v-.89h1.88v-1.17h-1.66v-.87h1.66v-1.21h.92v1.21h1.6v.87h-1.6v1.17H221v.38a3.08,3.08,0,0,0,1.46-2.35h-1.33v-.85h4.68a3.19,3.19,0,0,1,0,.37c-.08,1.87-.19,2.62-.43,2.9a.88.88,0,0,1-.66.31,10,10,0,0,1-1.16,0,2.44,2.44,0,0,0-.26-.86,7.83,7.83,0,0,0,.94.05.39.39,0,0,0,.33-.11c.13-.15.2-.62.27-1.83h-1.41a4.06,4.06,0,0,1-1.92,3.1,6.17,6.17,0,0,0-.49-.41v.17H219.3v1.37h1.56v.87H219.3Zm2.12-3.8h4.13v3.31h-4.13Zm.92,2.51h2.21v-1.69h-2.21Z" fill="#002a5e"/><path d="M229.8,317.94a10.47,10.47,0,0,1-.56,2.27c.67,1.15,1.95,1.32,3.84,1.32,1.13,0,2.78,0,3.92-.16a3,3,0,0,0-.33.93c-1,.06-2.39.09-3.6.09-2.07,0-3.36-.21-4.19-1.37a5,5,0,0,1-1.33,1.58,3.1,3.1,0,0,0-.66-.69,5.1,5.1,0,0,0,1.92-3.34h-.91a1.12,1.12,0,0,0-.64.17,4.31,4.31,0,0,0-.34-.85,1,1,0,0,0,.53-.34,15.14,15.14,0,0,0,1.18-1.58h-1.55v-.81h2.17l.13-.05.63.28c-.42.61-1.14,1.67-1.72,2.4h.92l.16,0Zm-1.12-3.08a11.78,11.78,0,0,0-1.27-1.73l.77-.44a14.24,14.24,0,0,1,1.29,1.64Zm2.46,6.1h-.88v-4.64h.8V313h4.49v3.28h.81V320c0,.42-.07.66-.35.78a3.59,3.59,0,0,1-1.33.14,2.87,2.87,0,0,0-.24-.79c.39,0,.75,0,.86,0s.16,0,.16-.14V317.1h-4.32Zm3.55-1h-2v.38h-.74v-2.68h2.78Zm-2.75-3.66h.85v-1.75h1.85v-.77h-2.7Zm2,2h-1.28v1h1.28Zm.71-3.11h-1.09v1.08h1.09Z" fill="#002a5e"/><path d="M166.91,334.22l.6-.79a2.6,2.6,0,0,0,1.88.87c.89,0,1.5-.49,1.5-1.26s-.56-1.4-2.34-1.4v-.91c1.56,0,2.07-.57,2.07-1.32a1.07,1.07,0,0,0-1.21-1.1,2.22,2.22,0,0,0-1.58.75l-.65-.77a3.32,3.32,0,0,1,2.27-1c1.42,0,2.42.73,2.42,2a1.85,1.85,0,0,1-1.36,1.79v.06a2,2,0,0,1,1.63,1.93c0,1.39-1.19,2.21-2.65,2.21A3.31,3.31,0,0,1,166.91,334.22Z" fill="#002a5e"/><path d="M173.25,331.29c0-2.6,1-4,2.56-4s2.56,1.39,2.56,4-1,4-2.56,4S173.25,333.88,173.25,331.29Zm3.94,0c0-2.22-.57-3-1.38-3s-1.38.77-1.38,3,.57,3,1.38,3S177.19,333.5,177.19,331.29Z" fill="#002a5e"/><path d="M182.81,326.48a17.32,17.32,0,0,1-1.05,2.23V336h-1v-5.72a9.52,9.52,0,0,1-.88,1.06,6.74,6.74,0,0,0-.56-1,11.67,11.67,0,0,0,2.55-4.14Zm6.29,8.14v1h-6.69v-1h3.73a39.13,39.13,0,0,0,1-5.17l1,.17c-.29,1.62-.7,3.62-1.08,5Zm-.4-5.63h-5.86v-1h5.86Zm-4.5,5.22a43.73,43.73,0,0,0-.68-4.49l.89-.21a40.84,40.84,0,0,1,.77,4.41Zm1.22-6.24a10.43,10.43,0,0,0-.49-1.7l.94-.23a13.15,13.15,0,0,1,.54,1.65Z" fill="#002a5e"/><path d="M193.64,332.73a13.53,13.53,0,0,0-.83-1.42V336h-1v-4.36a10.28,10.28,0,0,1-1.38,2.51,6.82,6.82,0,0,0-.48-.93,10.82,10.82,0,0,0,1.72-3.15h-1.58v-.94h1.72V327.7c-.46.09-.93.15-1.36.22a2.92,2.92,0,0,0-.28-.78,15.61,15.61,0,0,0,3.42-.87l.57.82a10.79,10.79,0,0,1-1.38.41v1.64h1.5v.94h-1.5v.15c.32.33,1.23,1.43,1.44,1.71Zm5.05.52V336h-1v-2.58l-3.39.57-.15-1,3.54-.59v-6.31h1v6.15l1.17-.2.15.94Zm-2.35-1.45a9.26,9.26,0,0,0-1.79-1.6l.63-.58a9.45,9.45,0,0,1,1.84,1.53Zm.27-2.83a9,9,0,0,0-1.66-1.56l.65-.57a8.6,8.6,0,0,1,1.71,1.5Z" fill="#002a5e"/><path d="M210.57,334h-4.18v1c0,.47-.11.71-.49.84a5.83,5.83,0,0,1-1.77.14,3.84,3.84,0,0,0-.33-.85c.6,0,1.22,0,1.38,0s.23,0,.23-.18v-1H201v-.82h4.41v-.39a9.84,9.84,0,0,0,1.45-.73H203v-.73h4.87l.22-.06.57.52a10.93,10.93,0,0,1-2.28,1.3v.09h4.18Zm-8.41-2h-.95V330H202l-.2-3.18a20.94,20.94,0,0,0,2.11-.55l.43.59a10.11,10.11,0,0,1-1.58.42l0,.43h1.47v.65h-1.44l0,.49h1.45v.64a5.85,5.85,0,0,0,.91-.51c-.23-.14-.48-.28-.7-.39l.48-.41a6.83,6.83,0,0,1,.75.4,3,3,0,0,0,.49-.52l.67.21a5.09,5.09,0,0,1-.59.66,4.51,4.51,0,0,1,.71.55l-.5.46a4.88,4.88,0,0,0-.72-.57,8.38,8.38,0,0,1-1,.63h3.75c0-.16,0-.32.06-.49h-1.43v-.66h1.47l0-.49H207.3v-.65h1.51l0-.48h-1.58v-.66h2.56c-.06,1.09-.15,2.46-.24,3.43h.82V332h-1v-1.3h-7.24ZM203,330h1.84a2.91,2.91,0,0,0-.5-.49h-1.36Zm3.57-2a4.48,4.48,0,0,0-.67-.5,6.85,6.85,0,0,1-.93.59,4.45,4.45,0,0,0-.55-.46,4.32,4.32,0,0,0,.89-.5,5.49,5.49,0,0,0-.68-.35l.48-.42a6.25,6.25,0,0,1,.72.38,3.37,3.37,0,0,0,.46-.48l.67.18a4.67,4.67,0,0,1-.56.64,5,5,0,0,1,.66.47Z" fill="#002a5e"/><path d="M220.37,330.63c-.46.38-1,.75-1.51,1.12a4.91,4.91,0,0,0,2.69,3,3.25,3.25,0,0,0-.66.81,5.69,5.69,0,0,1-2.82-3.32l-.43.26a3.16,3.16,0,0,1-.49,3.07A1.48,1.48,0,0,1,216,336c-.25,0-.57,0-.9,0a2.28,2.28,0,0,0-.27-.94c.38,0,.72.06,1,.06a.78.78,0,0,0,.65-.24,2,2,0,0,0,.37-1.53,16.05,16.05,0,0,1-4.47,2.2,3.65,3.65,0,0,0-.53-.83,12.76,12.76,0,0,0,4.83-2.29,5,5,0,0,0-.22-.61,18,18,0,0,1-3.93,1.82,4.18,4.18,0,0,0-.51-.78,13.57,13.57,0,0,0,4-1.69,4,4,0,0,0-.42-.52,14.6,14.6,0,0,1-3,1.21,4.19,4.19,0,0,0-.52-.8,11.82,11.82,0,0,0,3.64-1.38h-2.18v-.86h6.09v.86H217a6.12,6.12,0,0,1-.7.53,4.47,4.47,0,0,1,1,1.51,18.14,18.14,0,0,0,2.2-1.73ZM213,329.35h-1v-2.29H216a5.69,5.69,0,0,0-.34-.7l1.05-.3a7.18,7.18,0,0,1,.5,1h3.88v2.29h-1V328h-7Z" fill="#002a5e"/><path d="M170.8,284.91a22.48,22.48,0,0,0,20.33,22.35v-2.61a19.85,19.85,0,0,1,0-39.48v-2.62A22.49,22.49,0,0,0,170.8,284.91Zm24.58-22.36v2.61a19.86,19.86,0,0,1,0,39.5v2.6a22.46,22.46,0,0,0,0-44.71Z" fill="#002a5e" stroke="#002a5e" stroke-miterlimit="10" stroke-width="0.45"/><path d="M199.18,286.82h3.37a0,0,0,0,1,0,0v9.69a1.69,1.69,0,0,1-1.69,1.69h0a1.69,1.69,0,0,1-1.69-1.69v-9.69A0,0,0,0,1,199.18,286.82Z" transform="translate(-148.01 227.71) rotate(-45)" fill="#f8a908" stroke="#002a5e" stroke-miterlimit="10" stroke-width="0.45"/><path d="M191.93,278.38h4.38a0,0,0,0,1,0,0V291a2.19,2.19,0,0,1-2.19,2.19h0a2.19,2.19,0,0,1-2.19-2.19v-12.6A0,0,0,0,1,191.93,278.38Z" transform="translate(533.46 350.58) rotate(135)" fill="#fff" stroke="#002a5e" stroke-miterlimit="10" stroke-width="0.45"/><circle cx="190.96" cy="282.61" r="9.83" fill="#f8a908" stroke="#002a5e" stroke-miterlimit="10" stroke-width="0.45"/><circle cx="190.96" cy="282.61" r="7.39" fill="#fff" stroke="#002a5e" stroke-miterlimit="10" stroke-width="0.45"/><polyline points="187.94 286.2 188.72 283.47 191.57 284.19 193.19 278.56" fill="#fff" stroke="#002a5e" stroke-miterlimit="10" stroke-width="0.45"/><polygon points="193.28 278.06 191.79 279.49 193.78 280.06 193.28 278.06" fill="#002a5e" stroke="#002a5e" stroke-miterlimit="10" stroke-width="0.45"/><path d="M73,319.19a18.42,18.42,0,0,0-1-1.52v4.8H71V318a11.19,11.19,0,0,1-1.64,2.67,6.78,6.78,0,0,0-.51-1,10.68,10.68,0,0,0,2-3.15H69.14v-.94H71v-1.4c-.54.09-1.06.16-1.57.23a2.72,2.72,0,0,0-.28-.78,19,19,0,0,0,3.9-.92l.56.83a13.69,13.69,0,0,1-1.64.45v1.59h1.68v.94H71.93v.08c.33.32,1.4,1.46,1.64,1.75Zm4.86,3c-.08-.34-.19-.72-.33-1.16-3.48.55-4,.66-4.3.82,0-.2-.24-.7-.35-1,.29-.1.5-.62.8-1.46a46,46,0,0,0,1.63-6.53l1.06.2a46.31,46.31,0,0,1-2,7.46l2.85-.4c-.31-.93-.71-1.95-1.07-2.82l.92-.33a30.91,30.91,0,0,1,1.77,4.79Z" fill="#002a5e"/><path d="M87.3,319a7,7,0,0,0,2.41,1.09,3.86,3.86,0,0,0-.65.8,6.65,6.65,0,0,1-1.46-.68c-.12,1.24-.24,1.81-.49,2a.88.88,0,0,1-.68.26,6.48,6.48,0,0,1-1.26,0,1.84,1.84,0,0,0-.25-.77c.46,0,.94,0,1.1,0s.28,0,.35-.08a2.13,2.13,0,0,0,.28-1.1H84.44c-.46.95-1.35,1.57-3.2,1.95a2.79,2.79,0,0,0-.47-.75,3.86,3.86,0,0,0,2.63-1.2H81.47v-.38a9.33,9.33,0,0,1-1.27.56,2.83,2.83,0,0,0-.57-.71,7.52,7.52,0,0,0,2.2-1.07H79.9v-.79h2.78a3,3,0,0,0,.35-.53H81.11v-3h7.12v3H84.09a3.44,3.44,0,0,1-.3.53h5.6V319Zm-4.94-4.91H80v-.76h2.4v-.68h1v.68H84.5v.76H83.33v.44h-1Zm-.29,1.8h5.16v-.58H82.07Zm0,1.17h5.16v-.58H82.07Zm5,2.8a6.58,6.58,0,0,1-1-.86h-3a6.43,6.43,0,0,1-1,.86h1.67a4.82,4.82,0,0,0,.15-.68h.92a3.73,3.73,0,0,1-.14.68Zm-1.15-5.77H84.84v-.76h1.07v-.68h1v.68h2.46v.76H86.9v.44h-1Z" fill="#002a5e"/><path d="M94.25,321.3c0,.46-.08.75-.36.92a2.91,2.91,0,0,1-1.36.18,3.67,3.67,0,0,0-.26-.94h.91c.12,0,.17-.05.17-.19v-2.57l-1.09.67-.31-.7a12.24,12.24,0,0,1-.72,3.82,2.63,2.63,0,0,0-.82-.45,14,14,0,0,0,.7-5.21V313h3.14ZM92,316.83c0,.48,0,1,0,1.59l1.38-.57v-1.23l-.41.35a11.17,11.17,0,0,0-.94-1.11Zm0-2.92v1.51l.34-.24a10.7,10.7,0,0,1,1,1v-2.28Zm8,3.58a6.69,6.69,0,0,1-1.88,3.17,7,7,0,0,0,2.24.95,3.54,3.54,0,0,0-.65.86,6.79,6.79,0,0,1-2.38-1.17,8.8,8.8,0,0,1-2.46,1.15,3.43,3.43,0,0,0-.53-.86,7.66,7.66,0,0,0,2.24-.94A7.89,7.89,0,0,1,95,318.32l.35-.1h-.68v-.94h4.46l.17,0Zm-3.34-3.3A3,3,0,0,1,95,317.06a3.27,3.27,0,0,0-.64-.7,2.25,2.25,0,0,0,1.38-2.18V313h3.39v2.41c0,.3,0,.41.15.41h.52a1.66,1.66,0,0,0,.49-.07l.07.81a1.79,1.79,0,0,1-.54.06h-.62c-.83,0-1-.34-1-1.22v-1.48H96.64Zm-.66,4a5.59,5.59,0,0,0,1.34,1.83,5.44,5.44,0,0,0,1.37-1.83Z" fill="#002a5e"/><path d="M104.29,318.42c-.13-.28-.36-.77-.61-1.2v5.26h-.87v-5a11.85,11.85,0,0,1-1.2,2.92,5.25,5.25,0,0,0-.47-1,11.49,11.49,0,0,0,1.53-3.77h-1.26v-.93h1.4v-2h.87v2h1.09v.93h-1.09v.51c.25.33,1,1.38,1.16,1.64Zm4.19,3H111v.74h-4.81v.37h-.9v-3.24c-.18.18-.36.38-.54.54a4.58,4.58,0,0,0-.51-.82,5.88,5.88,0,0,0,1.62-2.05H105v-2.1h2.55v2.1h-1.22l.41.14c-.11.22-.23.46-.36.67h1.18a4,4,0,0,0-.18-.52l.86-.23c.09.23.2.5.28.75h2.27v.66h-2.33V319h1.9v.66h-1.9v.55h1.9v.68h-1.9Zm-2-7.23h-1.79v-.75h1.79v-.8h.88v2h-.88Zm-.67,2.13h1v-.82h-1Zm1.83,2.66v-.55h-1.4V319Zm0,.66h-1.4v.55h1.4Zm-1.4,1.78h1.4v-.55h-1.4Zm4.43-4.46h-2.58v-2.1h2.58Zm.45-3.52v.75h-1.92v.46h-.88v-2h.88v.8Zm-1.23,2.06h-1v.82h1Z" fill="#002a5e"/><path d="M113.69,319.17c0,.14,0,.28-.07.42h4v2.81h-.88V322h-2.32v.39h-.85v-2.7a7.18,7.18,0,0,1-.81,2.36,3.9,3.9,0,0,0-.87-.42,8.5,8.5,0,0,0,.94-4.37v-1.36h4.53v3.24Zm2.25-6.17-.19.28a24.91,24.91,0,0,1,2.27,1.45l-.51.84c-.52-.42-1.49-1.06-2.32-1.58a9.2,9.2,0,0,1-.9.86h2.06v.62h-2.23V315a10.62,10.62,0,0,1-1.65,1.08,5.14,5.14,0,0,0-.53-.93,7.35,7.35,0,0,0,3.08-2.5Zm.55,5.45v-.6h-2.7c0,.19,0,.4,0,.6Zm-2.69-1.8v.57h2.69v-.57Zm.65,3.65v1h2.32v-1Zm4.94-.62h-.94v-5.92h.94Zm2-7v8.58c0,.58-.13.87-.47,1a4.47,4.47,0,0,1-1.77.2,4,4,0,0,0-.32-1c.61,0,1.17,0,1.35,0s.24,0,.24-.24v-8.57Z" fill="#002a5e"/><path d="M126.23,318.18c-.35.11-.7.22-1,.3v2.82c0,.52-.11.78-.42.92a3.62,3.62,0,0,1-1.52.18,3.81,3.81,0,0,0-.3-.9H124c.15,0,.21-.06.21-.22v-2.53l-1.24.35-.27-1,1.51-.38v-2.13h-1.37v-.92h1.37v-2.1h1v2.1h1.25v.92h-1.25v1.88l.92-.25Zm5.7-.66a6.7,6.7,0,0,1-2,3.08,8.27,8.27,0,0,0,2.68,1,4.27,4.27,0,0,0-.64.93,8.54,8.54,0,0,1-2.89-1.26,10.33,10.33,0,0,1-3,1.26,2.73,2.73,0,0,0-.49-.92,8.42,8.42,0,0,0,2.72-1,7.8,7.8,0,0,1-1.65-2.29l.28-.09h-.53v-.94h4.73l.17,0Zm-3.63-3.34a3,3,0,0,1-1.68,2.89,3.74,3.74,0,0,0-.65-.73,2.21,2.21,0,0,0,1.4-2.19V313h3.54v2.41c0,.3,0,.42.2.42h.71a2.1,2.1,0,0,0,.56-.07c0,.26,0,.61.07.84a2.2,2.2,0,0,1-.62.06H131c-.88,0-1.06-.35-1.06-1.26v-1.48H128.3Zm-.69,4a5.8,5.8,0,0,0,1.51,1.81,5.69,5.69,0,0,0,1.48-1.81Z" fill="#002a5e"/><path d="M100,262.55v2.62a19.85,19.85,0,0,1,0,39.48v2.61a22.46,22.46,0,0,0,0-44.71ZM75.43,284.91a22.48,22.48,0,0,0,20.33,22.35v-2.6a19.87,19.87,0,0,1,0-39.5v-2.61A22.49,22.49,0,0,0,75.43,284.91Z" fill="#002a5e" stroke="#002a5e" stroke-miterlimit="10" stroke-width="0.45"/><rect x="88.12" y="274.14" width="18.8" height="25.14" transform="translate(-46.48 20.3) rotate(-9.61)" fill="#f8a908" stroke="#002a5e" stroke-miterlimit="10" stroke-width="0.45"/><rect x="89.41" y="272.34" width="18.8" height="25.14" transform="translate(-46.16 20.49) rotate(-9.61)" fill="#f8a908" stroke="#002a5e" stroke-miterlimit="10" stroke-width="0.45"/><path d="M102.33,281.63l-1,.17a2.77,2.77,0,1,0-5.46.92l-1,.17a3.79,3.79,0,0,1,7.48-1.26Z" fill="#fff" stroke="#002a5e" stroke-miterlimit="10" stroke-width="0.45"/><rect x="94.83" y="281.98" width="8.84" height="8.31" transform="translate(-46.36 20.58) rotate(-9.61)" fill="#fff" stroke="#002a5e" stroke-miterlimit="10" stroke-width="0.45"/><circle cx="99.35" cy="286.39" r="0.83" fill="#002a5e"/><rect x="99.41" y="286.36" width="0.52" height="3.89" transform="translate(-46.72 20.68) rotate(-9.61)" fill="#002a5e"/><path d="M144.55,206.84H159.4a0,0,0,0,1,0,0v42.67a7.42,7.42,0,0,1-7.42,7.42h0a7.42,7.42,0,0,1-7.42-7.42V206.84A0,0,0,0,1,144.55,206.84Z" transform="translate(107.44 -41.76) rotate(24)" fill="#002a5e" stroke="#002a5e" stroke-miterlimit="10" stroke-width="0.45"/><path d="M159.4,161h19.29a0,0,0,0,1,0,0v55.44a9.65,9.65,0,0,1-9.65,9.65h0a9.65,9.65,0,0,1-9.65-9.65V161a0,0,0,0,1,0,0Z" transform="translate(244.77 439.12) rotate(-156)" fill="#fff" stroke="#002a5e" stroke-miterlimit="10" stroke-width="0.45"/><circle cx="175.91" cy="167.05" r="51.14" fill="#7d3787" stroke="#002a5e" stroke-miterlimit="10" stroke-width="0.45"/><circle cx="175.91" cy="167.05" r="33.61" fill="#fff" stroke="#002a5e" stroke-miterlimit="10" stroke-width="0.45"/><path d="M175.41,195.19A28.23,28.23,0,0,1,163,192.32" fill="#fff" stroke="#002a5e" stroke-miterlimit="10" stroke-width="0.45"/><path d="M200.52,153.5a28.43,28.43,0,0,1-20.42,41.31" fill="#fff" stroke="#002a5e" stroke-miterlimit="10" stroke-width="0.45"/><circle cx="111.83" cy="167.05" r="51.14" fill="#7d3787" stroke="#002a5e" stroke-miterlimit="10" stroke-width="0.45"/><polyline points="63.71 149.64 85.63 149.64 138.02 149.64 159.93 149.64" fill="none" stroke="#fff" stroke-miterlimit="10" stroke-width="0.45"/><polyline points="64.07 185.32 85.8 185.32 137.84 185.32 159.58 185.32" fill="none" stroke="#fff" stroke-miterlimit="10" stroke-width="0.45"/><polygon points="132.27 195.42 143.83 127.23 155.38 195.42 143.83 206.98 132.27 195.42" fill="#f8a908" stroke="#002a5e" stroke-miterlimit="10" stroke-width="0.45"/><ellipse cx="111.83" cy="167.05" rx="22.27" ry="51.14" fill="none" stroke="#fff" stroke-miterlimit="10" stroke-width="0.45"/><polygon points="148.81 133.5 138.84 133.5 137.48 120.36 150.17 120.36 148.81 133.5" fill="#f8a908" stroke="#002a5e" stroke-miterlimit="10" stroke-width="0.45"/><polyline points="133.71 109.6 144.17 120.36 134.38 131.12 122.43 120.36 132.82 109.6" fill="#fff" stroke="#002a5e" stroke-miterlimit="10" stroke-width="0.45"/><polyline points="153.95 109.6 143.49 120.36 153.28 131.12 165.22 120.36 154.83 109.6" fill="#fff" stroke="#002a5e" stroke-miterlimit="10" stroke-width="0.45"/><circle cx="144.17" cy="90.21" r="29.91" fill="#f8a908" stroke="#002a5e" stroke-miterlimit="10" stroke-width="0.45"/><path d="M8.06,271.54h3.81v.9H10.25a17.89,17.89,0,0,1-.62,2.37H11.7v4.73H9.6v.83H8.76v-3.64a7,7,0,0,1-.51.75,4.79,4.79,0,0,0-.4-1.13,9.71,9.71,0,0,0,1.46-3.91H8.06Zm2.78,4.16H9.6v3h1.24Zm7,.61H16.65v4.56H15.7v-4.56H14.17a6.88,6.88,0,0,1-1.5,4.61,5.63,5.63,0,0,0-.76-.58,6.08,6.08,0,0,0,1.32-4H12.12v-.94h1.12v-2.89h-.83v-.93H17.6v.93h-1v2.89h1.16Zm-2.11-.94v-2.89H14.18v2.89Z" fill="#002a5e"/><path d="M27.33,279.68c.28,0,.33-.2.38-1.56a2.76,2.76,0,0,0,.94.42c-.11,1.69-.37,2.12-1.21,2.12H26.31c-.94,0-1.22-.29-1.22-1.33v-1.8H23.44c-.22,1.27-1.1,2.6-4,3.39a5.42,5.42,0,0,0-.69-.86c2.46-.65,3.32-1.61,3.59-2.53H19.51v-.92h3v-1.25h1v1.25h2.63v2.72c0,.3.05.35.33.35ZM20.12,274h-1v-2h4.05c-.09-.28-.2-.59-.29-.85l1-.18a10,10,0,0,1,.4,1h4v1.94H27.21v-1.05H25.32v1.62c0,.27.05.38.31.38h1.48a5.82,5.82,0,0,0,.88-.07c0,.26.05.61.08.84a4.52,4.52,0,0,1-.91.06h-1.6c-1,0-1.23-.34-1.23-1.22v-1.61H23c-.21,1.58-.84,2.47-3.19,2.94a2.8,2.8,0,0,0-.54-.81c2.05-.35,2.52-1,2.68-2.13H20.12Z" fill="#002a5e"/><path d="M31.62,276.74v3.05c0,.48-.1.75-.38.9a3.2,3.2,0,0,1-1.39.19,3.51,3.51,0,0,0-.27-.92c.43,0,.83,0,1,0s.19,0,.19-.18V277l-1.15.37-.24-1c.39-.08.88-.22,1.39-.37v-2H29.51v-.92h1.21V271h.9v2.1h.92V274h-.92v1.77l.94-.29.14.9Zm2.11-.8a8.8,8.8,0,0,1-1.14,4.93,2.82,2.82,0,0,0-.73-.51,7.73,7.73,0,0,0,1-4.43v-3.08h2.38V271h1v.59h2.48v.72H36.2v.53h2.28l.14,0,.62.14a12.38,12.38,0,0,1-.52,1.59l-.76-.17a7,7,0,0,0,.25-.8H36v.51l1.6-.14.06.57-1.66.17v0c0,.25,0,.35.29.35h1.36a4.11,4.11,0,0,0,.82-.07c0,.23,0,.43.06.63a3.8,3.8,0,0,1-.82.05H36.16c-.73,0-.92-.26-.95-.78L34,275l-.08-.73,1.27-.12v-.58H33.73Zm5.5,1.48a9.47,9.47,0,0,1-1.15.56,3.31,3.31,0,0,0,1.39,2,2.79,2.79,0,0,0-.57.62,4.05,4.05,0,0,1-1.42-2.32l-.45.17a2.11,2.11,0,0,1-.21,2.15,1,1,0,0,1-.8.33h-.55a1.58,1.58,0,0,0-.22-.73,5.18,5.18,0,0,0,.63,0,.4.4,0,0,0,.38-.15,1.24,1.24,0,0,0,.18-.94,10.13,10.13,0,0,1-2.59,1.44,4.62,4.62,0,0,0-.38-.56,7.83,7.83,0,0,0,2.82-1.48,2.3,2.3,0,0,0-.15-.32A9.9,9.9,0,0,1,34,279.23a1.9,1.9,0,0,0-.35-.52,7.12,7.12,0,0,0,2.21-.94,3,3,0,0,0-.24-.26,8.27,8.27,0,0,1-1.49.57,3.47,3.47,0,0,0-.3-.52,8.32,8.32,0,0,0,2.15-.85H34V276H39.2v.67H36.93a6.53,6.53,0,0,1-.72.5,2.55,2.55,0,0,1,.58.7,20.2,20.2,0,0,0,1.87-1Z" fill="#002a5e"/><path d="M40.16,280.44a6.31,6.31,0,0,0,.69-2l.67.24a6.5,6.5,0,0,1-.65,2Zm5-2.34H40.39v-.79h1.92v-.69H40.58v-.79h1.73v-.6h-1.7v-3.87H45v3.87H43.2v.6H45v.79H43.2v.69h1.93Zm-3.75-3.57h1v-2.48h-1Zm.54-2.1a7.88,7.88,0,0,1,.34,1.56l-.48.15a7.72,7.72,0,0,0-.32-1.59Zm.54,6.22a9.43,9.43,0,0,1,.17,1.85l-.67.09a8.7,8.7,0,0,0-.13-1.87Zm1.07,0a8.34,8.34,0,0,1,.46,1.72l-.64.15a8.33,8.33,0,0,0-.43-1.76Zm.63-6.55H43.07v2.48h1.09Zm-1,2a12.62,12.62,0,0,0,.44-1.63l.55.2c-.2.53-.41,1.19-.59,1.59Zm1.47,4.44a6.8,6.8,0,0,1,.73,1.67l-.66.25a7.12,7.12,0,0,0-.7-1.7Zm3.3-4.27v1.85H49.7v4.76h-.94v-.42H46.37v.46h-.9v-4.8H47V271h1v2.27H50.1v.93Zm.84,2.75H46.37v2.53h2.39Z" fill="#002a5e"/><path d="M10.41,290.89a13.84,13.84,0,0,0-.76-1.42v4.84H8.74V289.7a11.43,11.43,0,0,1-1.18,2.8,5.46,5.46,0,0,0-.51-1.06,11.36,11.36,0,0,0,1.53-3.88H7.27v-.92H8.74v-2.2h.91v2.2h1.23v.92H9.65v.68c.3.37,1.12,1.51,1.3,1.78ZM13.34,293a8.46,8.46,0,0,1-2.41,1.36,8.93,8.93,0,0,0-.59-.72,6.94,6.94,0,0,0,2.18-1.21Zm3.73-4.37H10.64v-.78h6.43Zm-5-2.5H10.77v-.75h1.31v-.79H13v.79h1.67v-.79h.94v.79h1.3v.75h-1.3v1.35H12.08Zm-.91,6.25v-3.28h5.35v3.28Zm.87-1.95h1.31v-.63H12Zm0,1.24h1.31v-.61H12Zm.92-5.54v.69h1.67v-.69Zm2.66,3.67H14.26v.63h1.36Zm0,1.26H14.26v.61h1.36Zm-.56,1.39a14.69,14.69,0,0,1,2.11,1.26l-.82.65a13.58,13.58,0,0,0-1.92-1.28Z" fill="#002a5e"/><path d="M26.12,286.61a5.8,5.8,0,0,0,1.83,1.8,4.82,4.82,0,0,0-.65.77A6.74,6.74,0,0,1,26.09,288v.65H23.27v-.55a7,7,0,0,1-1.2,1,4.85,4.85,0,0,0-.43-.85h-.93v1.35h1v.87h-1v1.7l1.3-.35.13.86c-1.37.4-2.86.81-4,1.12l-.22-.93.47-.11v-3.59h.79v3.39l.64-.17v-4.14H18.39v-3.36h3.25v3.27a5.89,5.89,0,0,0,1.75-1.55H22.08v-.88H24a6.16,6.16,0,0,0,.47-1.15l.88.23a7.31,7.31,0,0,1-.36.92h2.77v.88Zm-5.33-.87H19.2v1.66h1.59Zm1.2,3.72h5.66v.82H24.09c-.09.32-.17.64-.27.94h3.3l0,.38c-.14,1.47-.28,2.14-.59,2.43a1.33,1.33,0,0,1-.95.31c-.35,0-1.06,0-1.77,0a1.75,1.75,0,0,0-.37-.86c.76.06,1.55.07,1.85.07a1,1,0,0,0,.5-.08c.16-.15.28-.56.37-1.41H22.62a17.48,17.48,0,0,0,.56-1.76H22Zm4-1.57a7,7,0,0,1-.8-1.28h-.69a7.45,7.45,0,0,1-.95,1.28Z" fill="#002a5e"/><path d="M29.19,292.45h1.74v-5.3H29.51v-.78a4.67,4.67,0,0,0,1.72-.6h.93v6.68h1.55v1H29.19Z" fill="#002a5e"/><path d="M35.33,292.45h1.73v-5.3H35.64v-.78a4.67,4.67,0,0,0,1.72-.6h.94v6.68h1.55v1H35.33Z" fill="#002a5e"/><path d="M50.4,284.92v9.43h-1v-.47h-7v.47h-1v-9.43Zm-1,8.05v-7.15h-7V293Zm-.79-4.59a8.29,8.29,0,0,1-1.15,2.55c.18.46.42.75.7.81.12,0,.22-.4.29-1.07a3.33,3.33,0,0,0,.63.47c-.15,1.23-.6,1.65-1.23,1.4a1.67,1.67,0,0,1-1-.89,6.6,6.6,0,0,1-1.27,1.08,5.32,5.32,0,0,0-.56-.62,5.27,5.27,0,0,0,.82-.58c-1,.17-2.14.38-3,.53l-.11-.75c.79-.11,2-.29,3.12-.48l0,.67a4.6,4.6,0,0,0,.64-.68,15.17,15.17,0,0,1-.53-3H42.87v-.74H46l-.06-1h.82c0,.34,0,.69.06,1h1.51a3.67,3.67,0,0,0-1.06-.74l.46-.47a5,5,0,0,1,1.1.71l-.47.5H49v.74H46.84a20,20,0,0,0,.31,2.11,7.16,7.16,0,0,0,.67-1.71Zm-3,0v2.07H43.21v-2.07Zm-.7.57h-1v.93h1Z" fill="#002a5e"/><path d="M31.15,219.86v2.61a19.85,19.85,0,0,1,0,39.48v2.62a22.46,22.46,0,0,0,0-44.71ZM6.57,242.21A22.49,22.49,0,0,0,26.9,264.57V262a19.86,19.86,0,0,1,0-39.5v-2.6A22.48,22.48,0,0,0,6.57,242.21Z" fill="#002a5e" stroke="#002a5e" stroke-miterlimit="10" stroke-width="0.45"/><polygon points="37.05 236.2 38.91 239.98 29.37 239.98 29.37 232.43 38.91 232.43 37.05 236.2" fill="#f8a908" stroke="#002a5e" stroke-miterlimit="10" stroke-width="0.45"/><rect x="27.53" y="232.04" width="1.83" height="14.65" rx="0.53" fill="#fff" stroke="#002a5e" stroke-miterlimit="10" stroke-width="0.45"/><path d="M36.07,251.48c0-3.06-3.38-5.55-7.55-5.55S21,248.42,21,251.48Z" fill="#f8a908" stroke="#002a5e" stroke-miterlimit="10" stroke-width="0.45"/><path d="M228.49,271.09h2.06c2.43,0,3.82,1.36,3.82,3.94s-1.39,4-3.76,4h-2.12Zm2,6.91c1.7,0,2.62-1,2.62-3s-.92-2.91-2.62-2.91h-.72V278Z" fill="#002a5e"/><path d="M237.48,271.09h1.44l2.62,7.93h-1.32l-.67-2.26H236.8l-.68,2.26h-1.27Zm-.39,4.69h2.16l-.31-1.06c-.27-.86-.5-1.74-.74-2.64h0c-.23.91-.48,1.78-.74,2.64Z" fill="#002a5e"/><path d="M242,275.08c0-2.58,1.59-4.13,3.69-4.13a3.16,3.16,0,0,1,2.36,1l-.67.79a2.17,2.17,0,0,0-1.64-.71c-1.48,0-2.46,1.14-2.46,3s.87,3,2.51,3a2,2,0,0,0,1.25-.39v-1.86h-1.57v-1h2.7v3.44a3.6,3.6,0,0,1-2.51.92C243.59,279.16,242,277.68,242,275.08Z" fill="#002a5e"/><path d="M251.67,278.3a7.25,7.25,0,0,1-1.75,1.57,7.41,7.41,0,0,0-.63-.62,5.86,5.86,0,0,0,1.56-1.44Zm2.78-.51h-5V277h.7V272.3h1.29c0-.19.08-.41.11-.64h-1.88v-.78h2c0-.31.06-.63.09-.88l1,.05-.14.83h1.71v.78h-1.86c0,.23-.08.45-.13.64h1.67V277h.54Zm-3.52-4.88v.64h2.12v-.64Zm2.12,1.19h-2.12v.62h2.12Zm-2.12,1.17v.58h2.12v-.58Zm0,1.71h2.12v-.57h-2.12Zm3.1,2.13a5.49,5.49,0,0,0,1.58-1.23l.83.52a7,7,0,0,1-2,1.47,6.14,6.14,0,0,0-.63-.6l-.25.21a8.69,8.69,0,0,0-1.18-1.16l.69-.48a7.54,7.54,0,0,1,1.2,1.09Zm2.08-6.87c.06-.28.11-.62.16-.91h-1.85v-.85h4.77v.85h-1.9c-.1.31-.18.64-.27.91h1.85v5.55h-4.15v-5.55ZM258,273h-2.38v.85H258Zm0,1.57h-2.38v.85H258Zm0,1.58h-2.38V277H258Zm-.25,1.79a12.74,12.74,0,0,1,1.66,1.36l-.79.55a11.83,11.83,0,0,0-1.61-1.43Z" fill="#002a5e"/><path d="M269.07,277.64a4.11,4.11,0,0,1-1.46,1.18,15.87,15.87,0,0,0,2.27.34,2.61,2.61,0,0,0-.45.7,15.19,15.19,0,0,1-2.9-.6,15.7,15.7,0,0,1-3.34.63,3,3,0,0,0-.38-.67,18.26,18.26,0,0,0,2.68-.36,7.06,7.06,0,0,1-1-.54,9.17,9.17,0,0,1-.91.38,4.49,4.49,0,0,0-.53-.54c.27-.1.55-.2.8-.32a3.65,3.65,0,0,1-.52-.52l.69-.26a4.29,4.29,0,0,0,.49.46,5.28,5.28,0,0,0,.78-.52h-1.15v-1.69a6.15,6.15,0,0,1-.58.57,5.23,5.23,0,0,0-.52-.46,6.72,6.72,0,0,1-.65.78v3.67h-.88v-2.81c-.28.23-.57.46-.85.65a5.72,5.72,0,0,0-.55-.65,7.27,7.27,0,0,0,2.29-2.26l.75.25a5.27,5.27,0,0,0,1.32-1.77H261v-1.81h2.39V271h-2.88v-.7h9.27v.7h-3v.43h2.54v1.81h-4.65l.7.19c-.05.1-.09.22-.15.32h4.38v.68h-4.8a2.37,2.37,0,0,1-.22.33h4.47V277h-2.7c-.11.13-.24.25-.36.37h2.39l.18,0Zm-6-4a8,8,0,0,1-2.27,2.06,5.86,5.86,0,0,0-.59-.63,6.33,6.33,0,0,0,2-1.71Zm-1.16-1h1.48v-.56h-1.48Zm2.37-1.18h1.59V271h-1.59Zm1.59,1.18v-.56h-1.59v.56Zm-.86,3h3.19v-.38H265Zm0,.83h3.19v-.37H265Zm.23,1.46a8.55,8.55,0,0,0,1.36.58,5.42,5.42,0,0,0,1.13-.58Zm1.56-5.87v.56h1.59v-.56Z" fill="#002a5e"/><path d="M276.91,275.3a10.45,10.45,0,0,0,4,3.17,5.94,5.94,0,0,0-.73.86,11.43,11.43,0,0,1-3.76-3.22v3.75h-1.05v-3.71a11.58,11.58,0,0,1-3.75,3.17,7.16,7.16,0,0,0-.73-.85,10.33,10.33,0,0,0,3.95-3.17h-3.64v-1h4.17v-1.63H272v-1h3.39V270h1.05v1.69h3.48v1h-3.48v1.63h4.23v1Z" fill="#002a5e"/><path d="M290.65,276.18a20.46,20.46,0,0,0-1.55-1.4,5.13,5.13,0,0,1-.84,1.11,4.75,4.75,0,0,0-.8-.5,9.56,9.56,0,0,0,4.17,3.14,3.82,3.82,0,0,0-.75.9,10.24,10.24,0,0,1-3.75-3v3.42h-1.05v-3.39a10.73,10.73,0,0,1-3.71,2.95,4.45,4.45,0,0,0-.71-.85,10,10,0,0,0,4.42-3.62v-2.56h-4v-1h4V270h1.05v1.42h4.14v1h-4.14v2.5l.3.46a5,5,0,0,0,1.48-2.78l1,.17a7.76,7.76,0,0,1-.38,1.21,21.16,21.16,0,0,1,1.86,1.54Zm-5.81-3.43a9.17,9.17,0,0,1-.4,1.22,12.53,12.53,0,0,1,1.14,1.06l-.67.71a9.16,9.16,0,0,0-.89-.91,5.52,5.52,0,0,1-1.3,1.59,5.46,5.46,0,0,0-.77-.66,5.45,5.45,0,0,0,1.92-3.19Z" fill="#002a5e"/><path d="M233.44,289.91a8.86,8.86,0,0,0,4.4,2.16,5,5,0,0,0-.63.88,9.3,9.3,0,0,1-3.77-2v2.34h-1.06v-2.37a9.41,9.41,0,0,1-3.81,2.06,4.19,4.19,0,0,0-.63-.84,8.39,8.39,0,0,0,4.44-2.37v-.85H230v2h-1.06v-2.83h3.45v-.7h-4.17v-.87h4.17v-.64h.87a7,7,0,0,0-.67-.51,4.53,4.53,0,0,0,1.33-2l.92.23c-.07.19-.15.38-.23.57h3.09V285h-2.11a7.35,7.35,0,0,1,.94.82l-.68.6a8,8,0,0,0-1.1-1.05l.47-.37h-1.05a6,6,0,0,1-.76.93h0v.64h4v.87h-4v.7h3.41V290c0,.45-.1.66-.41.79a4.33,4.33,0,0,1-1.37.13,4.31,4.31,0,0,0-.35-.79c.4,0,.83,0,.94,0s.17,0,.17-.14v-1h-2.39Zm-3.72-5a7.57,7.57,0,0,1-1.1,1.38,6.06,6.06,0,0,0-.68-.65,6.23,6.23,0,0,0,1.57-2.32l.9.26c-.08.18-.15.36-.25.54h2.57V285h-1.81a6.94,6.94,0,0,1,.86.85l-.64.57a10.13,10.13,0,0,0-1-1.09l.39-.33Z" fill="#002a5e"/><path d="M248.1,284.83a8,8,0,0,1-1.76,2.74,7.72,7.72,0,0,0,2.45,1.38,3.62,3.62,0,0,0-.65.84l-.23-.1v3.58h-1v-.33h-2.64v.34h-.95v-3.56l-.39.18a3.86,3.86,0,0,0-.32-.46v1.71H239.8v.93h-.75v-8h3.6v2.18a7.45,7.45,0,0,0,2-2.83l.93.27c-.12.29-.26.58-.41.86h2.09l.17-.05Zm-8.3.12v2.12h.7V285Zm0,5.34h.7v-2.38h-.7Zm2.07-5.34h-.72v2.12h.72Zm0,5.34v-2.38h-.72v2.38Zm.78-1.28a9,9,0,0,0,2.37-1.45,9.4,9.4,0,0,1-1-1.31,8.1,8.1,0,0,1-.92.93,5,5,0,0,0-.46-.45Zm4.67.39a9,9,0,0,1-1.64-1.18A11.39,11.39,0,0,1,244,289.4Zm-.37,2.65v-1.77h-2.64v1.77Zm-2.26-6.66-.1.14a7.37,7.37,0,0,0,1.08,1.41,6.94,6.94,0,0,0,1.12-1.55Z" fill="#002a5e"/><path d="M254.65,292.56a4.67,4.67,0,0,0,1.3-1.17l.83.47a7.62,7.62,0,0,1-1.77,1.49,3.85,3.85,0,0,0-.65-.62l.12-.06h-2.64v.54h-.75v-3l-.26.32a1.58,1.58,0,0,0-.17-.26,12.26,12.26,0,0,1-.58,2.94,3.07,3.07,0,0,0-.76-.41,15.61,15.61,0,0,0,.61-5.14v-3.43h0a21.86,21.86,0,0,0,3.76-.63l.73.67a19.76,19.76,0,0,1-3.66.62v.44h3.69v2.32h-3.69c0,.52,0,1.13,0,1.76a6.4,6.4,0,0,0,.79-1.74l.71.18c-.07.25-.17.5-.26.74h.79a7.17,7.17,0,0,0-.3-.69l.67-.18a4.57,4.57,0,0,1,.41.87h1v.65h-1.12v.5h1v.59h-1v.49h1v.6h-1V292h1.19Zm-3.88-6.42v.78h2.8v-.78Zm2,3.15h-.93v.5h.93Zm0,1.09h-.93v.49h.93Zm-.93,1.6h.93v-.51h-.93Zm4.48-6.35c0-.26.09-.58.12-.85h-1.67v-.85h4.39v.85h-1.72c-.08.29-.15.59-.23.85h1.63v5.53H255v-5.53Zm1.66.78h-2.11v.83H258Zm0,1.56h-2.11v.85H258Zm0,1.57h-2.11v.85H258Zm0,1.86a10,10,0,0,1,1.34,1.34l-.75.52a9.78,9.78,0,0,0-1.31-1.41Z" fill="#002a5e"/><path d="M261.7,287.73v5.59h-1v-9.44h4v3.85Zm0-3.05v.75h2v-.75Zm2,2.27v-.81h-2V287Zm.24,4.87v.62h-.92v-3.85h4.05v3.23Zm0-2.39V291h2.2v-1.56Zm5.61,2.62c0,.61-.14.92-.53,1.09a6.23,6.23,0,0,1-2,.17,3.5,3.5,0,0,0-.34-1c.67,0,1.37,0,1.59,0s.26-.07.26-.26v-4.31h-3v-3.86h4.06Zm-3.1-7.38v.76h2.08v-.76Zm2.08,2.29v-.82h-2.08V287Z" fill="#002a5e"/><path d="M280.27,283.88v9.41h-.95v-.5h-6.91v.55h-.91v-9.46Zm-.95,8.12v-7.35h-6.91V292Zm-.3-1.65h-1.47v.86c0,.35-.08.47-.34.54a4.71,4.71,0,0,1-1.29.09,1.92,1.92,0,0,0-.22-.54h.86c.12,0,.15,0,.15-.14v-.82h-4v-.59h4v-.35h.84v.35H279Zm-1.2-1.94a6.41,6.41,0,0,1,1,.95l-.52.4c-.11-.13-.26-.29-.42-.45-1.83.06-3.67.11-5,.13l-.05-.57,2.54,0v-.44h-2.2v-2.17h2.2v-.38h-2.56v-.59h2.56v-.44h.83v.44h2.61v.59h-2.61v.38h2.29v2.17Zm-3.19,3.26a5.31,5.31,0,0,0-.84-1l.62-.32a4.84,4.84,0,0,1,.89.95ZM274,287.1h1.42v-.4H274Zm1.42.85v-.41H274V288Zm.83-1.25v.4h1.49v-.4Zm1.49,1.25v-.41h-1.49V288Zm-.36.88-.19-.16.39-.26h-1.33v.44Z" fill="#002a5e"/><path d="M285.31,284.26c-.3.89-.67,2-1,2.85a3.3,3.3,0,0,1,.88,2.23,1.52,1.52,0,0,1-.44,1.3,1.59,1.59,0,0,1-.58.2,5.43,5.43,0,0,1-.71,0,2.11,2.11,0,0,0-.22-.86,3.46,3.46,0,0,0,.55,0,.53.53,0,0,0,.32-.1c.15-.1.2-.35.2-.67a3,3,0,0,0-.88-2c.28-.74.56-1.68.75-2.4H283v8.52h-.88v-9.43h2.38l.14,0Zm6,2.91a16.07,16.07,0,0,1-1.36.91,8.35,8.35,0,0,0,1.76,3.1,3.69,3.69,0,0,0-.65.66,10.32,10.32,0,0,1-1.81-3.35l-.13.07c.54,1.74.31,3.58-.32,4.15a1.34,1.34,0,0,1-1.14.48c-.2,0-.56,0-.85,0a2.35,2.35,0,0,0-.25-.89c.36,0,.7,0,.93,0a.65.65,0,0,0,.6-.26,2.81,2.81,0,0,0,.39-1.84,12.46,12.46,0,0,1-2.91,1.72,2.75,2.75,0,0,0-.59-.73,8.55,8.55,0,0,0,3.38-2,5.68,5.68,0,0,0-.18-.71A15.47,15.47,0,0,1,286,290a3.76,3.76,0,0,0-.54-.72,9.4,9.4,0,0,0,2.49-1.43,4.12,4.12,0,0,0-.46-.74,10.67,10.67,0,0,1-1.88,1.15,4.29,4.29,0,0,0-.59-.73,7.94,7.94,0,0,0,2.42-1.43h-2.17v-.87h1.92A6.74,6.74,0,0,0,286,284l.74-.47a6.12,6.12,0,0,1,1.29,1.32l-.54.36h1.09a9.24,9.24,0,0,0,1.08-1.73l1,.29a12.92,12.92,0,0,1-1,1.44h1.84v.86h-2.92a4.43,4.43,0,0,1-.48.49,5.07,5.07,0,0,1,.8,1.28,14,14,0,0,0,1.83-1.33Z" fill="#002a5e"/><path d="M236.26,242.21a22.5,22.5,0,0,0,20.33,22.36V262a19.85,19.85,0,0,1,0-39.48v-2.61A22.49,22.49,0,0,0,236.26,242.21Zm24.59-22.35v2.6a19.87,19.87,0,0,1,0,39.5v2.61a22.46,22.46,0,0,0,0-44.71Z" fill="#002a5e" stroke="#002a5e" stroke-miterlimit="10" stroke-width="0.45"/><path d="M250.18,243.75l-1.31-.46,2.17-4.62s-1.57-3.24,2.12-6.31,8.25-2.81,10.37-1.56,4.61,3.37,4.29,7.09-2.66,6.7-2.72,8.22a33.67,33.67,0,0,0,.6,4.94H255.11l-.43-2.28-2.38.29a1.33,1.33,0,0,1-1.49-1.14Z" fill="#f8a908" stroke="#002a5e" stroke-miterlimit="10" stroke-width="0.45"/><path d="M259.15,241.37h.91a.75.75,0,0,1,.75.75v1.29a1.2,1.2,0,0,1-1.2,1.2h0a1.2,1.2,0,0,1-1.2-1.2v-1.29a.75.75,0,0,1,.75-.75Z" fill="#fff" stroke="#002a5e" stroke-miterlimit="10" stroke-width="0.45"/><path d="M263,237.54a3.42,3.42,0,1,0-5.67,2.56,2.48,2.48,0,0,1,.82,1.86v.32H261V242a2.46,2.46,0,0,1,.82-1.86A3.41,3.41,0,0,0,263,237.54Z" fill="#fff" stroke="#002a5e" stroke-linecap="round" stroke-linejoin="round" stroke-width="0.45"/><path d="M258.7,235.29a2.5,2.5,0,0,1,1-.22,2.43,2.43,0,0,1,2.07,3.72" fill="#fff" stroke="#002a5e" stroke-linecap="round" stroke-linejoin="round" stroke-width="0.45"/><rect x="28.2" y="88.91" width="75.57" height="38.71" rx="19.36" fill="#002a5e" stroke="#002a5e" stroke-miterlimit="10" stroke-width="0.45"/><path d="M48.72,105.13h4.07V106H43.71v-.91h3.95v-1.58H44.77v-.87h2.89v-1.46H45.25v-.88a11.38,11.38,0,0,1-1.4.87,3.47,3.47,0,0,0-.62-.82A13.14,13.14,0,0,0,47,97.68H45.32v-.94h3.43a10.37,10.37,0,0,0,4.5,3.52,4.43,4.43,0,0,0-.68.9,10.17,10.17,0,0,1-1.39-.78v.84H48.72v1.46h2.92v.87H48.72Zm-3.45-4.8h5.85a13.28,13.28,0,0,1-2.91-2.65A15.39,15.39,0,0,1,45.27,100.33Z" fill="#fff"/><path d="M64.6,100.14a27.44,27.44,0,0,1-1.82,2.22,6,6,0,0,0,2.1,2.41,2,2,0,0,0-.61.77,6.88,6.88,0,0,1-2.28-2.8v2.4c0,.54-.13.82-.46,1a4,4,0,0,1-1.66.2,4.78,4.78,0,0,0-.35-.95c.58,0,1.1,0,1.26,0s.24-.07.24-.24V103c-.83.83-1.68,1.63-2.39,2.28l-.61-.87.15-.12-3.18,1-.21-1c.37-.09.85-.24,1.35-.39v-2.79H55v-.93h1.15V98H54.91v-.92h3.32V98H57.06v2.14h1v.93h-1v2.52l1.22-.38.13.8c.71-.58,1.69-1.4,2.61-2.19v-2.7H58.47v-.93H61V96.45h1v1.78h2.72v.93H62v.44a11.1,11.1,0,0,0,.45,1.92,15.38,15.38,0,0,0,1.29-1.83Zm-5.24-.39a8.12,8.12,0,0,1,1.12,1.92l-.83.39a8,8,0,0,0-1.06-2Zm4.3-1.53a7.06,7.06,0,0,0-1.24-1.17l.56-.51a7.3,7.3,0,0,1,1.29,1.09Z" fill="#fff"/><path d="M76.29,105.19V106H68.4v-.81h3.38v-.89H69.39v-.78h2.39v-.79h-2a6,6,0,0,1-1.07,1.37,4.83,4.83,0,0,0-.48-.88,5.76,5.76,0,0,1-1.12,3.2,3.74,3.74,0,0,0-.76-.63,5.56,5.56,0,0,0,1-3.57v-2.09h1.38a4.38,4.38,0,0,0-.44-.43c.82-.14,1.75-.35,2.63-.56-.77-.22-1.54-.41-2.25-.56l.54-.42H67.37v-.78H71.2a4.62,4.62,0,0,0-.5-.7l.7-.34a6.14,6.14,0,0,1,.76,1H75.8v.78H74.2l.47.3a16,16,0,0,1-1.51.64c.72.2,1.38.42,1.91.6l-.49.43h1.56V101H68.25v1.28c0,.31,0,.64,0,1a5.65,5.65,0,0,0,1.36-2.13l.87.24c-.08.21-.17.4-.26.61h1.6v-.8h1v.8h2.79v.79H72.77v.79h2.51v.78H72.77v.89Zm-2.19-5.06c-.57-.21-1.3-.43-2.07-.67-.88.27-1.79.49-2.63.67Zm-4.47-2c.78.18,1.63.4,2.45.62a10,10,0,0,0,1.66-.62Z" fill="#fff"/><path d="M82,104.62A9.29,9.29,0,0,1,78.81,106a4.56,4.56,0,0,0-.6-.73,8.94,8.94,0,0,0,3.07-1ZM87.64,103v.84H83.4v2.49h-1v-2.49H78.25V103h4.17v-.65H79.25v-.75h3.17v-.64h-3.7v-.79h2.17a5.5,5.5,0,0,0-.48-.93l.63-.15H78.29v-.79H79.9a8.7,8.7,0,0,0-.79-1.45l.87-.3a7,7,0,0,1,.86,1.53l-.57.22h1.21V96.43h.93v1.85h1.07V96.43h.94v1.85H85.6l-.42-.14a9.24,9.24,0,0,0,.75-1.59l1,.26a16.72,16.72,0,0,1-.89,1.47h1.54v.79H84.79l.84.22c-.24.32-.48.61-.7.86h2.28v.79H83.4v.64h3.31v.75H83.4V103Zm-6.25-3.91a4.49,4.49,0,0,1,.51,1l-.49.13h2.94L84,100a7.61,7.61,0,0,0,.6-1Zm3.25,5.14c1,.34,2.26.86,3,1.2L87,106c-.66-.33-2-.9-3-1.28Z" fill="#fff"/><path d="M43.4,110.44h3.81v.9H45.6a17.51,17.51,0,0,1-.63,2.37h2.08v4.73H44.94v.83H44.1v-3.63a6.83,6.83,0,0,1-.5.74,5.28,5.28,0,0,0-.4-1.13,9.71,9.71,0,0,0,1.45-3.91H43.4Zm2.79,4.16H44.94v3h1.25Zm7,.62H52v4.55H51v-4.55H49.51a6.81,6.81,0,0,1-1.49,4.6,5.17,5.17,0,0,0-.77-.58,6.06,6.06,0,0,0,1.33-4H47.47v-1h1.12v-2.88h-.83v-.94h5.18v.94H52v2.88h1.16Zm-2.12-1v-2.88H49.52v2.88Z" fill="#fff"/><path d="M63.48,118.58c.28,0,.33-.2.38-1.56a2.58,2.58,0,0,0,.94.42c-.1,1.69-.37,2.12-1.21,2.12H62.46c-.94,0-1.22-.29-1.22-1.33v-1.8H59.59c-.22,1.27-1.1,2.61-4,3.39a5.5,5.5,0,0,0-.7-.86c2.46-.65,3.32-1.61,3.59-2.53H55.66v-.92h3v-1.25h1v1.25h2.63v2.72c0,.3.05.35.33.35Zm-7.21-5.64h-1v-2h4c-.09-.28-.2-.59-.29-.85l1-.18a10,10,0,0,1,.4,1h4v1.94H63.36v-1H61.47v1.61c0,.27.05.38.31.38h1.49a4.72,4.72,0,0,0,.87-.07c0,.26,0,.61.08.84a3.8,3.8,0,0,1-.91.07H61.72c-1,0-1.24-.35-1.24-1.23v-1.6H59.1c-.21,1.57-.84,2.46-3.19,2.93a2.62,2.62,0,0,0-.54-.8c2.05-.36,2.52-1,2.68-2.13H56.27Z" fill="#fff"/><path d="M76.21,117.43H73.73v1.33c0,.47-.1.73-.49.87a6.11,6.11,0,0,1-1.76.13,3.06,3.06,0,0,0-.31-.86c.59,0,1.2,0,1.36,0s.22-.06.22-.19v-1.29H69.18a8.19,8.19,0,0,1,1.46,1.18l-.73.64a9.24,9.24,0,0,0-1.69-1.4l.48-.42H66.52v-.8h6.23v-.55L67,116.2l0-.76,3.9,0v-.5h-3.2v-3h3.2v-.51h-4v-.77h4v-.76h1v.76h4v.77h-4v.51h3.32v3h-1a8.27,8.27,0,0,1,1.66,1l-.59.53a4.83,4.83,0,0,0-.56-.4l-.93,0v.58h2.48Zm-7.61-4.31h2.25v-.54H68.6Zm2.25,1.17v-.56H68.6v.56Zm1-1.71v.54h2.34v-.54Zm2.34,1.15H71.83v.56h2.34Zm-2.34,1.69,1.74,0c-.22-.11-.45-.2-.66-.28l.25-.2H71.83Z" fill="#fff"/><path d="M86.76,114.38c-.46.37-1,.75-1.52,1.12a4.94,4.94,0,0,0,2.69,3,3.45,3.45,0,0,0-.65.81A5.68,5.68,0,0,1,84.46,116l-.43.26a3.19,3.19,0,0,1-.5,3.07,1.45,1.45,0,0,1-1.16.43,7,7,0,0,1-.89,0,2.44,2.44,0,0,0-.27-.93c.37,0,.72,0,1,0a.76.76,0,0,0,.64-.23,2,2,0,0,0,.38-1.53,15.81,15.81,0,0,1-4.48,2.19,3.43,3.43,0,0,0-.52-.82,12.69,12.69,0,0,0,4.83-2.3,5.63,5.63,0,0,0-.23-.6,18,18,0,0,1-3.93,1.82,5.21,5.21,0,0,0-.5-.79,13.26,13.26,0,0,0,4-1.69,4.71,4.71,0,0,0-.42-.51,14.82,14.82,0,0,1-3,1.2,5.2,5.2,0,0,0-.53-.79,11.88,11.88,0,0,0,3.65-1.38H79.87v-.86H86v.86H83.41a6.42,6.42,0,0,1-.7.53,4.46,4.46,0,0,1,1,1.5,17.77,17.77,0,0,0,2.19-1.72Zm-7.35-1.28h-1v-2.29h3.94a5.68,5.68,0,0,0-.33-.7l1-.3a6.73,6.73,0,0,1,.51,1h3.88v2.29h-1v-1.39h-7Z" fill="#fff"/><rect x="185.92" y="88.91" width="75.57" height="38.71" rx="19.36" fill="#002a5e" stroke="#002a5e" stroke-miterlimit="10" stroke-width="0.45"/><path d="M203.26,104.74a7.25,7.25,0,0,1-1.75,1.57,6.31,6.31,0,0,0-.64-.62,5.56,5.56,0,0,0,1.56-1.44Zm2.78-.51h-5v-.81h.7V98.74H203c0-.19.08-.41.11-.63h-1.88v-.79h2c0-.31.06-.62.08-.88l1,0-.14.83h1.71v.79H204c0,.22-.08.44-.13.63h1.67v4.68H206Zm-3.52-4.88V100h2.12v-.64Zm2.12,1.19h-2.12v.62h2.12Zm-2.12,1.17v.58h2.12v-.58Zm0,1.71h2.12v-.57h-2.12Zm3.1,2.13a5.63,5.63,0,0,0,1.58-1.23l.83.52a7.09,7.09,0,0,1-2,1.47,6.14,6.14,0,0,0-.63-.6l-.26.22a7.14,7.14,0,0,0-1.17-1.16l.69-.49a7.49,7.49,0,0,1,1.19,1.09Zm2.07-6.86c.07-.29.12-.63.17-.92H206v-.85h4.78v.85h-1.9c-.1.31-.19.64-.27.92h1.85v5.54h-4.15V98.69Zm1.86.76h-2.37v.85h2.37Zm0,1.57h-2.37v.85h2.37Zm0,1.58h-2.37v.85h2.37Zm-.24,1.79a12.74,12.74,0,0,1,1.65,1.36l-.78.55a14.07,14.07,0,0,0-1.61-1.43Z" fill="#fff"/><path d="M221.47,104.08a4.15,4.15,0,0,1-1.47,1.18,16.23,16.23,0,0,0,2.28.34,2.82,2.82,0,0,0-.46.7,14.22,14.22,0,0,1-2.89-.6,15.67,15.67,0,0,1-3.35.64,2.49,2.49,0,0,0-.37-.68,17.16,17.16,0,0,0,2.68-.36,7.54,7.54,0,0,1-1-.53c-.29.13-.61.26-.92.37a4.4,4.4,0,0,0-.52-.54,7.68,7.68,0,0,0,.79-.32,4.91,4.91,0,0,1-.51-.51l.68-.26a4.32,4.32,0,0,0,.5.45,4.14,4.14,0,0,0,.77-.52h-1.15v-1.69a4.43,4.43,0,0,1-.58.57,6.53,6.53,0,0,0-.51-.46,9.37,9.37,0,0,1-.65.79v3.66h-.88v-2.8c-.28.22-.57.45-.85.64a4.87,4.87,0,0,0-.55-.64,7.41,7.41,0,0,0,2.29-2.27l.74.25a5.43,5.43,0,0,0,1.33-1.77h-3.51V97.91h2.39v-.43h-2.89v-.7h9.28v.7h-3v.43h2.54v1.81h-4.65l.7.19a3.31,3.31,0,0,0-.15.33H222v.67h-4.8a2.44,2.44,0,0,1-.23.33h4.48v2.2h-2.7a4.31,4.31,0,0,1-.37.37h2.4l.17,0Zm-6-4a7.84,7.84,0,0,1-2.27,2.06,7,7,0,0,0-.59-.63,6.2,6.2,0,0,0,2-1.7Zm-1.16-1h1.49v-.56h-1.49Zm2.38-1.19h1.58v-.43h-1.58Zm1.58,1.19v-.56h-1.58v.56Zm-.86,3h3.2v-.38h-3.2Zm0,.84h3.2v-.38h-3.2Zm.24,1.45A8,8,0,0,0,219,105a4.78,4.78,0,0,0,1.13-.58Zm1.56-5.86v.56h1.59v-.56Z" fill="#fff"/><path d="M230.11,101.74a10.57,10.57,0,0,0,4,3.18,5,5,0,0,0-.73.86,11.69,11.69,0,0,1-3.76-3.23v3.75h-1.05v-3.71a11.68,11.68,0,0,1-3.74,3.18,7.43,7.43,0,0,0-.73-.85,10.42,10.42,0,0,0,3.94-3.18h-3.63v-1h4.16V99.12h-3.39v-1h3.39V96.44h1.05v1.69h3.48v1h-3.48v1.63h4.23v1Z" fill="#fff"/><path d="M244.66,102.63a16.92,16.92,0,0,0-1.55-1.4,5.06,5.06,0,0,1-.84,1.1,5.12,5.12,0,0,0-.81-.5,9.57,9.57,0,0,0,4.18,3.14,3.82,3.82,0,0,0-.75.9,10.24,10.24,0,0,1-3.75-3v3.42h-1v-3.39a10.73,10.73,0,0,1-3.71,3,5.72,5.72,0,0,0-.71-.85,10,10,0,0,0,4.42-3.62V98.83h-4v-1h4V96.44h1v1.42h4.14v1h-4.14v2.5l.3.47A5,5,0,0,0,242.92,99l1,.17a7.76,7.76,0,0,1-.38,1.21,21.1,21.1,0,0,1,1.86,1.55Zm-5.81-3.44a9.17,9.17,0,0,1-.4,1.22,14,14,0,0,1,1.14,1.06l-.67.71a10.39,10.39,0,0,0-.89-.91,5.52,5.52,0,0,1-1.3,1.59,4.82,4.82,0,0,0-.77-.65,5.47,5.47,0,0,0,1.92-3.2Z" fill="#fff"/><path d="M206.24,119a4.82,4.82,0,0,0,1.3-1.17l.83.47a7.38,7.38,0,0,1-1.77,1.49,4.25,4.25,0,0,0-.65-.61l.12-.07h-2.64v.54h-.75v-3l-.26.32a1.23,1.23,0,0,0-.17-.25,12.27,12.27,0,0,1-.58,2.93,3.07,3.07,0,0,0-.76-.41,15.58,15.58,0,0,0,.61-5.14v-3.43h0a21.64,21.64,0,0,0,3.75-.62l.74.66a20.76,20.76,0,0,1-3.66.63v.43h3.69v2.32h-3.69c0,.52,0,1.13,0,1.77a6.47,6.47,0,0,0,.79-1.75l.71.19c-.07.24-.17.49-.26.73h.79c-.09-.23-.2-.48-.3-.69l.66-.17a3.8,3.8,0,0,1,.42.86h1v.65h-1.12v.5h1v.59h-1v.49h1v.61h-1v.5h1.19Zm-3.88-6.42v.79h2.8v-.79Zm2,3.15h-.93v.5h.93Zm0,1.09h-.93v.49h.93Zm-.93,1.6h.93v-.5h-.93Zm4.48-6.34c0-.27.09-.59.12-.85h-1.67v-.85h4.39v.85H209c-.08.29-.15.58-.23.85h1.63v5.53h-3.8v-5.53Zm1.66.77h-2.11v.83h2.11Zm0,1.56h-2.11v.85h2.11Zm0,1.57h-2.11v.85h2.11Zm0,1.86a9.44,9.44,0,0,1,1.34,1.35l-.75.51a9.85,9.85,0,0,0-1.32-1.41Z" fill="#fff"/><path d="M214.1,114.17v5.6h-1v-9.45h4v3.85Zm0-3v.75h2v-.75Zm2,2.27v-.81h-2v.81Zm.25,4.87v.63h-.93V115h4.06v3.23Zm0-2.39v1.56h2.19v-1.56Zm5.6,2.63c0,.6-.14.91-.52,1.08a5.92,5.92,0,0,1-2,.18,3.8,3.8,0,0,0-.35-1c.68,0,1.38,0,1.59,0s.26-.08.26-.27v-4.31h-3v-3.86H222Zm-3.09-7.39v.76H221v-.76ZM221,113.4v-.82h-2.07v.82Z" fill="#fff"/><path d="M233.48,110.32v9.41h-1v-.5h-6.91v.55h-.91v-9.46Zm-1,8.12V111.1h-6.91v7.34Zm-.3-1.65h-1.46v.86c0,.35-.09.47-.35.55a5.24,5.24,0,0,1-1.29.08,2.24,2.24,0,0,0-.21-.54c.36,0,.75,0,.86,0s.15-.05.15-.14v-.83h-4v-.58h4v-.36h.84v.36h1.46ZM231,114.85a7.41,7.41,0,0,1,1,1l-.53.41c-.11-.14-.26-.29-.42-.46l-5,.14,0-.58,2.54,0v-.44h-2.21v-2.17h2.21v-.38h-2.57v-.59h2.57v-.44h.82v.44h2.62v.59h-2.62v.38h2.3v2.17Zm-3.2,3.26a5.31,5.31,0,0,0-.84-1l.63-.32a5.5,5.5,0,0,1,.89.95Zm-.63-4.57h1.42v-.4H227.2Zm1.42.85V114H227.2v.41Zm.82-1.25v.4h1.49v-.4Zm1.49,1.25V114h-1.49v.41Zm-.36.88-.19-.16.4-.26h-1.34v.44Z" fill="#fff"/><path d="M239.32,110.7c-.3.89-.67,2-1,2.85a3.32,3.32,0,0,1,.89,2.24,1.51,1.51,0,0,1-.45,1.29,1.59,1.59,0,0,1-.58.2,5.43,5.43,0,0,1-.71,0,2.15,2.15,0,0,0-.22-.86,3.46,3.46,0,0,0,.55,0,.57.57,0,0,0,.32-.09c.15-.11.2-.36.2-.68a3,3,0,0,0-.88-2c.28-.73.56-1.68.75-2.4H237v8.52h-.88v-9.42h2.38l.14,0Zm6,2.91a14,14,0,0,1-1.36.91,8.48,8.48,0,0,0,1.76,3.11,3.64,3.64,0,0,0-.65.65,10.27,10.27,0,0,1-1.81-3.34l-.13.06c.54,1.74.31,3.58-.32,4.15a1.34,1.34,0,0,1-1.14.48c-.2,0-.56,0-.85,0a2.32,2.32,0,0,0-.24-.9,8.39,8.39,0,0,0,.92.05.66.66,0,0,0,.6-.27,2.81,2.81,0,0,0,.39-1.84,12.26,12.26,0,0,1-2.9,1.72,2.79,2.79,0,0,0-.6-.73,8.55,8.55,0,0,0,3.38-2,6.15,6.15,0,0,0-.18-.71A14,14,0,0,1,240,116.4a4.1,4.1,0,0,0-.54-.72,9.13,9.13,0,0,0,2.49-1.43,3.73,3.73,0,0,0-.46-.73,10.6,10.6,0,0,1-1.88,1.14,3.88,3.88,0,0,0-.59-.72,8.37,8.37,0,0,0,2.42-1.43h-2.17v-.87h1.92a6.15,6.15,0,0,0-1.14-1.22l.75-.46a6,6,0,0,1,1.28,1.31l-.54.37h1.1a9.73,9.73,0,0,0,1.07-1.73l1,.29a12.92,12.92,0,0,1-1,1.44h1.84v.87h-2.92a5.43,5.43,0,0,1-.48.48,5.41,5.41,0,0,1,.81,1.28,14.52,14.52,0,0,0,1.82-1.32Z" fill="#fff"/><path d="M110.61,46.52l3.68-2.67.59.81-8.19,6-.59-.82,3.56-2.58-1-1.43L106,47.68l-.57-.79L108.05,45l-1-1.32-2.17,1.57-.57-.78a14.83,14.83,0,0,1-.7,1.69,4.27,4.27,0,0,0-1.1-.33,14.36,14.36,0,0,0,1.65-4.93L102.66,42l-.61-.85,3.09-2.24a11.59,11.59,0,0,0,6.36.23,5.84,5.84,0,0,0,0,1.26,13.92,13.92,0,0,1-1.76.2l.55.75L108.05,43l1,1.32,2.64-1.92.57.79-2.64,1.91Zm-6.25-2.08,5.27-3.82a14.82,14.82,0,0,1-4.36-.5A17.56,17.56,0,0,1,104.36,44.44Z" fill="#002a5e"/><path d="M123.73,33.43a29.07,29.07,0,0,1-.88,3.07A6.56,6.56,0,0,0,126.06,38a2.34,2.34,0,0,0-.28,1.07,7.75,7.75,0,0,1-3.57-1.86l1.06,2.46c.23.55.23.89,0,1.2a4.41,4.41,0,0,1-1.62.94,4.62,4.62,0,0,0-.78-.82c.61-.24,1.13-.48,1.3-.55s.21-.17.14-.35l-1-2.24c-.49,1.21-1,2.41-1.44,3.39l-1-.62.1-.19c-1,.86-2,1.75-2.81,2.44l-.64-.89c.35-.26.77-.62,1.22-1l-1.24-2.86-1.18.51-.4-1,1.17-.51L114.14,35l-1.26.54-.4-.94,3.4-1.47.41,1-1.2.51.94,2.2,1-.45.41,1-1,.44,1.11,2.58,1.09-.93.49.76c.47-.9,1.11-2.18,1.7-3.38L119.63,34,117,35.14l-.4-1,2.61-1.13-.79-1.82,1-.43.79,1.83L123,31.43l.41,1-2.78,1.2.19.46a14.13,14.13,0,0,0,1.31,1.76,17,17,0,0,0,.51-2.45Zm-5.53,1.92a9.68,9.68,0,0,1,2,1.46l-.67.78a9.06,9.06,0,0,0-2-1.55Zm3.73-3.47a8.73,8.73,0,0,0-1.8-.65l.35-.77a7.9,7.9,0,0,1,1.81.55Z" fill="#002a5e"/><path d="M131.66,37.25c.1.51.07.84-.21,1.08a3.24,3.24,0,0,1-1.44.48,4.6,4.6,0,0,0-.48-1c.45-.07.86-.15,1-.18s.18-.09.15-.24l-.54-2.82-1,1-.49-.71a13.44,13.44,0,0,1,0,4.34,3.28,3.28,0,0,0-1-.32,15.82,15.82,0,0,0-.33-5.86l-.8-4.21,3.44-.66Zm-4-7.63.31,1.65.32-.33a11.34,11.34,0,0,1,1.32.9l-.48-2.5Zm.61,3.19c.1.53.2,1.14.3,1.76l1.39-.92-.26-1.34-.38.46a14.47,14.47,0,0,0-1.25-1ZM132.79,29a3.41,3.41,0,0,1-1.2,3.5,3.53,3.53,0,0,0-.86-.63,2.53,2.53,0,0,0,1.06-2.69l-.25-1.27,3.73-.71.5,2.64c.07.33.1.44.25.41l.57-.1a2.63,2.63,0,0,0,.52-.17l.25.86a1.88,1.88,0,0,1-.58.19l-.68.13c-.91.17-1.18-.17-1.37-1.14l-.31-1.61-1.68.32Zm4.36,2.92a7.53,7.53,0,0,1-1.4,3.86,7.55,7.55,0,0,0,2.65.58,4.17,4.17,0,0,0-.53,1.08,8,8,0,0,1-2.86-.78,9.72,9.72,0,0,1-2.45,1.77,3.8,3.8,0,0,0-.77-.83,8.78,8.78,0,0,0,2.27-1.5,9,9,0,0,1-2.16-2.23l.36-.19-.74.14-.2-1,4.89-.93.18-.07Zm-4.24,1.63a6.4,6.4,0,0,0,1.85,1.74,6.21,6.21,0,0,0,1.12-2.31Z" fill="#002a5e"/><path d="M143.61,34.87A9.46,9.46,0,0,1,140.79,37c-.19-.18-.59-.58-.82-.75a7.73,7.73,0,0,0,2.62-1.73Zm7.2-1.26,0,.9L146,34.37l-.08,3-1.1,0,.08-3-4.76-.13,0-.9Zm-7.08-6-3.28-.09,0-.9,10.29.29,0,.9-3.32-.1,0,.8,2.72.07L150,31.39l-9-.25.08-2.82,2.58.07Zm-2.14,5.08,0-.88,7.79.22,0,.87Zm.52-2.35,1.54,0,0-1.15-1.53,0Zm2.57.07,1.61,0,0-1.15-1.61,0Zm1.69-2.73-1.61,0,0,.79,1.6,0Zm1.5,7a18,18,0,0,1,2.77,1.9l-.89.62a16.87,16.87,0,0,0-2.71-2Zm-.49-5.35,0,1.15,1.62.05,0-1.15Z" fill="#002a5e"/><path d="M157,33.93c-.4,0-.82,0-1.21,0L155,37c-.14.56-.33.81-.7.87a3.91,3.91,0,0,1-1.7-.22,4.22,4.22,0,0,0-.07-1l1.13.3c.17,0,.25,0,.3-.18l.68-2.73-1.44,0,0-1.11c.49,0,1.09,0,1.74,0l.58-2.3L154,30.26l.26-1,1.49.38.57-2.27,1,.26-.57,2.27,1.35.34-.25,1-1.35-.34-.51,2,1.06,0Zm6.35.84a7.49,7.49,0,0,1-3,2.8A9.51,9.51,0,0,0,163,39.36a4.86,4.86,0,0,0-.94.82A9.53,9.53,0,0,1,159.28,38a11.39,11.39,0,0,1-3.63.53,3.2,3.2,0,0,0-.29-1.13,9.44,9.44,0,0,0,3.21-.33,8.78,8.78,0,0,1-1.15-2.92l.33,0-.59-.15.26-1,5.12,1.29h.2Zm-3-4.6a3.38,3.38,0,0,1-2.61,2.67,4.09,4.09,0,0,0-.51-1,2.46,2.46,0,0,0,2.11-2l.32-1.26,3.83,1-.66,2.6c-.08.33-.09.46.11.51l.77.2a3.29,3.29,0,0,0,.62.08c-.06.28-.12.67-.15.93a2.43,2.43,0,0,1-.69-.1l-.87-.22c-1-.24-1.06-.68-.81-1.66l.4-1.6-1.79-.45Zm-1.85,4.18a6.62,6.62,0,0,0,1.14,2.38,6.65,6.65,0,0,0,2.1-1.57Z" fill="#002a5e"/><path d="M171.4,42.35A31,31,0,0,1,173.83,45l-1.17.09a23.66,23.66,0,0,0-2.28-2.66l.88-.19-3.21-1.61.69.85a16.31,16.31,0,0,1-4-.31,9.7,9.7,0,0,0-.36-1.12,13,13,0,0,0,3.58.56l-1.72-.87,2.17-4.31,7,3.52-2.17,4.31Zm3.35-6.45a1.38,1.38,0,0,1-.15.25,5.55,5.55,0,0,0,2.61,2.62,3.15,3.15,0,0,0-.94.54A5.79,5.79,0,0,1,174,36.69c-.63.3-1.71.33-3.68-.34a3.07,3.07,0,0,0-.13-1L167.46,34l.39-.78L171,34.77l-.36.71c2.48.87,3,.39,3.26-.07l.07-.14-.89-.44a6,6,0,0,1-1.29.6,4.85,4.85,0,0,0-.49-.88,4.91,4.91,0,0,0,2.22-1.35l.79.64c-.15.15-.3.29-.47.43L177.14,36l.16,0,.58.57a12,12,0,0,1-1.74,1.12L175.5,37a9.42,9.42,0,0,0,.83-.51l-1.49-.75Zm-7.18,3.73,5,2.53.32-.62-5-2.53Zm.62-1.23,5,2.53.3-.6-5-2.53Zm3-4.65-2.63-1.32.38-.75L171.52,33Zm-2.36,3.45,5,2.53.31-.61-5-2.53Z" fill="#002a5e"/><path d="M185.19,50.08a18.13,18.13,0,0,1-2.76-.37,7.8,7.8,0,0,0,1.65,2.88,5,5,0,0,0-1.17.34,7.31,7.31,0,0,1-1.56-6.77L180,45l-1.84,2.25,2.71,1.37a7.29,7.29,0,0,0-.68.7,35.89,35.89,0,0,0-3.78-1.71h-.11a4,4,0,0,0,.34-1.18.93.93,0,0,0,1-.3l1.5-1.83-1.44-1.18.62-.76,1.6,1.31,3.32-4.08,5.75,4.69-.58.72-4.88-4-.54.67,4.6,3.76-.56.69-4.6-3.76-.54.65,4.61,3.76-.55.68-4.61-3.76-.54.67,5.8,4.74-.62.76-1.05-.85Zm-2.94-3.18a5.87,5.87,0,0,0,0,1.87,16.45,16.45,0,0,0,2.66.26Z" fill="#002a5e"/><path d="M108.77,57.16l1.17-1.1,8.19,4.43-1.07,1-2.27-1.32-2.23,2.1,1.17,2.36-1,1ZM112,61.27l1.76-1.66L112.73,59c-.87-.49-1.74-1-2.61-1.57l-.05,0c.51.9,1,1.8,1.42,2.7Z" fill="#002a5e"/><path d="M118.66,58.36l-4.58-6.58,1.14-.79,4.61,6.65c.21.3.42.32.56.23l.17-.15.74.75a2,2,0,0,1-.55.51C119.94,59.55,119.27,59.24,118.66,58.36Z" fill="#002a5e"/><path d="M121.09,54.59a3.21,3.21,0,0,1,1.13-4.45c1.57-.79,3-.09,3.82,1.57a3.3,3.3,0,0,1,.25.66l-3.82,1.93a2,2,0,0,0,2.73.88A2.82,2.82,0,0,0,126.38,54l.82.56a4,4,0,0,1-1.68,1.63A3.18,3.18,0,0,1,121.09,54.59ZM124.85,52c-.51-1-1.26-1.36-2.12-.93a1.79,1.79,0,0,0-.71,2.36Z" fill="#002a5e"/><path d="M129.69,50.64l-2.82-2.43,1.42-.44,1.15,1c.29.3.61.59.92.88h0c.06-.41.13-.82.2-1.23l.27-1.47,1.38-.42-.92,3.75,3,2.51-1.43.44-1.24-1.08c-.32-.31-.66-.63-1-.91h-.06c-.08.42-.16.86-.24,1.3l-.32,1.56-1.38.43Z" fill="#002a5e"/><path d="M141.07,44.24l-2.59.11,0-1.17,6.58-.27,0,1.17-2.6.11.31,7.66-1.39.06Z" fill="#002a5e"/><path d="M146.34,48.53a3.2,3.2,0,0,1,3.41-3.07c1.74.21,2.52,1.57,2.3,3.42a3.07,3.07,0,0,1-.16.69l-4.25-.52a2,2,0,0,0,1.78,2.25A2.81,2.81,0,0,0,151,51l.38.93a4,4,0,0,1-2.3.42A3.17,3.17,0,0,1,146.34,48.53Zm4.55-.05c.14-1.12-.3-1.83-1.25-1.95a1.78,1.78,0,0,0-1.89,1.57Z" fill="#002a5e"/><path d="M154.17,49.66c.64-2,2.34-2.9,3.75-2.46a2.55,2.55,0,0,1,1.46,1.25l.28-1.06.73-2.34,1.32.42-2.88,9.12-1.08-.34.13-.74,0,0a2.7,2.7,0,0,1-2.1.28C154.15,53.27,153.51,51.75,154.17,49.66Zm3.88,2.81,1-3.08a2.06,2.06,0,0,0-1.2-1c-.88-.28-1.86.34-2.28,1.7s-.15,2.39.84,2.7A1.92,1.92,0,0,0,158.05,52.47Z" fill="#002a5e"/><path d="M162.38,52.49c1-1.87,2.85-2.39,4.15-1.68a2.6,2.6,0,0,1,1.2,1.51l.47-1,1.17-2.15,1.21.67L166,58.23l-1-.54.26-.71,0,0a2.79,2.79,0,0,1-2.12-.13C161.65,56,161.32,54.41,162.38,52.49ZM165.64,56l1.55-2.83a2.08,2.08,0,0,0-1-1.22c-.81-.45-1.88,0-2.57,1.21s-.6,2.33.3,2.82A2,2,0,0,0,165.64,56Z" fill="#002a5e"/><path d="M169.83,56.85a3.22,3.22,0,0,1,4.53-.78c1.35,1.11,1.29,2.69.11,4.13a4.66,4.66,0,0,1-.5.5L170.65,58a2,2,0,0,0,.3,2.85,2.9,2.9,0,0,0,1.53.62l-.18,1a4,4,0,0,1-2.17-.88A3.16,3.16,0,0,1,169.83,56.85Zm3.87,2.39c.72-.87.73-1.71,0-2.32a1.79,1.79,0,0,0-2.44.32Z" fill="#002a5e"/><path d="M178.53,60.17l.75.84-.81.87,0,0a2.31,2.31,0,0,1,2.26.48,1.86,1.86,0,0,1,.39.66l-1.07.61a1.76,1.76,0,0,0-.36-.57,1.86,1.86,0,0,0-2.12-.24l-3.06,2.75-.93-1Z" fill="#002a5e"/></g></svg>