<svg xmlns="http://www.w3.org/2000/svg" viewBox="0 0 290.64 309.41"><g id="圖文"><path d="M10,163.56v.82H2.08v-.82H5.45v-.88H3.07v-.79H5.45v-.78h-2a6.23,6.23,0,0,1-1.06,1.36,5.62,5.62,0,0,0-.49-.88A5.64,5.64,0,0,1,.76,164.8a3.49,3.49,0,0,0-.76-.64,5.54,5.54,0,0,0,1-3.57V158.5H2.33a4.38,4.38,0,0,0-.44-.43c.82-.14,1.76-.34,2.64-.56-.78-.21-1.55-.41-2.26-.56l.55-.42H1v-.78H4.87a5.41,5.41,0,0,0-.49-.7l.7-.33a5.86,5.86,0,0,1,.75,1H9.48v.78H7.87l.48.31a16.32,16.32,0,0,1-1.52.63c.72.2,1.39.42,1.92.6l-.5.43H9.81v.82H1.93v1.28a8.52,8.52,0,0,1-.05,1,5.59,5.59,0,0,0,1.37-2.13l.86.25c-.08.2-.16.4-.26.6h1.6v-.8h1v.8H9.23v.8H6.44v.78H9v.79H6.44v.88ZM7.78,158.5c-.57-.2-1.3-.43-2.08-.66-.88.27-1.78.48-2.62.66Zm-4.48-2c.79.19,1.64.4,2.46.63a11.24,11.24,0,0,0,1.65-.63Z" fill="#002a5e"/><path d="M14.88,163a9.24,9.24,0,0,1-3.2,1.39,3.82,3.82,0,0,0-.61-.73,9,9,0,0,0,3.08-1Zm5.63-1.64v.84H16.27v2.5h-1v-2.5H11.12v-.84h4.17v-.64H12.12V160h3.17v-.65h-3.7v-.79h2.16a5.73,5.73,0,0,0-.47-.92l.62-.15H11.16v-.8h1.6A8,8,0,0,0,12,155.2l.87-.3a7.54,7.54,0,0,1,.86,1.54l-.57.21h1.2V154.8h.94v1.85h1.07V154.8h.94v1.85h1.17l-.42-.14a8.94,8.94,0,0,0,.76-1.59l1,.27a16.45,16.45,0,0,1-.89,1.46h1.54v.8H17.66l.84.21c-.24.33-.49.62-.7.86h2.28v.79H16.27V160h3.3v.75h-3.3v.64Zm-6.25-3.9a4.18,4.18,0,0,1,.5,1l-.48.12h2.94l-.39-.11a9,9,0,0,0,.6-1Zm3.25,5.13c.94.34,2.26.86,3,1.21l-.67.58c-.67-.34-2-.91-3-1.28Z" fill="#002a5e"/><path d="M28.57,155a6.8,6.8,0,0,0,3.06,3.92,4.77,4.77,0,0,0-.73.92,7.2,7.2,0,0,1-1-.78c0,.07,0,.14,0,.19-.14,3.27-.28,4.51-.66,4.93a1.18,1.18,0,0,1-.88.44,10.16,10.16,0,0,1-1.67,0,2.43,2.43,0,0,0-.32-1,14.89,14.89,0,0,0,1.51.08.57.57,0,0,0,.46-.15c.24-.26.38-1.27.49-3.78H26.38c-.28,2.09-1,4-3.74,5a3.1,3.1,0,0,0-.64-.89,4.41,4.41,0,0,0,3.29-4.1h-2V159a7,7,0,0,1-.89.84,6.67,6.67,0,0,0-.84-.73,7.81,7.81,0,0,0,2.72-3.95l1,.25a10.27,10.27,0,0,1-1.84,3.36h6.2a9,9,0,0,1-1.83-2.87H26V155Z" fill="#002a5e"/><path d="M35.92,161.22a16.66,16.66,0,0,0-.85-1.47v4.94h-1V160a10.14,10.14,0,0,1-1.33,2.76,5,5,0,0,0-.5-.92A10.79,10.79,0,0,0,34,158H32.58v-.95h1.54v-2.25h1v2.25h1.54V158H35.07v.49c.39.49,1.25,1.64,1.45,1.94Zm6.31-1.83H40.75v5.3h-1v-5.3H38.05c0,1.62-.19,3.84-1.18,5.28a3.62,3.62,0,0,0-.83-.51,8.93,8.93,0,0,0,1.07-4.95V156a17.52,17.52,0,0,0,3.68-1.06l.84.79a19.18,19.18,0,0,1-3.58,1v1.74h4.18Z" fill="#002a5e"/><path d="M44.48,160.33H47v3.3H44.48v.71h-.89v-7.93h.89a13,13,0,0,0,.39-1.61l1.09.13c-.18.5-.38,1-.59,1.48h1.5v3.06H44.48ZM46,157.25H44.48v1.37H46Zm-1.49,3.94v1.59h1.59v-1.59Zm6.07-4.94v1.17h2.11v4.68c0,.42-.07.68-.34.84a2.77,2.77,0,0,1-1.2.15,3.28,3.28,0,0,0-.26-.86c.33,0,.63,0,.73,0s.14,0,.14-.15v-3.77H50.55v6.36h-.94v-6.36H48.52v4.75h-.91v-5.64h2v-1.17H47.23v-.91H53v.91Z" fill="#002a5e"/><path d="M4.72,176.6a6.85,6.85,0,0,0,2.39.3c.65,0,3.74,0,4.54,0a3.63,3.63,0,0,0-.41,1H7.12c-2.15,0-3.44-.31-4.25-1.65a6,6,0,0,1-.56,1.92,6,6,0,0,0-.8-.45,10.77,10.77,0,0,0,.7-4.61l.89.06c0,.52,0,1-.06,1.49a3.22,3.22,0,0,0,.79,1.4v-3.62h-2v-.89H3.67v-1.18H2v-.87H3.67v-1.2h.92v1.2H6.2v.87H4.59v1.18H6.4v.37a3.06,3.06,0,0,0,1.46-2.34H6.53v-.85h4.68s0,.24,0,.36c-.09,1.87-.19,2.63-.43,2.91a.94.94,0,0,1-.67.31,10.5,10.5,0,0,1-1.16,0,2.21,2.21,0,0,0-.26-.85c.41,0,.8,0,1,0a.39.39,0,0,0,.32-.1,4.34,4.34,0,0,0,.27-1.83H8.81a4.05,4.05,0,0,1-1.91,3.09c-.11-.1-.32-.26-.5-.4v.17H4.72v1.36H6.28v.88H4.72Zm2.12-3.79H11v3.31H6.84Zm.93,2.5H10v-1.69H7.77Z" fill="#002a5e"/><path d="M15.23,173.52a10.47,10.47,0,0,1-.56,2.27c.66,1.15,1.94,1.32,3.84,1.32,1.13,0,2.77-.05,3.91-.16a2.89,2.89,0,0,0-.33.92c-1,.07-2.39.1-3.59.1-2.08,0-3.37-.22-4.2-1.38A4.88,4.88,0,0,1,13,178.17a2.89,2.89,0,0,0-.67-.68,5.12,5.12,0,0,0,1.93-3.34h-.92a1.14,1.14,0,0,0-.63.16,5.83,5.83,0,0,0-.35-.85,1,1,0,0,0,.53-.33,15.94,15.94,0,0,0,1.18-1.58H12.51v-.81h2.17l.13-.05.62.28c-.42.61-1.14,1.66-1.72,2.4h.93l.16,0Zm-1.12-3.08a12.79,12.79,0,0,0-1.27-1.73l.76-.44a12.48,12.48,0,0,1,1.29,1.63Zm2.45,6.1h-.87v-4.65h.8v-3.28H21v3.28h.82v3.72c0,.42-.08.66-.36.79a3.59,3.59,0,0,1-1.33.14,2.63,2.63,0,0,0-.24-.8c.39,0,.76,0,.86,0s.17,0,.17-.14v-2.93H16.56Zm3.55-1h-2v.38h-.74v-2.68h2.77Zm-2.74-3.67h.85v-1.74h1.85v-.78h-2.7Zm2,2H18.08v1h1.28Zm.71-3.1H19v1.07h1.1Z" fill="#002a5e"/><path d="M23.67,176.27H25.4V171H24v-.79a4.67,4.67,0,0,0,1.72-.6h.93v6.68h1.55v1H23.67Z" fill="#002a5e"/><path d="M29.38,173.41c0-2.59,1-4,2.56-4s2.56,1.39,2.56,4-1,4-2.56,4S29.38,176,29.38,173.41Zm3.94,0c0-2.22-.57-3-1.38-3s-1.38.77-1.38,3,.57,3,1.38,3S33.32,175.62,33.32,173.41Z" fill="#002a5e"/><path d="M35.51,173.41c0-2.59,1-4,2.57-4s2.56,1.39,2.56,4-1,4-2.56,4S35.51,176,35.51,173.41Zm3.94,0c0-2.22-.57-3-1.37-3s-1.38.77-1.38,3,.57,3,1.38,3S39.45,175.62,39.45,173.41Z" fill="#002a5e"/><path d="M45.07,168.6a18,18,0,0,1-1,2.23v7.29H43V172.4a9.57,9.57,0,0,1-.89,1.06,6,6,0,0,0-.56-1,11.53,11.53,0,0,0,2.55-4.14Zm6.29,8.14v1H44.67v-1H48.4a39.13,39.13,0,0,0,1-5.17l1.05.17c-.29,1.63-.7,3.63-1.09,5ZM51,171.12H45.1v-1H51Zm-4.51,5.21a44.14,44.14,0,0,0-.68-4.49l.89-.21a41.54,41.54,0,0,1,.78,4.41Zm1.22-6.23a9.89,9.89,0,0,0-.49-1.7l1-.24a13.14,13.14,0,0,1,.53,1.66Z" fill="#002a5e"/><circle cx="16.17" cy="123.39" r="2.29" fill="#f8a908" stroke="#002a5e" stroke-miterlimit="10" stroke-width="0.45"/><path d="M20.84,131.47a4.68,4.68,0,0,0-9.35,0Z" fill="#f8a908" stroke="#002a5e" stroke-miterlimit="10" stroke-width="0.45"/><circle cx="26.56" cy="132.35" r="2.29" fill="#f8a908" stroke="#002a5e" stroke-miterlimit="10" stroke-width="0.45"/><path d="M31.23,140.43a4.67,4.67,0,0,0-9.34,0Z" fill="#f8a908" stroke="#002a5e" stroke-miterlimit="10" stroke-width="0.45"/><circle cx="36.95" cy="123.39" r="2.29" fill="#f8a908" stroke="#002a5e" stroke-miterlimit="10" stroke-width="0.45"/><path d="M41.63,131.47a4.68,4.68,0,0,0-9.35,0Z" fill="#f8a908" stroke="#002a5e" stroke-miterlimit="10" stroke-width="0.45"/><circle cx="26.56" cy="117.12" r="2.29" fill="#f8a908" stroke="#002a5e" stroke-miterlimit="10" stroke-width="0.45"/><path d="M31.23,125.2a4.67,4.67,0,1,0-9.34,0Z" fill="#f8a908" stroke="#002a5e" stroke-miterlimit="10" stroke-width="0.45"/><path d="M28.69,105.28v2.61a19.85,19.85,0,0,1,0,39.48V150a22.45,22.45,0,0,0,0-44.7ZM4.1,127.63A22.48,22.48,0,0,0,24.43,150v-2.6a19.87,19.87,0,0,1,0-39.5v-2.6A22.49,22.49,0,0,0,4.1,127.63Z" fill="#002a5e" stroke="#002a5e" stroke-miterlimit="10" stroke-width="0.45"/><path d="M245.39,159.84a7.68,7.68,0,0,1-3.06,4.71,4.68,4.68,0,0,0-.79-.75,6.23,6.23,0,0,0,2.58-3.26h-2.35v-.94h2.78l.17,0Zm5.75-.87a25,25,0,0,1-2.73,2.23,6.55,6.55,0,0,0,3.11,2.47,4.92,4.92,0,0,0-.7.88,7.47,7.47,0,0,1-3.72-3.75V164c0,.57-.13.86-.52,1a5.39,5.39,0,0,1-1.88.18,3.88,3.88,0,0,0-.36-1c.6,0,1.25,0,1.43,0s.25-.06.25-.25v-5.5h-2.84v-1h3.92v.86a10,10,0,0,0,.84,2.06,16.24,16.24,0,0,0,2.29-2.13ZM248,157.65a18.32,18.32,0,0,0-3.91-1.46l.49-.83a18.61,18.61,0,0,1,4,1.35Z" fill="#002a5e"/><path d="M253.57,162.39a14.88,14.88,0,0,1-.53,2.76,3.69,3.69,0,0,0-.75-.26,13.1,13.1,0,0,0,.49-2.64Zm1.74-.44c0-.17-.07-.36-.11-.59a10.92,10.92,0,0,0-2.55.49,4.69,4.69,0,0,0-.28-.82c.23-.07.45-.33.77-.74a11.62,11.62,0,0,0,.75-1.1,5,5,0,0,0-1.31.23c-.05-.18-.19-.59-.28-.81.19-.05.35-.26.56-.6a12.77,12.77,0,0,0,1.23-2.7l.84.35a15.27,15.27,0,0,1-1.43,2.76l.91-.07c.24-.47.5-1,.72-1.45l.77.45a20.48,20.48,0,0,1-2.17,3.42l1.31-.17c-.09-.33-.18-.66-.28-.95l.69-.18a16.75,16.75,0,0,1,.59,2.24Zm-.79.28a21.33,21.33,0,0,1,.28,2.46l-.74.14a23,23,0,0,0-.22-2.48Zm.94-.27a19.37,19.37,0,0,1,.56,2l-.68.22a15.65,15.65,0,0,0-.53-2Zm4.63,1.7c.76.27,1.57.59,2.09.83l-.41.71c-.57-.27-1.47-.68-2.28-1l.33-.56h-1.75l.6.55c-.82.38-1.87.78-2.62,1a3.67,3.67,0,0,0-.38-.69,20.16,20.16,0,0,0,2.19-.91h-1.57V160.5h5.33v3.16Zm-1.56-7.12h-2.65v-.68h2.65v-.52h1v.52H262v.68H259.5V157h2.15v.65H256.3V157h2.23Zm-2.6,1.49H262v2.06h-6.05Zm.83,1.42h1v-.78h-1Zm.42,2h3.52v-.39h-3.52Zm0,.81h3.52v-.39h-3.52Zm0,.85h3.52v-.43h-3.52Zm2.29-3.66v-.78h-.93v.78Zm1.64-.78h-.87v.78h.87Z" fill="#002a5e"/><path d="M272.89,162.88h-2.48v1.32c0,.47-.1.73-.49.87a6.11,6.11,0,0,1-1.76.13,3.56,3.56,0,0,0-.31-.86c.59,0,1.2,0,1.36,0s.22,0,.22-.18v-1.29h-3.57a8.56,8.56,0,0,1,1.46,1.17l-.73.64a9.22,9.22,0,0,0-1.69-1.39l.48-.42H263.2v-.81h6.23v-.55c-2.15.06-4.24.1-5.77.12l0-.75,3.9,0v-.51h-3.2v-3h3.2v-.51h-4v-.77h4v-.75h1v.75h4v.77h-4v.51h3.32v3h-1a8.78,8.78,0,0,1,1.66,1l-.59.54a4.83,4.83,0,0,0-.56-.4l-.93,0v.58h2.48Zm-7.62-4.32h2.26V158h-2.26Zm2.26,1.18v-.56h-2.26v.56Zm1-1.71v.53h2.34V158Zm2.34,1.15h-2.34v.56h2.34Zm-2.34,1.69,1.73,0c-.21-.1-.44-.2-.65-.28l.25-.2h-1.33Z" fill="#002a5e"/><path d="M282.63,159.82c-.46.38-1,.76-1.52,1.12a4.89,4.89,0,0,0,2.69,3,3.45,3.45,0,0,0-.65.81,5.66,5.66,0,0,1-2.82-3.31l-.43.25a3.18,3.18,0,0,1-.5,3.07,1.45,1.45,0,0,1-1.16.43c-.25,0-.57,0-.89,0a2.44,2.44,0,0,0-.27-.94c.38,0,.72.06,1,.06a.75.75,0,0,0,.64-.24,2,2,0,0,0,.38-1.53,15.58,15.58,0,0,1-4.48,2.2,3.3,3.3,0,0,0-.52-.83,12.83,12.83,0,0,0,4.83-2.29,5.05,5.05,0,0,0-.23-.61,17.82,17.82,0,0,1-3.93,1.82,4.46,4.46,0,0,0-.5-.78,13.51,13.51,0,0,0,4-1.69,3.19,3.19,0,0,0-.42-.52,14.31,14.31,0,0,1-3,1.21,4.81,4.81,0,0,0-.53-.8,11.88,11.88,0,0,0,3.65-1.38h-2.18V158h6.08v.86h-2.54a7.15,7.15,0,0,1-.7.53,4.61,4.61,0,0,1,1,1.51,19.91,19.91,0,0,0,2.19-1.72Zm-7.35-1.28h-1v-2.29h3.94a5,5,0,0,0-.33-.7l1-.3a6.29,6.29,0,0,1,.51,1h3.88v2.29h-1v-1.39h-7.05Z" fill="#002a5e"/><path d="M251.62,177.09c2.2-2.16,3.54-3.54,3.54-4.74a1.26,1.26,0,0,0-1.35-1.4,2.17,2.17,0,0,0-1.56.88l-.69-.69A3.08,3.08,0,0,1,254,170a2.22,2.22,0,0,1,2.39,2.33c0,1.4-1.28,2.82-2.92,4.55a11.17,11.17,0,0,1,1.29-.08h2v1.05h-5.11Z" fill="#002a5e"/><path d="M257.75,177.09c2.21-2.16,3.54-3.54,3.54-4.74A1.25,1.25,0,0,0,260,171a2.15,2.15,0,0,0-1.56.88l-.7-.69A3.12,3.12,0,0,1,260.1,170a2.22,2.22,0,0,1,2.39,2.33c0,1.4-1.28,2.82-2.93,4.55a11.45,11.45,0,0,1,1.29-.08h2v1.05h-5.11Z" fill="#002a5e"/><path d="M267.34,169.12a16.08,16.08,0,0,1-1,2.23v7.29h-1v-5.72a7.91,7.91,0,0,1-.89,1.06,6.74,6.74,0,0,0-.55-1,11.67,11.67,0,0,0,2.55-4.14Zm6.3,8.15v.95h-6.7v-.95h3.74a42.85,42.85,0,0,0,1-5.18l1,.17c-.29,1.63-.7,3.63-1.09,5Zm-.4-5.63h-5.87v-1h5.87Zm-4.51,5.22a43.89,43.89,0,0,0-.68-4.5l.89-.2a40.67,40.67,0,0,1,.78,4.41Zm1.23-6.24a10.53,10.53,0,0,0-.5-1.7l1-.24a15.87,15.87,0,0,1,.54,1.66Z" fill="#002a5e"/><path d="M247.22,121.56h7.18v2h-4.84v2.71h4.11v2h-4.11v3.13h5v2h-7.35Z" fill="#f8a908" stroke="#002a5e" stroke-miterlimit="10" stroke-width="0.45"/><path d="M256.78,131.73l1.35-1.63a6,6,0,0,0,3.6,1.34c1.22,0,2.29-.41,2.29-1.26s-1-1.25-2.24-1.66l-1.68-.59a3.59,3.59,0,0,1-2.76-3.21c0-1.94,1.85-3.38,4.44-3.38a6.46,6.46,0,0,1,4.32,1.55l-1.24,1.53a5.09,5.09,0,0,0-3.11-1.07c-1.08,0-2.06.39-2.06,1.25s1.14,1.17,2.3,1.55l1.66.57c1.54.52,2.75,1.51,2.75,3.25,0,2-1.79,3.5-4.7,3.5A7.54,7.54,0,0,1,256.78,131.73Z" fill="#f8a908" stroke="#002a5e" stroke-miterlimit="10" stroke-width="0.45"/><path d="M268.53,127.47c0-3.85,2.5-6.11,5.61-6.11a4.91,4.91,0,0,1,3.62,1.5l-1.23,1.48a3.16,3.16,0,0,0-2.31-1c-1.94,0-3.3,1.52-3.3,4s1.17,4.07,3.48,4.07a2.3,2.3,0,0,0,1.45-.44v-2.31h-2.07v-1.91h4.16v5.28a5.5,5.5,0,0,1-3.8,1.41C271,133.5,268.53,131.38,268.53,127.47Z" fill="#f8a908" stroke="#002a5e" stroke-miterlimit="10" stroke-width="0.45"/><path d="M239.9,127.63A22.47,22.47,0,0,0,260.23,150v-2.61a19.85,19.85,0,0,1,0-39.48v-2.61A22.48,22.48,0,0,0,239.9,127.63Zm24.58-22.35v2.6a19.86,19.86,0,0,1,0,39.5V150a22.45,22.45,0,0,0,0-44.7Z" fill="#002a5e" stroke="#002a5e" stroke-miterlimit="10" stroke-width="0.45"/><path d="M159.66,289a12.38,12.38,0,0,1-1,4.05,4.74,4.74,0,0,0,1.93,2.07,3.31,3.31,0,0,0-.64.79,5.23,5.23,0,0,1-1.79-2,6.51,6.51,0,0,1-2.39,2.05,4.66,4.66,0,0,0-.36-.58l-.29.26a10.37,10.37,0,0,0-1.33-.65,9.47,9.47,0,0,1-2.83.93,2.2,2.2,0,0,0-.41-.66,10.12,10.12,0,0,0,2.3-.64c-.51-.19-1-.35-1.5-.48a10.21,10.21,0,0,0,.61-.88h-1.26v-.71h1.69c.11-.2.22-.4.31-.59h-1.54v-1.8h1.95v-.41h-1.74V288.6h-.73v-.74h.73v-1.11h1.74v-.67h.78v.67h1.85v1.11h.59v.74h-.59v1.18h-1.85v.41h2v.52a15.11,15.11,0,0,0,1.43-4.63l.84.17q-.18.94-.42,1.89h2.71V289Zm-7.72,2.37h1.12v-.59h-1.12Zm.15-4v.49h1v-.49Zm1,1.7v-.57h-1v.57Zm-.23,4.17-.33.52c.37.11.75.23,1.11.36a1.83,1.83,0,0,0,.7-.88Zm2.32,0a2.49,2.49,0,0,1-.7,1.22,9.48,9.48,0,0,1,1.14.53,5.22,5.22,0,0,0,2.09-2,14.47,14.47,0,0,1-.73-2.55c-.17.39-.34.74-.52,1.07a5.67,5.67,0,0,0-.55-.52v1h-2.33l-.32.59h1.19v-.36h.79v.36h1v.71Zm-1.31-5.87v.49h1v-.49Zm1,1.7v-.57h-1v.57Zm-1,1.68v.59H155v-.59Zm3.63-1.78,0,.09a16,16,0,0,0,.71,2.9,12.51,12.51,0,0,0,.65-3Z" fill="#002a5e"/><path d="M163.47,291.84v3c0,.49-.1.76-.38.91a3.23,3.23,0,0,1-1.39.18,3.69,3.69,0,0,0-.26-.91c.43,0,.82,0,.94,0s.2-.05.2-.19v-2.77l-1.15.36-.24-1c.39-.09.87-.23,1.39-.38v-2h-1.22v-.93h1.22v-2.1h.89v2.1h.92v.93h-.92v1.76l.95-.29.14.9Zm2.12-.81a8.8,8.8,0,0,1-1.14,4.93,3.31,3.31,0,0,0-.73-.51,7.79,7.79,0,0,0,1-4.43V288h2.37v-1.84h1v.59h2.49v.72h-2.49V288h2.28l.14,0,.63.14a11.81,11.81,0,0,1-.53,1.59l-.75-.17a6.33,6.33,0,0,0,.24-.79h-2.18v.5l1.6-.14.07.57-1.67.17v.05c0,.25,0,.34.29.34h1.37a5,5,0,0,0,.81-.06c0,.22.05.43.07.62a3.26,3.26,0,0,1-.83.06H168c-.72,0-.92-.26-.95-.79l-1.19.11-.09-.73,1.27-.12v-.58h-1.46Zm5.5,1.49c-.35.19-.75.38-1.16.56a3.29,3.29,0,0,0,1.39,1.95,2.85,2.85,0,0,0-.57.63,4.08,4.08,0,0,1-1.42-2.33l-.45.18a2.14,2.14,0,0,1-.2,2.15,1,1,0,0,1-.81.32h-.55a1.54,1.54,0,0,0-.22-.72l.63,0a.43.43,0,0,0,.39-.15,1.22,1.22,0,0,0,.17-.93,10.53,10.53,0,0,1-2.58,1.44,4.73,4.73,0,0,0-.39-.56,8,8,0,0,0,2.83-1.49c-.05-.09-.1-.21-.15-.32a9.06,9.06,0,0,1-2.14,1.05,2.16,2.16,0,0,0-.36-.51,7.06,7.06,0,0,0,2.22-.95l-.25-.26a8.18,8.18,0,0,1-1.48.57c-.07-.13-.21-.38-.3-.51a9.27,9.27,0,0,0,2.15-.85h-2v-.68h5.21v.68h-2.27a7,7,0,0,1-.72.49,2.7,2.7,0,0,1,.58.7,20.46,20.46,0,0,0,1.88-.95Z" fill="#002a5e"/><path d="M174,290.94a12.18,12.18,0,0,0-1.94-1.1l.51-.77a10.55,10.55,0,0,1,2,1Zm-1.65,4.16a31.52,31.52,0,0,0,1.84-3.34l.77.66c-.5,1.11-1.14,2.34-1.72,3.35Zm.78-8.85a13.42,13.42,0,0,1,1.91,1.06l-.6.81a10,10,0,0,0-1.87-1.13Zm8.48,8.51c0,.55-.11.86-.44,1a4,4,0,0,1-1.69.19,4.26,4.26,0,0,0-.31-1c.55,0,1.08,0,1.27,0s.21-.06.21-.24v-7.33h-4.56V296h-.95v-9.45h6.47Zm-1.48-5.61h-3.49v-.83h3.49Zm-2.45,4.38v.65h-.78v-4.12h2.94v3.47Zm0-2.63v1.79H179V290.9Z" fill="#002a5e"/><path d="M191.29,294.92c.42,0,.48-.18.52-1.48a2.83,2.83,0,0,0,.94.41c-.12,1.61-.4,2-1.37,2h-1.59c-1.13,0-1.41-.3-1.41-1.31V292.6h-1.55c-.25,1.71-.91,2.81-3.43,3.38a3.17,3.17,0,0,0-.57-.88c2.21-.43,2.73-1.22,2.94-2.5h-1.39v-6.16h6.84v6.16H189.4v1.95c0,.32.08.37.51.37Zm-5.94-6.68h4.86v-.91h-4.86Zm0,1.73h4.86v-.92h-4.86Zm0,1.75h4.86v-.92h-4.86Z" fill="#002a5e"/><path d="M202.94,286.51v9.42h-1v-.51h-6.9V296h-.92v-9.46Zm-1,8.13v-7.35h-6.9v7.35Zm-.3-1.66h-1.46v.86c0,.36-.09.47-.35.55a5.24,5.24,0,0,1-1.29.08,2,2,0,0,0-.21-.53h.86c.12,0,.15-.05.15-.14V293h-4v-.58h4V292h.84v.36h1.46ZM200.49,291a7.41,7.41,0,0,1,1,.95l-.53.41a5.5,5.5,0,0,0-.42-.45l-5,.13,0-.57,2.54,0V291h-2.21v-2.17h2.21v-.38h-2.56v-.59h2.56v-.44h.83v.44h2.61v.59h-2.61v.38h2.29V291Zm-3.2,3.26a5,5,0,0,0-.84-1l.63-.32a5.2,5.2,0,0,1,.89,1Zm-.63-4.57h1.42v-.4h-1.42Zm1.42.85v-.41h-1.42v.41Zm.83-1.25v.4h1.48v-.4Zm1.48,1.25v-.41h-1.48v.41Zm-.35.88-.2-.16.4-.26h-1.33v.44Z" fill="#002a5e"/><path d="M208,286.89c-.3.89-.68,2-1,2.85a3.3,3.3,0,0,1,.88,2.24,1.54,1.54,0,0,1-.44,1.29,1.48,1.48,0,0,1-.58.2,4.06,4.06,0,0,1-.71,0,2.17,2.17,0,0,0-.23-.87,2.06,2.06,0,0,0,.55,0,.55.55,0,0,0,.32-.09.84.84,0,0,0,.21-.68,3,3,0,0,0-.88-2c.28-.73.56-1.68.75-2.4h-1.15V296h-.88v-9.42h2.37l.14,0Zm6,2.92c-.41.3-.88.62-1.35.9a8.33,8.33,0,0,0,1.75,3.11,3.94,3.94,0,0,0-.64.65,10.27,10.27,0,0,1-1.81-3.34l-.13.06c.54,1.75.3,3.59-.32,4.16a1.38,1.38,0,0,1-1.14.47c-.21,0-.56,0-.85,0a2.25,2.25,0,0,0-.25-.89c.35,0,.7,0,.92,0a.66.66,0,0,0,.61-.27,2.87,2.87,0,0,0,.39-1.84,12.12,12.12,0,0,1-2.91,1.72,3,3,0,0,0-.59-.73,8.57,8.57,0,0,0,3.38-2,6.22,6.22,0,0,0-.19-.71,13.53,13.53,0,0,1-2.26,1.43,3.61,3.61,0,0,0-.53-.72,9.08,9.08,0,0,0,2.48-1.43,4.63,4.63,0,0,0-.45-.73,11,11,0,0,1-1.88,1.14,4.24,4.24,0,0,0-.59-.72,8.37,8.37,0,0,0,2.42-1.43h-2.18v-.87h1.93a6.78,6.78,0,0,0-1.14-1.22l.74-.46a6,6,0,0,1,1.28,1.31l-.54.37h1.1a9.93,9.93,0,0,0,1.08-1.73l.95.29a13.45,13.45,0,0,1-1,1.44h1.84v.86h-2.91a4.47,4.47,0,0,1-.49.48,4.84,4.84,0,0,1,.81,1.28,13.09,13.09,0,0,0,1.83-1.32Z" fill="#002a5e"/><path d="M218.19,294.42a6.85,6.85,0,0,0,2.39.3c.65,0,3.74,0,4.54,0a3.63,3.63,0,0,0-.41,1h-4.12c-2.15,0-3.44-.31-4.25-1.66a6.2,6.2,0,0,1-.56,1.93,5.06,5.06,0,0,0-.8-.45,10.69,10.69,0,0,0,.69-4.62l.9.07c0,.51,0,1-.06,1.49a3.13,3.13,0,0,0,.79,1.4v-3.62h-2v-.9h1.87v-1.17h-1.66v-.87h1.66v-1.21h.92v1.21h1.61v.87h-1.61v1.17h1.81v.38a3.08,3.08,0,0,0,1.46-2.35H220v-.85h4.68s0,.25,0,.37c-.09,1.87-.2,2.62-.43,2.9a1,1,0,0,1-.67.32,10.5,10.5,0,0,1-1.16,0,2.16,2.16,0,0,0-.26-.85c.41,0,.8,0,.95,0a.36.36,0,0,0,.32-.11c.13-.15.2-.62.27-1.83h-1.41a4,4,0,0,1-1.92,3.1,4.77,4.77,0,0,0-.49-.41v.18h-1.68v1.36h1.56v.87h-1.56Zm2.12-3.8h4.13v3.32h-4.13Zm.93,2.51h2.2v-1.69h-2.2Z" fill="#002a5e"/><path d="M228.7,291.33a10.92,10.92,0,0,1-.56,2.27c.66,1.15,1.94,1.33,3.84,1.33,1.13,0,2.77-.06,3.91-.17a3,3,0,0,0-.33.93c-1,.06-2.39.1-3.59.1-2.08,0-3.37-.22-4.2-1.38a5.12,5.12,0,0,1-1.32,1.58,3.38,3.38,0,0,0-.67-.69,5.11,5.11,0,0,0,1.93-3.33h-.92a1.06,1.06,0,0,0-.63.16,5,5,0,0,0-.35-.85,1,1,0,0,0,.53-.33,15.94,15.94,0,0,0,1.18-1.58H226v-.81h2.18l.13-.06.62.28c-.42.62-1.14,1.67-1.72,2.4h.92l.17,0Zm-1.12-3.07a12.19,12.19,0,0,0-1.27-1.73l.76-.45a14.24,14.24,0,0,1,1.29,1.64Zm2.45,6.1h-.87v-4.65H230v-3.28h4.49v3.28h.82v3.72c0,.42-.08.66-.36.79a3.59,3.59,0,0,1-1.33.14,2.63,2.63,0,0,0-.24-.8c.39,0,.76,0,.86,0s.16,0,.16-.14v-2.94H230Zm3.55-1h-2v.37h-.75v-2.67h2.78Zm-2.74-3.67h.85V288h1.85v-.78h-2.7Zm2,2h-1.28v1h1.28Zm.71-3.11h-1.1v1.08h1.1Z" fill="#002a5e"/><path d="M165.81,307.62l.6-.8a2.56,2.56,0,0,0,1.87.87c.89,0,1.51-.48,1.51-1.26s-.56-1.4-2.35-1.4v-.91c1.56,0,2.08-.57,2.08-1.31a1.08,1.08,0,0,0-1.22-1.11,2.23,2.23,0,0,0-1.58.75l-.65-.77a3.32,3.32,0,0,1,2.27-1c1.42,0,2.43.73,2.43,2a1.86,1.86,0,0,1-1.37,1.8v.05A2,2,0,0,1,171,306.5c0,1.38-1.19,2.2-2.64,2.2A3.27,3.27,0,0,1,165.81,307.62Z" fill="#002a5e"/><path d="M172.15,304.68c0-2.59,1-4,2.55-4s2.57,1.39,2.57,4-1,4-2.57,4S172.15,307.27,172.15,304.68Zm3.93,0c0-2.22-.57-3-1.38-3s-1.37.77-1.37,3,.57,3,1.37,3S176.08,306.9,176.08,304.68Z" fill="#002a5e"/><path d="M181.7,299.87a16.64,16.64,0,0,1-1,2.23v7.29h-1v-5.72a8.73,8.73,0,0,1-.89,1.06,6,6,0,0,0-.56-1,11.53,11.53,0,0,0,2.55-4.14ZM188,308v1H181.3v-1H185a40.84,40.84,0,0,0,1-5.17l1.05.17c-.29,1.63-.7,3.63-1.09,5Zm-.39-5.62h-5.87v-1h5.87Zm-4.51,5.22a43.89,43.89,0,0,0-.68-4.5l.89-.21a41.54,41.54,0,0,1,.78,4.41Zm1.22-6.24a9.89,9.89,0,0,0-.49-1.7l1-.24a13.14,13.14,0,0,1,.53,1.66Z" fill="#002a5e"/><path d="M192.54,306.12a16.41,16.41,0,0,0-.84-1.42v4.7h-1V305a10.28,10.28,0,0,1-1.38,2.51,5.36,5.36,0,0,0-.48-.92,11,11,0,0,0,1.72-3.16H189v-.93h1.72V301.1l-1.36.21a3.21,3.21,0,0,0-.27-.77,17,17,0,0,0,3.42-.87l.57.81a9.54,9.54,0,0,1-1.39.41v1.65h1.5v.93h-1.5v.15c.32.34,1.24,1.44,1.44,1.71Zm5,.53v2.75h-1v-2.58l-3.39.57-.15-1,3.54-.59v-6.3h1v6.14l1.18-.19.15.93Zm-2.34-1.45a9,9,0,0,0-1.8-1.61l.64-.58a10.51,10.51,0,0,1,1.84,1.53Zm.27-2.83a8.77,8.77,0,0,0-1.67-1.56l.66-.57a9.18,9.18,0,0,1,1.71,1.49Z" fill="#002a5e"/><path d="M209.46,307.38h-4.18v1c0,.47-.11.71-.49.84a5.8,5.8,0,0,1-1.77.14,3.37,3.37,0,0,0-.32-.85c.59,0,1.21,0,1.37,0s.23,0,.23-.18v-1h-4.41v-.82h4.41v-.39a9.84,9.84,0,0,0,1.45-.73H201.9v-.73h4.87l.22,0,.57.51a10.88,10.88,0,0,1-2.28,1.31v.08h4.18Zm-8.41-2h-1v-2.05h.82l-.19-3.19a21.66,21.66,0,0,0,2.11-.55l.43.59a8.72,8.72,0,0,1-1.58.42l0,.43h1.47v.65h-1.44l0,.5h1.45v.63a5.43,5.43,0,0,0,.91-.51,7,7,0,0,0-.7-.38l.48-.42c.24.12.51.26.76.41a3.83,3.83,0,0,0,.48-.53l.68.21a5.17,5.17,0,0,1-.59.66,5.89,5.89,0,0,1,.71.55l-.51.46a5.65,5.65,0,0,0-.72-.57,9,9,0,0,1-1,.64h3.76c0-.17,0-.33,0-.5h-1.43v-.65h1.47l0-.5h-1.47v-.65h1.51l0-.48h-1.58v-.66h2.56c0,1.09-.15,2.47-.24,3.44h.82v2.05h-1v-1.3h-7.24Zm.81-2.05h1.84a3.45,3.45,0,0,0-.51-.5h-1.35Zm3.56-2a3.54,3.54,0,0,0-.67-.51,5.92,5.92,0,0,1-.92.59,7,7,0,0,0-.55-.46,4.53,4.53,0,0,0,.88-.5c-.22-.12-.45-.25-.68-.35l.49-.42c.22.11.48.24.72.38a3.3,3.3,0,0,0,.45-.48l.68.19a6.49,6.49,0,0,1-.56.63,4.79,4.79,0,0,1,.65.47Z" fill="#002a5e"/><path d="M219.27,304c-.46.38-1,.76-1.52,1.12a4.86,4.86,0,0,0,2.69,3,3.71,3.71,0,0,0-.66.81,5.65,5.65,0,0,1-2.81-3.31l-.44.26A3.14,3.14,0,0,1,216,309a1.47,1.47,0,0,1-1.16.43c-.25,0-.57,0-.89,0a2.63,2.63,0,0,0-.27-.94c.37,0,.72.06.95.06a.74.74,0,0,0,.65-.24,2,2,0,0,0,.38-1.53,15.58,15.58,0,0,1-4.48,2.2,3.53,3.53,0,0,0-.53-.83,12.76,12.76,0,0,0,4.83-2.29,3.33,3.33,0,0,0-.22-.6,17.55,17.55,0,0,1-3.93,1.81,5.13,5.13,0,0,0-.5-.78,13.36,13.36,0,0,0,4-1.69,6,6,0,0,0-.42-.52,14.52,14.52,0,0,1-3,1.21,5.27,5.27,0,0,0-.53-.8,12.13,12.13,0,0,0,3.65-1.37h-2.19v-.86h6.09v.86h-2.55a6.36,6.36,0,0,1-.7.52,4.5,4.5,0,0,1,1,1.51,18.78,18.78,0,0,0,2.19-1.72Zm-7.35-1.28h-1v-2.29h3.94c-.1-.25-.22-.48-.33-.7l1-.3a6.22,6.22,0,0,1,.5,1H220v2.29h-1v-1.38h-7.05Z" fill="#002a5e"/><path d="M169.69,258.3A22.48,22.48,0,0,0,190,280.65V278a19.85,19.85,0,0,1,0-39.48V236A22.47,22.47,0,0,0,169.69,258.3ZM194.28,236v2.6a19.87,19.87,0,0,1,0,39.5v2.6a22.45,22.45,0,0,0,0-44.7Z" fill="#002a5e" stroke="#002a5e" stroke-miterlimit="10" stroke-width="0.45"/><path d="M198.07,260.22h3.37a0,0,0,0,1,0,0v9.69a1.69,1.69,0,0,1-1.69,1.69h0a1.69,1.69,0,0,1-1.69-1.69v-9.69A0,0,0,0,1,198.07,260.22Z" transform="translate(-129.52 219.13) rotate(-45)" fill="#f8a908" stroke="#002a5e" stroke-miterlimit="10" stroke-width="0.45"/><path d="M190.82,251.77h4.38a0,0,0,0,1,0,0v12.6a2.19,2.19,0,0,1-2.19,2.19h0a2.19,2.19,0,0,1-2.19-2.19v-12.6a0,0,0,0,1,0,0Z" transform="translate(512.76 305.94) rotate(135)" fill="#fff" stroke="#002a5e" stroke-miterlimit="10" stroke-width="0.45"/><circle cx="189.86" cy="256.01" r="9.83" fill="#f8a908" stroke="#002a5e" stroke-miterlimit="10" stroke-width="0.45"/><circle cx="189.86" cy="256.01" r="7.39" fill="#fff" stroke="#002a5e" stroke-miterlimit="10" stroke-width="0.45"/><polyline points="186.83 259.59 187.61 256.87 190.47 257.58 192.09 251.96" fill="#fff" stroke="#002a5e" stroke-miterlimit="10" stroke-width="0.45"/><polygon points="192.17 251.45 190.68 252.88 192.67 253.46 192.17 251.45" fill="#002a5e" stroke="#002a5e" stroke-miterlimit="10" stroke-width="0.45"/><path d="M71.87,292.59c-.21-.36-.66-1-1.05-1.53v4.81h-1v-4.49a11.53,11.53,0,0,1-1.65,2.67,5.89,5.89,0,0,0-.51-1,10.48,10.48,0,0,0,2-3.15H68V289h1.82v-1.39c-.54.08-1.07.16-1.57.22a3.41,3.41,0,0,0-.28-.77,19.68,19.68,0,0,0,3.89-.93l.56.83a12.72,12.72,0,0,1-1.64.45V289H72.5v.94H70.82V290c.34.31,1.4,1.45,1.64,1.74Zm4.85,3c-.08-.33-.18-.72-.32-1.15-3.49.55-4,.65-4.31.82a8.49,8.49,0,0,0-.35-1c.29-.11.5-.63.8-1.47a43.3,43.3,0,0,0,1.63-6.53l1.06.2a47.38,47.38,0,0,1-2,7.46l2.85-.39c-.32-.94-.71-1.95-1.08-2.82l.93-.34a30.78,30.78,0,0,1,1.76,4.79Z" fill="#002a5e"/><path d="M86.19,292.35a7.28,7.28,0,0,0,2.41,1.1,3.8,3.8,0,0,0-.65.79,6.61,6.61,0,0,1-1.46-.67c-.12,1.23-.24,1.8-.48,2a.92.92,0,0,1-.69.27,8.62,8.62,0,0,1-1.26,0,1.88,1.88,0,0,0-.25-.78l1.1.05a.5.5,0,0,0,.36-.09,2.29,2.29,0,0,0,.27-1.1H83.33c-.45.95-1.35,1.57-3.2,1.95a2.39,2.39,0,0,0-.47-.74A3.93,3.93,0,0,0,82.3,294H80.36v-.37a12.69,12.69,0,0,1-1.27.56,2.66,2.66,0,0,0-.57-.71,7.85,7.85,0,0,0,2.21-1.08H78.79v-.79h2.79a4.21,4.21,0,0,0,.34-.52H80v-3h7.13v3H83a3.88,3.88,0,0,1-.3.52h5.61v.79Zm-4.94-4.91h-2.4v-.76h2.4V286h1v.68h1.17v.76H82.22v.45h-1Zm-.29,1.8h5.17v-.58H81Zm0,1.17h5.17v-.58H81Zm5,2.8a6.49,6.49,0,0,1-.94-.86H82a6.52,6.52,0,0,1-1,.86h1.67a3.56,3.56,0,0,0,.15-.68h.93a6.27,6.27,0,0,1-.14.68Zm-1.15-5.77H83.74v-.76H84.8V286h1v.68h2.47v.76H85.79v.45h-1Z" fill="#002a5e"/><path d="M93.14,294.7c0,.46-.08.75-.36.91a2.91,2.91,0,0,1-1.36.18,3.89,3.89,0,0,0-.25-.93h.9c.13,0,.17-.06.17-.2V292.1l-1.09.67-.31-.7a12,12,0,0,1-.72,3.82,2.85,2.85,0,0,0-.82-.45,14,14,0,0,0,.7-5.21v-3.84h3.14Zm-2.24-4.48c0,.48,0,1,0,1.59l1.38-.57V290l-.41.34a12.15,12.15,0,0,0-.93-1.11Zm0-2.92v1.51l.33-.24a12,12,0,0,1,1,1V287.3Zm8,3.59A6.79,6.79,0,0,1,97,294.05a7,7,0,0,0,2.23,1,3.38,3.38,0,0,0-.64.86,7.21,7.21,0,0,1-2.39-1.17,9,9,0,0,1-2.45,1.15,3.58,3.58,0,0,0-.54-.86,8.15,8.15,0,0,0,2.25-.95,7.79,7.79,0,0,1-1.53-2.33l.35-.1h-.67v-.94h4.45l.17,0Zm-3.35-3.31a3.06,3.06,0,0,1-1.64,2.88,3.34,3.34,0,0,0-.65-.7,2.25,2.25,0,0,0,1.38-2.19v-1.16H98v2.41c0,.3,0,.41.15.41h.51a2.05,2.05,0,0,0,.49-.06l.07.8a1.48,1.48,0,0,1-.53.07h-.63c-.83,0-1-.35-1-1.23v-1.47H95.53Zm-.65,4a5.6,5.6,0,0,0,1.33,1.84,5.75,5.75,0,0,0,1.38-1.84Z" fill="#002a5e"/><path d="M103.19,291.81c-.13-.28-.37-.76-.62-1.19v5.26h-.87v-5.05a12.26,12.26,0,0,1-1.19,2.92,5.49,5.49,0,0,0-.48-1,11.33,11.33,0,0,0,1.53-3.78H100.3V288h1.4v-2h.87v2h1.09V289h-1.09v.52c.25.32,1,1.37,1.16,1.63Zm4.18,3h2.54v.74H105.1v.37h-.89v-3.24c-.19.18-.37.38-.55.54a4.37,4.37,0,0,0-.51-.82,6,6,0,0,0,1.63-2h-.86v-2.11h2.55v2.11h-1.23l.41.14c-.11.21-.23.45-.36.66h1.19c-.06-.18-.12-.36-.19-.52l.87-.23c.08.23.19.51.28.75h2.26v.66h-2.33v.55h1.9V293h-1.9v.54h1.9v.68h-1.9Zm-2-7.23h-1.8v-.75h1.8V286h.87v2h-.87Zm-.68,2.13h1v-.82h-1Zm1.83,2.66v-.55h-1.4v.55Zm0,.67h-1.4v.54h1.4Zm-1.4,1.77h1.4v-.55h-1.4Zm4.43-4.45H107v-2.11h2.58Zm.45-3.53v.75h-1.92V288h-.87v-2h.87v.8Zm-1.22,2.06H107.7v.82h1.06Z" fill="#002a5e"/><path d="M112.58,292.56l-.06.42h4v2.81h-.88v-.36h-2.31v.38h-.85v-2.7a7,7,0,0,1-.82,2.36,4.3,4.3,0,0,0-.86-.42,8.44,8.44,0,0,0,.93-4.37v-1.35h4.53v3.23Zm2.25-6.17c0,.1-.12.18-.18.28.81.48,1.76,1.06,2.27,1.45l-.52.84c-.52-.42-1.48-1-2.31-1.58a9.32,9.32,0,0,1-.91.86h2.06v.62H113v-.47a10.15,10.15,0,0,1-1.64,1.09,6,6,0,0,0-.54-.94,7.5,7.5,0,0,0,3.09-2.49Zm.55,5.45v-.6h-2.7l0,.6Zm-2.69-1.79v.57h2.69v-.57Zm.66,3.64v1h2.31v-1Zm4.93-.62h-.93v-5.92h.93Zm2-7v8.57c0,.58-.13.87-.47,1a4.33,4.33,0,0,1-1.76.21,4.34,4.34,0,0,0-.33-1c.62,0,1.18,0,1.35,0s.25-.06.25-.25v-8.56Z" fill="#002a5e"/><path d="M125.12,291.58l-1,.3v2.82c0,.51-.11.77-.42.91a3.7,3.7,0,0,1-1.53.18,3.49,3.49,0,0,0-.29-.9h1c.15,0,.22,0,.22-.22v-2.52l-1.25.34-.27-1c.43-.09,1-.22,1.52-.37V289h-1.38v-.93h1.38V286h1v2.1h1.24V289h-1.24v1.87l.91-.25Zm5.7-.67a6.78,6.78,0,0,1-2,3.09,8.27,8.27,0,0,0,2.68,1,4.27,4.27,0,0,0-.64.93,8.63,8.63,0,0,1-2.89-1.26,10.27,10.27,0,0,1-3,1.26,2.61,2.61,0,0,0-.5-.91,8.82,8.82,0,0,0,2.72-1,8,8,0,0,1-1.64-2.3l.28-.09h-.54v-.94H130l.17,0Zm-3.63-3.34a3,3,0,0,1-1.67,2.9,3.83,3.83,0,0,0-.66-.73,2.21,2.21,0,0,0,1.4-2.2v-1.16h3.54v2.41c0,.3,0,.42.2.42h.71a2.1,2.1,0,0,0,.56-.07,7.05,7.05,0,0,0,.08.84,1.92,1.92,0,0,1-.63.07h-.8c-.89,0-1.07-.36-1.07-1.27V287.3h-1.66Zm-.68,4a5.8,5.8,0,0,0,1.5,1.82,5.87,5.87,0,0,0,1.49-1.82Z" fill="#002a5e"/><path d="M98.91,236v2.61a19.85,19.85,0,0,1,0,39.48v2.61a22.45,22.45,0,0,0,0-44.7ZM74.32,258.3a22.49,22.49,0,0,0,20.33,22.35v-2.6a19.87,19.87,0,0,1,0-39.5V236A22.48,22.48,0,0,0,74.32,258.3Z" fill="#002a5e" stroke="#002a5e" stroke-miterlimit="10" stroke-width="0.45"/><rect x="87.01" y="247.53" width="18.8" height="25.14" transform="translate(-42.06 19.74) rotate(-9.61)" fill="#f8a908" stroke="#002a5e" stroke-miterlimit="10" stroke-width="0.45"/><rect x="88.3" y="245.73" width="18.8" height="25.14" transform="translate(-41.74 19.93) rotate(-9.61)" fill="#f8a908" stroke="#002a5e" stroke-miterlimit="10" stroke-width="0.45"/><path d="M101.22,255l-1,.17a2.77,2.77,0,0,0-5.46.92l-1,.17a3.79,3.79,0,0,1,7.47-1.26Z" fill="#fff" stroke="#002a5e" stroke-miterlimit="10" stroke-width="0.45"/><rect x="93.73" y="255.37" width="8.84" height="8.31" transform="translate(-41.94 20.02) rotate(-9.61)" fill="#fff" stroke="#002a5e" stroke-miterlimit="10" stroke-width="0.45"/><circle cx="98.24" cy="259.78" r="0.83" fill="#002a5e"/><rect x="98.3" y="259.75" width="0.52" height="3.89" transform="translate(-42.29 20.12) rotate(-9.61)" fill="#002a5e"/><path d="M143.45,180.23H158.3a0,0,0,0,1,0,0V222.9a7.42,7.42,0,0,1-7.42,7.42h0a7.42,7.42,0,0,1-7.42-7.42V180.23a0,0,0,0,1,0,0Z" transform="translate(96.52 -43.61) rotate(24)" fill="#002a5e" stroke="#002a5e" stroke-miterlimit="10" stroke-width="0.45"/><path d="M158.29,134.4h19.29a0,0,0,0,1,0,0v55.44a9.65,9.65,0,0,1-9.65,9.65h0a9.65,9.65,0,0,1-9.65-9.65V134.4a0,0,0,0,1,0,0Z" transform="translate(253.47 387.75) rotate(-156)" fill="#fff" stroke="#002a5e" stroke-miterlimit="10" stroke-width="0.45"/><circle cx="174.81" cy="140.45" r="51.14" fill="#7d3787" stroke="#002a5e" stroke-miterlimit="10" stroke-width="0.45"/><circle cx="174.81" cy="140.45" r="33.61" fill="#fff" stroke="#002a5e" stroke-miterlimit="10" stroke-width="0.45"/><path d="M174.3,168.58a28.26,28.26,0,0,1-12.45-2.87" fill="#fff" stroke="#002a5e" stroke-miterlimit="10" stroke-width="0.45"/><path d="M199.41,126.89A28.43,28.43,0,0,1,179,168.2" fill="#fff" stroke="#002a5e" stroke-miterlimit="10" stroke-width="0.45"/><circle cx="110.72" cy="140.45" r="51.14" fill="#7d3787" stroke="#002a5e" stroke-miterlimit="10" stroke-width="0.45"/><polyline points="62.61 123.03 84.52 123.03 136.91 123.03 158.83 123.03" fill="none" stroke="#fff" stroke-miterlimit="10" stroke-width="0.45"/><polyline points="62.96 158.71 84.7 158.71 136.74 158.71 158.47 158.71" fill="none" stroke="#fff" stroke-miterlimit="10" stroke-width="0.45"/><polygon points="131.16 168.82 142.72 100.63 154.28 168.82 142.72 180.37 131.16 168.82" fill="#f8a908" stroke="#002a5e" stroke-miterlimit="10" stroke-width="0.45"/><ellipse cx="110.72" cy="140.45" rx="22.27" ry="51.14" fill="none" stroke="#fff" stroke-miterlimit="10" stroke-width="0.45"/><polygon points="147.71 106.89 137.73 106.89 136.38 93.75 149.06 93.75 147.71 106.89" fill="#f8a908" stroke="#002a5e" stroke-miterlimit="10" stroke-width="0.45"/><polyline points="132.6 83 143.06 93.75 133.27 104.51 121.33 93.75 131.72 83" fill="#fff" stroke="#002a5e" stroke-miterlimit="10" stroke-width="0.45"/><polyline points="152.84 83 142.38 93.75 152.17 104.51 164.12 93.75 153.73 83" fill="#fff" stroke="#002a5e" stroke-miterlimit="10" stroke-width="0.45"/><circle cx="143.06" cy="63.6" r="29.91" fill="#f8a908" stroke="#002a5e" stroke-miterlimit="10" stroke-width="0.45"/><path d="M7,244.93h3.81v.9H9.15a19.11,19.11,0,0,1-.63,2.37H10.6v4.73H8.49v.83H7.65v-3.63a5.69,5.69,0,0,1-.51.74,4.74,4.74,0,0,0-.39-1.13,9.71,9.71,0,0,0,1.45-3.91H7Zm2.79,4.16H8.49v3H9.74Zm7,.62H15.55v4.55h-1v-4.55H13.06a6.81,6.81,0,0,1-1.49,4.6,5.74,5.74,0,0,0-.77-.58,6.11,6.11,0,0,0,1.33-4H11v-1h1.12v-2.88h-.83v-.94h5.18v.94h-.94v2.88h1.16Zm-2.12-1v-2.88H13.07v2.88Z" fill="#002a5e"/><path d="M26.22,253.08c.28,0,.34-.21.38-1.57a2.63,2.63,0,0,0,.95.42c-.11,1.69-.38,2.12-1.22,2.12H25.2c-.94,0-1.22-.29-1.22-1.33v-1.8H22.33c-.22,1.27-1.1,2.61-4,3.39a5,5,0,0,0-.7-.86c2.46-.64,3.32-1.61,3.59-2.53H18.4V250h3v-1.25h1V250H25v2.72c0,.3,0,.36.33.36ZM19,247.43H18v-2h4c-.09-.28-.19-.59-.29-.85l1-.18a10,10,0,0,1,.4,1h4v1.94H26.1v-1H24.21v1.61c0,.27.05.38.31.38H26a4.58,4.58,0,0,0,.87-.07c0,.26.05.62.08.84a3.76,3.76,0,0,1-.91.07H24.46c-1,0-1.24-.35-1.24-1.23v-1.6H21.84c-.21,1.57-.84,2.46-3.19,2.93a2.75,2.75,0,0,0-.54-.8c2.06-.36,2.52-1,2.68-2.13H19Z" fill="#002a5e"/><path d="M30.51,250.14v3c0,.49-.1.76-.38.91a3.23,3.23,0,0,1-1.39.18,3.89,3.89,0,0,0-.26-.92,8.29,8.29,0,0,0,.94,0c.14,0,.2-.05.2-.19v-2.77l-1.16.36-.23-1c.39-.08.87-.22,1.39-.37v-2H28.4v-.93h1.22v-2.1h.89v2.1h.92v.93h-.92v1.76l.95-.29.14.9Zm2.12-.81a8.8,8.8,0,0,1-1.14,4.93,3.31,3.31,0,0,0-.73-.51,7.79,7.79,0,0,0,1-4.43v-3.08h2.37V244.4h1v.6h2.49v.72H35.09v.52h2.28l.14,0,.63.14a14.06,14.06,0,0,1-.53,1.59l-.75-.17a6.33,6.33,0,0,0,.24-.79H34.92v.5l1.6-.14.07.57-1.67.17v0c0,.24,0,.34.29.34h1.37a5,5,0,0,0,.81-.06c0,.22,0,.43.07.62a3.9,3.9,0,0,1-.83.05H35.05c-.72,0-.92-.25-.95-.78l-1.19.11-.09-.74,1.27-.11V247H32.63Zm5.49,1.49c-.34.19-.74.38-1.15.56a3.29,3.29,0,0,0,1.39,2,2.85,2.85,0,0,0-.57.63,4.11,4.11,0,0,1-1.42-2.33l-.45.18a2.14,2.14,0,0,1-.2,2.15,1,1,0,0,1-.81.32h-.55a1.51,1.51,0,0,0-.22-.72l.63,0a.43.43,0,0,0,.39-.15,1.25,1.25,0,0,0,.17-.94,10.24,10.24,0,0,1-2.58,1.45,4.73,4.73,0,0,0-.39-.56,8,8,0,0,0,2.83-1.49c0-.1-.1-.21-.15-.32a9.06,9.06,0,0,1-2.14,1.05,2.16,2.16,0,0,0-.36-.51,7.3,7.3,0,0,0,2.22-1l-.25-.26a8.18,8.18,0,0,1-1.48.57,3.86,3.86,0,0,0-.31-.51,9.17,9.17,0,0,0,2.16-.85h-2v-.68h5.21v.68H35.82a7,7,0,0,1-.72.49,2.7,2.7,0,0,1,.58.7,19,19,0,0,0,1.87-1Z" fill="#002a5e"/><path d="M39.05,253.83a6.07,6.07,0,0,0,.69-2l.67.25a6.41,6.41,0,0,1-.65,2Zm5-2.34H39.28v-.78h1.93V250H39.47v-.79h1.74v-.6h-1.7v-3.87h4.33v3.87H42.09v.6h1.78V250H42.09v.7H44Zm-3.75-3.57h1v-2.47h-1Zm.54-2.1a8,8,0,0,1,.34,1.56l-.48.15a7.17,7.17,0,0,0-.31-1.59Zm.55,6.22a9.45,9.45,0,0,1,.16,1.85l-.67.09a8.61,8.61,0,0,0-.13-1.86Zm1.06,0a8,8,0,0,1,.46,1.72l-.64.15a7.82,7.82,0,0,0-.43-1.75Zm.64-6.54H42v2.47h1.1Zm-1,2a14.08,14.08,0,0,0,.44-1.64L43,246c-.21.52-.41,1.18-.6,1.58Zm1.46,4.43a7,7,0,0,1,.73,1.68l-.66.25a6.31,6.31,0,0,0-.7-1.71Zm3.3-4.27v1.85H48.6v4.76h-1v-.41H45.26v.46h-.9v-4.81h1.48v-5.05h1v2.27H49v.93Zm.84,2.75H45.26v2.53h2.39Z" fill="#002a5e"/><path d="M9.31,264.28a14.15,14.15,0,0,0-.77-1.42v4.84H7.63v-4.6a11,11,0,0,1-1.17,2.79,6.51,6.51,0,0,0-.52-1.06A11.31,11.31,0,0,0,7.48,261H6.17V260H7.63v-2.19h.91V260H9.77V261H8.54v.67c.3.37,1.12,1.51,1.3,1.78Zm2.92,2.12a8.23,8.23,0,0,1-2.41,1.36,8.93,8.93,0,0,0-.59-.72,6.8,6.8,0,0,0,2.19-1.21ZM16,262H9.53v-.77H16Zm-5-2.49H9.66v-.76H11V258h.89v.78h1.66V258h.94v.78h1.3v.76h-1.3v1.34H11Zm-.91,6.25V262.5h5.36v3.29Zm.87-2h1.31v-.63H10.93Zm0,1.25h1.31v-.62H10.93Zm.93-5.54v.68h1.66v-.68Zm2.65,3.66H13.16v.63h1.35Zm0,1.26H13.16v.62h1.35ZM14,265.85a14.5,14.5,0,0,1,2.11,1.26l-.82.65a13.58,13.58,0,0,0-1.92-1.28Z" fill="#002a5e"/><path d="M25,260a5.74,5.74,0,0,0,1.83,1.81,4,4,0,0,0-.66.76A6.74,6.74,0,0,1,25,261.43v.65H22.17v-.54a8,8,0,0,1-1.21.95,4.25,4.25,0,0,0-.43-.85h-.92V263h1v.87h-1v1.7l1.3-.34.13.86-4,1.11-.23-.93.47-.11v-3.59h.79V266l.64-.17v-4.15H17.28v-3.36h3.25v3.28A6.07,6.07,0,0,0,22.28,260H21v-.87h1.87a6.81,6.81,0,0,0,.48-1.15l.87.22a7.45,7.45,0,0,1-.36.93H26.6V260Zm-5.34-.86H18.09v1.65h1.59Zm1.21,3.71h5.65v.83H23c-.08.31-.17.63-.27.93H26l0,.38c-.14,1.47-.28,2.14-.6,2.43a1.24,1.24,0,0,1-.94.31c-.36,0-1.07,0-1.78,0a1.83,1.83,0,0,0-.36-.86c.75.07,1.55.08,1.85.08a.86.86,0,0,0,.49-.09c.16-.15.28-.56.38-1.41H21.51a17.26,17.26,0,0,0,.56-1.75H20.89Zm4-1.57a6.53,6.53,0,0,1-.81-1.28h-.69a7.45,7.45,0,0,1-.95,1.28Z" fill="#002a5e"/><path d="M28.09,265.84h1.73v-5.29H28.4v-.79a4.67,4.67,0,0,0,1.72-.6h.94v6.68h1.55v1H28.09Z" fill="#002a5e"/><path d="M34.22,265.84H36v-5.29H34.53v-.79a4.73,4.73,0,0,0,1.73-.6h.93v6.68h1.55v1H34.22Z" fill="#002a5e"/><path d="M49.3,258.31v9.43h-1v-.47h-7v.47h-1v-9.43Zm-1,8.06v-7.16h-7v7.16Zm-.8-4.6a8.29,8.29,0,0,1-1.15,2.55c.18.47.42.76.7.81.13,0,.22-.4.29-1.07a3.39,3.39,0,0,0,.63.48c-.15,1.22-.6,1.64-1.22,1.4a1.67,1.67,0,0,1-1-.9,6.61,6.61,0,0,1-1.28,1.08,5.25,5.25,0,0,0-.56-.61,6.92,6.92,0,0,0,.83-.59l-3,.53-.11-.75,3.12-.47,0,.66a4.13,4.13,0,0,0,.64-.68,15.09,15.09,0,0,1-.52-3H41.77v-.74h3.08l-.06-1h.83c0,.34,0,.7.05,1h1.52a3.88,3.88,0,0,0-1.07-.74l.46-.46a4.18,4.18,0,0,1,1.1.71l-.47.49h.66v.74H45.73a19.81,19.81,0,0,0,.32,2.11,6.83,6.83,0,0,0,.66-1.71Zm-3,0v2.07H42.1v-2.07Zm-.7.57h-1v.93h1Z" fill="#002a5e"/><path d="M30,193.25v2.61a19.86,19.86,0,0,1,0,39.49V238a22.46,22.46,0,0,0,0-44.71ZM5.46,215.61A22.48,22.48,0,0,0,25.79,238v-2.61a19.86,19.86,0,0,1,0-39.49v-2.61A22.49,22.49,0,0,0,5.46,215.61Z" fill="#002a5e" stroke="#002a5e" stroke-miterlimit="10" stroke-width="0.45"/><polygon points="35.94 209.59 37.8 213.37 28.26 213.37 28.26 205.82 37.8 205.82 35.94 209.59" fill="#f8a908" stroke="#002a5e" stroke-miterlimit="10" stroke-width="0.45"/><rect x="26.43" y="205.43" width="1.83" height="14.65" rx="0.53" fill="#fff" stroke="#002a5e" stroke-miterlimit="10" stroke-width="0.45"/><path d="M35,224.87c0-3.06-3.39-5.55-7.56-5.55s-7.56,2.49-7.56,5.55Z" fill="#f8a908" stroke="#002a5e" stroke-miterlimit="10" stroke-width="0.45"/><path d="M227.39,244.49h2.05c2.43,0,3.82,1.35,3.82,3.93s-1.39,4-3.75,4h-2.12Zm2,6.9c1.7,0,2.62-1,2.62-3s-.92-2.91-2.62-2.91h-.72v5.88Z" fill="#002a5e"/><path d="M236.37,244.49h1.44l2.63,7.93h-1.33l-.66-2.26h-2.76l-.67,2.26h-1.27Zm-.39,4.69h2.17l-.32-1.07c-.26-.86-.5-1.74-.74-2.63H237c-.23.9-.48,1.77-.73,2.63Z" fill="#002a5e"/><path d="M240.94,248.48c0-2.58,1.59-4.13,3.69-4.13a3.14,3.14,0,0,1,2.35,1l-.67.79a2.19,2.19,0,0,0-1.64-.71c-1.48,0-2.45,1.14-2.45,3s.87,3,2.5,3a1.94,1.94,0,0,0,1.25-.39v-1.86H244.4v-1h2.7v3.43a3.55,3.55,0,0,1-2.51.92C242.48,252.55,240.94,251.07,240.94,248.48Z" fill="#002a5e"/><path d="M250.57,251.69a7.12,7.12,0,0,1-1.76,1.57,7.41,7.41,0,0,0-.63-.62,5.56,5.56,0,0,0,1.56-1.44Zm2.77-.51h-5v-.81h.7v-4.68h1.29c0-.19.07-.41.11-.63h-1.89v-.79h2c0-.31.07-.62.09-.88l1,.05-.14.83h1.71v.79h-1.86c-.05.22-.09.44-.13.63h1.66v4.68h.54Zm-3.52-4.88v.64h2.12v-.64Zm2.12,1.19h-2.12v.62h2.12Zm-2.12,1.17v.58h2.12v-.58Zm0,1.71h2.12v-.57h-2.12Zm3.1,2.13a5.35,5.35,0,0,0,1.58-1.23l.83.52a6.82,6.82,0,0,1-2,1.47c-.15-.17-.41-.41-.62-.6l-.26.22a7.56,7.56,0,0,0-1.17-1.16l.69-.49a8.47,8.47,0,0,1,1.19,1.09Zm2.08-6.86c.06-.29.12-.63.16-.92h-1.85v-.85h4.78v.85h-1.91c-.09.32-.18.64-.27.92h1.85v5.54h-4.15v-5.54Zm1.86.76h-2.38v.85h2.38Zm0,1.57h-2.38v.85h2.38Zm0,1.58h-2.38v.85h2.38Zm-.25,1.79a12.76,12.76,0,0,1,1.66,1.37l-.79.54a12.55,12.55,0,0,0-1.61-1.43Z" fill="#002a5e"/><path d="M268,251a4.24,4.24,0,0,1-1.47,1.18,16.09,16.09,0,0,0,2.27.34,3.09,3.09,0,0,0-.45.7,14.22,14.22,0,0,1-2.89-.6,15.79,15.79,0,0,1-3.35.64,2.28,2.28,0,0,0-.38-.68,16.84,16.84,0,0,0,2.68-.36,8.25,8.25,0,0,1-1-.53,9.11,9.11,0,0,1-.91.37,4.49,4.49,0,0,0-.53-.54,7,7,0,0,0,.8-.32,5,5,0,0,1-.52-.51l.69-.26a3.63,3.63,0,0,0,.5.45,4.14,4.14,0,0,0,.77-.52h-1.15V248.7a5.15,5.15,0,0,1-.58.57,5.36,5.36,0,0,0-.52-.46,9.22,9.22,0,0,1-.64.79v3.66h-.88v-2.8c-.28.22-.58.45-.86.64a4.16,4.16,0,0,0-.54-.64,7.41,7.41,0,0,0,2.29-2.27l.74.26a5.41,5.41,0,0,0,1.32-1.78h-3.5v-1.81h2.38v-.43h-2.88v-.7h9.27v.7h-3v.43h2.54v1.81h-4.64l.7.19c-.06.1-.1.22-.16.33h4.38v.67h-4.8a1.72,1.72,0,0,1-.22.33h4.47v2.2h-2.7a3.12,3.12,0,0,1-.36.37h2.4l.17,0Zm-6-4a8,8,0,0,1-2.27,2.06,6.88,6.88,0,0,0-.59-.62,6.46,6.46,0,0,0,2-1.71Zm-1.16-1h1.48v-.56h-1.48Zm2.38-1.19h1.58v-.43h-1.58Zm1.58,1.19v-.56h-1.58v.56Zm-.86,3h3.19v-.38h-3.19Zm0,.84h3.19v-.38h-3.19Zm.23,1.45a8.06,8.06,0,0,0,1.36.58,4.78,4.78,0,0,0,1.13-.58Zm1.56-5.86v.56h1.6v-.56Z" fill="#002a5e"/><path d="M275.8,248.69a10.57,10.57,0,0,0,4,3.18,5,5,0,0,0-.73.86,11.56,11.56,0,0,1-3.75-3.23v3.75h-1.06v-3.71a11.68,11.68,0,0,1-3.74,3.18,7.43,7.43,0,0,0-.73-.85,10.42,10.42,0,0,0,3.94-3.18h-3.63v-1h4.16v-1.63h-3.39v-1h3.39v-1.69h1.06v1.69h3.47v1h-3.47v1.63h4.22v1Z" fill="#002a5e"/><path d="M289.54,249.58a15.68,15.68,0,0,0-1.55-1.4,4.5,4.5,0,0,1-.84,1.1,5,5,0,0,0-.8-.5,9.54,9.54,0,0,0,4.17,3.14,3.82,3.82,0,0,0-.75.9,10.21,10.21,0,0,1-3.74-3v3.42H285v-3.38a10.72,10.72,0,0,1-3.71,2.94,4.71,4.71,0,0,0-.71-.85,10,10,0,0,0,4.42-3.62v-2.56h-4v-1h4v-1.42H286v1.42h4.14v1H286v2.5a3.76,3.76,0,0,0,.3.47A5.09,5.09,0,0,0,287.8,246l1,.17a7.76,7.76,0,0,1-.38,1.21,21.1,21.1,0,0,1,1.86,1.55Zm-5.81-3.44a7.9,7.9,0,0,1-.39,1.22,14,14,0,0,1,1.14,1.06l-.68.71a11.69,11.69,0,0,0-.88-.91,5.72,5.72,0,0,1-1.31,1.59,4.41,4.41,0,0,0-.77-.65,5.45,5.45,0,0,0,1.93-3.2Z" fill="#002a5e"/><path d="M232.33,263.31a9,9,0,0,0,4.4,2.15,5,5,0,0,0-.63.88,9.37,9.37,0,0,1-3.77-2v2.35h-1.06v-2.38a9.37,9.37,0,0,1-3.81,2.07,4.24,4.24,0,0,0-.62-.84,8.41,8.41,0,0,0,4.43-2.38v-.85h-2.39v2h-1v-2.83h3.44v-.7h-4.16v-.87h4.16v-.64h.87a6.24,6.24,0,0,0-.67-.51,4.66,4.66,0,0,0,1.34-2l.91.22c-.06.2-.15.38-.22.57h3.08v.79h-2.1a7.21,7.21,0,0,1,.93.83l-.68.59a9.24,9.24,0,0,0-1.09-1.05l.46-.37h-1a5.6,5.6,0,0,1-.77.93h0v.64h4v.87h-4v.7h3.41v1.89c0,.45-.09.66-.4.79a4.11,4.11,0,0,1-1.38.14,4.41,4.41,0,0,0-.35-.8c.4,0,.83,0,.94,0s.17,0,.17-.14v-1h-2.39Zm-3.72-5a8.1,8.1,0,0,1-1.09,1.39,7.1,7.1,0,0,0-.68-.66,6.44,6.44,0,0,0,1.57-2.31l.89.25a3.76,3.76,0,0,1-.25.54h2.57v.79h-1.8a9.94,9.94,0,0,1,.86.85l-.65.57a10.07,10.07,0,0,0-1-1.09l.4-.33Z" fill="#002a5e"/><path d="M247,258.22a8.14,8.14,0,0,1-1.75,2.74,7.67,7.67,0,0,0,2.44,1.38,3.62,3.62,0,0,0-.65.84l-.22-.1v3.58h-1v-.33H243.2v.34h-.94v-3.56l-.4.19a4.71,4.71,0,0,0-.31-.47v1.71H238.7v.93h-.76v-8h3.61v2.17a7.35,7.35,0,0,0,2-2.83l.93.27a7.41,7.41,0,0,1-.4.86h2.08l.17,0Zm-8.29.12v2.13h.7v-2.13Zm0,5.34h.7v-2.37h-.7Zm2.06-5.34H240v2.13h.72Zm0,5.34v-2.37H240v2.37Zm.79-1.28a8.69,8.69,0,0,0,2.36-1.45,10.25,10.25,0,0,1-1-1.31,8.22,8.22,0,0,1-.92.94c-.1-.12-.28-.29-.45-.46Zm4.67.39a8.34,8.34,0,0,1-1.65-1.18,10.69,10.69,0,0,1-1.69,1.18Zm-.38,2.66v-1.78H243.2v1.78Zm-2.26-6.67-.1.14a7.47,7.47,0,0,0,1.08,1.41,7,7,0,0,0,1.13-1.55Z" fill="#002a5e"/><path d="M253.55,266a5,5,0,0,0,1.3-1.17l.83.47a7.63,7.63,0,0,1-1.78,1.49,4.67,4.67,0,0,0-.64-.61l.11-.07h-2.63v.54H250v-3l-.25.32a2.09,2.09,0,0,0-.18-.25,11.36,11.36,0,0,1-.58,2.93,2.9,2.9,0,0,0-.76-.41,15.58,15.58,0,0,0,.61-5.14v-3.43h0a21.61,21.61,0,0,0,3.76-.62l.73.66a20.59,20.59,0,0,1-3.66.63v.43h3.69v2.32h-3.69c0,.52,0,1.13,0,1.77a6.81,6.81,0,0,0,.8-1.75l.71.19c-.08.24-.18.49-.26.73h.78a5.32,5.32,0,0,0-.3-.69l.67-.17a5.25,5.25,0,0,1,.42.86h1v.65h-1.12v.5h1v.59h-1v.5h1v.6h-1v.5h1.2Zm-3.89-6.42v.79h2.8v-.79Zm2,3.15h-.92v.5h.92Zm0,1.09h-.92v.5h.92Zm-.92,1.6h.92v-.5h-.92Zm4.47-6.34c0-.27.09-.58.12-.85h-1.67v-.85h4.39v.85h-1.72c-.07.29-.15.58-.22.85h1.62v5.53h-3.8V259Zm1.66.77h-2.11v.83h2.11Zm0,1.56h-2.11v.85h2.11Zm0,1.57h-2.11v.85h2.11Zm0,1.86a9.44,9.44,0,0,1,1.34,1.35l-.75.51a10.33,10.33,0,0,0-1.31-1.41Z" fill="#002a5e"/><path d="M260.6,261.12v5.6h-1v-9.45h3.95v3.85Zm0-3.05v.75h2v-.75Zm2,2.27v-.81h-2v.81Zm.25,4.87v.63h-.93V262H266v3.23Zm0-2.39v1.56h2.19v-1.56Zm5.6,2.63c0,.6-.14.91-.53,1.09a6.2,6.2,0,0,1-2,.17,3.31,3.31,0,0,0-.34-1c.68,0,1.38,0,1.59,0s.26-.08.26-.27v-4.31h-3v-3.86h4.06Zm-3.1-7.39v.76h2.08v-.76Zm2.08,2.29v-.82h-2.08v.82Z" fill="#002a5e"/><path d="M279.17,257.27v9.42h-1v-.51H271.3v.55h-.91v-9.46Zm-1,8.12v-7.34H271.3v7.34Zm-.3-1.65h-1.46v.86c0,.35-.09.47-.35.55a5.24,5.24,0,0,1-1.29.08,2,2,0,0,0-.21-.53h.86c.11,0,.15,0,.15-.14v-.83h-4v-.58h4v-.36h.84v.36h1.46Zm-1.19-1.94a7.41,7.41,0,0,1,1,.95l-.53.41a5.5,5.5,0,0,0-.42-.45c-1.83.05-3.67.1-5,.12l0-.57,2.54,0v-.44H272.1v-2.17h2.21v-.38h-2.57v-.59h2.57v-.44h.82v.44h2.62v.59h-2.62v.38h2.3v2.17Zm-3.2,3.26a5.31,5.31,0,0,0-.84-1l.63-.32a5.2,5.2,0,0,1,.89,1Zm-.63-4.57h1.42v-.4h-1.42Zm1.42.85v-.41h-1.42v.41Zm.82-1.25v.4h1.49v-.4Zm1.49,1.25v-.41h-1.49v.41Zm-.36.88-.19-.16.4-.26h-1.34v.44Z" fill="#002a5e"/><path d="M284.21,257.65c-.31.89-.68,2-1,2.85a3.27,3.27,0,0,1,.89,2.24,1.54,1.54,0,0,1-.44,1.29,1.66,1.66,0,0,1-.58.2,5.5,5.5,0,0,1-.71,0,2.35,2.35,0,0,0-.23-.86,3.47,3.47,0,0,0,.55,0,.57.57,0,0,0,.32-.09c.15-.11.2-.36.2-.68a3,3,0,0,0-.88-2c.28-.73.56-1.68.76-2.4h-1.15v8.52H281v-9.42h2.38l.14,0Zm6,2.91a15.13,15.13,0,0,1-1.35.91,8.33,8.33,0,0,0,1.75,3.11,4.44,4.44,0,0,0-.65.65,10.45,10.45,0,0,1-1.8-3.34l-.13.06c.54,1.75.3,3.59-.33,4.15a1.34,1.34,0,0,1-1.14.48c-.2,0-.55,0-.85,0a2.32,2.32,0,0,0-.24-.9,8.51,8.51,0,0,0,.92,0,.66.66,0,0,0,.6-.27,2.75,2.75,0,0,0,.39-1.84,12.06,12.06,0,0,1-2.9,1.72,3,3,0,0,0-.59-.73,8.46,8.46,0,0,0,3.37-2,4.62,4.62,0,0,0-.18-.71,14,14,0,0,1-2.26,1.43,3.66,3.66,0,0,0-.54-.72,9,9,0,0,0,2.49-1.43,4.22,4.22,0,0,0-.45-.73,11,11,0,0,1-1.89,1.14,3.46,3.46,0,0,0-.59-.72,8.24,8.24,0,0,0,2.42-1.43h-2.17v-.88h1.93a6.74,6.74,0,0,0-1.14-1.21l.74-.46a6,6,0,0,1,1.28,1.31l-.54.36,1.1,0a9.59,9.59,0,0,0,1.07-1.74l1,.29a14.09,14.09,0,0,1-1,1.45h1.84v.86h-2.91c-.15.17-.32.32-.49.48a5.41,5.41,0,0,1,.81,1.28,15.45,15.45,0,0,0,1.83-1.32Z" fill="#002a5e"/><path d="M235.16,215.61A22.48,22.48,0,0,0,255.49,238v-2.61a19.86,19.86,0,0,1,0-39.49v-2.61A22.49,22.49,0,0,0,235.16,215.61Zm24.58-22.36v2.61a19.86,19.86,0,0,1,0,39.49V238a22.46,22.46,0,0,0,0-44.71Z" fill="#002a5e" stroke="#002a5e" stroke-miterlimit="10" stroke-width="0.45"/><path d="M249.08,217.14l-1.32-.46,2.18-4.62s-1.58-3.24,2.11-6.31,8.25-2.8,10.37-1.56,4.62,3.37,4.29,7.09-2.66,6.7-2.71,8.22a32.69,32.69,0,0,0,.59,4.94H254l-.44-2.28-2.37.3a1.36,1.36,0,0,1-1.5-1.14Z" fill="#f8a908" stroke="#002a5e" stroke-miterlimit="10" stroke-width="0.45"/><path d="M258,214.76h.91a.75.75,0,0,1,.75.75v1.29a1.2,1.2,0,0,1-1.2,1.2h0a1.2,1.2,0,0,1-1.2-1.2V215.5a.75.75,0,0,1,.75-.75Z" fill="#fff" stroke="#002a5e" stroke-miterlimit="10" stroke-width="0.45"/><path d="M261.91,210.93a3.42,3.42,0,1,0-5.67,2.57,2.42,2.42,0,0,1,.82,1.85v.32h2.87v-.32a2.48,2.48,0,0,1,.82-1.86A3.41,3.41,0,0,0,261.91,210.93Z" fill="#fff" stroke="#002a5e" stroke-linecap="round" stroke-linejoin="round" stroke-width="0.45"/><path d="M257.59,208.69a2.36,2.36,0,0,1,1-.23,2.44,2.44,0,0,1,2.44,2.44,2.49,2.49,0,0,1-.37,1.29" fill="#fff" stroke="#002a5e" stroke-linecap="round" stroke-linejoin="round" stroke-width="0.45"/><rect x="27.09" y="62.3" width="75.57" height="38.71" rx="19.36" fill="#002a5e" stroke="#002a5e" stroke-miterlimit="10" stroke-width="0.45"/><path d="M47.61,78.52h4.08v.91H42.61v-.91h4V76.94h-2.9v-.87h2.9V74.61H44.15v-.87a14.75,14.75,0,0,1-1.4.86,3.74,3.74,0,0,0-.63-.82,12.82,12.82,0,0,0,3.8-2.71H44.21v-.94h3.43a10.43,10.43,0,0,0,4.5,3.52,4.72,4.72,0,0,0-.68.9,10.17,10.17,0,0,1-1.39-.78v.84H47.61v1.46h2.93v.87H47.61Zm-3.44-4.79H50a13.55,13.55,0,0,1-2.91-2.66A16,16,0,0,1,44.17,73.73Z" fill="#fff"/><path d="M63.49,73.53a25.8,25.8,0,0,1-1.82,2.22,6,6,0,0,0,2.1,2.41,2.2,2.2,0,0,0-.61.77,6.79,6.79,0,0,1-2.28-2.79v2.4c0,.53-.13.81-.45,1a3.82,3.82,0,0,1-1.67.21,4.6,4.6,0,0,0-.34-1c.58,0,1.09,0,1.25,0s.24-.06.24-.23v-2.2c-.83.83-1.68,1.64-2.39,2.28l-.61-.87.15-.12c-1.11.37-2.27.73-3.17,1l-.22-1c.38-.09.85-.23,1.36-.38V74.5H53.88v-.92H55V71.43H53.8v-.92h3.32v.92H56v2.15h1v.92H56V77l1.23-.38.13.8c.71-.57,1.69-1.4,2.6-2.19v-2.7H57.36v-.92h2.55V69.84h1v1.79H63.6v.92H60.88V73a13,13,0,0,0,.45,1.92,15.38,15.38,0,0,0,1.29-1.83Zm-5.24-.38a7.74,7.74,0,0,1,1.12,1.91l-.83.4a7.82,7.82,0,0,0-1.06-2Zm4.31-1.53a6.77,6.77,0,0,0-1.25-1.17l.56-.52A6.92,6.92,0,0,1,63.16,71Z" fill="#fff"/><path d="M75.18,78.58v.82H67.29v-.82h3.38V77.7H68.28v-.79h2.39v-.79h-2a6.06,6.06,0,0,1-1.06,1.37,5.62,5.62,0,0,0-.49-.88A5.73,5.73,0,0,1,66,79.81a3.74,3.74,0,0,0-.76-.63,5.54,5.54,0,0,0,1-3.57V73.52h1.37a4.38,4.38,0,0,0-.44-.43c.82-.14,1.76-.34,2.64-.56-.78-.21-1.55-.41-2.26-.56l.55-.42H66.26v-.78h3.83a5.41,5.41,0,0,0-.49-.7l.7-.33a5.86,5.86,0,0,1,.75,1H74.7v.78H73.09l.48.3a16.23,16.23,0,0,1-1.52.64c.72.2,1.39.42,1.91.6l-.49.43H75v.82H67.14v1.28c0,.31,0,.64,0,1a5.59,5.59,0,0,0,1.37-2.13l.86.25c-.08.2-.16.39-.26.6h1.6v-.8h1v.8h2.79v.79H71.66v.79h2.51v.79H71.66v.88ZM73,73.52c-.57-.2-1.31-.43-2.08-.67-.88.27-1.79.49-2.62.67Zm-4.48-2c.79.19,1.64.4,2.45.63a11,11,0,0,0,1.66-.63Z" fill="#fff"/><path d="M80.91,78A9.21,9.21,0,0,1,77.7,79.4a4.63,4.63,0,0,0-.6-.74,9,9,0,0,0,3.08-1Zm5.62-1.64v.84H82.3v2.5h-1v-2.5H77.14v-.84h4.18v-.64H78.14V75h3.18v-.64h-3.7v-.79h2.16a6.16,6.16,0,0,0-.47-.92l.62-.15H77.19v-.8h1.6A8,8,0,0,0,78,70.22l.88-.3a8,8,0,0,1,.86,1.54l-.57.21h1.2V69.82h.94v1.85h1.06V69.82h.95v1.85h1.17l-.42-.14a9.24,9.24,0,0,0,.75-1.59l1,.27a16.39,16.39,0,0,1-.9,1.46H86.5v.8H83.68l.84.21a9.58,9.58,0,0,1-.7.86H86.1v.79H82.3V75h3.3v.76H82.3v.64Zm-6.25-3.9a4.44,4.44,0,0,1,.51.94l-.48.13h2.93l-.38-.12a8,8,0,0,0,.6-1Zm3.25,5.13c1,.34,2.26.86,3,1.2l-.66.58c-.67-.33-2-.9-3-1.28Z" fill="#fff"/><path d="M42.3,83.83h3.8v.91H44.49a19.42,19.42,0,0,1-.62,2.36h2.07v4.74H43.83v.83H43V89a6,6,0,0,1-.5.74,4.79,4.79,0,0,0-.4-1.13,9.72,9.72,0,0,0,1.45-3.9H42.3ZM45.08,88H43.83v3h1.25Zm7,.61H50.89v4.55h-1V88.61H48.41a6.87,6.87,0,0,1-1.5,4.6,5.63,5.63,0,0,0-.76-.58,6,6,0,0,0,1.32-4H46.36v-1h1.12V84.78h-.83v-.94h5.19v.94h-1v2.88h1.16Zm-2.12-1V84.78H48.42v2.88Z" fill="#fff"/><path d="M62.37,92c.28,0,.34-.21.38-1.56a3.13,3.13,0,0,0,1,.42c-.11,1.69-.38,2.12-1.22,2.12H61.35c-.93,0-1.21-.29-1.21-1.34V89.83H58.48c-.22,1.26-1.1,2.6-4,3.38a5.39,5.39,0,0,0-.7-.86c2.46-.64,3.32-1.61,3.59-2.52H54.55V88.9h3V87.65h1V88.9h2.63v2.72c0,.3,0,.36.33.36Zm-7.2-5.65h-1v-2h4c-.09-.28-.19-.6-.29-.85l1-.19a10.12,10.12,0,0,1,.4,1h4v1.93H62.26v-1h-1.9V86.8c0,.27.06.38.31.38h1.49a4.58,4.58,0,0,0,.87-.07c0,.26,0,.62.09.84a3.89,3.89,0,0,1-.92.07H60.61c-1,0-1.24-.35-1.24-1.23v-1.6H58c-.22,1.57-.84,2.46-3.2,2.94a2.5,2.5,0,0,0-.54-.81c2.06-.36,2.52-1,2.68-2.13H55.17Z" fill="#fff"/><path d="M75.1,90.83H72.62v1.32c0,.47-.1.73-.48.87a6.23,6.23,0,0,1-1.77.13,3.18,3.18,0,0,0-.31-.86c.59,0,1.2,0,1.37,0s.21,0,.21-.18V90.83H68.07A7.76,7.76,0,0,1,69.53,92l-.73.64a8.59,8.59,0,0,0-1.69-1.39l.49-.42H65.41V90h6.23v-.55c-2.15,0-4.24.1-5.76.12l0-.75,3.91,0v-.5H66.54v-3h3.21v-.51h-4v-.77h4V83.3h1v.75h4v.77h-4v.51H74v3H73a8.89,8.89,0,0,1,1.67,1l-.59.53-.56-.39-.94,0V90H75.1Zm-7.61-4.32h2.26V86H67.49Zm2.26,1.17v-.56H67.49v.56Zm1-1.71v.54h2.33V86Zm2.33,1.15H70.73v.56h2.33Zm-2.33,1.69,1.73,0c-.22-.1-.44-.2-.66-.28l.25-.2H70.73Z" fill="#fff"/><path d="M85.65,87.77c-.46.38-1,.75-1.51,1.12a4.87,4.87,0,0,0,2.68,3,3.45,3.45,0,0,0-.65.81,5.7,5.7,0,0,1-2.82-3.31l-.43.25c.34,1.34.09,2.62-.5,3.07a1.45,1.45,0,0,1-1.16.43c-.24,0-.57,0-.89,0a2.44,2.44,0,0,0-.27-.94c.38,0,.72.06,1,.06A.75.75,0,0,0,81.7,92a2,2,0,0,0,.38-1.53,15.65,15.65,0,0,1-4.47,2.2,3.65,3.65,0,0,0-.53-.83,12.83,12.83,0,0,0,4.83-2.29,5.05,5.05,0,0,0-.23-.61,18,18,0,0,1-3.92,1.82,5.21,5.21,0,0,0-.51-.78,13.51,13.51,0,0,0,4-1.69,3.73,3.73,0,0,0-.41-.52,14.6,14.6,0,0,1-3,1.21,4.26,4.26,0,0,0-.53-.8A11.88,11.88,0,0,0,81,86.81H78.77V86h6.09v.86H82.31a7.15,7.15,0,0,1-.7.53,4.61,4.61,0,0,1,1,1.51,18,18,0,0,0,2.19-1.73ZM78.3,86.49h-1V84.2h3.93a5,5,0,0,0-.33-.7l1-.3a6.29,6.29,0,0,1,.51,1h3.88v2.29h-1V85.1h-7Z" fill="#fff"/><rect x="184.81" y="62.3" width="75.57" height="38.71" rx="19.36" fill="#002a5e" stroke="#002a5e" stroke-miterlimit="10" stroke-width="0.45"/><path d="M202.15,78.14a7.47,7.47,0,0,1-1.75,1.57,7.49,7.49,0,0,0-.63-.63,5.55,5.55,0,0,0,1.56-1.44Zm2.78-.52h-5v-.81h.69V72.13h1.3c0-.19.07-.4.1-.63H200.1v-.79h2c0-.31.06-.62.09-.88l1,.06-.14.82h1.72v.79h-1.87q-.06.34-.12.63h1.66v4.68h.54Zm-3.52-4.87v.63h2.12v-.63Zm2.12,1.18h-2.12v.62h2.12Zm-2.12,1.17v.58h2.12V75.1Zm0,1.71h2.12v-.57h-2.12Zm3.1,2.13a5.47,5.47,0,0,0,1.58-1.22l.83.51a7,7,0,0,1-2,1.48c-.15-.17-.41-.42-.62-.61l-.26.22a8.14,8.14,0,0,0-1.18-1.16l.69-.49a8.63,8.63,0,0,1,1.2,1.09Zm2.08-6.86c.06-.29.12-.62.16-.91H204.9v-.85h4.77v.85h-1.9c-.1.31-.18.63-.27.91h1.85v5.54H205.2V72.08Zm1.86.76h-2.38v.85h2.38Zm0,1.58h-2.38v.84h2.38Zm0,1.58h-2.38v.85h2.38Zm-.25,1.78a12.76,12.76,0,0,1,1.66,1.37l-.79.55a11.83,11.83,0,0,0-1.61-1.43Z" fill="#fff"/><path d="M220.36,77.47a4.11,4.11,0,0,1-1.46,1.18,17.4,17.4,0,0,0,2.27.35,2.46,2.46,0,0,0-.45.7,14.87,14.87,0,0,1-2.9-.61,15.7,15.7,0,0,1-3.34.64,2.83,2.83,0,0,0-.38-.68,17,17,0,0,0,2.68-.35,8.29,8.29,0,0,1-1-.54,9.17,9.17,0,0,1-.91.38,3.86,3.86,0,0,0-.53-.54,8.14,8.14,0,0,0,.79-.33,4.91,4.91,0,0,1-.51-.51l.69-.26a4.22,4.22,0,0,0,.49.45,4.6,4.6,0,0,0,.78-.52h-1.16V75.15a6.21,6.21,0,0,1-.58.57,4.09,4.09,0,0,0-.51-.47,9.37,9.37,0,0,1-.65.79v3.67h-.88V76.9c-.28.22-.57.45-.85.64a4.87,4.87,0,0,0-.55-.64,7.3,7.3,0,0,0,2.29-2.27l.75.26a5.44,5.44,0,0,0,1.32-1.78h-3.51v-1.8h2.39v-.43h-2.88v-.7h9.27v.7h-3v.43h2.54v1.8H216l.7.2c0,.09-.1.21-.15.32h4.38v.68h-4.8a1.72,1.72,0,0,1-.23.32h4.48v2.2h-2.7a4.31,4.31,0,0,1-.37.37h2.4l.18,0Zm-6-4a8,8,0,0,1-2.27,2.05,6.88,6.88,0,0,0-.59-.62,6.46,6.46,0,0,0,2-1.71Zm-1.16-1h1.48v-.56h-1.48Zm2.37-1.18h1.58v-.43h-1.58Zm1.58,1.18v-.56h-1.58v.56Zm-.86,3h3.2v-.38h-3.2Zm0,.84h3.2V76h-3.2Zm.24,1.45a7.73,7.73,0,0,0,1.36.58,5,5,0,0,0,1.13-.58Zm1.56-5.86v.56h1.59v-.56Z" fill="#fff"/><path d="M229,75.14a10.55,10.55,0,0,0,4,3.17,5.53,5.53,0,0,0-.73.86,11.54,11.54,0,0,1-3.75-3.23V79.7h-1.06V76a11.78,11.78,0,0,1-3.74,3.17,6.55,6.55,0,0,0-.73-.85,10.5,10.5,0,0,0,3.95-3.17h-3.64v-1h4.16V72.51H224v-1h3.39V69.83h1.06v1.69H232v1h-3.47v1.64h4.23v1Z" fill="#fff"/><path d="M243.55,76a15.68,15.68,0,0,0-1.55-1.4,4.56,4.56,0,0,1-.84,1.11,5.51,5.51,0,0,0-.8-.51,9.47,9.47,0,0,0,4.17,3.14,4.09,4.09,0,0,0-.75.91,10.31,10.31,0,0,1-3.74-3V79.7H239V76.31a10.75,10.75,0,0,1-3.71,3,4.11,4.11,0,0,0-.71-.85A9.93,9.93,0,0,0,239,74.78V72.22h-4v-1h4V69.83H240v1.42h4.14v1H240v2.51a4.53,4.53,0,0,0,.3.46,5.09,5.09,0,0,0,1.47-2.79l1,.18a8,8,0,0,1-.38,1.2,23,23,0,0,1,1.86,1.55Zm-5.81-3.43a7.78,7.78,0,0,1-.39,1.21c.43.37.88.79,1.14,1.07l-.68.71a11.59,11.59,0,0,0-.88-.92,5.58,5.58,0,0,1-1.31,1.59,5.4,5.4,0,0,0-.77-.65,5.45,5.45,0,0,0,1.93-3.2Z" fill="#fff"/><path d="M205.13,92.4a5.07,5.07,0,0,0,1.31-1.18l.82.48a7.34,7.34,0,0,1-1.77,1.48,4.25,4.25,0,0,0-.65-.61l.12-.07h-2.63V93h-.76v-3l-.25.33a2.08,2.08,0,0,0-.18-.26,11.71,11.71,0,0,1-.58,2.93,3,3,0,0,0-.76-.4,15.67,15.67,0,0,0,.61-5.15V84.1h0a21.61,21.61,0,0,0,3.76-.62l.73.67a20.63,20.63,0,0,1-3.66.62v.43h3.69v2.32h-3.69c0,.52,0,1.13,0,1.77a6.54,6.54,0,0,0,.79-1.74l.71.18c-.07.25-.17.49-.25.73h.78c-.09-.23-.19-.47-.3-.69l.67-.17a5.25,5.25,0,0,1,.42.86h1v.66h-1.12v.49h1v.59h-1v.5h1v.6h-1v.51h1.19ZM201.25,86v.79h2.8V86Zm2,3.16h-.92v.49h.92Zm0,1.08h-.92v.5h.92Zm-.92,1.61h.92v-.51h-.92Zm4.47-6.35c0-.27.09-.58.12-.85h-1.67v-.85h4.39v.85h-1.72c-.07.29-.15.58-.23.85h1.63V91h-3.8V85.47Zm1.66.77h-2.11v.83h2.11Zm0,1.56h-2.11v.85h2.11Zm0,1.57h-2.11v.85h2.11Zm0,1.86a9.44,9.44,0,0,1,1.34,1.35l-.75.52a9.78,9.78,0,0,0-1.31-1.41Z" fill="#fff"/><path d="M213,87.57v5.59h-1V83.72h4v3.85Zm0-3.06v.75h2v-.75Zm2,2.27V86h-2v.81Zm.24,4.87v.63h-.92V88.43h4v3.22Zm0-2.38v1.56h2.2V89.27Zm5.61,2.62c0,.6-.14.92-.53,1.09a6.23,6.23,0,0,1-2,.17,3.17,3.17,0,0,0-.35-1c.68,0,1.38,0,1.6,0s.26-.08.26-.27v-4.3h-3V83.72h4.06Zm-3.1-7.39v.76h2.08V84.5Zm2.08,2.29V86h-2.08v.82Z" fill="#fff"/><path d="M232.37,83.72v9.41h-1v-.51h-6.9v.55h-.92V83.72Zm-1,8.12V84.49h-6.9v7.35Zm-.3-1.66h-1.46V91c0,.36-.09.47-.34.55a4.76,4.76,0,0,1-1.3.09,1.69,1.69,0,0,0-.21-.54h.86c.12,0,.15,0,.15-.14v-.83h-4V89.6h4v-.35h.84v.35h1.46Zm-1.19-1.94a6.9,6.9,0,0,1,1,1l-.53.41a4.17,4.17,0,0,0-.42-.45c-1.83,0-3.67.11-5,.13l0-.57,2.54,0v-.45H225.3V86.07h2.21v-.38H225V85.1h2.56v-.44h.83v.44H231v.59h-2.61v.38h2.29v2.17Zm-3.2,3.26a5,5,0,0,0-.84-1l.63-.32a5.2,5.2,0,0,1,.89,1Zm-.63-4.57h1.42v-.4h-1.42Zm1.42.85v-.41h-1.42v.41Zm.83-1.25v.4h1.48v-.4Zm1.48,1.25v-.41h-1.48v.41Zm-.35.88-.2-.16.4-.26h-1.33v.45Z" fill="#fff"/><path d="M238.22,84.09c-.3.89-.68,2-1,2.85a3.32,3.32,0,0,1,.88,2.24,1.53,1.53,0,0,1-.44,1.29,1.66,1.66,0,0,1-.58.21,5.5,5.5,0,0,1-.71,0,2.08,2.08,0,0,0-.23-.86,3.48,3.48,0,0,0,.55,0,.58.58,0,0,0,.32-.1.84.84,0,0,0,.21-.68,3,3,0,0,0-.89-2c.28-.73.56-1.68.76-2.4h-1.15v8.52H235V83.75h2.38l.14,0Zm6,2.92c-.41.3-.88.62-1.35.9A8.33,8.33,0,0,0,244.65,91a4.07,4.07,0,0,0-.65.66,10.62,10.62,0,0,1-1.8-3.35l-.13.06c.54,1.75.3,3.59-.32,4.16a1.4,1.4,0,0,1-1.15.47c-.2,0-.55,0-.84,0a2.43,2.43,0,0,0-.25-.89c.35,0,.7,0,.92,0a.67.67,0,0,0,.61-.27,2.82,2.82,0,0,0,.38-1.84,11.74,11.74,0,0,1-2.9,1.72,3.15,3.15,0,0,0-.59-.73,8.34,8.34,0,0,0,3.37-2,4.93,4.93,0,0,0-.18-.71,14,14,0,0,1-2.26,1.43,4,4,0,0,0-.54-.72,9,9,0,0,0,2.49-1.43,4.63,4.63,0,0,0-.45-.73,11,11,0,0,1-1.88,1.14,3.88,3.88,0,0,0-.6-.72,7.91,7.91,0,0,0,2.42-1.43h-2.17V85h1.93a6.78,6.78,0,0,0-1.14-1.22l.74-.46a6.27,6.27,0,0,1,1.28,1.31l-.54.37h1.1a9,9,0,0,0,1.07-1.73l1,.29a15.09,15.09,0,0,1-1,1.44h1.84v.86h-2.91a5.58,5.58,0,0,1-.49.48,5.11,5.11,0,0,1,.81,1.28,14.39,14.39,0,0,0,1.83-1.32Z" fill="#fff"/><path d="M109.5,19.91l3.68-2.67.59.82L105.58,24l-.59-.81,3.56-2.59-1-1.43-2.62,1.9-.57-.79,2.61-1.89-1-1.32-2.18,1.58-.57-.79a13.21,13.21,0,0,1-.7,1.69,4.27,4.27,0,0,0-1.1-.33,14.3,14.3,0,0,0,1.66-4.93l-1.55,1.12-.61-.84,3.1-2.25a11.59,11.59,0,0,0,6.36.23,5.29,5.29,0,0,0,0,1.26,12.44,12.44,0,0,1-1.77.2l.55.76-2.22,1.61,1,1.32,2.64-1.92.57.79-2.64,1.91Zm-6.25-2.07L108.53,14a14.85,14.85,0,0,1-4.37-.49A17.11,17.11,0,0,1,103.25,17.84Z" fill="#002a5e"/><path d="M122.63,6.82a29.21,29.21,0,0,1-.89,3.08A6.82,6.82,0,0,0,125,11.44a2.43,2.43,0,0,0-.29,1.06,7.71,7.71,0,0,1-3.57-1.86l1.06,2.46c.24.55.23.89,0,1.2a4.54,4.54,0,0,1-1.62.95,5,5,0,0,0-.77-.83c.6-.23,1.13-.47,1.29-.54s.22-.18.14-.35l-1-2.25c-.48,1.21-1,2.42-1.44,3.39l-1-.62.1-.19c-1,.87-2,1.75-2.8,2.44l-.64-.89c.34-.26.76-.62,1.21-1l-1.23-2.87-1.18.51-.41-.94,1.18-.51-1-2.19L111.78,9l-.41-1,3.4-1.47.41,1L114,8l.94,2.19,1-.45.41.95-1,.45,1.12,2.57,1.09-.93.48.76c.47-.89,1.11-2.17,1.7-3.38L118.53,7.4l-2.61,1.13-.41-.95,2.61-1.12-.79-1.83,1-.43L119.11,6l2.79-1.2.4.94L119.52,7l.19.45A15.49,15.49,0,0,0,121,9.19a18.78,18.78,0,0,0,.52-2.44Zm-5.54,1.92a9.09,9.09,0,0,1,2,1.47l-.67.77a8.74,8.74,0,0,0-2-1.54Zm3.73-3.46A7.45,7.45,0,0,0,119,4.63l.34-.78a8.43,8.43,0,0,1,1.81.55Z" fill="#002a5e"/><path d="M130.55,10.64c.1.51.07.84-.2,1.08a3.2,3.2,0,0,1-1.45.49,4.44,4.44,0,0,0-.48-1l1-.17c.14,0,.18-.1.15-.25L129,8,128,9l-.49-.7a13.11,13.11,0,0,1,0,4.33,3.48,3.48,0,0,0-1-.32,15.75,15.75,0,0,0-.32-5.85l-.81-4.21,3.44-.66Zm-4-7.63.32,1.65.31-.33a10.55,10.55,0,0,1,1.32.9L128,2.73Zm.61,3.2c.1.53.21,1.13.3,1.75l1.39-.91-.26-1.35-.37.47a11.72,11.72,0,0,0-1.26-1Zm4.53-3.86a3.38,3.38,0,0,1-1.2,3.49,3.67,3.67,0,0,0-.85-.63,2.52,2.52,0,0,0,1.05-2.68l-.25-1.28,3.73-.71.51,2.64c.06.33.09.45.25.42l.56-.11a2.43,2.43,0,0,0,.52-.17l.25.87a1.8,1.8,0,0,1-.58.18L135,4.5c-.91.17-1.18-.16-1.36-1.13l-.31-1.62-1.69.33ZM136,5.27a7.44,7.44,0,0,1-1.4,3.86,8,8,0,0,0,2.65.58,3.6,3.6,0,0,0-.52,1.08A7.77,7.77,0,0,1,133.9,10a9.7,9.7,0,0,1-2.44,1.78,4.08,4.08,0,0,0-.77-.83A9,9,0,0,0,133,9.44a8.83,8.83,0,0,1-2.16-2.23l.37-.19-.74.14-.2-1,4.88-.93.18-.07Zm-4.23,1.62a6.11,6.11,0,0,0,1.84,1.74,6.27,6.27,0,0,0,1.13-2.3Z" fill="#002a5e"/><path d="M142.5,8.26a9.66,9.66,0,0,1-2.82,2.1,10.09,10.09,0,0,0-.82-.76,7.49,7.49,0,0,0,2.62-1.73ZM149.7,7l0,.9-4.81-.14-.09,3-1.1,0,.08-3L139,7.6l0-.9Zm-7.08-6L139.35.9l0-.9,10.29.29,0,.9-3.33-.09,0,.79L149,2l-.08,2.82-9-.25L140,1.71l2.58.07Zm-2.14,5.08,0-.88,7.8.22,0,.88ZM141,3.72l1.53,0,0-1.15-1.54,0Zm2.56.07,1.61,0,0-1.15-1.6,0Zm1.69-2.72L143.65,1l0,.79,1.61.05Zm1.51,7a18.42,18.42,0,0,1,2.76,1.9l-.89.62a17.87,17.87,0,0,0-2.7-2Zm-.5-5.35,0,1.16,1.62,0,0-1.15Z" fill="#002a5e"/><path d="M155.9,7.33c-.4,0-.81,0-1.21,0l-.77,3.05c-.14.56-.32.81-.7.87a4,4,0,0,1-1.7-.21,4.27,4.27,0,0,0-.07-1.06l1.14.3c.16,0,.25,0,.29-.18l.69-2.73-1.45,0,0-1.11c.5,0,1.09,0,1.75,0L154.42,4l-1.49-.37.25-1,1.49.37.57-2.27,1,.27-.57,2.26,1.35.34-.26,1-1.35-.33-.5,2,1,0Zm6.36.83a7.51,7.51,0,0,1-3,2.8,9.24,9.24,0,0,0,2.63,1.79,4.3,4.3,0,0,0-.93.83,9.42,9.42,0,0,1-2.79-2.15,11.5,11.5,0,0,1-3.64.53,3.09,3.09,0,0,0-.29-1.12,9.73,9.73,0,0,0,3.22-.33,8.94,8.94,0,0,1-1.16-2.93l.33,0-.58-.15.25-1,5.12,1.29h.2Zm-3-4.6a3.39,3.39,0,0,1-2.6,2.68,4.53,4.53,0,0,0-.52-1,2.44,2.44,0,0,0,2.11-2L158.55,2l3.83,1-.65,2.61c-.09.32-.1.46.1.51l.77.19a2.64,2.64,0,0,0,.62.08c-.05.28-.12.68-.14.93a2,2,0,0,1-.69-.1L161.51,7c-.95-.24-1.06-.67-.81-1.66l.4-1.6-1.79-.45ZM157.4,7.74a6.29,6.29,0,0,0,1.13,2.38,6.4,6.4,0,0,0,2.1-1.57Z" fill="#002a5e"/><path d="M170.29,15.74a31,31,0,0,1,2.43,2.69l-1.17.1a22.74,22.74,0,0,0-2.27-2.66l.87-.2L167,14.06l.68.86a16.82,16.82,0,0,1-3.95-.31,9.85,9.85,0,0,0-.36-1.13,12.69,12.69,0,0,0,3.58.56l-1.72-.87,2.17-4.3,7,3.51-2.17,4.31Zm3.35-6.45a1.1,1.1,0,0,1-.15.25,5.58,5.58,0,0,0,2.62,2.62,3.33,3.33,0,0,0-1,.55,5.89,5.89,0,0,1-2.27-2.63c-.64.3-1.72.34-3.69-.33a3.13,3.13,0,0,0-.13-1l-2.72-1.37.39-.78,3.11,1.56-.36.71c2.48.87,3,.4,3.26-.06l.07-.14-.89-.45a5.64,5.64,0,0,1-1.28.6,4.92,4.92,0,0,0-.5-.88,4.91,4.91,0,0,0,2.22-1.35l.8.64c-.16.15-.31.29-.48.43L176,9.35l.16,0,.57.57A11.15,11.15,0,0,1,175,11.06l-.64-.67c.23-.13.53-.32.82-.52l-1.49-.75ZM166.46,13l5,2.52.31-.62-5-2.53Zm.62-1.24,5,2.53.3-.6-5-2.53Zm3-4.64-2.62-1.33.37-.74,2.63,1.32Zm-2.35,3.44,5,2.53.31-.61L168,10Z" fill="#002a5e"/><path d="M184.08,23.48a18.15,18.15,0,0,1-2.76-.38A7.73,7.73,0,0,0,183,26a4.13,4.13,0,0,0-1.18.34,7.35,7.35,0,0,1-1.56-6.77l-1.4-1.15L177,20.66,179.71,22a7.27,7.27,0,0,0-.68.69A37.59,37.59,0,0,0,175.25,21h-.11a4.38,4.38,0,0,0,.35-1.18.92.92,0,0,0,1-.3L178,17.71l-1.44-1.17.62-.77,1.6,1.31L182.09,13l5.75,4.69-.59.71-4.87-4-.55.66,4.61,3.76-.57.69-4.6-3.76-.53.65,4.6,3.76-.55.68-4.61-3.76-.54.67,5.8,4.74-.62.76-1-.85Zm-2.93-3.19a6.24,6.24,0,0,0-.05,1.88,19.07,19.07,0,0,0,2.66.26Z" fill="#002a5e"/><path d="M107.67,30.56l1.17-1.1L117,33.88l-1.08,1-2.27-1.33-2.23,2.11L112.63,38l-1,1Zm3.27,4.1L112.69,33l-1.07-.63c-.87-.49-1.74-1-2.61-1.57l-.05,0c.51.91,1,1.8,1.43,2.7Z" fill="#002a5e"/><path d="M117.55,31.76,113,25.17l1.13-.79L118.72,31c.22.3.42.33.56.23a.94.94,0,0,0,.17-.15l.75.75a2.33,2.33,0,0,1-.55.52C118.83,33,118.16,32.63,117.55,31.76Z" fill="#002a5e"/><path d="M120,28a3.2,3.2,0,0,1,1.12-4.45c1.57-.79,3-.09,3.82,1.57a3.82,3.82,0,0,1,.25.66l-3.82,1.93a2,2,0,0,0,2.73.89,2.9,2.9,0,0,0,1.18-1.15l.82.56a4,4,0,0,1-1.68,1.63A3.16,3.16,0,0,1,120,28Zm3.75-2.56c-.5-1-1.26-1.37-2.12-.94a1.78,1.78,0,0,0-.7,2.36Z" fill="#002a5e"/><path d="M128.58,24l-2.82-2.43,1.43-.44,1.14,1c.29.3.61.6.92.89l.05,0c.06-.41.14-.82.2-1.23l.28-1.46,1.37-.43-.92,3.75,3,2.52-1.43.44-1.24-1.09c-.32-.3-.66-.62-1-.91l-.05,0c-.09.41-.17.85-.24,1.29L129,27.53l-1.39.42Z" fill="#002a5e"/><path d="M140,17.64l-2.58.1,0-1.17,6.58-.27.05,1.18-2.6.1.3,7.66-1.39.06Z" fill="#002a5e"/><path d="M145.23,21.93a3.22,3.22,0,0,1,3.41-3.08c1.74.21,2.53,1.58,2.3,3.42a3.83,3.83,0,0,1-.15.69l-4.25-.51a2,2,0,0,0,1.78,2.24,2.76,2.76,0,0,0,1.62-.3l.37.93a4,4,0,0,1-2.3.42A3.17,3.17,0,0,1,145.23,21.93Zm4.55-.05c.14-1.12-.29-1.84-1.25-2a1.79,1.79,0,0,0-1.89,1.57Z" fill="#002a5e"/><path d="M153.06,23.05c.65-2,2.34-2.9,3.75-2.45a2.51,2.51,0,0,1,1.47,1.24l.27-1.06.74-2.33,1.31.41L157.72,28l-1.07-.34.12-.74h-.05a2.79,2.79,0,0,1-2.1.28C153,26.67,152.4,25.14,153.06,23.05Zm3.88,2.81,1-3.08a2,2,0,0,0-1.21-1c-.88-.28-1.85.33-2.28,1.69s-.14,2.4.84,2.71A2,2,0,0,0,156.94,25.86Z" fill="#002a5e"/><path d="M161.27,25.88c1-1.87,2.86-2.39,4.15-1.68a2.6,2.6,0,0,1,1.2,1.51l.47-1,1.18-2.14,1.21.66-4.6,8.38-1-.54.26-.7,0,0a2.75,2.75,0,0,1-2.12-.13C160.54,29.42,160.21,27.81,161.27,25.88Zm3.26,3.51,1.55-2.83a2.1,2.1,0,0,0-1-1.22c-.81-.44-1.89,0-2.57,1.22s-.61,2.32.3,2.82A1.93,1.93,0,0,0,164.53,29.39Z" fill="#002a5e"/><path d="M168.72,30.24a3.22,3.22,0,0,1,4.53-.78c1.36,1.12,1.29,2.69.11,4.13a3.33,3.33,0,0,1-.5.5l-3.32-2.71a2,2,0,0,0,.3,2.85,2.75,2.75,0,0,0,1.53.62l-.18,1A4.05,4.05,0,0,1,169,35,3.19,3.19,0,0,1,168.72,30.24Zm3.87,2.39c.72-.87.74-1.7,0-2.31a1.78,1.78,0,0,0-2.44.31Z" fill="#002a5e"/><path d="M177.42,33.56l.76.84-.82.87,0,0a2.27,2.27,0,0,1,2.26.49,1.63,1.63,0,0,1,.39.65l-1.06.61a2.13,2.13,0,0,0-.36-.56,1.85,1.85,0,0,0-2.12-.25L173.43,39l-.92-1Z" fill="#002a5e"/></g></svg>