<svg xmlns="http://www.w3.org/2000/svg" xmlns:xlink="http://www.w3.org/1999/xlink" viewBox="0 0 1120 496"><defs><clipPath id="clip-path"><rect x="-109.29" y="-806.36" width="522.81" height="533.99" fill="none"/></clipPath><linearGradient id="未命名漸層_3" x1="2245.86" y1="-1117.64" x2="2245.86" y2="-1342.91" gradientTransform="translate(-1790.89 968)" gradientUnits="userSpaceOnUse"><stop offset="0" stop-color="#fff" stop-opacity="0"/><stop offset="1" stop-color="#fff"/></linearGradient></defs><g id="圖文"><g clip-path="url(#clip-path)"><rect x="-186.77" y="-1097.33" width="1283.48" height="992.37" transform="translate(-298.91 -595.15) rotate(52.42)" fill="url(#未命名漸層_3)"/></g><rect x="-80.48" y="495.75" width="1280" height="103.54" fill="#e6e6e6"/><line x1="680.14" y1="190.49" x2="258.02" y2="326.36" fill="none" stroke="#002a5e" stroke-miterlimit="10" stroke-width="2" stroke-dasharray="9 6.37 4 4"/><circle cx="209.83" cy="322.71" r="74.39" fill="#002a5e"/><text transform="translate(170.06 352.95)" font-size="18" fill="#fff" font-family="SourceHanSansTW-Bold-B5pc-H, Source Han Sans TW" letter-spacing="0.1em">投資策略</text><ellipse cx="719.18" cy="221.96" rx="109.38" ry="181.75" transform="translate(383.16 895.44) rotate(-80.64)" fill="none" stroke="#002a5e" stroke-miterlimit="10" stroke-width="2"/><circle cx="580.77" cy="150.57" r="41.85" fill="#7d3787" stroke="#002a5e" stroke-miterlimit="10" stroke-width="2"/><text transform="translate(561.95 144.45)" font-size="18" fill="#fff" font-family="SourceHanSansTW-Medium-B5pc-H, Source Han Sans TW">矩陣<tspan x="0" y="24.88">數列</tspan></text><circle cx="608.48" cy="279.17" r="41.85" fill="#7d3787" stroke="#002a5e" stroke-miterlimit="10" stroke-width="2"/><text transform="translate(589.67 273.06)" font-size="18" fill="#fff" font-family="SourceHanSansTW-Medium-B5pc-H, Source Han Sans TW">新聞<tspan x="0" y="24.88">資訊</tspan></text><circle cx="859.97" cy="290.52" r="41.85" fill="#7d3787" stroke="#002a5e" stroke-miterlimit="10" stroke-width="2"/><text transform="translate(841.15 284.4)" font-size="18" fill="#fff" font-family="SourceHanSansTW-Medium-B5pc-H, Source Han Sans TW">趨勢<tspan x="0" y="24.88">驗證</tspan></text><ellipse cx="725.39" cy="227.5" rx="166.45" ry="294.99" transform="translate(389.77 909.64) rotate(-81.21)" fill="none" stroke="#002a5e" stroke-miterlimit="10" stroke-width="2"/><circle cx="437.39" cy="183.67" r="34.55" fill="#fff" stroke="#002a5e" stroke-miterlimit="10" stroke-width="2"/><text transform="translate(410.4 190.49)" font-size="18" fill="#002a5e" font-family="SourceHanSansTW-Bold-B5pc-H, Source Han Sans TW">物理學</text><circle cx="616.14" cy="378.73" r="34.55" fill="#fff" stroke="#002a5e" stroke-miterlimit="10" stroke-width="2"/><text transform="translate(598.15 371.79)" font-size="18" fill="#002a5e" font-family="SourceHanSansTW-Bold-B5pc-H, Source Han Sans TW">生物<tspan x="-9" y="24.88">資訊學</tspan></text><circle cx="820.43" cy="399" r="34.55" fill="#fff" stroke="#002a5e" stroke-miterlimit="10" stroke-width="2"/><text transform="translate(802.43 393.25)" font-size="18" fill="#002a5e" font-family="SourceHanSansTW-Bold-B5pc-H, Source Han Sans TW">電腦<tspan x="0" y="24.88">科學</tspan></text><circle cx="979.24" cy="328.49" r="34.55" fill="#fff" stroke="#002a5e" stroke-miterlimit="10" stroke-width="2"/><text transform="translate(961.24 321.66)" font-size="18" fill="#002a5e" font-family="SourceHanSansTW-Bold-B5pc-H, Source Han Sans TW">作業<tspan x="0" y="24.88">研究</tspan></text><circle cx="996.96" cy="196.1" r="34.55" fill="#fff" stroke="#002a5e" stroke-miterlimit="10" stroke-width="2"/><text transform="translate(978.96 186.52)" font-size="18" fill="#002a5e" font-family="SourceHanSansTW-Bold-B5pc-H, Source Han Sans TW">數學<tspan x="-9" y="24.88">統計學</tspan></text><circle cx="827.16" cy="74.67" r="34.55" fill="#fff" stroke="#002a5e" stroke-miterlimit="10" stroke-width="2"/><text transform="translate(809.16 69.91)" font-size="18" fill="#002a5e" font-family="SourceHanSansTW-Bold-B5pc-H, Source Han Sans TW">機器<tspan x="0" y="24.88">學習</tspan></text><circle cx="613.93" cy="59.2" r="34.55" fill="#fff" stroke="#002a5e" stroke-miterlimit="10" stroke-width="2"/><text transform="translate(586.93 67.37)" font-size="18" fill="#002a5e" font-family="SourceHanSansTW-Bold-B5pc-H, Source Han Sans TW">心理學</text><circle cx="725.11" cy="183.67" r="89.79" fill="#f8a908" stroke="#002a5e" stroke-miterlimit="10" stroke-width="2"/><text transform="translate(697.88 204.86)" font-size="18" fill="#002a5e" font-family="SourceHanSansTW-Bold-B5pc-H, Source Han Sans TW" letter-spacing="0.01em">施羅德<tspan x="-27.27" y="24">數據洞見團隊</tspan></text><circle cx="728.67" cy="328.49" r="41.85" fill="#7d3787" stroke="#002a5e" stroke-miterlimit="10" stroke-width="2"/><text transform="translate(709.86 322.38)" font-size="18" fill="#fff" font-family="SourceHanSansTW-Medium-B5pc-H, Source Han Sans TW">圖像<tspan x="0" y="24.88">運算</tspan></text><circle cx="869.02" cy="183.67" r="41.85" fill="#7d3787" stroke="#002a5e" stroke-miterlimit="10" stroke-width="2"/><text transform="translate(850.2 177.56)" font-size="18" fill="#fff" font-family="SourceHanSansTW-Medium-B5pc-H, Source Han Sans TW">智財<tspan x="0" y="24.88">專利</tspan></text><ellipse cx="223.73" cy="338.08" rx="142.47" ry="67.21" transform="translate(-103.94 99.37) rotate(-20.43)" fill="none" stroke="#002a5e" stroke-miterlimit="10" stroke-width="2"/><circle cx="310.66" cy="241.67" r="46.74" fill="#7d3787" stroke="#002a5e" stroke-miterlimit="10" stroke-width="2"/><text transform="translate(275.66 237.32)" font-size="14" fill="#fff" font-family="SourceHanSansTW-Medium-B5pc-H, Source Han Sans TW">基金經理人<tspan x="-3.89" y="19">Al</tspan><tspan x="8.99" y="19" letter-spacing="-0.01em">e</tspan><tspan x="16.74" y="19">x </tspan><tspan x="27.26" y="19" letter-spacing="-0.08em">T</tspan><tspan x="34.71" y="19">edder</tspan></text><circle cx="83.83" cy="365.1" r="46.74" fill="#7d3787" stroke="#002a5e" stroke-miterlimit="10" stroke-width="2"/><text transform="translate(47.02 358.99)" font-size="18" fill="#fff" font-family="SourceHanSansTW-Medium-B5pc-H, Source Han Sans TW">全球產業<tspan x="0" y="24.88">研究專家</tspan></text><circle cx="301.46" cy="378.73" r="46.74" fill="#7d3787" stroke="#002a5e" stroke-miterlimit="10" stroke-width="2"/><text transform="translate(264.64 372.62)" font-size="18" fill="#fff" font-family="SourceHanSansTW-Medium-B5pc-H, Source Han Sans TW">顛覆未來<tspan x="0" y="24.88">顧問團隊</tspan></text><path d="M207.38,306h4.9a4,4,0,0,1,4,4v7a6.48,6.48,0,0,1-6.48,6.48h0a6.48,6.48,0,0,1-6.48-6.48v-7a4,4,0,0,1,4-4Z" fill="#fff" stroke="#002a5e" stroke-miterlimit="10"/><path d="M228.29,285.38a18.46,18.46,0,1,0-30.61,13.83,13.26,13.26,0,0,1,4.41,10V311h15.49v-1.73A13.4,13.4,0,0,1,222,299.17,18.3,18.3,0,0,0,228.29,285.38Z" fill="#fff" stroke="#002a5e" stroke-linecap="round" stroke-linejoin="round"/><path d="M204.94,273.24a13.18,13.18,0,0,1,16.76,18.9" fill="#fff" stroke="#002a5e" stroke-linecap="round" stroke-linejoin="round"/><circle cx="209.83" cy="286.03" r="8.81" fill="#002a5e"/><text transform="translate(203.46 290.6)" font-size="13" fill="#fff" font-family="SourceHanSansTW-Bold-B5pc-H, Source Han Sans TW" letter-spacing="-0.13em">＄</text><circle cx="709.96" cy="155.75" r="6.46" fill="#002a5e"/><circle cx="739.91" cy="155.75" r="6.46" fill="#002a5e"/><circle cx="725.21" cy="149.06" r="6.46" fill="#002a5e"/><path d="M738.4,171.87a13.2,13.2,0,0,0-26.39,0Z" fill="#002a5e"/><rect x="709.47" y="114.4" width="31.95" height="22.45" rx="2.01" fill="#002a5e"/><circle cx="718.48" cy="127.34" r="1.35" fill="#fff"/><circle cx="728.41" cy="125.69" r="1.35" fill="#fff"/><circle cx="724.51" cy="122.46" r="1.35" fill="#fff"/><polyline points="718.48 127.34 724.57 122.7 728.41 125.63 735.2 120.26" fill="none" stroke="#fff" stroke-miterlimit="10" stroke-width="0.75"/><polyline points="737.5 131.44 714.44 131.44 714.44 118.96" fill="none" stroke="#fff" stroke-linecap="round" stroke-linejoin="round"/><polygon points="736.3 118.98 732.18 119.91 735.04 123.02 736.3 118.98" fill="#fff"/><polygon points="725.44 139.88 728.24 135.04 722.64 135.04 725.44 139.88" fill="#002a5e"/><path d="M725.71,179.56v-1a14.2,14.2,0,1,1,28.39,0v1Z" fill="#002a5e"/><path d="M739.91,165.36a13.19,13.19,0,0,1,13.19,13.2H726.71a13.2,13.2,0,0,1,13.2-13.2m0-2a15.22,15.22,0,0,0-15.2,15.2v2H755.1v-2a15.21,15.21,0,0,0-15.19-15.2Z" fill="#f8a908"/><path d="M695.77,179.56v-1a14.2,14.2,0,1,1,28.39,0v1Z" fill="#002a5e"/><path d="M710,165.36a13.2,13.2,0,0,1,13.2,13.2h-26.4a13.2,13.2,0,0,1,13.2-13.2m0-2a15.22,15.22,0,0,0-15.2,15.2v2h30.4v-2a15.22,15.22,0,0,0-15.2-15.2Z" fill="#f8a908"/></g></svg>