<svg xmlns="http://www.w3.org/2000/svg" xmlns:xlink="http://www.w3.org/1999/xlink" viewBox="0 0 1120 496"><defs><clipPath id="clip-path"><rect x="-109.29" y="-806.36" width="522.81" height="533.99" fill="none"/></clipPath><linearGradient id="未命名漸層_3" x1="2245.86" y1="-1117.64" x2="2245.86" y2="-1342.91" gradientTransform="translate(-1790.89 968)" gradientUnits="userSpaceOnUse"><stop offset="0" stop-color="#fff" stop-opacity="0"/><stop offset="1" stop-color="#fff"/></linearGradient></defs><g id="圖文"><g clip-path="url(#clip-path)"><rect x="-186.77" y="-1097.33" width="1283.48" height="992.37" transform="translate(-298.91 -595.15) rotate(52.42)" fill="url(#未命名漸層_3)"/></g><rect x="-80.48" y="495.75" width="1280" height="103.54" fill="#e6e6e6"/><line x1="680.14" y1="190.49" x2="258.02" y2="326.36" fill="none" stroke="#002a5e" stroke-miterlimit="10" stroke-width="2" stroke-dasharray="9 6.37 4 4"/><circle cx="209.83" cy="322.71" r="74.39" fill="#002a5e"/><path d="M175.05,347.82v4.29c0,1-.2,1.57-.81,1.87a5.73,5.73,0,0,1-2.72.4,7.1,7.1,0,0,0-.61-1.95c.72,0,1.46,0,1.69,0s.34-.09.34-.34v-3.73l-1.82.47-.55-2.05,2.37-.52v-3.17H170.8v-2h2.14V337.7h2.11v3.43h1.89v2h-1.89v2.64l1.31-.32.27,2Zm11.4-1.83a11.6,11.6,0,0,1-3.1,5.2,15.4,15.4,0,0,0,4.16,1.37,9.9,9.9,0,0,0-1.35,2,14.61,14.61,0,0,1-4.65-2,17.12,17.12,0,0,1-4.91,1.93,8.51,8.51,0,0,0-1-2,14.64,14.64,0,0,0,4.16-1.37,13.15,13.15,0,0,1-2.5-3.47l.66-.24h-1v-2h7.81l.38-.09Zm-9-.74a7.89,7.89,0,0,0-1.42-1.53,3.44,3.44,0,0,0,2.4-3.51v-1.93h6.33v3.93c0,.52,0,.73.33.73H186a4.51,4.51,0,0,0,1-.12c0,.54.09,1.28.16,1.76a3,3,0,0,1-1.13.15h-1.21c-1.76,0-2.14-.76-2.14-2.56v-1.91l-2.32,0A5,5,0,0,1,177.44,345.25Zm1.9,2.23a8.44,8.44,0,0,0,2.19,2.52,8.77,8.77,0,0,0,2.09-2.52Z" fill="#fff"/><path d="M201.91,340.91c1,.95,2.88,1.4,5.31,1.53a6.91,6.91,0,0,0-1.19,1.71,8.6,8.6,0,0,1-4.72-1.82c-.68.79-2.17,1.5-5.2,1.84a5.89,5.89,0,0,0-.72-1.17h-4.77v-1.64h5.44v1.1c3.44-.36,3.89-1.17,3.89-1.84v-.27h-1.08a7.69,7.69,0,0,1-1.27,1.55,10.29,10.29,0,0,0-1.58-1.1,7.34,7.34,0,0,0,2.11-3.2L200,338c-.09.27-.2.54-.31.79h5.12l.32-.09,1.46.45a15.72,15.72,0,0,1-1.66,2.85l-1.65-.61c.19-.29.43-.67.63-1h-2v.56Zm.48,10.59c1.66.61,3.42,1.33,4.49,1.85L205,354.5a34.21,34.21,0,0,0-4.68-2.12l1.1-.88h-5.08l1.57.72a23.92,23.92,0,0,1-5.62,2.34,13.89,13.89,0,0,0-1.59-1.57,20.37,20.37,0,0,0,4.92-1.49H193v-7.31h12v7.31Zm-6.75-11.35H191v-1.56h4.61Zm-.59,6.09h7.79v-.78h-7.79Zm0,2h7.79v-.77h-7.79Zm0,2h7.79v-.81h-7.79Z" fill="#fff"/><path d="M225.6,348.56c0,.9-.18,1.33-.83,1.6a6.47,6.47,0,0,1-2.4.27A17.69,17.69,0,0,0,227.2,352a9.58,9.58,0,0,0-1.35,1.89A15.36,15.36,0,0,1,220,351v3.53h-2.31V351a15.29,15.29,0,0,1-6,3.09,8.3,8.3,0,0,0-1.33-1.8,13.45,13.45,0,0,0,7.31-3.69V347.3h-3.44v3.19H212v-5h5.71v-.86h-6.86v-1.84h4.86A14.2,14.2,0,0,0,214,341l.69-.6h-1.06a11.9,11.9,0,0,1-1.86,2.34,13.73,13.73,0,0,0-1.42-1.44,10.57,10.57,0,0,0,2.61-3.78l1.89.54c-.09.24-.2.47-.31.71h3.93v1.63h-2.56a13.82,13.82,0,0,1,1.21,1.19l-1.26,1.17h1.87v-1h1.59a13.87,13.87,0,0,0-1.21-.88,8.15,8.15,0,0,0,2.25-3.39l1.94.49c-.09.25-.19.52-.3.77h5v1.62h-3.12a9.71,9.71,0,0,1,1.25,1.14l-1.43,1.22a12.33,12.33,0,0,0-1.83-1.71l.75-.65H221.1a9.21,9.21,0,0,1-1.08,1.43v.93h6.48v1.84H220v.86h5.58Zm-5.58.33a11.4,11.4,0,0,0,2.25,1.49,9.19,9.19,0,0,0-.69-1.6c.58.05,1.32,0,1.51,0s.29-.05.29-.25V347.3H220Z" fill="#fff"/><path d="M246.26,340.08a14,14,0,0,1-2.88,4.66,12.53,12.53,0,0,0,3.91,2,10.55,10.55,0,0,0-1.37,1.8l-.13-.05v6H243.7v-.56H240v.57h-2v-5.9l-.45.2a8.65,8.65,0,0,0-.61-.94V351h-4.68v1.48h-1.55v-13.7H237v3.4a11.87,11.87,0,0,0,3.08-4.5l2,.56a12.94,12.94,0,0,1-.58,1.26h3l.36-.09Zm-14,.52v3.19h.85V340.6Zm0,8.56h.85v-3.61h-.85Zm3.08-8.56h-.9v3.19h.9Zm0,8.56v-3.61h-.9v3.61Zm1.6-2.27a14.39,14.39,0,0,0,3.53-2.18,16.13,16.13,0,0,1-1.33-1.78,11.19,11.19,0,0,1-1.34,1.33,8.47,8.47,0,0,0-.86-.9Zm7.42,1a13.64,13.64,0,0,1-2.47-1.73,17.31,17.31,0,0,1-2.46,1.73Zm-.69,4.19v-2.32H240v2.32Zm-3.25-10.78-.11.14a11.49,11.49,0,0,0,1.55,2,11.59,11.59,0,0,0,1.58-2.14Z" fill="#fff"/><ellipse cx="719.18" cy="221.96" rx="109.38" ry="181.75" transform="translate(383.16 895.44) rotate(-80.64)" fill="none" stroke="#002a5e" stroke-miterlimit="10" stroke-width="2"/><circle cx="580.77" cy="150.57" r="41.85" fill="#7d3787" stroke="#002a5e" stroke-miterlimit="10" stroke-width="2"/><path d="M579.24,143.62v1.57h-9.56v-1.57h1.22V132H570v1.15h-2.23v2.65c0,.23,0,.47,0,.72h2.54v1.55h-2.65c-.05.45-.13.91-.22,1.38.74.76,2.36,2.7,2.79,3.23l-1.06,1.36c-.45-.73-1.4-2-2.16-3a10,10,0,0,1-3.06,4.67,5.15,5.15,0,0,0-1.17-1.16,9.36,9.36,0,0,0,3.28-6.53h-3.21v-1.55h3.3c0-.25,0-.51,0-.76v-2.61h-.94a14.71,14.71,0,0,1-1.08,2.76,8.35,8.35,0,0,0-1.35-.9,15.55,15.55,0,0,0,1.62-5.68l1.57.27c-.11.67-.22,1.35-.36,2h4.35v-1.15H579V132h-6.47v2.43h5.85v6.25h-5.85v2.93Zm-6.7-7.61v3.13h4.25V136Z" fill="#fff"/><path d="M586.76,130.7c-.49,1.53-1.13,3.4-1.69,4.82a5.49,5.49,0,0,1,1.49,3.76,2.51,2.51,0,0,1-.75,2.16,2,2,0,0,1-1,.38,8.11,8.11,0,0,1-1.22,0,3.2,3.2,0,0,0-.4-1.49,6,6,0,0,0,.94,0,1,1,0,0,0,.54-.14,1.42,1.42,0,0,0,.34-1.14,4.94,4.94,0,0,0-1.46-3.36c.45-1.24.92-2.88,1.26-4.11h-1.92v14.26h-1.48V130.1h4l.27,0Zm10.46,12.67h-4.64v2.5H591v-2.5h-4.74v-1.49H591v-1.5h-3.8v-6.5H591v-1.44h-4.2V131H591v-1.64h1.62V131H597v1.46h-4.37v1.44h3.94v6.5h-3.94v1.5h4.64Zm-8.53-6.84h2.37v-1.39h-2.37Zm0,2.59h2.37v-1.4h-2.37Zm6.23-4h-2.43v1.39h2.43Zm0,2.58h-2.43v1.4h2.43Z" fill="#fff"/><path d="M577.93,159.14a20.63,20.63,0,0,1-1.75,6.77,7.83,7.83,0,0,0,3.22,3.47,6,6,0,0,0-1.06,1.32,8.75,8.75,0,0,1-3-3.33,10.86,10.86,0,0,1-4,3.44,7.9,7.9,0,0,0-.6-1l-.49.44a16.71,16.71,0,0,0-2.23-1.08,15.86,15.86,0,0,1-4.73,1.54,4,4,0,0,0-.69-1.09,16.79,16.79,0,0,0,3.86-1.08c-.87-.31-1.73-.58-2.53-.8a16.15,16.15,0,0,0,1-1.47h-2.11V165.1h2.83c.18-.34.36-.67.52-1h-2.57v-3h3.26v-.68H564v-2h-1.22v-1.25H564v-1.85h2.92v-1.12h1.29v1.12h3.1v1.85h1v1.25h-1v2h-3.1v.68h3.42V162a25.52,25.52,0,0,0,2.4-7.75l1.4.27c-.19,1.07-.43,2.13-.7,3.17h4.54v1.48Zm-12.91,4h1.87v-1H565Zm.25-6.64v.83h1.62v-.83Zm1.62,2.84v-1h-1.62v1Zm-.4,7c-.18.3-.38.59-.54.86.61.18,1.24.4,1.86.61a3.07,3.07,0,0,0,1.17-1.47Zm3.89,0a4.12,4.12,0,0,1-1.17,2,17.29,17.29,0,0,1,1.91.9,8.74,8.74,0,0,0,3.49-3.38,24.69,24.69,0,0,1-1.22-4.27,15.53,15.53,0,0,1-.87,1.78,7.93,7.93,0,0,0-.92-.86v1.62h-3.9c-.16.32-.34.65-.52,1h2v-.61h1.33v.61h1.66v1.19Zm-2.2-9.83v.83H570v-.83ZM570,159.3v-1h-1.77v1Zm-1.77,2.81v1h2v-1Zm6.09-3,0,.14a26.6,26.6,0,0,0,1.18,4.86,20.27,20.27,0,0,0,1.08-5Z" fill="#fff"/><path d="M581.09,155.09h8.84v1.55h-4.18c-.21.77-.47,1.58-.75,2.37h3.15l.28,0,1,.34c-.94,5.87-3.42,9.6-6.71,11.49a6.19,6.19,0,0,0-1.27-1.23,10.67,10.67,0,0,0,4.27-4.12,32.28,32.28,0,0,0-3-2.07,10.56,10.56,0,0,1-1.24,1.48,9.4,9.4,0,0,0-1.17-1.1,15,15,0,0,0,3.62-7.11h-2.92Zm3.29,5.45a12.43,12.43,0,0,1-.77,1.55,32.43,32.43,0,0,1,2.9,1.91,16.72,16.72,0,0,0,1.08-3.46Zm7.78,5.5h-1.64v-9.78h1.64Zm4.29-11.47v14.11c0,1-.24,1.48-.87,1.77a10.15,10.15,0,0,1-3.27.3,7.39,7.39,0,0,0-.58-1.67c1.17,0,2.27,0,2.61,0s.45-.11.45-.44V154.57Z" fill="#fff"/><circle cx="608.48" cy="279.17" r="41.85" fill="#7d3787" stroke="#002a5e" stroke-miterlimit="10" stroke-width="2"/><path d="M593.38,269.44a16.55,16.55,0,0,1-1.82,3.62,9,9,0,0,0-1.15-.8,11.24,11.24,0,0,0,1.65-3.22Zm2.32-1.17v6.1h-1.62v-6.1h-3.46v-1.43h3.46V265.2h-3.56v-1.4h2a9.24,9.24,0,0,0-.63-2.25l1.37-.34a11.77,11.77,0,0,1,.66,2.21l-1.33.38h2.84a17.88,17.88,0,0,0,.89-2.61l1.54.32c-.3.8-.61,1.62-.91,2.29H599v1.4H595.7v1.64h3.06v1.43Zm3-7.1H590.8v-1.38h3.3c-.2-.51-.43-1.09-.65-1.54l1.66-.43c.3.62.66,1.37.9,2h2.71Zm-1.27,7.73a15.47,15.47,0,0,1,1.49,2.7l-1.17.7a18.63,18.63,0,0,0-1.44-2.79Zm9.47-3.42h-1.84v8.91h-1.64v-8.91h-2.1v.43c0,2.59-.24,6.19-1.84,8.48a5.56,5.56,0,0,0-1.28-1c1.42-2.09,1.55-5.13,1.55-7.49v-6.23a27.52,27.52,0,0,0,5.51-1.46l1.31,1.22a29.56,29.56,0,0,1-5.25,1.34v3.15h5.58Z" fill="#fff"/><path d="M610.91,264.32v10.16h-1.64v-15.9H616v5.74Zm0-4.59v1.15h3.47v-1.15Zm3.47,3.42V262h-3.47v1.13Zm5.46,8.88V274h-1.51V272h-6.52v-1.21h1.64v-4.5h-1.23v-1.2h8.83v1.2h-1.21v4.5h1.48V272Zm-4.92-5.71v.83h3.41v-.83Zm0,2.65h3.41v-.83h-3.41Zm3.41,1.85V270h-3.41v.84Zm5.81,1.84c0,.83-.16,1.24-.66,1.49a6.19,6.19,0,0,1-2.47.29,5,5,0,0,0-.49-1.47c.71,0,1.46,0,1.68,0s.31-.09.31-.32v-8.34h-5.17v-5.74h6.8Zm-5.2-12.93v1.15h3.57v-1.15Zm3.57,3.42V262h-3.57v1.13Z" fill="#fff"/><path d="M601.66,285.53a1.68,1.68,0,0,1,0,.43c1,1,2.9,1.6,5.28,1.75a4.78,4.78,0,0,0-.9,1.37,8.88,8.88,0,0,1-4.83-2c-.64.82-2.07,1.6-5.16,2a4.72,4.72,0,0,0-.85-1.24h-4.57v-1.32h5.22v1.19c3.91-.5,4.32-1.51,4.32-2.29v-.23h-1.49a8.46,8.46,0,0,1-1.32,1.67,7.46,7.46,0,0,0-1.26-.84,7.42,7.42,0,0,0,2.07-3.31l1.5.32c-.11.31-.22.59-.35.9h5.62l.24-.07,1.15.38a16.68,16.68,0,0,1-1.57,2.66l-1.31-.47a13.91,13.91,0,0,0,.75-1.24h-2.5Zm-.14,10.91a47,47,0,0,1,5.07,2l-1.51.92a35.94,35.94,0,0,0-4.84-2l1-.85H595.9l1.49.68a24.2,24.2,0,0,1-5.51,2.25,13.36,13.36,0,0,0-1.24-1.26,19.66,19.66,0,0,0,5.19-1.67h-2.9V289.2h11.74v7.24Zm-6.14-11.36H591v-1.26h4.42Zm-.83,6.21H603v-1h-8.44Zm0,2H603v-1h-8.44Zm0,2.07H603v-1.05h-8.44Z" fill="#fff"/><path d="M615,287.17h-6.49v-1.34h3.08a19.71,19.71,0,0,0-1.22-2.43l1.2-.66a19.61,19.61,0,0,1,1.25,2.36l-1.19.73H615Zm-5.77,2.37v-1.31h5.12v1.31Zm0,1.07h5.13v1.29h-5.13Zm5.13,7.7h-3.81v.81h-1.32V293h5.13Zm-3.81-3.92V297h2.48v-2.57Zm12.58-10.59c-.12,6.66-.14,13.36.7,13.61a7.41,7.41,0,0,0,.29-2.34,8.33,8.33,0,0,0,.92,1.28c-.21,2.56-.95,3.13-1.89,2.74-1.75-.62-1.71-6.65-1.69-13.71h-2.67v5.08h2.11V292h-2.11v7.35h-1.56V292H615v-1.55h2.23v-5.08h-2V283.8Z" fill="#fff"/><circle cx="859.97" cy="290.52" r="41.85" fill="#7d3787" stroke="#002a5e" stroke-miterlimit="10" stroke-width="2"/><path d="M846.8,283.05a10.1,10.1,0,0,0,4.45.71c1,0,6,0,7.28-.06a5.48,5.48,0,0,0-.69,1.66h-6.61c-3.71,0-5.92-.56-7.32-3.06a10.62,10.62,0,0,1-1.25,3.49,3.54,3.54,0,0,0-1.06-1c1.19-2.09,1.3-5,1.23-7.4l1.38.07c0,.67,0,1.37,0,2.07a6.84,6.84,0,0,0,1.12,2.33v-5.78h-3.24v-1.48h2.83v-1.82h-2.38v-1.48h2.38v-2h1.49v2h2.21v1.23a8.64,8.64,0,0,0,2.31-3.35l1.44.36c-.11.25-.23.5-.36.76h5.91s0,.34,0,.54c-.18,3.15-.34,4.32-.74,4.79a1.4,1.4,0,0,1-1,.43,11.65,11.65,0,0,1-1.69,0,2.7,2.7,0,0,0-.31-1.06c.6.05,1.12.07,1.36.07a.53.53,0,0,0,.46-.17c.22-.25.38-1.17.51-3.43h-5.12c-.16.25-.32.5-.5.73H851v1.36h1.12v-1.64h1.12v1.64h1.09v-1.36h1.16v2.33h-2.34a2.46,2.46,0,0,1-1.44,1.44l.55.14a7.8,7.8,0,0,1-.37.78H858s0,.37,0,.57c-.16,3.42-.34,4.68-.77,5.17a1.34,1.34,0,0,1-1,.45,13.54,13.54,0,0,1-1.75,0,2.92,2.92,0,0,0-.3-1.12,13.53,13.53,0,0,0,1.37.06.49.49,0,0,0,.48-.17c.23-.3.42-1.29.56-3.81h-5.35c-.2.28-.39.55-.59.81h.23v1.4h1.14v-1.73h1.2v1.73h1.14v-1.4h1.17v2.43H853c-.32.84-1.19,1.62-3.26,2.1a3.21,3.21,0,0,0-.72-.88,4,4,0,0,0,2.61-1.22H849.7v-1.48l-.18.16a7.51,7.51,0,0,0-.7-.52v.15h-2Zm0-7v2.07h2v.48a9.05,9.05,0,0,0,1.64-2.23l-.68.14a2.54,2.54,0,0,0-.62-.82c1.62-.26,2.4-.71,2.72-1.19h-2v-1.21l-.2.2a12.47,12.47,0,0,0-1.08-.74h-2.2v1.82H849v1.48Z" fill="#fff"/><path d="M863.51,273.28a3.53,3.53,0,0,1-2.81,2.46,4.81,4.81,0,0,0-.65-1c1.12-.23,1.93-.68,2.2-1.47h-2.06v-1.12h3.21v-.83h-2.56v-1.06h2.56v-1h1.53v1h2.59v1.06h-2.59v.83h3.3v1.12H866v.52c0,.34,0,.47.27.47h.8a3.38,3.38,0,0,0,.82-.09c0,.32,0,.66.09,1a3.24,3.24,0,0,1-.9.09h-1.13c-1,0-1.23-.47-1.23-1.48v-.5Zm11.34-1.93c0,3.87,0,6.86.58,6.86.23,0,.3-.92.32-2.14a4.91,4.91,0,0,0,1,.93c-.13,1.88-.38,2.65-1.41,2.65-1.71,0-1.89-2.88-1.92-6.95h-1.57a18.83,18.83,0,0,1-.36,2.49,18.42,18.42,0,0,1,1.78,1.17l-.76,1.18c-.36-.27-.88-.64-1.45-1a5.7,5.7,0,0,1-2.29,2.81,4.5,4.5,0,0,0-.86-1.05l0,.62c-2.78.21-5.66.41-7.69.55l-.09-1.22,3.33-.18v-1h-2.57v-1.07h2.57V275h1.53v.91h2.65V277h-2.65v.95l2.94-.22v.49a5,5,0,0,0,1.92-2.48l-1.53-1,.72-1c.38.21.76.45,1.19.7a14.78,14.78,0,0,0,.23-1.73h-1.78v-1.35h1.86c0-.63,0-1.33,0-2.05H872c0,.72,0,1.4-.05,2.05Zm0,9.07s0,.47-.07.67c-.29,2.56-.58,3.69-1.09,4.18a2,2,0,0,1-1.38.52,21.91,21.91,0,0,1-2.54,0,3.33,3.33,0,0,0-.49-1.49c1,.09,2,.11,2.34.11a1,1,0,0,0,.71-.17c.28-.23.48-1,.66-2.48h-4.7c-.82,2.16-2.68,3.47-7.32,4.12a5.1,5.1,0,0,0-.76-1.37c3.85-.45,5.51-1.31,6.3-2.75h-5.29v-1.32H867c.07-.32.12-.66.18-1h1.69q-.07.54-.18,1Z" fill="#fff"/><path d="M841.76,309.16a20.78,20.78,0,0,0,.78-3.89l.9.29a25.72,25.72,0,0,1-.72,4Zm7.08-5.48c-.13,4.34-.25,5.91-.63,6.41a1.13,1.13,0,0,1-.94.51,5.81,5.81,0,0,1-1.42,0,3.56,3.56,0,0,0-.36-1.26,9.4,9.4,0,0,0,1.13.06.45.45,0,0,0,.45-.2,5.68,5.68,0,0,0,.31-2l-.67.27a24.19,24.19,0,0,0-.88-2.35l.65-.22a17.76,17.76,0,0,1,.9,2.21c0-.66.07-1.56.11-2.7h-4.77V295h6v1.37h-2.06v1.44h1.75v.68a12.81,12.81,0,0,0,4.66-4.44l1.53.48a2.94,2.94,0,0,1-.36.58,15.31,15.31,0,0,0,4.2,2.88,8.61,8.61,0,0,0-.67,1.49,15,15,0,0,1-1.64-1v1h-5.31l0-.86a15.72,15.72,0,0,1-1.42.93,7.36,7.36,0,0,0-1-1V299h-1.75v1.35h1.79v1.29h-1.79v1.43h2.13Zm-4.39,1.86a32.42,32.42,0,0,1,.23,3.24l-.81.09c0-.88,0-2.23-.16-3.24Zm-.42-9.22v1.44h1.37v-1.44ZM845.4,299H844v1.35h1.37ZM844,303.11h1.37v-1.43H844Zm1.48,2.21c.23.92.5,2.13.61,2.9l-.76.16a28.68,28.68,0,0,0-.59-2.93Zm6.64.29c-.11.5-.25.95-.39,1.42a9.15,9.15,0,0,1,1.85,1.44l-.86,1.1a9.39,9.39,0,0,0-1.5-1.29,8.47,8.47,0,0,1-1.69,2.43,11.14,11.14,0,0,0-1.12-1,7.9,7.9,0,0,0,2.29-4.41Zm-2.68-4.95h3.67v4.23h-3.67Zm1.13,3.11H852v-2H850.6Zm5.24-5.61a20.25,20.25,0,0,1-2.34-2,15.81,15.81,0,0,1-2,2Zm.8,7.34a12.4,12.4,0,0,1-.53,2,18.18,18.18,0,0,1,2.24,1.8l-1,1.15a12.58,12.58,0,0,0-1.8-1.6,7.21,7.21,0,0,1-1.34,1.86,9.6,9.6,0,0,0-1.22-1,7.77,7.77,0,0,0,2.16-4.48Zm-2.78-4.84h3.82v4.23h-3.82Zm1.16,3.11h1.45v-2H855Z" fill="#fff"/><path d="M866,298.52h-6.1v-1.34H863a18,18,0,0,0-1.37-2.43l1.15-.7a17.17,17.17,0,0,1,1.4,2.31l-1.17.82h3Zm-.49,11.14h-3.65v.81h-1.31v-6.08h5Zm-.07-8.77h-4.84v-1.31h4.84ZM860.61,302h4.84v1.3h-4.84Zm1.26,3.79v2.57h2.34v-2.57Zm7.06-5.87a8.25,8.25,0,0,1-2.15,2.14,6.39,6.39,0,0,0-1-1.14A7,7,0,0,0,867.7,299a14.85,14.85,0,0,0-1.55-1.15l.89-1.06a12.72,12.72,0,0,1,1.44.94,8.65,8.65,0,0,0,.65-1.57h-2.4v-1.33h2.95l.27-.06,1,.33a13.2,13.2,0,0,1-1.58,4.12h3.73a15.77,15.77,0,0,1-1.84-4.61l1.39-.25a13.18,13.18,0,0,0,.41,1.37c.43-.4.88-.81,1.21-1.14l1,.92a16.93,16.93,0,0,1-1.69,1.37c.14.31.3.61.45.9a13.44,13.44,0,0,0,1.4-1.12l1,.94c-.55.41-1.18.85-1.72,1.17a7.12,7.12,0,0,0,2,1.85,5.5,5.5,0,0,0-1.13,1.23,7.65,7.65,0,0,1-2.11-2.13v.83h-4.5Zm5.49,6.53c-.41.85-.88,1.8-1.32,2.52h3.16v1.35H866.14v-1.35h2.91a8.66,8.66,0,0,0-.95-2.46l1.42-.38a7.71,7.71,0,0,1,1.06,2.48l-1.26.36h2.27a18.94,18.94,0,0,0,1.19-2.93Zm-6.82-4.82h7.12V306H867.6Zm1.44,3.06h4.19v-1.77H869Z" fill="#fff"/><ellipse cx="725.39" cy="227.5" rx="166.45" ry="294.99" transform="translate(389.77 909.64) rotate(-81.21)" fill="none" stroke="#002a5e" stroke-miterlimit="10" stroke-width="2"/><circle cx="437.39" cy="183.67" r="34.55" fill="#fff" stroke="#002a5e" stroke-miterlimit="10" stroke-width="2"/><path d="M418.05,185.07c-.65.18-1.28.4-1.95.6v6.41h-2v-5.82c-1,.29-1.87.58-2.7.79l-.52-2c.9-.2,2-.49,3.22-.83v-3.44h-1.21a15.87,15.87,0,0,1-.66,2.31,16.39,16.39,0,0,0-1.51-1,22.91,22.91,0,0,0,1-5.8l1.78.31c-.07.72-.16,1.42-.27,2.14h.85v-3.46h2v3.46h1.5v2h-1.5v2.9l1.66-.47Zm9.68-7s0,.72,0,1c-.34,8-.67,11-1.35,11.86a2,2,0,0,1-1.41.94,10,10,0,0,1-2,.05,5.84,5.84,0,0,0-.6-2.09,13.32,13.32,0,0,0,1.61.08.74.74,0,0,0,.66-.35c.45-.57.78-3,1.07-9.49h-.09c-.89,4.54-2.74,9.22-5.64,11.62a7.41,7.41,0,0,0-1.75-1.24c2.88-2.08,4.69-6.16,5.59-10.38h-.85c-.79,2.94-2.31,6.16-4.12,7.89a7.92,7.92,0,0,0-1.64-1.21c1.78-1.4,3.18-4.07,4-6.68h-.92a13.11,13.11,0,0,1-1.86,3.23,11.78,11.78,0,0,0-1.62-1.21,14.84,14.84,0,0,0,3-6.79l1.94.36A24.15,24.15,0,0,1,421,178Z" fill="#002a5e"/><path d="M435.22,188.46c-2,.7-4.14,1.39-5.87,1.94l-.49-2.18,2.2-.59V183.4h-1.82v-2h1.82v-3.17h-2v-2H435v2h-1.93v3.17h1.63v2h-1.63V187c.6-.18,1.19-.36,1.77-.56Zm10.69,1.1v1.94H434.34v-1.94h5v-1.71h-3.73v-1.93h3.73v-1.55h-3.6V176h9.39v8.37h-3.61v1.55h3.81v1.93h-3.81v1.71Zm-8.28-10.23h1.86v-1.51h-1.86Zm0,3.22h1.86V181h-1.86Zm5.44-4.73h-1.78v1.51h1.78Zm0,3.18h-1.78v1.55h1.78Z" fill="#002a5e"/><path d="M463.52,188.76h-6.88v1.3c0,1-.22,1.42-.95,1.71a10.39,10.39,0,0,1-3.08.27,7,7,0,0,0-.65-1.8c.85,0,1.93,0,2.2,0s.37-.06.37-.27v-1.23h-7.29v-1.69h7.29v-.52a13,13,0,0,0,2-1h-5.78V184h7.84l.45-.11,1.2,1.1a24.67,24.67,0,0,1-3.44,2.07h6.74Zm-13.92-3.38h-2v-3.69h1.35l-.33-5.35a25.57,25.57,0,0,0,3.64-1l.88,1.25a17.29,17.29,0,0,1-2.47.68l0,.52H453v1.33h-2.22l0,.62H453v.91a10,10,0,0,0,1.26-.68c-.34-.22-.68-.41-1-.59l1-.85c.36.18.73.4,1.13.61a7,7,0,0,0,.7-.75l1.41.41a7.43,7.43,0,0,1-1,1.08,9.23,9.23,0,0,1,1.1.83l-1.08.93c-.27-.27-.63-.55-1-.88a14.31,14.31,0,0,1-1.46.94h5.83l.07-.63h-2.12v-1.33h2.25l0-.62h-2.2v-1.33h2.29l0-.59h-2.41v-1.35h4.5c-.09,1.89-.23,4.17-.38,5.85h1.33v3.69h-2.12v-2.14H449.6Zm1.3-3.69h2.91a8.91,8.91,0,0,0-.81-.83v.2h-2.14Zm5.58-3.31a9.31,9.31,0,0,0-.94-.76,8.48,8.48,0,0,1-1.46.9,8.21,8.21,0,0,0-1.11-1,8.49,8.49,0,0,0,1.37-.71c-.35-.2-.65-.37-1-.54l1-.83,1.1.58a6.11,6.11,0,0,0,.64-.72l1.41.41a6,6,0,0,1-.9,1c.36.26.68.51.93.73Z" fill="#002a5e"/><circle cx="616.14" cy="378.73" r="34.55" fill="#fff" stroke="#002a5e" stroke-miterlimit="10" stroke-width="2"/><path d="M615.29,370.75v2.1H599.1v-2.1h6.95v-3.62h-4.88v-2.07h4.88v-3.17h-3.72a15.48,15.48,0,0,1-1.68,2.61,17.46,17.46,0,0,0-1.93-1.28,15.4,15.4,0,0,0,3.19-6.45l2.22.49c-.26.86-.54,1.71-.85,2.54h2.77v-3.24h2.25v3.24h6.07v2.09H608.3v3.17h5.39v2.07H608.3v3.62Z" fill="#002a5e"/><path d="M623.8,366.37c-.65.18-1.28.4-1.94.59v6.41h-2v-5.81c-1,.29-1.87.57-2.7.79l-.52-2c.9-.2,2-.49,3.22-.83v-3.44h-1.2a16.56,16.56,0,0,1-.67,2.3,17.13,17.13,0,0,0-1.51-1,22.31,22.31,0,0,0,1-5.79l1.79.3c-.08.72-.17,1.42-.27,2.14h.84v-3.45h2V360h1.49v2h-1.49V365l1.65-.47Zm9.69-7s0,.72,0,1c-.34,8-.67,11-1.35,11.87a1.94,1.94,0,0,1-1.4.93,10.78,10.78,0,0,1-2,.06,6,6,0,0,0-.59-2.09,14.94,14.94,0,0,0,1.6.07.76.76,0,0,0,.67-.34c.45-.58.77-3,1.06-9.49h-.09c-.88,4.54-2.74,9.22-5.64,11.61a8.21,8.21,0,0,0-1.74-1.24c2.88-2.07,4.68-6.16,5.58-10.37h-.85c-.79,2.94-2.3,6.16-4.12,7.89A7.58,7.58,0,0,0,622.9,368c1.78-1.4,3.19-4.07,4-6.68H626a13.34,13.34,0,0,1-1.85,3.22,13.06,13.06,0,0,0-1.62-1.2,14.93,14.93,0,0,0,3-6.79l1.94.36c-.18.83-.41,1.64-.66,2.43Z" fill="#002a5e"/><path d="M601.19,384.62c1,1,2.88,1.41,5.32,1.53a6.83,6.83,0,0,0-1.19,1.71,8.57,8.57,0,0,1-4.72-1.81c-.68.79-2.18,1.49-5.2,1.83a7,7,0,0,0-.72-1.17H589.9v-1.64h5.44v1.1c3.44-.36,3.89-1.17,3.89-1.84v-.26h-1.08a7.87,7.87,0,0,1-1.26,1.54,10.25,10.25,0,0,0-1.58-1.09,7.26,7.26,0,0,0,2.1-3.21l1.87.41c-.09.27-.19.54-.3.8h5.11l.33-.09,1.45.45a15.6,15.6,0,0,1-1.65,2.84l-1.66-.61a11.88,11.88,0,0,0,.63-1h-2v.55Zm.49,10.59c1.66.61,3.42,1.33,4.48,1.86l-1.92,1.15a32.94,32.94,0,0,0-4.68-2.13l1.09-.88h-5.07l1.56.72a22.94,22.94,0,0,1-5.62,2.34,15.63,15.63,0,0,0-1.58-1.57,20.37,20.37,0,0,0,4.92-1.49h-2.6V387.9h12v7.31Zm-6.75-11.34h-4.61V382.3h4.61Zm-.6,6.08h7.8v-.77h-7.8Zm0,2h7.8v-.77h-7.8Zm0,2h7.8v-.81h-7.8Z" fill="#002a5e"/><path d="M614.48,386.08h-6.61v-1.69h2.86a15,15,0,0,0-1.06-2.27l1.53-.77a19.92,19.92,0,0,1,1.21,2.39l-1.1.65h3.17Zm-5.87,2.43v-1.62h5.22v1.62Zm0,.79h5.25v1.62h-5.25Zm5.25,7.94h-3.6V398h-1.64v-6.21h5.24Zm-3.6-3.74v2h1.91v-2Zm12.53-11.16c-.16,5.92-.14,13.3.53,13.52a9.61,9.61,0,0,0,.23-2.29,9.6,9.6,0,0,0,1.12,1.73c-.27,2.63-1.19,3.19-2.31,2.72-1.71-.72-1.73-6.95-1.71-13.65h-2.18v4.75h1.73v2h-1.73v7.1h-2v-7.1h-2v-2h2v-4.75h-1.76v-2Z" fill="#002a5e"/><path d="M642.27,394.94h-6.88v1.3c0,.95-.21,1.42-.95,1.71a10.39,10.39,0,0,1-3.08.27,6.9,6.9,0,0,0-.65-1.8c.85,0,1.93,0,2.2,0s.38-.05.38-.27v-1.22H626v-1.69h7.3v-.52a14.08,14.08,0,0,0,2-1.05h-5.78v-1.49h7.83l.45-.11,1.21,1.1a25.27,25.27,0,0,1-3.44,2.07h6.73Zm-13.92-3.38h-2v-3.7h1.35l-.33-5.34a24.85,24.85,0,0,0,3.64-1l.88,1.24a17.51,17.51,0,0,1-2.46.68l0,.53h2.29v1.33h-2.21l0,.61h2.22v.92a13.63,13.63,0,0,0,1.26-.68c-.35-.22-.69-.42-1-.6l1-.84c.36.17.74.39,1.13.61a7,7,0,0,0,.7-.76l1.41.42a8.65,8.65,0,0,1-1,1.08,7.14,7.14,0,0,1,1.1.82l-1.08.94a11.78,11.78,0,0,0-1-.88,13.17,13.17,0,0,1-1.46.93h5.83l.08-.63h-2.13V385.9h2.25l0-.61h-2.2V384H639l0-.6h-2.41V382h4.5c-.09,1.89-.23,4.18-.38,5.85H642v3.7h-2.13v-2.15H628.35Zm1.3-3.7h2.92c-.2-.23-.54-.57-.81-.82v.19h-2.15Zm5.58-3.31a11.3,11.3,0,0,0-.94-.76,8.88,8.88,0,0,1-1.45.91,9,9,0,0,0-1.12-1,8,8,0,0,0,1.37-.7c-.34-.2-.65-.38-1-.54l1-.83c.34.16.72.36,1.1.58a7.16,7.16,0,0,0,.65-.72l1.4.41a6.89,6.89,0,0,1-.9,1,10.81,10.81,0,0,1,.94.72Z" fill="#002a5e"/><circle cx="820.43" cy="399" r="34.55" fill="#fff" stroke="#002a5e" stroke-miterlimit="10" stroke-width="2"/><path d="M805.49,384.82h-2v-4.05h6.8v-.72h-6v-1.4h14.11v1.4h-6v.72h7v4.05H817.3l-.38,1.28a29,29,0,0,0-4.16-1l.42-1.21a25.26,25.26,0,0,1,4.05.85v-2.57h-1l.64.91a17.52,17.52,0,0,1-3.2.87l-.67-1a22.39,22.39,0,0,0,2.47-.77h-3.08v3.74h-2.09v-3.74h-3.44a19.55,19.55,0,0,1,2.81.73l-.57,1.16a22.62,22.62,0,0,0-3.1-.89l.5-1h-1v2.46c1.1-.12,2.61-.34,4.16-.57l.07,1.22-3.82.87ZM817,392.94c.91,0,1.08-.27,1.2-1.78a5.63,5.63,0,0,0,1.79.67c-.26,2.16-.85,2.73-2.81,2.73h-3.78c-2.45,0-3.16-.5-3.16-2.37v-.06h-3v.78h-2.06v-6.54h12.48v5.76h-5.38v.06c0,.64.21.75,1.29.75Zm-9.74-5.13v.81h3v-.81Zm3,2.88v-.81h-3v.81Zm5.32-2.88h-3.26v.81h3.26Zm0,2.88v-.81h-3.26v.81Z" fill="#002a5e"/><path d="M827,392.62c0,.92-.14,1.48-.68,1.78a4.72,4.72,0,0,1-2.45.38,7.19,7.19,0,0,0-.52-1.89c.66,0,1.33,0,1.56,0s.31-.08.31-.33v-4.19c-.36.38-.74.75-1.1,1.13l-.5-1.22a21.57,21.57,0,0,1-1.26,6.61,7.12,7.12,0,0,0-1.44-1.21c1-2.47,1-6,1-8.64v-6.43h5Zm-3.29-7.56c0,.77,0,1.64-.06,2.57.45-.3,1-.72,1.57-1.15V384.7l-.68.46a10.66,10.66,0,0,0-.83-1.24Zm0-4.5v2.25l.56-.36c.3.34.66.73,1,1.11v-3Zm5.81,4.51a19.8,19.8,0,0,0-2.23-3.65,28.5,28.5,0,0,0,1.94-3.37l1.86.43c-.54,1-1.21,2-1.76,2.92a24.5,24.5,0,0,1,2,3Zm4.09-.32c-.22.34-.45.68-.68,1h4.46v9h-2v-.63h-5.65v.71h-1.91v-9.06h2.95a14.25,14.25,0,0,0,.56-1.42l1.26.23a18.61,18.61,0,0,0-2.09-3.17,26.43,26.43,0,0,0,1.89-3.19l1.86.45c-.54.92-1.17,1.9-1.73,2.72a18.49,18.49,0,0,1,1.94,2.76l-1.28.54Zm1.8,2.74h-1.78l1.42.75a11.46,11.46,0,0,1-1.13,1.46,18.63,18.63,0,0,1,1.45,1.28l-1.2,1.19a12.31,12.31,0,0,0-1.44-1.32,12.91,12.91,0,0,1-1.93,1.39,6,6,0,0,0-1-1.12v1.26h5.65Zm-5.65,0v3.58a12.53,12.53,0,0,0,1.73-1.21c-.53-.37-1-.73-1.5-1l1.12-1c.48.29,1,.63,1.49,1a7,7,0,0,0,1-1.26Zm6.35-2.69a18.06,18.06,0,0,0-2.39-3.4,27.86,27.86,0,0,0,2-3.17l1.89.45c-.54.9-1.17,1.88-1.74,2.69a20.07,20.07,0,0,1,2,2.66Z" fill="#002a5e"/><path d="M809,414.37a21.27,21.27,0,0,0-1.08-2v7.32H805.8v-6.49a17.07,17.07,0,0,1-2,3.57,11.65,11.65,0,0,0-1-2,16.92,16.92,0,0,0,2.67-4.82h-2.43v-2h2.72v-2c-.71.11-1.37.22-2,.29a6.26,6.26,0,0,0-.58-1.65A28.94,28.94,0,0,0,809,403l1.21,1.75a16.25,16.25,0,0,1-2.32.66v2.47h2.37v2h-2.37v.14c.52.51,2,2.2,2.34,2.61Zm8.87.77v4.54h-2.1v-4.16l-5.44.93-.34-2,5.78-1V402.88h2.1v10.19l1.78-.31.35,2Zm-4.52-2.5a15.8,15.8,0,0,0-2.86-2.76l1.37-1.22a15.39,15.39,0,0,1,3,2.61Zm.47-4.76a13.59,13.59,0,0,0-2.68-2.7l1.4-1.22a14.32,14.32,0,0,1,2.78,2.59Z" fill="#002a5e"/><path d="M837.55,416.4h-6.88v1.3c0,.95-.21,1.42-.95,1.71a10.39,10.39,0,0,1-3.08.27,6.9,6.9,0,0,0-.65-1.8c.85,0,1.93,0,2.2,0s.38-.05.38-.27V416.4h-7.3v-1.69h7.3v-.52a14.08,14.08,0,0,0,2-1.05h-5.78v-1.49h7.83l.45-.11,1.21,1.1a25.27,25.27,0,0,1-3.44,2.07h6.73ZM823.63,413h-2v-3.7H823l-.33-5.34a24.85,24.85,0,0,0,3.64-1l.88,1.24a17.51,17.51,0,0,1-2.46.68l0,.53H827v1.33h-2.21l0,.61H827v.92a13.63,13.63,0,0,0,1.26-.68c-.35-.22-.69-.42-1-.6l1-.84c.36.17.74.39,1.13.61a7,7,0,0,0,.7-.76l1.41.42a7.92,7.92,0,0,1-1,1.08,7.14,7.14,0,0,1,1.1.82l-1.08.94a11.78,11.78,0,0,0-1-.88,13.17,13.17,0,0,1-1.46.93h5.83l.08-.63h-2.13v-1.33h2.25l0-.61H832v-1.33h2.29l0-.6h-2.41v-1.35h4.5c-.09,1.89-.23,4.18-.38,5.85h1.34V413h-2.13v-2.15H823.63Zm1.3-3.7h2.92c-.2-.23-.54-.57-.81-.82v.19h-2.15Zm5.58-3.31a11.3,11.3,0,0,0-.94-.76,8.88,8.88,0,0,1-1.45.91,9,9,0,0,0-1.12-1,8,8,0,0,0,1.37-.7c-.34-.2-.65-.38-1-.54l1-.83c.34.16.72.36,1.1.58a7.16,7.16,0,0,0,.65-.72l1.4.41a6.89,6.89,0,0,1-.9,1,10.81,10.81,0,0,1,.94.72Z" fill="#002a5e"/><circle cx="979.24" cy="328.49" r="34.55" fill="#fff" stroke="#002a5e" stroke-miterlimit="10" stroke-width="2"/><path d="M967.86,307.13a28,28,0,0,1-1.72,3.75v12.33H964v-9c-.38.45-.76.9-1.12,1.29a14.68,14.68,0,0,0-1.19-2.28,18.71,18.71,0,0,0,4.11-6.74Zm5.71,4.25v1.89h4.67v2h-4.67v2h4.9v2h-4.9v4h-2.19V311.38h-.69a19.82,19.82,0,0,1-2.36,3.49,14.76,14.76,0,0,0-1.64-1.49,17.77,17.77,0,0,0,3.82-6.79l2.07.52a21.21,21.21,0,0,1-.88,2.24h7v2Z" fill="#002a5e"/><path d="M986.73,320.42a13.89,13.89,0,0,1-5.24,2.39,8.18,8.18,0,0,0-1.26-1.54,15.47,15.47,0,0,0,5-1.53Zm9.54-3v1.76h-7v4.11h-2.13v-4.11H980.3v-1.76h6.86v-.8H982V315h5.18v-.81h-6.08v-1.62h3.31a9.1,9.1,0,0,0-.67-1.32l1.21-.27h-4.59v-1.67h2.45a15.94,15.94,0,0,0-1.16-2.24l1.84-.61a12.17,12.17,0,0,1,1.37,2.52l-.87.33h1.66v-2.94h2v2.94H989v-2.94h2v2.94h1.6l-.65-.2a15.27,15.27,0,0,0,1.15-2.59l2.26.52c-.51.83-1,1.64-1.45,2.27h2.33V311h-4.76l1.7.43-1.1,1.16h3.47v1.62h-6.24V315h5.4v1.54h-5.4v.8ZM985.88,311a7.83,7.83,0,0,1,.72,1.35l-1,.24h4.92l-.65-.2c.29-.42.66-1,.92-1.39Zm5.62,8.61c1.46.54,3.58,1.44,4.74,2l-1.52,1.17c-1-.59-3.15-1.54-4.66-2.17Z" fill="#002a5e"/><path d="M966,334.08a28.61,28.61,0,0,1-1,3.58h3.37V346h-3.44v1.31h-1.78v-5.58c-.24.34-.47.67-.72,1a12.36,12.36,0,0,0-.74-2.55,15.13,15.13,0,0,0,2.29-6h-1.91v-1.94h6.53v1.94Zm.58,5.48h-1.62v4.5h1.62Zm12.1,1.08h-1.89v7.49h-2v-7.49h-2.05c-.11,2.64-.63,5.65-2.48,7.61a8.68,8.68,0,0,0-1.62-1.24c1.55-1.67,2-4.18,2.1-6.37H969v-2h1.71v-4.45h-1.24v-2h8.82v2h-1.53v4.45h1.89Zm-3.93-2v-4.45h-2v4.45Z" fill="#002a5e"/><path d="M994.24,345.7c.41,0,.48-.33.56-2.56a6.6,6.6,0,0,0,2,.92c-.21,2.95-.77,3.74-2.32,3.74H992.8c-1.77,0-2.33-.63-2.33-2.73v-2.33h-2.35c-.45,2.11-2,4.29-6.69,5.49a10.34,10.34,0,0,0-1.51-1.83c3.73-.94,5.24-2.29,5.78-3.66h-4.41v-2H986v-2h2.27v2h4.44v4.29c0,.57.08.65.49.65Zm-11.53-9.15h-2.16v-3.67h6.58c-.13-.45-.26-.9-.38-1.28l2.27-.36c.18.5.37,1.1.54,1.64h6.55v3.51h-2.25V334.8h-2.54v2.31c0,.47.07.66.54.66H994a6.84,6.84,0,0,0,1.57-.14c0,.57.1,1.3.18,1.8a7,7,0,0,1-1.66.14H991.7c-2,0-2.52-.72-2.52-2.48V334.8h-1.86c-.34,2.56-1.37,4.09-5.49,4.95a5.11,5.11,0,0,0-1.11-1.74c3.4-.56,4.1-1.52,4.37-3.21h-2.38Z" fill="#002a5e"/><circle cx="996.96" cy="196.1" r="34.55" fill="#fff" stroke="#002a5e" stroke-miterlimit="10" stroke-width="2"/><path d="M995.16,176.47a21.69,21.69,0,0,1-1.67,6.64,7.73,7.73,0,0,0,3.09,3.28,6.64,6.64,0,0,0-1.35,1.66,9,9,0,0,1-2.84-3.12,10.42,10.42,0,0,1-3.89,3.21,8.93,8.93,0,0,0-.59-1l-.54.49a18.29,18.29,0,0,0-2.16-1.05,15.24,15.24,0,0,1-5,1.55,5.57,5.57,0,0,0-.83-1.38,17.59,17.59,0,0,0,3.76-.94c-.83-.29-1.69-.54-2.48-.74a16.89,16.89,0,0,0,1-1.37h-1.91v-1.44h2.82a8.06,8.06,0,0,0,.44-.81h-2.51v-3.19h3.19v-.52h-2.88v-2h-1.24V174.2h1.24v-1.86h2.88v-1.08h1.62v1.08h3.1v1.86h.93v1.51h-.93v2h-3.1v.52h3.35v.73a28.83,28.83,0,0,0,2.18-7.68l1.76.33c-.16,1-.37,2-.63,3h4.38v1.87Zm-12.87,3.74h1.42v-.79h-1.42Zm.12-6.53v.63h1.3v-.63Zm1.3,2.66v-.74h-1.3v.74Zm-.09,7.31c-.13.22-.27.42-.4.61.58.17,1.16.33,1.71.53a3.1,3.1,0,0,0,.94-1.14Zm4,0a3.88,3.88,0,0,1-1,1.79c.58.25,1.14.48,1.64.72a8.23,8.23,0,0,0,3.2-3.1,25.09,25.09,0,0,1-1.06-3.71,12.85,12.85,0,0,1-.74,1.53,10,10,0,0,0-1-1.06v1.58H984.9q-.2.4-.42.81h1.61v-.52h1.67v.52h1.5v1.44Zm-2.32-10v.63h1.41v-.63Zm1.41,2.66v-.74h-1.41v.74Zm-1.41,3.08v.79h1.48v-.79Zm6.16-2.95a24.85,24.85,0,0,0,1,4.34,22.7,22.7,0,0,0,.81-4.34Z" fill="#002a5e"/><path d="M1014.08,184.79h-6.88v1.29c0,1-.21,1.43-1,1.71a10.06,10.06,0,0,1-3.08.27,7.18,7.18,0,0,0-.65-1.8c.85,0,1.93,0,2.2,0s.38-.05.38-.27v-1.22h-7.3v-1.7h7.3v-.52a14,14,0,0,0,2-1h-5.78V180h7.83l.45-.1,1.21,1.09a25.27,25.27,0,0,1-3.44,2.07h6.73Zm-13.92-3.39h-2v-3.69h1.35l-.33-5.35a24,24,0,0,0,3.64-1l.88,1.25a17.51,17.51,0,0,1-2.46.68l0,.52h2.29v1.34h-2.22l0,.61h2.22v.92a13.67,13.67,0,0,0,1.26-.69l-1-.59,1-.85c.36.18.74.4,1.13.61a6.11,6.11,0,0,0,.7-.75l1.41.41a7.43,7.43,0,0,1-1,1.08,8.48,8.48,0,0,1,1.1.83l-1.08.94a13.67,13.67,0,0,0-1-.89,13.29,13.29,0,0,1-1.46.94h5.83l.08-.63h-2.13v-1.33h2.25l0-.61h-2.2V173.8h2.29l0-.59h-2.41v-1.35h4.5c-.09,1.89-.23,4.18-.38,5.85h1.34v3.69h-2.13v-2.14h-11.56Zm1.3-3.69h2.92c-.2-.23-.54-.58-.81-.83v.2h-2.15Zm5.58-3.31a8.3,8.3,0,0,0-.94-.76,8.8,8.8,0,0,1-1.45.9,9,9,0,0,0-1.12-.95,8,8,0,0,0,1.37-.7c-.34-.2-.65-.38-1-.55l1-.82c.34.16.72.36,1.1.57a6.22,6.22,0,0,0,.65-.72l1.4.42a6.89,6.89,0,0,1-.9,1c.36.25.68.5.94.72Z" fill="#002a5e"/><path d="M972.73,208.24a20.74,20.74,0,0,1-.79,4.4,7,7,0,0,0-1.59-.58,15,15,0,0,0,.72-4.09Zm3.2-1.06a6.06,6.06,0,0,0-.16-.81c-3.6.63-4.19.83-4.61,1a12.86,12.86,0,0,0-.66-1.91,3,3,0,0,0,1.4-1.19,12.68,12.68,0,0,0,1.1-1.42,6.42,6.42,0,0,0-2,.38c-.11-.42-.43-1.35-.65-1.89.34-.09.65-.44,1-1a20.91,20.91,0,0,0,2.11-4.41l1.9.83a28.63,28.63,0,0,1-2.5,4.48l1.19-.09a28.62,28.62,0,0,0,1.39-2.7l1.74,1.1a29.74,29.74,0,0,1-3.72,5.53l1.82-.29a14.12,14.12,0,0,0-.54-1.33l1.44-.56a16.21,16.21,0,0,1,1.26,3.6Zm-1.33.63a33.89,33.89,0,0,1,.49,3.71l-1.6.4c0-1-.2-2.54-.38-3.71Zm1.91-.52a29.37,29.37,0,0,1,.9,2.92l-1.51.55a22.58,22.58,0,0,0-.83-3Zm8.68,3.46c.32,0,.38-.35.43-2.45a5.84,5.84,0,0,0,1.8.79c-.18,2.77-.66,3.55-2,3.55h-1.3c-1.64,0-2-.63-2-2.52v-5.37l-1,.13c-.14,3.85-.63,6.55-3.56,8.15a5.54,5.54,0,0,0-1.3-1.67c2.38-1.23,2.74-3.21,2.85-6.21a4.75,4.75,0,0,0-1.23.28,16.56,16.56,0,0,0-.72-2.05c.44-.12.8-.56,1.25-1.29a15.56,15.56,0,0,0,1.08-1.88H977.3v-2h3.06c.29-.7.58-1.42.82-2.16l2.32.62c-.22.52-.43,1-.67,1.54h4.23v2h-5.24a31.57,31.57,0,0,1-1.71,2.85l3.8-.36-.83-1.41,1.73-.77a24,24,0,0,1,2.43,4.46l-1.87.87a12.4,12.4,0,0,0-.56-1.41l-.7.09v5.59c0,.55,0,.63.34.63Z" fill="#002a5e"/><path d="M996.6,200.81H989v-1.69h3.15a21.25,21.25,0,0,0-1.17-2.27l1.68-.78a18.7,18.7,0,0,1,1.31,2.4l-1.17.65h3.78Zm-6.79,2.43v-1.62h6v1.62Zm6,2.41h-6V204h6Zm0,6.32h-4.2v.76h-1.8v-6.22h6Zm-4.2-3.74v2H994v-2Zm13.56-4h-3.33V213h-2.23v-8.73h-3.15v-2.11h3.15v-5.65h2.23v5.65h3.33Z" fill="#002a5e"/><path d="M1023.08,209.67h-6.88V211c0,1-.21,1.42-1,1.71a10.39,10.39,0,0,1-3.08.27,7.18,7.18,0,0,0-.65-1.8c.85,0,1.93,0,2.2,0s.38,0,.38-.27v-1.22h-7.3V208h7.3v-.52a14,14,0,0,0,2-1h-5.78v-1.5h7.83l.45-.11,1.21,1.1a25.27,25.27,0,0,1-3.44,2.07h6.73Zm-13.92-3.39h-2v-3.69h1.35l-.33-5.35a24,24,0,0,0,3.64-1l.88,1.25a17.51,17.51,0,0,1-2.46.68l0,.52h2.29V200h-2.22l0,.61h2.22v.92a13.67,13.67,0,0,0,1.26-.69l-1-.59,1-.85c.36.18.74.4,1.13.61a6.11,6.11,0,0,0,.7-.75l1.41.41a7.43,7.43,0,0,1-1,1.08,8.48,8.48,0,0,1,1.1.83l-1.08.94a13.67,13.67,0,0,0-1-.89,13.29,13.29,0,0,1-1.46.94h5.83l.08-.63h-2.13v-1.33h2.25l0-.61h-2.2v-1.34h2.29l0-.59h-2.41v-1.35h4.5c-.09,1.89-.23,4.17-.38,5.85h1.34v3.69h-2.13v-2.14h-11.56Zm1.3-3.69h2.92c-.2-.23-.54-.58-.81-.83v.2h-2.15Zm5.58-3.31a8.3,8.3,0,0,0-.94-.76,8.8,8.8,0,0,1-1.45.9,9,9,0,0,0-1.12-.95,8.09,8.09,0,0,0,1.37-.71l-1-.54,1-.82c.34.16.72.36,1.1.57a6.22,6.22,0,0,0,.65-.72l1.4.42a6.89,6.89,0,0,1-.9,1c.36.25.68.5.94.72Z" fill="#002a5e"/><circle cx="827.16" cy="74.67" r="34.55" fill="#fff" stroke="#002a5e" stroke-miterlimit="10" stroke-width="2"/><path d="M814.13,64.85a15.16,15.16,0,0,0-.74-1.75v8.35h-1.83V64.54a16.4,16.4,0,0,1-1.23,3.19,12.89,12.89,0,0,0-.84-2.11,17.93,17.93,0,0,0,2-5.63H810V58h1.59V54.66h1.83V58h1.23v2h-1.23v.79c.4.54,1.43,2.21,1.68,2.64Zm11.38,1.24a10.18,10.18,0,0,1-2,2.65,1.75,1.75,0,0,0,1.12.64c.34,0,.55-.61.68-1.87a5.57,5.57,0,0,0,1.35,1.14c-.47,2.23-1.19,2.86-2,2.8a3.7,3.7,0,0,1-2.65-1.53,13.46,13.46,0,0,1-2.84,1.5,8.69,8.69,0,0,0-1.1-1.37,11.48,11.48,0,0,0,3.09-1.62,15.52,15.52,0,0,1-.91-2.88h-2.45c0,.12,0,.27,0,.4.74.59,1.77,1.42,2.29,1.92l-1.3,1.28c-.31-.36-.83-.83-1.35-1.32A7,7,0,0,1,815,71.45a6.68,6.68,0,0,0-1.42-1.22,5.85,5.85,0,0,0,2.45-4.68H815V63.91h5a56.14,56.14,0,0,1-.61-6.3A24.64,24.64,0,0,1,817,61.35l1-.11c-.08-.28-.16-.57-.24-.8l1.24-.33a16.22,16.22,0,0,1,.71,2.59l-1.32.4a4,4,0,0,0-.1-.61,10.19,10.19,0,0,0-2.83.56,14.73,14.73,0,0,0-.49-1.46,1.75,1.75,0,0,0,.88-.81,12,12,0,0,0,.87-1.3,4.92,4.92,0,0,0-1.44.31,12,12,0,0,0-.51-1.44,1.34,1.34,0,0,0,.65-.65,12.67,12.67,0,0,0,1.19-2.88l1.55.41a17.92,17.92,0,0,1-1.55,3l.81,0c.18-.38.36-.76.5-1.12l1.5.49c0-.87-.07-1.8-.11-2.74h1.77a59.25,59.25,0,0,0,.75,9.11h1.66c-.31-.27-.65-.54-.94-.77l.81-.67a4.4,4.4,0,0,0-1.28.32,13.8,13.8,0,0,0-.48-1.47,2,2,0,0,0,.88-.83,8.9,8.9,0,0,0,.83-1.28,4.78,4.78,0,0,0-1.41.31c-.09-.33-.34-1-.5-1.44.22-.06.41-.29.61-.62a13.71,13.71,0,0,0,1.08-2.72l1.53.42a15,15,0,0,1-1.4,2.77l.81,0c.16-.36.32-.76.47-1.12l1.55.51a21.71,21.71,0,0,1-2.42,3.81l1-.12c-.09-.26-.16-.52-.25-.74l1.22-.34a19.26,19.26,0,0,1,.83,2.61l-1.28.43c0-.2-.09-.45-.16-.72l-1.13.18a15.19,15.19,0,0,1,1.37,1.1l-.47.43h1.44v1.64h-2.09Zm-3.37-.54a14,14,0,0,0,.49,1.57,8.65,8.65,0,0,0,1.06-1.57Z" fill="#002a5e"/><path d="M841.21,63.78a19.59,19.59,0,0,1,3.45,2.45l-1.44,1.25c-.14-.15-.3-.31-.48-.47v4.34h-2v-.44h-2.12v.54H836.8V65.67H841a23.46,23.46,0,0,0-3.28-1.89h-3.4a12.26,12.26,0,0,1-2.22,1.89h3.46v5.68h-1.94v-.44h-2.07v.54H829.7V67.08l-1,.43a6.51,6.51,0,0,0-1.12-1.62,15,15,0,0,0,3.93-2.11H828V62h5.34a8.87,8.87,0,0,0,.92-1.37h-5V55.39h6.08v4.92l1.21.23a10.42,10.42,0,0,1-.81,1.46h4a13.13,13.13,0,0,0-1.64-.81l.58-.56H837V55.39h6.14v5.24h-3a10.32,10.32,0,0,1,1.53.9l-.47.47h3.08v1.78Zm-7.84-6.71h-2.23v1.87h2.23Zm.26,10.28h-2.07V69.2h2.07Zm7.14,1.85V67.35h-2.12V69.2Zm-1.9-10.26h2.34V57.07h-2.34Z" fill="#002a5e"/><path d="M826.29,93.06h-6.88v1.29c0,1-.22,1.43-1,1.71a10,10,0,0,1-3.08.27,7.15,7.15,0,0,0-.64-1.8c.84,0,1.92,0,2.19,0s.38,0,.38-.27V93.06H810v-1.7h7.29v-.52a13.47,13.47,0,0,0,2-1H813.5V88.3h7.83l.45-.1L823,89.29a24.67,24.67,0,0,1-3.44,2.07h6.74Zm-13.92-3.39h-2V86h1.35l-.32-5.35a24.31,24.31,0,0,0,3.64-1l.88,1.25a17.29,17.29,0,0,1-2.47.68l0,.52h2.28v1.34h-2.21l0,.61h2.21v.92a13.67,13.67,0,0,0,1.26-.69c-.34-.21-.68-.41-1-.59l1-.85c.36.18.74.4,1.14.61a7,7,0,0,0,.7-.75l1.4.41a7.35,7.35,0,0,1-1,1.08,9.23,9.23,0,0,1,1.1.83l-1.08.94a12.25,12.25,0,0,0-1.05-.89,12.41,12.41,0,0,1-1.46.94h5.84l.07-.63H820.6V84h2.25l0-.61h-2.19V82.07H823l0-.59H820.6V80.13h4.5c-.09,1.89-.24,4.18-.38,5.85h1.33v3.69h-2.12V87.53H812.37ZM813.66,86h2.92c-.2-.23-.54-.58-.81-.83v.2h-2.14Zm5.59-3.31a9.31,9.31,0,0,0-.94-.76,8.87,8.87,0,0,1-1.46.9,7.75,7.75,0,0,0-1.12-1,8.84,8.84,0,0,0,1.37-.7c-.34-.2-.65-.38-1-.55l1-.82c.34.16.72.36,1.09.57a5.42,5.42,0,0,0,.65-.72l1.41.42a7.53,7.53,0,0,1-.9,1,10.53,10.53,0,0,1,.93.72Z" fill="#002a5e"/><path d="M832.83,85.89c-1.44.63-3,1.26-4.24,1.78l-.74-1.74c1.17-.36,2.93-1,4.66-1.57Zm4.49,1.6c-.22.47-.47.92-.7,1.32h5.7v7.58h-2.23v-.65h-7.71v.65h-2.12V88.81h4.23c.15-.35.27-.72.38-1l-.06,0a7,7,0,0,1-2.44.23,6.33,6.33,0,0,0-.54-1.51c.61,0,1.31,0,1.51,0s.27-.07.27-.25V82h-3.48a11.35,11.35,0,0,1,2,1.35l-1.08,1.37a9.78,9.78,0,0,0-2.27-1.64l.9-1.08h-1.37V80.33h7.22v6a2.22,2.22,0,0,1-.14.93Zm2.77,2.94h-7.71v1h7.71Zm0,3.69V93.07h-7.71v1.05Zm3.58-7.89c0,.87-.18,1.3-.79,1.57a6.61,6.61,0,0,1-2.63.27,6.5,6.5,0,0,0-.57-1.62c.68,0,1.47,0,1.69,0s.31-.07.31-.27V82h-3.44a11.46,11.46,0,0,1,2,1.28l-1,1.3c.54-.2,1.1-.38,1.66-.58l.32,1.53c-1.55.6-3.2,1.21-4.53,1.69L836,85.6c.83-.25,1.93-.59,3.1-1a10.88,10.88,0,0,0-2.27-1.56l.87-1.07h-1.17V80.33h7.16Z" fill="#002a5e"/><circle cx="613.93" cy="59.2" r="34.55" fill="#fff" stroke="#002a5e" stroke-miterlimit="10" stroke-width="2"/><path d="M591.11,58.71a48.59,48.59,0,0,1-1.32,7.47l-2.16-.86a35.65,35.65,0,0,0,1.39-7Zm3.38-1.46v8.36c0,.84.15,1,1,1h2.58c.9,0,1.06-.58,1.18-3.39a6.52,6.52,0,0,0,2,.9c-.25,3.42-.83,4.48-3,4.48h-3c-2.34,0-3-.72-3-3V57.25Zm-.16-4.84a32.7,32.7,0,0,1,5,3.72l-1.59,1.68a30.72,30.72,0,0,0-4.86-3.94Zm7.85,5.33a32.67,32.67,0,0,1,2.32,6.7l-2.18.9a30.16,30.16,0,0,0-2.14-6.79Z" fill="#002a5e"/><path d="M611.75,65.34c-2,.7-4.14,1.38-5.87,1.94l-.48-2.18,2.2-.59V60.28h-1.82v-2h1.82V55.14h-2v-2h5.95v2h-1.93v3.17h1.62v2h-1.62v3.6c.59-.18,1.19-.36,1.76-.56Zm10.7,1.09v1.95H610.87V66.43h5V64.72h-3.73V62.8h3.73V61.25h-3.6V52.88h9.4v8.37H618V62.8h3.82v1.92H618v1.71Zm-8.28-10.22H616V54.69h-1.85Zm0,3.22H616V57.88h-1.85Zm5.43-4.74h-1.78v1.52h1.78Zm0,3.19h-1.78v1.55h1.78Z" fill="#002a5e"/><path d="M640.05,65.64h-6.87v1.3c0,1-.22,1.42-1,1.71a10.39,10.39,0,0,1-3.08.27,6.56,6.56,0,0,0-.65-1.8c.85,0,1.93,0,2.2,0s.38-.06.38-.27V65.64h-7.29V64h7.29v-.52a13.55,13.55,0,0,0,2-1h-5.78V60.89h7.83l.45-.11,1.21,1.1A25.27,25.27,0,0,1,633.32,64h6.73Zm-13.91-3.38h-2V58.57h1.35l-.32-5.35a25.07,25.07,0,0,0,3.63-1l.89,1.24a17.64,17.64,0,0,1-2.47.69l0,.52h2.28V56h-2.21l0,.61h2.22v.92a11.6,11.6,0,0,0,1.26-.68c-.34-.22-.69-.42-1-.6l1-.84c.36.18.74.39,1.13.61a6.28,6.28,0,0,0,.71-.76l1.4.42a7.9,7.9,0,0,1-.95,1.08,9.23,9.23,0,0,1,1.1.83l-1.08.93c-.28-.27-.64-.56-1.05-.88a12.41,12.41,0,0,1-1.46.94h5.84l.07-.63h-2.13V56.6h2.25l0-.61h-2.2V54.66h2.29l0-.6h-2.42V52.71h4.5c-.09,1.89-.23,4.18-.37,5.86h1.33v3.69h-2.13V60.11H626.14Zm1.29-3.69h2.92a10.39,10.39,0,0,0-.81-.83v.2H627.4ZM633,55.25a9.38,9.38,0,0,0-.93-.75,10.13,10.13,0,0,1-1.46.9,9,9,0,0,0-1.12-1,8,8,0,0,0,1.37-.7c-.34-.2-.65-.38-1-.54l1-.83c.34.16.72.36,1.1.58a7.16,7.16,0,0,0,.65-.72l1.4.41a6.4,6.4,0,0,1-.9,1c.36.25.69.51.94.72Z" fill="#002a5e"/><circle cx="725.11" cy="183.67" r="89.79" fill="#f8a908" stroke="#002a5e" stroke-miterlimit="10" stroke-width="2"/><path d="M712.66,204.59c.72,0,.87-.31,1-1.89a5.62,5.62,0,0,0,1.72.73c-.23,2.25-.79,2.94-2.53,2.94h-3.14c-2.12,0-2.7-.58-2.7-2.63V200.3l-.74.32-.73-1.72c-.08,4.39-.2,6.12-.62,6.68a1.54,1.54,0,0,1-1.15.75,9.17,9.17,0,0,1-1.85.09,5.15,5.15,0,0,0-.53-1.91,9.25,9.25,0,0,0,1.32.08.5.5,0,0,0,.5-.29c.24-.36.34-1.89.42-6.11H702.2c-.25,3.25-.83,6.14-2.32,8.22a5.9,5.9,0,0,0-1.53-1.5c1.78-2.47,1.94-6.41,2-10.59h-1.73v-2h3.13A15.86,15.86,0,0,0,701,190l1.91-.45a24.63,24.63,0,0,1,.85,2.36l-1.46.41h3.57v1.89a12.74,12.74,0,0,0,2-4.64l2.08.41c-.16.65-.34,1.26-.55,1.87h5.69v1.95h-6.49a12.19,12.19,0,0,1-1,1.75h1.31v1.72l1-.43v-2.59h1.79V196l1.33-.62.31-.21,1.4.38-.09.28a56.11,56.11,0,0,1-.43,6.23l-1.51-.28c.09-1.09.14-2.69.16-4.24l-1.17.54v5.05h-1.79V199l-1,.45v4.34c0,.74.13.85,1,.85Zm-5.67-6.4V196.3l-.16.18a12.16,12.16,0,0,0-1.6-1.51,6,6,0,0,0,.57-.65h-3.44c0,.65,0,1.28-.05,1.93h3.24v.83l0,1.8Z" fill="#002a5e"/><path d="M733.35,205.85H727v.59H725.1v-7l-.18.18a11.87,11.87,0,0,0-1.58-1.19,10,10,0,0,0,2.71-4h-5.13l1,.39a16.76,16.76,0,0,1-2,2.5l1.31,0a15.85,15.85,0,0,0,1.18-1.62l1.6.92a25.86,25.86,0,0,1-3.53,3.67l2.07-.2c-.14-.32-.29-.61-.42-.9l1.41-.5a11.69,11.69,0,0,1,1.17,3l-1.51.56c0-.24-.11-.51-.18-.78-4,.44-4.72.56-5.19.74a7.76,7.76,0,0,0-.65-1.35,3.24,3.24,0,0,0,1.48-.88c.23-.2.68-.59,1.22-1.14a9.38,9.38,0,0,0-2.21.33,9.1,9.1,0,0,0-.68-1.37,1.84,1.84,0,0,0,1-.67,13.56,13.56,0,0,0,1.91-2.62h-2.09V190.2h14.6v4.29h-6l1.62.39a15,15,0,0,1-.72,1.59H729a12.29,12.29,0,0,0-.6-1.37l1.64-.49a9.14,9.14,0,0,1,.85,1.86h2.23v1.69h-2.36v1h1.88v1.53h-1.88v1h1.88v1.53h-1.88v1h2.6Zm-13.92-3a12.68,12.68,0,0,1-.87,3.22c-.39-.12-1.18-.28-1.63-.37a8.86,8.86,0,0,0,.84-3.06Zm2-.25a17.45,17.45,0,0,1,.54,2.93l-1.66.31a14.48,14.48,0,0,0-.45-3Zm.56-10.84h-2.11V193H722Zm1.51,10.48a13.4,13.4,0,0,1,1.12,2.72l-1.57.38a12.93,12.93,0,0,0-1-2.76Zm.45-9.26h2.16v-1.22h-2.16Zm5,5.21H727v1h1.84Zm0,2.48H727v1h1.84Zm-1.84,3.5h1.84v-1H727ZM728,193h2.21v-1.22H728Z" fill="#002a5e"/><path d="M740.47,194.25a25.22,25.22,0,0,1-1.4,2.5h0v9.67h-2v-6.86a18.49,18.49,0,0,1-1.3,1.48,19.15,19.15,0,0,0-1.17-2,19.64,19.64,0,0,0,3.93-5.47Zm-.32-3.85a29.6,29.6,0,0,1-4.41,5,16.11,16.11,0,0,0-1-1.76,18.51,18.51,0,0,0,3.49-4Zm-.92,14.44a10,10,0,0,0,1.4-3.33l1.62.63a13.59,13.59,0,0,1-1.42,3.62Zm12.42-4.05H746.2a20.56,20.56,0,0,1,1,1.91l-1.65.59c-.22-.56-.71-1.49-1.08-2.2l.91-.3H740v-1.71h11.61Zm-7.09-7.3c0-.28.07-.59.11-.91h-4.4v-1.7h4.54c0-.48.05-.91.07-1.33l2.27.07-.18,1.26h4.61v1.7h-4.84c-.06.32-.11.63-.15.91H751v4.78H740.92v-4.78Zm2.27,11.1c.5,0,.61-.2.66-1.5a6,6,0,0,0,1.64.63c-.2,2-.7,2.45-2.09,2.45h-2.23c-1.85,0-2.3-.5-2.3-2.07v-2.2h1.87v2.18c0,.45.11.51.7.51Zm-3-9.58H742.6v1.74h1.22Zm2.72,0h-1.26v1.74h1.26Zm1.44,1.74h1.31V195H748Zm1.93,4.65a12.93,12.93,0,0,1,1.9,3.4l-1.67.76a11.51,11.51,0,0,0-1.8-3.46Z" fill="#002a5e"/><path d="M686.82,218.81a21.68,21.68,0,0,1-1.68,6.64,7.75,7.75,0,0,0,3.1,3.28,6.82,6.82,0,0,0-1.35,1.66,9,9,0,0,1-2.85-3.12,10.42,10.42,0,0,1-3.89,3.21,7.67,7.67,0,0,0-.59-1l-.54.49a18.29,18.29,0,0,0-2.16-1,15.16,15.16,0,0,1-5,1.55,5.28,5.28,0,0,0-.83-1.38,17.43,17.43,0,0,0,3.76-.94c-.82-.29-1.69-.54-2.48-.74a13.54,13.54,0,0,0,1-1.37h-1.91v-1.44h2.83c.16-.27.3-.54.43-.81h-2.5v-3.18h3.18V220h-2.88v-2h-1.24v-1.51h1.24v-1.85h2.88v-1.08H677v1.08h3.1v1.85H681v1.51h-.94v2H677v.53h3.35v.72a28.86,28.86,0,0,0,2.18-7.67l1.77.32c-.17,1-.38,2-.63,3H688v1.87Zm-12.88,3.74h1.42v-.79h-1.42Zm.13-6.53v.63h1.29V216Zm1.29,2.66V218h-1.29v.73Zm-.09,7.31c-.12.22-.27.42-.39.62.57.16,1.15.32,1.71.52a3,3,0,0,0,.93-1.14Zm4,0a4,4,0,0,1-1,1.79c.57.25,1.13.48,1.63.72a8.26,8.26,0,0,0,3.21-3.1,23.94,23.94,0,0,1-1.06-3.71,16.9,16.9,0,0,1-.74,1.53,11.4,11.4,0,0,0-1-1.06v1.58h-3.78c-.12.27-.27.54-.41.81h1.6V224h1.68v.52h1.49V226ZM677,216v.63h1.41V216Zm1.41,2.66V218H677v.73ZM677,221.76v.79h1.48v-.79Zm6.16-2.95a25.79,25.79,0,0,0,1,4.34,22,22,0,0,0,.81-4.34Z" fill="#002a5e"/><path d="M693.26,223.54v4.65c0,1-.17,1.51-.72,1.84a4.43,4.43,0,0,1-2.44.39,7.18,7.18,0,0,0-.54-1.94c.65,0,1.26,0,1.48,0s.31-.07.31-.32v-4.07c-.6.18-1.16.33-1.7.47l-.46-2q.94-.21,2.16-.54v-3h-1.84v-2h1.84v-3.39h1.91V217h1.38v2h-1.38v2.5l1.36-.38.27,1.93Zm3.65-1.45c0,2.53-.25,6.06-1.84,8.32a7.07,7.07,0,0,0-1.56-1.07c1.44-2.05,1.56-5,1.56-7.25v-5.35H699v-3.08h2v.88h4.11V216H701v.72h3.41l.28,0L706,217a21.35,21.35,0,0,1-.88,2.92l-1.6-.34a11.67,11.67,0,0,0,.36-1.28h-3.23v.67l2.43-.22.13,1.15-2.56.24c0,.34.11.48.52.48h2a10.07,10.07,0,0,0,1.51-.1c0,.45.07.84.13,1.26a7.25,7.25,0,0,1-1.52.1h-2.55c-1.26,0-1.69-.41-1.82-1.24l-1.69.18-.17-1.53,1.82-.16v-.83h-2.05Zm9.2,2.72c-.54.3-1.13.59-1.75.86a5.46,5.46,0,0,0,2.06,2.92,6.07,6.07,0,0,0-1.17,1.31,6.83,6.83,0,0,1-2.13-3.71c-.21.09-.43.15-.63.22a3.43,3.43,0,0,1-.41,3.46,1.8,1.8,0,0,1-1.42.59c-.29,0-.63,0-.94,0a3.42,3.42,0,0,0-.41-1.49,8.14,8.14,0,0,0,1,.07.67.67,0,0,0,.63-.27,1.61,1.61,0,0,0,.26-1.06,18.23,18.23,0,0,1-4.22,2.14,7.07,7.07,0,0,0-.77-1.1,13.6,13.6,0,0,0,4.72-2.25c-.06-.14-.13-.25-.2-.4a16.66,16.66,0,0,1-3.41,1.61,3.78,3.78,0,0,0-.7-1.05,11.86,11.86,0,0,0,3.53-1.37c-.11-.09-.18-.19-.29-.28a17.18,17.18,0,0,1-2.34.82,5.56,5.56,0,0,0-.57-1,16.08,16.08,0,0,0,3.29-1.17h-3v-1.37H706v1.37h-3.74a8.36,8.36,0,0,1-1.14.76,4.06,4.06,0,0,1,.85,1,28.87,28.87,0,0,0,3-1.48Z" fill="#002a5e"/><path d="M710.75,222.1a24.91,24.91,0,0,0-3.28-1.85l1.09-1.6a17.63,17.63,0,0,1,3.34,1.67Zm-2.82,6.59a49.4,49.4,0,0,0,3-5.52l1.66,1.42c-.81,1.85-1.82,3.82-2.78,5.54Zm1.56-14.83a23.17,23.17,0,0,1,3.19,1.73l-1.24,1.74a20.94,20.94,0,0,0-3.14-1.91ZM723.81,228c0,1.08-.18,1.68-.83,2.06a6.26,6.26,0,0,1-2.94.41,7.28,7.28,0,0,0-.63-2.16c.81.05,1.69,0,2,0s.36-.09.36-.38V216.18h-7v14.24h-2V214.25h11.11Zm-2.78-8.8h-5.58v-1.76H721Zm-3.65,7.27v1.05h-1.64v-7.13h5v6.08Zm0-4.32v2.54H719v-2.54Z" fill="#002a5e"/><path d="M739.83,228.24c.61,0,.72-.3.81-2.39a7,7,0,0,0,2,.85c-.24,2.84-.79,3.58-2.58,3.58h-2.37c-2.15,0-2.65-.65-2.65-2.67v-2.88h-2.18c-.38,2.87-1.44,4.76-5.89,5.76a6.53,6.53,0,0,0-1.19-1.9c3.7-.69,4.47-1.89,4.78-3.86h-2.2V214.16H740.1v10.57h-2.94v2.87c0,.57.11.64.79.64Zm-9.44-11.09h7.53V216h-7.53Zm0,2.85h7.53v-1.12h-7.53Zm0,2.86h7.53v-1.12h-7.53Z" fill="#002a5e"/><path d="M759.91,214.2v16.21h-2v-.87H746.73v.9h-1.92V214.2Zm-2,13.74V215.82H746.73v12.12Zm-.4-2.58h-2.32v1.14c0,.68-.14.9-.65,1.06a8,8,0,0,1-2.2.16,4.35,4.35,0,0,0-.43-1.08c.51,0,1.1,0,1.26,0s.26,0,.26-.21v-1.07h-3.19a7.37,7.37,0,0,1,1.2,1.44l-1.42.72a7.15,7.15,0,0,0-1.24-1.62l1.13-.54h-2.79v-1.15h6.31v-.52h1.76v.52h1a5.15,5.15,0,0,0-.52-.61c-3,.11-5.94.2-8.14.23l-.07-1.13h4v-.6h-3.57v-3.67h3.57v-.52h-4.07v-1.17h4.07v-.67h1.74v.67h4.11v1.17h-4.11v.52h3.62v3.67h-.9a9.89,9.89,0,0,1,1.5,1.41l-1,.7h1.08Zm-8-5.52h1.93v-.53h-1.93Zm1.93,1.36v-.52h-1.93v.52Zm1.74-1.89v.53h1.91v-.53Zm1.91,1.37h-1.91v.52h1.91Zm-1.91,2,1.43,0-.18-.14.61-.42h-1.86Z" fill="#002a5e"/><path d="M768.46,215.1c-.47,1.53-1.08,3.49-1.57,4.9a5.6,5.6,0,0,1,1.32,3.62c0,1.17-.24,1.91-.81,2.3a2.13,2.13,0,0,1-1,.4,8.41,8.41,0,0,1-1.15,0,4.42,4.42,0,0,0-.47-1.81h.78a.85.85,0,0,0,.5-.16c.22-.16.29-.52.29-1a4.89,4.89,0,0,0-1.24-3.17c.36-1.11.72-2.7,1-3.92h-1.4v14.13h-1.86v-16h3.91l.31-.09Zm10.25,5.15a21.23,21.23,0,0,1-2.13,1.31,14.79,14.79,0,0,0,2.72,5,7.19,7.19,0,0,0-1.35,1.35,18.08,18.08,0,0,1-2.86-5.49l-.07,0c.86,2.86.46,5.87-.55,6.86a2.44,2.44,0,0,1-2.1.92c-.38,0-1,0-1.46,0a4.6,4.6,0,0,0-.5-1.91,14,14,0,0,0,1.58.09.91.91,0,0,0,1-.5,3.86,3.86,0,0,0,.56-2.32,18.71,18.71,0,0,1-4.52,2.55,6.79,6.79,0,0,0-1.26-1.49,14.2,14.2,0,0,0,5.6-3.08c-.07-.29-.14-.61-.25-.94a20.25,20.25,0,0,1-3.49,2.22,7.65,7.65,0,0,0-1.14-1.52,14.75,14.75,0,0,0,4-2.21,8.45,8.45,0,0,0-.63-1,18.71,18.71,0,0,1-2.9,1.69,12.8,12.8,0,0,0-1.25-1.51,14.09,14.09,0,0,0,3.71-2h-3.13v-1.84h2.85a12.13,12.13,0,0,0-1.71-1.82l1.56-1a9.46,9.46,0,0,1,2.14,2.16l-.86.61h1.62a17.25,17.25,0,0,0,1.64-2.79l2.05.58c-.48.79-1,1.56-1.49,2.21h2.66v1.86H774a10.32,10.32,0,0,1-.75.72,7.27,7.27,0,0,1,1.2,1.87,23.2,23.2,0,0,0,3-2Z" fill="#002a5e"/><circle cx="728.67" cy="328.49" r="41.85" fill="#7d3787" stroke="#002a5e" stroke-miterlimit="10" stroke-width="2"/><path d="M726.42,307.94v15.85H724.8v-.67H712.92v.67h-1.57V307.94Zm-1.62,13.79V309.34H712.92v12.39Zm-.68-8.15v1H713.64v-1h4.45v-.71h-2.81v-2.8h7.13v2.8h-2.9v.71Zm-9.42,1.63H723v5.71h-8.3Zm1.3,4.72h5.63v-3.74H716Zm.65-8H721v-1h-4.34Zm.3,4.87h3.73v2.44H717Zm1,1.64h1.74v-.84h-1.74Z" fill="#fff"/><path d="M734,307.83a26.87,26.87,0,0,1-1.76,3.91v12h-1.59v-9.44A17.25,17.25,0,0,1,729.3,316a8.21,8.21,0,0,0-.92-1.69,19.92,19.92,0,0,0,4-6.95Zm10.32,8.54c-.58.34-1.23.68-1.87,1a7.51,7.51,0,0,0,2.84,4.09,5.81,5.81,0,0,0-1,1.24,9.11,9.11,0,0,1-3-4.75c-.22.09-.43.2-.63.27.67,2,.41,4-.4,4.83a2.11,2.11,0,0,1-1.67.68l-1.15,0a3.72,3.72,0,0,0-.38-1.43,9.29,9.29,0,0,0,1.19.07A.89.89,0,0,0,739,322a3,3,0,0,0,.41-2.2,17.43,17.43,0,0,1-5.56,3.2,5.43,5.43,0,0,0-.95-1.15,15.37,15.37,0,0,0,6.19-3.44c-.09-.25-.22-.5-.34-.77a17.63,17.63,0,0,1-4.85,2.72,5.51,5.51,0,0,0-.9-1.06,15,15,0,0,0,5.14-2.6,5.34,5.34,0,0,0-.65-.7,17.3,17.3,0,0,1-3.75,2,5.45,5.45,0,0,0-.88-1.06,17.93,17.93,0,0,0,4-1.83h-2.61v-2.67l-.82.65a4.85,4.85,0,0,0-1-1.1,12.8,12.8,0,0,0,4-4.63l1.54.29a7.84,7.84,0,0,1-.54,1h3l.33-.09,1,.72a18.93,18.93,0,0,1-1.37,1.86H744v4H738.7l-.18.16a6.15,6.15,0,0,1,1.58,1.92,26.23,26.23,0,0,0,3-1.82Zm-7.67-6.54c-.31.4-.63.81-1,1.21h3a10.27,10.27,0,0,0,.9-1.21Zm-.85,4h2.52V312.3h-2.52Zm6.68-1.49h-2.65v1.49h2.65Z" fill="#fff"/><path d="M715.3,340.94a16.8,16.8,0,0,1-.92,3.8c1.1,1.93,3.24,2.21,6.43,2.21,1.89,0,4.62-.09,6.53-.27a5.81,5.81,0,0,0-.54,1.55c-1.74.11-4,.16-6,.16-3.48,0-5.64-.36-7-2.3a8.12,8.12,0,0,1-2.2,2.65,5.14,5.14,0,0,0-1.12-1.16,8.53,8.53,0,0,0,3.21-5.58h-1.51a2,2,0,0,0-1.08.27,8.57,8.57,0,0,0-.56-1.42,1.67,1.67,0,0,0,.88-.56,25.67,25.67,0,0,0,1.93-2.63h-2.54v-1.35h3.55l.23-.11,1.06.47c-.7,1-1.91,2.79-2.84,4h1.55l.27,0Zm-1.88-5.17a20,20,0,0,0-2.12-2.88l1.28-.74a24,24,0,0,1,2.18,2.74ZM717,336H715.6v-3.29h10.81V336h-1.28v.6h-3.26v.9h3.78v5.16h-3.78v1h4.75v1.28h-4.75v1.33h-1.62v-1.33h-4.5v-1.28h4.5v-1h-3.68v-5.16h3.68v-.9H717Zm.12-2v1.42h3.12v-.79h1.62v.79h2.93V334Zm.81,5.58h2.31v-1h-2.31Zm2.31,2v-1h-2.31v1Zm1.62-3v1h2.34v-1Zm2.34,2h-2.34v1h2.34Z" fill="#fff"/><path d="M745,334.6h-2.77a7.44,7.44,0,0,1,1,1.21l-1,.45h.9V343h-2.14v1.37h4v1.35h-4v3H739.2v-3h-4.44c-.45,1.14-1.61,2.22-4.24,3a6.52,6.52,0,0,0-1-1.24,5.63,5.63,0,0,0,3.38-1.8h-4v-1.35h4.41V343H731v-6.73h2.59a6.85,6.85,0,0,0-.68-1.23l1.26-.41h-2.49a14.61,14.61,0,0,1-2.09,2.48c-.23-.3-.77-1-1.08-1.31a10.44,10.44,0,0,0,2.81-3.75l1.53.49c-.12.29-.27.54-.41.83H737v1.26h-2.7a7.68,7.68,0,0,1,.76,1.24l-1.19.4h3.76a9.67,9.67,0,0,0-1.29-.7,8,8,0,0,0,2.52-3.53l1.6.39c-.13.33-.27.63-.41.94H745Zm-3.67,2.72H732.7v.85h8.61Zm0,1.84H732.7V340h8.61Zm0,1.89H732.7v.9h8.61ZM739.2,343H735v1.37h4.19Zm2.56-6.73a6.75,6.75,0,0,0-1-1.24l.91-.42h-2.37a10.1,10.1,0,0,1-1.37,1.66Z" fill="#fff"/><circle cx="869.02" cy="183.67" r="41.85" fill="#7d3787" stroke="#002a5e" stroke-miterlimit="10" stroke-width="2"/><path d="M858,171.15c-.52-.43-1.69-1.28-2.56-1.87A7.65,7.65,0,0,1,852,172a5,5,0,0,0-1.06-1.11c2.09-.81,3-1.86,3.44-2.87h-3.26v-1.33h1.23a11.22,11.22,0,0,0-1.28-.75,8.42,8.42,0,0,0,2-3.55l1.49.31c-.12.41-.27.79-.41,1.18h4.66v1.34h-2.48v.93a4.87,4.87,0,0,1,0,.54h3V168H856l-.06.17c.74.36,2.72,1.53,3.21,1.87Zm-3.32-4.47a5.43,5.43,0,0,0,0-.56v-.91h-1.26a6.87,6.87,0,0,1-1,1.47Zm-1.08,4.86h11.29v7.4H863.2v-.61h-7.92V179h-1.66Zm1.66,1.34v1.4h7.92v-1.4Zm7.92,4.1v-1.44h-7.92V177Zm3.23-13.12v6.42h-6.5v-6.42Zm-1.66,1.47h-3.28v3.48h3.28Z" fill="#fff"/><path d="M872.6,175.15a11.41,11.41,0,0,1-2.45,3.85,14.8,14.8,0,0,0-1.33-1,8,8,0,0,0,2.17-3.26Zm3.65-.69h-6.43V163.14h6.43Zm-1.64-10h-3.2v2h3.2Zm0,3.28h-3.2v2h3.2Zm0,3.28h-3.2v2.05h3.2Zm.24,3.67a13.78,13.78,0,0,1,1.94,2.86l-1.42.74a14.7,14.7,0,0,0-1.89-3Zm10.66-6.5h-2.15V177c0,.9-.21,1.39-.75,1.68a7.35,7.35,0,0,1-2.74.32,6,6,0,0,0-.59-1.64c.93,0,1.78,0,2,0s.4-.09.4-.38v-6.61a17.57,17.57,0,0,1-4.27,5.77,7.28,7.28,0,0,0-1.15-1.21,16.21,16.21,0,0,0,4.81-6.7h-4.34v-1.57h5v-4.15h1.65v4.15h2.15Z" fill="#fff"/><path d="M867.33,200h-4.16v2.22c0,.79-.16,1.22-.81,1.46a10.77,10.77,0,0,1-3,.21,5.43,5.43,0,0,0-.52-1.44c1,0,2,0,2.29,0s.36-.09.36-.31V200h-6a14.44,14.44,0,0,1,2.45,2L856.78,203a14.8,14.8,0,0,0-2.83-2.34l.81-.71H851.1V198.6h10.43v-.92c-3.6.09-7.1.17-9.65.2l-.06-1.26,6.54,0v-.85H853v-5h5.37v-.84h-6.75v-1.3h6.75v-1.26H860v1.26h6.64v1.3H860v.84h5.54v5h-1.67a15.38,15.38,0,0,1,2.79,1.62l-1,.9a9.31,9.31,0,0,0-.94-.67l-1.56,0v1h4.16Zm-12.75-7.22h3.78v-.9h-3.78Zm3.78,2v-.94h-3.78v.94Zm1.64-2.87v.9h3.91v-.9Zm3.91,1.93H860v.94h3.91ZM860,196.59l2.9,0a10.38,10.38,0,0,0-1.1-.47l.41-.34H860Z" fill="#fff"/><path d="M874.38,192.66h3.26v1.55h-3.26v1.19c.88.65,2.77,2.27,3.26,2.7l-1,1.42c-.5-.58-1.45-1.57-2.3-2.38v6.68h-1.64v-7.14a18.69,18.69,0,0,1-3.11,4.8,11.08,11.08,0,0,0-.89-1.62,17.69,17.69,0,0,0,3.66-5.65h-3.26v-1.55h3.6V190c-1.1.21-2.21.39-3.26.52a4.92,4.92,0,0,0-.5-1.3,33.07,33.07,0,0,0,7.33-1.78l1.2,1.28a22.49,22.49,0,0,1-3.13.94Zm5.94,6.72H878.7v-9.91h1.62Zm4.36-11.71v14.07c0,1-.25,1.53-.88,1.81a10.72,10.72,0,0,1-3.39.31,7.7,7.7,0,0,0-.59-1.73c1.22.06,2.36.06,2.72,0s.46-.11.46-.43V187.67Z" fill="#fff"/><ellipse cx="223.73" cy="338.08" rx="142.47" ry="67.21" transform="translate(-103.94 99.37) rotate(-20.43)" fill="none" stroke="#002a5e" stroke-miterlimit="10" stroke-width="2"/><circle cx="310.66" cy="241.67" r="46.74" fill="#7d3787" stroke="#002a5e" stroke-miterlimit="10" stroke-width="2"/><path d="M286.25,233.27a7.81,7.81,0,0,0,2.95,1.9,5.43,5.43,0,0,0-.84,1,8.92,8.92,0,0,1-3.54-2.91h-4.18a8.52,8.52,0,0,1-1.23,1.41H282v-1.05h1.32v1.05h2.77v1h-2.77V237H288v1.08H277.45V237H282v-1.25H279.3v-.92a9.8,9.8,0,0,1-2.31,1.54,4.46,4.46,0,0,0-.84-1,8.36,8.36,0,0,0,3-2.07h-2.88v-1.08H279v-4.33h-2V226.8h2v-1.22h1.31v1.22h4.76v-1.21h1.33v1.21h2v1.06h-2v4.33H289v1.08Zm-5.94-5.41v.79h4.76v-.79Zm0,2.54h4.76v-.8h-4.76Zm0,1.79h4.76v-.84h-4.76Z" fill="#fff"/><path d="M297.32,230.87v1.7H302v1.17h-4.69v3.13h5.36v1.19h-12v-1.19h5.27v-3.13h-4.62v-1.17h4.62v-1.7H293v-.72a17.56,17.56,0,0,1-2,.89,4.7,4.7,0,0,0-.87-1.2,11.93,11.93,0,0,0,6.48-4.4l1.21.55c-.12.18-.23.36-.36.53a15,15,0,0,0,5.83,3.32,6.38,6.38,0,0,0-.9,1.13,14.76,14.76,0,0,1-2.09-.95v.85Zm-3.88,3a11.26,11.26,0,0,1,1.32,2.42l-1.14.49a11.58,11.58,0,0,0-1.25-2.49Zm6.2-4.22a16.18,16.18,0,0,1-3-2.27,12.66,12.66,0,0,1-2.81,2.27Zm-1.26,6.72a12.62,12.62,0,0,0,1.36-2.5l1.26.46c-.53.88-1.15,1.83-1.62,2.46Z" fill="#fff"/><path d="M308.42,234.07c0-.2-.08-.44-.14-.7a16.74,16.74,0,0,0-3.63.68c-.07-.23-.25-.85-.39-1.17.31-.07.62-.41,1-.91a16.71,16.71,0,0,0,1-1.4,6.88,6.88,0,0,0-1.77.32,11.45,11.45,0,0,0-.38-1.12c.26-.06.48-.34.78-.76a16.93,16.93,0,0,0,1.75-3.47l1.16.47a21.22,21.22,0,0,1-2.05,3.55l1.24-.1a18.79,18.79,0,0,0,1-1.82l1.09.64a26.51,26.51,0,0,1-3,4.33l1.87-.24a12,12,0,0,0-.42-1.24l1-.27a21.87,21.87,0,0,1,.9,2.86Zm-2.52.68a17.87,17.87,0,0,1-.69,3.51,5.85,5.85,0,0,0-1-.4,13.86,13.86,0,0,0,.63-3.27Zm1.38-.18a25,25,0,0,1,.38,2.89l-1,.21a25.15,25.15,0,0,0-.34-2.93Zm1.32-.4a18.15,18.15,0,0,1,.69,2.25l-.94.32a16.81,16.81,0,0,0-.65-2.28Zm8.43,2.74v1.19h-7.95v-1.19h3.37v-2.35h-2.66V233.4h6.68v1.16h-2.71v2.35ZM310.94,233a12.78,12.78,0,0,0-1.64-2.74,21.24,21.24,0,0,0,1.44-2.55l1.14.28c-.39.71-.9,1.56-1.36,2.24a16.41,16.41,0,0,1,1.5,2.32Zm5.95-5.64h-7.43v-1.17h7.43Zm-2.64.64a24.1,24.1,0,0,1-1.39,2.21,13.69,13.69,0,0,1,1.54,2.29l-1,.46a13.22,13.22,0,0,0-1.72-2.72,23,23,0,0,0,1.5-2.52Zm1.57,5a13.88,13.88,0,0,0-1.85-2.74,25.07,25.07,0,0,0,1.54-2.55l1.13.29c-.42.71-.95,1.55-1.41,2.23a16.81,16.81,0,0,1,1.62,2.28Z" fill="#fff"/><path d="M322.88,235.57c-1.53.53-3.15,1.07-4.41,1.48l-.31-1.33c.5-.14,1.12-.31,1.79-.52v-3.56h-1.51v-1.2H320v-2.79H318.3v-1.2h4.46v1.2H321.2v2.79h1.33v1.2H321.2v3.17c.48-.15,1-.31,1.46-.48Zm8.28,1.22V238h-9v-1.19h4.06v-1.67h-3v-1.18h3V232.5h-2.91v-6.3h7.17v6.3H327.6v1.44h3.11v1.18H327.6v1.67Zm-6.61-8h1.83V227.3h-1.83Zm0,2.58h1.83v-1.52h-1.83Zm4.73-4.09h-1.79v1.51h1.79Zm0,2.57h-1.79v1.52h1.79Z" fill="#fff"/><path d="M339.33,225.61c0,.53,0,1.26-.1,2.08.2,1.76,1.06,7.34,5.94,9.51a4,4,0,0,0-.95,1.11,10.94,10.94,0,0,1-5.56-7.14,11.14,11.14,0,0,1-5.35,7.21,4.12,4.12,0,0,0-1.08-1c5.73-3,5.58-9.5,5.62-11.74Z" fill="#fff"/><path d="M275.18,246h1.88l3.42,10.33h-1.73l-.86-2.94H274.3l-.88,2.94h-1.65Zm-.5,6.11h2.81l-.4-1.39c-.35-1.12-.66-2.26-1-3.43h-.07c-.29,1.18-.62,2.31-.95,3.43Z" fill="#fff"/><path d="M281.69,254.51v-9.36h1.61v9.44c0,.44.18.59.38.59a1.07,1.07,0,0,0,.27,0l.21,1.22a2.56,2.56,0,0,1-.87.13C282.13,256.5,281.69,255.76,281.69,254.51Z" fill="#fff"/><path d="M285.32,252.46a3.74,3.74,0,0,1,3.51-4c2.05,0,3.15,1.47,3.15,3.64a4.48,4.48,0,0,1-.08.83h-5a2.33,2.33,0,0,0,2.38,2.35,3.24,3.24,0,0,0,1.84-.58l.56,1a4.75,4.75,0,0,1-2.61.81A3.71,3.71,0,0,1,285.32,252.46Zm5.26-.7c0-1.31-.6-2.08-1.72-2.08a2.07,2.07,0,0,0-2,2.08Z" fill="#fff"/><path d="M295.1,252.3l-2.31-3.69h1.74l.92,1.54c.23.44.48.87.73,1.31h.06c.21-.44.43-.87.64-1.31l.82-1.54h1.68l-2.31,3.87,2.47,3.84h-1.75l-1-1.64c-.26-.45-.52-.93-.8-1.36h-.07c-.24.43-.48.9-.72,1.36l-.89,1.64h-1.7Z" fill="#fff"/><path d="M306.37,247.37h-3V246H311v1.38h-3v8.95h-1.63Z" fill="#fff"/><path d="M311,252.46a3.74,3.74,0,0,1,3.51-4c2.05,0,3.15,1.47,3.15,3.64a4.48,4.48,0,0,1-.08.83h-5a2.32,2.32,0,0,0,2.38,2.35,3.21,3.21,0,0,0,1.83-.58l.56,1a4.69,4.69,0,0,1-2.6.81A3.71,3.71,0,0,1,311,252.46Zm5.26-.7c0-1.31-.6-2.08-1.72-2.08a2.09,2.09,0,0,0-2,2.08Z" fill="#fff"/><path d="M319,252.46c0-2.49,1.59-4,3.31-4a2.94,2.94,0,0,1,2.07.87l-.07-1.28v-2.86h1.61v11.17h-1.31l-.13-.87h-.06a3.21,3.21,0,0,1-2.24,1.05C320.22,256.5,319,255,319,252.46Zm5.31,1.77v-3.77a2.4,2.4,0,0,0-1.69-.7c-1.08,0-1.95,1-1.95,2.69s.69,2.72,1.89,2.72A2.27,2.27,0,0,0,324.28,254.23Z" fill="#fff"/><path d="M327.79,252.46c0-2.49,1.59-4,3.31-4a2.94,2.94,0,0,1,2.07.87L333.1,248v-2.86h1.61v11.17H333.4l-.13-.87h-.06A3.21,3.21,0,0,1,331,256.5C329,256.5,327.79,255,327.79,252.46Zm5.31,1.77v-3.77a2.4,2.4,0,0,0-1.69-.7c-1.08,0-2,1-2,2.69s.69,2.72,1.89,2.72A2.27,2.27,0,0,0,333.1,254.23Z" fill="#fff"/><path d="M336.58,252.46a3.74,3.74,0,0,1,3.52-4c2,0,3.15,1.47,3.15,3.64a4.48,4.48,0,0,1-.08.83h-5a2.32,2.32,0,0,0,2.38,2.35,3.23,3.23,0,0,0,1.83-.58l.56,1a4.69,4.69,0,0,1-2.6.81A3.71,3.71,0,0,1,336.58,252.46Zm5.27-.7c0-1.31-.6-2.08-1.72-2.08a2.09,2.09,0,0,0-2,2.08Z" fill="#fff"/><path d="M345,248.61h1.32l.12,1.39h0a2.65,2.65,0,0,1,2.18-1.58,2,2,0,0,1,.87.16l-.3,1.41a2.11,2.11,0,0,0-.77-.13c-.63,0-1.38.43-1.86,1.65v4.81H345Z" fill="#fff"/><circle cx="83.83" cy="365.1" r="46.74" fill="#7d3787" stroke="#002a5e" stroke-miterlimit="10" stroke-width="2"/><path d="M56.85,358.43h6.82v1.51H48.48v-1.51h6.6v-2.64H50.24v-1.46h4.84v-2.45h-4v-1.46a20.88,20.88,0,0,1-2.34,1.44,6.44,6.44,0,0,0-1-1.37A21.4,21.4,0,0,0,54,346H51.16v-1.56H56.9a17.42,17.42,0,0,0,7.53,5.89,8.42,8.42,0,0,0-1.14,1.51A17.57,17.57,0,0,1,61,350.47v1.41H56.85v2.45h4.9v1.46h-4.9Zm-5.76-8h9.77A22.12,22.12,0,0,1,56,346,25.74,25.74,0,0,1,51.09,350.4Z" fill="#fff"/><path d="M82.07,350.08c-1,1.26-2.11,2.73-3,3.71a10,10,0,0,0,3.51,4,3.63,3.63,0,0,0-1,1.3,11.71,11.71,0,0,1-3.82-4.69v4c0,.9-.21,1.37-.75,1.64a6.59,6.59,0,0,1-2.79.34,7.36,7.36,0,0,0-.58-1.6c1,0,1.84,0,2.11,0s.39-.11.39-.4v-3.67c-1.38,1.38-2.81,2.73-4,3.81l-1-1.45.25-.2c-1.85.61-3.8,1.22-5.31,1.69l-.36-1.6c.63-.16,1.42-.4,2.27-.65V351.7H66v-1.55H67.9v-3.58H65.85V345h5.56v1.55h-2v3.58h1.69v1.55H69.45v4.21l2-.63.22,1.33c1.18-.95,2.82-2.34,4.35-3.65v-4.52H71.81v-1.55h4.26v-3h1.62v3h4.56v1.55H77.69v.74a20.68,20.68,0,0,0,.76,3.2,25.69,25.69,0,0,0,2.16-3.06Zm-8.77-.65a13.41,13.41,0,0,1,1.87,3.2l-1.38.67A13.16,13.16,0,0,0,72,350Zm7.2-2.56a11.74,11.74,0,0,0-2.09-2l.94-.86a12,12,0,0,1,2.16,1.83Z" fill="#fff"/><path d="M100.27,358.52v1.37H87.07v-1.37h5.65v-1.47h-4v-1.32h4v-1.31H89.34a10,10,0,0,1-1.79,2.28,8.38,8.38,0,0,0-.81-1.47,9.57,9.57,0,0,1-1.87,5.36,5.82,5.82,0,0,0-1.28-1.06c1.44-1.73,1.61-4.16,1.61-6v-3.49h2.3a6.17,6.17,0,0,0-.74-.72c1.37-.23,2.94-.58,4.41-.94-1.29-.36-2.59-.68-3.78-.93l.92-.71h-3v-1.31h6.41a9.39,9.39,0,0,0-.83-1.17l1.17-.56a10.41,10.41,0,0,1,1.26,1.73h6.11v1.31H96.77l.8.51A27.52,27.52,0,0,1,95,348.33c1.2.34,2.32.7,3.2,1l-.83.72H100v1.37H86.82v2.14a16.14,16.14,0,0,1-.08,1.66A9.23,9.23,0,0,0,89,351.66l1.44.42a10.75,10.75,0,0,1-.43,1h2.68v-1.33h1.66v1.33H99v1.34H94.38v1.31h4.19v1.32H94.38v1.47Zm-3.66-8.46c-1-.34-2.18-.72-3.47-1.12-1.48.45-3,.81-4.4,1.12Zm-7.49-3.3c1.32.31,2.74.67,4.11,1.05A19.05,19.05,0,0,0,96,346.76Z" fill="#fff"/><path d="M108.49,357.57a15.28,15.28,0,0,1-5.37,2.32,6.76,6.76,0,0,0-1-1.22,15.14,15.14,0,0,0,5.15-1.68Zm9.42-2.74v1.41h-7.1v4.17h-1.64v-4.17h-7v-1.41h7v-1.08h-5.31v-1.26h5.31v-1.08H103V350.1h3.62a10.32,10.32,0,0,0-.79-1.55l1-.26h-4.59V347h2.68a13.86,13.86,0,0,0-1.31-2.43l1.46-.5a12.72,12.72,0,0,1,1.44,2.57l-1,.36h2v-3.09h1.57V347h1.78v-3.09h1.58V347h2l-.71-.23a15.16,15.16,0,0,0,1.26-2.67l1.73.45a24.65,24.65,0,0,1-1.49,2.45h2.57v1.33h-4.71l1.4.37c-.4.54-.81,1-1.17,1.44h3.82v1.31h-6.38v1.08h5.53v1.26h-5.53v1.08Zm-10.46-6.54a7.27,7.27,0,0,1,.84,1.59l-.81.22h4.92l-.65-.2a15.37,15.37,0,0,0,1-1.61Zm5.43,8.59c1.59.58,3.78,1.44,5,2l-1.12,1c-1.11-.56-3.31-1.51-5-2.14Z" fill="#fff"/><path d="M48,369.68h6.38v1.51h-2.7a30.63,30.63,0,0,1-1.05,4h3.48v7.93H50.53v1.38H49.12v-6.08a11.67,11.67,0,0,1-.84,1.24,8.25,8.25,0,0,0-.67-1.89A16.19,16.19,0,0,0,50,371.19H48Zm4.67,7H50.53v5h2.09Zm11.66,1H62.34v7.61h-1.6v-7.61H58.18c-.09,2.7-.56,5.69-2.5,7.7a8.43,8.43,0,0,0-1.28-1c1.71-1.78,2.12-4.43,2.21-6.73H54.76v-1.59h1.87v-4.82H55.25V369.7h8.67v1.57H62.34v4.82h1.94Zm-3.54-1.59v-4.82H58.2v4.82Z" fill="#fff"/><path d="M80.2,383.31c.46,0,.55-.34.63-2.61a4.6,4.6,0,0,0,1.58.7c-.18,2.83-.63,3.55-2,3.55H78.49c-1.57,0-2-.49-2-2.23v-3H73.68c-.36,2.12-1.84,4.36-6.66,5.67a9.59,9.59,0,0,0-1.17-1.44c4.12-1.08,5.56-2.7,6-4.23H67.11v-1.55h5v-2.09H73.8v2.09h4.4v4.56c0,.5.09.59.56.59Zm-12.07-9.45H66.46v-3.41h6.77c-.15-.46-.33-1-.49-1.42l1.73-.3a18,18,0,0,1,.67,1.72h6.62v3.25H80V372H76.83v2.7c0,.45.09.63.52.63h2.49a9,9,0,0,0,1.45-.11c0,.43.09,1,.15,1.41a7.25,7.25,0,0,1-1.53.1H77.24c-1.67,0-2.07-.57-2.07-2.05V372h-2.3c-.36,2.63-1.41,4.12-5.35,4.92a4.36,4.36,0,0,0-.9-1.36c3.44-.59,4.21-1.62,4.48-3.56h-3Z" fill="#fff"/><path d="M100.14,381.38H96v2.22c0,.79-.16,1.22-.81,1.46a10.69,10.69,0,0,1-3,.21,5.81,5.81,0,0,0-.52-1.44c1,0,2,0,2.28,0s.36-.09.36-.31v-2.16h-6a14.25,14.25,0,0,1,2.44,2l-1.22,1.08a14.5,14.5,0,0,0-2.83-2.34l.81-.71H83.92V380H94.34v-.91c-3.6.09-7.09.16-9.65.19l0-1.26,6.53,0v-.85H85.81v-5h5.36v-.84H84.42V370h6.75v-1.26h1.64V370h6.65v1.3H92.81v.84h5.55v5H96.68a15,15,0,0,1,2.79,1.62l-1,.9a9.12,9.12,0,0,0-.93-.66l-1.57,0v1h4.16Zm-12.75-7.22h3.78v-.9H87.39Zm3.78,2v-.94H87.39v.94Zm1.64-2.87v.9h3.91v-.9Zm3.91,1.93H92.81v.94h3.91ZM92.81,378l2.9,0a10.38,10.38,0,0,0-1.1-.47l.42-.34H92.81Z" fill="#fff"/><path d="M116.43,376.27c-.77.63-1.66,1.26-2.54,1.87a8.21,8.21,0,0,0,4.5,5,5.86,5.86,0,0,0-1.1,1.36,9.52,9.52,0,0,1-4.71-5.55l-.72.43c.57,2.23.14,4.38-.83,5.13a2.44,2.44,0,0,1-2,.72c-.41,0-1,0-1.49,0a4.16,4.16,0,0,0-.45-1.57c.63.05,1.21.09,1.6.09a1.25,1.25,0,0,0,1.08-.39,3.37,3.37,0,0,0,.63-2.56,26.37,26.37,0,0,1-7.49,3.67,6.25,6.25,0,0,0-.88-1.39,21.07,21.07,0,0,0,8.08-3.83,6.85,6.85,0,0,0-.37-1,29.85,29.85,0,0,1-6.58,3,8.25,8.25,0,0,0-.84-1.31,22.42,22.42,0,0,0,6.75-2.83,8.54,8.54,0,0,0-.7-.86,25,25,0,0,1-5.08,2,7.9,7.9,0,0,0-.88-1.34,20.17,20.17,0,0,0,6.1-2.3h-3.65v-1.44H115.1v1.44h-4.27a13.23,13.23,0,0,1-1.17.88,7.73,7.73,0,0,1,1.73,2.52,30.47,30.47,0,0,0,3.67-2.88Zm-12.3-2.14h-1.62v-3.84h6.59a9.73,9.73,0,0,0-.56-1.17l1.75-.5a11.94,11.94,0,0,1,.85,1.67h6.5v3.84h-1.71v-2.32h-11.8Z" fill="#fff"/><circle cx="301.46" cy="378.73" r="46.74" fill="#7d3787" stroke="#002a5e" stroke-miterlimit="10" stroke-width="2"/><path d="M269.16,371.41a12.26,12.26,0,0,1-2.94,2.63,11.64,11.64,0,0,0-1.06-1,9.34,9.34,0,0,0,2.61-2.41Zm4.64-.86h-8.44V369.2h1.17v-7.83h2.16c.06-.33.13-.69.18-1.07h-3.15V359h3.33c.05-.52.11-1,.14-1.48l1.63.09-.24,1.39h2.86v1.31h-3.11c-.07.38-.14.74-.22,1.07h2.79v7.83h.9Zm-5.88-8.16v1.06h3.54v-1.06Zm3.54,2h-3.54v1.05h3.54Zm-3.54,2v1h3.54v-1Zm0,2.86h3.54v-1h-3.54Zm5.18,3.56a9.35,9.35,0,0,0,2.65-2.05l1.39.87a11.9,11.9,0,0,1-3.35,2.46,12.87,12.87,0,0,0-1.05-1l-.43.36a14.41,14.41,0,0,0-2-1.94l1.15-.81a12.77,12.77,0,0,1,2,1.82Zm3.48-11.48c.1-.49.2-1,.27-1.53h-3.1v-1.43h8v1.43h-3.18c-.16.52-.31,1.06-.45,1.53h3.09v9.27h-6.95v-9.27Zm3.11,1.27h-4V364h4Zm0,2.63h-4v1.43h4Zm0,2.65h-4v1.42h4Zm-.41,3a21.1,21.1,0,0,1,2.77,2.29l-1.31.91a21.58,21.58,0,0,0-2.7-2.39Z" fill="#fff"/><path d="M298.27,370.3a6.93,6.93,0,0,1-2.45,2,26.5,26.5,0,0,0,3.8.57,4.44,4.44,0,0,0-.76,1.17,24.68,24.68,0,0,1-4.84-1,27.53,27.53,0,0,1-5.6,1.06,5.08,5.08,0,0,0-.63-1.14,28,28,0,0,0,4.48-.59,14.18,14.18,0,0,1-1.64-.9,14,14,0,0,1-1.53.63,6.77,6.77,0,0,0-.88-.9,13.19,13.19,0,0,0,1.33-.54,8.73,8.73,0,0,1-.86-.86l1.15-.44a6,6,0,0,0,.83.76,8.37,8.37,0,0,0,1.3-.86H290v-2.83a9.56,9.56,0,0,1-1,.95,7.21,7.21,0,0,0-.87-.77,12.92,12.92,0,0,1-1.08,1.31V374h-1.47v-4.7c-.47.38-1,.76-1.43,1.08a7.88,7.88,0,0,0-.91-1.08,12.19,12.19,0,0,0,3.83-3.8l1.24.44a9.23,9.23,0,0,0,2.22-3h-5.87v-3h4v-.72H283.9v-1.17h15.52v1.17h-5V360h4.25v3H290.9l1.17.33c-.09.16-.16.36-.25.54h7.33V365h-8a3.29,3.29,0,0,1-.38.54h7.49v3.7h-4.52a7,7,0,0,1-.61.61h4l.28-.06Zm-10.08-6.72a13.42,13.42,0,0,1-3.8,3.44,12.16,12.16,0,0,0-1-1,10.84,10.84,0,0,0,3.33-2.87ZM286.24,362h2.49V361h-2.49Zm4-2h2.65v-.72h-2.65Zm2.65,2V361h-2.65V362Zm-1.44,5h5.34v-.63h-5.34Zm0,1.41h5.34v-.63h-5.34Zm.39,2.43a14,14,0,0,0,2.27,1,8.34,8.34,0,0,0,1.89-1Zm2.61-9.82V362h2.67V361Z" fill="#fff"/><path d="M311.37,366.39A17.48,17.48,0,0,0,318,371.7a10,10,0,0,0-1.22,1.44,19.28,19.28,0,0,1-6.28-5.4V374h-1.77v-6.21a19.48,19.48,0,0,1-6.26,5.31,11.69,11.69,0,0,0-1.23-1.42,17.35,17.35,0,0,0,6.61-5.31h-6.09v-1.66h7V362h-5.67v-1.66h5.67v-2.83h1.77v2.83h5.81V362h-5.81v2.73h7.07v1.66Z" fill="#fff"/><path d="M334.36,367.87a28.79,28.79,0,0,0-2.59-2.34,8.5,8.5,0,0,1-1.41,1.85,9.5,9.5,0,0,0-1.35-.85,15.9,15.9,0,0,0,7,5.26,6.49,6.49,0,0,0-1.26,1.51,17.18,17.18,0,0,1-6.27-5V374h-1.76v-5.67a18.06,18.06,0,0,1-6.22,4.94,7.67,7.67,0,0,0-1.18-1.43,16.65,16.65,0,0,0,7.4-6.06v-4.29H320v-1.62h6.72v-2.38h1.76v2.38h6.93v1.62h-6.93v4.2c.16.27.32.52.5.77a8.34,8.34,0,0,0,2.47-4.66l1.62.29a11.77,11.77,0,0,1-.63,2c1.1.85,2.41,1.89,3.12,2.59Zm-9.72-5.75a14.33,14.33,0,0,1-.67,2,23.68,23.68,0,0,1,1.91,1.78l-1.14,1.19a15.22,15.22,0,0,0-1.47-1.53,9.6,9.6,0,0,1-2.18,2.66,9.32,9.32,0,0,0-1.3-1.1,9.1,9.1,0,0,0,3.23-5.34Z" fill="#fff"/><path d="M274.15,397.64a8.57,8.57,0,0,0,2.18-2l1.38.79a12.61,12.61,0,0,1-3,2.49,7.09,7.09,0,0,0-1.08-1l.2-.11h-4.41v.9h-1.26v-5l-.44.54a2.76,2.76,0,0,0-.28-.43,20.06,20.06,0,0,1-1,4.91,5.13,5.13,0,0,0-1.27-.68c1-2.52,1-6.08,1-8.61v-5.74h0a37.23,37.23,0,0,0,6.28-1l1.23,1.11a33.83,33.83,0,0,1-6.12,1.05v.72h6.17v3.89h-6.17c0,.87,0,1.9-.08,3a10.79,10.79,0,0,0,1.34-2.92l1.19.31c-.13.41-.29.82-.44,1.22H271c-.15-.38-.33-.79-.51-1.15l1.12-.29a8,8,0,0,1,.7,1.44H274v1.1h-1.87V393h1.69v1h-1.69v.83h1.71v1h-1.71v.85h2Zm-6.5-10.75v1.32h4.68v-1.32Zm3.35,5.28h-1.55V393H271Zm0,1.82h-1.55v.83H271Zm-1.55,2.68H271v-.85h-1.55Zm7.49-10.62c.07-.45.14-1,.2-1.43h-2.8V383.2h7.35v1.42h-2.88c-.13.49-.25,1-.38,1.43h2.72v9.25h-6.36v-9.25Zm2.77,1.29h-3.53v1.39h3.53Zm0,2.61h-3.53v1.43h3.53Zm0,2.63h-3.53V394h3.53Zm0,3.12A15.91,15.91,0,0,1,282,398l-1.26.86a16.1,16.1,0,0,0-2.2-2.36Z" fill="#fff"/><path d="M285.93,389.56v9.36h-1.65V383.11h6.62v6.45Zm0-5.11v1.25h3.39v-1.25Zm3.39,3.79v-1.35h-3.39v1.35Zm.41,8.16v1.05h-1.54V391H295v5.4Zm0-4V395h3.68V392.4Zm9.38,4.4c0,1-.23,1.53-.88,1.82a10.4,10.4,0,0,1-3.35.28,5.83,5.83,0,0,0-.57-1.71c1.13.06,2.3,0,2.66,0s.43-.13.43-.45v-7.2h-5.07v-6.47h6.78Zm-5.18-12.37v1.27h3.47v-1.27Zm3.47,3.83v-1.37h-3.47v1.37Z" fill="#fff"/><path d="M317,383.11v15.76H315.4V398H303.84v.92h-1.53V383.11Zm-1.61,13.6v-12.3H303.84v12.3Zm-.5-2.78h-2.45v1.44c0,.6-.14.8-.58.92a7.87,7.87,0,0,1-2.16.15,2.93,2.93,0,0,0-.36-.9h1.44c.2,0,.26-.07.26-.23v-1.39h-6.68v-1h6.68v-.59h1.4V393h2.45Zm-2-3.24a11.79,11.79,0,0,1,1.71,1.59l-.88.68c-.18-.23-.43-.48-.7-.76-3.06.1-6.14.19-8.34.22l-.07-.95c1.17,0,2.65,0,4.25,0v-.74h-3.69v-3.63h3.69v-.63h-4.29v-1h4.29v-.74h1.38v.74h4.38v1h-4.38v.63h3.84v3.63Zm-5.35,5.46a8.66,8.66,0,0,0-1.4-1.68l1-.54a8.83,8.83,0,0,1,1.5,1.61Zm-1.06-7.65h2.38v-.67h-2.38Zm2.38,1.42v-.69h-2.38v.69Zm1.38-2.09v.67h2.49v-.67Zm2.49,2.09v-.69h-2.49v.69Zm-.6,1.48c-.1-.1-.21-.19-.32-.28l.67-.43h-2.24v.74Z" fill="#fff"/><path d="M325.43,383.74c-.51,1.5-1.14,3.37-1.69,4.77a5.56,5.56,0,0,1,1.47,3.75,1.93,1.93,0,0,1-1.71,2.5,7.64,7.64,0,0,1-1.19,0,3.51,3.51,0,0,0-.38-1.44,4.87,4.87,0,0,0,.92,0,1,1,0,0,0,.54-.16,1.4,1.4,0,0,0,.35-1.14,5,5,0,0,0-1.48-3.37c.47-1.22.93-2.8,1.26-4h-1.93v14.26h-1.47V383.17h4l.23-.06Zm10.1,4.88a25.55,25.55,0,0,1-2.27,1.51,14.12,14.12,0,0,0,2.93,5.21,6.26,6.26,0,0,0-1.08,1.1,17.37,17.37,0,0,1-3-5.6l-.22.11c.9,2.91.51,6-.54,6.95a2.29,2.29,0,0,1-1.91.79c-.34,0-.93,0-1.42,0a3.79,3.79,0,0,0-.41-1.49c.59,0,1.17.07,1.55.07a1.08,1.08,0,0,0,1-.45,4.61,4.61,0,0,0,.65-3.08,20.36,20.36,0,0,1-4.86,2.88,4.62,4.62,0,0,0-1-1.22,14.33,14.33,0,0,0,5.66-3.28c-.08-.4-.19-.79-.31-1.19a24.85,24.85,0,0,1-3.78,2.4,6.91,6.91,0,0,0-.9-1.21,15.28,15.28,0,0,0,4.16-2.4,7.48,7.48,0,0,0-.76-1.22,18.39,18.39,0,0,1-3.15,1.91,6.75,6.75,0,0,0-1-1.21,13.67,13.67,0,0,0,4.05-2.39h-3.64v-1.46h3.23a11.65,11.65,0,0,0-1.91-2l1.24-.77a10,10,0,0,1,2.14,2.2l-.9.61,1.84,0a15.49,15.49,0,0,0,1.8-2.9l1.6.48a23.22,23.22,0,0,1-1.65,2.42h3.07v1.44h-4.87a10.32,10.32,0,0,1-.81.81,8.76,8.76,0,0,1,1.35,2.14,25.22,25.22,0,0,0,3.06-2.21Z" fill="#fff"/><path d="M207.38,306h4.9a4,4,0,0,1,4,4v7a6.48,6.48,0,0,1-6.48,6.48h0a6.48,6.48,0,0,1-6.48-6.48v-7a4,4,0,0,1,4-4Z" fill="#fff" stroke="#002a5e" stroke-miterlimit="10"/><path d="M228.29,285.38a18.46,18.46,0,1,0-30.61,13.83,13.26,13.26,0,0,1,4.41,10V311h15.49v-1.73A13.4,13.4,0,0,1,222,299.17,18.3,18.3,0,0,0,228.29,285.38Z" fill="#fff" stroke="#002a5e" stroke-linecap="round" stroke-linejoin="round"/><path d="M204.94,273.24a13.18,13.18,0,0,1,16.76,18.9" fill="#fff" stroke="#002a5e" stroke-linecap="round" stroke-linejoin="round"/><circle cx="209.83" cy="286.03" r="8.81" fill="#002a5e"/><path d="M212.51,283.37a3.82,3.82,0,0,0-2.44-1c-1,0-1.63.36-1.63,1.1,0,1.61,5.12,1.05,5.12,4.21,0,1.48-1,2.58-2.88,2.84v1.67H209.4v-1.63a5.75,5.75,0,0,1-3.19-1.3l.85-1.29a4.19,4.19,0,0,0,2.76,1.05c1.31,0,1.91-.41,1.91-1.17,0-1.69-5.12-1.17-5.12-4.25a2.79,2.79,0,0,1,2.79-2.76v-1.65h1.28v1.67a4.83,4.83,0,0,1,2.79,1.34Z" fill="#fff"/><circle cx="709.96" cy="155.75" r="6.46" fill="#002a5e"/><circle cx="739.91" cy="155.75" r="6.46" fill="#002a5e"/><circle cx="725.21" cy="149.06" r="6.46" fill="#002a5e"/><path d="M738.4,171.87a13.2,13.2,0,0,0-26.39,0Z" fill="#002a5e"/><rect x="709.47" y="114.4" width="31.95" height="22.45" rx="2.01" fill="#002a5e"/><circle cx="718.48" cy="127.34" r="1.35" fill="#fff"/><circle cx="728.41" cy="125.69" r="1.35" fill="#fff"/><circle cx="724.51" cy="122.46" r="1.35" fill="#fff"/><polyline points="718.48 127.34 724.57 122.7 728.41 125.63 735.2 120.26" fill="none" stroke="#fff" stroke-miterlimit="10" stroke-width="0.75"/><polyline points="737.5 131.44 714.44 131.44 714.44 118.96" fill="none" stroke="#fff" stroke-linecap="round" stroke-linejoin="round"/><polygon points="736.3 118.98 732.18 119.91 735.04 123.02 736.3 118.98" fill="#fff"/><polygon points="725.44 139.88 728.24 135.04 722.64 135.04 725.44 139.88" fill="#002a5e"/><path d="M725.71,179.56v-1a14.2,14.2,0,1,1,28.39,0v1Z" fill="#002a5e"/><path d="M739.91,165.36a13.19,13.19,0,0,1,13.19,13.2H726.71a13.2,13.2,0,0,1,13.2-13.2m0-2a15.22,15.22,0,0,0-15.2,15.2v2H755.1v-2a15.21,15.21,0,0,0-15.19-15.2Z" fill="#f8a908"/><path d="M695.77,179.56v-1a14.2,14.2,0,1,1,28.39,0v1Z" fill="#002a5e"/><path d="M710,165.36a13.2,13.2,0,0,1,13.2,13.2h-26.4a13.2,13.2,0,0,1,13.2-13.2m0-2a15.22,15.22,0,0,0-15.2,15.2v2h30.4v-2a15.22,15.22,0,0,0-15.2-15.2Z" fill="#f8a908"/></g></svg>