<svg xmlns="http://www.w3.org/2000/svg" viewBox="0 0 326.72 381.93"><g id="圖文"><text transform="translate(-0.64 -56.54)" font-size="20" fill="#7d3787" font-family="SourceHanSansTW-Bold-B5pc-H, Source Han Sans TW">用大數據構築投資策略</text><text transform="translate(-0.64 -26.34)" font-size="13" font-family="SourceHanSansTW-Normal-B5pc-H, Source Han Sans TW"><tspan letter-spacing="0.01em">深度挖掘多面向數</tspan><tspan x="105.2" y="0" letter-spacing="0em">據，</tspan><tspan x="131.2" y="0" letter-spacing="0.01em">監測多種領</tspan><tspan x="196.95" y="0">域，</tspan><tspan x="222.95" y="0" letter-spacing="0.01em">以獨家洞見搜尋</tspan><tspan x="315" y="0">投</tspan><tspan x="0" y="20">資新星。</tspan></text><circle cx="162.3" cy="65.14" r="36.56" fill="#002a5e"/><path d="M143,83v2.38c0,.58-.11.87-.45,1a3.17,3.17,0,0,1-1.51.22,4,4,0,0,0-.34-1.08h.94c.14,0,.19,0,.19-.19V83.3l-1,.26-.31-1.13,1.32-.29V80.38h-1.19v-1.1h1.19v-1.9H143v1.9h1v1.1h-1v1.47l.73-.18.14,1.09Zm6.32-1a6.46,6.46,0,0,1-1.72,2.88,8.47,8.47,0,0,0,2.31.76,5.48,5.48,0,0,0-.75,1.1,8.15,8.15,0,0,1-2.58-1.08,9.72,9.72,0,0,1-2.73,1.07,4.32,4.32,0,0,0-.56-1.09,8.18,8.18,0,0,0,2.3-.76,7.23,7.23,0,0,1-1.38-1.92l.36-.13H144V81.7h4.34l.21,0Zm-5-.41a4.83,4.83,0,0,0-.78-.85,1.91,1.91,0,0,0,1.32-2V77.7h3.52v2.18c0,.29,0,.41.18.41h.53a2.45,2.45,0,0,0,.56-.07c0,.3.05.71.09,1a1.69,1.69,0,0,1-.63.08h-.67c-1,0-1.19-.42-1.19-1.42V78.8H146A2.8,2.8,0,0,1,144.36,81.57Zm1,1.24a4.85,4.85,0,0,0,1.22,1.39,5,5,0,0,0,1.16-1.39Z" fill="#fff"/><path d="M158,79.16a4.73,4.73,0,0,0,3,.85,3.85,3.85,0,0,0-.66.95,4.78,4.78,0,0,1-2.62-1c-.38.44-1.21.83-2.88,1a3.37,3.37,0,0,0-.4-.65h-2.65v-.91h3V80c1.91-.2,2.16-.65,2.16-1v-.15h-.6a4.37,4.37,0,0,1-.7.86,5.71,5.71,0,0,0-.88-.61,4,4,0,0,0,1.17-1.78l1,.23c0,.15-.11.3-.17.44h2.84l.18,0,.81.25a8.76,8.76,0,0,1-.92,1.58l-.92-.34a5.91,5.91,0,0,0,.35-.58H158v.31Zm.27,5.87c.92.34,1.9.74,2.49,1l-1.07.64a18.41,18.41,0,0,0-2.6-1.18l.61-.49h-2.82l.87.4a12.74,12.74,0,0,1-3.11,1.3,8,8,0,0,0-.88-.87,11.4,11.4,0,0,0,2.73-.83H153V81h6.68v4Zm-3.75-6.29h-2.55v-.87h2.55Zm-.32,3.38h4.32v-.43h-4.32Zm0,1.09h4.32v-.43h-4.32Zm0,1.12h4.32v-.45h-4.32Z" fill="#fff"/><path d="M171.11,83.4c0,.5-.1.74-.46.89a3.69,3.69,0,0,1-1.33.15,9.82,9.82,0,0,0,2.68.89,5.44,5.44,0,0,0-.75,1A8.58,8.58,0,0,1,168,84.76v2h-1.27v-2a8.48,8.48,0,0,1-3.32,1.72,4.8,4.8,0,0,0-.74-1,7.5,7.5,0,0,0,4.06-2v-.7h-1.91v1.77h-1.26V81.7h3.17v-.48h-3.81v-1h2.7a8,8,0,0,0-1-1l.38-.33h-.59a6.63,6.63,0,0,1-1,1.3,7.43,7.43,0,0,0-.79-.8,5.85,5.85,0,0,0,1.45-2.1l1,.3c0,.13-.11.26-.17.39h2.17v.91h-1.41a7,7,0,0,1,.67.66l-.7.65h1v-.54h.87c-.22-.17-.48-.38-.66-.49a4.49,4.49,0,0,0,1.24-1.88l1.08.27c-.05.14-.11.29-.17.43h2.75v.9h-1.73a5.57,5.57,0,0,1,.69.63l-.79.68a6.81,6.81,0,0,0-1-1l.42-.36h-.81a4.55,4.55,0,0,1-.6.79v.52h3.6v1H168v.48h3.1Zm-3.1.18a6.3,6.3,0,0,0,1.25.83,5.07,5.07,0,0,0-.38-.89c.32,0,.73,0,.84,0s.16,0,.16-.14v-.7H168Z" fill="#fff"/><path d="M182.59,78.7a7.79,7.79,0,0,1-1.6,2.59,7,7,0,0,0,2.17,1.13,5.66,5.66,0,0,0-.76,1l-.07,0v3.31h-1.16v-.31h-2v.32H178V83.42l-.25.11a4.1,4.1,0,0,0-.34-.51v1.73h-2.6v.82H174V78h3.46v1.89a6.7,6.7,0,0,0,1.7-2.5l1.12.31a6.29,6.29,0,0,1-.32.7h1.67l.2-.05Zm-7.75.29v1.77h.47V79Zm0,4.74h.47v-2h-.47ZM176.55,79h-.5v1.77h.5Zm0,4.74v-2h-.5v2Zm.89-1.25a8.12,8.12,0,0,0,1.95-1.21,8.21,8.21,0,0,1-.74-1,6.46,6.46,0,0,1-.74.74,5,5,0,0,0-.47-.5Zm4.11.54a8,8,0,0,1-1.37-1,10.86,10.86,0,0,1-1.37,1Zm-.38,2.32V84.05h-2v1.29Zm-1.81-6-.06.08a6.52,6.52,0,0,0,.86,1.11,6.65,6.65,0,0,0,.88-1.19Z" fill="#fff"/><ellipse cx="163.79" cy="76.4" rx="70.55" ry="42.46" transform="translate(-15.08 50.53) rotate(-16.78)" fill="none" stroke="#002a5e" stroke-miterlimit="10" stroke-width="0.92"/><ellipse cx="159.38" cy="243.98" rx="53.76" ry="89.33" transform="translate(-107.28 361.54) rotate(-80.64)" fill="none" stroke="#002a5e" stroke-miterlimit="10" stroke-width="1.17"/><circle cx="96.92" cy="72.85" r="22.5" fill="#7d3787" stroke="#002a5e" stroke-miterlimit="10" stroke-width="0.84"/><path d="M83.71,69.57h3.34v.74H79.62v-.74h3.23V68.28H80.48v-.72h2.37V66.37h-2v-.72a10.58,10.58,0,0,1-1.15.71,2.71,2.71,0,0,0-.51-.67,10.52,10.52,0,0,0,3.11-2.22h-1.4V62.7h2.81a8.42,8.42,0,0,0,3.68,2.88,3.75,3.75,0,0,0-.55.74,7.64,7.64,0,0,1-1.14-.64v.69h-2v1.19h2.4v.72h-2.4ZM80.9,65.64h4.78a10.59,10.59,0,0,1-2.38-2.17A12.59,12.59,0,0,1,80.9,65.64Z" fill="#fff"/><path d="M96.05,65.48a22.77,22.77,0,0,1-1.49,1.82,4.91,4.91,0,0,0,1.72,2,1.91,1.91,0,0,0-.5.63,5.76,5.76,0,0,1-1.87-2.28v2c0,.44-.1.67-.37.8a3.22,3.22,0,0,1-1.36.17,4.41,4.41,0,0,0-.28-.79c.47,0,.89,0,1,0s.19,0,.19-.19v-1.8c-.68.68-1.37,1.34-2,1.87l-.5-.71.13-.1-2.6.83L88,68.88l1.11-.31V66.28h-.94v-.76h.94V63.77h-1V63h2.72v.76h-1v1.75h.83v.76h-.83v2.06l1-.31.11.65c.58-.47,1.38-1.14,2.13-1.79V64.68H91v-.75h2.09V62.47h.79v1.46h2.23v.75H93.91V65a10.72,10.72,0,0,0,.37,1.57,13.3,13.3,0,0,0,1.06-1.49Zm-4.29-.31a6.67,6.67,0,0,1,.92,1.56l-.68.33a6.43,6.43,0,0,0-.87-1.61Zm3.53-1.25a6,6,0,0,0-1-1l.46-.42a5.77,5.77,0,0,1,1.06.89Z" fill="#fff"/><path d="M105,69.61v.67H98.5v-.67h2.77v-.72h-2v-.64h2v-.64H99.61a4.77,4.77,0,0,1-.87,1.12,4.46,4.46,0,0,0-.4-.73,4.77,4.77,0,0,1-.91,2.63,3.06,3.06,0,0,0-.63-.52,4.54,4.54,0,0,0,.79-2.93v-1.7h1.12a2.44,2.44,0,0,0-.36-.36c.67-.11,1.44-.28,2.16-.45-.64-.18-1.27-.34-1.85-.46l.45-.35H97.66v-.64h3.13a4.82,4.82,0,0,0-.4-.57l.57-.27a4.71,4.71,0,0,1,.61.84h3v.64h-1.31l.38.25a12.56,12.56,0,0,1-1.24.52c.59.17,1.14.34,1.57.49l-.4.36h1.27v.67H98.38v1a7.57,7.57,0,0,1,0,.81,4.55,4.55,0,0,0,1.12-1.74l.71.2c-.07.17-.14.33-.22.5h1.32V66.3h.81V67h2.28v.65h-2.28v.64h2v.64h-2v.72Zm-1.78-4.13c-.47-.17-1.07-.36-1.7-.55-.72.22-1.46.4-2.15.55Zm-3.66-1.62c.64.16,1.33.33,2,.52a8.64,8.64,0,0,0,1.36-.52Z" fill="#fff"/><path d="M109,69.15a7.54,7.54,0,0,1-2.62,1.13,3.48,3.48,0,0,0-.5-.59,7.54,7.54,0,0,0,2.52-.82Zm4.61-1.34v.69h-3.47v2h-.8v-2H105.9v-.69h3.42v-.53h-2.6v-.62h2.6v-.52h-3v-.65h1.77a4.9,4.9,0,0,0-.39-.75l.51-.13h-2.25V64h1.32a7.05,7.05,0,0,0-.65-1.19l.72-.24a6,6,0,0,1,.7,1.26l-.46.17h1V62.45h.77V64h.87V62.45H111V64h1l-.34-.11a8.29,8.29,0,0,0,.62-1.31l.84.22a12.19,12.19,0,0,1-.73,1.2h1.26v.65h-2.31l.69.18c-.19.26-.4.5-.57.7h1.86v.65h-3.11v.52h2.7v.62h-2.7v.53Zm-5.12-3.2a3.48,3.48,0,0,1,.41.78l-.39.1h2.4l-.31-.09c.16-.22.36-.56.49-.79Zm2.66,4.2c.77.29,1.85.71,2.44,1l-.55.47c-.54-.27-1.62-.74-2.42-1Z" fill="#fff"/><path d="M79.36,74.35h3.12v.74H81.16A14.9,14.9,0,0,1,80.65,77h1.7V80.9H80.62v.68h-.68v-3a5.74,5.74,0,0,1-.42.6,3.88,3.88,0,0,0-.32-.92,8,8,0,0,0,1.19-3.2h-1Zm2.28,3.41h-1v2.42h1Zm5.71.5H86.4V82h-.78V78.26H84.36A5.57,5.57,0,0,1,83.14,82a4.21,4.21,0,0,0-.62-.47,5,5,0,0,0,1.08-3.3h-.91v-.77h.92V75.13h-.68v-.77h4.24v.77H86.4v2.36h.95Zm-1.73-.77V75.13H84.37v2.36Z" fill="#fff"/><path d="M95.14,81c.22,0,.27-.17.3-1.28a2.62,2.62,0,0,0,.78.35c-.09,1.38-.31,1.73-1,1.73H94.3c-.77,0-1-.24-1-1.09V79.26H92c-.18,1-.9,2.13-3.26,2.77a4.07,4.07,0,0,0-.57-.7c2-.53,2.72-1.32,2.94-2.07H88.73V78.5h2.43v-1H92v1h2.15v2.23c0,.25,0,.29.27.29Zm-5.9-4.62h-.82V74.73h3.31c-.07-.23-.16-.48-.24-.69l.85-.15a8.53,8.53,0,0,1,.32.84H95.9v1.59H95v-.86H93.49v1.32c0,.22,0,.31.25.31H95a3.89,3.89,0,0,0,.71,0c0,.21,0,.5.07.69a3.76,3.76,0,0,1-.75,0h-1.3c-.82,0-1-.28-1-1V75.46H91.55c-.17,1.29-.68,2-2.61,2.41a2.12,2.12,0,0,0-.44-.66c1.68-.29,2.06-.8,2.19-1.75H89.24Z" fill="#fff"/><path d="M104.89,80.08h-2v1.08c0,.39-.08.6-.4.71A4.86,4.86,0,0,1,101,82a2.91,2.91,0,0,0-.26-.71c.49,0,1,0,1.12,0s.18,0,.18-.15v-1H99.14a7,7,0,0,1,1.19,1l-.6.52a7.61,7.61,0,0,0-1.38-1.14l.4-.34H97v-.66h5.1V79c-1.76,0-3.47.08-4.72.09l0-.61,3.2,0V78H97.89V75.58h2.62v-.42h-3.3v-.63h3.3v-.62h.8v.62h3.25v.63h-3.25v.42H104V78h-.82a7.31,7.31,0,0,1,1.37.79l-.49.44a4.81,4.81,0,0,0-.45-.33l-.77,0v.48h2Zm-6.23-3.53h1.85v-.44H98.66Zm1.85,1v-.46H98.66v.46Zm.8-1.4v.44h1.91v-.44Zm1.91.94h-1.91v.46h1.91Zm-1.91,1.38,1.42,0-.54-.23.2-.16h-1.08Z" fill="#fff"/><path d="M112.86,77.58c-.37.31-.81.61-1.24.91a4,4,0,0,0,2.2,2.47,2.85,2.85,0,0,0-.53.66A4.64,4.64,0,0,1,111,78.91l-.35.21a2.59,2.59,0,0,1-.41,2.51,1.19,1.19,0,0,1-1,.35,6.3,6.3,0,0,1-.73,0,2,2,0,0,0-.22-.76l.78,0a.64.64,0,0,0,.53-.19,1.63,1.63,0,0,0,.31-1.25,12.84,12.84,0,0,1-3.66,1.79,3.1,3.1,0,0,0-.43-.68,10.36,10.36,0,0,0,4-1.87,4.09,4.09,0,0,0-.18-.49A14.71,14.71,0,0,1,106.4,80a4.58,4.58,0,0,0-.41-.64,11.07,11.07,0,0,0,3.3-1.38,4.18,4.18,0,0,0-.34-.42,12.27,12.27,0,0,1-2.49,1,4.05,4.05,0,0,0-.43-.65,9.88,9.88,0,0,0,3-1.13h-1.79v-.7h5v.7h-2.08a6.77,6.77,0,0,1-.58.44,3.78,3.78,0,0,1,.85,1.23,14.51,14.51,0,0,0,1.79-1.41Zm-6-1h-.79V74.65h3.22c-.08-.2-.18-.39-.27-.57l.85-.24a5.67,5.67,0,0,1,.42.81h3.17v1.88h-.83V75.39h-5.77Z" fill="#fff"/><circle cx="219.14" cy="34.76" r="22.5" fill="#7d3787" stroke="#002a5e" stroke-miterlimit="10" stroke-width="0.84"/><path d="M207,28.82a4.13,4.13,0,0,0,1.48.95,2.86,2.86,0,0,0-.42.5,4.44,4.44,0,0,1-1.77-1.45h-2.09a4.44,4.44,0,0,1-.61.7h1.28V29h.66v.52h1.38V30h-1.38v.63h2.35v.53h-5.27v-.53h2.26V30h-1.34v-.46a4.78,4.78,0,0,1-1.16.77,2.48,2.48,0,0,0-.42-.5,4.18,4.18,0,0,0,1.52-1H202v-.54h1.36V26.11h-1v-.53h1V25H204v.61h2.39V25H207v.6h1v.53h-1v2.17h1.32v.54Zm-3-2.71v.4h2.39v-.4Zm0,1.27h2.39V27H204Zm0,.9h2.39v-.42H204Z" fill="#fff"/><path d="M212.49,27.62v.85h2.35v.58h-2.35v1.57h2.68v.59h-6v-.59h2.64V29.05h-2.31v-.58h2.31v-.85h-1.47v-.37a7.58,7.58,0,0,1-1,.45,2.5,2.5,0,0,0-.44-.6,6,6,0,0,0,3.24-2.2l.61.27c-.07.1-.12.19-.18.27a7.38,7.38,0,0,0,2.91,1.66,3.05,3.05,0,0,0-.45.57,7.37,7.37,0,0,1-1-.48v.43Zm-1.94,1.5a5.48,5.48,0,0,1,.66,1.22l-.57.24a6.27,6.27,0,0,0-.62-1.25Zm3.1-2.1a8.07,8.07,0,0,1-1.48-1.14A6.53,6.53,0,0,1,210.76,27ZM213,30.38a6.66,6.66,0,0,0,.68-1.26l.63.24a14.63,14.63,0,0,1-.81,1.23Z" fill="#fff"/><path d="M218,29.22a3.08,3.08,0,0,0-.07-.35,8,8,0,0,0-1.81.34c0-.12-.13-.43-.2-.59.15,0,.31-.2.52-.46a6.19,6.19,0,0,0,.51-.7,3.06,3.06,0,0,0-.88.17c0-.12-.12-.4-.19-.57.12,0,.24-.16.38-.37a8.37,8.37,0,0,0,.88-1.74l.58.24a11.34,11.34,0,0,1-1,1.77l.61-.05a8,8,0,0,0,.49-.91l.55.32a13,13,0,0,1-1.49,2.17l.94-.12-.21-.63.48-.13a11.43,11.43,0,0,1,.45,1.43Zm-1.26.34a9.2,9.2,0,0,1-.34,1.75,3.86,3.86,0,0,0-.51-.2,7.14,7.14,0,0,0,.31-1.64Zm.69-.09a11.42,11.42,0,0,1,.19,1.44l-.51.11a11.65,11.65,0,0,0-.17-1.47Zm.66-.21a9.32,9.32,0,0,1,.34,1.13l-.46.16a9.27,9.27,0,0,0-.33-1.14Zm4.22,1.38v.59h-4v-.59h1.69V29.46h-1.33v-.58h3.34v.58h-1.36v1.18Zm-3-1.94a6.43,6.43,0,0,0-.82-1.38,10.9,10.9,0,0,0,.72-1.27l.57.14c-.2.36-.45.78-.68,1.12a8.2,8.2,0,0,1,.75,1.16Zm3-2.83h-3.72v-.58h3.72ZM221,26.2a10.62,10.62,0,0,1-.69,1.1,7.63,7.63,0,0,1,.77,1.14l-.52.24a6.58,6.58,0,0,0-.87-1.36,10.87,10.87,0,0,0,.75-1.26Zm.79,2.5a6.81,6.81,0,0,0-.93-1.38,9.36,9.36,0,0,0,.77-1.27l.57.15c-.21.35-.47.77-.71,1.11a8.45,8.45,0,0,1,.82,1.14Z" fill="#fff"/><path d="M225.27,30l-2.2.74-.16-.67c.25-.07.56-.15.9-.26V28h-.76v-.6h.76V26H223v-.6h2.23V26h-.78V27.4h.67V28h-.67v1.59l.73-.24Zm4.14.6v.6h-4.47v-.6h2v-.83h-1.52v-.59H227v-.72h-1.46V25.28h3.59v3.15h-1.47v.72h1.56v.59h-1.56v.83Zm-3.3-4H227v-.76h-.91Zm0,1.29H227v-.77h-.91Zm2.36-2.05h-.89v.76h.89Zm0,1.28h-.89v.77h.89Z" fill="#fff"/><path d="M233.5,25c0,.27,0,.64-.05,1.05.1.87.52,3.67,3,4.75a1.91,1.91,0,0,0-.48.56,5.51,5.51,0,0,1-2.78-3.57,5.57,5.57,0,0,1-2.67,3.6,2.24,2.24,0,0,0-.54-.52c2.86-1.48,2.78-4.74,2.8-5.87Z" fill="#fff"/><path d="M202.21,35.68h.94l1.71,5.16H204l-.44-1.47h-1.79l-.44,1.47h-.83Zm-.25,3h1.41l-.21-.69c-.17-.56-.33-1.14-.48-1.72h0c-.14.59-.3,1.16-.47,1.72Z" fill="#fff"/><path d="M205.46,39.94V35.26h.81V40c0,.22.09.29.19.29h.13l.11.61a1.44,1.44,0,0,1-.44.06C205.68,40.93,205.46,40.56,205.46,39.94Z" fill="#fff"/><path d="M207.28,38.91a1.87,1.87,0,0,1,1.75-2c1,0,1.58.74,1.58,1.82a2.09,2.09,0,0,1,0,.41h-2.5a1.16,1.16,0,0,0,1.19,1.18,1.59,1.59,0,0,0,.92-.29l.28.51a2.34,2.34,0,0,1-1.31.41A1.85,1.85,0,0,1,207.28,38.91Zm2.63-.35c0-.65-.3-1-.86-1a1,1,0,0,0-1,1Z" fill="#fff"/><path d="M212.17,38.83,211,37h.87l.46.77.37.65h0c.1-.22.21-.43.32-.65l.41-.77h.84l-1.16,1.93,1.24,1.92h-.88L213,40c-.13-.22-.26-.46-.4-.68h0l-.36.68-.45.82h-.85Z" fill="#fff"/><path d="M217.8,36.36h-1.51v-.68h3.85v.68h-1.52v4.48h-.82Z" fill="#fff"/><path d="M220.13,38.91a1.88,1.88,0,0,1,1.76-2c1,0,1.58.74,1.58,1.82a2.09,2.09,0,0,1,0,.41h-2.5a1.16,1.16,0,0,0,1.19,1.18A1.56,1.56,0,0,0,223,40l.28.51a2.28,2.28,0,0,1-1.3.41A1.86,1.86,0,0,1,220.13,38.91Zm2.64-.35c0-.65-.3-1-.86-1a1,1,0,0,0-1,1Z" fill="#fff"/><path d="M224.1,38.91a1.83,1.83,0,0,1,1.66-2,1.49,1.49,0,0,1,1,.43l0-.63V35.26h.8v5.58h-.65l-.07-.43h0a1.6,1.6,0,0,1-1.12.52C224.73,40.93,224.1,40.2,224.1,38.91Zm2.66.89V37.91a1.21,1.21,0,0,0-.85-.35c-.54,0-1,.51-1,1.35s.34,1.36.94,1.36A1.15,1.15,0,0,0,226.76,39.8Z" fill="#fff"/><path d="M228.51,38.91a1.83,1.83,0,0,1,1.66-2,1.49,1.49,0,0,1,1,.43l0-.63V35.26h.8v5.58h-.65l-.07-.43h0a1.6,1.6,0,0,1-1.12.52C229.14,40.93,228.51,40.2,228.51,38.91Zm2.66.89V37.91a1.21,1.21,0,0,0-.85-.35c-.54,0-1,.51-1,1.35s.34,1.36.94,1.36A1.14,1.14,0,0,0,231.17,39.8Z" fill="#fff"/><path d="M232.91,38.91a1.87,1.87,0,0,1,1.76-2c1,0,1.57.74,1.57,1.82a2.09,2.09,0,0,1,0,.41h-2.5a1.16,1.16,0,0,0,1.19,1.18,1.57,1.57,0,0,0,.92-.29l.28.51a2.33,2.33,0,0,1-1.3.41A1.85,1.85,0,0,1,232.91,38.91Zm2.63-.35c0-.65-.3-1-.86-1a1,1,0,0,0-1,1Z" fill="#fff"/><path d="M237.14,37h.66l.06.69h0a1.32,1.32,0,0,1,1.09-.79,1.08,1.08,0,0,1,.44.08l-.15.7a1.16,1.16,0,0,0-.38-.06c-.32,0-.7.22-.94.83v2.4h-.8Z" fill="#fff"/><circle cx="91.36" cy="208.89" r="22.5" fill="#7d3787" stroke="#002a5e" stroke-miterlimit="10" stroke-width="0.84"/><path d="M90.6,205.48v.76H85.92v-.76h.6V199.8h-.46v.56H85v1.3c0,.11,0,.23,0,.35H86.2v.76H84.9c0,.22-.06.44-.1.67.36.37,1.15,1.32,1.36,1.58l-.52.67c-.22-.36-.69-1-1.06-1.45a4.85,4.85,0,0,1-1.49,2.28,3,3,0,0,0-.57-.56,4.57,4.57,0,0,0,1.6-3.19H82.55V202h1.61c0-.12,0-.25,0-.37v-1.28h-.46a6.55,6.55,0,0,1-.53,1.35,4,4,0,0,0-.66-.44,7.6,7.6,0,0,0,.8-2.77l.76.13c0,.32-.1.66-.17,1H86V199h4.44v.76H87.32V201h2.86v3H87.32v1.44Zm-3.28-3.73v1.53H89.4v-1.53Z" fill="#fff"/><path d="M94.28,199.16c-.24.74-.55,1.66-.83,2.36a2.66,2.66,0,0,1,.73,1.84,1.19,1.19,0,0,1-.37,1,.94.94,0,0,1-.47.19h-.6a1.69,1.69,0,0,0-.19-.74,2.34,2.34,0,0,0,.45,0,.47.47,0,0,0,.27-.07.68.68,0,0,0,.17-.55,2.46,2.46,0,0,0-.72-1.65c.22-.61.45-1.41.62-2H92.4v7h-.72v-7.71h1.93l.13,0Zm5.12,6.19H97.12v1.23h-.79v-1.23H94v-.73h2.31v-.73H94.47v-3.18h1.86V200h-2v-.71h2v-.8h.79v.8h2.14V200H97.12v.7h1.93v3.18H97.12v.73H99.4ZM95.22,202h1.17v-.68H95.22Zm0,1.27h1.17v-.69H95.22Zm3-1.95H97.08V202h1.19Zm0,1.26H97.08v.69h1.19Z" fill="#fff"/><path d="M90,212.35a10,10,0,0,1-.86,3.31,3.84,3.84,0,0,0,1.58,1.7,2.7,2.7,0,0,0-.52.64,4.23,4.23,0,0,1-1.47-1.63,5.3,5.3,0,0,1-2,1.68,3,3,0,0,0-.29-.47l-.24.21a8.6,8.6,0,0,0-1.09-.53,7.73,7.73,0,0,1-2.31.76,2,2,0,0,0-.34-.54,7.71,7.71,0,0,0,1.89-.53c-.43-.15-.85-.28-1.24-.38.16-.21.34-.46.51-.73h-1v-.58H84c.09-.16.17-.32.25-.48H83v-1.47h1.6V213H83.13v-1h-.6v-.61h.6v-.91h1.43v-.55h.63v.55h1.52v.91h.48V212h-.48v1H85.19v.34h1.68v.42A12.71,12.71,0,0,0,88,209.94l.68.14c-.09.52-.21,1-.34,1.55H90.6v.72Zm-6.32,1.94h.92v-.49h-.92Zm.13-3.25v.4h.79V211Zm.79,1.39V212h-.79v.47Zm-.2,3.41c-.08.15-.18.29-.26.43.3.08.61.19.91.3a1.54,1.54,0,0,0,.57-.73Zm1.91,0a2,2,0,0,1-.58,1,7.59,7.59,0,0,1,.94.44,4.41,4.41,0,0,0,1.71-1.66,11,11,0,0,1-.6-2.08c-.14.31-.28.6-.43.87a3.6,3.6,0,0,0-.44-.42v.79H85c-.07.16-.16.32-.25.48h1V215h.65v.3h.81v.58ZM85.19,211v.4h.87V211Zm.87,1.39V212h-.87v.47Zm-.87,1.37v.49h1v-.49Zm3-1.45,0,.07a13.59,13.59,0,0,0,.58,2.38,9.66,9.66,0,0,0,.53-2.45Z" fill="#fff"/><path d="M91.51,210.37h4.32v.75h-2c-.11.38-.23.78-.37,1.17H95l.14,0,.5.17c-.46,2.87-1.67,4.69-3.28,5.61a3.16,3.16,0,0,0-.62-.59,5.25,5.25,0,0,0,2.09-2,13.4,13.4,0,0,0-1.45-1,4.68,4.68,0,0,1-.6.72,5,5,0,0,0-.58-.54,7.27,7.27,0,0,0,1.77-3.48H91.51ZM93.12,213a7.69,7.69,0,0,1-.38.76,15.21,15.21,0,0,1,1.42.94,8.92,8.92,0,0,0,.53-1.7Zm3.8,2.69h-.8v-4.78h.8Zm2.1-5.61V217c0,.5-.12.73-.42.87A5.06,5.06,0,0,1,97,218a3.62,3.62,0,0,0-.28-.82c.57,0,1.11,0,1.28,0s.22-.06.22-.21v-6.9Z" fill="#fff"/><circle cx="95.95" cy="269.09" r="22.5" fill="#7d3787" stroke="#002a5e" stroke-miterlimit="10" stroke-width="0.84"/><path d="M88.55,264.32a8.13,8.13,0,0,1-.89,1.77,4,4,0,0,0-.56-.39,5.12,5.12,0,0,0,.81-1.58Zm1.14-.58v3H88.9v-3H87.21v-.69H88.9v-.8H87.15v-.69h1a4.54,4.54,0,0,0-.3-1.1l.66-.17a4.92,4.92,0,0,1,.33,1.09l-.65.18h1.39a9.17,9.17,0,0,0,.43-1.28l.76.16c-.15.39-.3.79-.45,1.12h1v.69H89.69v.8h1.5v.69Zm1.48-3.46H87.29v-.68h1.62c-.1-.25-.22-.53-.32-.75l.81-.21c.15.3.32.67.44,1h1.33Zm-.63,3.77a7.77,7.77,0,0,1,.73,1.32l-.57.35a9.37,9.37,0,0,0-.7-1.37Zm4.63-1.67h-.89v4.36h-.81v-4.36h-1v.21a7.71,7.71,0,0,1-.89,4.15,3,3,0,0,0-.63-.49,6.68,6.68,0,0,0,.76-3.66v-3a13.13,13.13,0,0,0,2.69-.71l.65.6a15,15,0,0,1-2.58.65v1.54h2.73Z" fill="#fff"/><path d="M97.13,261.82v5h-.8V259H99.6v2.81Zm0-2.25v.56h1.7v-.56Zm1.7,1.67v-.55h-1.7v.55Zm2.67,4.34v1h-.74v-1H97.57V265h.8v-2.2h-.6v-.59h4.32v.59h-.59V265h.72v.59Zm-2.4-2.79v.41h1.66v-.41Zm0,1.3h1.66v-.41H99.1Zm1.66.9v-.41H99.1V265Zm2.84.9c0,.41-.08.61-.32.73a3,3,0,0,1-1.21.14,2.65,2.65,0,0,0-.24-.72,7.89,7.89,0,0,0,.82,0c.12,0,.15,0,.15-.16v-4.07h-2.53V259h3.33Zm-2.54-6.32v.56h1.74v-.56Zm1.74,1.67v-.55h-1.74v.55Z" fill="#fff"/><path d="M92.6,271.47a1.62,1.62,0,0,1,0,.21,4.07,4.07,0,0,0,2.58.85,2.46,2.46,0,0,0-.45.67,4.26,4.26,0,0,1-2.35-1,3.83,3.83,0,0,1-2.53,1,2.72,2.72,0,0,0-.41-.61H87.19V272h2.55v.58c1.91-.25,2.11-.74,2.11-1.12v-.11h-.73a3.89,3.89,0,0,1-.64.82,3.45,3.45,0,0,0-.61-.42,3.7,3.7,0,0,0,1-1.62l.73.16c0,.15-.11.29-.17.44h2.75l.11,0,.57.18a7.44,7.44,0,0,1-.77,1.3l-.64-.22c.11-.16.24-.39.37-.61H92.6Zm-.07,5.34a21.3,21.3,0,0,1,2.49.95l-.74.45a18.12,18.12,0,0,0-2.37-1l.51-.41H89.79l.73.33a12.52,12.52,0,0,1-2.7,1.1,7,7,0,0,0-.6-.62,9.52,9.52,0,0,0,2.53-.81H88.33v-3.54h5.74v3.54Zm-3-5.56H87.37v-.62h2.16Zm-.4,3h4.12v-.51H89.13Zm0,1h4.12v-.49H89.13Zm0,1h4.12v-.52H89.13Z" fill="#fff"/><path d="M99.14,272.27H96v-.65h1.5a8.74,8.74,0,0,0-.59-1.19l.59-.33a8.62,8.62,0,0,1,.6,1.16l-.58.36h1.65Zm-2.82,1.16v-.64h2.5v.64Zm0,.52h2.51v.64H96.32Zm2.51,3.77H97v.4h-.64v-3h2.51ZM97,275.8v1.26h1.22V275.8Zm6.16-5.18c-.06,3.26-.07,6.54.34,6.66a3.6,3.6,0,0,0,.14-1.14,5,5,0,0,0,.45.62c-.1,1.25-.46,1.53-.92,1.34-.86-.3-.84-3.25-.83-6.7H101v2.48h1v.76h-1v3.59h-.77v-3.59H99.14v-.76h1.09V271.4h-1v-.78Z" fill="#fff"/><circle cx="234.09" cy="280.02" r="22.5" fill="#7d3787" stroke="#002a5e" stroke-miterlimit="10" stroke-width="0.84"/><path d="M227.65,276.36a5,5,0,0,0,2.17.34c.51,0,2.93,0,3.56,0a3.08,3.08,0,0,0-.34.81h-3.23c-1.81,0-2.89-.27-3.58-1.49a5,5,0,0,1-.61,1.7,1.82,1.82,0,0,0-.52-.48,7.19,7.19,0,0,0,.6-3.62l.68,0c0,.32,0,.67,0,1a3.31,3.31,0,0,0,.55,1.13V273h-1.59v-.72h1.38v-.89h-1.16v-.72h1.16v-1h.74v1h1.08v.59a4.31,4.31,0,0,0,1.13-1.63l.7.17a2.53,2.53,0,0,1-.18.37h2.89s0,.17,0,.27c-.09,1.54-.16,2.11-.36,2.34a.66.66,0,0,1-.5.21,4.49,4.49,0,0,1-.83,0,1.41,1.41,0,0,0-.15-.52c.29,0,.55,0,.66,0a.27.27,0,0,0,.23-.08,4.2,4.2,0,0,0,.25-1.69h-2.5c-.08.13-.16.25-.25.37h.07v.66h.55v-.81h.54v.81h.54v-.66h.56v1.13h-1.14a1.23,1.23,0,0,1-.7.71l.27.07a3.24,3.24,0,0,1-.19.37h3s0,.19,0,.29c-.08,1.67-.17,2.29-.38,2.52a.65.65,0,0,1-.5.22,5.75,5.75,0,0,1-.86,0,1.45,1.45,0,0,0-.15-.54c.29,0,.56,0,.67,0s.19,0,.24-.08a4.78,4.78,0,0,0,.27-1.86h-2.61l-.29.39h.11V275h.56v-.85h.59V275h.55v-.69h.57v1.19h-1.2c-.16.42-.58.79-1.6,1a1.7,1.7,0,0,0-.35-.43,2,2,0,0,0,1.28-.6h-.93v-.72l-.09.08a3.18,3.18,0,0,0-.35-.26v.07h-1Zm0-3.41v1h1v.24a4.83,4.83,0,0,0,.81-1.09l-.34.07a1.17,1.17,0,0,0-.3-.41c.79-.12,1.17-.34,1.33-.58h-1v-.59l-.1.1a4.86,4.86,0,0,0-.53-.36h-1.07v.89h1.28V273Z" fill="#fff"/><path d="M235.82,271.57a1.72,1.72,0,0,1-1.37,1.21,2,2,0,0,0-.32-.48c.55-.12.94-.34,1.07-.73h-1V271h1.57v-.41h-1.25v-.52h1.25v-.47h.75v.47h1.26v.52h-1.26V271h1.61v.54H237v.26c0,.17,0,.23.13.23h.39a1.94,1.94,0,0,0,.4,0c0,.15,0,.32,0,.48a1.78,1.78,0,0,1-.44,0H237c-.5,0-.6-.23-.6-.72v-.25Zm5.55-.94c0,1.9,0,3.36.28,3.36.11,0,.15-.45.16-1.05a2.5,2.5,0,0,0,.46.46c-.06.91-.18,1.29-.68,1.29-.84,0-.93-1.41-.94-3.4h-.77a9.88,9.88,0,0,1-.18,1.22,9.8,9.8,0,0,1,.88.57l-.37.58-.72-.51a2.77,2.77,0,0,1-1.12,1.37A2.19,2.19,0,0,0,238,274v.3l-3.76.28,0-.6,1.63-.09v-.51h-1.26v-.52h1.26v-.45h.75v.45h1.29v.52h-1.29v.46l1.43-.1V274a2.39,2.39,0,0,0,.94-1.22l-.74-.46.35-.51.58.34a7.29,7.29,0,0,0,.11-.85h-.87v-.66h.91c0-.31,0-.65,0-1h.7c0,.35,0,.69,0,1Zm0,4.44s0,.23,0,.33c-.14,1.25-.28,1.8-.53,2a1,1,0,0,1-.68.25c-.25,0-.73,0-1.24,0a1.61,1.61,0,0,0-.24-.74c.48.05,1,.06,1.15.06a.46.46,0,0,0,.34-.08c.14-.12.24-.47.33-1.22h-2.3c-.4,1.06-1.31,1.7-3.58,2a2.44,2.44,0,0,0-.37-.67c1.88-.22,2.69-.64,3.08-1.35h-2.59v-.64h2.82l.09-.5h.82c0,.17,0,.34-.08.5Z" fill="#fff"/><path d="M225.18,288.4a9.55,9.55,0,0,0,.38-1.9l.44.14a11.7,11.7,0,0,1-.35,1.94Zm3.46-2.67c-.06,2.12-.12,2.88-.31,3.13a.54.54,0,0,1-.45.25,3.75,3.75,0,0,1-.7,0,1.91,1.91,0,0,0-.17-.62,4.37,4.37,0,0,0,.55,0,.22.22,0,0,0,.22-.1,2.78,2.78,0,0,0,.15-.95l-.33.13a10.45,10.45,0,0,0-.43-1.15l.32-.11a8.2,8.2,0,0,1,.44,1.08c0-.32,0-.76,0-1.32h-2.33v-4.66h3v.67h-1v.7h.86v.34a6.39,6.39,0,0,0,2.28-2.18l.75.24c-.06.09-.11.19-.18.28a7.57,7.57,0,0,0,2.05,1.41,3.94,3.94,0,0,0-.32.73,7,7,0,0,1-.8-.5v.51h-2.6v-.42c-.23.16-.46.31-.7.45a2.84,2.84,0,0,0-.49-.49v.26h-.86v.66h.88v.63h-.88v.7h1Zm-2.14.9a15.76,15.76,0,0,1,.11,1.59l-.4,0a14.66,14.66,0,0,0-.08-1.58Zm-.21-4.5v.7H227v-.7Zm.67,1.33h-.67v.66H227Zm-.67,2H227v-.7h-.67Zm.72,1.08a13,13,0,0,1,.3,1.42l-.37.07a13,13,0,0,0-.29-1.43Zm3.25.14a6.27,6.27,0,0,1-.19.69,5.15,5.15,0,0,1,.91.71l-.43.54a4.43,4.43,0,0,0-.73-.64,4.25,4.25,0,0,1-.82,1.19c-.12-.11-.39-.35-.55-.47a3.9,3.9,0,0,0,1.12-2.15ZM229,284.25h1.8v2.07H229Zm.56,1.52h.66v-1h-.66Zm2.56-2.75a8.54,8.54,0,0,1-1.15-1,7.19,7.19,0,0,1-1,1Zm.38,3.6a5.5,5.5,0,0,1-.25,1,9.58,9.58,0,0,1,1.09.88l-.49.57a6.58,6.58,0,0,0-.88-.79,3.71,3.71,0,0,1-.65.91c-.13-.12-.43-.35-.6-.47a3.74,3.74,0,0,0,1.05-2.19Zm-1.35-2.37H233v2.07H231.1Zm.56,1.52h.72v-1h-.72Z" fill="#fff"/><path d="M237,283.2h-3v-.65h1.51a9.76,9.76,0,0,0-.67-1.19l.56-.34a8.54,8.54,0,0,1,.69,1.12l-.58.41H237Zm-.23,5.45H235v.4h-.64v-3h2.43Zm0-4.29H234.4v-.64h2.37Zm-2.37.52h2.37v.64H234.4Zm.62,1.85V288h1.14v-1.26Zm3.45-2.87a4,4,0,0,1-1.05,1.05,2.9,2.9,0,0,0-.49-.56,3.41,3.41,0,0,0,.94-.92,6.1,6.1,0,0,0-.75-.56l.43-.52a7,7,0,0,1,.7.45,3.94,3.94,0,0,0,.32-.76H237.4v-.65h1.44l.13,0,.49.16a6.34,6.34,0,0,1-.78,2h1.82a7.78,7.78,0,0,1-.89-2.25l.68-.12a6.3,6.3,0,0,0,.2.67l.59-.56.47.45a6.25,6.25,0,0,1-.83.67c.08.15.15.3.23.44a7,7,0,0,0,.68-.55l.48.46a9.71,9.71,0,0,1-.85.57,3.45,3.45,0,0,0,1,.91,2.89,2.89,0,0,0-.56.6,3.92,3.92,0,0,1-1-1v.41h-2.2Zm2.69,3.2c-.21.41-.44.88-.65,1.23h1.54V289h-4.94v-.66h1.42a4.25,4.25,0,0,0-.46-1.21l.69-.18a3.84,3.84,0,0,1,.52,1.21l-.62.18h1.11a9.47,9.47,0,0,0,.59-1.44Zm-3.34-2.36h3.49v2.14h-3.49Zm.7,1.49h2.06v-.86h-2.06Z" fill="#fff"/><circle cx="209.29" cy="107.73" r="22.5" fill="#7d3787" stroke="#002a5e" stroke-miterlimit="10" stroke-width="0.84"/><path d="M193.48,104.14a5.86,5.86,0,0,1-1.44,1.28,5,5,0,0,0-.52-.51,4.42,4.42,0,0,0,1.28-1.18Zm2.27-.42h-4.13v-.66h.57V99.23h1.06c0-.16.06-.34.09-.52H191.8v-.65h1.63c0-.25,0-.51.07-.72l.79,0-.12.67h1.41v.65h-1.53c0,.18-.07.36-.1.52h1.36v3.83h.44Zm-2.88-4v.52h1.74v-.52Zm1.74,1h-1.74v.51h1.74Zm-1.74,1v.47h1.74v-.47Zm0,1.4h1.74v-.47h-1.74Zm2.54,1.74a4.53,4.53,0,0,0,1.29-1l.68.43a5.6,5.6,0,0,1-1.64,1.2,4.85,4.85,0,0,0-.51-.49l-.21.18a5.76,5.76,0,0,0-1-1l.56-.4a6.12,6.12,0,0,1,1,.89Zm1.7-5.62c0-.24.09-.51.13-.75h-1.52v-.69h3.91v.69h-1.55c-.08.26-.15.52-.22.75h1.51v4.54H196V99.18Zm1.52.63h-1.95v.69h1.95Zm0,1.28h-1.95v.7h1.95Zm0,1.3h-1.95v.69h1.95Zm-.2,1.46a9.33,9.33,0,0,1,1.35,1.12l-.64.44a10.76,10.76,0,0,0-1.32-1.17Z" fill="#fff"/><path d="M207.72,103.59a3.32,3.32,0,0,1-1.2,1,13.41,13.41,0,0,0,1.86.28,2.32,2.32,0,0,0-.37.57,11.43,11.43,0,0,1-2.37-.49,13.58,13.58,0,0,1-2.74.52,2.15,2.15,0,0,0-.31-.55,14.81,14.81,0,0,0,2.2-.29,7.37,7.37,0,0,1-.8-.44,6.9,6.9,0,0,1-.75.3,4.44,4.44,0,0,0-.43-.44c.22-.08.44-.16.65-.26a4.24,4.24,0,0,1-.43-.42l.57-.21a3.57,3.57,0,0,0,.4.37,4.74,4.74,0,0,0,.64-.43h-.95v-1.38a4.17,4.17,0,0,1-.47.47,4.19,4.19,0,0,0-.42-.38,7.81,7.81,0,0,1-.53.64v3h-.72v-2.29c-.23.18-.47.37-.7.52a3.73,3.73,0,0,0-.45-.52,6.07,6.07,0,0,0,1.88-1.86l.6.21A4.43,4.43,0,0,0,204,100H201.1V98.55h2v-.36h-2.36v-.57h7.59v.57h-2.44v.36h2.08V100h-3.8l.57.16c0,.07-.08.17-.12.26h3.58V101h-3.93a1.59,1.59,0,0,1-.18.27h3.66v1.8h-2.21a2.83,2.83,0,0,1-.3.3h2l.14,0Zm-4.93-3.28a6.64,6.64,0,0,1-1.86,1.68,4.61,4.61,0,0,0-.48-.51,5.36,5.36,0,0,0,1.63-1.4Zm-.95-.79h1.21v-.46h-1.21Zm1.94-1h1.3v-.36h-1.3Zm1.3,1v-.46h-1.3v.46Zm-.71,2.46H207v-.31h-2.62Zm0,.69H207v-.31h-2.62Zm.2,1.19a6.74,6.74,0,0,0,1.11.47,4.39,4.39,0,0,0,.92-.47Zm1.27-4.8v.46h1.31v-.46Z" fill="#fff"/><path d="M214.13,101.68a8.48,8.48,0,0,0,3.25,2.6,5,5,0,0,0-.6.7,9.34,9.34,0,0,1-3.07-2.64v3.07h-.87v-3a9.48,9.48,0,0,1-3.06,2.59,5.49,5.49,0,0,0-.6-.69,8.43,8.43,0,0,0,3.23-2.6h-3v-.81h3.4V99.53h-2.77v-.81h2.77V97.34h.87v1.38h2.84v.81h-2.84v1.34h3.46v.81Z" fill="#fff"/><path d="M225.38,102.4a16.27,16.27,0,0,0-1.27-1.14,4,4,0,0,1-.69.91,4.16,4.16,0,0,0-.66-.42,7.77,7.77,0,0,0,3.42,2.57,3.39,3.39,0,0,0-.62.74,8.36,8.36,0,0,1-3.06-2.45v2.8h-.87v-2.77a8.7,8.7,0,0,1-3,2.41,4.24,4.24,0,0,0-.58-.69,8.18,8.18,0,0,0,3.61-3V99.3h-3.28v-.8h3.28V97.34h.87V98.5h3.39v.8H222.5v2l.24.38A4.11,4.11,0,0,0,224,99.45l.79.14a5.33,5.33,0,0,1-.31,1c.54.42,1.18.93,1.53,1.27Zm-4.76-2.8a7.64,7.64,0,0,1-.32,1,12.06,12.06,0,0,1,.93.87l-.56.58a7.81,7.81,0,0,0-.72-.75,4.76,4.76,0,0,1-1.06,1.31,4.16,4.16,0,0,0-.64-.54,4.42,4.42,0,0,0,1.58-2.61Z" fill="#fff"/><path d="M195.92,116.25a4.16,4.16,0,0,0,1.06-1l.68.39a6.19,6.19,0,0,1-1.45,1.21,3.63,3.63,0,0,0-.53-.5l.1,0h-2.16v.44H193v-2.43l-.21.27a1.25,1.25,0,0,0-.14-.21,10.21,10.21,0,0,1-.47,2.4,2.51,2.51,0,0,0-.63-.33,12.69,12.69,0,0,0,.5-4.21v-2.81h0a17.94,17.94,0,0,0,3.07-.51l.6.54a16.55,16.55,0,0,1-3,.52v.35h3v1.9h-3c0,.42,0,.92,0,1.44a5.27,5.27,0,0,0,.66-1.42l.58.15c-.06.2-.14.4-.21.59h.64c-.07-.18-.16-.38-.25-.56l.55-.14a4.1,4.1,0,0,1,.34.7h.85v.54h-.92V114h.83v.48h-.83v.41h.84v.49h-.84v.41h1ZM192.74,111v.64H195V111Zm1.64,2.58h-.76V114h.76Zm0,.89h-.76v.41h.76Zm-.76,1.31h.76v-.41h-.76Zm3.66-5.19c0-.22.07-.48.1-.7H196v-.69h3.6v.69H198.2c-.06.24-.12.48-.19.7h1.33v4.52h-3.1v-4.52Zm1.36.63h-1.73v.68h1.73Zm0,1.28h-1.73v.69h1.73Zm0,1.28h-1.73v.7h1.73Zm0,1.53a7.14,7.14,0,0,1,1.1,1.1l-.62.42a7.41,7.41,0,0,0-1.07-1.15Z" fill="#fff"/><path d="M201.69,112.29v4.58h-.81v-7.73h3.24v3.15Zm0-2.5v.62h1.65v-.62Zm1.65,1.86V111h-1.65v.66Zm.2,4v.51h-.75V113h3.32v2.64Zm0-2V115h1.8v-1.27Zm4.59,2.14c0,.5-.11.75-.43.89a5.13,5.13,0,0,1-1.64.14,2.81,2.81,0,0,0-.28-.83c.56,0,1.13,0,1.3,0s.22-.07.22-.23V112.3h-2.49v-3.16h3.32Zm-2.53-6v.62h1.7v-.62Zm1.7,1.87V111h-1.7v.67Z" fill="#fff"/><path d="M216.89,109.14v7.71h-.79v-.42h-5.65v.45h-.75v-7.74Zm-.79,6.65v-6h-5.65v6Zm-.24-1.36h-1.2v.71c0,.29-.07.39-.28.45a4.08,4.08,0,0,1-1.06.07,1.7,1.7,0,0,0-.18-.44h.71c.1,0,.12,0,.12-.12v-.68H210.7V114H214v-.29h.69V114h1.2Zm-1-1.58a5.31,5.31,0,0,1,.83.77l-.43.34a2.8,2.8,0,0,0-.34-.37c-1.5,0-3,.09-4.08.1l0-.46,2.08,0v-.36H211.1v-1.78h1.81v-.31h-2.1v-.48h2.1v-.36h.67v.36h2.14v.48h-2.14v.31h1.88v1.78Zm-2.62,2.67a4.47,4.47,0,0,0-.68-.82l.51-.27a4.38,4.38,0,0,1,.73.79Zm-.52-3.75h1.17v-.32h-1.17Zm1.17.7v-.33h-1.17v.33Zm.67-1v.32h1.22v-.32Zm1.22,1v-.33h-1.22v.33Zm-.29.72-.16-.13.33-.21h-1.1v.36Z" fill="#fff"/><path d="M221,109.45c-.25.73-.56,1.65-.83,2.33a2.72,2.72,0,0,1,.72,1.83,1.23,1.23,0,0,1-.36,1.06,1.31,1.31,0,0,1-.47.17,3.65,3.65,0,0,1-.58,0,1.88,1.88,0,0,0-.19-.71,2.34,2.34,0,0,0,.45,0,.38.38,0,0,0,.26-.08c.13-.09.17-.29.17-.55a2.48,2.48,0,0,0-.72-1.65c.23-.6.46-1.37.62-2h-1v7h-.72v-7.71h2l.11,0Zm4.94,2.39c-.34.24-.72.51-1.11.74a6.89,6.89,0,0,0,1.43,2.54,3,3,0,0,0-.52.54,8.38,8.38,0,0,1-1.48-2.74l-.11,0c.44,1.43.25,2.93-.26,3.4a1.13,1.13,0,0,1-.94.39c-.16,0-.45,0-.69,0a2,2,0,0,0-.2-.73c.29,0,.57,0,.75,0a.56.56,0,0,0,.5-.23,2.27,2.27,0,0,0,.31-1.5,10.09,10.09,0,0,1-2.38,1.41,2.12,2.12,0,0,0-.48-.6,7,7,0,0,0,2.77-1.6,5.47,5.47,0,0,0-.15-.58,12.11,12.11,0,0,1-1.85,1.17,3.12,3.12,0,0,0-.44-.59,7.53,7.53,0,0,0,2-1.17,3.73,3.73,0,0,0-.37-.6,8.89,8.89,0,0,1-1.54.93,3.66,3.66,0,0,0-.48-.59,6.77,6.77,0,0,0,2-1.17h-1.78v-.71h1.57a5.39,5.39,0,0,0-.93-1l.61-.38a5.29,5.29,0,0,1,1.05,1.08l-.44.3h.89a7.58,7.58,0,0,0,.88-1.42l.79.24a14.27,14.27,0,0,1-.81,1.18h1.5v.7h-2.38c-.12.14-.26.26-.4.4a4.07,4.07,0,0,1,.66,1,10.73,10.73,0,0,0,1.5-1.08Z" fill="#fff"/><ellipse cx="162.44" cy="246.7" rx="81.81" ry="144.98" transform="translate(-106.18 369.55) rotate(-81.21)" fill="none" stroke="#002a5e" stroke-miterlimit="10" stroke-width="0.9"/><circle cx="35.19" cy="199.21" r="16.98" fill="#fff" stroke="#002a5e" stroke-miterlimit="10" stroke-width="1.11"/><path d="M26,200l-.92.29v3h-.93v-2.76l-1.29.38-.25-1c.43-.09.95-.23,1.54-.4v-1.63h-.58a7.4,7.4,0,0,1-.31,1.1,7.44,7.44,0,0,0-.72-.47A11.13,11.13,0,0,0,23,195.8l.84.14c0,.35-.07.68-.13,1h.41v-1.64h.93V197h.71v1h-.71v1.38l.79-.22Zm4.61-3.34s0,.34,0,.46c-.16,3.82-.31,5.21-.64,5.64a.94.94,0,0,1-.67.45,4.89,4.89,0,0,1-1,0,2.8,2.8,0,0,0-.29-1c.32,0,.6,0,.76,0a.35.35,0,0,0,.32-.16c.22-.27.37-1.44.51-4.51h-.05c-.42,2.16-1.3,4.38-2.68,5.52a3.25,3.25,0,0,0-.83-.59c1.37-1,2.23-2.93,2.66-4.93h-.4a8.71,8.71,0,0,1-2,3.75,3.86,3.86,0,0,0-.78-.58,6.67,6.67,0,0,0,1.89-3.17H27a6.54,6.54,0,0,1-.88,1.53,6.39,6.39,0,0,0-.77-.57,7,7,0,0,0,1.4-3.23l.93.17c-.09.4-.2.78-.32,1.16Z" fill="#002a5e"/><path d="M34.16,201.59c-.94.34-2,.66-2.79.93l-.23-1,1-.28v-2h-.87v-.93h.87v-1.51h-.94v-.95h2.82v.95h-.91v1.51h.77v.93h-.77v1.71l.84-.26Zm5.08.53V203h-5.5v-.92H36.1v-.82H34.33v-.91H36.1v-.74H34.39v-4h4.47v4H37.14v.74H39v.91H37.14v.82Zm-3.94-4.87h.89v-.71H35.3Zm0,1.54h.89v-.74H35.3Zm2.59-2.25H37v.71h.85Zm0,1.51H37v.74h.85Z" fill="#002a5e"/><path d="M47.61,201.74H44.34v.62c0,.45-.1.67-.45.81a4.93,4.93,0,0,1-1.47.13,3.15,3.15,0,0,0-.31-.86c.41,0,.92,0,1,0s.18,0,.18-.13v-.58H39.87v-.8h3.47v-.25a6.12,6.12,0,0,0,.94-.5H41.53v-.71h3.73l.21,0L46,200a12.15,12.15,0,0,1-1.63,1h3.2ZM41,200.13H40v-1.75h.64l-.16-2.55a10.21,10.21,0,0,0,1.73-.48l.42.59a8.57,8.57,0,0,1-1.17.33l0,.25h1.08v.63H41.54l0,.29h1v.44a4.89,4.89,0,0,0,.6-.33l-.48-.28.47-.4.54.29a2.76,2.76,0,0,0,.33-.36l.67.2a3.57,3.57,0,0,1-.45.51c.2.14.38.27.52.39l-.51.45a4.76,4.76,0,0,0-.5-.42,6.75,6.75,0,0,1-.69.45h2.77l0-.3h-1v-.64H46l0-.29H45v-.63H46l0-.29H44.9v-.64H47c0,.9-.11,2-.17,2.79h.63v1.75h-1v-1H41Zm.62-1.75H43a4.84,4.84,0,0,0-.39-.4v.1h-1Zm2.65-1.58a4.76,4.76,0,0,0-.44-.36,4,4,0,0,1-.7.43,4.17,4.17,0,0,0-.53-.46,3.06,3.06,0,0,0,.65-.33c-.16-.09-.3-.18-.46-.26l.46-.39c.16.08.34.17.52.28.11-.12.22-.23.31-.35l.66.2a3.08,3.08,0,0,1-.42.47c.17.12.32.24.44.34Z" fill="#002a5e"/><circle cx="207.29" cy="329.72" r="16.98" fill="#fff" stroke="#002a5e" stroke-miterlimit="10" stroke-width="1.11"/><path d="M206.88,325.81v1h-7.7v-1h3.31v-1.72h-2.32v-1h2.32v-1.5h-1.77a7.59,7.59,0,0,1-.8,1.24,9.17,9.17,0,0,0-.92-.61,7.34,7.34,0,0,0,1.52-3.06l1,.23c-.12.41-.26.81-.4,1.2h1.32v-1.54h1.07v1.54h2.88v1h-2.88v1.5h2.56v1h-2.56v1.72Z" fill="#002a5e"/><path d="M210.92,323.73c-.3.08-.6.19-.92.28v3.05h-.93v-2.77c-.47.14-.89.28-1.29.38l-.25-1c.43-.09.95-.23,1.54-.39v-1.64h-.58a7.4,7.4,0,0,1-.31,1.1,7.44,7.44,0,0,0-.72-.47,11.13,11.13,0,0,0,.49-2.76l.84.15c0,.34-.07.67-.13,1h.41v-1.65H210v1.65h.71v1H210v1.38l.79-.22Zm4.61-3.35s0,.34,0,.46c-.16,3.82-.31,5.22-.64,5.64a.91.91,0,0,1-.67.45,5.69,5.69,0,0,1-1,0,2.85,2.85,0,0,0-.29-1,6,6,0,0,0,.76,0,.36.36,0,0,0,.32-.17c.22-.27.37-1.43.51-4.51h0c-.42,2.16-1.3,4.39-2.68,5.52a3.83,3.83,0,0,0-.83-.59,8.16,8.16,0,0,0,2.66-4.93h-.4a8.71,8.71,0,0,1-2,3.75,3.82,3.82,0,0,0-.78-.57,6.75,6.75,0,0,0,1.89-3.18H212a6.54,6.54,0,0,1-.88,1.53,6.39,6.39,0,0,0-.77-.57,7,7,0,0,0,1.4-3.22l.93.17c-.09.39-.2.78-.32,1.15Z" fill="#002a5e"/><path d="M200.18,332.22a4.06,4.06,0,0,0,2.52.73,3.25,3.25,0,0,0-.56.81,4.09,4.09,0,0,1-2.24-.87,3.87,3.87,0,0,1-2.48.88,2.62,2.62,0,0,0-.34-.56h-2.27v-.78h2.59V333c1.63-.17,1.85-.55,1.85-.87V332h-.52a3.73,3.73,0,0,1-.6.74,4.54,4.54,0,0,0-.75-.52,3.5,3.5,0,0,0,1-1.53l.89.2c0,.13-.09.26-.14.38h2.43l.15-.05.69.22a7.49,7.49,0,0,1-.78,1.35l-.79-.29a5.5,5.5,0,0,0,.3-.5h-.95v.27Zm.23,5c.79.29,1.63.64,2.13.88l-.92.55a15.59,15.59,0,0,0-2.22-1l.52-.42h-2.41l.74.34a10.82,10.82,0,0,1-2.67,1.12,6.64,6.64,0,0,0-.75-.75,9.41,9.41,0,0,0,2.33-.71h-1.23v-3.47h5.73v3.47Zm-3.21-5.39H195v-.75h2.19Zm-.28,2.89h3.7v-.37h-3.7Zm0,.94h3.7v-.36h-3.7Zm0,1h3.7v-.38h-3.7Z" fill="#002a5e"/><path d="M206.49,332.91h-3.14v-.8h1.36a7,7,0,0,0-.5-1.08l.72-.37a8.19,8.19,0,0,1,.58,1.14l-.52.31h1.5Zm-2.79,1.16v-.77h2.48v.77Zm0,.37h2.5v.77h-2.5Zm2.5,3.78h-1.71v.36h-.78v-2.95h2.49Zm-1.71-1.78v1h.91v-1Zm6-5.31c-.08,2.82-.07,6.33.25,6.43a5.08,5.08,0,0,0,.11-1.09,3.88,3.88,0,0,0,.53.82c-.13,1.25-.57,1.52-1.1,1.3-.81-.35-.82-3.31-.81-6.49h-1v2.26h.82v.95h-.82v3.37h-.95v-3.37h-1v-.95h1V332.1h-.84v-1Z" fill="#002a5e"/><path d="M219.7,337.12h-3.26v.62c0,.45-.11.68-.46.81a4.86,4.86,0,0,1-1.46.13,3.28,3.28,0,0,0-.31-.86c.4,0,.92,0,1,0s.18,0,.18-.12v-.59H212v-.8h3.46v-.25a6.21,6.21,0,0,0,.95-.5h-2.75v-.71h3.72l.22-.05.57.52a10.8,10.8,0,0,1-1.64,1h3.2Zm-6.61-1.61h-1v-1.75h.64l-.15-2.54a13.31,13.31,0,0,0,1.73-.48l.42.59a7.49,7.49,0,0,1-1.18.32l0,.25h1.09v.63h-1.05v.3h1.06v.43a5.7,5.7,0,0,0,.6-.32l-.48-.29.47-.4.54.29a2.76,2.76,0,0,0,.33-.36l.67.2a3.12,3.12,0,0,1-.46.51,4.28,4.28,0,0,1,.53.4l-.52.44c-.13-.13-.3-.26-.49-.42a8.17,8.17,0,0,1-.7.45H218l0-.3h-1v-.63h1.07l0-.3H217v-.63h1.09l0-.28H217V331h2.14c0,.9-.11,2-.18,2.78h.63v1.75h-1v-1h-5.49Zm.61-1.75h1.39c-.09-.11-.26-.28-.38-.4v.1h-1Zm2.66-1.58a5,5,0,0,0-.45-.36,3.72,3.72,0,0,1-.69.43,4,4,0,0,0-.53-.45,4.48,4.48,0,0,0,.65-.34c-.16-.09-.31-.18-.46-.25l.45-.4.52.28a2.45,2.45,0,0,0,.31-.34l.67.19a3.15,3.15,0,0,1-.43.47,4.74,4.74,0,0,1,.45.35Z" fill="#002a5e"/><circle cx="42.67" cy="274.88" r="16.98" fill="#fff" stroke="#002a5e" stroke-miterlimit="10" stroke-width="1.11"/><path d="M35.57,267.79h-.93v-1.92h3.23v-.35H35v-.66h6.71v.66H38.87v.35h3.3v1.92h-1l-.18.61a13.78,13.78,0,0,0-2-.47l.2-.57a10.31,10.31,0,0,1,1.92.4v-1.23h-.46L41,267a8.08,8.08,0,0,1-1.53.41l-.31-.48a10.42,10.42,0,0,0,1.17-.37H38.87v1.78h-1v-1.78H36.24a9.62,9.62,0,0,1,1.33.36l-.27.54a12.84,12.84,0,0,0-1.47-.42l.24-.48h-.46v1.18c.52-.06,1.24-.17,2-.28l0,.59-1.82.41ZM41,271.65c.44,0,.52-.13.58-.84a2.71,2.71,0,0,0,.84.31c-.12,1-.4,1.3-1.33,1.3h-1.8c-1.16,0-1.5-.24-1.5-1.13v0H36.4v.37h-1v-3.11h5.93v2.74H38.8v0c0,.31.1.36.61.36Zm-4.63-2.44v.39h1.42v-.39Zm1.42,1.37v-.38H36.4v.38Zm2.53-1.37H38.8v.39h1.55Zm0,1.37v-.38H38.8v.38Z" fill="#002a5e"/><path d="M45.79,271.5c0,.44-.07.7-.33.85a2.22,2.22,0,0,1-1.16.18,3.66,3.66,0,0,0-.25-.9h.75c.1,0,.14,0,.14-.16v-2l-.52.54-.24-.59a10.14,10.14,0,0,1-.6,3.15,3.38,3.38,0,0,0-.68-.58,12.34,12.34,0,0,0,.49-4.11v-3h2.4Zm-1.57-3.6c0,.37,0,.78,0,1.23l.74-.55v-.85l-.32.22a6.22,6.22,0,0,0-.4-.59Zm0-2.14v1.07l.27-.17c.14.16.31.35.45.53v-1.43ZM47,267.91a9.9,9.9,0,0,0-1.06-1.74,14.11,14.11,0,0,0,.92-1.6l.88.21c-.26.47-.57,1-.84,1.39a11,11,0,0,1,.94,1.4Zm1.94-.15q-.15.24-.33.48h2.13v4.27h-.94v-.3H47.1v.33h-.91v-4.3h1.4a5,5,0,0,0,.27-.68l.6.11a9.14,9.14,0,0,0-1-1.5,14.59,14.59,0,0,0,.9-1.52l.88.21c-.26.44-.56.9-.82,1.3a8.89,8.89,0,0,1,.92,1.31l-.61.25Zm.86,1.3h-.85l.68.36a6.8,6.8,0,0,1-.54.69c.26.22.51.43.69.61l-.57.56a6.51,6.51,0,0,0-.69-.62,5.94,5.94,0,0,1-.92.66,3,3,0,0,0-.49-.53v.6h2.69Zm-2.69,0v1.7a6.34,6.34,0,0,0,.82-.57c-.25-.18-.48-.35-.71-.5l.53-.49c.23.14.48.3.71.46a3.56,3.56,0,0,0,.46-.6Zm3-1.28A8.1,8.1,0,0,0,49,266.17a13,13,0,0,0,.93-1.51l.9.21c-.25.43-.55.89-.83,1.28a8.6,8.6,0,0,1,1,1.27Z" fill="#002a5e"/><path d="M37.21,281.65a7.71,7.71,0,0,0-.51-.94v3.47h-1V281.1a8.1,8.1,0,0,1-.94,1.7,5.1,5.1,0,0,0-.47-1,8.13,8.13,0,0,0,1.27-2.3H34.42v-.95h1.3v-1c-.34.05-.65.1-1,.13a2.89,2.89,0,0,0-.27-.78,13.4,13.4,0,0,0,2.75-.71l.58.84a8.1,8.1,0,0,1-1.11.31v1.17h1.13v.95H36.7v.07c.25.24.95,1,1.11,1.24Zm4.22.37v2.15h-1v-2l-2.58.44-.16-1,2.74-.47v-5h1V281l.85-.14.17.95Zm-2.14-1.19a7.79,7.79,0,0,0-1.36-1.31l.65-.58a7.53,7.53,0,0,1,1.4,1.24Zm.22-2.26a6.46,6.46,0,0,0-1.28-1.29l.67-.58a7.19,7.19,0,0,1,1.32,1.23Z" fill="#002a5e"/><path d="M50.81,282.62H47.54v.61c0,.46-.1.68-.45.82a4.92,4.92,0,0,1-1.46.12,3.6,3.6,0,0,0-.31-.85c.4,0,.91,0,1,0s.18,0,.18-.13v-.58H43.08v-.81h3.46v-.25a5.63,5.63,0,0,0,.94-.49H44.74v-.71h3.72l.21-.05.58.52a12.26,12.26,0,0,1-1.64,1h3.2ZM44.2,281h-1v-1.76h.64l-.15-2.54a13.31,13.31,0,0,0,1.73-.48l.42.59a8.72,8.72,0,0,1-1.18.33l0,.24H45.8V278H44.74l0,.29h1.05v.44a6.73,6.73,0,0,0,.6-.33c-.16-.1-.32-.2-.48-.28l.48-.4a5.65,5.65,0,0,1,.53.29,3.82,3.82,0,0,0,.34-.36l.67.19a3.73,3.73,0,0,1-.46.52,2.93,2.93,0,0,1,.52.39l-.51.45a4.76,4.76,0,0,0-.5-.42,6.62,6.62,0,0,1-.69.44h2.77l0-.3h-1v-.63h1.07l0-.29H48.15v-.64h1.09l0-.28H48.11v-.64h2.14c0,.9-.11,2-.18,2.78h.63V281h-1v-1H44.2Zm.61-1.76H46.2a4.77,4.77,0,0,0-.39-.39V279h-1Zm2.66-1.57a5,5,0,0,0-.45-.36,5.2,5.2,0,0,1-.69.43,4.07,4.07,0,0,0-.53-.46,3.62,3.62,0,0,0,.65-.33L46,276.7l.45-.39c.16.07.34.17.52.27a3.28,3.28,0,0,0,.31-.34l.67.2a3.74,3.74,0,0,1-.43.47c.17.12.32.24.44.34Z" fill="#002a5e"/><circle cx="286.3" cy="292.39" r="16.98" fill="#fff" stroke="#002a5e" stroke-miterlimit="10" stroke-width="1.11"/><path d="M280.9,281.87a13.66,13.66,0,0,1-.83,1.78v5.87h-1v-4.29l-.53.62a7.62,7.62,0,0,0-.57-1.09,8.73,8.73,0,0,0,1.95-3.2Zm2.71,2v.9h2.22v.92h-2.22v1h2.33v.94h-2.33v1.9h-1v-5.63h-.33a9.59,9.59,0,0,1-1.12,1.66,6.65,6.65,0,0,0-.78-.71,8.58,8.58,0,0,0,1.82-3.23l1,.25a10.61,10.61,0,0,1-.42,1.06H286v1Z" fill="#002a5e"/><path d="M289.86,288.19a6.65,6.65,0,0,1-2.49,1.14,3.75,3.75,0,0,0-.6-.74,7,7,0,0,0,2.37-.73Zm4.54-1.45v.84h-3.32v1.95h-1v-1.95h-3.26v-.84h3.26v-.38H287.6v-.73h2.47v-.39h-2.89v-.77h1.57a4.57,4.57,0,0,0-.32-.62l.58-.13h-2.18v-.8H288a8.27,8.27,0,0,0-.55-1.06l.87-.29a5.29,5.29,0,0,1,.65,1.2l-.41.15h.79v-1.39h.94v1.39h.65v-1.39h.95v1.39h.77l-.31-.09a7.11,7.11,0,0,0,.55-1.23l1.07.25c-.24.39-.47.77-.69,1.07h1.1v.8h-2.25l.8.21-.52.54h1.65v.77h-3v.39h2.57v.73h-2.57v.38Zm-4.94-3a3.09,3.09,0,0,1,.34.64l-.46.11h2.34l-.31-.09c.14-.2.32-.45.44-.66Zm2.67,4.09c.7.26,1.71.69,2.25,1l-.72.56a22.29,22.29,0,0,0-2.21-1Z" fill="#002a5e"/><path d="M280,294.49a15.91,15.91,0,0,1-.46,1.71h1.6v3.94H279.5v.62h-.85v-2.65c-.11.16-.22.31-.34.46a5.52,5.52,0,0,0-.35-1.22,7.25,7.25,0,0,0,1.09-2.86h-.91v-.92h3.11v.92Zm.27,2.61h-.77v2.14h.77Zm5.75.51h-.9v3.56h-1v-3.56h-1a5.59,5.59,0,0,1-1.18,3.62,4.13,4.13,0,0,0-.77-.59,4.76,4.76,0,0,0,1-3h-.79v-1h.81v-2.11h-.59v-.94h4.19v.94h-.73v2.11h.9Zm-1.86-1v-2.11h-1v2.11Z" fill="#002a5e"/><path d="M293.43,300c.2,0,.23-.16.27-1.22a3.13,3.13,0,0,0,1,.44c-.11,1.4-.37,1.78-1.11,1.78h-.8c-.84,0-1.11-.3-1.11-1.3v-1.11h-1.12c-.21,1-1,2-3.17,2.61a5.37,5.37,0,0,0-.72-.87c1.77-.45,2.49-1.09,2.75-1.74h-2.1v-.94h2.24v-.94h1.08v.94h2.11v2c0,.27,0,.31.24.31ZM288,295.67h-1v-1.75h3.12c-.06-.21-.12-.43-.18-.61l1.08-.17c.09.24.18.52.26.78h3.11v1.67h-1.07v-.75h-1.2v1.09c0,.23,0,.32.25.32h1a3.26,3.26,0,0,0,.74-.07c0,.28.06.62.09.86a3.39,3.39,0,0,1-.79.07h-1.15c-1,0-1.2-.35-1.2-1.19v-1.08h-.88c-.17,1.21-.65,1.94-2.61,2.35a2.48,2.48,0,0,0-.54-.83c1.62-.26,2-.72,2.08-1.52H288Z" fill="#002a5e"/><circle cx="279.45" cy="210.53" r="16.98" fill="#fff" stroke="#002a5e" stroke-miterlimit="10" stroke-width="1.11"/><path d="M278.6,202a10.2,10.2,0,0,1-.8,3.16,3.66,3.66,0,0,0,1.48,1.56,3.12,3.12,0,0,0-.65.79,4.38,4.38,0,0,1-1.35-1.48,4.91,4.91,0,0,1-1.85,1.52,4,4,0,0,0-.28-.5l-.26.23a7.55,7.55,0,0,0-1-.49,7.3,7.3,0,0,1-2.37.73,2.79,2.79,0,0,0-.39-.66,8.31,8.31,0,0,0,1.79-.44c-.4-.14-.81-.26-1.18-.35.15-.19.31-.41.47-.65h-.91v-.69h1.34a3.59,3.59,0,0,0,.21-.38h-1.19v-1.52h1.52v-.25h-1.37v-.94h-.59v-.72h.59V200h1.37v-.51h.77V200h1.47v.88h.44v.72h-.44v.94h-1.47v.25h1.59v.35a13.69,13.69,0,0,0,1-3.65l.84.15a14.55,14.55,0,0,1-.3,1.43h2.08V202Zm-6.12,1.78h.68v-.37h-.68Zm.06-3.1v.3h.62v-.3Zm.62,1.26v-.35h-.62v.35Zm-.05,3.48-.19.29c.28.08.55.15.82.25a1.42,1.42,0,0,0,.44-.54Zm1.92,0a2,2,0,0,1-.46.85l.78.34a4,4,0,0,0,1.52-1.47,10.83,10.83,0,0,1-.5-1.77c-.12.27-.24.52-.36.73a5.46,5.46,0,0,0-.49-.51v.76h-1.8c-.06.13-.13.25-.2.38h.77v-.25h.79v.25h.71v.69Zm-1.1-4.74v.3h.66v-.3Zm.66,1.26v-.35h-.66v.35Zm-.66,1.47v.37h.7v-.37Zm2.92-1.41a12,12,0,0,0,.49,2.06,10.21,10.21,0,0,0,.39-2.06Z" fill="#002a5e"/><path d="M287.59,205.92h-3.27v.61c0,.46-.1.68-.45.82a4.9,4.9,0,0,1-1.47.13,3.13,3.13,0,0,0-.3-.86c.4,0,.91,0,1,0s.18,0,.18-.13v-.58h-3.47v-.81h3.47v-.25a6,6,0,0,0,.94-.49h-2.75v-.71h3.73l.21,0,.58.52a12.92,12.92,0,0,1-1.64,1h3.2ZM281,204.31h-1v-1.76h.64L280.5,200a11.42,11.42,0,0,0,1.72-.48l.42.59a8.57,8.57,0,0,1-1.17.33l0,.24h1.09v.64h-1.06l0,.29h1v.44a6.73,6.73,0,0,0,.6-.33c-.16-.1-.32-.2-.48-.28l.47-.4c.17.08.35.18.54.29a3.82,3.82,0,0,0,.34-.36l.66.19a3.11,3.11,0,0,1-.45.52,3.51,3.51,0,0,1,.52.39l-.51.45a4.76,4.76,0,0,0-.5-.42,6.62,6.62,0,0,1-.69.44h2.77l0-.3h-1v-.63H286v-.29h-1v-.64H286v-.28h-1.14v-.64H287c0,.9-.11,2-.18,2.78h.63v1.76h-1v-1H281Zm.61-1.76H283c-.1-.11-.26-.27-.39-.39v.09h-1Zm2.66-1.57c-.12-.11-.28-.23-.45-.36a4.33,4.33,0,0,1-.69.43,4.07,4.07,0,0,0-.53-.46,3.62,3.62,0,0,0,.65-.33l-.47-.26.46-.39.52.27a3.28,3.28,0,0,0,.31-.34l.67.2a3.74,3.74,0,0,1-.43.47c.17.12.32.24.44.34Z" fill="#002a5e"/><path d="M267.94,216.88a10.47,10.47,0,0,1-.38,2.09,4.16,4.16,0,0,0-.75-.28,7.5,7.5,0,0,0,.34-1.94Zm1.52-.5a3.88,3.88,0,0,0-.08-.39,9.31,9.31,0,0,0-2.19.49,5.92,5.92,0,0,0-.32-.91,1.41,1.41,0,0,0,.67-.56,6.89,6.89,0,0,0,.52-.68,3.29,3.29,0,0,0-.94.18,8.1,8.1,0,0,0-.31-.9c.17,0,.31-.21.48-.46a9.62,9.62,0,0,0,1-2.1l.91.39a13.48,13.48,0,0,1-1.19,2.14l.57-.05a14,14,0,0,0,.66-1.28l.83.52a14.12,14.12,0,0,1-1.78,2.63l.87-.14a5.18,5.18,0,0,0-.26-.63l.69-.27a7.71,7.71,0,0,1,.6,1.72Zm-.63.3a17.4,17.4,0,0,1,.23,1.76l-.77.19a17,17,0,0,0-.17-1.77Zm.9-.25a11.19,11.19,0,0,1,.43,1.38l-.72.27a11.31,11.31,0,0,0-.39-1.42Zm4.13,1.64c.15,0,.18-.16.2-1.16a2.77,2.77,0,0,0,.86.37c-.09,1.32-.32,1.69-1,1.69h-.61c-.78,0-1-.3-1-1.2v-2.55l-.49.06c-.07,1.83-.3,3.12-1.7,3.88a2.66,2.66,0,0,0-.61-.8c1.13-.58,1.3-1.52,1.35-3a1.63,1.63,0,0,0-.58.14c-.06-.2-.23-.71-.35-1,.21-.06.38-.27.59-.62a6,6,0,0,0,.52-.89h-1v-.95h1.45c.14-.33.28-.67.39-1l1.1.29-.31.73h2v.95h-2.49c-.26.49-.54.94-.81,1.36l1.8-.18-.39-.66.82-.37a10.92,10.92,0,0,1,1.15,2.12l-.89.41a6.88,6.88,0,0,0-.26-.67l-.33.05v2.65c0,.27,0,.3.16.3Z" fill="#002a5e"/><path d="M279.28,213.35h-3.6v-.81h1.5c-.14-.32-.37-.75-.56-1.08l.8-.37a9.36,9.36,0,0,1,.62,1.14l-.56.31h1.8Zm-3.23,1.15v-.77h2.87v.77Zm2.86,1.15h-2.86v-.77h2.86Zm0,3h-2V219h-.86v-2.95h2.85Zm-2-1.78v1h1.11v-1Zm6.44-1.9h-1.58v4.15h-1.06V215h-1.5v-1h1.5v-2.69h1.06V214h1.58Z" fill="#002a5e"/><path d="M291.87,217.56H288.6v.61c0,.46-.1.68-.45.82a5,5,0,0,1-1.47.12,2.9,2.9,0,0,0-.31-.85c.41,0,.92,0,1.05,0s.18,0,.18-.13v-.58h-3.47v-.81h3.47v-.25a6,6,0,0,0,.94-.49h-2.75v-.71h3.73l.21-.05.57.52a12.12,12.12,0,0,1-1.63,1h3.2ZM285.25,216h-1v-1.76h.64l-.16-2.54a12.48,12.48,0,0,0,1.73-.48l.42.59a8.57,8.57,0,0,1-1.17.33l0,.24h1.08V213H285.8l0,.29h1.05v.44a6.73,6.73,0,0,0,.6-.33c-.16-.1-.32-.2-.48-.28l.47-.4c.17.08.35.18.54.29a2.76,2.76,0,0,0,.33-.36l.67.19a3.65,3.65,0,0,1-.45.52,5,5,0,0,1,.52.39l-.51.45a4.76,4.76,0,0,0-.5-.42,6.62,6.62,0,0,1-.69.44h2.77l0-.3h-1v-.63h1.08V213h-1v-.64h1.08l0-.28h-1.15v-.64h2.15c-.05.9-.12,2-.18,2.78h.63V216h-1v-1h-5.5Zm.62-1.76h1.39c-.1-.11-.26-.27-.39-.39v.09h-1Zm2.65-1.57a4.76,4.76,0,0,0-.44-.36,4.71,4.71,0,0,1-.7.43,3.5,3.5,0,0,0-.53-.46,3.06,3.06,0,0,0,.65-.33c-.16-.1-.3-.18-.46-.26l.46-.39c.16.07.34.17.52.27a3.28,3.28,0,0,0,.31-.34l.66.2a3.63,3.63,0,0,1-.42.47c.17.12.32.24.44.34Z" fill="#002a5e"/><circle cx="204.29" cy="168.92" r="16.98" fill="#fff" stroke="#002a5e" stroke-miterlimit="10" stroke-width="1.11"/><path d="M198.09,163.91a7.68,7.68,0,0,0-.35-.83v4h-.87v-3.29a8.11,8.11,0,0,1-.58,1.51,6.18,6.18,0,0,0-.41-1,8.25,8.25,0,0,0,.94-2.68h-.7v-.94h.75v-1.59h.87v1.59h.58v.94h-.58V162c.19.26.68,1.05.8,1.26Zm5.41.6a4.58,4.58,0,0,1-.93,1.25.8.8,0,0,0,.53.31c.16,0,.27-.29.33-.89a2.42,2.42,0,0,0,.64.54c-.22,1.06-.57,1.36-.94,1.34a1.76,1.76,0,0,1-1.25-.73,6.74,6.74,0,0,1-1.36.71,3.9,3.9,0,0,0-.52-.65,5.26,5.26,0,0,0,1.47-.77,7.37,7.37,0,0,1-.43-1.37h-1.17a1.21,1.21,0,0,1,0,.19c.35.28.84.67,1.08.91l-.61.61c-.15-.17-.4-.39-.64-.62a3.42,3.42,0,0,1-1.17,1.72,3.21,3.21,0,0,0-.68-.59,2.78,2.78,0,0,0,1.17-2.22h-.51v-.78h2.39a29.12,29.12,0,0,1-.29-3,10.92,10.92,0,0,1-1.16,1.78l.48-.05c0-.14-.08-.27-.12-.38l.6-.16a8.25,8.25,0,0,1,.33,1.24l-.63.18a1.18,1.18,0,0,0,0-.29,5.29,5.29,0,0,0-1.34.27c0-.14-.15-.51-.23-.7.14,0,.27-.17.42-.38a7.22,7.22,0,0,0,.41-.62,2.4,2.4,0,0,0-.69.15,4.76,4.76,0,0,0-.24-.69.55.55,0,0,0,.31-.3,6.18,6.18,0,0,0,.57-1.37l.73.19a8.61,8.61,0,0,1-.73,1.42l.38,0c.09-.18.17-.36.24-.53l.71.23c0-.41,0-.86-.05-1.3h.84a28.12,28.12,0,0,0,.36,4.33h.79l-.45-.37.39-.32a2.19,2.19,0,0,0-.61.16,7.08,7.08,0,0,0-.23-.7,1,1,0,0,0,.42-.4,3.86,3.86,0,0,0,.39-.61,2.86,2.86,0,0,0-.67.15,7.09,7.09,0,0,0-.24-.68c.11,0,.2-.14.3-.3a7.27,7.27,0,0,0,.51-1.29l.73.2a7.11,7.11,0,0,1-.67,1.32l.38,0c.08-.17.16-.36.23-.53l.73.24a10.38,10.38,0,0,1-1.14,1.82l.48-.07c-.05-.11-.08-.24-.13-.35l.59-.16a11.39,11.39,0,0,1,.39,1.24l-.61.21a2.58,2.58,0,0,0-.07-.34l-.54.08c.23.17.5.38.65.52l-.23.21h.69v.78h-1Zm-1.6-.26a7.3,7.3,0,0,0,.23.74,4.07,4.07,0,0,0,.51-.74Z" fill="#002a5e"/><path d="M211,163.41a9.71,9.71,0,0,1,1.65,1.16l-.69.59-.23-.22V167h-.93v-.2h-1v.26h-.88v-2.75h2a9.79,9.79,0,0,0-1.56-.9h-1.62a6.27,6.27,0,0,1-1.05.9h1.65V167h-.93v-.2h-1v.26h-.89V165l-.46.2a2.93,2.93,0,0,0-.53-.77,7.15,7.15,0,0,0,1.87-1H204.7v-.85h2.54a4.38,4.38,0,0,0,.44-.65h-2.39v-2.49h2.89v2.34l.58.11a5.83,5.83,0,0,1-.39.69h1.9a5.62,5.62,0,0,0-.78-.38l.28-.27H209v-2.49h2.92v2.49h-1.41a5.06,5.06,0,0,1,.72.43l-.22.22h1.47v.85Zm-3.72-3.19h-1.06v.89h1.06Zm.12,4.88h-1V166h1Zm3.4.89v-.89h-1V166Zm-.91-4.88H211v-.89h-1.11Z" fill="#002a5e"/><path d="M203.87,177.14H200.6v.61c0,.46-.1.68-.45.82a4.9,4.9,0,0,1-1.47.13,3.13,3.13,0,0,0-.3-.86c.4,0,.91,0,1,0s.18,0,.18-.13v-.58h-3.47v-.81h3.47v-.25a5.29,5.29,0,0,0,.94-.49h-2.75v-.71h3.73l.21,0,.57.52a12.12,12.12,0,0,1-1.63,1h3.2Zm-6.62-1.61h-1v-1.76h.64l-.16-2.54a11.23,11.23,0,0,0,1.73-.48l.42.59a8.57,8.57,0,0,1-1.17.33l0,.25h1.08v.63h-1l0,.29h1.05v.44a6.73,6.73,0,0,0,.6-.33c-.16-.1-.32-.2-.48-.28l.47-.4c.17.08.35.19.54.29a3.82,3.82,0,0,0,.34-.36l.66.2a4.22,4.22,0,0,1-.45.51,4.13,4.13,0,0,1,.52.39l-.51.45a4.76,4.76,0,0,0-.5-.42,5.3,5.3,0,0,1-.69.44h2.77l0-.3h-1v-.63h1.07v-.29h-1v-.63h1.09v-.29h-1.14V171h2.14c-.05.9-.11,2-.18,2.78h.63v1.76h-1v-1h-5.5Zm.62-1.76h1.39c-.1-.11-.26-.27-.39-.39v.09h-1Zm2.65-1.57a4.76,4.76,0,0,0-.44-.36,4.33,4.33,0,0,1-.69.43,4.19,4.19,0,0,0-.54-.46,3.39,3.39,0,0,0,.66-.33l-.47-.26.46-.39.52.27a3.28,3.28,0,0,0,.31-.34l.67.2a4.69,4.69,0,0,1-.43.47c.17.12.32.24.44.34Z" fill="#002a5e"/><path d="M207,173.73c-.68.3-1.41.6-2,.85l-.35-.83c.56-.17,1.4-.46,2.22-.75Zm2.14.76c-.11.23-.23.44-.34.63h2.72v3.6h-1.07v-.31h-3.66v.31h-1v-3.6h2c.07-.17.13-.35.18-.5h0a3.32,3.32,0,0,1-1.16.11,2.4,2.4,0,0,0-.26-.72h.72c.1,0,.13,0,.13-.12v-2H205.7a5.4,5.4,0,0,1,1,.65l-.51.65a4.7,4.7,0,0,0-1.08-.78l.43-.52h-.66v-.78h3.44v2.83a1.06,1.06,0,0,1-.07.44Zm1.31,1.4h-3.66v.49h3.66Zm0,1.75v-.49h-3.66v.49Zm1.71-3.75c0,.41-.09.62-.38.75a3.27,3.27,0,0,1-1.25.13,2.93,2.93,0,0,0-.27-.77h.8c.11,0,.15,0,.15-.12v-2h-1.64a5.22,5.22,0,0,1,.95.61l-.46.62.79-.28.15.73-2.16.81-.34-.77c.39-.12.92-.28,1.47-.47a5,5,0,0,0-1.08-.74l.42-.51h-.56v-.78h3.41Z" fill="#002a5e"/><circle cx="114.18" cy="161.41" r="16.98" fill="#fff" stroke="#002a5e" stroke-miterlimit="10" stroke-width="1.11"/><path d="M103.33,161.06a22.83,22.83,0,0,1-.62,3.55l-1-.41a16.64,16.64,0,0,0,.66-3.33Zm1.61-.7v4c0,.4.07.47.48.47h1.22c.43,0,.51-.28.57-1.61a2.93,2.93,0,0,0,1,.42c-.12,1.63-.4,2.14-1.44,2.14H105.3c-1.11,0-1.42-.35-1.42-1.42v-4Zm-.08-2.3a15.55,15.55,0,0,1,2.37,1.77l-.75.8a14.82,14.82,0,0,0-2.31-1.88Zm3.74,2.53a16,16,0,0,1,1.1,3.19l-1,.43a14.18,14.18,0,0,0-1-3.23Z" fill="#002a5e"/><path d="M113.15,164.21c-1,.33-2,.66-2.8.92l-.23-1,1-.29v-2h-.87v-.93h.87v-1.51h-.94v-1h2.82v1h-.91v1.51h.77v.93h-.77v1.71l.83-.26Zm5.08.52v.92h-5.5v-.92h2.36v-.81h-1.77V163h1.77v-.74h-1.71v-4h4.47v4h-1.73V163h1.82v.92h-1.82v.81Zm-3.94-4.86h.88v-.72h-.88Zm0,1.53h.88v-.74h-.88Zm2.59-2.25H116v.72h.85Zm0,1.51H116v.74h.85Z" fill="#002a5e"/><path d="M126.6,164.35h-3.27V165c0,.45-.1.68-.46.81a4.86,4.86,0,0,1-1.46.13,3.28,3.28,0,0,0-.31-.86c.41,0,.92,0,1.05,0s.18,0,.18-.12v-.59h-3.47v-.8h3.47v-.25a6.12,6.12,0,0,0,.94-.5h-2.75v-.71h3.72l.22-.05.57.52a11.2,11.2,0,0,1-1.63,1h3.2ZM120,162.74h-1V161h.65l-.16-2.54a12.48,12.48,0,0,0,1.73-.48l.42.59a7.36,7.36,0,0,1-1.17.32l0,.25h1.08v.63h-1l0,.3h1v.43a4.86,4.86,0,0,0,.6-.32c-.16-.11-.33-.2-.48-.29l.47-.4.54.29a2.76,2.76,0,0,0,.33-.36l.67.2a3.57,3.57,0,0,1-.45.51,5,5,0,0,1,.52.4l-.51.44a6.4,6.4,0,0,0-.5-.42,6.75,6.75,0,0,1-.69.45h2.77l0-.3h-1v-.63H125l0-.3h-1v-.63H125l0-.28h-1.15v-.64H126c0,.89-.11,2-.18,2.78h.64v1.75h-1v-1H120Zm.62-1.75H122a4.58,4.58,0,0,0-.38-.4v.1h-1Zm2.65-1.58a4.76,4.76,0,0,0-.44-.36,3.78,3.78,0,0,1-.7.43,3.47,3.47,0,0,0-.53-.45,3.64,3.64,0,0,0,.65-.34c-.16-.09-.31-.18-.46-.25l.45-.4.53.28a2.36,2.36,0,0,0,.3-.34l.67.19a2.69,2.69,0,0,1-.43.47,5.22,5.22,0,0,1,.45.34Z" fill="#002a5e"/><line x1="162.3" y1="77.25" x2="162.3" y2="230.84" fill="none" stroke="#002a5e" stroke-miterlimit="10" stroke-width="0.85" stroke-dasharray="9 6.37 4 4"/><circle cx="162.3" cy="225.16" r="44.13" fill="#f8a908" stroke="#002a5e" stroke-miterlimit="10"/><path d="M155.48,237.09c.4,0,.48-.17.54-1.05a3.17,3.17,0,0,0,1,.41c-.13,1.25-.44,1.63-1.41,1.63h-1.74c-1.18,0-1.5-.32-1.5-1.46v-1.91l-.41.18-.41-1c0,2.44-.11,3.4-.34,3.71a.86.86,0,0,1-.64.42,5.3,5.3,0,0,1-1,0,2.79,2.79,0,0,0-.29-1,5.64,5.64,0,0,0,.73,0,.28.28,0,0,0,.28-.16,12.85,12.85,0,0,0,.23-3.39h-.78a9,9,0,0,1-1.29,4.56,3.36,3.36,0,0,0-.85-.83c1-1.37,1.08-3.56,1.11-5.88h-1v-1.1h1.74A9.1,9.1,0,0,0,149,229l1.06-.25c.17.41.37,1,.47,1.31l-.81.23h2v1.05a7,7,0,0,0,1.1-2.58L154,229c-.09.36-.19.7-.31,1h3.16v1.08h-3.6a6.89,6.89,0,0,1-.57,1h.73v1l.54-.24v-1.44h1v1l.74-.34.17-.12.78.21,0,.16a30.49,30.49,0,0,1-.24,3.46l-.84-.16c.05-.6.08-1.49.09-2.35l-.65.3v2.8h-1V234l-.54.25v2.41c0,.41.07.47.57.47Zm-3.15-3.55v-1l-.09.1a6.49,6.49,0,0,0-.89-.84,3.73,3.73,0,0,0,.32-.36h-1.91l0,1.07h1.8v.46l0,1Z" fill="#002a5e"/><path d="M166.87,237.79h-3.5v.33h-1.08v-3.87l-.1.1a6.52,6.52,0,0,0-.88-.66,5.59,5.59,0,0,0,1.51-2.21H160l.53.22a9.61,9.61,0,0,1-1.12,1.39l.73,0a8.86,8.86,0,0,0,.65-.9l.89.51a13.89,13.89,0,0,1-2,2l1.15-.11-.23-.5.78-.28a6.54,6.54,0,0,1,.65,1.65l-.84.31a4.34,4.34,0,0,0-.1-.43,15.1,15.1,0,0,0-2.88.41,4.56,4.56,0,0,0-.36-.75,1.83,1.83,0,0,0,.82-.49c.13-.11.38-.33.68-.63a5.21,5.21,0,0,0-1.23.18,4.88,4.88,0,0,0-.38-.76,1,1,0,0,0,.58-.37,7.42,7.42,0,0,0,1.06-1.46h-1.16V229.1h8.11v2.38H163l.9.22a7.69,7.69,0,0,1-.4.88h1a7.56,7.56,0,0,0-.33-.76l.91-.27a5.28,5.28,0,0,1,.47,1h1.24v.94h-1.31v.53h1v.85h-1v.54h1v.85h-1v.55h1.44Zm-7.73-1.68a7.12,7.12,0,0,1-.48,1.79c-.22-.07-.66-.16-.91-.21a4.92,4.92,0,0,0,.47-1.7Zm1.09-.14a9.77,9.77,0,0,1,.3,1.63l-.92.17a8.59,8.59,0,0,0-.25-1.65Zm.31-6h-1.17v.68h1.17Zm.84,5.82a7.42,7.42,0,0,1,.62,1.51l-.87.21a7.43,7.43,0,0,0-.57-1.53Zm.25-5.14h1.2V230h-1.2Zm2.76,2.89h-1v.53h1Zm0,1.38h-1v.54h1Zm-1,1.94h1v-.55h-1Zm.54-6.21h1.23V230h-1.23Z" fill="#002a5e"/><path d="M170.73,231.35a15.09,15.09,0,0,1-.78,1.39h0v5.36h-1.11v-3.8a8.76,8.76,0,0,1-.72.82,10,10,0,0,0-.65-1.11,10.8,10.8,0,0,0,2.18-3Zm-.18-2.14A16.44,16.44,0,0,1,168.1,232a7.89,7.89,0,0,0-.55-1,10.13,10.13,0,0,0,1.94-2.24Zm-.51,8a5.52,5.52,0,0,0,.78-1.85l.9.35a7.59,7.59,0,0,1-.79,2Zm6.9-2.25h-3c.21.35.44.78.57,1.06l-.92.33a13.51,13.51,0,0,0-.6-1.22l.51-.17h-3V234h6.45Zm-3.94-4q0-.24.06-.51h-2.44v-.94h2.52c0-.27,0-.51,0-.74l1.26,0-.1.7h2.56v.94h-2.69c0,.18-.06.35-.08.51h2.47v2.65H171v-2.65Zm1.26,6.16c.28,0,.34-.11.37-.83a3.19,3.19,0,0,0,.91.35c-.11,1.09-.39,1.36-1.16,1.36h-1.24c-1,0-1.28-.28-1.28-1.15V235.6h1v1.21c0,.25.06.28.39.28Zm-1.67-5.32h-.68v1h.68Zm1.51,0h-.7v1h.7Zm.8,1h.73v-1h-.73Zm1.07,2.58a7.29,7.29,0,0,1,1.06,1.89l-.93.42a6.45,6.45,0,0,0-1-1.92Z" fill="#002a5e"/><path d="M141.27,244.66a12.06,12.06,0,0,1-.93,3.69,4.33,4.33,0,0,0,1.72,1.82,3.73,3.73,0,0,0-.75.92,5,5,0,0,1-1.58-1.73,5.79,5.79,0,0,1-2.16,1.78,4.88,4.88,0,0,0-.33-.58l-.3.27a9,9,0,0,0-1.2-.58,8.19,8.19,0,0,1-2.76.85,3.15,3.15,0,0,0-.46-.76,9.57,9.57,0,0,0,2.09-.52c-.46-.16-.94-.3-1.38-.41a8.33,8.33,0,0,0,.55-.76h-1.06v-.8h1.57a4.92,4.92,0,0,0,.24-.45h-1.39v-1.77h1.77v-.29h-1.6v-1.1h-.69v-.84h.69v-1h1.6v-.6h.9v.6h1.72v1h.52v.84h-.52v1.1h-1.72v.29h1.86v.4a16,16,0,0,0,1.21-4.26l1,.18c-.09.55-.21,1.12-.35,1.67h2.43v1Zm-7.15,2.08h.79v-.44h-.79Zm.07-3.63v.35h.72v-.35Zm.72,1.48v-.41h-.72v.41Zm0,4.06c-.07.12-.15.23-.22.34.32.09.64.18,1,.29a1.73,1.73,0,0,0,.52-.63Zm2.24,0a2.17,2.17,0,0,1-.54,1l.91.4a4.54,4.54,0,0,0,1.78-1.72,13.58,13.58,0,0,1-.59-2.06,8.46,8.46,0,0,1-.41.85,6.24,6.24,0,0,0-.58-.59v.88h-2.1c-.07.15-.15.3-.23.45h.89v-.29h.93v.29H138v.8Zm-1.29-5.54v.35h.78v-.35Zm.78,1.48v-.41h-.78v.41Zm-.78,1.71v.44h.82v-.44Zm3.42-1.64a14,14,0,0,0,.57,2.41,12,12,0,0,0,.45-2.41Z" fill="#002a5e"/><path d="M144.75,247.29v2.58c0,.55-.09.84-.4,1a2.36,2.36,0,0,1-1.35.21,4.34,4.34,0,0,0-.3-1.07c.36,0,.7,0,.82,0s.17,0,.17-.18v-2.26l-.94.26-.26-1.13,1.2-.3v-1.68h-1v-1.1h1v-1.88h1.06v1.88h.77v1.1h-.77v1.39l.76-.21.15,1.07Zm2-.81a8.52,8.52,0,0,1-1,4.62,4,4,0,0,0-.87-.59,7.17,7.17,0,0,0,.87-4v-3h2.17V241.8h1.14v.49h2.28v.82h-2.28v.4H151l.16,0,.73.14a11.66,11.66,0,0,1-.49,1.62l-.89-.19a5.76,5.76,0,0,0,.2-.71h-1.79v.37l1.35-.12.07.64-1.42.13c0,.19.06.27.29.27h1.13a5.44,5.44,0,0,0,.84-.06c0,.25,0,.47.07.7a4,4,0,0,1-.84.06H149c-.7,0-.94-.23-1-.69l-.94.1-.09-.85,1-.09v-.46h-1.14Zm5.11,1.51c-.3.17-.63.33-1,.48a3,3,0,0,0,1.14,1.62,3.47,3.47,0,0,0-.65.73,3.77,3.77,0,0,1-1.18-2.06l-.35.12a1.91,1.91,0,0,1-.23,1.92,1,1,0,0,1-.79.33h-.52a1.89,1.89,0,0,0-.23-.83,4.18,4.18,0,0,0,.56,0,.37.37,0,0,0,.35-.15.9.9,0,0,0,.14-.59,9.93,9.93,0,0,1-2.34,1.19,4,4,0,0,0-.43-.61,7.59,7.59,0,0,0,2.62-1.25,2.26,2.26,0,0,0-.11-.22,9.36,9.36,0,0,1-1.89.89,2.19,2.19,0,0,0-.39-.58,6.67,6.67,0,0,0,2-.76c-.06-.05-.1-.11-.16-.16a10.13,10.13,0,0,1-1.3.46,3.28,3.28,0,0,0-.32-.58,8.84,8.84,0,0,0,1.83-.65H147v-.76h4.85v.76h-2.08a4.31,4.31,0,0,1-.63.42,2.37,2.37,0,0,1,.47.54,16.75,16.75,0,0,0,1.69-.82Z" fill="#002a5e"/><path d="M154.37,246.49a14.22,14.22,0,0,0-1.82-1l.6-.89a10.08,10.08,0,0,1,1.86.93Zm-1.57,3.66a26.7,26.7,0,0,0,1.68-3.07l.92.79c-.45,1-1,2.12-1.54,3.08Zm.87-8.24a13.26,13.26,0,0,1,1.77,1l-.69,1a11.72,11.72,0,0,0-1.74-1.06Zm8,7.84c0,.6-.1.93-.46,1.14a3.46,3.46,0,0,1-1.63.23,4.1,4.1,0,0,0-.35-1.2c.45,0,.94,0,1.1,0s.2-.05.2-.21V243.2h-3.92v7.9h-1.11v-9h6.17Zm-1.54-4.89H157v-1h3.1Zm-2,4v.58h-.91v-4h2.75v3.38Zm0-2.4v1.41H159V246.5Z" fill="#002a5e"/><path d="M170.42,249.9c.34,0,.4-.17.45-1.33A3.85,3.85,0,0,0,172,249c-.12,1.58-.43,2-1.42,2h-1.32c-1.19,0-1.47-.36-1.47-1.48V248h-1.21c-.21,1.59-.8,2.64-3.27,3.2a3.77,3.77,0,0,0-.66-1.06c2.05-.38,2.48-1.05,2.65-2.14H164v-5.87h6.54V248h-1.63v1.59c0,.32.06.36.44.36Zm-5.24-6.16h4.18v-.62h-4.18Zm0,1.58h4.18v-.62h-4.18Zm0,1.59h4.18v-.62h-4.18Z" fill="#002a5e"/><path d="M181.48,242.1v9h-1.13v-.48h-6.19v.5h-1.07v-9Zm-1.13,7.63V243h-6.19v6.73Zm-.22-1.43h-1.29v.63c0,.38-.08.5-.36.59a4.42,4.42,0,0,1-1.22.09,2.51,2.51,0,0,0-.24-.6c.28,0,.61,0,.7,0s.14,0,.14-.12v-.59h-1.77a4.18,4.18,0,0,1,.67.8l-.79.4a4.09,4.09,0,0,0-.69-.9l.63-.3h-1.55v-.64h3.5v-.29h1v.29h.53a3.8,3.8,0,0,0-.29-.34c-1.65.06-3.3.11-4.52.13l0-.63h2.23v-.33h-2v-2h2v-.29h-2.26v-.65h2.26v-.37h1v.37H180v.65h-2.28v.29h2v2h-.5a5.79,5.79,0,0,1,.83.78l-.53.39h.6Zm-4.45-3.07h1.07v-.29h-1.07Zm1.07.76v-.29h-1.07V246Zm1-1.05v.29h1.06v-.29Zm1.06.76h-1.06V246h1.06Zm-1.06,1.11h.79l-.1-.08.34-.23h-1Z" fill="#002a5e"/><path d="M186.13,242.6c-.26.85-.6,1.94-.87,2.72a3.11,3.11,0,0,1,.73,2c0,.65-.13,1.06-.45,1.28a1.22,1.22,0,0,1-.57.22,4.32,4.32,0,0,1-.64,0,2.48,2.48,0,0,0-.26-1h.43a.52.52,0,0,0,.28-.09c.12-.09.16-.29.16-.56a2.68,2.68,0,0,0-.69-1.76c.2-.62.4-1.5.57-2.18H184v7.84h-1v-8.9h2.17l.17,0Zm5.69,2.86a13.79,13.79,0,0,1-1.18.73,8.25,8.25,0,0,0,1.51,2.76,3.81,3.81,0,0,0-.75.75,10.18,10.18,0,0,1-1.59-3l0,0c.48,1.59.26,3.26-.3,3.81a1.36,1.36,0,0,1-1.17.51c-.21,0-.53,0-.81,0a2.5,2.5,0,0,0-.28-1.06,7.62,7.62,0,0,0,.88.05.51.51,0,0,0,.53-.28,2.16,2.16,0,0,0,.31-1.29,10.33,10.33,0,0,1-2.51,1.42,3.91,3.91,0,0,0-.7-.83,7.88,7.88,0,0,0,3.11-1.71c0-.16-.08-.34-.14-.52a11.26,11.26,0,0,1-1.94,1.23,4.29,4.29,0,0,0-.63-.84,8.23,8.23,0,0,0,2.24-1.23,4.51,4.51,0,0,0-.35-.54,10,10,0,0,1-1.61.94,7.29,7.29,0,0,0-.69-.84,7.85,7.85,0,0,0,2.06-1.11H186v-1h1.58a6.41,6.41,0,0,0-1-1l.87-.53a5.38,5.38,0,0,1,1.19,1.2l-.48.34h.9a9.8,9.8,0,0,0,.91-1.55l1.14.32c-.27.44-.57.87-.83,1.23h1.47v1h-2.65a5.33,5.33,0,0,1-.42.4,4.11,4.11,0,0,1,.67,1,13.5,13.5,0,0,0,1.65-1.13Z" fill="#002a5e"/><circle cx="164.05" cy="296.34" r="22.5" fill="#7d3787" stroke="#002a5e" stroke-miterlimit="10" stroke-width="0.84"/><path d="M162.94,286.27V294h-.79v-.33h-5.81V294h-.77v-7.75Zm-.79,6.74V287h-5.81V293Zm-.34-4v.48h-5.12V289h2.17v-.34h-1.37v-1.37H161v1.37h-1.42V289Zm-4.6.81h4.06v2.79h-4.06Zm.63,2.3h2.76V290.3h-2.76Zm.32-3.9h2.12v-.47h-2.12Zm.15,2.39h1.82v1.19h-1.82Zm.47.8h.86V291h-.86Z" fill="#fff"/><path d="M166.64,286.22a13.61,13.61,0,0,1-.86,1.91V294H165V289.4a7.53,7.53,0,0,1-.65.8,4.12,4.12,0,0,0-.45-.82,9.82,9.82,0,0,0,2-3.4Zm5,4.17c-.28.17-.6.33-.91.49a3.67,3.67,0,0,0,1.39,2,2.47,2.47,0,0,0-.51.61,4.5,4.5,0,0,1-1.47-2.33l-.31.14a2.52,2.52,0,0,1-.19,2.36,1.06,1.06,0,0,1-.82.33l-.57,0a1.65,1.65,0,0,0-.18-.69l.58,0a.42.42,0,0,0,.42-.18,1.44,1.44,0,0,0,.21-1.08,8.59,8.59,0,0,1-2.73,1.57,2.22,2.22,0,0,0-.46-.56,7.73,7.73,0,0,0,3-1.68c0-.13-.11-.25-.17-.38a9,9,0,0,1-2.37,1.33,3,3,0,0,0-.44-.52,7.33,7.33,0,0,0,2.51-1.27,2.05,2.05,0,0,0-.32-.34,9.2,9.2,0,0,1-1.83,1,2.64,2.64,0,0,0-.43-.52,8.87,8.87,0,0,0,2-.9H166.8v-1.3l-.4.31a2.28,2.28,0,0,0-.5-.53,6.38,6.38,0,0,0,1.95-2.27l.76.14c-.07.16-.17.32-.26.48h1.47l.16-.05.47.36a7.24,7.24,0,0,1-.67.9h1.75v2H169l-.09.08a3,3,0,0,1,.77.94,13,13,0,0,0,1.49-.89Zm-3.75-3.2c-.15.2-.31.4-.48.59h1.49a3.94,3.94,0,0,0,.44-.59Zm-.41,1.94h1.23v-.73h-1.23Zm3.27-.73h-1.3v.73h1.3Z" fill="#fff"/><path d="M157.5,301.69a8.45,8.45,0,0,1-.45,1.86c.54.94,1.58,1.08,3.14,1.08.93,0,2.26,0,3.2-.13a2.64,2.64,0,0,0-.27.76c-.85.05-2,.07-2.94.07-1.7,0-2.75-.17-3.44-1.12a4,4,0,0,1-1.07,1.29,2.66,2.66,0,0,0-.55-.56,4.19,4.19,0,0,0,1.57-2.73H156a1,1,0,0,0-.53.13,3.81,3.81,0,0,0-.27-.69.87.87,0,0,0,.43-.28,12.69,12.69,0,0,0,.94-1.28h-1.24v-.66H157l.12-.06.52.23c-.35.5-.94,1.37-1.39,2H157l.14,0Zm-.92-2.53a9.88,9.88,0,0,0-1-1.41l.63-.36a11.82,11.82,0,0,1,1.06,1.34Zm1.75.13h-.68v-1.61h5.28v1.61h-.63v.3h-1.59V300h1.85v2.52h-1.85V303H163v.62h-2.33v.66h-.79v-.66h-2.2V303h2.2v-.47h-1.8V300h1.8v-.44h-1.59Zm.07-1v.7h1.52v-.39h.79V299h1.44v-.7Zm.39,2.73h1.13v-.48h-1.13Zm1.13,1v-.49h-1.13V302Zm.79-1.47V301h1.15v-.48Zm1.15,1h-1.15V302h1.15Z" fill="#fff"/><path d="M172,298.59h-1.36a3.05,3.05,0,0,1,.49.59l-.51.22h.44v3.29h-1v.67H172V304H170v1.45h-.85V304H167c-.22.56-.79,1.09-2.07,1.49a3.59,3.59,0,0,0-.51-.61,2.73,2.73,0,0,0,1.65-.88h-1.93v-.66h2.15v-.67h-1.12V299.4h1.26a3.57,3.57,0,0,0-.33-.6l.62-.2h-1.22a7.46,7.46,0,0,1-1,1.21c-.12-.15-.38-.49-.53-.64a5,5,0,0,0,1.37-1.83l.75.24c-.06.14-.13.26-.2.4h2.24v.62h-1.32a3.31,3.31,0,0,1,.37.61l-.59.19h1.85a5.72,5.72,0,0,0-.64-.34,3.85,3.85,0,0,0,1.23-1.73l.79.19c-.06.16-.13.31-.2.46H172Zm-1.8,1.33H166v.41h4.21Zm0,.9H166v.43h4.21Zm0,.92H166v.44h4.21Zm-1,.95h-2.05v.67h2.05Zm1.25-3.29a3.57,3.57,0,0,0-.47-.61l.45-.2h-1.17a4.59,4.59,0,0,1-.67.81Z" fill="#fff"/><circle cx="236.1" cy="221.98" r="22.5" fill="#7d3787" stroke="#002a5e" stroke-miterlimit="10" stroke-width="0.84"/><path d="M230.71,215.84c-.26-.21-.83-.63-1.25-.92a3.77,3.77,0,0,1-1.69,1.33,2.4,2.4,0,0,0-.52-.54,2.7,2.7,0,0,0,1.68-1.4h-1.59v-.65h.6a4.51,4.51,0,0,0-.63-.37,4.08,4.08,0,0,0,1-1.74l.73.15c-.06.2-.13.39-.2.58h2.28v.65h-1.22v.73h1.44v.65h-1.57l0,.08a18,18,0,0,1,1.56.91Zm-1.62-2.18a2.72,2.72,0,0,0,0-.28v-.45h-.62a3.37,3.37,0,0,1-.51.73Zm-.53,2.37h5.52v3.62h-.83v-.3h-3.88v.31h-.81Zm.81.65v.69h3.88v-.69Zm3.88,2V218h-3.88v.7Zm1.57-6.42v3.15h-3.18v-3.15ZM234,213h-1.6v1.7H234Z" fill="#fff"/><path d="M237.84,217.79a5.51,5.51,0,0,1-1.19,1.89c-.15-.13-.48-.37-.65-.49a3.87,3.87,0,0,0,1.06-1.59Zm1.79-.33h-3.14v-5.54h3.14Zm-.8-4.87h-1.57v1h1.57Zm0,1.6h-1.57v1h1.57Zm0,1.6h-1.57v1h1.57Zm.12,1.8a6.94,6.94,0,0,1,1,1.4l-.7.36a7.58,7.58,0,0,0-.92-1.46Zm5.21-3.18h-1v4.28c0,.44-.11.68-.37.82a3.61,3.61,0,0,1-1.34.16,2.87,2.87,0,0,0-.29-.8c.46,0,.87,0,1,0s.19,0,.19-.19v-3.23a8.58,8.58,0,0,1-2.09,2.82,3.47,3.47,0,0,0-.56-.59,8,8,0,0,0,2.35-3.28h-2.12v-.76h2.42v-2h.81v2h1Z" fill="#fff"/><path d="M235.26,229.21h-2v1.08c0,.39-.08.6-.4.71a4.86,4.86,0,0,1-1.44.11,2.91,2.91,0,0,0-.26-.71c.49,0,1,0,1.12,0s.18,0,.18-.15v-1H229.5a6.7,6.7,0,0,1,1.2,1l-.6.52a7.61,7.61,0,0,0-1.38-1.14l.4-.34h-1.79v-.66h5.1v-.45c-1.76,0-3.47.08-4.72.09l0-.61,3.2,0v-.41h-2.63v-2.44h2.63v-.42h-3.3v-.63h3.3V223h.8v.62h3.25v.63h-3.25v.42h2.71v2.44h-.82a7.31,7.31,0,0,1,1.37.79l-.49.44a4.81,4.81,0,0,0-.45-.33l-.77,0v.48h2ZM229,225.68h1.85v-.44H229Zm1.85,1v-.46H229v.46Zm.8-1.4v.44h1.91v-.44Zm1.91.94h-1.91v.46h1.91Zm-1.91,1.38,1.42,0-.54-.23.2-.16h-1.08Z" fill="#fff"/><path d="M238.72,225.64h1.59v.76h-1.59V227c.43.32,1.35,1.11,1.59,1.32l-.47.7c-.24-.29-.71-.77-1.12-1.17v3.27h-.81v-3.5a9.07,9.07,0,0,1-1.52,2.36,5.57,5.57,0,0,0-.43-.8,8.72,8.72,0,0,0,1.79-2.76h-1.6v-.76h1.76v-1.31c-.53.11-1.08.19-1.59.26a2.48,2.48,0,0,0-.24-.64,16.32,16.32,0,0,0,3.58-.87l.59.62a10.31,10.31,0,0,1-1.53.46Zm2.9,3.29h-.79v-4.85h.79Zm2.13-5.73v6.88c0,.51-.12.75-.43.89a5.4,5.4,0,0,1-1.65.15,3.77,3.77,0,0,0-.3-.85c.6,0,1.16,0,1.33,0s.23,0,.23-.21V223.2Z" fill="#fff"/><path d="M161.58,60.81h3A2.45,2.45,0,0,1,167,63.26v4.23a3.94,3.94,0,0,1-3.94,3.94h0a3.94,3.94,0,0,1-3.94-3.94V63.26A2.45,2.45,0,0,1,161.58,60.81Z" fill="#fff" stroke="#002a5e" stroke-miterlimit="10"/><path d="M174.27,48.27a11.21,11.21,0,1,0-18.59,8.4,8.07,8.07,0,0,1,2.68,6.1v1h9.41v-1a8.14,8.14,0,0,1,2.71-6.12A11.15,11.15,0,0,0,174.27,48.27Z" fill="#fff" stroke="#002a5e" stroke-linecap="round" stroke-linejoin="round"/><path d="M160.1,40.9a7.92,7.92,0,0,1,3.37-.75,8,8,0,0,1,6.81,12.23" fill="#fff" stroke="#002a5e" stroke-linecap="round" stroke-linejoin="round" stroke-width="0.5"/><circle cx="163.07" cy="48.67" r="5.35" fill="#002a5e"/><text transform="translate(159.23 51.38)" font-size="7.77" fill="#fff" font-family="SourceHanSansTW-Bold-B5pc-H, Source Han Sans TW" letter-spacing="-0.13em">＄</text><circle cx="154.64" cy="212.11" r="3.29" fill="#002a5e"/><circle cx="169.9" cy="212.11" r="3.29" fill="#002a5e"/><circle cx="162.41" cy="208.71" r="3.29" fill="#002a5e"/><path d="M169.13,220.32a6.72,6.72,0,1,0-13.44,0Z" fill="#002a5e"/><rect x="154.39" y="191.05" width="16.27" height="11.44" rx="1.02" fill="#002a5e"/><circle cx="158.99" cy="197.64" r="0.69" fill="#fff"/><circle cx="164.04" cy="196.8" r="0.69" fill="#fff"/><circle cx="162.05" cy="195.15" r="0.69" fill="#fff"/><polyline points="158.99 197.64 162.08 195.28 164.04 196.77 167.5 194.04" fill="none" stroke="#fff" stroke-miterlimit="10" stroke-width="0.5"/><polyline points="168.67 199.73 156.92 199.73 156.92 193.37" fill="none" stroke="#fff" stroke-linecap="round" stroke-linejoin="round" stroke-width="0.5"/><polygon points="168.06 193.38 165.96 193.86 167.42 195.44 168.06 193.38" fill="#fff"/><polygon points="162.53 204.03 163.95 201.56 161.1 201.56 162.53 204.03" fill="#002a5e"/><path d="M162.8,224.1v-.37a7.1,7.1,0,1,1,14.19,0v.37Z" fill="#002a5e"/><path d="M169.9,217a6.72,6.72,0,0,1,6.72,6.72H163.18A6.72,6.72,0,0,1,169.9,217m0-.75a7.48,7.48,0,0,0-7.47,7.47v.75h14.94v-.75a7.48,7.48,0,0,0-7.47-7.47Z" fill="#f8a908"/><path d="M147.55,224.1v-.37a7.1,7.1,0,1,1,14.19,0v.37Z" fill="#002a5e"/><path d="M154.64,217a6.72,6.72,0,0,1,6.73,6.72H147.92a6.72,6.72,0,0,1,6.72-6.72m0-.75a7.48,7.48,0,0,0-7.47,7.47v.75h15v-.75a7.49,7.49,0,0,0-7.48-7.47Z" fill="#f8a908"/></g></svg>