<svg xmlns="http://www.w3.org/2000/svg" viewBox="0 0 289.06 387.17"><g id="圖文"><text transform="translate(-18.3 -51.31)" font-size="20" fill="#7d3787" font-family="SourceHanSansTW-Bold-B5pc-H, Source Han Sans TW">用大數據構築投資策略</text><path d="M10.2-6.79v2.1A7.08,7.08,0,0,1,8.82,0a2.53,2.53,0,0,0-.65-.56,6.08,6.08,0,0,0,1.2-4.15v-2.8H11A3.24,3.24,0,0,0,10.54-8c1.05-.21,2.25-.48,3.39-.8-1-.32-2-.58-3-.8l.55-.45H9.43v-.73h4.85a10.78,10.78,0,0,0-.74-1l.62-.33a9.25,9.25,0,0,1,1,1.33h4.36V-10h-2l.48.3A15.93,15.93,0,0,1,16-8.83c1,.32,1.88.6,2.57.86l-.47.46h1.86v.72ZM20.13-1.3v.74H10.46V-1.3h4.31V-2.72H11.69v-.71h3.08V-4.68H12a9,9,0,0,1-1.23,1.6,3.43,3.43,0,0,0-.48-.69A7.5,7.5,0,0,0,12-6.54l.75.21c-.12.32-.26.62-.4.94h2.41V-6.55h.85v1.16h3.56v.71H15.62v1.25h3.29v.71H15.62V-1.3ZM17.8-7.51C17-7.81,16-8.14,15-8.48c-1.19.39-2.46.71-3.58,1ZM11.62-10c1.05.26,2.23.57,3.39.92A16.83,16.83,0,0,0,17.22-10Z"/><circle cx="144.64" cy="70.38" r="36.56" fill="#002a5e"/><path d="M124.32,72.06v2.52c0,.61-.12.92-.48,1.1a3.35,3.35,0,0,1-1.59.23,4.86,4.86,0,0,0-.36-1.14h1c.15,0,.2,0,.2-.2V72.39l-1.07.27-.33-1.2,1.4-.31V69.29h-1.26V68.13h1.26v-2h1.24v2h1.11v1.16h-1.11v1.56l.77-.19.16,1.15ZM131,71A6.75,6.75,0,0,1,129.19,74a9,9,0,0,0,2.45.8,5.77,5.77,0,0,0-.8,1.17,8.88,8.88,0,0,1-2.73-1.15A10.25,10.25,0,0,1,125.23,76a4.94,4.94,0,0,0-.61-1.16,8.71,8.71,0,0,0,2.45-.8,7.82,7.82,0,0,1-1.47-2l.39-.14h-.6V70.69H130l.22-.06Zm-5.29-.43a4.7,4.7,0,0,0-.83-.9,2,2,0,0,0,1.41-2.06V66.46H130v2.3c0,.31,0,.44.19.44h.56a2.71,2.71,0,0,0,.59-.08c0,.32,0,.75.1,1a1.92,1.92,0,0,1-.67.08h-.71c-1,0-1.26-.44-1.26-1.5V67.62h-1.36A3,3,0,0,1,125.72,70.55Zm1.11,1.31a5.18,5.18,0,0,0,1.29,1.48,5.17,5.17,0,0,0,1.23-1.48Z" fill="#fff"/><path d="M140.09,68a5,5,0,0,0,3.12.9,4,4,0,0,0-.7,1,5,5,0,0,1-2.77-1.06c-.4.46-1.28.87-3.06,1.08a3,3,0,0,0-.42-.69h-2.8v-1h3.19v.64c2-.21,2.29-.69,2.29-1.08v-.16h-.64a4.25,4.25,0,0,1-.74.91,6.35,6.35,0,0,0-.93-.64,4.4,4.4,0,0,0,1.24-1.88l1.1.24c-.06.16-.12.32-.18.46h3l.19-.05.86.27a10.49,10.49,0,0,1-1,1.67l-1-.36a4.41,4.41,0,0,0,.37-.62h-1.17V68Zm.28,6.22c1,.36,2,.78,2.64,1.09l-1.14.67a20.6,20.6,0,0,0-2.74-1.24l.64-.52h-3l.92.42a13.91,13.91,0,0,1-3.3,1.38,8.09,8.09,0,0,0-.93-.92,12.14,12.14,0,0,0,2.89-.88h-1.53V69.93h7.08v4.29Zm-4-6.66H133.7v-.92h2.71Zm-.35,3.57h4.58v-.45h-4.58Zm0,1.16h4.58v-.45h-4.58Zm0,1.19h4.58V73h-4.58Z" fill="#fff"/><path d="M154,72.5c0,.52-.11.78-.49.94a4.08,4.08,0,0,1-1.4.15,10,10,0,0,0,2.83,1,5.74,5.74,0,0,0-.79,1.11,9.07,9.07,0,0,1-3.43-1.72V76h-1.35V73.9a9,9,0,0,1-3.51,1.82,5,5,0,0,0-.79-1.06,8,8,0,0,0,4.3-2.16v-.74h-2v1.87H146V70.69h3.36v-.51h-4V69.1h2.85a8.11,8.11,0,0,0-1-1l.4-.34H147a7.06,7.06,0,0,1-1.09,1.37,8.4,8.4,0,0,0-.84-.85A6.08,6.08,0,0,0,146.56,66l1.12.32-.18.41h2.3v1h-1.5a8,8,0,0,1,.71.69l-.74.69h1.1v-.57h.93c-.24-.18-.51-.4-.71-.52a4.77,4.77,0,0,0,1.32-2l1.14.29a3.52,3.52,0,0,1-.18.45h2.91v1H153a5.52,5.52,0,0,1,.73.66l-.83.72a7.63,7.63,0,0,0-1.08-1l.44-.38h-.86a5,5,0,0,1-.63.83v.55h3.81v1.08h-3.81v.51H154Zm-3.28.19a6.71,6.71,0,0,0,1.32.87,5.21,5.21,0,0,0-.4-.94c.34,0,.77,0,.89,0s.17,0,.17-.14v-.74h-2Z" fill="#fff"/><path d="M166.13,67.51a8.15,8.15,0,0,1-1.69,2.74,7.57,7.57,0,0,0,2.29,1.2,6,6,0,0,0-.8,1.06l-.07,0V76h-1.23v-.32h-2.17V76H161.3V72.52l-.27.11a5.42,5.42,0,0,0-.35-.55v1.84h-2.75v.87H157V66.74h3.66v2a7,7,0,0,0,1.8-2.64l1.19.33a8.11,8.11,0,0,1-.34.74h1.77l.21-.06Zm-8.2.31v1.87h.49V67.82Zm0,5h.49V70.73h-.49Zm1.8-5h-.52v1.87h.52Zm0,5V70.73h-.52v2.11Zm1-1.33a8.78,8.78,0,0,0,2.07-1.28,8.81,8.81,0,0,1-.78-1,7.23,7.23,0,0,1-.79.78,4.56,4.56,0,0,0-.5-.53Zm4.35.57a7.82,7.82,0,0,1-1.45-1,10.09,10.09,0,0,1-1.44,1Zm-.4,2.47V73.18h-2.17v1.37Zm-1.91-6.34-.07.09a7.27,7.27,0,0,0,.91,1.17,6.61,6.61,0,0,0,.93-1.26Z" fill="#fff"/><ellipse cx="146.13" cy="81.63" rx="70.55" ry="42.46" transform="translate(-17.34 45.65) rotate(-16.78)" fill="none" stroke="#002a5e" stroke-miterlimit="10" stroke-width="0.92"/><ellipse cx="141.73" cy="249.21" rx="53.76" ry="89.33" transform="translate(-127.22 348.5) rotate(-80.64)" fill="none" stroke="#002a5e" stroke-miterlimit="10" stroke-width="1.17"/><circle cx="79.27" cy="78.08" r="20.57" fill="#7d3787" stroke="#002a5e" stroke-miterlimit="10" stroke-width="0.84"/><path d="M66.06,74.8h3.33v.74H62V74.8h3.23V73.51H62.83V72.8h2.36V71.6h-2v-.71a9.48,9.48,0,0,1-1.14.7,3.6,3.6,0,0,0-.51-.67,10.65,10.65,0,0,0,3.11-2.22h-1.4v-.76h2.8a8.52,8.52,0,0,0,3.68,2.87,4.59,4.59,0,0,0-.55.74,7.64,7.64,0,0,1-1.14-.64v.69h-2v1.2h2.39v.71H66.06Zm-2.82-3.92H68a10.84,10.84,0,0,1-2.38-2.18A12.63,12.63,0,0,1,63.24,70.88Z" fill="#fff"/><path d="M78.4,70.72a22.53,22.53,0,0,1-1.49,1.81,4.81,4.81,0,0,0,1.71,2,1.85,1.85,0,0,0-.5.64,5.68,5.68,0,0,1-1.86-2.29v2c0,.44-.11.67-.37.8a3.27,3.27,0,0,1-1.37.17,3.05,3.05,0,0,0-.28-.78h1c.14,0,.19-.06.19-.2V73c-.67.67-1.37,1.33-1.95,1.86l-.5-.71.12-.1-2.6.83-.17-.78,1.11-.32V71.51h-1v-.76h1V69h-1v-.76h2.72V69h-1v1.75h.83v.76h-.83v2.06l1-.31.1.65c.58-.46,1.39-1.14,2.13-1.78V69.92H73.38v-.76h2.08V67.7h.8v1.46h2.22v.76H76.26v.36a9.2,9.2,0,0,0,.37,1.56,12.33,12.33,0,0,0,1.05-1.49Zm-4.29-.32A6.85,6.85,0,0,1,75,72l-.67.32a6.83,6.83,0,0,0-.88-1.61Zm3.52-1.25a5.6,5.6,0,0,0-1-1l.46-.42a5.66,5.66,0,0,1,1.05.9Z" fill="#fff"/><path d="M87.3,74.85v.67H80.85v-.67h2.76v-.72h-2v-.65h2v-.64H82A4.77,4.77,0,0,1,81.08,74a3.94,3.94,0,0,0-.39-.72,4.67,4.67,0,0,1-.92,2.62,3,3,0,0,0-.62-.52,4.54,4.54,0,0,0,.78-2.92V70.71h1.13c-.12-.12-.26-.27-.36-.35.67-.12,1.43-.28,2.15-.46-.63-.18-1.26-.34-1.85-.46l.45-.34H80v-.64h3.13a4.23,4.23,0,0,0-.4-.58l.57-.27a4.84,4.84,0,0,1,.62.85h3v.64H85.59l.39.24a11.31,11.31,0,0,1-1.24.52c.59.17,1.13.35,1.56.5l-.4.35h1.28v.67H80.72v1.05q0,.38,0,.81a4.57,4.57,0,0,0,1.11-1.75l.71.21c-.06.16-.13.32-.21.49h1.31v-.65h.81v.65H86.7v.65H84.42v.64h2v.65h-2v.72Zm-1.79-4.14c-.46-.17-1.06-.35-1.7-.55-.72.22-1.46.4-2.15.55ZM81.85,69.1c.64.15,1.34.32,2,.51a9.65,9.65,0,0,0,1.35-.51Z" fill="#fff"/><path d="M91.33,74.38a7.6,7.6,0,0,1-2.63,1.14,3.07,3.07,0,0,0-.49-.6,7.4,7.4,0,0,0,2.52-.82ZM95.93,73v.69H92.46v2h-.8v-2H88.24V73h3.42v-.53h-2.6V71.9h2.6v-.53h-3v-.64H90.4A5,5,0,0,0,90,70l.51-.12H88.28V69.2h1.31A6.61,6.61,0,0,0,89,68l.71-.25A6.81,6.81,0,0,1,90.37,69l-.47.18h1V67.68h.76V69.2h.87V67.68h.78V69.2h1l-.35-.12a7,7,0,0,0,.62-1.3l.85.22c-.24.43-.51.87-.74,1.2H95.9v.65H93.6l.68.17c-.19.27-.39.5-.57.71h1.87v.64H92.46v.53h2.7v.61h-2.7V73Zm-5.12-3.19a3.31,3.31,0,0,1,.42.77l-.4.11h2.41l-.32-.1a5.94,5.94,0,0,0,.49-.78Zm2.66,4.2c.78.28,1.85.7,2.44,1l-.54.48c-.55-.28-1.62-.74-2.42-1.05Z" fill="#fff"/><path d="M61.71,79.59h3.11v.74H63.5A14.35,14.35,0,0,1,63,82.26h1.7v3.88H63v.68h-.69v-3a5.41,5.41,0,0,1-.41.61,4.52,4.52,0,0,0-.33-.93,7.91,7.91,0,0,0,1.19-3.19h-1ZM64,83H63v2.42h1Zm5.7.5h-1v3.72H68V83.5H66.71a5.6,5.6,0,0,1-1.22,3.76,6.07,6.07,0,0,0-.63-.47,4.93,4.93,0,0,0,1.08-3.29H65v-.78H66V80.36h-.68V79.6h4.25v.76h-.78v2.36h1ZM68,82.72V80.36H66.72v2.36Z" fill="#fff"/><path d="M77.48,86.25c.23,0,.27-.16.31-1.27a2.24,2.24,0,0,0,.77.34c-.09,1.38-.31,1.73-1,1.73h-.93c-.76,0-1-.23-1-1.09V84.49H74.29c-.17,1-.9,2.13-3.26,2.77a3.65,3.65,0,0,0-.57-.7c2-.53,2.72-1.32,2.94-2.07H71.08v-.76H73.5v-1h.85v1H76.5V86c0,.25,0,.29.28.29Zm-5.9-4.62h-.82V80h3.31c-.07-.23-.16-.49-.24-.7l.85-.15A8.78,8.78,0,0,1,75,80h3.24v1.58h-.87V80.7H75.83V82c0,.22,0,.31.26.31H77.3a4,4,0,0,0,.72-.06c0,.21,0,.5.07.69a3.83,3.83,0,0,1-.75.05H76c-.82,0-1-.28-1-1V80.7H73.9c-.18,1.28-.69,2-2.62,2.4a2.12,2.12,0,0,0-.44-.66c1.68-.29,2.06-.79,2.19-1.74H71.58Z" fill="#fff"/><path d="M87.24,85.31h-2v1.08c0,.39-.08.6-.39.72a5.41,5.41,0,0,1-1.45.1,2.67,2.67,0,0,0-.25-.7c.48,0,1,0,1.12,0s.17,0,.17-.15V85.31H81.48a7.08,7.08,0,0,1,1.2,1l-.6.53a7.24,7.24,0,0,0-1.38-1.15l.39-.34H79.3v-.66h5.1V84.2c-1.76,0-3.47.08-4.72.1l0-.62,3.19,0v-.41H80.23V80.81h2.62V80.4h-3.3v-.64h3.3v-.61h.8v.61H86.9v.64H83.65v.41h2.72v2.44h-.82a7.78,7.78,0,0,1,1.36.79l-.48.44a5.13,5.13,0,0,0-.46-.32l-.77,0v.47h2ZM81,81.78h1.85v-.44H81Zm1.85,1v-.46H81v.46Zm.8-1.4v.44h1.91v-.44Zm1.91.94H83.65v.46h1.91Zm-1.91,1.38h1.42a3.65,3.65,0,0,0-.54-.23l.21-.17H83.65Z" fill="#fff"/><path d="M95.21,82.81c-.38.31-.81.62-1.24.92a4,4,0,0,0,2.2,2.46,2.89,2.89,0,0,0-.54.66,4.67,4.67,0,0,1-2.31-2.71l-.35.21a2.61,2.61,0,0,1-.4,2.51,1.21,1.21,0,0,1-.95.35,6.2,6.2,0,0,1-.73,0,2,2,0,0,0-.22-.76c.3,0,.59,0,.78,0a.61.61,0,0,0,.53-.19,1.62,1.62,0,0,0,.3-1.25,13,13,0,0,1-3.66,1.8,2.69,2.69,0,0,0-.43-.68,10.37,10.37,0,0,0,4-1.88,3.23,3.23,0,0,0-.18-.49,14.92,14.92,0,0,1-3.21,1.49,4.22,4.22,0,0,0-.42-.65,10.72,10.72,0,0,0,3.3-1.38,3.13,3.13,0,0,0-.34-.42,11.43,11.43,0,0,1-2.48,1,4.55,4.55,0,0,0-.43-.65,9.65,9.65,0,0,0,3-1.12H89.57v-.71h5V82H92.47c-.18.15-.37.29-.57.43a3.6,3.6,0,0,1,.84,1.23,14.65,14.65,0,0,0,1.8-1.41Zm-6-1H88.4V79.89h3.22a3.43,3.43,0,0,0-.27-.58l.86-.24a6.27,6.27,0,0,1,.41.82H95.8v1.87H95V80.63H89.19Z" fill="#fff"/><circle cx="201.48" cy="41.99" r="20.57" fill="#7d3787" stroke="#002a5e" stroke-miterlimit="10" stroke-width="0.84"/><path d="M188.27,40.47h3.34v.74h-7.43v-.74h3.23V39.18H185v-.71h2.37v-1.2h-2v-.72a9.61,9.61,0,0,1-1.14.71,2.9,2.9,0,0,0-.51-.67,10.65,10.65,0,0,0,3.11-2.22h-1.4V33.6h2.81A8.35,8.35,0,0,0,192,36.48a4.23,4.23,0,0,0-.56.74,7.55,7.55,0,0,1-1.13-.64v.69h-2v1.2h2.4v.71h-2.4Zm-2.82-3.92h4.78a11,11,0,0,1-2.37-2.18A13,13,0,0,1,185.45,36.55Z" fill="#fff"/><path d="M200.61,36.39a22.53,22.53,0,0,1-1.49,1.81,4.84,4.84,0,0,0,1.72,2,1.77,1.77,0,0,0-.51.64,5.68,5.68,0,0,1-1.86-2.29v2c0,.44-.11.67-.37.8a3.24,3.24,0,0,1-1.37.17,3.05,3.05,0,0,0-.28-.78h1c.14,0,.2-.06.2-.2v-1.8c-.68.68-1.38,1.34-2,1.87l-.5-.71.12-.1c-.9.3-1.86.6-2.59.83l-.18-.78,1.11-.32V37.18h-.94v-.76h.94V34.67h-1v-.76h2.72v.76h-1v1.75h.82v.76h-.82v2.06l1-.31.11.65c.58-.46,1.38-1.14,2.13-1.78V35.59h-2.09v-.76h2.09V33.37h.79v1.46h2.23v.76h-2.23V36a9.2,9.2,0,0,0,.37,1.56,12,12,0,0,0,1-1.49Zm-4.29-.32a6.71,6.71,0,0,1,.92,1.57l-.68.32a6.43,6.43,0,0,0-.87-1.61Zm3.52-1.25a5.6,5.6,0,0,0-1-1l.46-.42a5.35,5.35,0,0,1,1.05.9Z" fill="#fff"/><path d="M204.54,40.47c0,.38-.07.62-.3.75a2.4,2.4,0,0,1-1.11.15,3.85,3.85,0,0,0-.21-.77h.74c.1,0,.14,0,.14-.16v-2.1l-.89.55-.26-.58a9.74,9.74,0,0,1-.59,3.13,2.44,2.44,0,0,0-.67-.37,11.47,11.47,0,0,0,.58-4.26V33.68h2.57Zm-1.84-3.66c0,.4,0,.85,0,1.3l1.13-.46v-1l-.34.28a9.62,9.62,0,0,0-.76-.9Zm0-2.39v1.24l.27-.2a9.29,9.29,0,0,1,.83.83V34.42Zm6.53,2.94a5.55,5.55,0,0,1-1.54,2.58,5.61,5.61,0,0,0,1.83.79,2.81,2.81,0,0,0-.53.7,5.74,5.74,0,0,1-2-1,7.12,7.12,0,0,1-2,.94,3,3,0,0,0-.44-.7,6.52,6.52,0,0,0,1.84-.77A6.45,6.45,0,0,1,205.18,38l.29-.08h-.55v-.77h3.64l.14,0Zm-2.74-2.71A2.48,2.48,0,0,1,205.14,37a2.56,2.56,0,0,0-.52-.57,1.85,1.85,0,0,0,1.12-1.79v-1h2.78v2c0,.24,0,.33.13.33h.42a1.83,1.83,0,0,0,.4,0l.06.66a1.52,1.52,0,0,1-.44,0h-.51c-.68,0-.83-.28-.83-1V34.45h-1.26ZM206,38a4.62,4.62,0,0,0,1.1,1.5,4.54,4.54,0,0,0,1.12-1.5Z" fill="#fff"/><path d="M213,39.68a7,7,0,0,1-2,1.59,6.6,6.6,0,0,0-.62-.53,5.56,5.56,0,0,0,1.89-1.32Zm5.25-1.07v.66h-3.53v2.18h-.81V39.27h-3.49v-.66Zm-5.32-4.27h-2.4v-.66H218v.66h-2.43v.59h2V37H211V34.93h1.89Zm-1.46,3.77v-.64h5.73v.64Zm.34-1.73h1.12v-.85h-1.12Zm3.06-2h-1.18v.59h1.18Zm-1.18,2h1.18v-.85h-1.18Zm2.43,3.06a13.49,13.49,0,0,1,2.07,1.34l-.64.48a12.28,12.28,0,0,0-2-1.4Zm-.47-3.91v.85h1.18v-.85Z" fill="#fff"/><path d="M191.07,49.37c-.28.09-.57.17-.85.24v2.31c0,.42-.09.64-.35.75a3,3,0,0,1-1.25.15,3,3,0,0,0-.23-.74h.86c.12,0,.18,0,.18-.18V49.84l-1,.29-.22-.79c.36-.08.78-.18,1.25-.31V47.29H188.3v-.76h1.13V44.82h.79v1.71h1v.76h-1v1.53l.75-.2Zm4.67-.55a5.52,5.52,0,0,1-1.62,2.53,6.77,6.77,0,0,0,2.19.8,3.3,3.3,0,0,0-.52.76,7.1,7.1,0,0,1-2.37-1,8.49,8.49,0,0,1-2.49,1,2.36,2.36,0,0,0-.4-.75,7,7,0,0,0,2.22-.81,6.42,6.42,0,0,1-1.34-1.88l.23-.08h-.45v-.76h3.88l.14,0Zm-3-2.73a2.49,2.49,0,0,1-1.37,2.37,3.41,3.41,0,0,0-.54-.6A1.8,1.8,0,0,0,192,46.07v-1h2.9v2c0,.24,0,.34.17.34h.58a2.4,2.4,0,0,0,.46,0c0,.21,0,.5.06.69a1.87,1.87,0,0,1-.51,0H195c-.72,0-.87-.29-.87-1V45.87h-1.36Zm-.56,3.3a4.63,4.63,0,0,0,1.23,1.49,4.64,4.64,0,0,0,1.21-1.49Z" fill="#fff"/><path d="M202.54,46.13a.82.82,0,0,1,0,.21,4.1,4.1,0,0,0,2.58.85,2.43,2.43,0,0,0-.44.67,4.27,4.27,0,0,1-2.36-1,3.75,3.75,0,0,1-2.53,1,2.25,2.25,0,0,0-.41-.61h-2.24v-.64h2.56v.58c1.91-.25,2.11-.74,2.11-1.12V46h-.73a5.07,5.07,0,0,1-.64.82,4,4,0,0,0-.62-.42,3.53,3.53,0,0,0,1-1.62l.73.16a4,4,0,0,1-.17.44h2.75l.12,0,.56.18a7.44,7.44,0,0,1-.77,1.3l-.64-.23a4.5,4.5,0,0,0,.37-.6h-1.22Zm-.07,5.33a23.68,23.68,0,0,1,2.48,1l-.74.45a17.55,17.55,0,0,0-2.37-1l.51-.42h-2.63l.73.34a12.23,12.23,0,0,1-2.69,1.1,7.13,7.13,0,0,0-.61-.62,9,9,0,0,0,2.53-.82h-1.41V47.92H204v3.54Zm-3-5.55h-2.15v-.62h2.15Zm-.4,3h4.13v-.51h-4.13Zm0,1h4.13v-.49h-4.13Zm0,1h4.13v-.51h-4.13Z" fill="#fff"/><path d="M213.47,50.17a13.58,13.58,0,0,1-1.75,1.06,5.7,5.7,0,0,0,2.28.88,3.37,3.37,0,0,0-.51.74,5.38,5.38,0,0,1-4-3.13h-1.33v2.13l2.17-.47a6.37,6.37,0,0,0-.06.71,29.8,29.8,0,0,0-2.94.77l-.06.06a3.13,3.13,0,0,0-.35-.83.69.69,0,0,0,.43-.63V49.72H206V49h1.52V45.14h5.44v.68h-4.61v.63h4.35v.66h-4.35v.61h4.35v.64h-4.35V49h5.49v.72h-1Zm-3.15-.45a4.06,4.06,0,0,0,.85,1.08,12.8,12.8,0,0,0,1.63-1.08Z" fill="#fff"/><circle cx="73.7" cy="214.12" r="20.57" fill="#7d3787" stroke="#002a5e" stroke-miterlimit="10" stroke-width="0.84"/><path d="M72.94,210.71v.77H68.27v-.77h.6V205H68.4v.57H67.31v1.29c0,.12,0,.23,0,.35h1.24V208H67.25c0,.22-.07.45-.11.68.36.37,1.15,1.32,1.36,1.57l-.51.67c-.22-.36-.69-1-1.06-1.44a4.8,4.8,0,0,1-1.5,2.28,2.17,2.17,0,0,0-.57-.56,4.59,4.59,0,0,0,1.6-3.2H64.89v-.76h1.62V205.6h-.45a7.06,7.06,0,0,1-.53,1.34,5,5,0,0,0-.66-.44,7.49,7.49,0,0,0,.79-2.77l.77.13c-.06.33-.11.66-.18,1h2.13v-.56h4.45V205H69.67v1.19h2.86v3.06H69.67v1.43ZM69.67,207v1.53h2.07V207Z" fill="#fff"/><path d="M76.63,204.39c-.24.75-.56,1.66-.83,2.36a2.66,2.66,0,0,1,.73,1.84,1.26,1.26,0,0,1-.37,1.06,1.07,1.07,0,0,1-.48.18,3.88,3.88,0,0,1-.6,0,1.65,1.65,0,0,0-.19-.73,2.45,2.45,0,0,0,.46,0,.53.53,0,0,0,.26-.07c.13-.09.17-.3.17-.56a2.4,2.4,0,0,0-.71-1.64c.22-.61.45-1.41.61-2h-.94v7H74V204.1H76l.13,0Zm5.11,6.2H79.47v1.22h-.79v-1.22H76.36v-.73h2.32v-.73H76.82V206h1.86v-.71H76.63v-.71h2.05v-.8h.79v.8h2.14v.71H79.47V206H81.4v3.18H79.47v.73h2.27Zm-4.17-3.35h1.16v-.68H77.57Zm0,1.27h1.16v-.69H77.57Zm3-1.95H79.43v.68h1.18Zm0,1.26H79.43v.69h1.18Z" fill="#fff"/><path d="M72.3,217.58a10.05,10.05,0,0,1-.85,3.31,3.77,3.77,0,0,0,1.57,1.7,3,3,0,0,0-.52.64A4.27,4.27,0,0,1,71,221.61a5.36,5.36,0,0,1-2,1.68,4.71,4.71,0,0,0-.29-.48l-.24.21a9.43,9.43,0,0,0-1.09-.52,7.75,7.75,0,0,1-2.32.75,1.87,1.87,0,0,0-.33-.53,8.61,8.61,0,0,0,1.88-.53c-.42-.15-.84-.28-1.23-.39.16-.2.33-.46.5-.72h-1v-.58h1.38l.26-.49H65.31v-1.47H66.9v-.33H65.48v-1h-.6v-.61h.6v-.91H66.9v-.54h.64v.54h1.51v.91h.48v.61h-.48v1H67.54v.33h1.67V219a12.43,12.43,0,0,0,1.17-3.79l.69.13c-.1.52-.21,1-.35,1.55h2.22v.72ZM66,219.52h.91V219H66Zm.12-3.25v.41h.79v-.41Zm.79,1.39v-.47h-.79v.47Zm-.19,3.42-.27.42c.3.09.61.19.91.3a1.41,1.41,0,0,0,.57-.72Zm1.9,0a2,2,0,0,1-.57,1,7.41,7.41,0,0,1,.93.44,4.32,4.32,0,0,0,1.71-1.65,12,12,0,0,1-.6-2.09,7.05,7.05,0,0,1-.42.87,4.78,4.78,0,0,0-.45-.42V220H67.3l-.26.49h1v-.3h.65v.3h.81v.58Zm-1.07-4.81v.41h.86v-.41Zm.86,1.39v-.47h-.86v.47ZM67.54,219v.48h1V219Zm3-1.46,0,.07a12.38,12.38,0,0,0,.58,2.38,10.61,10.61,0,0,0,.53-2.45Z" fill="#fff"/><path d="M73.85,215.6h4.32v.76h-2c-.1.38-.23.77-.37,1.16H77.3l.14,0,.51.17c-.46,2.87-1.68,4.69-3.29,5.62a2.67,2.67,0,0,0-.61-.6,5.23,5.23,0,0,0,2.08-2,16.07,16.07,0,0,0-1.44-1,4.82,4.82,0,0,1-.61.72,4.83,4.83,0,0,0-.57-.53,7.36,7.36,0,0,0,1.77-3.48H73.85Zm1.61,2.67a5.39,5.39,0,0,1-.38.76,14,14,0,0,1,1.42.93,8.16,8.16,0,0,0,.53-1.69ZM79.27,221h-.8v-4.78h.8Zm2.09-5.6v6.9c0,.49-.11.72-.42.86a5,5,0,0,1-1.6.15,3.67,3.67,0,0,0-.29-.82c.58,0,1.11,0,1.28,0s.22,0,.22-.21v-6.89Z" fill="#fff"/><circle cx="78.29" cy="274.33" r="20.57" fill="#7d3787" stroke="#002a5e" stroke-miterlimit="10" stroke-width="0.84"/><path d="M70.9,269.55a8.36,8.36,0,0,1-.89,1.77,5.16,5.16,0,0,0-.57-.39,5.18,5.18,0,0,0,.81-1.57ZM72,269v3h-.79v-3H69.55v-.7h1.69v-.8H69.5v-.68h1a4.79,4.79,0,0,0-.31-1.11l.67-.16a5.18,5.18,0,0,1,.32,1.08l-.65.19h1.39a8,8,0,0,0,.43-1.28l.76.16c-.15.38-.3.79-.45,1.12h1v.68H72v.8h1.5v.7Zm1.48-3.47H69.64v-.68h1.61c-.1-.24-.21-.53-.32-.75l.81-.21c.15.3.33.67.44,1h1.33Zm-.62,3.78a7.41,7.41,0,0,1,.73,1.32l-.57.34a8.51,8.51,0,0,0-.71-1.36Zm4.63-1.68h-.9V272h-.8v-4.36h-1v.22a7.7,7.7,0,0,1-.9,4.14,2.86,2.86,0,0,0-.62-.48,6.76,6.76,0,0,0,.75-3.66v-3.05a14.12,14.12,0,0,0,2.7-.71l.64.59a13.76,13.76,0,0,1-2.57.66v1.54h2.73Z" fill="#fff"/><path d="M79.48,267.05v5h-.81v-7.78h3.27v2.81Zm0-2.25v.57h1.7v-.57Zm1.7,1.68v-.56h-1.7v.56Zm2.66,4.34v.95H83.1v-.95H79.92v-.59h.8V268h-.6v-.59h4.31V268h-.59v2.2h.72v.59ZM81.44,268v.4H83.1V268Zm0,1.29H83.1v-.4H81.44Zm1.66.91v-.42H81.44v.42Zm2.85.9c0,.4-.08.6-.33.73a3.15,3.15,0,0,1-1.21.14,2.42,2.42,0,0,0-.23-.72H85c.11,0,.15-.05.15-.16v-4.08H82.62v-2.81H86ZM83.4,264.8v.57h1.75v-.57Zm1.75,1.68v-.56H83.4v.56Z" fill="#fff"/><path d="M75,276.7a.9.9,0,0,1,0,.22,4.12,4.12,0,0,0,2.58.85,2.43,2.43,0,0,0-.44.67,4.3,4.3,0,0,1-2.36-1,3.81,3.81,0,0,1-2.53,1,2.37,2.37,0,0,0-.41-.6H69.53v-.65h2.56v.59c1.91-.25,2.11-.74,2.11-1.12v-.12h-.73a4.67,4.67,0,0,1-.64.82,4.76,4.76,0,0,0-.62-.41,3.63,3.63,0,0,0,1-1.62l.73.16c0,.15-.1.29-.16.44h2.74l.12,0,.56.19a8.26,8.26,0,0,1-.77,1.3l-.64-.23a5.44,5.44,0,0,0,.37-.61H75ZM74.88,282a23.68,23.68,0,0,1,2.48,1l-.74.45a17.43,17.43,0,0,0-2.37-1l.51-.41H72.13l.73.33a11.76,11.76,0,0,1-2.69,1.1,7,7,0,0,0-.61-.61A9.84,9.84,0,0,0,72.1,282H70.68V278.5h5.74V282Zm-3-5.56H69.72v-.61h2.15Zm-.4,3H75.6V279H71.47Zm0,1H75.6V280H71.47Zm0,1H75.6V281H71.47Z" fill="#fff"/><path d="M81.48,277.51H78.31v-.66h1.51a10.22,10.22,0,0,0-.6-1.19l.59-.32a11,11,0,0,1,.61,1.15l-.58.36h1.64Zm-2.81,1.16V278h2.5v.65Zm0,.52h2.51v.63H78.67ZM81.18,283H79.31v.4h-.64v-3h2.51ZM79.31,281v1.25h1.21V281Zm6.15-5.18c-.06,3.26-.07,6.53.35,6.65a4,4,0,0,0,.14-1.14,4.09,4.09,0,0,0,.45.63c-.11,1.25-.47,1.53-.93,1.33-.85-.3-.83-3.25-.83-6.7h-1.3v2.49h1v.75h-1v3.6h-.77v-3.6H81.48v-.75h1.09v-2.49h-1v-.77Z" fill="#fff"/><circle cx="216.44" cy="285.26" r="20.57" fill="#7d3787" stroke="#002a5e" stroke-miterlimit="10" stroke-width="0.84"/><path d="M210,281.59a5,5,0,0,0,2.18.34c.5,0,2.92,0,3.55,0a2.55,2.55,0,0,0-.33.81h-3.23c-1.81,0-2.9-.28-3.59-1.5a5,5,0,0,1-.6,1.71,1.85,1.85,0,0,0-.52-.49,7.28,7.28,0,0,0,.6-3.62l.67,0c0,.33,0,.67,0,1a3.27,3.27,0,0,0,.54,1.14v-2.83h-1.58v-.72h1.38v-.89H207.9v-.72h1.16v-1h.73v1h1.08v.6a4.23,4.23,0,0,0,1.13-1.64l.7.18c0,.12-.11.24-.17.37h2.89s0,.16,0,.26c-.09,1.54-.17,2.11-.36,2.34a.66.66,0,0,1-.51.21,4.38,4.38,0,0,1-.82,0,1.46,1.46,0,0,0-.15-.52c.29,0,.54,0,.66,0a.3.3,0,0,0,.23-.08,4.4,4.4,0,0,0,.24-1.68h-2.5l-.24.36H212V277h.54v-.8h.55v.8h.53v-.66h.57v1.13h-1.15a1.15,1.15,0,0,1-.7.71l.27.07a3.26,3.26,0,0,1-.18.38h3s0,.18,0,.28c-.08,1.67-.17,2.29-.38,2.53a.65.65,0,0,1-.5.22,7.37,7.37,0,0,1-.85,0,1.5,1.5,0,0,0-.15-.55,6.46,6.46,0,0,0,.67,0,.25.25,0,0,0,.24-.08,5.1,5.1,0,0,0,.27-1.87h-2.62c-.09.14-.19.27-.29.4H212v.68h.55v-.84h.59v.84h.56v-.68h.57v1.18H213c-.16.42-.58.8-1.59,1a1.58,1.58,0,0,0-.35-.44,1.9,1.9,0,0,0,1.27-.6h-.93V280l-.09.08c-.08-.07-.21-.16-.34-.25v.07h-1Zm0-3.41v1h1v.23a4.32,4.32,0,0,0,.8-1.09l-.34.07a1.24,1.24,0,0,0-.29-.4c.79-.13,1.17-.35,1.32-.59h-1v-.59l-.1.1a5.36,5.36,0,0,0-.53-.36h-1.07v.89h1.29v.72Z" fill="#fff"/><path d="M218.17,276.81a1.72,1.72,0,0,1-1.38,1.2,2,2,0,0,0-.32-.48c.55-.11.95-.33,1.08-.72h-1v-.55h1.56v-.4h-1.25v-.52h1.25v-.48h.75v.48h1.27v.52h-1.27v.4h1.61v.55h-1.09v.25c0,.17,0,.23.13.23h.39a1.81,1.81,0,0,0,.4,0,3.91,3.91,0,0,0,0,.48,1.4,1.4,0,0,1-.44,0h-.56c-.5,0-.59-.23-.59-.73v-.24Zm5.54-.94c0,1.89,0,3.35.28,3.35.12,0,.15-.45.16-1.05a2.25,2.25,0,0,0,.47.46c-.06.92-.19,1.3-.69,1.3-.83,0-.92-1.41-.94-3.4h-.77a8.2,8.2,0,0,1-.17,1.21c.34.2.66.42.87.57l-.37.58-.71-.5a2.77,2.77,0,0,1-1.12,1.37,2,2,0,0,0-.42-.51v.3l-3.76.27-.05-.6,1.63-.09v-.51h-1.26v-.52h1.26v-.45h.75v.45h1.29v.52h-1.29v.47l1.44-.11v.24a2.48,2.48,0,0,0,.94-1.21l-.75-.47.35-.51.58.34a6.79,6.79,0,0,0,.12-.84h-.87v-.66h.9c0-.31,0-.65,0-1h.69c0,.36,0,.69,0,1Zm0,4.43s0,.23,0,.33c-.14,1.25-.28,1.8-.52,2a1,1,0,0,1-.68.26,10.45,10.45,0,0,1-1.24,0,1.66,1.66,0,0,0-.24-.73c.47,0,1,.05,1.14.05a.49.49,0,0,0,.35-.08c.14-.11.23-.46.32-1.21h-2.3c-.4,1.05-1.31,1.7-3.58,2a2.44,2.44,0,0,0-.37-.67c1.89-.22,2.7-.64,3.08-1.34h-2.59v-.65h2.82c0-.16.06-.32.09-.5h.83c0,.18-.06.34-.09.5Z" fill="#fff"/><path d="M207.53,293.64a11.21,11.21,0,0,0,.38-1.9l.44.14a11.58,11.58,0,0,1-.36,1.93ZM211,291c-.06,2.12-.13,2.89-.31,3.14a.57.57,0,0,1-.46.24,2.51,2.51,0,0,1-.69,0,1.7,1.7,0,0,0-.18-.62,4.54,4.54,0,0,0,.55,0,.22.22,0,0,0,.22-.1,2.48,2.48,0,0,0,.15-.95l-.32.13c-.09-.3-.28-.79-.43-1.15l.31-.11a7.54,7.54,0,0,1,.44,1.09q0-.49.06-1.32H208v-4.67h3v.67h-1v.7h.85v.34a6.31,6.31,0,0,0,2.28-2.18l.75.24a1,1,0,0,1-.18.28,7.47,7.47,0,0,0,2.06,1.41,3.65,3.65,0,0,0-.33.73,8,8,0,0,1-.8-.5v.51H212v-.42c-.23.17-.46.32-.69.46a3.93,3.93,0,0,0-.5-.5v.26H210v.66h.87V290H210v.7h1Zm-2.15.91a15.39,15.39,0,0,1,.11,1.58l-.39.05c0-.44,0-1.1-.08-1.59Zm-.2-4.51v.7h.67v-.7Zm.67,1.33h-.67v.66h.67Zm-.67,2h.67V290h-.67Zm.72,1.08c.11.45.24,1,.3,1.42l-.37.08c0-.4-.18-1-.29-1.44Zm3.25.14c-.06.25-.13.47-.2.7a4.16,4.16,0,0,1,.91.7l-.42.54a4.42,4.42,0,0,0-.73-.63,4,4,0,0,1-.83,1.18,6.68,6.68,0,0,0-.55-.46,3.84,3.84,0,0,0,1.12-2.16Zm-1.31-2.42h1.79v2.07H211.3Zm.55,1.52h.66v-1h-.66Zm2.56-2.74a8.5,8.5,0,0,1-1.14-1,7.35,7.35,0,0,1-1,1Zm.39,3.59a5.61,5.61,0,0,1-.26,1,8,8,0,0,1,1.1.88l-.5.56a5.08,5.08,0,0,0-.88-.78,3.2,3.2,0,0,1-.65.9,4.29,4.29,0,0,0-.6-.46,3.78,3.78,0,0,0,1.06-2.19Zm-1.36-2.37h1.87v2.07h-1.87ZM214,291h.71v-1H214Z" fill="#fff"/><path d="M219.39,288.43h-3v-.65h1.51a8.7,8.7,0,0,0-.67-1.19l.56-.34a8,8,0,0,1,.69,1.13l-.57.4h1.47Zm-.24,5.45h-1.79v.4h-.64v-3h2.43Zm0-4.28h-2.37V289h2.37Zm-2.37.52h2.37v.63h-2.37Zm.61,1.85v1.25h1.15V292Zm3.45-2.88a3.85,3.85,0,0,1-1,1.05,2.92,2.92,0,0,0-.5-.55,3.48,3.48,0,0,0,.95-.93,9.35,9.35,0,0,0-.76-.56l.43-.52a6.62,6.62,0,0,1,.71.46,4,4,0,0,0,.31-.77h-1.17v-.65h1.44l.14,0,.48.16a6.54,6.54,0,0,1-.77,2h1.82a7.58,7.58,0,0,1-.9-2.26l.68-.12a6.3,6.3,0,0,0,.2.67l.59-.55.48.45a9.2,9.2,0,0,1-.83.66l.22.44a5.93,5.93,0,0,0,.69-.54l.47.46c-.27.2-.58.41-.84.57a3.56,3.56,0,0,0,1,.91,2.8,2.8,0,0,0-.55.59,3.74,3.74,0,0,1-1-1v.4h-2.21Zm2.69,3.2c-.2.41-.43.88-.64,1.23h1.54v.66h-5v-.66h1.43a4.7,4.7,0,0,0-.47-1.2l.7-.19a4.29,4.29,0,0,1,.52,1.22l-.62.17h1.11a9.31,9.31,0,0,0,.58-1.43Zm-3.34-2.36h3.49v2.14h-3.49Zm.71,1.5h2v-.87h-2Z" fill="#fff"/><circle cx="186.63" cy="111.97" r="20.57" fill="#7d3787" stroke="#002a5e" stroke-miterlimit="10" stroke-width="0.84"/><path d="M170.82,108.37a6,6,0,0,1-1.43,1.29,6.29,6.29,0,0,0-.52-.51,4.87,4.87,0,0,0,1.28-1.18Zm2.28-.42H169v-.66h.57v-3.83h1.06c0-.16.06-.34.08-.52h-1.54v-.64h1.63c0-.26,0-.51.07-.73l.79.05-.11.68h1.4v.64H171.4c0,.18-.07.36-.11.52h1.36v3.83h.45Zm-2.88-4v.52H172V104Zm1.73,1h-1.73v.51H172Zm-1.73,1v.47H172v-.47Zm0,1.4H172v-.47h-1.73Zm2.53,1.74a4.71,4.71,0,0,0,1.3-1l.67.42a5.77,5.77,0,0,1-1.63,1.21c-.13-.14-.34-.35-.51-.5l-.22.18a6.17,6.17,0,0,0-1-1l.57-.4a7.83,7.83,0,0,1,1,.89Zm1.7-5.62c.05-.23.1-.51.13-.74h-1.51V102H177v.7h-1.56c-.08.25-.15.52-.22.74h1.51V108h-3.4v-4.54ZM176,104H174v.69H176Zm0,1.29H174V106H176Zm0,1.29H174v.69H176Zm-.2,1.46a10.16,10.16,0,0,1,1.36,1.12l-.65.45a9.32,9.32,0,0,0-1.32-1.17Z" fill="#fff"/><path d="M185.06,107.83a3.31,3.31,0,0,1-1.2,1,13.39,13.39,0,0,0,1.86.29,2.15,2.15,0,0,0-.37.57,12.43,12.43,0,0,1-2.37-.5,12.13,12.13,0,0,1-2.73.52,3,3,0,0,0-.31-.55,13.62,13.62,0,0,0,2.19-.29,6.11,6.11,0,0,1-.8-.44c-.24.11-.49.22-.75.31a3,3,0,0,0-.43-.44,6.32,6.32,0,0,0,.65-.27,3.33,3.33,0,0,1-.42-.42l.56-.21a3.7,3.7,0,0,0,.41.37,4.31,4.31,0,0,0,.63-.42H181v-1.39a4.21,4.21,0,0,1-.48.47,4.29,4.29,0,0,0-.42-.38,6.2,6.2,0,0,1-.53.64v3h-.72v-2.3c-.23.18-.47.37-.7.53a3.26,3.26,0,0,0-.44-.53,6,6,0,0,0,1.87-1.86l.61.21a4.34,4.34,0,0,0,1.08-1.45h-2.87v-1.48h2v-.35H178v-.57h7.59v.57h-2.44v.35h2.07v1.48h-3.8l.57.16-.12.26h3.58v.56h-3.92l-.19.26h3.67v1.81h-2.21l-.3.3h2l.14,0Zm-4.93-3.29a6.35,6.35,0,0,1-1.86,1.68,5.7,5.7,0,0,0-.48-.51,5.12,5.12,0,0,0,1.63-1.4Zm-.95-.79h1.22v-.46h-1.22Zm1.95-1h1.29v-.35h-1.29Zm1.29,1v-.46h-1.29v.46Zm-.7,2.46h2.61v-.3h-2.61Zm0,.69h2.61v-.31h-2.61Zm.19,1.19a7.12,7.12,0,0,0,1.11.47,4.16,4.16,0,0,0,.92-.47Zm1.28-4.8v.46h1.3v-.46Z" fill="#fff"/><path d="M191.47,105.92a8.7,8.7,0,0,0,3.25,2.59,5.12,5.12,0,0,0-.6.71,9.56,9.56,0,0,1-3.07-2.64v3.07h-.86v-3a9.75,9.75,0,0,1-3.06,2.6,7.92,7.92,0,0,0-.6-.7,8.65,8.65,0,0,0,3.23-2.59h-3v-.82h3.41v-1.33h-2.77V103h2.77v-1.39h.86V103h2.85v.81h-2.85v1.33h3.46v.82Z" fill="#fff"/><path d="M202.72,106.64a14.65,14.65,0,0,0-1.27-1.15,4,4,0,0,1-.69.91,3.23,3.23,0,0,0-.66-.41,7.91,7.91,0,0,0,3.42,2.57,3.43,3.43,0,0,0-.62.74,8.44,8.44,0,0,1-3.06-2.45v2.8H199v-2.78a8.86,8.86,0,0,1-3,2.42,3.54,3.54,0,0,0-.58-.7,8.07,8.07,0,0,0,3.62-3v-2.09h-3.29v-.79H199v-1.17h.86v1.17h3.39v.79h-3.39v2c.08.13.16.26.25.38a4.16,4.16,0,0,0,1.2-2.28l.8.14a6.34,6.34,0,0,1-.31,1,19.2,19.2,0,0,1,1.52,1.26ZM198,103.83a7.18,7.18,0,0,1-.33,1c.35.3.72.65.93.87l-.55.59a6.84,6.84,0,0,0-.72-.75,4.6,4.6,0,0,1-1.07,1.3,4.71,4.71,0,0,0-.63-.54,4.41,4.41,0,0,0,1.57-2.61Z" fill="#fff"/><path d="M173.26,120.48a3.89,3.89,0,0,0,1.07-1l.68.39a6,6,0,0,1-1.46,1.21,3.18,3.18,0,0,0-.53-.5l.1-.05H171V121h-.61v-2.42l-.21.26a2.51,2.51,0,0,0-.14-.21,9.54,9.54,0,0,1-.48,2.4,2.44,2.44,0,0,0-.62-.33,12.92,12.92,0,0,0,.5-4.21v-2.81h0a17,17,0,0,0,3.07-.51l.6.55a17.64,17.64,0,0,1-3,.51v.35h3v1.9h-3c0,.42,0,.93,0,1.45a5.46,5.46,0,0,0,.65-1.43l.58.15c-.06.2-.14.4-.21.6h.64c-.07-.19-.16-.39-.24-.57l.54-.14a4.25,4.25,0,0,1,.35.71h.84v.53h-.91v.41h.82v.48h-.82v.41h.83v.49h-.83V120h1Zm-3.18-5.26v.65h2.29v-.65Zm1.64,2.58H171v.41h.76Zm0,.89H171v.41h.76ZM171,120h.76v-.42H171Zm3.67-5.2c0-.22.07-.47.09-.69h-1.36v-.7H177v.7h-1.41l-.18.69h1.33v4.53h-3.11v-4.53Zm1.35.63h-1.72v.68H176Zm0,1.28h-1.72v.7H176Zm0,1.29h-1.72v.69H176Zm0,1.52a7.13,7.13,0,0,1,1.1,1.1l-.61.42a8,8,0,0,0-1.08-1.15Z" fill="#fff"/><path d="M179,116.53v4.58h-.81v-7.73h3.24v3.15Zm0-2.5v.61h1.66V114Zm1.66,1.86v-.67H179v.67Zm.2,4v.51h-.76v-3.15h3.32v2.64Zm0-2v1.28h1.79v-1.28Zm4.59,2.15c0,.49-.12.75-.43.89a5.17,5.17,0,0,1-1.64.14,3.08,3.08,0,0,0-.28-.84c.55,0,1.12,0,1.3,0s.21-.06.21-.22v-3.52h-2.48v-3.16h3.32Zm-2.54-6v.62h1.7V114Zm1.7,1.87v-.67h-1.7v.67Z" fill="#fff"/><path d="M194.23,113.38v7.7h-.78v-.41h-5.66v.44h-.74v-7.73Zm-.78,6.64v-6h-5.66v6Zm-.25-1.35H192v.7c0,.29-.07.39-.28.45a4,4,0,0,1-1.06.07,1.39,1.39,0,0,0-.17-.44h.7c.1,0,.13,0,.13-.12v-.67h-3.27v-.48h3.27v-.29H192v.29h1.2Zm-1-1.59a6,6,0,0,1,.84.78l-.43.33a3.81,3.81,0,0,0-.35-.37l-4.07.11,0-.47,2.08,0v-.36h-1.8V115.3h1.8V115h-2.1v-.49h2.1v-.36h.68v.36h2.14V115h-2.14v.3h1.87v1.78Zm-2.61,2.67a4.17,4.17,0,0,0-.69-.82l.51-.26a4.34,4.34,0,0,1,.73.78Zm-.52-3.74h1.16v-.33h-1.16Zm1.16.69v-.33h-1.16v.33Zm.68-1V116h1.21v-.33Zm1.21,1v-.33h-1.21v.33Zm-.29.73-.16-.14.33-.21h-1.09v.36Z" fill="#fff"/><path d="M198.35,113.68c-.24.73-.55,1.65-.83,2.34a2.71,2.71,0,0,1,.73,1.83,1.25,1.25,0,0,1-.36,1.05,1.19,1.19,0,0,1-.48.17,3.65,3.65,0,0,1-.58,0,1.67,1.67,0,0,0-.19-.7h.45a.48.48,0,0,0,.27-.08c.12-.09.16-.29.16-.56a2.43,2.43,0,0,0-.72-1.65c.23-.59.46-1.37.62-2h-.94v7h-.72V113.4h1.94l.12,0Zm4.94,2.39a11.89,11.89,0,0,1-1.11.74,6.77,6.77,0,0,0,1.44,2.54,3,3,0,0,0-.53.54,8.47,8.47,0,0,1-1.48-2.74l-.11.06c.44,1.42.25,2.93-.26,3.39a1.11,1.11,0,0,1-.93.39c-.17,0-.46,0-.7,0a2,2,0,0,0-.2-.73c.29,0,.57,0,.76,0a.54.54,0,0,0,.49-.22,2.34,2.34,0,0,0,.32-1.51A10,10,0,0,1,198.6,120a2.53,2.53,0,0,0-.49-.6,7,7,0,0,0,2.77-1.6c0-.19-.09-.39-.15-.58a12.11,12.11,0,0,1-1.85,1.17,3.12,3.12,0,0,0-.44-.59,7.53,7.53,0,0,0,2-1.17,3.13,3.13,0,0,0-.37-.6,8.31,8.31,0,0,1-1.54.93,2.83,2.83,0,0,0-.48-.59,6.56,6.56,0,0,0,2-1.17h-1.78v-.71h1.58a5.35,5.35,0,0,0-.93-1l.6-.38a4.78,4.78,0,0,1,1.05,1.07l-.44.3h.9a8.14,8.14,0,0,0,.88-1.42l.78.24a10.62,10.62,0,0,1-.81,1.18h1.51v.7H201a3.66,3.66,0,0,1-.39.4,4.3,4.3,0,0,1,.66,1,11.5,11.5,0,0,0,1.49-1.09Z" fill="#fff"/><ellipse cx="144.78" cy="251.94" rx="81.81" ry="144.98" transform="translate(-126.31 356.54) rotate(-81.21)" fill="none" stroke="#002a5e" stroke-miterlimit="10" stroke-width="0.9"/><circle cx="17.53" cy="204.44" r="16.98" fill="#fff" stroke="#002a5e" stroke-miterlimit="10" stroke-width="1.11"/><path d="M8.34,205.22c-.31.08-.61.19-.93.28v3.05H6.48v-2.77c-.46.14-.89.28-1.28.38l-.25-1c.43-.09,1-.23,1.53-.39v-1.64H5.91a8.73,8.73,0,0,1-.32,1.1,6.39,6.39,0,0,0-.72-.47A10.68,10.68,0,0,0,5.36,201l.85.15c0,.34-.08.67-.13,1h.4v-1.65h.93v1.65h.71v1H7.41v1.38l.79-.22Zm4.6-3.35s0,.34,0,.46c-.17,3.82-.32,5.22-.65,5.64a.9.9,0,0,1-.66.45,5.77,5.77,0,0,1-1,0,3.06,3.06,0,0,0-.28-1,5.89,5.89,0,0,0,.76,0,.37.37,0,0,0,.32-.17c.21-.27.36-1.43.5-4.51h0c-.42,2.16-1.3,4.39-2.68,5.52a4.39,4.39,0,0,0-.83-.59c1.37-1,2.22-2.92,2.65-4.93h-.4a8.71,8.71,0,0,1-2,3.75,3.57,3.57,0,0,0-.78-.57,6.6,6.6,0,0,0,1.89-3.18H9.37a6.22,6.22,0,0,1-.89,1.53,5.69,5.69,0,0,0-.77-.57,7.07,7.07,0,0,0,1.41-3.22l.92.17a10.83,10.83,0,0,1-.32,1.15Z" fill="#002a5e"/><path d="M16.5,206.83c-.94.33-2,.66-2.79.92l-.23-1c.3-.08.65-.17,1-.29v-2h-.86v-.93h.86V202h-.94V201h2.83V202h-.92v1.51h.77v.93h-.77v1.71l.84-.26Zm5.09.52v.92H16.08v-.92h2.36v-.81H16.67v-.92h1.77v-.73H16.73v-4H21.2v4H19.48v.73h1.81v.92H19.48v.81Zm-3.94-4.86h.88v-.72h-.88Zm0,1.53h.88v-.74h-.88Zm2.58-2.25h-.84v.72h.84Zm0,1.51h-.84V204h.84Z" fill="#002a5e"/><path d="M30,207H26.68v.62c0,.45-.1.68-.45.81a4.86,4.86,0,0,1-1.46.13,3.6,3.6,0,0,0-.31-.85h1c.14,0,.18,0,.18-.12V207H22.22v-.8h3.46v-.25a5.69,5.69,0,0,0,.94-.5H23.88v-.71H27.6l.21-.05.58.52a11.32,11.32,0,0,1-1.64,1H30Zm-6.61-1.61h-1v-1.75H23l-.15-2.54a13.31,13.31,0,0,0,1.73-.48l.42.59a7.49,7.49,0,0,1-1.18.32l0,.25h1.09v.64H23.89v.29H25v.43a4.86,4.86,0,0,0,.6-.32,4,4,0,0,0-.48-.28l.48-.41.53.29a3.82,3.82,0,0,0,.34-.36l.67.2a3.66,3.66,0,0,1-.46.51,4.28,4.28,0,0,1,.53.4l-.52.44c-.13-.12-.3-.26-.5-.42a5.41,5.41,0,0,1-.69.45h2.77l0-.3h-1v-.63h1.07l0-.29H27.29v-.64h1.09l0-.28H27.25v-.64h2.14c0,.9-.11,2-.18,2.78h.63v1.75h-1v-1H23.34Zm.61-1.75h1.39a4.77,4.77,0,0,0-.39-.39v.09h-1ZM26.61,202a3.73,3.73,0,0,0-.45-.35,4.25,4.25,0,0,1-.69.42,4,4,0,0,0-.53-.45,4.48,4.48,0,0,0,.65-.34l-.46-.25.45-.4.52.28a3.28,3.28,0,0,0,.31-.34l.67.19a2.73,2.73,0,0,1-.43.47c.17.12.32.24.45.35Z" fill="#002a5e"/><circle cx="189.63" cy="334.95" r="16.98" fill="#fff" stroke="#002a5e" stroke-miterlimit="10" stroke-width="1.11"/><path d="M189.22,331v1h-7.69v-1h3.3v-1.72h-2.32v-1h2.32v-1.51h-1.77a6.63,6.63,0,0,1-.8,1.24,9,9,0,0,0-.91-.61,7.45,7.45,0,0,0,1.51-3.06l1.06.23c-.12.41-.26.81-.41,1.21h1.32V324.3h1.07v1.54h2.89v1H185.9v1.51h2.56v1H185.9V331Z" fill="#002a5e"/><path d="M193.27,329l-.93.28v3.05h-.93v-2.76c-.46.13-.89.27-1.28.37l-.25-1c.43-.1,1-.23,1.53-.4v-1.63h-.57a8.55,8.55,0,0,1-.32,1.09,6.39,6.39,0,0,0-.72-.47,10.52,10.52,0,0,0,.49-2.75l.85.14c0,.34-.08.68-.13,1h.4V324.3h.93v1.64h.71v1h-.71v1.38l.79-.23Zm4.6-3.35s0,.35,0,.47c-.17,3.81-.32,5.21-.64,5.64a1,1,0,0,1-.67.44,4.22,4.22,0,0,1-1,0,3,3,0,0,0-.28-1c.31,0,.6,0,.76,0a.36.36,0,0,0,.32-.16c.21-.28.36-1.44.5-4.51h0c-.42,2.15-1.3,4.38-2.68,5.52a3.64,3.64,0,0,0-.83-.59,8.21,8.21,0,0,0,2.65-4.93h-.4a8.82,8.82,0,0,1-2,3.75,3.6,3.6,0,0,0-.78-.58,6.56,6.56,0,0,0,1.89-3.17h-.43a6.22,6.22,0,0,1-.89,1.53,5.74,5.74,0,0,0-.77-.58,7,7,0,0,0,1.41-3.22l.92.17c-.08.39-.2.78-.31,1.15Z" fill="#002a5e"/><path d="M182.52,337.45a4.07,4.07,0,0,0,2.53.73,3.21,3.21,0,0,0-.57.81,4.08,4.08,0,0,1-2.24-.86,3.84,3.84,0,0,1-2.47.87,3,3,0,0,0-.35-.56h-2.26v-.77h2.58v.52c1.64-.17,1.85-.56,1.85-.88v-.12h-.51a4,4,0,0,1-.6.73,5.34,5.34,0,0,0-.76-.52,3.35,3.35,0,0,0,1-1.52l.9.19-.15.38h2.43l.15,0,.7.21A7.5,7.5,0,0,1,184,338l-.79-.29a3.18,3.18,0,0,0,.3-.49h-.95v.26Zm.23,5c.79.3,1.63.64,2.14.89l-.92.54a16.33,16.33,0,0,0-2.23-1l.53-.42h-2.42l.75.35a11.55,11.55,0,0,1-2.67,1.11,7.6,7.6,0,0,0-.76-.74,10.08,10.08,0,0,0,2.34-.72h-1.23V339H184v3.47Zm-3.21-5.39h-2.19v-.74h2.19Zm-.28,2.89H183v-.36h-3.71Zm0,.95H183v-.37h-3.71Zm0,1H183v-.39h-3.71Z" fill="#002a5e"/><path d="M188.84,338.14h-3.15v-.8h1.37a8.77,8.77,0,0,0-.51-1.08l.73-.37a10.08,10.08,0,0,1,.57,1.14l-.52.31h1.51Zm-2.79,1.16v-.77h2.48v.77Zm0,.38h2.5v.77h-2.5Zm2.5,3.77h-1.72v.36h-.78v-2.95h2.5Zm-1.72-1.78v1h.91v-1Zm6-5.31c-.08,2.82-.07,6.33.25,6.43a5,5,0,0,0,.11-1.08,5.84,5.84,0,0,0,.53.82c-.13,1.25-.56,1.51-1.09,1.29-.82-.34-.83-3.3-.82-6.49h-1v2.26h.82v1h-.82v3.37h-1v-3.37h-1v-1h1v-2.26H189v-1Z" fill="#002a5e"/><path d="M202.05,342.36h-3.27V343c0,.46-.1.68-.45.82a5,5,0,0,1-1.47.12,3.21,3.21,0,0,0-.31-.85c.41,0,.92,0,1,0s.18,0,.18-.13v-.58h-3.47v-.81h3.47v-.25a6,6,0,0,0,.94-.49H196v-.71h3.73l.21-.05.57.52a12.12,12.12,0,0,1-1.63,1h3.2Zm-6.62-1.61h-1V339h.64l-.16-2.54a12.48,12.48,0,0,0,1.73-.48l.42.59a8.57,8.57,0,0,1-1.17.33l0,.24H197v.64H196l0,.29h1.05v.44a6.73,6.73,0,0,0,.6-.33l-.48-.28.47-.4c.17.08.35.18.54.29a2.76,2.76,0,0,0,.33-.36l.67.19a3.65,3.65,0,0,1-.45.52,3.91,3.91,0,0,1,.52.39l-.51.45a4.76,4.76,0,0,0-.5-.42,6.62,6.62,0,0,1-.69.44h2.77l0-.3h-1v-.63h1.07l0-.29h-1v-.64h1.08l0-.28h-1.15v-.64h2.14c0,.9-.11,2-.18,2.78h.64v1.76h-1v-1h-5.5Zm.62-1.76h1.39l-.39-.39v.09h-1Zm2.65-1.57a4.76,4.76,0,0,0-.44-.36,4.71,4.71,0,0,1-.7.43A3.5,3.5,0,0,0,197,337a3.06,3.06,0,0,0,.65-.33c-.16-.1-.3-.18-.46-.26l.46-.39c.16.07.34.17.52.27a3.28,3.28,0,0,0,.31-.34l.66.2a3.63,3.63,0,0,1-.42.47c.17.12.32.24.44.34Z" fill="#002a5e"/><circle cx="25.02" cy="280.11" r="16.98" fill="#fff" stroke="#002a5e" stroke-miterlimit="10" stroke-width="1.11"/><path d="M17.92,273H17V271.1h3.24v-.34H17.37v-.67h6.71v.67H21.21v.34h3.31V273h-1l-.18.6a13.16,13.16,0,0,0-2-.47l.2-.57a12.13,12.13,0,0,1,1.93.4v-1.22H23l.31.43a8,8,0,0,1-1.52.41l-.32-.47a12.22,12.22,0,0,0,1.18-.37H21.21v1.78h-1v-1.78H18.58a8.6,8.6,0,0,1,1.34.35l-.28.55a9.75,9.75,0,0,0-1.47-.42l.24-.48H18v1.17c.52-.06,1.24-.16,2-.27l0,.58-1.81.41Zm5.46,3.86c.43,0,.51-.13.57-.85a2.78,2.78,0,0,0,.85.32c-.12,1-.4,1.3-1.34,1.3h-1.8c-1.16,0-1.49-.24-1.49-1.13v0H18.75v.37h-1v-3.11H23.7v2.74H21.14v0c0,.3.11.36.62.36Zm-4.63-2.44v.38h1.42v-.38Zm1.42,1.37v-.39H18.75v.39Zm2.52-1.37H21.14v.38h1.55Zm0,1.37v-.39H21.14v.39Z" fill="#002a5e"/><path d="M28.13,276.73c0,.44-.07.7-.32.85a2.29,2.29,0,0,1-1.17.18,3.25,3.25,0,0,0-.24-.9c.31,0,.63,0,.74,0s.15,0,.15-.15v-2l-.53.54-.24-.58a10.13,10.13,0,0,1-.6,3.14,3.08,3.08,0,0,0-.68-.57,12.4,12.4,0,0,0,.5-4.11v-3.06h2.39Zm-1.56-3.59c0,.37,0,.78,0,1.22.21-.14.47-.34.75-.55V273l-.33.22a4.23,4.23,0,0,0-.39-.59Zm0-2.14v1.07l.26-.17c.15.16.32.35.46.53V271Zm2.76,2.14a9.51,9.51,0,0,0-1.06-1.73,13.49,13.49,0,0,0,.92-1.6l.89.2c-.26.47-.58,1-.84,1.39a11.6,11.6,0,0,1,.93,1.4Zm1.94-.15c-.1.16-.21.33-.32.48h2.12v4.27h-.94v-.3H29.44v.34h-.91v-4.31h1.41a6.62,6.62,0,0,0,.26-.68l.6.12a8.58,8.58,0,0,0-1-1.51,14.59,14.59,0,0,0,.9-1.52l.88.22c-.26.43-.56.9-.82,1.29a8.66,8.66,0,0,1,.92,1.31l-.6.26Zm.86,1.3h-.85l.68.36a5.63,5.63,0,0,1-.54.69c.27.22.51.43.69.61l-.57.57a5.68,5.68,0,0,0-.69-.63,5.86,5.86,0,0,1-.91.66,3.09,3.09,0,0,0-.5-.53v.6h2.69Zm-2.69,0V276a5.79,5.79,0,0,0,.82-.58c-.24-.18-.48-.35-.71-.49l.53-.49c.24.13.48.3.72.45a3.68,3.68,0,0,0,.46-.6Zm3-1.27a8.46,8.46,0,0,0-1.13-1.62,14.51,14.51,0,0,0,.93-1.51l.9.22c-.26.42-.56.89-.83,1.27a9,9,0,0,1,1,1.27Z" fill="#002a5e"/><path d="M19.56,286.88a9.4,9.4,0,0,0-.51-.94v3.48h-1v-3.09a8.11,8.11,0,0,1-.93,1.7,6.68,6.68,0,0,0-.47-1,7.82,7.82,0,0,0,1.26-2.29H16.77v-.95h1.29v-1l-1,.14a3,3,0,0,0-.27-.79,13.36,13.36,0,0,0,2.76-.7l.57.83a6.77,6.77,0,0,1-1.1.31v1.18h1.13v.95H19.05v.07c.24.24.95,1,1.11,1.24Zm4.22.37v2.16h-1v-2l-2.59.45-.16-1,2.75-.47v-5h1v4.85l.85-.15.16.95Zm-2.15-1.19a7.45,7.45,0,0,0-1.36-1.31l.65-.58a7.22,7.22,0,0,1,1.4,1.24Zm.22-2.26a6.11,6.11,0,0,0-1.27-1.28l.67-.59a6.83,6.83,0,0,1,1.31,1.24Z" fill="#002a5e"/><path d="M33.16,287.85H29.89v.62c0,.45-.11.67-.46.81a4.86,4.86,0,0,1-1.46.13,3.15,3.15,0,0,0-.31-.86c.4,0,.92,0,1.05,0s.18,0,.18-.13v-.58H25.42v-.8h3.47v-.25a6.62,6.62,0,0,0,.94-.5H27.08v-.71H30.8l.22,0,.57.52a13.29,13.29,0,0,1-1.63,1h3.2Zm-6.62-1.61h-1v-1.75h.65l-.16-2.55a10.47,10.47,0,0,0,1.73-.48l.42.59a8.57,8.57,0,0,1-1.17.33v.25h1.09v.63H27.09l0,.29h1.05V284a5.76,5.76,0,0,0,.6-.33l-.48-.28.47-.4c.17.08.35.19.54.29a2.76,2.76,0,0,0,.33-.36l.67.2a3.57,3.57,0,0,1-.45.51c.2.14.38.27.52.39l-.51.45a4.76,4.76,0,0,0-.5-.42,6.75,6.75,0,0,1-.69.45h2.77l0-.3h-1v-.64h1.07l0-.29h-1v-.63h1.08l0-.29H30.45v-.64h2.14c0,.9-.11,2-.18,2.79h.64v1.75H32v-1h-5.5Zm.62-1.75h1.38a3.5,3.5,0,0,0-.38-.4v.1h-1Zm2.65-1.58a4.76,4.76,0,0,0-.44-.36,4.9,4.9,0,0,1-.7.43,5,5,0,0,0-.53-.46,3.31,3.31,0,0,0,.65-.33l-.46-.26.45-.39.53.27a2.36,2.36,0,0,0,.3-.34l.67.2a3.1,3.1,0,0,1-.43.47l.45.34Z" fill="#002a5e"/><circle cx="268.65" cy="297.62" r="16.98" fill="#fff" stroke="#002a5e" stroke-miterlimit="10" stroke-width="1.11"/><path d="M263.24,287.1a12.4,12.4,0,0,1-.82,1.78v5.87h-1v-4.28c-.18.21-.36.43-.53.61a6.56,6.56,0,0,0-.56-1.08,9.1,9.1,0,0,0,1.95-3.2Zm2.71,2v.9h2.22V291H266v1h2.33v.95H266v1.9h-1v-5.64h-.33a8.72,8.72,0,0,1-1.12,1.66,7.76,7.76,0,0,0-.78-.71,8.48,8.48,0,0,0,1.82-3.22l1,.24a8.19,8.19,0,0,1-.42,1.07h3.33v1Z" fill="#002a5e"/><path d="M272.21,293.42a6.65,6.65,0,0,1-2.49,1.14,4.53,4.53,0,0,0-.6-.74,7.37,7.37,0,0,0,2.37-.72Zm4.54-1.45v.84h-3.33v1.95h-1v-1.95h-3.26V292h3.26v-.37H270v-.74h2.46v-.38h-2.89v-.77h1.58a5.33,5.33,0,0,0-.32-.63l.57-.13h-2.18v-.79h1.16a7.67,7.67,0,0,0-.54-1.07l.87-.29a5.5,5.5,0,0,1,.65,1.2l-.41.16h.79v-1.4h.94v1.4h.64v-1.4h1v1.4H275l-.31-.1a7.11,7.11,0,0,0,.55-1.23l1.07.25c-.24.39-.47.78-.69,1.08h1.11V289h-2.26l.8.21-.52.55h1.65v.77h-3v.38H276v.74h-2.57V292Zm-4.94-3a5.9,5.9,0,0,1,.34.64l-.46.12H274l-.31-.1a7.57,7.57,0,0,0,.44-.66Zm2.67,4.09c.69.26,1.7.69,2.25,1l-.72.56c-.5-.28-1.5-.74-2.22-1Z" fill="#002a5e"/><path d="M262.34,299.73a14.22,14.22,0,0,1-.46,1.7h1.6v3.94h-1.63V306H261v-2.65c-.11.16-.23.32-.34.46a5.91,5.91,0,0,0-.36-1.21,7,7,0,0,0,1.09-2.86h-.91v-.93h3.11v.93Zm.28,2.6h-.77v2.14h.77Zm5.75.51h-.9v3.56h-1v-3.56h-1a5.69,5.69,0,0,1-1.18,3.63,4.25,4.25,0,0,0-.78-.6,4.81,4.81,0,0,0,1-3h-.8v-.95h.81v-2.12H264v-.94h4.2v.94h-.73v2.12h.9Zm-1.87-.95v-2.12h-1v2.12Z" fill="#002a5e"/><path d="M275.78,305.25c.19,0,.23-.16.26-1.22a3.12,3.12,0,0,0,1,.44c-.1,1.4-.37,1.78-1.1,1.78h-.81c-.84,0-1.1-.3-1.1-1.3v-1.11h-1.12c-.22,1-1,2-3.18,2.62a5,5,0,0,0-.72-.88c1.77-.44,2.49-1.08,2.75-1.74h-2.1v-.94h2.25V302h1.07v.94h2.12v2c0,.28,0,.31.23.31Zm-5.48-4.35h-1v-1.75h3.13c-.06-.21-.12-.42-.18-.6l1.08-.17.25.77h3.12v1.67H275.6v-.75h-1.21v1.1c0,.22,0,.31.26.31h1a2.86,2.86,0,0,0,.75-.07c0,.28.05.62.08.86a3.29,3.29,0,0,1-.78.07h-1.16c-1,0-1.2-.34-1.2-1.18v-1.09h-.88c-.16,1.22-.65,1.94-2.61,2.35a2.72,2.72,0,0,0-.53-.83c1.62-.26,1.95-.71,2.08-1.52H270.3Z" fill="#002a5e"/><circle cx="261.8" cy="215.76" r="16.98" fill="#fff" stroke="#002a5e" stroke-miterlimit="10" stroke-width="1.11"/><path d="M260.94,207.2a10.14,10.14,0,0,1-.79,3.15,3.64,3.64,0,0,0,1.47,1.56,3.08,3.08,0,0,0-.64.79,4.19,4.19,0,0,1-1.35-1.48,5.07,5.07,0,0,1-1.85,1.52c-.06-.11-.17-.31-.29-.49l-.25.23a7.1,7.1,0,0,0-1-.5,7.12,7.12,0,0,1-2.36.74,2.48,2.48,0,0,0-.4-.66,8.09,8.09,0,0,0,1.79-.45c-.39-.13-.8-.25-1.18-.35a5.74,5.74,0,0,0,.47-.65h-.91v-.68H255a3.6,3.6,0,0,0,.2-.39H254V208h1.52v-.25h-1.37v-.94h-.59v-.72h.59v-.89h1.37v-.51h.77v.51h1.47v.89h.45v.72h-.45v.94h-1.47V208h1.59v.34a14,14,0,0,0,1-3.65l.84.16c-.08.47-.18,1-.3,1.42h2.08v.9ZM254.82,209h.68v-.38h-.68Zm.06-3.11v.3h.62v-.3Zm.62,1.27v-.35h-.62v.35Zm0,3.47-.19.29.81.25a1.56,1.56,0,0,0,.45-.54Zm1.91,0a1.84,1.84,0,0,1-.46.85l.78.34a3.84,3.84,0,0,0,1.52-1.47,12.48,12.48,0,0,1-.5-1.77,6.24,6.24,0,0,1-.35.73,5.85,5.85,0,0,0-.5-.5v.75h-1.8c-.06.13-.12.26-.19.39h.76v-.25h.8v.25h.71v.68Zm-1.1-4.74v.3h.67v-.3Zm.67,1.27v-.35h-.67v.35Zm-.67,1.46V209h.7v-.38Zm2.93-1.4a12.43,12.43,0,0,0,.48,2.06,10.49,10.49,0,0,0,.39-2.06Z" fill="#002a5e"/><path d="M269.94,211.15h-3.27v.62c0,.45-.11.67-.46.81a4.86,4.86,0,0,1-1.46.13,3.15,3.15,0,0,0-.31-.86c.4,0,.92,0,1,0s.18,0,.18-.13v-.58H262.2v-.8h3.46v-.25a6.21,6.21,0,0,0,.95-.5h-2.75v-.71h3.72l.22,0,.57.52a12.71,12.71,0,0,1-1.64,1h3.21Zm-6.62-1.61h-1v-1.75H263l-.15-2.55a10.47,10.47,0,0,0,1.73-.48l.42.6a9,9,0,0,1-1.17.32v.25h1.09v.63h-1.05v.29h1.06v.44c.2-.1.42-.21.6-.32l-.48-.29.47-.4.54.29a2.76,2.76,0,0,0,.33-.36l.67.2a3.12,3.12,0,0,1-.46.51,5.66,5.66,0,0,1,.53.39l-.52.45a6.06,6.06,0,0,0-.49-.42,6.86,6.86,0,0,1-.7.45h2.78l0-.3h-1v-.64h1.07l0-.29h-1.05v-.63h1.09l0-.28h-1.15V205h2.14c0,.9-.11,2-.18,2.79h.63v1.75h-1v-1h-5.49Zm.62-1.75h1.38a4.58,4.58,0,0,0-.38-.4v.1h-1Zm2.65-1.58a5,5,0,0,0-.45-.36,4.33,4.33,0,0,1-.69.43,4,4,0,0,0-.53-.45,4,4,0,0,0,.65-.34l-.46-.26.45-.39c.16.08.34.17.52.28a2.43,2.43,0,0,0,.31-.35l.67.2a3.15,3.15,0,0,1-.43.47l.45.34Z" fill="#002a5e"/><path d="M250.28,222.11a9.68,9.68,0,0,1-.38,2.09,3.51,3.51,0,0,0-.75-.27,7.24,7.24,0,0,0,.34-1.94Zm1.52-.5a3.63,3.63,0,0,0-.07-.39,10,10,0,0,0-2.2.49,5.78,5.78,0,0,0-.31-.91,1.41,1.41,0,0,0,.67-.56,7.25,7.25,0,0,0,.52-.68,3.29,3.29,0,0,0-.94.18c-.06-.19-.21-.64-.31-.9.16,0,.31-.2.48-.46a10.24,10.24,0,0,0,1-2.09l.91.39a14.61,14.61,0,0,1-1.19,2.13l.56,0a14.21,14.21,0,0,0,.66-1.29l.83.53a14.34,14.34,0,0,1-1.77,2.62l.86-.13a4.74,4.74,0,0,0-.25-.64l.68-.26a7.17,7.17,0,0,1,.6,1.71Zm-.63.3a14.94,14.94,0,0,1,.23,1.76l-.76.19c0-.48-.1-1.21-.18-1.76Zm.91-.25c.16.45.34,1,.43,1.39l-.72.26a10.71,10.71,0,0,0-.4-1.42Zm4.12,1.64c.16,0,.18-.16.21-1.16a2.73,2.73,0,0,0,.85.38c-.08,1.31-.31,1.68-.95,1.68h-.62c-.78,0-.95-.3-.95-1.2v-2.55l-.49.06c-.07,1.84-.3,3.12-1.69,3.88a3,3,0,0,0-.62-.8c1.13-.58,1.3-1.52,1.35-3a2,2,0,0,0-.58.14,9,9,0,0,0-.34-1c.2-.06.37-.26.59-.61a7.64,7.64,0,0,0,.51-.89h-1v-1h1.46c.14-.34.27-.68.38-1l1.11.29c-.1.25-.21.49-.32.74h2v1H254.6a15.54,15.54,0,0,1-.81,1.35l1.81-.17-.4-.67.82-.37a11.57,11.57,0,0,1,1.16,2.12l-.89.41c-.06-.19-.16-.41-.27-.66l-.33,0V223c0,.27,0,.3.16.3Z" fill="#002a5e"/><path d="M261.63,218.58H258v-.81h1.5a11,11,0,0,0-.56-1.07l.8-.37a8.8,8.8,0,0,1,.63,1.14l-.56.3h1.8Zm-3.23,1.15V219h2.87v.77Zm2.86,1.15H258.4v-.77h2.86Zm0,3h-2v.36h-.86v-3h2.85Zm-2-1.78v.95h1.11v-.95Zm6.44-1.9h-1.58v4.15h-1.06v-4.15h-1.5v-1h1.5v-2.68h1.06v2.68h1.58Z" fill="#002a5e"/><path d="M274.21,222.79h-3.27v.62c0,.45-.1.67-.45.81a4.86,4.86,0,0,1-1.46.13,3.52,3.52,0,0,0-.31-.86c.4,0,.92,0,1,0s.18,0,.18-.13v-.58h-3.46V222h3.46v-.25a6.21,6.21,0,0,0,.95-.5h-2.75v-.71h3.72l.21-.05.58.52a12.71,12.71,0,0,1-1.64,1h3.2Zm-6.61-1.61h-1v-1.75h.64l-.15-2.55a10.75,10.75,0,0,0,1.73-.48l.42.59a8.72,8.72,0,0,1-1.18.33l0,.25h1.09v.63h-1.05v.29h1.06v.44a4.75,4.75,0,0,0,.59-.33l-.47-.28.47-.4.54.29a2.76,2.76,0,0,0,.33-.36l.67.2a3.66,3.66,0,0,1-.46.51,4.28,4.28,0,0,1,.53.4l-.52.44c-.13-.13-.3-.26-.49-.42a8.17,8.17,0,0,1-.7.45h2.78l0-.3h-1v-.64h1.07l0-.29h-1.05v-.63h1.09l0-.28h-1.15v-.65h2.14c0,.9-.11,2-.18,2.79h.63v1.75h-1v-1H267.6Zm.61-1.75h1.39a4.67,4.67,0,0,0-.38-.4v.1h-1Zm2.66-1.58a5,5,0,0,0-.45-.36,4.33,4.33,0,0,1-.69.43,4,4,0,0,0-.53-.45,4.48,4.48,0,0,0,.65-.34c-.16-.09-.31-.18-.46-.25l.45-.4c.16.08.34.17.52.28a3.25,3.25,0,0,0,.31-.35l.67.2a3.15,3.15,0,0,1-.43.47l.45.34Z" fill="#002a5e"/><circle cx="186.63" cy="174.15" r="16.98" fill="#fff" stroke="#002a5e" stroke-miterlimit="10" stroke-width="1.11"/><path d="M180.44,169.15c-.07-.22-.21-.52-.35-.83v4h-.88V169a7.83,7.83,0,0,1-.58,1.52,5.49,5.49,0,0,0-.4-1,8.58,8.58,0,0,0,.93-2.68h-.7v-1h.75V164.3h.88v1.59h.58v1h-.58v.37c.18.26.67,1.06.79,1.26Zm5.41.59a4.82,4.82,0,0,1-.94,1.26.83.83,0,0,0,.53.3c.17,0,.27-.29.33-.89a2.59,2.59,0,0,0,.64.54c-.22,1.06-.56,1.36-.93,1.34a1.73,1.73,0,0,1-1.26-.73,6.4,6.4,0,0,1-1.35.71,3.9,3.9,0,0,0-.52-.65,5.55,5.55,0,0,0,1.47-.77,7.12,7.12,0,0,1-.44-1.37h-1.16c0,.06,0,.13,0,.19.35.28.84.68,1.09.92l-.62.6a7.84,7.84,0,0,0-.64-.62,3.46,3.46,0,0,1-1.16,1.72,3.16,3.16,0,0,0-.68-.58,2.75,2.75,0,0,0,1.16-2.23h-.5v-.78h2.39a26.61,26.61,0,0,1-.29-3,12.74,12.74,0,0,1-1.17,1.78l.48-.05c0-.14-.08-.28-.11-.39l.59-.15a6.89,6.89,0,0,1,.33,1.23l-.62.19c0-.09,0-.18,0-.29a5.11,5.11,0,0,0-1.35.26,5.56,5.56,0,0,0-.23-.69.83.83,0,0,0,.42-.39,5,5,0,0,0,.41-.61,2.48,2.48,0,0,0-.68.14,7.09,7.09,0,0,0-.24-.68.7.7,0,0,0,.31-.31,6.29,6.29,0,0,0,.56-1.37l.74.2a9.07,9.07,0,0,1-.74,1.42l.39,0c.08-.18.17-.36.24-.53l.71.23c0-.41,0-.85-.05-1.3h.83a29.43,29.43,0,0,0,.36,4.33h.79c-.14-.13-.31-.25-.44-.37l.38-.31a2.39,2.39,0,0,0-.61.15,5.66,5.66,0,0,0-.23-.7.93.93,0,0,0,.42-.39,4.91,4.91,0,0,0,.4-.61,2.35,2.35,0,0,0-.67.14c0-.15-.16-.48-.24-.68a.62.62,0,0,0,.29-.29,6.36,6.36,0,0,0,.51-1.3l.73.2a7.11,7.11,0,0,1-.67,1.32l.39,0c.08-.18.15-.37.22-.54l.74.24a10.64,10.64,0,0,1-1.15,1.82l.48-.06c0-.12-.08-.25-.12-.35l.58-.16a7.87,7.87,0,0,1,.39,1.24l-.6.2-.08-.34-.54.08a6.94,6.94,0,0,1,.65.53l-.22.2h.68v.78h-1Zm-1.6-.26a4.73,4.73,0,0,0,.23.75,3.77,3.77,0,0,0,.5-.75Z" fill="#002a5e"/><path d="M193.31,168.64a9.2,9.2,0,0,1,1.64,1.17l-.68.59-.23-.22v2.06h-.94V172h-1v.26h-.88v-2.75h2a12.12,12.12,0,0,0-1.55-.9H190a5.84,5.84,0,0,1-1,.9h1.64v2.7h-.93V172h-1v.26h-.88v-2.08l-.46.2a3.76,3.76,0,0,0-.53-.77,6.8,6.8,0,0,0,1.86-1H187v-.84h2.54a3.79,3.79,0,0,0,.44-.66h-2.39v-2.49h2.9V167l.57.11a5.38,5.38,0,0,1-.39.7h1.9a4.64,4.64,0,0,0-.77-.39l.27-.27h-.8v-2.49h2.92v2.49h-1.41a6.43,6.43,0,0,1,.73.43l-.22.23h1.46v.84Zm-3.73-3.19h-1.06v.89h1.06Zm.12,4.89h-1v.88h1Zm3.4.88v-.88h-1v.88Zm-.9-4.88h1.11v-.89H192.2Z" fill="#002a5e"/><path d="M186.22,182.37H183V183c0,.45-.11.67-.46.81a4.86,4.86,0,0,1-1.46.13,3.52,3.52,0,0,0-.31-.86c.4,0,.92,0,1,0s.18,0,.18-.13v-.58h-3.46v-.8h3.46v-.25a6.21,6.21,0,0,0,.95-.5h-2.75v-.71h3.72l.22-.05.57.52a12.71,12.71,0,0,1-1.64,1h3.21Zm-6.62-1.61h-1V179h.64l-.15-2.55a10.75,10.75,0,0,0,1.73-.48l.42.6a9,9,0,0,1-1.17.32v.25h1.09v.63h-1v.29h1.06v.44a5.76,5.76,0,0,0,.6-.33l-.48-.28.47-.4.54.29a2.76,2.76,0,0,0,.33-.36l.67.2a3.66,3.66,0,0,1-.46.51,4.28,4.28,0,0,1,.53.4l-.52.44c-.13-.13-.3-.26-.49-.42a6.86,6.86,0,0,1-.7.45h2.78l0-.3h-1v-.64h1.07l0-.29h-1v-.63h1.09l0-.28h-1.15v-.65h2.14c0,.9-.11,2-.18,2.79h.63v1.75h-1v-1H179.6Zm.61-1.75h1.39c-.09-.11-.26-.28-.38-.4v.1h-1Zm2.66-1.58a5,5,0,0,0-.45-.36,4.33,4.33,0,0,1-.69.43,4,4,0,0,0-.53-.45,4.48,4.48,0,0,0,.65-.34c-.16-.09-.31-.18-.46-.25l.45-.4c.16.08.34.17.52.28a3.25,3.25,0,0,0,.31-.35l.67.2a3.15,3.15,0,0,1-.43.47l.45.34Z" fill="#002a5e"/><path d="M189.33,179l-2,.85L187,179c.55-.17,1.39-.46,2.21-.74Zm2.13.77c-.1.22-.22.43-.33.62h2.71V184h-1.06v-.3h-3.67v.3h-1v-3.6h2l.18-.5h0a3.38,3.38,0,0,1-1.17.11,2.5,2.5,0,0,0-.25-.71h.72c.09,0,.13,0,.13-.12v-2H188a4.35,4.35,0,0,1,1,.64l-.51.65a4.56,4.56,0,0,0-1.08-.78l.43-.51h-.65v-.79h3.43v2.83a1.12,1.12,0,0,1-.07.45Zm1.32,1.39h-3.67v.5h3.67Zm0,1.76v-.5h-3.67v.5Zm1.7-3.75c0,.41-.09.61-.38.74a3.09,3.09,0,0,1-1.25.13,2.93,2.93,0,0,0-.27-.77c.33,0,.7,0,.81,0s.14,0,.14-.13v-2H191.9a5.61,5.61,0,0,1,.95.6l-.47.62.79-.27.16.72c-.74.29-1.53.58-2.16.81l-.34-.76,1.47-.47a5.39,5.39,0,0,0-1.08-.75l.41-.5h-.56v-.79h3.41Z" fill="#002a5e"/><circle cx="96.52" cy="166.65" r="16.98" fill="#fff" stroke="#002a5e" stroke-miterlimit="10" stroke-width="1.11"/><path d="M85.68,166.29a22.61,22.61,0,0,1-.63,3.55l-1-.41a16.64,16.64,0,0,0,.66-3.33Zm1.6-.69v4c0,.4.07.47.48.47H89c.43,0,.5-.27.56-1.61a3.18,3.18,0,0,0,1,.43c-.12,1.62-.39,2.13-1.44,2.13H87.64c-1.11,0-1.42-.34-1.42-1.42v-4Zm-.07-2.31a15.57,15.57,0,0,1,2.37,1.78l-.75.79A15.42,15.42,0,0,0,86.51,164Zm3.73,2.54A15.88,15.88,0,0,1,92,169l-1,.43a14.93,14.93,0,0,0-1-3.23Z" fill="#002a5e"/><path d="M95.49,169.44c-.94.33-2,.66-2.79.92l-.23-1,1-.28v-2h-.86v-.93h.86v-1.51h-.94v-1H95.4v1h-.92v1.51h.77V167h-.77v1.72c.28-.09.56-.17.84-.27Zm5.08.52v.93h-5.5V170h2.36v-.81H95.66v-.92h1.77v-.73H95.72v-4h4.47v4H98.47v.73h1.81v.92H98.47V170Zm-3.93-4.86h.88v-.72h-.88Zm0,1.53h.88v-.73h-.88Zm2.58-2.25h-.85v.72h.85Zm0,1.52h-.85v.73h.85Z" fill="#002a5e"/><path d="M108.94,169.59h-3.27v.61c0,.46-.1.68-.45.81a4.55,4.55,0,0,1-1.46.13,3.6,3.6,0,0,0-.31-.85h1c.14,0,.18,0,.18-.13v-.58H101.2v-.81h3.47v-.25a7,7,0,0,0,.94-.49h-2.74v-.71h3.72l.21-.06.58.53a12.26,12.26,0,0,1-1.64,1h3.2ZM102.33,168h-1v-1.76H102l-.15-2.54a13.31,13.31,0,0,0,1.73-.48l.41.59a8.57,8.57,0,0,1-1.17.33l0,.24h1.09V165h-1.06l0,.29h1v.43a4.86,4.86,0,0,0,.6-.32c-.16-.1-.32-.2-.48-.28l.47-.4a4.74,4.74,0,0,1,.54.29c.12-.12.24-.24.34-.36l.66.19a3.56,3.56,0,0,1-.45.52,2.93,2.93,0,0,1,.52.39l-.51.45a4.76,4.76,0,0,0-.5-.42,6.62,6.62,0,0,1-.69.44h2.77l0-.3h-1v-.63h1.07V165h-1v-.64h1.09l0-.28h-1.15v-.64h2.14c0,.9-.11,2-.18,2.78h.63V168h-1v-1h-5.49Zm.61-1.76h1.39c-.1-.11-.26-.27-.39-.39v.09h-1Zm2.66-1.57c-.12-.11-.28-.23-.45-.36a5.2,5.2,0,0,1-.69.43,3.44,3.44,0,0,0-.53-.46,3.62,3.62,0,0,0,.65-.33l-.46-.26.45-.39c.16.07.34.17.52.27a3.28,3.28,0,0,0,.31-.34l.67.2a3.74,3.74,0,0,1-.43.47c.17.12.32.24.44.34Z" fill="#002a5e"/><line x1="144.64" y1="82.48" x2="144.64" y2="236.08" fill="none" stroke="#002a5e" stroke-miterlimit="10" stroke-width="0.85" stroke-dasharray="9 6.37 4 4"/><circle cx="144.64" cy="230.39" r="44.13" fill="#f8a908" stroke="#002a5e" stroke-miterlimit="10"/><path d="M134.68,224.28c.51,0,.61-.22.69-1.34a3.91,3.91,0,0,0,1.22.52c-.16,1.6-.56,2.08-1.8,2.08h-2.22c-1.5,0-1.91-.41-1.91-1.86v-2.44l-.52.23-.53-1.22c-.05,3.11-.14,4.33-.43,4.73a1.1,1.1,0,0,1-.82.53,6.23,6.23,0,0,1-1.31.07,3.72,3.72,0,0,0-.37-1.35,7.35,7.35,0,0,0,.93.05.35.35,0,0,0,.36-.21c.16-.25.24-1.34.29-4.32h-1a11.52,11.52,0,0,1-1.65,5.82,4.19,4.19,0,0,0-1.08-1.06c1.26-1.75,1.37-4.54,1.41-7.5h-1.22V215.6H127a11.86,11.86,0,0,0-.52-1.64l1.35-.32c.21.52.47,1.22.6,1.67l-1,.29h2.53v1.34a8.91,8.91,0,0,0,1.4-3.29l1.48.29a13.68,13.68,0,0,1-.39,1.33h4v1.38H131.8a8.62,8.62,0,0,1-.73,1.24H132v1.22l.69-.31V217H134v1.24l1-.44.21-.15,1,.27-.07.2a37.29,37.29,0,0,1-.3,4.41l-1.07-.2c.06-.76.1-1.9.11-3l-.83.39v3.57h-1.26v-3l-.69.31v3.08c0,.52.09.6.73.6Zm-4-4.53v-1.34l-.11.13a9,9,0,0,0-1.14-1.07,6.1,6.1,0,0,0,.41-.46h-2.44c0,.46,0,.9,0,1.36h2.3V219l0,1.27Z" fill="#002a5e"/><path d="M150.48,225.17H146v.42h-1.38v-4.94l-.13.13a8,8,0,0,0-1.12-.84,7.14,7.14,0,0,0,1.93-2.82h-3.64l.68.28a13.12,13.12,0,0,1-1.43,1.78l.93,0a13.79,13.79,0,0,0,.83-1.15l1.13.65a17.42,17.42,0,0,1-2.5,2.6l1.47-.14c-.1-.23-.2-.43-.29-.64l1-.35a8.15,8.15,0,0,1,.83,2.1l-1.07.4c0-.17-.08-.36-.13-.55a18.55,18.55,0,0,0-3.67.52,6.28,6.28,0,0,0-.46-1,2.37,2.37,0,0,0,1-.62c.16-.14.48-.42.86-.8a6.59,6.59,0,0,0-1.57.23,5.1,5.1,0,0,0-.48-1,1.33,1.33,0,0,0,.74-.48,9.28,9.28,0,0,0,1.35-1.86h-1.48v-3h10.35v3h-4.29l1.15.28a10.18,10.18,0,0,1-.51,1.12h1.23a7.67,7.67,0,0,0-.42-1l1.17-.34a6.94,6.94,0,0,1,.59,1.31h1.59v1.2h-1.68v.68H150v1.08h-1.33v.69H150v1.09h-1.33v.7h1.84ZM140.62,223a9,9,0,0,1-.61,2.28c-.28-.09-.84-.2-1.16-.27a6.21,6.21,0,0,0,.6-2.17Zm1.39-.18a12.52,12.52,0,0,1,.39,2.08l-1.18.21a10.41,10.41,0,0,0-.32-2.1Zm.4-7.68h-1.49V216h1.49Zm1.07,7.42a9.48,9.48,0,0,1,.79,1.93l-1.11.27a8.89,8.89,0,0,0-.73-1.95Zm.32-6.55h1.53v-.87H143.8Zm3.52,3.68H146v.68h1.3Zm0,1.76H146v.69h1.3ZM146,224h1.3v-.7H146Zm.69-7.92h1.57v-.87h-1.57Z" fill="#002a5e"/><path d="M156.68,217a19.93,19.93,0,0,1-1,1.77h0v6.85h-1.42v-4.86a9.7,9.7,0,0,1-.92,1,13.09,13.09,0,0,0-.82-1.41,13.9,13.9,0,0,0,2.78-3.88Zm-.23-2.73a20.89,20.89,0,0,1-3.12,3.55,12.82,12.82,0,0,0-.7-1.25,12.65,12.65,0,0,0,2.47-2.85Zm-.65,10.23a7.41,7.41,0,0,0,1-2.36l1.14.44a9.55,9.55,0,0,1-1,2.57Zm8.8-2.87h-3.86c.27.44.56,1,.73,1.35l-1.18.42c-.15-.4-.5-1.06-.76-1.56l.65-.21h-3.8v-1.22h8.22Zm-5-5.17c0-.2,0-.42.07-.65h-3.11v-1.2h3.22c0-.34,0-.65.05-.94l1.6.05-.12.89h3.26v1.2h-3.43c0,.23-.08.45-.1.65h3.15v3.38H157v-3.38Zm1.6,7.86c.36,0,.44-.14.48-1.06a4,4,0,0,0,1.16.45c-.14,1.39-.5,1.73-1.48,1.73h-1.58c-1.32,0-1.64-.36-1.64-1.47v-1.55h1.33v1.54c0,.32.08.36.5.36Zm-2.13-6.79h-.86v1.24h.86Zm1.93,0h-.89v1.24H161Zm1,1.24h.93v-1.24H162Zm1.37,3.29a9.39,9.39,0,0,1,1.35,2.41l-1.19.54a8,8,0,0,0-1.27-2.45Z" fill="#002a5e"/><path d="M128.67,238.35a15.5,15.5,0,0,1-1.19,4.71,5.55,5.55,0,0,0,2.2,2.32,5,5,0,0,0-1,1.17,6.28,6.28,0,0,1-2-2.2,7.5,7.5,0,0,1-2.76,2.27,5.61,5.61,0,0,0-.42-.74l-.38.34a11.59,11.59,0,0,0-1.53-.74,10.73,10.73,0,0,1-3.52,1.1,4.26,4.26,0,0,0-.59-1,12,12,0,0,0,2.66-.67c-.58-.2-1.19-.38-1.76-.52a10.19,10.19,0,0,0,.71-1h-1.36v-1h2q.17-.28.3-.57H118.3v-2.26h2.26v-.37h-2v-1.41h-.88v-1.07h.88v-1.31h2v-.77h1.15v.77h2.19v1.31h.66v1.07h-.66v1.41h-2.19v.37h2.37v.51a20.59,20.59,0,0,0,1.54-5.44l1.25.23c-.11.71-.27,1.43-.44,2.13h3.1v1.33ZM119.55,241h1v-.56h-1Zm.09-4.63v.45h.92v-.45Zm.92,1.89v-.52h-.92v.52Zm-.07,5.18c-.09.15-.19.29-.28.43.41.12.82.23,1.21.37a2.11,2.11,0,0,0,.67-.8Zm2.86,0a2.73,2.73,0,0,1-.69,1.26l1.16.51a5.64,5.64,0,0,0,2.27-2.19,18.72,18.72,0,0,1-.75-2.63,9.26,9.26,0,0,1-.52,1.09,8.39,8.39,0,0,0-.74-.76v1.13H121.4c-.09.19-.19.38-.29.57h1.13v-.37h1.19v.37h1.06v1Zm-1.64-7.07v.45h1v-.45Zm1,1.89v-.52h-1v.52Zm-1,2.18V241h1v-.56Zm4.36-2.09a17.36,17.36,0,0,0,.73,3.08,16,16,0,0,0,.57-3.08Z" fill="#002a5e"/><path d="M134.38,241.71V245c0,.7-.11,1.07-.51,1.3a3.12,3.12,0,0,1-1.72.28,5.51,5.51,0,0,0-.38-1.38c.46,0,.89,0,1,0s.21,0,.21-.23v-2.89c-.42.13-.81.23-1.2.34L131.5,241c.45-.1,1-.23,1.53-.38v-2.14h-1.3v-1.4H133v-2.4h1.35v2.4h1v1.4h-1v1.77l1-.27.2,1.37Zm2.59-1c0,1.8-.17,4.3-1.3,5.9a5.07,5.07,0,0,0-1.11-.76c1-1.45,1.11-3.53,1.11-5.14v-3.79h2.77V234.7h1.46v.63h2.9v1h-2.9v.51h2.41l.2,0,.93.18a15,15,0,0,1-.62,2.06l-1.14-.24a7.79,7.79,0,0,0,.26-.9h-2.29v.47l1.72-.16.09.82-1.81.17c0,.24.08.34.37.34h1.44a6,6,0,0,0,1.08-.08c0,.32.05.6.08.9a5.28,5.28,0,0,1-1.07.07h-1.81c-.89,0-1.2-.29-1.29-.88l-1.2.13-.11-1.08,1.29-.12V238H137Zm6.52,1.93a12.8,12.8,0,0,1-1.23.61,3.85,3.85,0,0,0,1.45,2.07,4.32,4.32,0,0,0-.83.93,4.84,4.84,0,0,1-1.51-2.63l-.44.15a2.44,2.44,0,0,1-.29,2.45,1.25,1.25,0,0,1-1,.42H139a2.42,2.42,0,0,0-.29-1.06,5,5,0,0,0,.72.05.46.46,0,0,0,.44-.19,1.13,1.13,0,0,0,.18-.75,12.9,12.9,0,0,1-3,1.52,5,5,0,0,0-.55-.78,9.67,9.67,0,0,0,3.34-1.59c0-.11-.09-.18-.14-.29a11.84,11.84,0,0,1-2.41,1.14,2.76,2.76,0,0,0-.5-.74,8.51,8.51,0,0,0,2.5-1c-.08-.06-.13-.14-.2-.2a13.16,13.16,0,0,1-1.66.58,4.48,4.48,0,0,0-.41-.74,10.94,10.94,0,0,0,2.33-.83h-2.1v-1h6.19v1h-2.66a5.32,5.32,0,0,1-.8.54,3,3,0,0,1,.6.69,21.66,21.66,0,0,0,2.15-1.05Z" fill="#002a5e"/><path d="M147.93,240.69a17.43,17.43,0,0,0-2.32-1.32l.77-1.13a13.09,13.09,0,0,1,2.37,1.18Zm-2,4.66a33.59,33.59,0,0,0,2.14-3.91l1.18,1c-.58,1.31-1.29,2.7-2,3.92ZM147,234.84a17,17,0,0,1,2.26,1.23l-.88,1.23A16.61,16.61,0,0,0,146.2,236Zm10.14,10c0,.77-.13,1.19-.59,1.46a4.46,4.46,0,0,1-2.08.29,5.43,5.43,0,0,0-.44-1.53c.57,0,1.2,0,1.4,0s.25-.07.25-.27v-8.33h-5v10.09h-1.41V235.12h7.87Zm-2-6.23h-4v-1.25h4Zm-2.59,5.15v.74h-1.17v-5.05H155v4.31Zm0-3.06v1.8h1.16v-1.8Z" fill="#002a5e"/><path d="M169.68,245c.43,0,.51-.22.58-1.7a4.68,4.68,0,0,0,1.39.6c-.17,2-.57,2.54-1.83,2.54h-1.68c-1.52,0-1.88-.46-1.88-1.89v-2h-1.54c-.27,2-1,3.37-4.17,4.08a4.85,4.85,0,0,0-.84-1.35c2.61-.49,3.16-1.34,3.38-2.73h-1.56v-7.49h8.34v7.49h-2.08v2c0,.4.08.46.56.46ZM163,237.18h5.33v-.79H163Zm0,2h5.33v-.79H163Zm0,2h5.33v-.79H163Z" fill="#002a5e"/><circle cx="146.39" cy="301.57" r="20.57" fill="#7d3787" stroke="#002a5e" stroke-miterlimit="10" stroke-width="0.84"/><path d="M145.28,291.5v7.75h-.79v-.32h-5.81v.32h-.77V291.5Zm-.79,6.75v-6.06h-5.81v6.06Zm-.33-4v.47H139v-.47h2.18v-.34h-1.38v-1.38h3.49v1.38H141.9v.34Zm-4.61.8h4.06v2.79h-4.06Zm.63,2.31h2.76v-1.83h-2.76Zm.32-3.9h2.12V293H140.5Zm.15,2.38h1.82V297h-1.82Zm.48.8H142v-.41h-.85Z" fill="#fff"/><path d="M149,291.45a13.61,13.61,0,0,1-.86,1.91v5.88h-.77v-4.61c-.22.29-.43.56-.66.81a4,4,0,0,0-.45-.83,9.6,9.6,0,0,0,2-3.4Zm5.05,4.17c-.28.17-.6.34-.92.5a3.82,3.82,0,0,0,1.39,2,3.24,3.24,0,0,0-.51.6,4.43,4.43,0,0,1-1.47-2.32c-.1,0-.21.1-.31.13a2.5,2.5,0,0,1-.19,2.36,1,1,0,0,1-.82.33h-.56a1.67,1.67,0,0,0-.19-.7,4.68,4.68,0,0,0,.58,0,.45.45,0,0,0,.43-.19,1.48,1.48,0,0,0,.2-1.07,8.65,8.65,0,0,1-2.72,1.57,2.55,2.55,0,0,0-.47-.57,7.49,7.49,0,0,0,3-1.68,2.48,2.48,0,0,0-.17-.38,8.51,8.51,0,0,1-2.36,1.33,3,3,0,0,0-.44-.52,7.19,7.19,0,0,0,2.5-1.27,2.45,2.45,0,0,0-.31-.34,8.48,8.48,0,0,1-1.83,1,2.38,2.38,0,0,0-.44-.52,8.32,8.32,0,0,0,2-.9h-1.28v-1.3l-.39.32a2.39,2.39,0,0,0-.51-.54,6.21,6.21,0,0,0,2-2.26l.76.14a3.77,3.77,0,0,1-.27.47h1.47l.16,0,.48.35a10.16,10.16,0,0,1-.67.91h1.75v2h-2.59l-.09.08a3.16,3.16,0,0,1,.78.94,10.9,10.9,0,0,0,1.48-.89Zm-3.75-3.19c-.15.19-.31.39-.49.59h1.49a5.32,5.32,0,0,0,.44-.59Zm-.42,1.94h1.24v-.74h-1.24Zm3.27-.74h-1.29v.74h1.29Z" fill="#fff"/><path d="M139.84,306.92a7.8,7.8,0,0,1-.45,1.86c.54.94,1.59,1.08,3.15,1.08.92,0,2.26,0,3.19-.13a2.85,2.85,0,0,0-.26.76c-.86.05-2,.08-2.94.08-1.7,0-2.76-.18-3.45-1.13a3.89,3.89,0,0,1-1.07,1.3,2.66,2.66,0,0,0-.54-.57,4.18,4.18,0,0,0,1.56-2.73h-.74a1,1,0,0,0-.53.14,3.64,3.64,0,0,0-.27-.7.91.91,0,0,0,.43-.27,12.7,12.7,0,0,0,.94-1.29h-1.24v-.66h1.74l.11-.05.52.23c-.34.5-.93,1.36-1.39,2h.76l.13,0Zm-.91-2.52a10.09,10.09,0,0,0-1-1.41l.62-.36a10.43,10.43,0,0,1,1.07,1.34Zm1.75.13H140v-1.61h5.28v1.61h-.62v.29h-1.6v.44h1.85v2.53h-1.85v.46h2.33v.63h-2.33v.65h-.79v-.65h-2.2v-.63h2.2v-.46h-1.79v-2.53h1.79v-.44h-1.58Zm.06-1v.7h1.52v-.39h.79v.39h1.44v-.7Zm.4,2.73h1.12v-.47h-1.12Zm1.12,1v-.49h-1.12v.49Zm.79-1.46v.47h1.15v-.47Zm1.15,1h-1.15v.49h1.15Z" fill="#fff"/><path d="M154.36,303.82H153a4.3,4.3,0,0,1,.48.59l-.5.22h.44v3.3h-1.05v.67h1.94v.66h-1.94v1.44h-.84v-1.44h-2.18c-.22.55-.78,1.08-2.07,1.48a3.07,3.07,0,0,0-.51-.6,2.86,2.86,0,0,0,1.66-.88H146.5v-.66h2.16v-.67h-1.13v-3.3h1.27a3,3,0,0,0-.34-.59l.62-.21h-1.22a7,7,0,0,1-1,1.22,6.07,6.07,0,0,0-.52-.64,5.22,5.22,0,0,0,1.37-1.84l.75.24c-.06.14-.14.27-.21.41h2.24v.61h-1.32a3.68,3.68,0,0,1,.37.61l-.58.19h1.84a5.72,5.72,0,0,0-.64-.34,3.92,3.92,0,0,0,1.24-1.72l.78.19c-.06.16-.13.31-.2.46h2.39Zm-1.79,1.33h-4.21v.42h4.21Zm0,.9h-4.21v.43h4.21Zm0,.93h-4.21v.44h4.21Zm-1,.95h-2.06v.67h2.06Zm1.25-3.3a3.24,3.24,0,0,0-.48-.6l.45-.21H151.6a4.59,4.59,0,0,1-.67.81Z" fill="#fff"/><circle cx="212.44" cy="226.21" r="20.57" fill="#7d3787" stroke="#002a5e" stroke-miterlimit="10" stroke-width="0.84"/><path d="M207.05,220.07c-.25-.21-.82-.62-1.25-.91a3.72,3.72,0,0,1-1.69,1.33,2.23,2.23,0,0,0-.52-.55,2.75,2.75,0,0,0,1.69-1.4h-1.6v-.65h.6a5.06,5.06,0,0,0-.62-.37,4,4,0,0,0,1-1.74l.73.15c-.06.21-.13.39-.2.58h2.28v.66h-1.21v.45a2.44,2.44,0,0,1,0,.27h1.44v.65h-1.56l0,.08c.36.18,1.33.75,1.57.91Zm-1.62-2.18a2.62,2.62,0,0,0,0-.27v-.45h-.61a3.68,3.68,0,0,1-.51.72Zm-.52,2.38h5.52v3.61h-.84v-.29h-3.87v.3h-.81Zm.81.65v.68h3.87v-.68Zm3.87,2v-.71h-3.87v.71Zm1.58-6.42v3.14H208v-3.14Zm-.81.72h-1.61v1.7h1.61Z" fill="#fff"/><path d="M214.19,222a5.57,5.57,0,0,1-1.2,1.88,7.79,7.79,0,0,0-.65-.48,3.88,3.88,0,0,0,1.06-1.6Zm1.78-.34h-3.14v-5.54H216Zm-.8-4.87h-1.56v1h1.56Zm0,1.61h-1.56v1h1.56Zm0,1.6h-1.56v1h1.56Zm.12,1.79a7.08,7.08,0,0,1,1,1.4l-.7.37a6.91,6.91,0,0,0-.92-1.47Zm5.21-3.17h-1.05v4.28c0,.43-.1.67-.37.81a3.38,3.38,0,0,1-1.34.16,2.58,2.58,0,0,0-.29-.8c.46,0,.88,0,1,0s.19,0,.19-.18v-3.24a8.45,8.45,0,0,1-2.08,2.82,3.53,3.53,0,0,0-.57-.59,7.83,7.83,0,0,0,2.35-3.27h-2.12v-.77h2.42v-2h.81v2h1.05Z" fill="#fff"/><path d="M211.61,233.44h-2v1.08c0,.39-.08.6-.39.72a5.41,5.41,0,0,1-1.45.1,2.67,2.67,0,0,0-.25-.7c.48,0,1,0,1.12,0s.17-.05.17-.15v-1.06h-2.92a7.08,7.08,0,0,1,1.2,1l-.6.53a7.33,7.33,0,0,0-1.39-1.15l.4-.34h-1.79v-.66h5.1v-.45c-1.76,0-3.47.08-4.72.1l0-.62,3.2,0v-.41H204.6v-2.44h2.62v-.41h-3.3v-.64h3.3v-.61h.8v.61h3.25v.64H208v.41h2.71v2.44h-.81a8.17,8.17,0,0,1,1.36.79l-.48.44-.46-.32h-.77v.48h2Zm-6.24-3.53h1.85v-.44h-1.85Zm1.85,1v-.46h-1.85v.46Zm.8-1.4v.44h1.91v-.44Zm1.91.94H208v.46h1.91ZM208,231.79h1.42a4.16,4.16,0,0,0-.54-.23l.2-.17H208Z" fill="#fff"/><path d="M215.06,229.88h1.59v.75h-1.59v.58c.43.32,1.36,1.11,1.59,1.32l-.46.7c-.25-.28-.72-.77-1.13-1.16v3.26h-.8v-3.49a9,9,0,0,1-1.53,2.35,4,4,0,0,0-.43-.79,8.72,8.72,0,0,0,1.79-2.77H212.5v-.75h1.76v-1.32c-.54.11-1.08.2-1.6.26a2.48,2.48,0,0,0-.24-.64,16.18,16.18,0,0,0,3.58-.87l.59.63a13.42,13.42,0,0,1-1.53.46Zm2.91,3.28h-.8v-4.84h.8Zm2.13-5.72v6.87c0,.51-.13.75-.44.89a5.4,5.4,0,0,1-1.65.15,3.49,3.49,0,0,0-.29-.84c.6,0,1.15,0,1.33,0s.23-.05.23-.21v-6.87Z" fill="#fff"/></g></svg>