<svg xmlns="http://www.w3.org/2000/svg" viewBox="0 0 340 240">
  <g>
    <g>
      <path d="M68,62.13H64V64.9H63V62.13H59v-.94h4V59.75H59.64v-.93H63V55.6h1v3.22h3.49v.93H64v1.44H68Zm-7-3.68a9.9,9.9,0,0,0-1.1-2.26l.86-.33a9.46,9.46,0,0,1,1.16,2.21Zm6.2-2.31a21.49,21.49,0,0,1-1.31,2.27L65,58.1a12.84,12.84,0,0,0,1.16-2.28Z" fill="#002a5e"/>
      <path d="M76,62.2h2.13v.74H76v1c0,.46-.09.68-.46.81a5,5,0,0,1-1.65.14,2.94,2.94,0,0,0-.31-.82c.57,0,1.14,0,1.3,0s.21,0,.21-.17v-1H71.76A7.3,7.3,0,0,1,73,64.06l-.7.58A6.72,6.72,0,0,0,71,63.37l.53-.43H69.15V62.2h5.93v-.47H76Zm-4-3.37a6.38,6.38,0,0,1-.51,1.22c.51.8,1.46.89,3,.89,1.16,0,2.76,0,3.88-.15a3.09,3.09,0,0,0-.27.81c-1,0-2.4.09-3.61.09-1.79,0-2.77-.17-3.4-1.09a4.92,4.92,0,0,1-1.42,1.29,2.49,2.49,0,0,0-.48-.66,4.17,4.17,0,0,0,1.77-1.87h-.79a1,1,0,0,0-.6.16h0a3.61,3.61,0,0,0-.29-.72,1.24,1.24,0,0,0,.48-.28,10.32,10.32,0,0,0,.78-.8H69.34V57h1.82l.22-.08.38.21v-.61h1.57a6.85,6.85,0,0,0-.39-.71l.75-.22a4.16,4.16,0,0,1,.52.93h1.38a7.19,7.19,0,0,0,.48-.89l.89.16c-.16.27-.32.5-.48.73h1.57v.66H75.24c-.08.16-.14.3-.22.43h2.26v3H72.43v-3h1.76c0-.14.11-.28.16-.43H71.87l0,0c-.34.38-.88,1-1.35,1.44h.93l.13,0Zm-1.52-2a11.39,11.39,0,0,0-.59-1l.78-.18a6.82,6.82,0,0,1,.61,1Zm6,1.2H73.22v.39h3.23Zm0,.84H73.22v.39h3.23Zm0,.84H73.22v.41h3.23Z" fill="#002a5e"/>
      <path d="M82.72,60.27V64c0,.38-.07.57-.31.7a2.81,2.81,0,0,1-1.15.14,2.85,2.85,0,0,0-.25-.71c.36,0,.68,0,.79,0s.13,0,.13-.14V62.87l-1.2.74L80.45,63A4.44,4.44,0,0,1,79.83,65a2.43,2.43,0,0,0-.66-.48,4.7,4.7,0,0,0,.57-2.61v-1.6h-.5V58.78h.42V56h3.09v2.83h.41v1.49Zm-.27-.83H79.94V60h2.51Zm-2-.66h.52V57.19h1v-.54H80.4Zm.11,3.1A10,10,0,0,1,80.46,63c.41-.16.92-.43,1.47-.7V60.63H80.51v.7l.38-.4a7,7,0,0,1,1,.78l-.43.49a7.17,7.17,0,0,0-1-.82ZM82,58.78v-1h-.54v1ZM88.44,64v.71H83.16V64H84.5c-.09-.27-.2-.58-.31-.85l.68-.2H83.72V61.06H87.9V63H86.71l.77.21c-.17.29-.32.58-.47.84Zm-.1-3.38H83.28v-.7h5.07Zm-.23-1.14H83.46V56.38H84.7v-.75h.74v.75h.61v-.75h.75v.75h1.31Zm-3.93-1.88h.67V57h-.67Zm0,1.23h.67v-.62h-.67Zm.36,3.52H87v-.71H84.54Zm.36.6a10.62,10.62,0,0,1,.43,1h.89a8.36,8.36,0,0,0,.41-1Zm1.18-5.35V57h-.64v.61Zm-.64.61v.62h.64v-.62ZM87.37,57h-.69v.61h.69Zm0,1.22h-.69v.62h.69Z" fill="#002a5e"/>
    </g>
    <g>
      <path d="M57.21,35.27a7.17,7.17,0,0,0,3.89,4.62,3.36,3.36,0,0,0-.7.88,7.77,7.77,0,0,1-3.92-4.67,7,7,0,0,1-3.91,4.67,3.13,3.13,0,0,0-.72-.79,6.27,6.27,0,0,0,3.8-4.71H52.06v-1h3.77A25.6,25.6,0,0,0,56,31.5h1a25.75,25.75,0,0,1-.14,2.79h4.08v1Z" fill="#002a5e"/>
      <path d="M70.52,34.25a11.39,11.39,0,0,1-1,3.81,4.38,4.38,0,0,0,1.81,2,3.31,3.31,0,0,0-.59.74,5,5,0,0,1-1.7-1.88,6,6,0,0,1-2.25,1.94,4,4,0,0,0-.33-.55l-.27.25A9.33,9.33,0,0,0,65,39.91a9,9,0,0,1-2.67.87,2.25,2.25,0,0,0-.38-.62,8.91,8.91,0,0,0,2.17-.61c-.49-.17-1-.32-1.42-.44.18-.24.38-.53.58-.83H62v-.67h1.59l.3-.56H62.48V35.36h1.83V35H62.67V33.86H62v-.7h.69v-1h1.64v-.63H65v.63h1.74v1h.56v.7h-.56V35H65v.39H67v.49a14.53,14.53,0,0,0,1.34-4.36l.79.15c-.11.6-.24,1.2-.39,1.78h2.55v.83Zm-7.26,2.23h1.05v-.55H63.26Zm.14-3.74v.47h.91v-.47Zm.91,1.61v-.54H63.4v.54Zm-.22,3.93c-.1.17-.21.33-.31.48.35.1.7.23,1,.35a1.79,1.79,0,0,0,.66-.83Zm2.19,0a2.34,2.34,0,0,1-.66,1.14,9,9,0,0,1,1.07.51,5,5,0,0,0,2-1.91,13.27,13.27,0,0,1-.69-2.4,9.51,9.51,0,0,1-.49,1,4,4,0,0,0-.51-.49v.91h-2.2c-.09.18-.2.37-.3.56h1.12v-.35h.75v.35h.93v.67ZM65,32.74v.47h1v-.47Zm1,1.61v-.54H65v.54Zm-1,1.58v.55h1.1v-.55Zm3.43-1.68,0,.09a16,16,0,0,0,.67,2.73,11.24,11.24,0,0,0,.61-2.82Z" fill="#002a5e"/>
      <path d="M74.11,36.91v2.87c0,.45-.09.7-.35.85a3.09,3.09,0,0,1-1.31.17,3.43,3.43,0,0,0-.25-.86c.4,0,.78,0,.89,0s.18,0,.18-.17V37.16l-1.08.35L72,36.59c.36-.08.82-.21,1.3-.35v-1.9H72.13v-.88h1.14v-2h.84v2H75v.88h-.87V36l.89-.28.14.85Zm2-.76A8.3,8.3,0,0,1,75,40.79a3.17,3.17,0,0,0-.69-.48,7.3,7.3,0,0,0,.94-4.17v-2.9h2.24V31.51h.9v.56h2.34v.67H78.43v.5h2.15l.13,0,.59.13a12.51,12.51,0,0,1-.5,1.5l-.71-.16a6.19,6.19,0,0,0,.23-.75h-2v.48l1.51-.14.06.54L78.27,35v0c0,.24,0,.33.27.33h1.29a4.54,4.54,0,0,0,.77-.06c0,.21,0,.4.06.58a2.89,2.89,0,0,1-.78.06H78.39c-.68,0-.86-.25-.89-.74l-1.13.1-.08-.69,1.2-.11v-.55H76.11Zm5.18,1.4a11.08,11.08,0,0,1-1.09.52,3.17,3.17,0,0,0,1.31,1.85,2.53,2.53,0,0,0-.54.59,3.83,3.83,0,0,1-1.33-2.19l-.43.16a2,2,0,0,1-.19,2,.93.93,0,0,1-.76.3h-.52a1.47,1.47,0,0,0-.2-.68l.59,0a.39.39,0,0,0,.36-.14,1.16,1.16,0,0,0,.16-.88,9.49,9.49,0,0,1-2.43,1.35,4.06,4.06,0,0,0-.36-.52,7.43,7.43,0,0,0,2.66-1.4l-.14-.3a9,9,0,0,1-2,1,1.92,1.92,0,0,0-.33-.49,6.57,6.57,0,0,0,2.09-.89l-.24-.24a7.71,7.71,0,0,1-1.4.53,4,4,0,0,0-.28-.48,8.26,8.26,0,0,0,2-.8H76.34v-.64h4.92v.64H79.12a7.32,7.32,0,0,1-.68.46A3.06,3.06,0,0,1,79,38c.59-.26,1.31-.63,1.76-.89Z" fill="#002a5e"/>
      <path d="M88.77,31.66a6.4,6.4,0,0,0,2.88,3.7,3.85,3.85,0,0,0-.68.86,6.49,6.49,0,0,1-.93-.73c0,.06,0,.13,0,.17-.13,3.08-.26,4.26-.61,4.65a1.11,1.11,0,0,1-.83.42,11.69,11.69,0,0,1-1.58,0,2.11,2.11,0,0,0-.3-.95c.61.06,1.19.07,1.43.07a.56.56,0,0,0,.43-.14c.23-.25.36-1.2.46-3.56H86.7c-.26,2-.92,3.75-3.51,4.7a3.11,3.11,0,0,0-.61-.84,4.15,4.15,0,0,0,3.1-3.86H83.77v-.7a6.14,6.14,0,0,1-.83.79,6,6,0,0,0-.8-.69,7.29,7.29,0,0,0,2.57-3.72l1,.24A10.18,10.18,0,0,1,84,35.24h5.83a8.43,8.43,0,0,1-1.72-2.71h-1.7v-.87Z" fill="#002a5e"/>
      <path d="M95.69,37.53a14.43,14.43,0,0,0-.8-1.39v4.65H94V36.38A9.62,9.62,0,0,1,92.74,39a4.92,4.92,0,0,0-.47-.88,10,10,0,0,0,1.61-3.61H92.54v-.89H94V31.49h.9v2.12h1.45v.89H94.89V35c.37.46,1.18,1.54,1.37,1.83Zm5.94-1.74h-1.39v5h-.93v-5H97.7a9.37,9.37,0,0,1-1.12,5,3.2,3.2,0,0,0-.78-.48,8.34,8.34,0,0,0,1-4.66v-3a16.4,16.4,0,0,0,3.46-1l.8.74a18.13,18.13,0,0,1-3.37.92V34.9h3.93Z" fill="#002a5e"/>
    </g>
    <g>
      <path d="M296.15,150a17,17,0,0,1-.67,1.93V159h-.83v-5.4a6.69,6.69,0,0,1-.63.94,5,5,0,0,0-.44-1,10.59,10.59,0,0,0,1.71-3.82Zm2.23,3.47a12.27,12.27,0,0,1-.75,3.55,4.36,4.36,0,0,0,3.29,1.07H303a2.55,2.55,0,0,0-.3.81h-1.8a4.9,4.9,0,0,1-3.63-1.13,4.37,4.37,0,0,1-1.11,1.28,2.88,2.88,0,0,0-.63-.58,3.65,3.65,0,0,0,1.19-1.37,6.82,6.82,0,0,1-.84-1.93l.67-.23a5.51,5.51,0,0,0,.52,1.33,9.3,9.3,0,0,0,.46-2.15h-1c-.15.09-.3.19-.3.27a5.13,5.13,0,0,0-.38-.67,1.57,1.57,0,0,0,.64-.63,14.67,14.67,0,0,0,.87-1.84h-1.2v-.81h1.51l.27-.11.54.37a18.08,18.08,0,0,1-1.28,2.68h.72Zm1.51-2.25H298.7v-.68h1.19v-.75h.78v.75h1.63v1.33H303v.71h-.68V154h-1.63v.63h1.74v.73h-1.74V156h2v.74h-2v1.1h-.78v-1.1h-1.55V156h1.55v-.65h-1.31v-.73h1.31V154H298.7v-.69h1.19v-.69h-1.62v-.71h1.62Zm.78,0v.65h.9v-.65Zm.9,1.36h-.9v.69h.9Z" fill="#002a5e"/>
      <path d="M309.56,156.4l.59.23a10.91,10.91,0,0,0,1.63-1.2l.7.55c-.49.35-1,.7-1.53,1,.76.32,1.49.67,2,.93l-.43.67a29.31,29.31,0,0,0-2.93-1.41v.89c0,.52-.13.73-.48.85a6.06,6.06,0,0,1-1.77.14,2.7,2.7,0,0,0-.29-.79c.57,0,1.18,0,1.35,0s.24-.06.24-.22v-.89c-1,.46-2.05.92-2.87,1.28l-.36-.77c.8-.29,2-.77,3.23-1.25v-1h-2.18a13.67,13.67,0,0,1,1.43.94l-.54.59a10.94,10.94,0,0,0-1.45-1l.48-.49h-.28v-.67h2.54V154h-2.9v-.69h2.9v-.66h-2.45V152h2.45v-.62h-3.12v2.11a12.17,12.17,0,0,1-1,5.5,3.74,3.74,0,0,0-.76-.51,10.86,10.86,0,0,0,.87-5v-2.94h3.9l-.39-.69.93-.24a8.09,8.09,0,0,1,.55.93H313v.83h-3.41V152h2.58v1.25h.94v.81h-.94v1.31h-2.58Zm0-3.06h1.68v-.66h-1.68Zm0,1.38h1.68V154h-1.68Z" fill="#002a5e"/>
      <path d="M317.29,155.93c-.15-.3-.49-.87-.79-1.33V159h-.91v-4.1a10.33,10.33,0,0,1-1.3,2.36,6,6,0,0,0-.46-.87,9.86,9.86,0,0,0,1.62-3H314v-.88h1.63V151.2c-.44.08-.88.14-1.28.2a2.53,2.53,0,0,0-.27-.72,15.29,15.29,0,0,0,3.23-.83l.53.77a8.33,8.33,0,0,1-1.3.39v1.55h1.42v.88H316.5v.14c.3.32,1.16,1.35,1.35,1.61Zm4.75.5V159h-.93v-2.43l-3.19.54-.15-.9,3.34-.56v-5.94H322v5.79l1.1-.18.14.88Zm-2.21-1.37a8.85,8.85,0,0,0-1.69-1.51l.6-.54a10,10,0,0,1,1.73,1.43Zm.25-2.66a7.76,7.76,0,0,0-1.57-1.47l.62-.54a8.16,8.16,0,0,1,1.61,1.41Z" fill="#002a5e"/>
      <path d="M327.48,155l-1.15.34V158c0,.49-.1.74-.4.88a3.49,3.49,0,0,1-1.43.16,3.89,3.89,0,0,0-.29-.85c.45,0,.87,0,1,0s.21,0,.21-.19v-2.4l-1.12.3-.24-.9,1.36-.32v-2h-1.25v-.87h1.25v-2h.92v2h1.06v.87h-1.06v1.78l1-.27Zm5.47-1.23a7.45,7.45,0,0,1-2,3.35,7,7,0,0,0,2.49,1.17,3.94,3.94,0,0,0-.61.8,7.21,7.21,0,0,1-2.61-1.36,8.74,8.74,0,0,1-2.78,1.34,4.3,4.3,0,0,0-.5-.85,7.71,7.71,0,0,0,2.6-1.15A8.23,8.23,0,0,1,328,154.4l.13,0h-.4v-.86h2.09v-1.39h-2.27v-.86h2.27v-1.52h.93v1.52h2.34v.86h-2.34v1.39h1.44l.16,0Zm-4,.64a6.56,6.56,0,0,0,1.36,2.09,5.86,5.86,0,0,0,1.48-2.09Z" fill="#002a5e"/>
    </g>
    <g>
      <path d="M294.13,182.07h-.89v-2.21h3.82v-.54h-3.39v-.66h7.73v.66H298v.54h3.91v2.21H301V180.5h-3v2.21h-.92V180.5h-2.93Zm6.63,4.65c.52,0,.62-.16.68-1.1a2.44,2.44,0,0,0,.79.3c-.12,1.22-.38,1.54-1.4,1.54h-2.22c-1.25,0-1.59-.24-1.59-1.16v-.19h-2v.49h-.9V183H301v3.08h-3.08v.18c0,.36.12.43.75.43Zm-6.56-4.62,2.4-.33,0,.54c-.77.18-1.52.35-2.18.48Zm.56-1.5a9.32,9.32,0,0,1,1.85.5l-.25.53a12.65,12.65,0,0,0-1.88-.54Zm.27,3.09v.58h2v-.58Zm2,1.76v-.58h-2v.58Zm3.06-1.76h-2.16v.58h2.16Zm0,1.76v-.58h-2.16v.58Zm.56-2.65a13.43,13.43,0,0,0-2.34-.56l.19-.55a12.57,12.57,0,0,1,2.35.49Zm0-1.74a12.4,12.4,0,0,1-1.89.52l-.33-.45c.55-.14,1.36-.43,1.84-.59Z" fill="#002a5e"/>
      <path d="M312.25,183.65h-4v2.77c0,.57-.15.86-.57,1a7.08,7.08,0,0,1-2,.17,3.83,3.83,0,0,0-.4-1c.77,0,1.53,0,1.75,0s.27-.06.27-.25v-2.74h-4.08v-.94h4.08v-1.43a12.7,12.7,0,0,0,2.29-1.43h-5.37v-.92h6.41l.21-.05.71.54a14.84,14.84,0,0,1-3.26,2.35v.94h4Z" fill="#002a5e"/>
      <path d="M322.27,180.12h-5.91c.2.35.45.8.58,1.08l-.74.28h2.43a10.28,10.28,0,0,0,.65-1.34l1,.21c-.23.38-.47.79-.71,1.13h2.24v5.15c0,.46-.11.66-.44.78a5.73,5.73,0,0,1-1.69.13,2.73,2.73,0,0,0-.27-.72c.57,0,1.15,0,1.29,0s.24-.05.24-.2v-4.39h-1.84v.49c0,.22,0,.3.19.3H320a2.69,2.69,0,0,0,.57-.05c0,.22,0,.45.06.66a2.66,2.66,0,0,1-.62.05H319c-.7,0-.83-.31-.83-1v-.48h-1c-.15,1-.61,1.55-2,1.86a1.7,1.7,0,0,0-.42-.64v4.11h-.9v-6.09h2.15c-.12-.3-.37-.79-.55-1.12l.67-.24h-2.79v-.8h4.08c-.09-.28-.21-.6-.31-.87l.9-.22c.14.34.3.77.4,1.09h3.79Zm-7.44,3.33c1.1-.21,1.47-.55,1.59-1.21h-1.59Zm1.87,2.87v.45h-.79V184h3.78v2.36Zm0-1.68v1h2.22v-1Z" fill="#002a5e"/>
      <path d="M331.79,180.11a4.84,4.84,0,0,1-1.12,1.62,7,7,0,0,0,2,.76,3.74,3.74,0,0,0-.58.79,7.06,7.06,0,0,1-2.2-1,8.18,8.18,0,0,1-2.14.95,2.66,2.66,0,0,0-.26-.41,16.06,16.06,0,0,1-.56,1.63l-.65-.32a11.71,11.71,0,0,0,.45-1.52H326v3.89c0,.45-.07.71-.38.87a3.54,3.54,0,0,1-1.34.15,3.36,3.36,0,0,0-.27-.89c.41,0,.81,0,.93,0s.17,0,.17-.15v-2.75a7.47,7.47,0,0,1-1.37,2.2,4.58,4.58,0,0,0-.48-.9,6.65,6.65,0,0,0,1.55-2.43h-1.41v-.82H326a12.09,12.09,0,0,0-2.17-1.2l.59-.61c.28.11.6.26.91.41a6.36,6.36,0,0,0,.87-.85h-2.67v-.8h3.34l.15,0,.61.37A7,7,0,0,1,326,180.8a7.08,7.08,0,0,1,.81.54l-.44.48H327l.14,0,.57.2-.09.4a6.38,6.38,0,0,0,1.55-.64,5.33,5.33,0,0,1-.9-1.06,8.28,8.28,0,0,1-.61.59,5.65,5.65,0,0,0-.78-.54,6,6,0,0,0,1.92-2.44l.89.24c-.13.28-.27.54-.42.8h3.19v.79Zm.52,3.8s0,.25,0,.38c-.17,1.81-.36,2.59-.64,2.9a1.06,1.06,0,0,1-.68.3,10.27,10.27,0,0,1-1.12,0,2.3,2.3,0,0,0-.26-.87c.4,0,.77,0,.95,0a.38.38,0,0,0,.32-.11c.17-.15.31-.67.45-1.86h-1.47a4.07,4.07,0,0,1-2.66,2.89,2.8,2.8,0,0,0-.55-.73,3.31,3.31,0,0,0,2.24-2.16h-1.41v-.79h1.62q.07-.47.12-1h.93q0,.5-.12,1Zm-3.42-3.8a4.47,4.47,0,0,0,1,1.12,3.74,3.74,0,0,0,.85-1.12Z" fill="#002a5e"/>
    </g>
    <g>
      <path d="M283,212.25a10.11,10.11,0,0,1-.51,2.07c.62,1.15,1.84,1.31,3.66,1.31,1.06,0,2.6,0,3.68-.15a2.66,2.66,0,0,0-.31.87c-1,.06-2.25.09-3.38.09-2,0-3.2-.2-4-1.34a4.46,4.46,0,0,1-1.23,1.53,2.9,2.9,0,0,0-.62-.64,4.84,4.84,0,0,0,1.76-3.15h-.76a1.09,1.09,0,0,0-.61.16,4.56,4.56,0,0,0-.32-.81.9.9,0,0,0,.49-.31,15.17,15.17,0,0,0,1.06-1.49h-1.42v-.76h2l.13-.06.62.26c-.38.57-1.05,1.59-1.58,2.27h.81l.14,0Zm-1.11-2.91a13.15,13.15,0,0,0-1.11-1.63l.73-.39a13.74,13.74,0,0,1,1.14,1.55Zm1.88.09H283v-.79h1.45c-.1-.34-.26-.81-.41-1.18l.82-.15a9.18,9.18,0,0,1,.5,1.32h1v.67a7.56,7.56,0,0,0,.8-2.06l.79.23a8,8,0,0,1-.29.91h2.11v.78h-2.44c-.12.26-.24.5-.38.74h2l.16,0,.51.38a9.06,9.06,0,0,1-1.17,1.23v.43h1.27v.75h-1.27v1.55c0,.39-.06.63-.34.75a3,3,0,0,1-1.22.14,3.24,3.24,0,0,0-.29-.78h.9c.12,0,.15,0,.15-.13v-1.54h-1.26v-.75h1.26v-.65a5,5,0,0,0,.69-.64h-1.62v-.43l-.08.11a4.84,4.84,0,0,0-.65-.5l.26-.37h-1.68v1h1.63v.36c-.11,2.75-.2,3.73-.44,4a.73.73,0,0,1-.55.32,5.26,5.26,0,0,1-.83,0,2.65,2.65,0,0,0-.2-.77,5.72,5.72,0,0,0,.63,0,.23.23,0,0,0,.25-.13c.16-.18.24-1,.32-3.09h-.82a6.58,6.58,0,0,1-1.16,3.76,2.93,2.93,0,0,0-.59-.51,6.68,6.68,0,0,0,1-4Z" fill="#002a5e"/>
      <path d="M291.82,211.74a12.12,12.12,0,0,1-.75,4.74,2.85,2.85,0,0,0-.65-.49,10.92,10.92,0,0,0,.62-4.25V209h1.9V207.3h.87v.57h2.11v.64h-2.11V209h1.7l.13,0,.55.11a11,11,0,0,1-.39,1.51l-.69-.15c.06-.2.13-.5.19-.81h-1.44v.53l1-.09.07.52-1.05.1v.16c0,.23,0,.31.24.31H295a3.43,3.43,0,0,0,.65,0c0,.19,0,.37.05.55a3.05,3.05,0,0,1-.66.05h-1.13c-.65,0-.77-.28-.77-.87v-.08l-1.07.1-.07-.53,1.14-.11v-.59h-1.28Zm7.9-.28a11.21,11.21,0,0,1-1.44,3c.16.61.37,1,.6,1s.27-.51.33-1.43a3.25,3.25,0,0,0,.66.52c-.21,1.62-.63,2-1,2-.53,0-.93-.46-1.23-1.26a5.8,5.8,0,0,1-1.11,1,3.07,3.07,0,0,0-.57-.57v.32c-1.47.14-3,.27-4.09.36l-.1-.7,1.17-.09c-.07-.27-.18-.64-.28-.91l.66-.12a9.41,9.41,0,0,1,.33,1l.6,0a10.42,10.42,0,0,0,.41-1l.78.13c-.14.26-.28.54-.42.78l.94-.08v.23a5.69,5.69,0,0,0,1.4-1.3,21.6,21.6,0,0,1-.44-3.35l-.75.1-.11-.82.8-.11c0-.87-.08-1.8-.1-2.8h.87c0,.94,0,1.85.08,2.69l2.05-.28.11.84-2.11.27c.08.94.17,1.79.28,2.48a9.61,9.61,0,0,0,1-2.26ZM296,212.58h-4V212h4Zm-3.72,1.95v-1.59h3.42v1.59Zm.72-.5H295v-.6H293Zm6-4.52a15.91,15.91,0,0,0-1-1.69l.7-.34c.35.51.82,1.21,1.06,1.63Z" fill="#002a5e"/>
      <path d="M307.38,215.94a11.42,11.42,0,0,1-1.36-1,3.07,3.07,0,0,1-2.29.94c-1.56,0-2.5-.83-2.5-2,0-1,.74-1.59,1.55-2.1a3.09,3.09,0,0,1-.63-1.72A1.76,1.76,0,0,1,304,208.2a1.54,1.54,0,0,1,1.72,1.57c0,1-.77,1.6-1.58,2.12a17.92,17.92,0,0,0,1.82,1.66,4.39,4.39,0,0,0,.68-1.83h1.06a6.68,6.68,0,0,1-1,2.44,10.9,10.9,0,0,0,1.24.84Zm-3.55-.93a2.14,2.14,0,0,0,1.45-.67,20.09,20.09,0,0,1-2-1.91c-.56.39-1,.81-1,1.4C302.29,214.6,302.94,215,303.83,215Zm-.22-3.75c.66-.4,1.19-.82,1.19-1.45A.76.76,0,0,0,304,209a.89.89,0,0,0-.92,1A2.33,2.33,0,0,0,303.61,211.26Z" fill="#002a5e"/>
      <path d="M310.23,211.08h-.9v-2.21h3.82v-.53h-3.38v-.66h7.73v.66h-3.42v.53H318v2.21H317v-1.57h-3v2.21h-.93v-2.21h-2.92Zm6.63,4.65c.52,0,.62-.16.68-1.1a2.35,2.35,0,0,0,.79.3c-.12,1.22-.38,1.54-1.41,1.54H314.7c-1.24,0-1.59-.24-1.59-1.15v-.2h-2v.49h-.9V212h6.87v3.08H314v.19c0,.35.13.42.75.42Zm-6.56-4.62,2.4-.33,0,.54c-.77.19-1.52.35-2.18.48Zm.55-1.5a10.18,10.18,0,0,1,1.86.5l-.26.54a11.08,11.08,0,0,0-1.87-.55Zm.28,3.09v.58h2v-.58Zm2,1.77v-.59h-2v.59Zm3.06-1.77H314v.58h2.16Zm0,1.77v-.59H314v.59Zm.57-2.66a14.66,14.66,0,0,0-2.34-.56l.19-.54a12.33,12.33,0,0,1,2.34.48Zm0-1.74a14.57,14.57,0,0,1-1.89.53l-.33-.46c.55-.13,1.36-.43,1.84-.59Z" fill="#002a5e"/>
      <path d="M323.61,214.31a5,5,0,0,0,.19.72,11,11,0,0,0-1.9,1.18,3.51,3.51,0,0,0-.33-.88c.15-.07.29-.23.29-.59v-1.39h-.6c-.12,1.39-.41,2.53-1.57,3.22a2.44,2.44,0,0,0-.52-.65,2.86,2.86,0,0,0,1.26-2.57h-.67v-2.2h3.51v2.2h-.6v1.46Zm0-3.58h-4.26V210h1c-.09-.28-.22-.6-.33-.85l.75-.17c.15.32.31.71.42,1h.79a8.15,8.15,0,0,0,.31-1l.84.17c-.11.3-.25.61-.36.88h.87Zm-.05-2h-4V208h1.57l-.22-.6.82-.17a6.6,6.6,0,0,1,.33.77h1.54Zm-3,4h1.88v-.92h-1.88Zm6.91,3a.43.43,0,0,0,.22,0,.31.31,0,0,0,.12-.2,7,7,0,0,0,0-.83,2.14,2.14,0,0,0,.67.35,3.71,3.71,0,0,1-.12,1,.62.62,0,0,1-.34.35,1.51,1.51,0,0,1-.53.09H327a1,1,0,0,1-.65-.2c-.16-.14-.22-.31-.22-.91v-2h-.53c-.15,1.5-.56,2.65-2,3.31A2,2,0,0,0,323,216a2.74,2.74,0,0,0,1.71-2.66h-.67v-2.18h3.74v2.18h-.86v2.08c0,.15,0,.25.05.29a.3.3,0,0,0,.18,0Zm.74-5.06h-4.4V210h.88a6.92,6.92,0,0,0-.3-.84l.74-.16a6.88,6.88,0,0,1,.39,1h.76a6.1,6.1,0,0,0,.32-1l.84.17c-.13.29-.26.6-.37.87h1.14Zm-.21-1.93h-4.09V208h1.54c-.07-.2-.15-.4-.23-.59l.83-.16c.1.24.21.51.3.75H328Zm-3.15,3.93H327v-.9h-2.12Z" fill="#002a5e"/>
    </g>
    <g>
      <path d="M286.43,123.47c-.3-.24-1-.72-1.44-1A4.46,4.46,0,0,1,283,124a2.54,2.54,0,0,0-.6-.63,3.12,3.12,0,0,0,1.94-1.61h-1.83V121h.68a5.27,5.27,0,0,0-.72-.43,4.65,4.65,0,0,0,1.12-2l.84.17c-.07.23-.15.44-.23.67h2.62v.75h-1.4v.52c0,.1,0,.21,0,.31h1.66v.75h-1.8l0,.09c.42.2,1.53.86,1.8,1ZM284.56,121c0-.11,0-.22,0-.32v-.51h-.71a4,4,0,0,1-.59.83Zm-.61,2.73h6.36v4.17h-1v-.35h-4.45v.36H284Zm.94.75v.79h4.45v-.79Zm4.45,2.31v-.81h-4.45v.81Zm1.82-7.38V123H287.5v-3.61Zm-.94.83h-1.84v2h1.84Z" fill="#002a5e"/>
      <path d="M292.56,127.15a3.59,3.59,0,0,0,1.33-1.67l.81.29a4,4,0,0,1-1.38,1.9Zm7.25-3.19h-7v-.59h7v-.52h-6.17v-.59h7.09v1.11h1V124h-1v1.12h-3.4a4.72,4.72,0,0,1,1,.74l-.64.57a5.82,5.82,0,0,0-1.47-1.07l.28-.24h-2.92v-.61h6.23Zm-5.28-2.31H292.9v-.59h1.63v-.43H293.2v-.58h1.33v-.41H293v-.59h1.52v-.47h.87v.47h1.51v.59H295.4v.41h1.36v.58H295.4v.43H297v.59H295.4v.46h-.87Zm3.83,5.31c.38,0,.46-.11.5-.86a2.39,2.39,0,0,0,.83.32c-.11,1.09-.38,1.35-1.24,1.35h-1.84c-1.15,0-1.44-.25-1.44-1.1v-1.21h.94v1.2c0,.25.08.3.59.3Zm.49-5.31h-1.61v-.59h1.61v-.44h-1.34V120h1.34v-.39h-1.57v-.59h1.57v-.47h.87v.47h1.71v.59h-1.71V120h1.52v.59h-1.52v.44h1.86v.59h-1.86v.46h-.87Zm1.32,3.73a6.57,6.57,0,0,1,1.73,1.78l-.81.47a6.67,6.67,0,0,0-1.66-1.8Z" fill="#002a5e"/>
      <path d="M311.82,122.13a11.68,11.68,0,0,1-1.39,3.43c.21.84.45,1.33.73,1.33s.26-.48.29-1.59a2.06,2.06,0,0,0,.68.49c-.12,1.53-.37,2-1.09,2-.54,0-.94-.5-1.25-1.33a7.61,7.61,0,0,1-1.57,1.43,4.44,4.44,0,0,0-.65-.65,6.73,6.73,0,0,0,1.95-1.81,27,27,0,0,1-.48-4.49h-2.2v1.23h1.86a2.61,2.61,0,0,1,0,.34c0,2.29-.07,3.15-.25,3.41a.73.73,0,0,1-.54.29,3.92,3.92,0,0,1-.88,0,2.12,2.12,0,0,0-.22-.78,5.4,5.4,0,0,0,.7,0,.23.23,0,0,0,.24-.13,8.55,8.55,0,0,0,.16-2.43h-1.05v.35c0,1.45-.18,3.4-1.27,4.64a3.22,3.22,0,0,0-.69-.59,4.25,4.25,0,0,0,.89-1.85L303,126.58l-.3-.93c.32-.1.71-.24,1.12-.39v-3.38h-1V121h1V118.7h.87V121h.89v.87h-.89V125l.89-.33.18.83a10.52,10.52,0,0,0,.19-2.19v-3.2h3c0-.49,0-1,0-1.49h.89c0,.5,0,1,0,1.49H311a8,8,0,0,0-1-1.08l.65-.39a5.92,5.92,0,0,1,1.11,1.15l-.5.32h.68v.86h-2c.05,1.24.15,2.38.28,3.32A10.54,10.54,0,0,0,311,122Z" fill="#002a5e"/>
      <path d="M318,120.93v1.25h3.25v3.48c0,.49-.1.78-.47.92a5.43,5.43,0,0,1-1.77.16,3.28,3.28,0,0,0-.33-.92c.61,0,1.21,0,1.38,0s.22,0,.22-.19V123.1H318v4.75h-1V123.1h-2.14v3.66h-.95v-4.58H317v-1.25h-4V120h4.19c-.16-.38-.4-.86-.6-1.23l.92-.28a10.81,10.81,0,0,1,.77,1.51h3.8v.93Z" fill="#002a5e"/>
    </g>
    <g>
      <path d="M5.45,186.34c0,.42-.09.64-.37.77a4.1,4.1,0,0,1-1.37.13,2.77,2.77,0,0,0-.29-.75c.42,0,.84,0,1,0s.17,0,.17-.16V185c-.61.39-1.2.77-1.73,1.09l-.26-.67a4.34,4.34,0,0,1-.72,1.89,3.33,3.33,0,0,0-.66-.64A4.6,4.6,0,0,0,1.81,184v-2.38H5.45Zm-.61-7.62A16.07,16.07,0,0,1,6.1,181l-.81.34a4.25,4.25,0,0,0-.29-.65,17.88,17.88,0,0,0-3.31.4,7.93,7.93,0,0,0-.29-.86,1.34,1.34,0,0,0,.54-.41A9.62,9.62,0,0,0,3.18,178l1,.28a14.57,14.57,0,0,1-1.35,1.78l1.81-.13c-.18-.32-.36-.64-.53-.92ZM2.68,184a9.51,9.51,0,0,1-.08,1.27c.52-.23,1.23-.59,2-1v-.37l-.44.44a18,18,0,0,0-1.44-1.08l.48-.45a16,16,0,0,1,1.4,1v-1.43H2.68Zm4.91-1.6c-1,0-1.31-.36-1.31-1.33v-3h.94v1.31H9.83v.81H7.22v.93c0,.36.07.5.39.5h1.7a5.85,5.85,0,0,0,.87-.06c0,.24.06.59.1.8a4.13,4.13,0,0,1-.95.07Zm1.59,4c.38,0,.46-.18.5-1.21a2,2,0,0,0,.83.35c-.11,1.33-.37,1.68-1.25,1.68H7.62c-1.06,0-1.34-.27-1.34-1.22v-3.3h.94v1.12h2.7v.84H7.22V186c0,.35.08.41.52.41Z" fill="#002a5e"/>
      <path d="M12.91,182.5c-.37-.27-1.12-.74-1.67-1.05l.55-.67c.53.27,1.29.7,1.69,1Zm.74,1.41c-.39,1.06-.91,2.28-1.37,3.24l-.85-.52a30.5,30.5,0,0,0,1.47-3.25Zm-.26-4.06c-.37-.29-1.12-.77-1.66-1.1l.56-.67c.51.3,1.28.74,1.68,1Zm1.79,1.4c0,1.77-.18,4.33-1.36,6a4.82,4.82,0,0,0-.79-.5c1.13-1.58,1.23-3.86,1.23-5.5v-2.76h6.2v.85H15.18Zm1.61,3.39a10.2,10.2,0,0,1-1.23,2.05c-.17-.12-.54-.34-.75-.45a6.69,6.69,0,0,0,1.13-1.84Zm1.48-.73v2.44c0,.42-.07.66-.37.78a3.46,3.46,0,0,1-1.4.14,4.15,4.15,0,0,0-.24-.81c.42,0,.84,0,1,0s.16,0,.16-.15v-2.41H15.67v-3.55h1.45c.1-.31.21-.69.27-1l1.06.19-.4.77h2.08v3.55Zm-1.76-2.11h2.74v-.73H16.51Zm0,1.41h2.74v-.74H16.51Zm3.08,1.1a21.07,21.07,0,0,1,1.08,1.93l-.87.37a21.15,21.15,0,0,0-1-2Z" fill="#002a5e"/>
      <path d="M23.91,178.26a18.75,18.75,0,0,1-.74,2.1v6.91h-.79V182a8.56,8.56,0,0,1-.67,1,5.67,5.67,0,0,0-.44-1,12.11,12.11,0,0,0,1.82-4Zm2.64,2.26H23.78v-.74h2.77ZM24,184h2.53v3h-.76v-.41h-1v.57H24Zm2.41-2.09H24.07v-.73h2.29Zm-2.29.64h2.29v.73H24.07Zm1.05-2.89a5,5,0,0,0-.7-1.14l.58-.38a4.8,4.8,0,0,1,.73,1.11Zm-.43,5.08v1.15h1V184.7ZM29,181.82c-.23.32-.47.62-.72.91h2.1v4.45h-.85v-.34H28.21v.43h-.8v-3.66c-.23.19-.46.37-.7.54a4.21,4.21,0,0,0-.55-.68A7.25,7.25,0,0,0,28,181.82H26.59V181h1.09v-1.16h-.94v-.78h.93V178h.78v1.06h.82v.67a9.68,9.68,0,0,0,.56-1.45l.8.19A13,13,0,0,1,29.51,181h1.21v.78Zm.53,1.68H28.21v.9h1.34Zm0,2.57v-.93H28.21v.93Zm-1.09-5h.12a8.21,8.21,0,0,0,.65-1.16h-.77Z" fill="#002a5e"/>
      <path d="M35.2,180.2A12.07,12.07,0,0,1,34,182.38v4.89H33v-3.78a6.62,6.62,0,0,1-1.08.9,5,5,0,0,0-.47-.88,8.33,8.33,0,0,0,2.72-3.31H31.78v-.9h2.78q.24-.66.42-1.32l1,.23c-.11.36-.24.73-.36,1.09h5v.9Zm5.6,4.42H38.24v1.62c0,.5-.1.77-.47.9a5.56,5.56,0,0,1-1.78.14,3.89,3.89,0,0,0-.28-.9c.6,0,1.2,0,1.36,0s.22-.05.22-.18v-1.6H34.61v-.89h2.68V183a8.49,8.49,0,0,0,1.26-.95H35.43v-.85h4l.19,0,.6.48a10.6,10.6,0,0,1-2,1.64v.49H40.8Z" fill="#002a5e"/>
    </g>
    <g>
      <path d="M4.25,150.4a10.35,10.35,0,0,1-.72,1.15v5.64H2.68v-4.57a8.76,8.76,0,0,1-.79.81,7.22,7.22,0,0,0-.47-.91,9,9,0,0,0,2-2.44Zm-.2-2.19A10,10,0,0,1,2,150.57a3.75,3.75,0,0,0-.49-.71,7.49,7.49,0,0,0,1.7-2ZM8.59,151v1h1.7v5.19H9.37v-.43H6.9v.43H6V152H7.67v-1h-2v1a10,10,0,0,1-1.07,5.21,3.07,3.07,0,0,0-.69-.41,9.71,9.71,0,0,0,.93-4.8V148.7a37,37,0,0,0,4.8-.69l.72.67a34,34,0,0,1-4.69.66v.91h2v-.95h.92v.95h2.18V151Zm.78,1.7H6.9v.67H9.37Zm0,1.32H6.9v.65H9.37Zm0,2v-.69H6.9V156Z" fill="#002a5e"/>
      <path d="M20.78,154.86c-.42.24-.89.49-1.32.68a3.94,3.94,0,0,0,1.6.83,3,3,0,0,0-.56.72,4.46,4.46,0,0,1-2.81-2.78,6.84,6.84,0,0,1-1.12.81v1l1.56-.34a5.41,5.41,0,0,0,0,.69,12,12,0,0,0-2.36.67h0a2.83,2.83,0,0,0-.31-.66.67.67,0,0,0,.36-.65v-.33a8.79,8.79,0,0,1-1,.4,3,3,0,0,0-.44-.58c-.93.28-1.86.56-2.63.77l-.18-.86c.32-.07.69-.18,1.09-.29v-2.68h-.88v-.82h.88v-2.09h-1v-.84h2.71v.84h-.93v2.09h.81v.82h-.81v2.46l.86-.25.11.73a8.58,8.58,0,0,0,2.29-1H15.38v-2.13h4.87v2.13H18.47a3.91,3.91,0,0,0,.53.85,10,10,0,0,0,1.15-.77Zm.06-3.25H14.75v-.75h6.09Zm-.33-1.19H15.14v-2.18h5.37Zm-3.78-1.52h-.8v.87h.8Zm-.51,4.63h3.14v-.78H16.22Zm2-4.63h-.83v.87h.83Zm1.5,0h-.85v.87h.85Z" fill="#002a5e"/>
      <path d="M24.86,154c0-.14-.06-.31-.11-.51a12.54,12.54,0,0,0-2.62.5c-.05-.17-.18-.62-.28-.85.22-.05.44-.29.75-.66a11.34,11.34,0,0,0,.74-1,5.24,5.24,0,0,0-1.28.23,8.51,8.51,0,0,0-.27-.81c.18,0,.34-.24.55-.55a11.59,11.59,0,0,0,1.27-2.51l.84.35A15.27,15.27,0,0,1,23,150.78l.89-.07a11.18,11.18,0,0,0,.71-1.32l.79.47A19.06,19.06,0,0,1,23.2,153l1.36-.17c-.09-.31-.19-.62-.3-.91l.7-.19a16.55,16.55,0,0,1,.65,2.07Zm-1.83.5a13.05,13.05,0,0,1-.49,2.53,4.35,4.35,0,0,0-.74-.28,10.19,10.19,0,0,0,.45-2.37Zm1-.13a18.87,18.87,0,0,1,.27,2.08l-.74.15a19.23,19.23,0,0,0-.24-2.11Zm.95-.3a13.8,13.8,0,0,1,.49,1.63l-.67.24a15.29,15.29,0,0,0-.47-1.66Zm6.1,2V157H25.33v-.86h2.44v-1.7H25.85v-.84h4.83v.84h-2v1.7Zm-4.41-2.81a9.22,9.22,0,0,0-1.19-2,17,17,0,0,0,1.05-1.85l.82.2c-.29.52-.65,1.14-1,1.63A11,11,0,0,1,27.46,153ZM31,149.21H25.61v-.84H31Zm-1.92.46a16.63,16.63,0,0,1-1,1.61,10.14,10.14,0,0,1,1.11,1.65l-.76.33a9.37,9.37,0,0,0-1.24-2,16,16,0,0,0,1.08-1.83Zm1.14,3.62a10,10,0,0,0-1.34-2A16.69,16.69,0,0,0,30,149.46l.82.21c-.3.52-.69,1.13-1,1.62A11.88,11.88,0,0,1,31,152.94Z" fill="#002a5e"/>
      <path d="M33.42,152.5a8.84,8.84,0,0,0-1.52-1.14l.46-.56a9.77,9.77,0,0,1,1.55,1.08ZM32,156.58a31.16,31.16,0,0,0,1.29-3.15l.61.46c-.35,1-.8,2.23-1.19,3.15Zm1.61-6.69a8.72,8.72,0,0,0-1.45-1.35l.49-.54a9,9,0,0,1,1.5,1.29Zm5.67,3h.88v4.28H39.3v-1.49H35.79a2.72,2.72,0,0,1-1.09,1.5,4,4,0,0,0-.7-.49,2.87,2.87,0,0,0,1.13-2.49v-1.31H36v.6H39.3Zm-3.69-2a2.76,2.76,0,0,1-1.16,2,1.79,1.79,0,0,0-.38-.5A2,2,0,0,0,35,151h-.52v-.62h2.27v.28c0,1.23-.07,1.74-.22,1.92a.54.54,0,0,1-.42.21,3.09,3.09,0,0,1-.56,0,1.72,1.72,0,0,0-.16-.61,2.71,2.71,0,0,0,.42,0,.21.21,0,0,0,.18-.08,3.39,3.39,0,0,0,.12-1.16Zm1.44-1.34H34.4v-.76h2.8c-.05-.28-.13-.63-.21-.91l.87-.11a6.19,6.19,0,0,1,.27,1h3v.76H38.39l.56.21c-.3.32-.66.68-1,1h0v2.1h-.7v-2.09h0a6.56,6.56,0,0,0,1-1.16H37.08a3.19,3.19,0,0,1,.44.79l-.53.26a3,3,0,0,0-.43-.83ZM39.3,155v-.7H36a4.27,4.27,0,0,1-.05.7Zm1.52-4.56a5.07,5.07,0,0,1-.62.29,3.09,3.09,0,0,0,1,1.65,1.76,1.76,0,0,0-.41.48,3.82,3.82,0,0,1-1.06-2l-.48.13v1.13l.67-.2c0,.16.07.39.09.5a5.51,5.51,0,0,0-1.3.52h0a2.58,2.58,0,0,0-.28-.58c.11-.07.24-.24.24-.64v-1.11h0a6.42,6.42,0,0,0,1.6-.63Z" fill="#002a5e"/>
    </g>
    <g>
      <path d="M22.83,117.7c0,3.83,0,7.8.51,7.8a3.58,3.58,0,0,0,.18-1.5,3.22,3.22,0,0,0,.54.72c-.09,1.26-.27,1.79-.82,1.79-1.32,0-1.32-3.59-1.34-7.94H16.67V121c0,1.66-.17,4-1.29,5.5a3.22,3.22,0,0,0-.77-.51c1.07-1.42,1.16-3.46,1.16-5V117.7Zm-1.84,6a7.84,7.84,0,0,1,1.09,2.22l-.78.27a4.83,4.83,0,0,0-.24-.74l-4.39.32L16.6,125l2.22-.13v-1.25H17.15v-2.83h1.67v-.83H17v-.76h4.43v.76H19.64v.83h1.72v2.83H19.64v1.2l1.07-.07c-.14-.26-.3-.53-.45-.75Zm-2.17-.88v-1.36h-.93v1.36Zm.82-1.36v1.36h.95v-1.36Z" fill="#002a5e"/>
      <path d="M33.58,119.35s0,.33,0,.47c-.22,4.1-.41,5.6-.86,6.12a1.22,1.22,0,0,1-.93.46,12.2,12.2,0,0,1-1.61,0,2.38,2.38,0,0,0-.33-1c.66.06,1.28.06,1.54.06a.56.56,0,0,0,.46-.15c.35-.33.56-1.71.73-5H29.39a7.32,7.32,0,0,1-3.72,6.24,4.36,4.36,0,0,0-.73-.76,6.51,6.51,0,0,0,3.45-5.48H25.25v-1h3.19v-2.13h1v2.13Z" fill="#002a5e"/>
      <path d="M44,118.75a14.12,14.12,0,0,1-1.32,1,7.11,7.11,0,0,0,1.6.63,4.55,4.55,0,0,0-.57.74,6.47,6.47,0,0,1-1.32-.56v1.14c0,.23,0,.31.18.31h.62a1.93,1.93,0,0,0,.5,0c0,.2,0,.47.06.66a2,2,0,0,1-.54,0h-.74c-.7,0-.85-.28-.85-1v-.8H40.46v0a2.17,2.17,0,0,1-1.1,2,3.62,3.62,0,0,0-.56-.54v.16H36.73c0,.3-.08.6-.13.87h2.22s0,.25,0,.36c-.13,1.4-.24,2-.49,2.27a1,1,0,0,1-.72.27,11.69,11.69,0,0,1-1.34,0,1.88,1.88,0,0,0-.28-.8c.54,0,1.06.06,1.27.06a.49.49,0,0,0,.36-.09c.13-.12.23-.51.32-1.36H35.69c.13-.62.28-1.55.36-2.3H38V121H36.39v-.14q-.53.25-1,.45a3.18,3.18,0,0,0-.5-.7,7.46,7.46,0,0,0,1.85-.88,9.28,9.28,0,0,0-1-.76l.53-.5a8.9,8.9,0,0,1,1.15.78,4.72,4.72,0,0,0,.8-.88H35.94v-.75h2.68l.16,0,.59.28a5.83,5.83,0,0,1-2,2.39H38.8v2.14a1.47,1.47,0,0,0,.86-1.42v-.76h2.1a6.74,6.74,0,0,1-2.22-2.73l.75-.23a6.17,6.17,0,0,0,.66,1.1,8,8,0,0,0,1.15-1.07l.68.49a12.84,12.84,0,0,1-1.36,1.08,4.85,4.85,0,0,0,.65.55,13.1,13.1,0,0,0,1.27-1.11Zm-.73,4.53a4.47,4.47,0,0,1-1.22,1.82c.5.3,1,.58,1.28.8l-.49.62c-.36-.26-.86-.58-1.43-.93a7.13,7.13,0,0,1-2.28.92,2.86,2.86,0,0,0-.41-.69,6.34,6.34,0,0,0,1.95-.68l-1.51-.88.43-.48h-.36v-.67h3.37l.14,0Zm-3.58.5c.51.27,1.09.59,1.66.92a4.42,4.42,0,0,0,.81-.92Z" fill="#002a5e"/>
      <path d="M46.31,121h-.89v-2.21h3.82v-.53H45.85v-.66h7.73v.66H50.16v.53h3.91V121h-.94v-1.57h-3v2.21h-.92v-2.21H46.31ZM53,125.63c.51,0,.61-.16.67-1.1a2.44,2.44,0,0,0,.79.3c-.12,1.22-.38,1.54-1.4,1.54H50.79c-1.25,0-1.59-.24-1.59-1.15V125h-2v.49h-.9v-3.57h6.87V125H50.1v.19c0,.35.12.42.75.42ZM46.38,121l2.4-.33,0,.54c-.77.19-1.52.35-2.18.48Zm.56-1.5a10.06,10.06,0,0,1,1.85.5l-.25.54a11.5,11.5,0,0,0-1.88-.55Zm.27,3.09v.58h2v-.58Zm2,1.77v-.59h-2v.59Zm3.06-1.77H50.1v.58h2.16Zm0,1.77v-.59H50.1v.59Zm.56-2.66a14.4,14.4,0,0,0-2.34-.56l.2-.54a12.5,12.5,0,0,1,2.34.48Zm0-1.74a12.4,12.4,0,0,1-1.89.52l-.33-.45c.55-.13,1.36-.43,1.84-.59Z" fill="#002a5e"/>
    </g>
    <g>
      <path d="M44.48,213c0,2.85.22,5.46,1,5.46.17,0,.23-.6.25-1.52a2.58,2.58,0,0,0,.61.55c-.07,1.35-.27,1.87-.91,1.87-1.45,0-1.71-2.46-1.79-5.68H38.11v-.5a4.31,4.31,0,0,1-.42.43,6.7,6.7,0,0,0-.83-.56A7.07,7.07,0,0,0,39,210l.94.24c-.08.21-.18.41-.27.61h6.22v.64H39.32a9.09,9.09,0,0,1-1,1.46Zm-3.57,5.5h2.65v.64H37.44v-.64H40v-.73H38v-.61h5.11v.61H40.91Zm2.19-3.72H37.86v-.64H43.1ZM38.61,217a5.12,5.12,0,0,0-.75-1.1,9.28,9.28,0,0,0,.64-1.05l.75.16c-.2.32-.38.63-.57.88a5.88,5.88,0,0,1,.65.86Zm.64-4.49V212h5.87v.58ZM41,215c-.19.32-.4.63-.58.88a5,5,0,0,1,.66.87l-.69.24a5.94,5.94,0,0,0-.79-1.09,8.64,8.64,0,0,0,.66-1.05Zm1.81,0a9.58,9.58,0,0,1-.6.88,5.62,5.62,0,0,1,.68.86l-.7.25a5.82,5.82,0,0,0-.82-1.09,7.31,7.31,0,0,0,.68-1.05Z" fill="#002a5e"/>
      <path d="M51.33,218.4c0,.43-.09.64-.38.77a4.06,4.06,0,0,1-1.37.13,2.9,2.9,0,0,0-.29-.75c.43,0,.84,0,1,0s.18,0,.18-.16v-1.34l-1.74,1.08-.26-.67a4.06,4.06,0,0,1-.72,1.89,3,3,0,0,0-.66-.63,4.63,4.63,0,0,0,.62-2.72v-2.38h3.65Zm-.62-7.62A16.21,16.21,0,0,1,52,213l-.82.35a3.92,3.92,0,0,0-.29-.66,17.63,17.63,0,0,0-3.3.4,6.87,6.87,0,0,0-.3-.86,1.27,1.27,0,0,0,.54-.4,10.62,10.62,0,0,0,1.25-1.82l1,.29a13.52,13.52,0,0,1-1.35,1.77l1.82-.13c-.19-.32-.37-.64-.54-.91ZM48.55,216a9.66,9.66,0,0,1-.08,1.28c.53-.24,1.24-.6,2-1V216l-.45.45a14.93,14.93,0,0,0-1.44-1.09l.49-.44c.45.28,1.05.7,1.4,1v-1.43H48.55Zm4.92-1.6c-1,0-1.31-.35-1.31-1.33v-3h.93v1.31H55.7v.81H53.09v.93c0,.37.07.5.4.5h1.7a5.94,5.94,0,0,0,.87-.06c0,.24,0,.6.09.8a4,4,0,0,1-.94.07Zm1.59,4c.37,0,.45-.18.49-1.2a2.11,2.11,0,0,0,.83.34c-.11,1.33-.36,1.68-1.24,1.68H53.5c-1.07,0-1.34-.27-1.34-1.21v-3.31h.93v1.12H55.8v.84H53.09V218c0,.34.08.4.53.4Z" fill="#002a5e"/>
    </g>
    <g>
      <path d="M249.09,55.63c0,.39,0,.91-.07,1.51.14,1.27.76,5.31,4.29,6.88a2.84,2.84,0,0,0-.69.8,7.94,7.94,0,0,1-4-5.17,8.08,8.08,0,0,1-3.87,5.22,3,3,0,0,0-.78-.75c4.14-2.15,4-6.87,4.06-8.49Z" fill="#002a5e"/>
      <path d="M263.29,63.22v.94h-9.07v-.94h4V57.67h-3.42v-1h8v1h-3.53v5.55Z" fill="#002a5e"/>
      <path d="M268.21,60.49c-.3-.24-1-.72-1.44-1.05A4.39,4.39,0,0,1,264.82,61a2.72,2.72,0,0,0-.6-.63,3.06,3.06,0,0,0,1.94-1.61h-1.84V58H265a5.2,5.2,0,0,0-.72-.42,4.69,4.69,0,0,0,1.12-2l.84.17c-.07.23-.15.45-.23.67h2.62v.75h-1.4v.53c0,.1,0,.2,0,.3h1.66v.75h-1.8l0,.09a19.08,19.08,0,0,1,1.8,1.06ZM266.34,58c0-.11,0-.21,0-.31v-.52h-.71a3.73,3.73,0,0,1-.59.83Zm-.61,2.74h6.36v4.16h-1v-.34h-4.45v.35h-.94Zm.94.75v.79h4.45v-.79Zm4.45,2.31V63h-4.45v.81Zm1.82-7.39V60h-3.66V56.39Zm-.94.83h-1.84v2H272Z" fill="#002a5e"/>
      <path d="M274.34,64.17a3.5,3.5,0,0,0,1.33-1.67l.81.29a4,4,0,0,1-1.38,1.91ZM281.58,61h-7v-.59h7v-.51h-6.16v-.59h7.09v1.1h1V61h-1V62.1h-3.4a4.71,4.71,0,0,1,1,.74l-.63.57A5.8,5.8,0,0,0,278,62.35l.28-.25h-2.92v-.6h6.22Zm-5.27-2.31h-1.63v-.59h1.63v-.42H275v-.59h1.33v-.41h-1.52v-.58h1.52V55.6h.87v.48h1.51v.58h-1.51v.41h1.36v.59h-1.36v.42h1.61v.59h-1.61v.47h-.87ZM280.14,64c.38,0,.46-.1.5-.85a2.5,2.5,0,0,0,.83.31c-.11,1.1-.38,1.35-1.24,1.35h-1.84c-1.15,0-1.44-.24-1.44-1.1V62.48h.94v1.21c0,.25.08.29.59.29Zm.49-5.31H279v-.59h1.61v-.43h-1.35v-.59h1.35v-.4h-1.57v-.58h1.57V55.6h.87v.48h1.71v.58H281.5v.4H283v.59H281.5v.43h1.86v.59H281.5v.47h-.87ZM282,62.41a6.41,6.41,0,0,1,1.73,1.77l-.81.48a6.56,6.56,0,0,0-1.66-1.81Z" fill="#002a5e"/>
    </g>
    <g>
      <path d="M234.81,38.11a6.2,6.2,0,0,1-1.08,1.69c-.15-.13-.47-.38-.66-.51a4.52,4.52,0,0,0,.94-1.41Zm3.75-2.8h-5.47v-.74h2.3a1.5,1.5,0,0,0-.19-.38L236,34h-2.45v-2.8h4.65V34h-2.1a4.24,4.24,0,0,1,.3.56h2.15Zm-2.26,2.43v1.51c0,.41-.07.62-.36.74a3.37,3.37,0,0,1-1.22.13,2.77,2.77,0,0,0-.29-.77h.8c.11,0,.14,0,.14-.12v-1.5h-1.7v-2h4.4v2Zm-1.85-5.42h2.83v-.5h-2.83Zm0,1.1h2.83V32.9h-2.83Zm.11,3.68h2.61v-.71h-2.61Zm7.67-.16a8.5,8.5,0,0,1-3.39,3.15,3.15,3.15,0,0,0-.62-.7l-.68.33a9.12,9.12,0,0,0-.86-1.55l.67-.3a11.76,11.76,0,0,1,.89,1.47,7.25,7.25,0,0,0,3.11-2.72Zm-.47-5.53a10.11,10.11,0,0,1-2.66,2.4,3.46,3.46,0,0,0-.67-.65,7.75,7.75,0,0,0,2.43-2.11Zm.26,2.72a10.17,10.17,0,0,1-2.91,2.52,4.54,4.54,0,0,0-.65-.67,8,8,0,0,0,2.7-2.22Z" fill="#002a5e"/>
      <path d="M252.19,34v.84h-9v-.84h2.38a5.26,5.26,0,0,0-.51-1.28l.92-.19a4.85,4.85,0,0,1,.61,1.44l-.13,0h2.31a9.1,9.1,0,0,0,.6-1.49h-5.61v-.84h3.51a3.52,3.52,0,0,0-.35-.79l1-.17a4,4,0,0,1,.46,1h3.34v.84H249.5l1,.22c-.22.43-.43.9-.64,1.27Zm-7.65,1.63H251v4.47h-1v-.34h-4.5v.37h-.94Zm1,.78v.88H250v-.88ZM250,39v-.94h-4.5V39Z" fill="#002a5e"/>
      <path d="M261.91,35.55v3.36h-1v-.39h-2.58v1.61h-1V38.52h-2.5v.41h-1V35.56h3.48v-.74h-3.08V32h3.08V30.83h1V32h3.16v2.84h-3.16v.74Zm-4.6,2.13V36.42H254.8v1.25Zm0-3.69V32.8h-2.12V34Zm1-1.2V34h2.14v-1.2Zm2.59,4.89V36.42h-2.58v1.26Z" fill="#002a5e"/>
      <path d="M265.18,35.5a7.38,7.38,0,0,0-1.86-1.11l.5-.71a8.56,8.56,0,0,1,1.89,1Zm1,1.28c-.54,1-1.21,2.26-1.81,3.22l-.79-.64a32.54,32.54,0,0,0,1.9-3.21Zm-.66-3.91a7.13,7.13,0,0,0-1.73-1.24l.52-.69a8.32,8.32,0,0,1,1.78,1.17ZM267,35.6h.86v1a4,4,0,0,1-1.46,3.46,2.78,2.78,0,0,0-.66-.62A3.23,3.23,0,0,0,267,36.6Zm4.79,0c-.12-.19-.3-.43-.49-.69-3.94.27-4.43.31-4.75.45a6.69,6.69,0,0,0-.31-.88,1.76,1.76,0,0,0,.75-.64,9.1,9.1,0,0,0,.69-.9h-1.52v-.86h2.11a14.17,14.17,0,0,0,.7-1.27l.93.37-.55.9h3.07v.85h-3.66a16.73,16.73,0,0,1-1.12,1.4l3.09-.19c-.22-.26-.44-.52-.62-.76l.71-.41c.57.67,1.35,1.59,1.74,2.13Zm-3,.09h.83v4h-.83Zm3.29,3.48a1.74,1.74,0,0,0,.45-.06c0,.23,0,.53.07.73a1.59,1.59,0,0,1-.51.06h-.6c-.79,0-.94-.33-.94-1.14V35.59h.87v3.17c0,.3,0,.4.15.4Z" fill="#002a5e"/>
      <path d="M275.3,35.12a9.8,9.8,0,0,1-1,4.94,2.73,2.73,0,0,0-.75-.52,8.51,8.51,0,0,0,.91-4.43V32.76h3.16v-2h.94v.71h3.42v.7h-3.42v.54h3.23l.15,0,.66.17a11.37,11.37,0,0,1-.57,1.63l-.79-.22a7,7,0,0,0,.25-.8h-3v.61l2.48-.2,0,.64-2.52.21v.08c0,.29.06.4.41.4H281a6.15,6.15,0,0,0,1.11-.08c0,.26.05.53.08.73a6.6,6.6,0,0,1-1.12.06h-2.27c-1,0-1.24-.32-1.24-1.11l-1.77.16,0-.66,1.81-.15V33.5h-2.24ZM280.05,39h2.52v.8h-7.46V39h2.4v-.68h-1.66v-1.9h.73v1.2h.93V36.26h.8V39h.93V36.26h.81v1.36H281V36.41h.74v1.9h-1.7Z" fill="#002a5e"/>
      <path d="M288.1,37.44a3.38,3.38,0,0,1-.08.34,6.5,6.5,0,0,1,1,.94l-.49.62a7,7,0,0,0-.73-.81,4.22,4.22,0,0,1-1.4,1.57,3.07,3.07,0,0,0-.54-.54,3.23,3.23,0,0,0,1.52-2.12h-1.28V36.7h1.38c0-.11,0-.22,0-.31v-.73h-.34a4.84,4.84,0,0,1-.48.94,4,4,0,0,0-.61-.4,3.64,3.64,0,0,0,.23-.39l-.78.3v3c0,.45-.09.7-.33.83a2.69,2.69,0,0,1-1.25.17,2.94,2.94,0,0,0-.24-.83h.83c.12,0,.16,0,.16-.16V36.43l-.88.32-.24-.9c.32-.1.71-.23,1.12-.39V33.64h-1v-.87h1v-2h.83v2h.73v.87h-.73v1.54l.74-.28.15.71a6.66,6.66,0,0,0,.44-1.55l.71.15c-.05.24-.09.48-.16.71h1.73v.73h-.86v.74c0,.09,0,.19,0,.3h1v.75ZM287.39,34c-.8,0-1-.3-1-1.1V30.8h.78v.88h1.69v.7h-1.69v.51c0,.3,0,.39.24.39h1a4,4,0,0,0,.61-.05c0,.2,0,.51.08.7a2.55,2.55,0,0,1-.67.06Zm4,5.15a2.54,2.54,0,0,0,.56,0H293a3,3,0,0,0-.23.75h-.92a2,2,0,0,1-2.07-1.17,4.24,4.24,0,0,1-.71,1.35,3,3,0,0,0-.6-.44c.76-.84.94-2.16,1-3.78l.72,0a15,15,0,0,1-.15,1.76,2.43,2.43,0,0,0,.59,1.08V35.16h-1.45V34.4h2.4a14.25,14.25,0,0,0-2-1.53l.54-.52.74.47a8.11,8.11,0,0,0,.74-1h-2.24V31.1h2.74l.15-.06.53.37a8.88,8.88,0,0,1-1.31,1.82c.28.22.55.42.73.59l-.54.58h.64l.11,0,.46.12a17.36,17.36,0,0,1-.39,1.78l-.57-.15c.06-.25.13-.61.18-1h-.68v1.49h1.27v.76h-1.27Z" fill="#002a5e"/>
      <path d="M303,33.58v.69h-1.75l-.08.86h-5.79l.11-.85h-1.6V33.6h1.69l.1-.81h5.71l-.08.82Zm-3.09,5.11c1,.26,2.09.59,2.78.82l-.64.6c-.71-.27-1.9-.67-3.06-1l.39-.44h-2.05l.6.4a11.46,11.46,0,0,1-3.35,1,6.68,6.68,0,0,0-.5-.65,12.64,12.64,0,0,0,2.89-.76h-1.73V35.5h6.46v3.2ZM295,33.3h-.85V31.63H298c-.12-.24-.26-.48-.38-.68l.81-.24a4.87,4.87,0,0,1,.55.92h3.7v1.67h-.89v-.92H295Zm1.09,3.1h4.6V36h-4.6Zm0,.88h4.6v-.39h-4.6Zm0,.9h4.6v-.41h-4.6Zm.14-3.55h1.65c0-.14,0-.28.05-.43h-1.65Zm.17-1.33-.05.38H298l0-.38Zm3.91,1.32,0-.44h-1.63c0,.15,0,.3-.05.43Zm.11-1.33h-1.61l0,.39h1.62Z" fill="#002a5e"/>
      <path d="M307.13,37.59c-1,.43-2.14.87-3,1.21l-.31-1,1.21-.41V34.09H304V33.2H305v-2.3h.92v2.3h.92v.89h-.92v3l1-.36Zm4.75,1.59a1.15,1.15,0,0,0,.3,0,.29.29,0,0,0,.14-.21,5.76,5.76,0,0,0,.05-.81,2.37,2.37,0,0,0,.74.39,3.89,3.89,0,0,1-.13,1,.67.67,0,0,1-.4.34,2,2,0,0,1-.61.08h-.67a1.22,1.22,0,0,1-.72-.2c-.19-.14-.26-.32-.26-.89V37.44h-.82c-.18,1.4-.69,2.19-2.56,2.66a2.08,2.08,0,0,0-.49-.74c1.61-.31,2-.86,2.15-1.92h-1V34.51h4.68v2.94h-1.14v1.43c0,.14,0,.23.07.26a.39.39,0,0,0,.23,0Zm1-5.12h-5.65v-.79h1.34c-.07-.25-.17-.58-.27-.84l.76-.17a5.57,5.57,0,0,1,.34,1l-.19.05h1.43c.12-.32.28-.7.36-1l.86.18c-.14.28-.26.56-.39.82h1.41Zm-.27-1.85h-5.08v-.78h2.09a5.45,5.45,0,0,0-.22-.58l.87-.17a7,7,0,0,1,.33.74h2Zm-4.07,3.46h2.92v-.54H308.5Zm0,1.16h2.91v-.56h-2.91Z" fill="#002a5e"/>
    </g>
  </g>
</svg>
