<svg xmlns="http://www.w3.org/2000/svg" viewBox="0 0 340 240">
  <g>
    <g>
      <path d="M58,62.88H55.66a15.64,15.64,0,0,1,1.94,1.68l-.85.41a4.15,4.15,0,0,0-.47-.52c-5.11.23-5.66.24-6,.37a6.37,6.37,0,0,0-.31-.89,1.35,1.35,0,0,0,.59-.31,6.42,6.42,0,0,0,.9-.74H49v-.73h9Zm-8-3.71h-.85V57.05H53V56.6H49.82v-.7h7.37v.7H54v.45h3.88v2.12H57V57.68H54v2.75H53V57.68H50Zm-.08.76c.67-.19,1.66-.51,2.62-.83l.11.64c-.83.33-1.69.68-2.4.94Zm6.9,1.63H50.17v-.7h6.69Zm-6.18-3.75a19.06,19.06,0,0,1,2,.69l-.35.59a15.42,15.42,0,0,0-1.95-.75Zm4.85,5.95c-.29-.24-.58-.49-.85-.68l.44-.2H52.7a14.1,14.1,0,0,1-1.2,1Zm1.23-5.35a13.28,13.28,0,0,1-2.14.69l-.36-.53a14,14,0,0,0,2.07-.74Zm-2.16.7a20.53,20.53,0,0,1,2.5.89l-.31.64a23.12,23.12,0,0,0-2.49-1Z" fill="#002a5e"/>
      <path d="M62.42,62.25l.1.87c-1.15.3-2.36.6-3.3.83L59,63l1.86-.4c.21-1.08.43-2.76.52-3.94l.81.15c-.16,1.14-.4,2.59-.62,3.61Zm0-3.93H59.1v-.87h3.37Zm-2.7,4a28.39,28.39,0,0,0-.38-3.48l.71-.13a28.94,28.94,0,0,1,.41,3.48Zm1.09-6.65a8.61,8.61,0,0,1,.67,1.43l-.83.3A8.16,8.16,0,0,0,60.06,56Zm4.92,4.33c-.09.28-.18.54-.28.79H68v3.25c0,.37,0,.57-.27.7a2,2,0,0,1-1,.15,2.46,2.46,0,0,0-.25-.75h.56c.08,0,.11,0,.11-.13V61.64h-.76V64.8h-.74V61.64H65v3.18h-.73V61.64h-.73v3.28h-.85V60.84h1.93c.05-.25.11-.51.14-.79H62.37v-.84h5.87v.84Zm2.13-1.48H62.79V56.11h.86v1.64h1.18V55.63h.9v2.12H67V56.11h.9Z" fill="#002a5e"/>
      <path d="M71.78,60.56a9.45,9.45,0,0,1-.52,2.14c.62,1.08,1.82,1.24,3.62,1.24,1.06,0,2.6,0,3.67-.15a3.2,3.2,0,0,0-.3.87c-1,.06-2.26.09-3.38.09-2,0-3.17-.2-4-1.29A4.75,4.75,0,0,1,69.67,65,2.78,2.78,0,0,0,69,64.3a4.8,4.8,0,0,0,1.8-3.14H70a1.09,1.09,0,0,0-.6.15,5.8,5.8,0,0,0-.32-.8.93.93,0,0,0,.5-.32,14.21,14.21,0,0,0,1.08-1.48H69.22V58h2l.13-.06.6.27c-.4.58-1.08,1.57-1.6,2.26h.87l.15,0Zm-1.06-2.91A11.8,11.8,0,0,0,69.53,56l.72-.42a14,14,0,0,1,1.22,1.54Zm2,.15H72V56H78V57.8h-.72v.34H75.47v.5H77.6v2.91H75.47v.54h2.68v.72H75.47v.75h-.91v-.75H72v-.72h2.53v-.54H72.5V58.64h2.06v-.5H72.74Zm.07-1.14v.8h1.75V57h.91v.45h1.66v-.8Zm.46,3.14h1.29v-.55H73.27Zm1.29,1.13v-.55H73.27v.55Zm.91-1.68v.55h1.32v-.55Zm1.32,1.13H75.47v.55h1.32Z" fill="#002a5e"/>
      <path d="M88.49,57H86.93a5,5,0,0,1,.56.68l-.58.25h.5v3.79h-1.2v.77h2.23v.76H86.21v1.67h-1V63.24H82.73c-.25.64-.9,1.25-2.38,1.72a3.18,3.18,0,0,0-.59-.7,3.19,3.19,0,0,0,1.91-1H79.44v-.76h2.48v-.77H80.63V57.92h1.45a3.87,3.87,0,0,0-.38-.68l.71-.24H81a8.41,8.41,0,0,1-1.17,1.4c-.14-.17-.44-.57-.61-.74a6,6,0,0,0,1.58-2.11l.86.28c-.07.16-.15.3-.23.46H84V57H82.49a5.53,5.53,0,0,1,.43.7l-.67.22h2.11a5.7,5.7,0,0,0-.72-.39,4.54,4.54,0,0,0,1.41-2l.91.23-.24.52h2.76Zm-2.07,1.53H81.58V59h4.84Zm0,1H81.58v.49h4.84Zm0,1.06H81.58v.51h4.84Zm-1.18,1.09H82.88v.77h2.36Zm1.43-3.79a3.71,3.71,0,0,0-.54-.69l.51-.24H85.31a5.68,5.68,0,0,1-.77.93Z" fill="#002a5e"/>
    </g>
    <g>
      <path d="M48.39,34.25a11.62,11.62,0,0,1-1,3.81,4.5,4.5,0,0,0,1.82,2,3.09,3.09,0,0,0-.6.74,4.89,4.89,0,0,1-1.69-1.88,6.2,6.2,0,0,1-2.25,1.94,4.16,4.16,0,0,0-.34-.55l-.27.25a9.33,9.33,0,0,0-1.26-.61,9,9,0,0,1-2.66.87,2.07,2.07,0,0,0-.39-.62,8.78,8.78,0,0,0,2.17-.61c-.48-.17-1-.32-1.42-.44a9.94,9.94,0,0,0,.58-.83H39.91v-.67H41.5l.29-.56H40.34V35.36h1.83V35H40.53V33.86h-.69v-.7h.69v-1h1.64v-.63h.73v.63h1.75v1h.55v.7h-.55V35H42.9v.39h1.93v.48a14.37,14.37,0,0,0,1.35-4.35l.79.15c-.11.6-.25,1.19-.4,1.78h2.55v.83Zm-7.27,2.23h1.05v-.55H41.12Zm.14-3.74v.47h.91v-.47Zm.91,1.6v-.53h-.91v.53ZM42,38.28c-.1.17-.21.33-.3.48.34.1.7.23,1,.35a1.73,1.73,0,0,0,.66-.83Zm2.19,0a2.26,2.26,0,0,1-.66,1.14,7.81,7.81,0,0,1,1.08.51,4.94,4.94,0,0,0,2-1.91,14.14,14.14,0,0,1-.69-2.4,8.49,8.49,0,0,1-.48,1,6.4,6.4,0,0,0-.52-.48v.91h-2.2l-.29.56h1.11v-.35h.75v.35h.93v.67ZM42.9,32.74v.47h1v-.47Zm1,1.6v-.53h-1v.53Zm-1,1.59v.55H44v-.55Zm3.43-1.68,0,.08A14.27,14.27,0,0,0,47,37.07a11.72,11.72,0,0,0,.6-2.82Z" fill="#002a5e"/>
      <path d="M53.23,31.8a16,16,0,0,1-1,2.1v6.87h-1V35.38a9.58,9.58,0,0,1-.83,1,6.46,6.46,0,0,0-.53-1,11,11,0,0,0,2.4-3.9Zm5.93,7.67v.9h-6.3v-.9h3.51a38.19,38.19,0,0,0,.92-4.87l1,.16c-.28,1.53-.66,3.41-1,4.71Zm-.37-5.3H53.26v-.91h5.53Zm-4.25,4.92a40.74,40.74,0,0,0-.64-4.24l.84-.19a37.78,37.78,0,0,1,.73,4.15Zm1.15-5.88a9.9,9.9,0,0,0-.46-1.6l.89-.22A12.82,12.82,0,0,1,56.63,33Z" fill="#002a5e"/>
      <path d="M67.33,37.06a5.84,5.84,0,0,0,2.14,1.38,3.59,3.59,0,0,0-.61.73,6.47,6.47,0,0,1-2.56-2.11h-3a7.07,7.07,0,0,1-.89,1h1.85v-.76h1v.76h2v.75h-2v.91H68.6v.78H61v-.78h3.27v-.91H62.31v-.67a6.94,6.94,0,0,1-1.68,1.12,3.19,3.19,0,0,0-.6-.72,5.88,5.88,0,0,0,2.18-1.5H60.13v-.78h2V33.15H60.62v-.77h1.47V31.5H63v.88h3.45v-.87h1v.87h1.45v.77H67.44v3.13h1.91v.78ZM63,33.15v.57h3.45v-.57ZM63,35h3.45v-.57H63Zm0,1.3h3.45v-.61H63Z" fill="#002a5e"/>
      <path d="M71.62,39.54v.79h-.7V36.76a5.29,5.29,0,0,1-.52.78,6.07,6.07,0,0,0-.35-1,9.25,9.25,0,0,0,1.38-3.68h-1.1V32h3v.86h-1.1a18.15,18.15,0,0,1-.59,2.23h1.57v4.46Zm1-3.63h-1v2.8h1Zm4.28,3.84a4.59,4.59,0,0,0,.66,0h2.09a2.68,2.68,0,0,0-.26.8H77.47a2.94,2.94,0,0,1-2.9-1.31,3.22,3.22,0,0,1-1,1.55l-.65-.59a4,4,0,0,0,1.26-3l.78.14c0,.3-.07.58-.1.84A2.1,2.1,0,0,0,76,39.54V36.81H73.51V36h5.18l.15,0,.59.2a12.09,12.09,0,0,1-.58,1.5l-.71-.27a4.15,4.15,0,0,0,.23-.61H76.86v1h2.28v.76H76.86Zm-2.2-5.6a5.9,5.9,0,0,1-1,1.33,2.48,2.48,0,0,0-.42-.63,4.92,4.92,0,0,0,1.16-1.62h-.88v-.74h1.13v-1h.74v1h.9v.74h-.9v.06a12,12,0,0,1,1,1.07l-.46.55c-.11-.17-.32-.49-.53-.78v1.61h-.74Zm2.85.22a5,5,0,0,1-1,1.2,4.34,4.34,0,0,0-.41-.61,4.3,4.3,0,0,0,1.25-1.74h-.88v-.73h1v-1h.76v1h1.19v.73h-1c.34.4,1,1.23,1.18,1.47l-.53.64c-.15-.33-.52-.92-.82-1.4v1.81h-.76Z" fill="#002a5e"/>
      <path d="M83.42,35.06a12,12,0,0,1-.83,3.56,5.47,5.47,0,0,0,3.89,1.09h3.19a3.15,3.15,0,0,0-.34.87H86.46a6.1,6.1,0,0,1-4.25-1.17A4.83,4.83,0,0,1,81,40.79a3.35,3.35,0,0,0-.68-.62,4.07,4.07,0,0,0,1.26-1.47,7.39,7.39,0,0,1-.9-2l.7-.27A5.35,5.35,0,0,0,82,37.86a10.87,10.87,0,0,0,.5-2.09H81.41c-.19.1-.45.26-.45.38a5.28,5.28,0,0,0-.39-.74,1.46,1.46,0,0,0,.67-.64,12.93,12.93,0,0,0,1-1.86H80.6v-.82h2l.32-.14.59.38A23.57,23.57,0,0,1,82.08,35h.64l.17,0Zm2.31-2H83.94V32.3h1.79v-.8h.89v.8h2.23v1.37h.63v.72h-.63v1.39H86.62v.64H89v.69H86.62v.67h2.76v.74H86.62v.87h-.89v-.87H83.39v-.74h2.34v-.67H83.79v-.69h1.94v-.64H83.87V35h1.86v-.65h-2.4v-.72h2.4Zm.89,0v.63H88V33ZM88,34.39H86.62V35H88Z" fill="#002a5e"/>
      <path d="M94.44,33.93H90.57v-.75h1.8a11.71,11.71,0,0,0-.74-1.37l.74-.37a10.27,10.27,0,0,1,.75,1.32l-.73.42h2ZM94,35a2.1,2.1,0,0,0,1.22-2v-1.1h3.2v2.28c0,.29,0,.39.15.39h.52a1.74,1.74,0,0,0,.45-.06c0,.24,0,.57.07.79a1.58,1.58,0,0,1-.52.06h-.6c-.78,0-.94-.34-.94-1.21V32.71H96.09V33a2.93,2.93,0,0,1-1.5,2.73A4,4,0,0,0,94,35v.25H91v-.74h3Zm5.29,1.14A6.58,6.58,0,0,1,97.6,39a7.64,7.64,0,0,0,2.25.87,3.68,3.68,0,0,0-.59.85,7.07,7.07,0,0,1-2.42-1.11,8.21,8.21,0,0,1-2.43,1.14,4.74,4.74,0,0,0-.39-.73v.14H91.81v.46H91V37.23h3v2.7a7.47,7.47,0,0,0,2.09-.88A7.15,7.15,0,0,1,94.67,37l.55-.19h-.93v-.89h4.27l.16,0ZM91,35.87h3v.73H91ZM93.2,38H91.81v1.45H93.2Zm2.31-1.22a5.21,5.21,0,0,0,1.33,1.71,5.42,5.42,0,0,0,1.27-1.71Z" fill="#002a5e"/>
    </g>
    <g>
      <path d="M297,156a12.85,12.85,0,0,0-.92-1.13V159h-.91v-3.93a8.53,8.53,0,0,1-1.29,1,4.74,4.74,0,0,0-.39-.94,7.88,7.88,0,0,0,2.78-2.89h-2.5v-.85h1.92a7,7,0,0,0-.91-1.33l.72-.42a6.09,6.09,0,0,1,1,1.3l-.73.45h1l.16,0,.51.36a9.2,9.2,0,0,1-1.21,2.13c.41.36,1.16,1.11,1.36,1.32Zm5.92,1.76v.92h-5.78v-.92h2.55v-4h-2.1v-.9h2.1v-3.08h1v3.08h2.05v.9h-2.05v4Z" fill="#002a5e"/>
      <path d="M308.22,155.23v3.28h-2.5V159h-.86v-2.49a4.64,4.64,0,0,1-.57.69,3.42,3.42,0,0,0-.61-.74,4.81,4.81,0,0,0,1.25-2.17h-.63v-.81h.83c.06-.27.12-.55.16-.84h-1.46v-.79h1.55c0-.28.05-.57.07-.86h-1.1v-.8h3.73v1.66h.55v.79h-.55v1.65h-2.24c-.09.32-.19.62-.3.91Zm-2.5.82v1.65h1.59v-1.65Zm.46-3.38c0,.29-.09.57-.14.84h1.16v-.84Zm.17-1.65c0,.29-.05.58-.08.86h.93V151Zm6.78,5.72h-1.92V159h-.9v-2.29h-1.8v-.88h1.8v-1.29h-1.45v-.87h1.45v-1.17h-1.58v-.86h.73a5.28,5.28,0,0,0-.66-1.61l.76-.26a5.19,5.19,0,0,1,.71,1.63l-.64.24h3.29v.86h-1.71v1.17h1.51v.87h-1.51v1.29h1.92Zm-.39-6.8c-.26.6-.55,1.28-.8,1.73l-.77-.22a10.52,10.52,0,0,0,.67-1.73Z" fill="#002a5e"/>
      <path d="M315.05,156.38a15.12,15.12,0,0,1-.47,2.44,4.32,4.32,0,0,0-.68-.26,9.8,9.8,0,0,0,.43-2.31Zm2-2.76a14.3,14.3,0,0,1,.67,1.91l-.67.27q0-.2-.12-.45a10.79,10.79,0,0,0-2.65.52,4.27,4.27,0,0,0-.26-.79c.22-.06.43-.3.73-.69a7.77,7.77,0,0,0,.74-1,5.14,5.14,0,0,0-1.27.22,6.21,6.21,0,0,0-.28-.77,1.15,1.15,0,0,0,.54-.54,13,13,0,0,0,1.25-2.52l.77.33a17.46,17.46,0,0,1-1.44,2.6l.91-.07c.25-.46.52-.94.73-1.41l.71.45a20.2,20.2,0,0,1-2.14,3.24l1.45-.2c-.09-.28-.19-.57-.29-.82Zm-1,2.58c.12.68.23,1.54.27,2.11l-.68.18a19.73,19.73,0,0,0-.24-2.14Zm1-.27a14,14,0,0,1,.58,1.92l-.63.23a14.35,14.35,0,0,0-.54-1.94ZM323,158c0,.46-.08.69-.35.83a3.12,3.12,0,0,1-1.33.15,3.4,3.4,0,0,0-.25-.81c.39,0,.8,0,.92,0s.17,0,.17-.19v-7h-3.55v8h-.84V150.2H323Zm-1.75-1.58a2.88,2.88,0,0,0,.59-.05c0,.2,0,.48.06.67a2.85,2.85,0,0,1-.64,0h-1.1c-.73,0-.91-.28-.91-1v-.82h-.33v-.74h1.21a6.5,6.5,0,0,0-.33-.78l.53-.18h-1.49v-.73h1.78c.14-.45.32-1.13.41-1.6l.67.18c-.15.47-.32,1-.47,1.42H322v.73h-1.48a7.83,7.83,0,0,1,.38.8l-.37.16h1.37v.74H320v.83c0,.23,0,.32.23.32Zm-1.58-5.2a5.62,5.62,0,0,1,.48,1.39l-.58.2a5.44,5.44,0,0,0-.46-1.4Z" fill="#002a5e"/>
      <path d="M332.75,151a7.46,7.46,0,0,1-1.45,2.7,6.46,6.46,0,0,0,2.21,1.33,4.16,4.16,0,0,0-.58.78l-.2-.08V159h-.9v-.32h-2.26V159h-.86v-3.31c-.15.07-.29.14-.45.2a3.4,3.4,0,0,0-.26-.41h-1.18v1.6l1.25-.3.09.83c-1.39.36-2.85.71-4,1l-.16-.91.49-.1v-3.41h.77v3.25l.66-.15v-4h-1.4v-3.18h3.34v2.59a7.14,7.14,0,0,0,1.75-3l.91.23q-.13.39-.3.78H332l.17,0Zm-7.36,1.56H327V151h-1.65Zm2.61,2.56a6.9,6.9,0,0,0,2.14-1.44,7.32,7.32,0,0,1-.8-1.16,7.61,7.61,0,0,1-.78.95,8,8,0,0,0-.65-.56v.46h-1.09v1.34H328Zm4.11.29a7.16,7.16,0,0,1-1.39-1.08,7.94,7.94,0,0,1-1.4,1.08Zm-.28,2.48v-1.68h-2.26v1.68Zm-1.93-6.3-.09.18a7.1,7.1,0,0,0,.88,1.3,7,7,0,0,0,.9-1.48Z" fill="#002a5e"/>
    </g>
    <g>
      <path d="M301.47,181.06a11.52,11.52,0,0,1-1,3.81,4.4,4.4,0,0,0,1.81,1.95,3.31,3.31,0,0,0-.59.74,5,5,0,0,1-1.7-1.87,6,6,0,0,1-2.25,1.93,4.66,4.66,0,0,0-.33-.55l-.27.25a9.33,9.33,0,0,0-1.26-.61,9,9,0,0,1-2.66.87,2.3,2.3,0,0,0-.39-.62,8.91,8.91,0,0,0,2.17-.61c-.49-.17-1-.32-1.42-.44.18-.23.39-.53.58-.83H293v-.67h1.59c.1-.19.21-.38.3-.56h-1.45v-1.69h1.83v-.39h-1.64v-1.11h-.69V180h.69v-1h1.64v-.63H296v.63h1.74v1h.56v.7h-.56v1.11H296v.39h1.93v.49a14.25,14.25,0,0,0,1.34-4.36l.8.15c-.12.6-.25,1.2-.4,1.78h2.55v.84Zm-7.26,2.22h1.05v-.55h-1.05Zm.14-3.73V180h.91v-.46Zm.91,1.6v-.54h-.91v.54Zm-.22,3.93-.3.48c.34.1.69.23,1,.35a1.74,1.74,0,0,0,.66-.83Zm2.19,0a2.34,2.34,0,0,1-.66,1.14,9,9,0,0,1,1.07.51,5,5,0,0,0,2-1.91,13.87,13.87,0,0,1-.69-2.4,7.9,7.9,0,0,1-.49,1,4,4,0,0,0-.51-.49v.91h-2.2l-.29.56h1.11v-.35h.75v.35h.93v.67ZM296,179.55V180h1v-.46Zm1,1.6v-.54h-1v.54Zm-1,1.58v.55h1.11v-.55Zm3.43-1.67,0,.08a14.35,14.35,0,0,0,.67,2.73,11.74,11.74,0,0,0,.6-2.81Z" fill="#002a5e"/>
      <path d="M306.32,178.6a16,16,0,0,1-1,2.1v6.87h-.95v-5.39a9.58,9.58,0,0,1-.83,1,7.54,7.54,0,0,0-.53-1,11,11,0,0,0,2.4-3.9Zm5.93,7.67v.9H306v-.9h3.51a36.23,36.23,0,0,0,.91-4.87l1,.16c-.28,1.53-.66,3.42-1,4.71Zm-.38-5.3h-5.52v-.91h5.52Zm-4.24,4.92a40.74,40.74,0,0,0-.64-4.24l.84-.19a40,40,0,0,1,.73,4.16Zm1.15-5.88a10.2,10.2,0,0,0-.46-1.6l.89-.22a14.84,14.84,0,0,1,.51,1.56Z" fill="#002a5e"/>
      <path d="M316.16,186.83a9.57,9.57,0,0,0-.93-1.1,7,7,0,0,1-1.54,1.8,2.59,2.59,0,0,0-.61-.58,6,6,0,0,0,1.56-1.84c-.44-.45-.91-.89-1.32-1.27.18-.67.37-1.56.53-2.52l-.62,0-.09-.86.86,0c.11-.74.2-1.47.25-2.13l.8,0c-.06.64-.15,1.34-.25,2.06l.72,0v-.68h.79v.63l.41,0v.81l-.41,0a10.07,10.07,0,0,1-.67,3.77,9.58,9.58,0,0,1,1.07,1.17Zm-1.49-5.56c-.15.83-.32,1.63-.47,2.3.26.23.55.48.81.74a9.16,9.16,0,0,0,.51-3.09Zm7.8,3v.82h-2.93a3.69,3.69,0,0,1-2.7,2.56,2.86,2.86,0,0,0-.53-.77,3.14,3.14,0,0,0,2.27-1.79h-1.94v-.82h2.16a10.18,10.18,0,0,0,.12-1.19H317v-3.78h.83v3h4.05v2Zm-.85-2.56H318.4v-2.91h3.22Zm-.84-2.21h-1.59V181h1.59Zm-.85,5.87c.81.48,1.95,1.17,2.54,1.59l-.56.69c-.56-.44-1.69-1.17-2.51-1.67Zm-.1-2.29a10.64,10.64,0,0,1-.12,1.19h1.42V183Z" fill="#002a5e"/>
      <path d="M327.05,185.29a7.25,7.25,0,0,1-3.21,2,3.48,3.48,0,0,0-.63-.79,6.68,6.68,0,0,0,3.06-1.51Zm1.4-1.41h4v.78h-4v2.9h-.94v-2.9h-4.06v-.78h4.06v-.55h.94Zm-2.61-.49c0-.14,0-.29-.07-.46a10.09,10.09,0,0,0-2,.36,3.58,3.58,0,0,0-.25-.71c.2,0,.39-.25.63-.54.12-.14.39-.49.68-.92a3.48,3.48,0,0,0-1,.2c0-.15-.16-.52-.23-.7.12,0,.26-.19.4-.42a8.44,8.44,0,0,0,.83-1.83l.74.27a11,11,0,0,1-1,1.87l.71-.06c.18-.31.34-.62.49-.92l.68.37a16.11,16.11,0,0,1-1.8,2.54l1-.12c0-.23-.11-.47-.15-.69l.63-.13a16.61,16.61,0,0,1,.36,1.72Zm3.48-.31h-2.69v-3.87h.81a8.39,8.39,0,0,0,.19-1l.86.15c-.11.28-.22.58-.31.83h1.14Zm-.83-3.16h-1.06v.88h1.06Zm0,1.55h-1.06v.9h1.06Zm1.1,3.43a18.87,18.87,0,0,1,2.88,1.75l-.6.69a18.27,18.27,0,0,0-2.83-1.86Zm2.26-1.42c0-.13-.05-.27-.08-.43a8.9,8.9,0,0,0-2,.34,6.47,6.47,0,0,0-.25-.74c.2,0,.39-.25.63-.53a11.29,11.29,0,0,0,.71-.94,5.24,5.24,0,0,0-1.19.23,3.8,3.8,0,0,0-.24-.72c.14,0,.27-.2.41-.42a9.15,9.15,0,0,0,.86-1.9l.77.24a12.37,12.37,0,0,1-1,1.95l.86-.08c.17-.29.32-.58.46-.86l.71.38a15.25,15.25,0,0,1-1.86,2.54l1-.1c-.05-.22-.12-.43-.18-.62l.62-.17a13.69,13.69,0,0,1,.43,1.63Z" fill="#002a5e"/>
    </g>
    <g>
      <path d="M285.54,211.14v1.23h3.39v.85h-3.39v2.26h3.88v.86h-8.69v-.86h3.81v-2.26h-3.35v-.85h3.35v-1.23h-2.12v-.52a12.8,12.8,0,0,1-1.47.64,3.44,3.44,0,0,0-.63-.87,8.6,8.6,0,0,0,4.68-3.18l.89.4c-.1.13-.18.26-.27.38a10.74,10.74,0,0,0,4.22,2.4,4.18,4.18,0,0,0-.65.82,9.2,9.2,0,0,1-1.51-.69v.62Zm-2.81,2.18a8.34,8.34,0,0,1,1,1.75l-.82.36a8.75,8.75,0,0,0-.91-1.81Zm4.49-3a11.5,11.5,0,0,1-2.15-1.64,9,9,0,0,1-2,1.64Zm-.91,4.86a9.29,9.29,0,0,0,1-1.81l.92.33c-.39.64-.84,1.33-1.18,1.79Z" fill="#002a5e"/>
      <path d="M290.67,207.73h4.84v.79h-4.84Zm4.67,7.9c0,.37-.06.58-.3.71a2.91,2.91,0,0,1-1.11.12,2.8,2.8,0,0,0-.21-.72h.72c.1,0,.13,0,.13-.14v-3.3h-3v4.27h-.74v-5h4.52Zm-.3-4.52h-3.88V209H295Zm-1.62,3.34v1.84h-.69v-1.84h-.9v-.6h1.25a8.54,8.54,0,0,0,.63-1.4l.6.24c-.2.38-.41.8-.62,1.16h.59v.6Zm-1-1.95a4.64,4.64,0,0,1,.54,1.1l-.54.21a4.62,4.62,0,0,0-.51-1.13Zm1.78-2.83H292v.78h2.23Zm5,6.92c0-.22-.08-.5-.15-.81-1.13.22-2.3.44-3.19.59l-.21-.86c.44-.06,1-.13,1.59-.23v-2.09h-1.43v-3.93h1.43v-1.85h.83v1.85h1.42v3.93H298v1.95l.8-.12c-.12-.41-.25-.82-.39-1.18l.66-.15a13.9,13.9,0,0,1,.78,2.71Zm-2.7-4.21h.81v-2.31h-.81Zm2.27-2.31H298v2.31h.77Z" fill="#002a5e"/>
      <path d="M308.83,211.42a7.21,7.21,0,0,1-2.54,3.22,12.1,12.1,0,0,0,3.72,1,4.17,4.17,0,0,0-.59.91,11.39,11.39,0,0,1-4.08-1.3,14.45,14.45,0,0,1-4.21,1.36,3.08,3.08,0,0,0-.5-.9,14.28,14.28,0,0,0,3.82-1,7.61,7.61,0,0,1-2.09-2.53l.35-.13h-1.17v-.92h3.28v-1.39h-3.75v-.93h3.75v-1.44h1v1.44h3.78v.93h-3.78v1.39H308l.18,0Zm-5.49.57a6.16,6.16,0,0,0,2,2.15,6,6,0,0,0,2.08-2.15Z" fill="#002a5e"/>
      <path d="M314.23,207.66a15.47,15.47,0,0,1-1,2.13v6.79h-.95v-5.32a8.47,8.47,0,0,1-.89,1.05,5.82,5.82,0,0,0-.57-1,10.89,10.89,0,0,0,2.51-4Zm5.85,2.79h-1.2v5c0,.66-.17.92-.6,1.06a7.68,7.68,0,0,1-2.24.16,3.87,3.87,0,0,0-.36-.94c.82,0,1.66,0,1.9,0s.33-.08.33-.3v-5h-4v-.94h4v-2.1h1v2.1h1.2Zm-4.19,3.79a23.62,23.62,0,0,0-1.39-2.48l.82-.39c.49.76,1.15,1.79,1.45,2.4Z" fill="#002a5e"/>
    </g>
    <g>
      <path d="M284.94,118.83c-.19.65-.42,1.31-.67,1.93v7.11h-.83v-5.4a10,10,0,0,1-.63.93,5,5,0,0,0-.45-1,10.93,10.93,0,0,0,1.72-3.82Zm2.23,3.47a13,13,0,0,1-.75,3.55,4.34,4.34,0,0,0,3.29,1.07h2.07a2.43,2.43,0,0,0-.31.81h-1.79a4.91,4.91,0,0,1-3.64-1.13,4.39,4.39,0,0,1-1.1,1.29,3.16,3.16,0,0,0-.63-.59,3.71,3.71,0,0,0,1.18-1.37,7,7,0,0,1-.84-1.92l.67-.24a5.34,5.34,0,0,0,.53,1.33,9.88,9.88,0,0,0,.45-2.15h-1c-.15.09-.29.19-.29.28a4.16,4.16,0,0,0-.39-.67,1.55,1.55,0,0,0,.64-.64,12.49,12.49,0,0,0,.87-1.83h-1.19v-.82h1.51l.26-.11.55.37A18.08,18.08,0,0,1,286,122.2h.72Zm1.51-2.25h-1.2v-.67h1.2v-.75h.78v.75h1.63v1.32h.67v.71h-.67v1.38h-1.63v.63h1.74v.73h-1.74v.66h2v.74h-2v1.09h-.78v-1.09h-1.55v-.74h1.55v-.66h-1.31v-.73h1.31v-.63h-1.2v-.69h1.2v-.69h-1.63v-.71h1.63Zm.78,0v.65h.9v-.65Zm.9,1.36h-.9v.69h.9Z" fill="#002a5e"/>
      <path d="M298.35,125.24l.58.24a11.69,11.69,0,0,0,1.63-1.21l.7.56a18,18,0,0,1-1.53,1c.76.32,1.49.67,2,.93l-.43.67a31.37,31.37,0,0,0-2.92-1.41v.89c0,.52-.14.73-.49.86a6,6,0,0,1-1.76.14,2.53,2.53,0,0,0-.3-.79c.57,0,1.19,0,1.35,0s.24-.06.24-.23V126c-1,.46-2,.92-2.86,1.28l-.37-.77c.8-.29,2-.77,3.23-1.25v-1h-2.17a14.58,14.58,0,0,1,1.42.94l-.53.59a11.36,11.36,0,0,0-1.45-1l.47-.5h-.28v-.67h2.54v-.69H294.5v-.69h2.89v-.66h-2.45v-.65h2.45v-.62h-3.12v2.1a12.21,12.21,0,0,1-1,5.51,3.21,3.21,0,0,0-.76-.52,10.86,10.86,0,0,0,.87-5v-2.93h3.9c-.13-.25-.26-.49-.38-.7l.93-.24c.19.28.39.64.55.94h3.38v.83h-3.4v.62h2.57v1.24h.94v.81h-.94v1.31h-2.57Zm0-3.06H300v-.66h-1.68Zm0,1.38H300v-.69h-1.68Z" fill="#002a5e"/>
      <path d="M306.3,123.23V127c0,.37-.07.56-.31.69a2.6,2.6,0,0,1-1.14.14,2.87,2.87,0,0,0-.26-.71h.79c.1,0,.13,0,.13-.13v-1.16l-1.19.74L304,126a4.57,4.57,0,0,1-.61,1.92,2.79,2.79,0,0,0-.66-.48,4.79,4.79,0,0,0,.57-2.61v-1.6h-.5v-1.49h.41v-2.83h3.09v2.83h.42v1.49Zm-.27-.83h-2.5v.54H306Zm-2-.66h.52v-1.59h1.05v-.54H304Zm.12,3.1a8,8,0,0,1-.06,1.07c.41-.16.93-.42,1.47-.7v-1.62H304.1v.7l.37-.4a7,7,0,0,1,1,.78l-.42.49a7.17,7.17,0,0,0-1-.82Zm1.45-3.1v-1H305v1ZM312,127v.7h-5.28V127h1.34a8.89,8.89,0,0,0-.32-.86l.68-.2h-1.14V124h4.17v1.91H310.3l.77.21c-.18.29-.33.58-.48.85Zm-.1-3.39h-5.07v-.7h5.08Zm-.24-1.14H307v-3.12h1.25v-.75H309v.75h.61v-.75h.75v.75h1.3Zm-3.93-1.88h.67V120h-.67Zm0,1.23h.67v-.62h-.67Zm.37,3.52h2.47v-.71h-2.47Zm.35.6a10,10,0,0,1,.44,1.06h.89c.15-.34.31-.77.41-1.06Zm1.19-5.35V120H309v.61Zm-.64.61v.62h.64v-.62ZM311,120h-.68v.61H311Zm0,1.22h-.68v.62H311Z" fill="#002a5e"/>
      <path d="M317.17,126.93c0,.43-.09.64-.37.77a3.8,3.8,0,0,1-1.37.14,2.41,2.41,0,0,0-.3-.75c.43,0,.84,0,1,0s.17,0,.17-.17v-1.34c-.61.38-1.21.77-1.73,1.08l-.27-.67a4.14,4.14,0,0,1-.72,1.9,2.67,2.67,0,0,0-.66-.64,4.63,4.63,0,0,0,.62-2.72v-2.38h3.65Zm-.62-7.61a15.19,15.19,0,0,1,1.27,2.25l-.81.35a3.63,3.63,0,0,0-.3-.66,16,16,0,0,0-3.3.41,8,8,0,0,0-.29-.87,1.31,1.31,0,0,0,.53-.4,9.09,9.09,0,0,0,1.25-1.81l1,.28a12.83,12.83,0,0,1-1.34,1.77l1.81-.13c-.18-.31-.37-.64-.54-.91Zm-2.16,5.23a9.66,9.66,0,0,1-.08,1.28c.53-.23,1.24-.6,2-1v-.38l-.45.45a14.93,14.93,0,0,0-1.44-1.09l.49-.44c.46.28,1.05.7,1.4,1V123h-1.89Zm4.92-1.6c-1,0-1.31-.35-1.31-1.33v-3h.93v1.3h2.62v.81h-2.62v.94c0,.36.07.49.4.49H321a5.94,5.94,0,0,0,.87-.06c0,.24.05.6.09.8a4,4,0,0,1-.94.07Zm1.59,4c.37,0,.45-.18.5-1.2a2.05,2.05,0,0,0,.83.34c-.12,1.33-.37,1.69-1.25,1.69h-1.64c-1.07,0-1.34-.28-1.34-1.22v-3.3h.93v1.11h2.71v.84h-2.71v1.34c0,.34.08.4.53.4Z" fill="#002a5e"/>
    </g>
    <g>
      <path d="M4.72,182.22a7.25,7.25,0,0,1-2.87,4.44A5,5,0,0,0,1.1,186a5.86,5.86,0,0,0,2.43-3.07H1.32V182H3.93l.17,0Zm5.42-.82a24.4,24.4,0,0,1-2.57,2.1,6.2,6.2,0,0,0,2.93,2.33,4.46,4.46,0,0,0-.66.83,7.06,7.06,0,0,1-3.51-3.53v3c0,.53-.12.81-.48,1a5.08,5.08,0,0,1-1.77.17,3.8,3.8,0,0,0-.34-.94c.56,0,1.18,0,1.35,0s.23-.06.23-.23v-5.19H2.65V180H6.33v.81a10.93,10.93,0,0,0,.79,1.94,15.54,15.54,0,0,0,2.16-2Zm-2.93-1.24a17.4,17.4,0,0,0-3.69-1.38L4,178a16.86,16.86,0,0,1,3.72,1.28Z" fill="#002a5e"/>
      <path d="M12.43,184.63a14.18,14.18,0,0,1-.5,2.59,4,4,0,0,0-.71-.24,11.15,11.15,0,0,0,.47-2.49Zm1.64-.42c0-.16-.06-.34-.1-.56a9.71,9.71,0,0,0-2.4.47,5.2,5.2,0,0,0-.27-.78c.22-.06.43-.3.72-.69a11,11,0,0,0,.71-1,4.75,4.75,0,0,0-1.23.22,6.53,6.53,0,0,0-.27-.77c.18,0,.34-.24.53-.56A12.16,12.16,0,0,0,12.92,178l.8.32a16,16,0,0,1-1.35,2.61l.85-.07c.23-.45.47-.91.68-1.37l.73.42a19.27,19.27,0,0,1-2.05,3.23l1.24-.17c-.08-.3-.18-.61-.27-.89l.65-.17a15.72,15.72,0,0,1,.56,2.12Zm-.74.26a20.84,20.84,0,0,1,.26,2.32l-.7.14a20.29,20.29,0,0,0-.21-2.34Zm.88-.25a16.65,16.65,0,0,1,.53,1.85l-.64.2a14,14,0,0,0-.5-1.88Zm4.36,1.6c.72.26,1.48.56,2,.78l-.38.67c-.54-.25-1.39-.64-2.15-.92l.3-.53H16.67l.56.52c-.77.35-1.75.73-2.46,1a3.63,3.63,0,0,0-.36-.66,16.83,16.83,0,0,0,2.06-.85H15v-3h5v3Zm-1.47-6.71H14.61v-.63H17.1V178H18v.5h2.37v.63H18v.45h2v.61H15v-.61h2.1Zm-2.44,1.4h5.69v2H14.66Zm.78,1.34h1v-.73h-1Zm.39,1.88h3.32v-.36H15.83Zm0,.77h3.32v-.37H15.83Zm0,.8h3.32v-.4H15.83ZM18,181.85v-.73h-.88v.73Zm1.54-.73h-.82v.73h.82Z" fill="#002a5e"/>
      <path d="M30.11,185.26a13.88,13.88,0,0,1-1.75.7,7.81,7.81,0,0,0,2.36.54,3.37,3.37,0,0,0-.51.76c-2.1-.27-3.5-1-4.27-2.43H24.87v1.41l1.75-.35c0,.22,0,.56,0,.72a14.57,14.57,0,0,0-2.77.73,2.56,2.56,0,0,0-.29-.76.7.7,0,0,0,.42-.68v-1.07h-.81a5.29,5.29,0,0,1-1,2.47,3.84,3.84,0,0,0-.79-.47,5.79,5.79,0,0,0,1-3.6v-1.3h7.92v.7h-7v.44h6.58v.61H23.28a3.55,3.55,0,0,1,0,.46h7.31v.69h-1Zm-.29-3.73H22.48v-2.89h2.07V178h.92v.66h1.26V178h.93v.66h2.16Zm-6.48-1.74h1.21v-.53H23.34Zm0,1.12h1.21v-.54H23.34Zm2.13-1.65v.53h1.26v-.53Zm0,1.11v.54h1.26v-.54Zm1.37,4.46a3.11,3.11,0,0,0,.82.75,11.6,11.6,0,0,0,1.59-.75Zm2.08-5.57H27.66v.53h1.26Zm0,1.11H27.66v.54h1.26Z" fill="#002a5e"/>
      <path d="M35.33,185.68a8.62,8.62,0,0,1-3,1.31,4.18,4.18,0,0,0-.57-.69,8.6,8.6,0,0,0,2.9-.94Zm5.3-1.54v.79h-4v2.35h-.92v-2.35H31.79v-.79h3.93v-.61h-3v-.71h3v-.61H32.23v-.73h2a5.56,5.56,0,0,0-.44-.88l.58-.14H31.83v-.75h1.51a8.08,8.08,0,0,0-.74-1.37l.82-.28a7.14,7.14,0,0,1,.81,1.45l-.54.2h1.14V178h.88v1.74h1V178h.89v1.74h1.11l-.4-.13a7.93,7.93,0,0,0,.71-1.5l1,.25a14.65,14.65,0,0,1-.85,1.38H40.6v.75H38l.79.2c-.22.31-.46.58-.66.82h2.15v.73H36.64v.61h3.11v.71H36.64v.61Zm-5.88-3.68a4.31,4.31,0,0,1,.47.89l-.45.13h2.76l-.36-.12a8.51,8.51,0,0,0,.57-.9Zm3.06,4.83c.89.33,2.12.82,2.8,1.14L40,187c-.63-.32-1.87-.85-2.79-1.21Z" fill="#002a5e"/>
    </g>
    <g>
      <path d="M4,155.56v1.62H3.1v-1.62H1.57v-.8H3.1V154H1.88v-3.65H3.13v-.68H1.68v-.8H3.13v-1h.8v1H5.38v.8H3.93v.68H5.22V154H4v.72H5.41v.8Zm-1.38-3.68h.63v-.8H2.59Zm0,1.48h.63v-.82H2.59Zm1.89-2.28H3.86v.8h.62Zm0,1.46H3.86v.82h.62Zm3.71,3.75c0,.34-.06.56-.29.68a2.2,2.2,0,0,1-1,.14,2.71,2.71,0,0,0-.24-.71c.32,0,.62,0,.7,0s.13,0,.13-.13v-1.06H6.38a4.94,4.94,0,0,1-.6,2,2.33,2.33,0,0,0-.61-.43,5.94,5.94,0,0,0,.57-2.95v-2.13H8.19Zm.54-8.2-.16.32a6.48,6.48,0,0,0,2.39,2,2.32,2.32,0,0,0-.55.68,7.83,7.83,0,0,1-.92-.63V151H6.85v-.53a7.54,7.54,0,0,1-.95.68,3.36,3.36,0,0,0-.6-.67A6.26,6.26,0,0,0,8,147.82Zm-1.24,6.45v-.78h-1v.05c0,.22,0,.47,0,.73Zm-1-2.2v.75h1v-.75Zm2.85-2.07a6.43,6.43,0,0,1-1.16-1.22,7,7,0,0,1-1.09,1.22Zm0,5.21H8.68v-3.63h.65Zm.51-4h.69v4.75c0,.38-.07.59-.33.71a3.19,3.19,0,0,1-1.23.13,3.18,3.18,0,0,0-.23-.7h1c.11,0,.14,0,.14-.15Z" fill="#002a5e"/>
      <path d="M14.33,152.83a9.72,9.72,0,0,1-.52,2.14c.63,1.09,1.83,1.25,3.62,1.25,1.06,0,2.61-.05,3.68-.15a2.9,2.9,0,0,0-.3.87c-1,.06-2.26.09-3.39.09-2,0-3.18-.2-4-1.3a4.65,4.65,0,0,1-1.24,1.49,3.24,3.24,0,0,0-.63-.65,4.78,4.78,0,0,0,1.81-3.14h-.86a1.06,1.06,0,0,0-.6.15,4.66,4.66,0,0,0-.32-.79,1.07,1.07,0,0,0,.5-.32A13.87,13.87,0,0,0,13.23,151H11.77v-.76h2.05l.12-.05.59.26c-.4.58-1.08,1.57-1.62,2.26h.87l.15,0Zm-1.05-2.89a12.27,12.27,0,0,0-1.19-1.62l.71-.42A12,12,0,0,1,14,149.44Zm6.83,5.84c-.54-.55-1.56-1.44-2.44-2.17a5.24,5.24,0,0,1-2.45,2.17,3.68,3.68,0,0,0-.65-.66,3.84,3.84,0,0,0,2.47-2.4H14.69v-.86h2.5c0-.13,0-.25,0-.37v-.93H15v-.86h1.31c-.19-.4-.56-1-.84-1.5l.8-.29c.3.47.71,1.12.9,1.51l-.68.28h1.7a11.4,11.4,0,0,0,.85-1.81l.94.29c-.27.51-.58,1.06-.85,1.52H20.5v.86H18.13v.95c0,.12,0,.23,0,.35h2.64v.86H18l0,.07c.94.75,2.17,1.72,2.81,2.33Z" fill="#002a5e"/>
      <path d="M21.92,148.31h4.77v.79H25.33v1.17h1.22V157h-.77v-.56h-3v.7h-.74v-6.9h1.18V149.1H21.92Zm3.86,7.42v-2.48h-.53c-.48,0-.62-.14-.62-.74v-1.45H24v.75a2.33,2.33,0,0,1-.81,1.88,1.77,1.77,0,0,0-.41-.36v2.4Zm-3-4.67v2.24a1.79,1.79,0,0,0,.65-1.5v-.74Zm.36,3.08h2.23v.74H23.18Zm1.41-5H24v1.17h.59Zm1.19,2h-.59v1.44c0,.14,0,.16.13.16h.32a.33.33,0,0,0,.14,0Zm4,5.15c.41,0,.48-.25.53-1.65a2.61,2.61,0,0,0,.85.38c-.11,1.66-.36,2.14-1.3,2.14H28.36c-1,0-1.29-.27-1.29-1.32v-4.18h2.82v-2.32H27v-.9H30.8v4.12H28v3.27c0,.39.07.46.48.46Z" fill="#002a5e"/>
      <path d="M33.19,151.67H32.3v-2.21h3.82v-.54H32.73v-.65h7.73v.65H37v.54H41v2.21H40V150.1H37v2.21h-.92V150.1H33.19Zm6.64,4.65c.51,0,.61-.16.67-1.1a2.44,2.44,0,0,0,.79.3c-.12,1.22-.38,1.54-1.4,1.54H37.67c-1.25,0-1.59-.24-1.59-1.15v-.2h-2v.49h-.9v-3.57h6.87v3.08H37v.19c0,.35.12.42.75.42Zm-6.57-4.62,2.4-.33,0,.54c-.77.19-1.52.35-2.18.48Zm.56-1.5a10.06,10.06,0,0,1,1.85.5l-.25.53a12.65,12.65,0,0,0-1.88-.54Zm.27,3.09v.58h2v-.58Zm2,1.76v-.58h-2v.58Zm3.06-1.76H37v.58h2.16Zm0,1.76v-.58H37v.58Zm.56-2.65a13.43,13.43,0,0,0-2.34-.56l.2-.55a13.3,13.3,0,0,1,2.34.49Zm0-1.74a12.4,12.4,0,0,1-1.89.52l-.33-.45c.55-.13,1.36-.43,1.84-.59Z" fill="#002a5e"/>
    </g>
    <g>
      <path d="M16.2,125.26V126h-.78v-3.41a5.82,5.82,0,0,1-.47.68,5.67,5.67,0,0,0-.38-1.06A9.24,9.24,0,0,0,16,118.56H14.79v-.85h3.39v.85H16.84a15.65,15.65,0,0,1-.6,2.24h1.7v4.46Zm1-3.63h-1v2.8h1ZM20.08,124a14.45,14.45,0,0,0-.8-1.53,8.37,8.37,0,0,1-.9,4.06,3.38,3.38,0,0,0-.73-.47,7.42,7.42,0,0,0,.8-3.84v-2h5.41v.8H19.28v1.27l.52-.3c.31.52.72,1.2.92,1.59Zm3.49-4.35h-5v-2.11h.85v1.34h1.18v-1.65h.83v1.65h1.22v-1.34h.88Zm-1.65,1.75c0,.55-.06,1.08-.11,1.57a4.46,4.46,0,0,0,2.12,2.8,2.83,2.83,0,0,0-.55.69,4.85,4.85,0,0,1-1.86-2.22,3.56,3.56,0,0,1-1.91,2.27,2.84,2.84,0,0,0-.53-.68c1.72-.81,1.93-2.35,2-4.43Zm.24,2.13a8.66,8.66,0,0,0,1-1.58l.72.49c-.42.52-.84,1.1-1.19,1.49Z" fill="#002a5e"/>
      <path d="M27.93,122.3l-1,.33v2.83c0,.46-.09.72-.37.87a3,3,0,0,1-1.31.17,3.42,3.42,0,0,0-.26-.87c.41,0,.78,0,.89,0s.19,0,.19-.17V122.9l-1.11.34-.21-.91c.36-.09.82-.22,1.32-.37V120H24.85v-.87H26v-2h.86v2h1V120h-1v1.67l.92-.27Zm1.69-5.11h.84v4.25c0,2-.22,3.83-2,5.06a5,5,0,0,0-.67-.63,3.72,3.72,0,0,0,1.55-2l-1.44.54-.36-.82c.53-.14,1.25-.36,2-.6a10.9,10.9,0,0,0,.09-1.16h-1.5V121h1.5v-1.25H28v-.85h1.58ZM34.11,124H32.26v2.46h-.89v-9.29h.89v1.69h1.68v.85H32.26V121h1.57v.84H32.26v1.34h1.85Z" fill="#002a5e"/>
      <path d="M36.66,118.62a7.4,7.4,0,0,1-1,1.29,7.56,7.56,0,0,0-.64-.62,6.06,6.06,0,0,0,1.5-2.17l.85.24a3.54,3.54,0,0,1-.25.52h2.43v.74H37.8a5.41,5.41,0,0,1,.76.75l-.6.53a6.89,6.89,0,0,0-.93-1l.38-.31Zm3.09.61a4.08,4.08,0,0,1,.41.77h3.66v1.71h-1v-1H36.39v1h-.91V120h3.73c-.09-.21-.19-.42-.29-.6ZM37.58,124h5.54v2.51h-.93v-.29H37.58v.31h-.95v-5.25h6v2.12h-5Zm0-2v.71h4.09V122Zm0,2.72v.79h4.61v-.79Zm6.6-6.81v.74h-2a5.53,5.53,0,0,1,.92.83l-.63.54a8.33,8.33,0,0,0-1.08-1l.44-.35H40.79a4.77,4.77,0,0,1-.72.81,5.35,5.35,0,0,0-.71-.57,4.07,4.07,0,0,0,1.26-1.73l.86.21a5.22,5.22,0,0,1-.24.54Z" fill="#002a5e"/>
      <path d="M48.45,124.44c-1.11.38-2.28.78-3.19,1.07l-.23-1,1.3-.38V121.6h-1.1v-.87h1.1v-2h-1.2v-.87h3.23v.87H47.23v2h1v.87h-1v2.29c.35-.11.71-.22,1.05-.35Zm6,.88v.86H48v-.86H50.9v-1.21H48.7v-.85h2.2v-1H48.79v-4.56H54v4.56H51.86v1h2.25v.85H51.86v1.21Zm-4.78-5.77H51v-1.09H49.65Zm0,1.87H51v-1.11H49.65Zm3.43-3h-1.3v1.09h1.3Zm0,1.85h-1.3v1.11h1.3Z" fill="#002a5e"/>
    </g>
    <g>
      <path d="M32.22,213.61a7.4,7.4,0,0,0,3.91,4.87,4.53,4.53,0,0,0-.7.87,8,8,0,0,1-3.94-5A8,8,0,0,1,30.34,217l.28-.19a14,14,0,0,1,1.89,1.89l-.84.61A12.94,12.94,0,0,0,30,217.43a7,7,0,0,1-2.57,1.91,3.21,3.21,0,0,0-.7-.79,6.29,6.29,0,0,0,3.92-4.94H27v-1h3.8c.09-.94.08-1.83.09-2.61h1c0,.79,0,1.69-.12,2.61h4.11v1Z" fill="#002a5e"/>
      <path d="M40.28,210.79c-.28.85-.64,1.91-1,2.7a3.06,3.06,0,0,1,.84,2.11,1.38,1.38,0,0,1-.42,1.2,1.34,1.34,0,0,1-.55.2,4.74,4.74,0,0,1-.66,0,1.78,1.78,0,0,0-.23-.81,3.14,3.14,0,0,0,.52,0,.54.54,0,0,0,.31-.09c.15-.1.19-.34.19-.64a2.82,2.82,0,0,0-.82-1.89c.25-.68.51-1.58.7-2.27H38.12v8h-.83v-8.87h2.23l.14,0ZM42.23,215c-.1.21-.2.41-.32.61h4l0,.34c-.1,2-.23,2.75-.49,3a.8.8,0,0,1-.57.29,5.29,5.29,0,0,1-.93,0,2.22,2.22,0,0,0-.22-.79c.32,0,.6,0,.72,0a.34.34,0,0,0,.29-.1,5.62,5.62,0,0,0,.32-2.09h-.48a6.78,6.78,0,0,1-1.95,2.92,6.45,6.45,0,0,0-.6-.53,5.39,5.39,0,0,0,1.72-2.39H43a7.55,7.55,0,0,1-2.44,2.74,4.64,4.64,0,0,0-.52-.6,6.07,6.07,0,0,0,2.1-2.14h-.7a5.87,5.87,0,0,1-1.17,1.12,5.48,5.48,0,0,0-.59-.59A5,5,0,0,0,41.37,215H40.16v-.77h6V215Zm3.18-1.28H41v-3.33h4.42Zm-.9-2.64H41.85v.65h2.66Zm0,1.29H41.85v.66h2.66Z" fill="#002a5e"/>
      <path d="M51.33,218.4c0,.43-.09.64-.38.77a4.06,4.06,0,0,1-1.37.13,2.9,2.9,0,0,0-.29-.75c.43,0,.84,0,1,0s.18,0,.18-.16v-1.35c-.61.39-1.21.77-1.74,1.09l-.26-.67a4.06,4.06,0,0,1-.72,1.89,3,3,0,0,0-.66-.63,4.63,4.63,0,0,0,.62-2.72v-2.38h3.65Zm-.62-7.62A16.21,16.21,0,0,1,52,213l-.82.35a3.92,3.92,0,0,0-.29-.66,17.63,17.63,0,0,0-3.3.4,6.87,6.87,0,0,0-.3-.86,1.27,1.27,0,0,0,.54-.4,10.62,10.62,0,0,0,1.25-1.82l1,.29a14.22,14.22,0,0,1-1.35,1.77l1.82-.13c-.19-.32-.37-.64-.54-.91ZM48.55,216a9.66,9.66,0,0,1-.08,1.28c.53-.24,1.24-.6,2-1V216l-.45.45a14.93,14.93,0,0,0-1.44-1.09l.49-.44c.45.28,1.05.7,1.4,1v-1.43H48.55Zm4.92-1.6c-1,0-1.31-.35-1.31-1.33v-3h.93v1.31H55.7v.81H53.09v.93c0,.37.07.5.4.5h1.7a5.94,5.94,0,0,0,.87-.06c0,.24,0,.6.09.8a4,4,0,0,1-.94.07Zm1.59,4c.37,0,.45-.18.49-1.2a2.11,2.11,0,0,0,.83.34c-.11,1.33-.36,1.68-1.24,1.68H53.5c-1.07,0-1.34-.27-1.34-1.21v-3.31h.93v1.12H55.8v.84H53.09V218c0,.34.08.4.53.4Z" fill="#002a5e"/>
    </g>
    <g>
      <path d="M245.06,62.25a15.2,15.2,0,0,1-.46,2.44,4.81,4.81,0,0,0-.68-.27,10.82,10.82,0,0,0,.43-2.31Zm2-2.76a16.4,16.4,0,0,1,.67,1.9l-.67.28c0-.13-.07-.29-.12-.46a11.39,11.39,0,0,0-2.66.53A5.07,5.07,0,0,0,244,61c.21-.06.43-.31.73-.69a9.82,9.82,0,0,0,.74-1,5.3,5.3,0,0,0-1.28.22,5.52,5.52,0,0,0-.27-.77c.17-.05.35-.25.54-.55a12.42,12.42,0,0,0,1.24-2.51l.77.32a15.93,15.93,0,0,1-1.44,2.61l.92-.07c.25-.46.51-.95.73-1.41l.7.44a19.6,19.6,0,0,1-2.13,3.25l1.45-.21c-.1-.27-.2-.56-.3-.82Zm-1,2.57c.12.68.23,1.54.27,2.12l-.69.17a19.85,19.85,0,0,0-.23-2.14Zm1-.26a16,16,0,0,1,.58,1.91l-.63.24a13.58,13.58,0,0,0-.55-2ZM253,63.91c0,.45-.08.69-.36.83a3.07,3.07,0,0,1-1.32.15,3.31,3.31,0,0,0-.26-.81c.4,0,.8,0,.93,0s.17,0,.17-.19v-7h-3.55v8h-.84V56.07H253Zm-1.76-1.58a2.76,2.76,0,0,0,.59,0c0,.2,0,.47.06.66a2.27,2.27,0,0,1-.64.06h-1.09c-.74,0-.91-.29-.91-1v-.82h-.34v-.74h1.22a7.26,7.26,0,0,0-.33-.78l.52-.17h-1.49v-.73h1.79a15,15,0,0,0,.4-1.6l.68.18c-.15.47-.32,1-.48,1.42H252v.73h-1.48a5.76,5.76,0,0,1,.39.8l-.37.15h1.36v.74H250V62c0,.24,0,.33.22.33Zm-1.58-5.2a5.05,5.05,0,0,1,.49,1.39l-.59.2a5.45,5.45,0,0,0-.45-1.41Z" fill="#002a5e"/>
      <path d="M262.77,56.81a7.42,7.42,0,0,1-1.45,2.71,6.62,6.62,0,0,0,2.21,1.33,3.52,3.52,0,0,0-.58.78l-.2-.08v3.29h-.9v-.33h-2.26v.36h-.86V61.56l-.45.2a4.45,4.45,0,0,0-.26-.42h-1.19V63l1.26-.29.09.83c-1.39.36-2.86.71-4,1l-.16-.91.48-.09V60h.77v3.25l.67-.15v-4h-1.41V56h3.35v2.6a7.31,7.31,0,0,0,1.75-3l.91.22c-.09.26-.19.53-.3.78H262l.16,0Zm-7.37,1.56h1.66V56.81H255.4ZM258,60.94a7.08,7.08,0,0,0,2.14-1.44,7.69,7.69,0,0,1-.81-1.17,7.69,7.69,0,0,1-.77,1,6.26,6.26,0,0,0-.65-.56v.46h-1.1v1.33H258Zm4.11.28a7.19,7.19,0,0,1-1.4-1.07,7.47,7.47,0,0,1-1.39,1.07Zm-.28,2.48V62h-2.26V63.7Zm-1.94-6.3-.09.18a6.93,6.93,0,0,0,.88,1.3,5.86,5.86,0,0,0,.9-1.48Z" fill="#002a5e"/>
      <path d="M271.31,60.51a6.2,6.2,0,0,1-1.08,2.08,21.75,21.75,0,0,1,2.95,1.48l-.71.83a19.37,19.37,0,0,0-3-1.58,8.93,8.93,0,0,1-4.35,1.6,4.86,4.86,0,0,0-.59-.94,9,9,0,0,0,3.87-1.13c-.92-.37-1.87-.71-2.72-1a14,14,0,0,0,.88-1.36H264.5v-.89h2.59a13.43,13.43,0,0,0,.76-1.67l1.07.19a15.69,15.69,0,0,1-.66,1.48h2.15c.06-.29.12-.62.16-1l1.14.09c0,.3-.1.6-.16.87h1.73v.89Zm-5.63-1.66h-.95V56.72h3.68c-.13-.3-.3-.67-.43-.95l1-.25c.19.37.43.85.58,1.2H273v2.13h-1V57.61h-6.35Zm2.09,1.66c-.19.34-.38.65-.56.94.66.22,1.35.46,2,.72a4.28,4.28,0,0,0,.95-1.66Z" fill="#002a5e"/>
      <path d="M279.48,63.79h3.84v.85h-8.56v-.85h3.72V62.3h-2.72v-.82h2.72V60.1h-2.27v-.82a13.75,13.75,0,0,1-1.31.81,3.66,3.66,0,0,0-.59-.77,12.3,12.3,0,0,0,3.58-2.56h-1.62v-.88h3.24a9.75,9.75,0,0,0,4.23,3.32,4.72,4.72,0,0,0-.64.85,11.35,11.35,0,0,1-1.3-.74v.79h-2.32v1.38h2.75v.82h-2.75Zm-3.25-4.52h5.51A12.25,12.25,0,0,1,279,56.76,14.28,14.28,0,0,1,276.23,59.27Z" fill="#002a5e"/>
      <path d="M291.19,64.23a11.19,11.19,0,0,1-1.36-1,3.07,3.07,0,0,1-2.29.94c-1.56,0-2.5-.83-2.5-2.06,0-1,.74-1.59,1.55-2.09a3.12,3.12,0,0,1-.63-1.73,1.75,1.75,0,0,1,1.84-1.84,1.54,1.54,0,0,1,1.72,1.57c0,1-.77,1.59-1.58,2.12a19.17,19.17,0,0,0,1.82,1.66,4.45,4.45,0,0,0,.68-1.83h1.06a6.68,6.68,0,0,1-1,2.44,12.44,12.44,0,0,0,1.24.84Zm-3.55-.92a2.16,2.16,0,0,0,1.45-.67,22.67,22.67,0,0,1-2-1.91c-.56.39-1,.81-1,1.39C286.1,62.89,286.75,63.31,287.64,63.31Zm-.21-3.75c.65-.4,1.18-.82,1.18-1.45a.76.76,0,0,0-.78-.81.89.89,0,0,0-.92,1A2.27,2.27,0,0,0,287.43,59.56Z" fill="#002a5e"/>
      <path d="M300.13,63.6a11,11,0,0,0,1.76-.12c0,.24.09.68.14.89a11.5,11.5,0,0,1-1.93.1h-4.24c-1.65,0-2.42-.51-2.42-2.14V56.86H293V56h8.5v.84h-7.17V62.4c0,.86.34,1.2,1.41,1.2ZM295,60.31h2.68V63H295Zm.77,2h1.1V61h-1.1Zm4.13-2.56h-3.83v-2.3h3.83ZM299,58.07h-2v1h2ZM301.06,63h-2.77V60.31h2.77Zm-.82-2h-1.17v1.31h1.17Z" fill="#002a5e"/>
      <path d="M306.33,62.36c-1.07.45-2.23.92-3.12,1.27l-.29-1c.36-.11.81-.27,1.3-.46V58.92h-1.14V58h1.14v-2.3h.88V58h1v.89h-1v3l1-.39Zm5,1.66c.25,0,.3-.11.33-.73a2.09,2.09,0,0,0,.73.31c-.09.93-.33,1.18-1,1.18h-1.31c-.89,0-1.11-.24-1.11-1.09v-2.9h-.56c-.14,1.84-.52,3.3-2.12,4.13a2.51,2.51,0,0,0-.55-.71c1.4-.66,1.69-1.89,1.82-3.42h-1.12V56.61h1a10.75,10.75,0,0,0,.31-1l1,.13c-.13.31-.27.64-.41.91h3.39v4.18h-2v2.89c0,.3.06.34.39.34Zm-4.05-5.69h1.41v-1h-1.41Zm0,1.7h1.41v-1h-1.41ZM311,57.37h-1.4v1H311Zm0,1.68h-1.4v1H311Zm.82,4.29c0-.09-.06-.2-.1-.3a7.59,7.59,0,0,0-1.64.25,4.12,4.12,0,0,0-.21-.58c.11,0,.21-.13.29-.29a5.44,5.44,0,0,0,.54-1.42l.59.18a8.56,8.56,0,0,1-.65,1.46l.89-.08c-.11-.26-.23-.53-.34-.76l.45-.17a13,13,0,0,1,.66,1.49Z" fill="#002a5e"/>
      <path d="M316.42,63.81l-3.09.79-.22-.85,1.38-.29V60.61h-1.23v-.77h1.23v-1h-.74v-.51a4.09,4.09,0,0,1-.41.42A4.78,4.78,0,0,0,313,58a6.87,6.87,0,0,0,1.76-2.44l.71.23a4,4,0,0,1-.21.47,7.23,7.23,0,0,1,1.32,1.21l-.36.73a7.83,7.83,0,0,0-1.33-1.29,8.91,8.91,0,0,1-.89,1.24H316v.75h-.86v1h1.11v.77h-1.11v2.71l1.16-.27Zm-2.49-2.7a11.77,11.77,0,0,1,.36,1.83l-.58.18a12.22,12.22,0,0,0-.31-1.86Zm1.35,1.71c.13-.49.28-1.29.36-1.83l.63.2c-.17.61-.33,1.33-.47,1.8Zm3-2.36a11.08,11.08,0,0,1-.47,2.27c.5,1.08,1.39,1.27,2.59,1.27.6,0,1.46,0,2.06-.09a2.54,2.54,0,0,0-.26.82c-.54,0-1.22,0-1.83,0-1.33,0-2.24-.21-2.85-1.21a4.88,4.88,0,0,1-.88,1.39,2.66,2.66,0,0,0-.57-.59,5.91,5.91,0,0,0,1.36-3.26h-.29a.89.89,0,0,0-.54.15,4.78,4.78,0,0,0-.3-.74.58.58,0,0,0,.39-.3,14.64,14.64,0,0,0,.59-1.49h-.87v-.8h1.15l.19-.08.55.16c-.21.55-.6,1.61-.92,2.32h.42l.15,0Zm-.94-2.89a13.09,13.09,0,0,0-.84-1.59l.71-.25a13.76,13.76,0,0,1,.85,1.55Zm2.45-.35h-1.53v-.74h1.53V55.6h.8v.88h1.47v.74H320.6v.67h1.31v3.24h-1.29v.7h1.49v.74h-1.49v1.18h-.8V62.57h-1.58v-.74h1.58v-.7H318.5V57.89h1.3Zm-.65,2h.78V58.5h-.78Zm0,1.3h.78v-.72h-.78Zm2.09-2h-.76v.71h.76Zm0,1.29h-.76v.72h.76Z" fill="#002a5e"/>
    </g>
    <g>
      <path d="M241.17,32.2v7.92h-1v-.51h-5.13v.54h-.94v-8h2.55a11.61,11.61,0,0,0,.33-1.36l1.13.13c-.16.43-.33.86-.5,1.22Zm-6.12.91v1.3h5.13V33.1Zm0,2.17v1.3h5.12v-1.3Zm5.14,3.47V37.44h-5.12v1.3Z" fill="#002a5e"/>
      <path d="M252.14,33.15s0,.32,0,.43c-.11,4.19-.2,5.63-.52,6.06a.87.87,0,0,1-.72.44,7.22,7.22,0,0,1-1.25,0,2.51,2.51,0,0,0-.26-.89c.47,0,.88,0,1.06,0a.39.39,0,0,0,.37-.16c.22-.29.32-1.57.4-5.06H250c-.13,2.7-.58,4.85-2.32,6.19a3,3,0,0,0-.68-.7l.18-.14c-1.46.17-2.92.32-4,.43l-.12-.8,2.12-.18v-.77h-1.84v-.68h1.84v-.52h-1.81V33.8h1.82v-.53h-2.09v-.7h2.09V32c-.62,0-1.24.08-1.81.11a2.7,2.7,0,0,0-.22-.68,31.46,31.46,0,0,0,4.34-.51l.45.71a16.69,16.69,0,0,1-1.9.29v.65h2.05v.58h1.06c0-.69,0-1.41,0-2.17h.9c0,.75,0,1.48,0,2.17Zm-8,1.88h1v-.62h-1Zm1,1.2v-.62h-1v.62Zm.87,2.51c.62-.06,1.27-.12,1.91-.2A8.16,8.16,0,0,0,249.12,34h-1.07v-.76h-2v.52h1.88v3.05H246v.52H248v.69h-1.9ZM247.13,35v-.62H246V35Zm-1.09.58v.62h1.09v-.62Z" fill="#002a5e"/>
      <path d="M255.72,32.26a3.11,3.11,0,0,1-2.06,2.19,2.57,2.57,0,0,0-.49-.66,2.48,2.48,0,0,0,1.66-1.53h-1.36v-.73H255c0-.22.06-.45.08-.7H256c0,.25,0,.48-.08.7H258s0,.21,0,.32c-.09,1.15-.19,1.65-.39,1.86A.73.73,0,0,1,257,34a7,7,0,0,1-.95,0,2,2,0,0,0-.21-.71c.33,0,.61,0,.73,0a.28.28,0,0,0,.25-.09c.09-.08.16-.35.22-.94Zm-2.48,7.41a7.58,7.58,0,0,0,1.18-1.49l.76.4c-.34.48-.77,1.11-1.16,1.56Zm8.89-2.23s0,.22,0,.33c-.13,1.3-.25,1.87-.49,2.1a.77.77,0,0,1-.59.26,6.86,6.86,0,0,1-1,0,2,2,0,0,0-.2-.74,5.33,5.33,0,0,0,.81,0,.41.41,0,0,0,.3-.08,2.85,2.85,0,0,0,.3-1.26h-6.6V34.27h6.89v.64h-2.79v.49h2.37v.54h-2.37v.49h2.39v.53h-2.39v.49Zm-6.63-2.53v.48h2.27V34.9Zm2.27,1H255.5v.48h2.27Zm0,1H255.5v.5h2.27Zm-1.26,1.46a8.47,8.47,0,0,1,.32,1.43L256,40a8.08,8.08,0,0,0-.28-1.46Zm1.56-.07a6.13,6.13,0,0,1,.6,1.29l-.76.24a5.55,5.55,0,0,0-.55-1.32Zm4-4.51h-3.58V31.31h3.59Zm-2.47,4.35a4.56,4.56,0,0,1,.73,1l-.68.32a6.58,6.58,0,0,0-.7-1ZM261.15,32h-1.81v1.09h1.81Z" fill="#002a5e"/>
      <path d="M263.29,39.31a13,13,0,0,0,.42-2.23l.54.16a15.92,15.92,0,0,1-.4,2.28Zm4.29-3.47s0,.23,0,.35c-.12,2.4-.23,3.29-.49,3.59a.72.72,0,0,1-.6.31,5.59,5.59,0,0,1-.94,0,1.84,1.84,0,0,0-.21-.75c.33,0,.66,0,.79,0a.29.29,0,0,0,.29-.11,2.56,2.56,0,0,0,.24-1.06l-.31.11a6.12,6.12,0,0,0-.5-1.31l.4-.14a6.28,6.28,0,0,1,.45,1c0-.35.05-.77.08-1.28h-3V31.23h3.66V32H266.2v.76h1v.74h-1v.8h1V35h-1v.81Zm-2.66,1.35a10.17,10.17,0,0,1,.14,1.85l-.47.06a9.31,9.31,0,0,0-.12-1.86ZM264.57,32v.75h.87V32Zm.87,1.49h-.87v.8h.87Zm-.87,2.35h.87V35h-.87Zm.94,2.94a7.85,7.85,0,0,0-.35-1.63l.44-.08a9.39,9.39,0,0,1,.37,1.61Zm5-3a6.39,6.39,0,0,1-.47,2.38,5.87,5.87,0,0,0,2.72,1.11,3.32,3.32,0,0,0-.54.82A6,6,0,0,1,269.55,39a3.9,3.9,0,0,1-1.65,1.18,3.13,3.13,0,0,0-.55-.72,3.2,3.2,0,0,0,1.57-1.07,5.74,5.74,0,0,1-1.09-2l.79-.18a4.4,4.4,0,0,0,.74,1.37,5.41,5.41,0,0,0,.26-1.71h-1.86V32.39h1.86V30.87h.87v1.51h1.94v3.44Zm-1.9-.8h1V33.18h-1Zm1.91-1.85V35h1.07V33.18Z" fill="#002a5e"/>
    </g>
  </g>
</svg>
