<svg xmlns="http://www.w3.org/2000/svg" viewBox="0 0 340 240">
  <g>
    <g>
      <path d="M167.6,118.15a67.94,67.94,0,0,1,64-19.85,68,68,0,1,0-128,0,67.94,67.94,0,0,1,64,19.85Z" fill="none" stroke="#002a5e" stroke-linecap="round" stroke-linejoin="round" stroke-width="1.09"/>
      <path d="M153.12,141.72a68.08,68.08,0,0,1-49.5-43.42,68,68,0,1,0,64,113,68,68,0,0,1-14.48-69.55Z" fill="none" stroke="#002a5e" stroke-linecap="round" stroke-linejoin="round" stroke-width="1.09"/>
      <path d="M153.12,141.72a68,68,0,0,1,14.48-23.57,67.94,67.94,0,0,0-64-19.85A68.08,68.08,0,0,0,153.12,141.72Z" fill="#f8a908" stroke="#002a5e" stroke-miterlimit="10" stroke-width="0.82"/>
      <path d="M231.58,98.3a68.09,68.09,0,0,1-49.5,43.42,68,68,0,0,1-14.48,69.55,68,68,0,1,0,64-113Z" fill="none" stroke="#002a5e" stroke-linecap="round" stroke-linejoin="round" stroke-width="1.09"/>
      <path d="M167.6,118.15a68.15,68.15,0,0,1,14.48,23.57,68.09,68.09,0,0,0,49.5-43.42,67.94,67.94,0,0,0-64,19.85Z" fill="#f8a908" stroke="#002a5e" stroke-miterlimit="10" stroke-width="0.82"/>
      <path d="M182.08,141.72a68,68,0,0,1-29,0,68,68,0,0,0,14.48,69.55,68,68,0,0,0,14.48-69.55Z" fill="#f8a908" stroke="#002a5e" stroke-miterlimit="10" stroke-width="0.82"/>
      <path d="M153.12,141.72a68,68,0,0,0,29,0,68.15,68.15,0,0,0-14.48-23.57A68,68,0,0,0,153.12,141.72Z" fill="#002a5e"/>
    </g>
    <g>
      <path d="M145.52,32.47c-.34-.31-1-.8-1.56-1.18A5.55,5.55,0,0,1,141.72,33a4.88,4.88,0,0,0-.91-1A3.77,3.77,0,0,0,143,30.38h-2V29.25h.82a10.57,10.57,0,0,0-.93-.53,5.15,5.15,0,0,0,1.34-2.37l1.28.27c-.08.23-.15.47-.25.72h3v1.11h-1.58V29a2.09,2.09,0,0,1,0,.25h1.87v1.13h-2c.51.26,1.73,1,2.05,1.16Zm-2.26-3.22a2.62,2.62,0,0,0,0-.27v-.53h-.6a6.26,6.26,0,0,1-.56.8Zm-.69,3.4h7.93v5.12H149v-.39h-5v.4h-1.42ZM144,33.78v.68h5v-.68Zm5,2.45v-.72h-5v.72Zm2.53-8.92v4.61h-4.62V27.31Zm-1.43,1.28h-1.85v2.05h1.85Z" fill="#002a5e"/>
      <path d="M154.17,36.77a4,4,0,0,0,1.52-2l1.26.45a4.76,4.76,0,0,1-1.62,2.37Zm8.63-3.72h-8.25v-.83h8.25v-.46h-7.33v-.87h8.74v1.33h1v.83h-1v1.34H160.5a4.2,4.2,0,0,1,.81.69l-1,.87a6.35,6.35,0,0,0-1.66-1.32l.3-.24H155.4v-.88h7.4Zm-6.33-2.82h-1.86v-.85h1.86V29H155v-.84h1.49v-.38h-1.76v-.84h1.76v-.49h1.33v.49h1.69v.84H157.8v.38h1.53V29H157.8v.39h1.82v.85H157.8v.49h-1.33Zm4.61,6.19c.44,0,.52-.12.58-.92a3.88,3.88,0,0,0,1.26.48c-.16,1.34-.56,1.67-1.69,1.67h-2c-1.57,0-1.93-.37-1.93-1.58v-1.3h1.43v1.3c0,.31.1.35.66.35Zm.6-6.19h-1.77v-.85h1.77V29h-1.47v-.83h1.47v-.38h-1.74v-.84h1.74v-.49H163v.49H165v.84H163v.38h1.71V29H163v.4h2.14v.85H163v.49h-1.33Zm1.88,4.42a7.76,7.76,0,0,1,2,2.16l-1.25.73a8.65,8.65,0,0,0-1.91-2.24Z" fill="#002a5e"/>
      <path d="M170.12,29.84v-.47a10.52,10.52,0,0,1-1.3.87h5.13v3.82h-4.22c0,.12,0,.26-.06.38h4.57v3.25H173v-.33h-2.25v.37h-1.21V35.22a7.54,7.54,0,0,1-.78,2.12,5.7,5.7,0,0,0-1.26-.54,10.25,10.25,0,0,0,1.06-5.16V30.41l-.28.15a7.9,7.9,0,0,0-.76-1.39,8.26,8.26,0,0,0,3.61-2.76l1.33.52c-.07.11-.15.21-.22.31.9.52,1.91,1.12,2.47,1.52L173.94,30a15.21,15.21,0,0,0-1.33-.93v.79Zm2.5,3.22v-.49h-2.78c0,.15,0,.32,0,.49Zm-2.76-1.82v.47h2.76v-.47ZM172.53,29l-1.16-.73c-.25.24-.52.5-.79.73Zm-1.81,6.43v.87H173v-.87Zm5.55-1h-1.36V27.68h1.36Zm2.23-8V36c0,.78-.15,1.17-.6,1.4a4.51,4.51,0,0,1-2.09.29,6,6,0,0,0-.42-1.44h1.44c.2,0,.28-.06.28-.27V26.46Z" fill="#002a5e"/>
      <path d="M183.07,34.37a11.78,11.78,0,0,1-1.22,2.49,11.37,11.37,0,0,0-.95-.66A9,9,0,0,0,182,34.05Zm1.71-.71v4h-1.4v-4h-2.26V32.44h2.26v-.93H181V30.32h1.18a6.89,6.89,0,0,0-.35-1.27l1-.24h-1.65V27.63h2.09c-.11-.33-.25-.67-.37-1l1.45-.36c.18.41.4.9.54,1.32h1.74v1.18h-1.52l1,.19c-.18.46-.37.94-.55,1.32h1.27v1.19h-2.08v.93h1.88v1.22ZM183,28.81a5.57,5.57,0,0,1,.41,1.26l-.88.25h1.75c.18-.44.4-1.06.53-1.51Zm9.26,3h-1.13v6h-1.41v-6h-1.13v.15c0,1.79-.16,4.29-1.19,5.85a5.72,5.72,0,0,0-1.12-.87,4.54,4.54,0,0,0,.54-1.18l-.86.54a14,14,0,0,0-.95-1.82l.95-.52a11.51,11.51,0,0,1,.91,1.6,13.18,13.18,0,0,0,.38-3.6V27.58a17,17,0,0,0,3.68-1l1.11,1.05a19.09,19.09,0,0,1-3.45.92v1.9h3.67Z" fill="#002a5e"/>
    </g>
    <g>
      <path d="M89.65,150.93c-.48.24-1,.49-1.4.68a4.94,4.94,0,0,0,1.7.8,4.55,4.55,0,0,0-.85,1.11,5.33,5.33,0,0,1-3.31-3.23,7.46,7.46,0,0,1-1.18.82v1l1.72-.33a6.4,6.4,0,0,0,0,1.06,13.52,13.52,0,0,0-2.87.74,3.2,3.2,0,0,0-.46-1,.85.85,0,0,0,.49-.83v-.11c-.34.15-.67.26-1,.37a5.4,5.4,0,0,0-.56-.71v.09c-1.12.32-2.31.63-3.29.9l-.25-1.32c.36-.07.75-.17,1.2-.28v-3h-.95v-1.25h.95v-2.26h-1V143h3.3v1.27h-1v2.26h.89v1.25h-.89v2.69l.91-.24.11.82a11,11,0,0,0,2.5-1H83v-2.66h6v2.66H87a3.78,3.78,0,0,0,.53.83,12.35,12.35,0,0,0,1.2-.82Zm0-4H82.24v-1.14h7.44Zm-.38-1.53H82.68v-2.76H89.3Zm-4.69-1.79h-.76v.81h.76Zm-.39,5.42h3.42v-.68H84.22Zm2.11-5.42h-.77v.81h.77Zm1.74,0h-.81v.81h.81Z" fill="#002a5e"/>
      <path d="M96,150.72c-1.25.53-2.64,1.09-3.73,1.51l-.48-1.48c.4-.12.88-.27,1.4-.45v-3.75H92v-1.37h1.18v-2.73H94.6v2.73h1v1.37h-1v3.26l1.12-.4Zm5.61,1.65a.64.64,0,0,0,.25,0c.06,0,.11-.09.15-.24s0-.48,0-.91a3.63,3.63,0,0,0,1.1.59,4.18,4.18,0,0,1-.18,1.15,1,1,0,0,1-.51.45,2.53,2.53,0,0,1-.76.11h-.77a1.48,1.48,0,0,1-.93-.3c-.23-.2-.34-.46-.34-1.2v-1.47H98.8c-.21,1.6-.82,2.6-3.09,3.17a3.39,3.39,0,0,0-.74-1.1c1.87-.37,2.31-1,2.48-2.07h-1v-3.67h5.82v3.67H101V152c0,.15,0,.24,0,.29a.42.42,0,0,0,.22.05Zm1.25-5.94H96v-1.19h1.47a6.24,6.24,0,0,0-.26-.8l1.16-.23a5.37,5.37,0,0,1,.38,1h1.38c.13-.34.26-.73.35-1l1.31.24c-.14.28-.27.55-.4.79h1.51Zm-.32-2.24H96.3V143h2.41l-.21-.58,1.37-.25c.11.24.23.56.32.83h2.35Zm-4.78,4.07h3.12v-.51H97.76Zm0,1.35h3.12v-.51H97.76Z" fill="#002a5e"/>
      <path d="M109.71,147.51a8.78,8.78,0,0,1-3.34,5.4,6.3,6.3,0,0,0-1.16-1.08,6.64,6.64,0,0,0,2.66-3.31h-2.36v-1.36h3l.25-.06Zm6.59-.82a28.31,28.31,0,0,1-3,2.36,7.56,7.56,0,0,0,3.38,2.62,5.44,5.44,0,0,0-1,1.27,8.27,8.27,0,0,1-3.92-3.76V152c0,.8-.16,1.18-.68,1.43a6,6,0,0,1-2.27.24,6,6,0,0,0-.48-1.45c.61,0,1.36,0,1.58,0s.29-.07.29-.27v-5.8h-3v-1.39h4.51a24.88,24.88,0,0,0-3.56-1.22l.72-1.18a21.3,21.3,0,0,1,4.47,1.48l-.78,1.35a7.52,7.52,0,0,0-.76-.39v1a12.41,12.41,0,0,0,.86,2.14A15.5,15.5,0,0,0,115,145.7Z" fill="#002a5e"/>
      <path d="M122,150c0-.17,0-.37-.08-.59a12.05,12.05,0,0,0-2.81.55c-.08-.24-.27-.85-.42-1.18.29-.06.54-.35.9-.81a12.8,12.8,0,0,0,.74-1.07,4.66,4.66,0,0,0-1.32.25,10.4,10.4,0,0,0-.4-1.13c.22-.06.41-.3.64-.68a14.66,14.66,0,0,0,1.33-3l1.18.46a18.57,18.57,0,0,1-1.5,2.95l.78-.06a16.56,16.56,0,0,0,.79-1.64l1.09.67a22.77,22.77,0,0,1-2.35,3.73l1.11-.13c-.08-.33-.17-.66-.26-.94l1-.25a15,15,0,0,1,.64,2.54Zm-1.78.51a15.19,15.19,0,0,1-.54,3.13,6,6,0,0,0-1.06-.36,11.66,11.66,0,0,0,.51-2.94Zm1.14-.2a27.33,27.33,0,0,1,.28,2.8l-1,.18a26.49,26.49,0,0,0-.2-2.81Zm1.07-.31a16.55,16.55,0,0,1,.59,2.17l-.92.32a19.27,19.27,0,0,0-.56-2.24Zm5.37,1.91c.82.26,1.64.58,2.19.8l-.57,1c-.65-.31-1.7-.74-2.63-1.08l.4-.73h-1.8l.73.71c-1,.42-2.17.87-3.06,1.16a9.32,9.32,0,0,0-.5-1,23.32,23.32,0,0,0,2.3-.87h-1.63v-3.65h6.15v3.65Zm-2.16-8.12h-2.9v-.92h2.9v-.52H127v.52h2.75v.92H127v.42h2.37V145h-6.23v-.86h2.45Zm-2.85,1.62h7v2.48h-7ZM124,147h.88v-.73H124Zm.54,2.34H128V149h-3.52Zm0,.9H128v-.36h-3.52Zm0,.92H128v-.39h-3.52Zm2.2-4.16v-.73h-.79V147Zm1.83-.73h-.78V147h.78Z" fill="#002a5e"/>
    </g>
    <g>
      <path d="M221,141.2c-.06,4.78-.07,9.29.49,9.29a4.13,4.13,0,0,0,.21-1.7,7,7,0,0,0,.79,1.15c-.14,1.44-.39,2.13-1.15,2.13-1.76,0-1.76-4.34-1.76-9.52h-6v2.88c0,2-.19,4.89-1.53,6.68a4.83,4.83,0,0,0-1.18-.78c1.23-1.64,1.34-4.08,1.34-5.9V141.2Zm-2.21,7.39a10.4,10.4,0,0,1,1.13,2.7l-1.18.39c0-.23-.12-.52-.21-.83l-4.94.42-.1-1.31c.67,0,1.51-.07,2.43-.13v-1.26H214V145h1.88v-.82H214v-1.14h5.16v1.14h-2V145h2v3.53h-2v1.19l.9-.06a6.75,6.75,0,0,0-.39-.76Zm-2.87-1.12v-1.34h-.79v1.34Zm1.25-1.34v1.34H218v-1.34Z" fill="#002a5e"/>
      <path d="M235,142.36a9,9,0,0,1-1.84,3.24,8.07,8.07,0,0,0,2.74,1.35,5.65,5.65,0,0,0-.87,1.2l-.22-.08v4h-1.4v-.39h-2.54v.43h-1.35v-3.89c-.21.09-.41.18-.62.25a5.55,5.55,0,0,0-.62-1l-.11.16c-.15-.3-.4-.75-.67-1.18v5.61h-1.36v-4.61a9.79,9.79,0,0,1-1.22,2.49,7,7,0,0,0-.67-1.31,11.69,11.69,0,0,0,1.78-4.09h-1.48V143.2h1.59v-2.49h1.36v2.49h1.36v.66a8.88,8.88,0,0,0,2.06-3.16l1.37.38c-.12.3-.25.6-.4.91h2l.24-.05Zm-6.47,4.76a9.53,9.53,0,0,0,2.69-1.53,11.15,11.15,0,0,1-.91-1.2,8.13,8.13,0,0,1-.9.94,11.16,11.16,0,0,0-.88-.79h-1v.29c.33.36,1.24,1.44,1.45,1.72Zm5.12.41a9.58,9.58,0,0,1-1.46-1,9.73,9.73,0,0,1-1.39,1Zm-.24,2.87v-1.65h-2.54v1.65Zm-2.22-7.18-.09.12a7.53,7.53,0,0,0,1,1.36,7.54,7.54,0,0,0,1-1.48Z" fill="#002a5e"/>
      <path d="M248.91,150.31v1.42H238v-1.42h4.69v-2.45h-3.3v-1.4h3.3v-2.14h-2.52a9.72,9.72,0,0,1-1.13,1.76,11.72,11.72,0,0,0-1.3-.86,10.4,10.4,0,0,0,2.15-4.35l1.5.33c-.17.58-.37,1.15-.57,1.71h1.87v-2.19h1.52v2.19h4.1v1.41h-4.1v2.14h3.64v1.4h-3.64v2.45Z" fill="#002a5e"/>
      <path d="M253.43,146.57c-.49-.35-1.54-.92-2.26-1.31l.78-1.07c.67.33,1.75.85,2.29,1.18ZM251.34,151a35,35,0,0,0,2.31-3.83l1.06,1c-.64,1.28-1.41,2.66-2.15,3.84Zm2.62-7.7c-.48-.36-1.51-.93-2.21-1.34l.81-1c.68.34,1.74.87,2.26,1.21Zm5.39,2.37v1.54h2.48V152h-1.38v-.44H256.8v.5h-1.31v-4.91H258v-1.54h-3.23v-1.38H258v-1.43c-.79.13-1.6.21-2.36.28a5.19,5.19,0,0,0-.42-1.24,23.57,23.57,0,0,0,5.69-1.14l1.1,1.14a15.44,15.44,0,0,1-2.63.72v1.67h3.08v1.38Zm1.1,2.85H256.8v1.79h3.65Z" fill="#002a5e"/>
    </g>
    <g>
      <rect x="202.74" y="164.81" width="43.1" height="27.76" rx="0.17" fill="#fff"/>
      <g>
        <polygon points="229.41 197.01 229.41 193.05 219.21 193.05 219.21 197.01 212.42 197.01 212.42 200.16 236.65 200.16 236.65 197.01 229.41 197.01" fill="#7d3787" stroke="#002a5e" stroke-miterlimit="10" stroke-width="0.82"/>
        <path d="M246.75,162.62H202.32a1.78,1.78,0,0,0-1.77,1.77v28.49a1.78,1.78,0,0,0,1.77,1.77h44.43a1.77,1.77,0,0,0,1.77-1.77V164.39A1.77,1.77,0,0,0,246.75,162.62Zm-1.42,3.2v22.47H203.75V165.82Z" fill="#7d3787" stroke="#002a5e" stroke-miterlimit="10" stroke-width="0.82"/>
        <g>
          <rect x="222.57" y="171.94" width="19.96" height="13.38" fill="#fff" stroke="#002a5e" stroke-miterlimit="10" stroke-width="0.82"/>
          <g>
            <g>
              <polygon points="234.41 179.18 231.62 177.57 231.62 180.79 234.41 179.18" fill="#7d3787"/>
              <circle cx="232.68" cy="179.26" r="2.91" fill="none" stroke="#002a5e" stroke-miterlimit="10" stroke-width="0.82"/>
            </g>
            <g>
              <rect x="223.11" y="172.1" width="19.26" height="2.59" fill="#7d3787"/>
              <path d="M242,172.51v1.77H223.52v-1.77H242m.82-.82H222.7v3.41h20.08v-3.41Z" fill="#002a5e"/>
            </g>
          </g>
        </g>
        <g>
          <rect x="206.32" y="168.67" width="19.96" height="13.38" fill="#fff" stroke="#002a5e" stroke-miterlimit="10" stroke-width="0.82"/>
          <g>
            <g>
              <polygon points="218.16 175.91 215.37 174.3 215.37 177.52 218.16 175.91" fill="#7d3787"/>
              <circle cx="216.44" cy="175.99" r="2.91" fill="none" stroke="#002a5e" stroke-miterlimit="10" stroke-width="0.82"/>
            </g>
            <g>
              <rect x="206.87" y="168.83" width="19.26" height="2.59" fill="#7d3787"/>
              <path d="M225.71,169.24V171H207.28v-1.77h18.43m.83-.82H206.46v3.41h20.08v-3.41Z" fill="#002a5e"/>
            </g>
          </g>
        </g>
        <circle cx="224.54" cy="191.41" r="1.15" fill="#fff" stroke="#002a5e" stroke-miterlimit="10" stroke-width="0.82"/>
      </g>
    </g>
    <g>
      <rect x="235.93" y="172.88" width="21.43" height="35.4" rx="3.63" transform="translate(90.63 -79.26) rotate(22.27)" fill="#7d3787" stroke="#002a5e" stroke-miterlimit="10" stroke-width="0.82"/>
      <rect x="238.56" y="178.75" width="16.47" height="22.94" transform="translate(90.51 -79.34) rotate(22.27)" fill="#fff" stroke="#002a5e" stroke-miterlimit="10" stroke-width="0.82"/>
      <g>
        <path d="M241.21,205.07a1.06,1.06,0,0,1-.46-.1,1.2,1.2,0,0,1-.66-.65,1.16,1.16,0,0,1,0-.93,1.2,1.2,0,0,1,1.12-.76,1.21,1.21,0,0,1,1.12.75,1.2,1.2,0,0,1,0,.93A1.22,1.22,0,0,1,241.21,205.07Z" fill="#fff"/>
        <path d="M241.21,203a.85.85,0,0,1,.31.06.81.81,0,0,1-.31,1.55.65.65,0,0,1-.3-.06.81.81,0,0,1,.3-1.55m0-.82h0a1.62,1.62,0,0,0-1.5,1,1.65,1.65,0,0,0,1.5,2.25,1.63,1.63,0,0,0,.62-3.14,1.67,1.67,0,0,0-.62-.12Z" fill="#002a5e"/>
      </g>
      <g>
        <circle cx="247.82" cy="174.97" r="0.9" fill="#fff"/>
        <line x1="249.85" y1="175.8" x2="256.7" y2="178.6" fill="#fff" stroke="#fff" stroke-linecap="round" stroke-miterlimit="10" stroke-width="0.82"/>
      </g>
      <rect x="240.73" y="185.29" width="12.79" height="8.24" transform="matrix(0.93, 0.38, -0.38, 0.93, 90.22, -79.53)" fill="#7d3787" stroke="#002a5e" stroke-miterlimit="10" stroke-width="0.82"/>
      <circle cx="247.19" cy="189.5" r="3.12" fill="#fff" stroke="#002a5e" stroke-miterlimit="10" stroke-width="0.82"/>
      <path d="M246,191.34l.2-.49a1.53,1.53,0,0,1-.66-.51l.25-.28a1.47,1.47,0,0,0,.61.5.55.55,0,0,0,.77-.24c.11-.27,0-.51-.31-.8s-.62-.75-.45-1.17a.85.85,0,0,1,1-.48l.2-.49.3.12-.19.47a1.48,1.48,0,0,1,.56.43l-.26.27a1.15,1.15,0,0,0-.54-.41c-.37-.15-.6,0-.68.2s0,.45.37.8.57.76.39,1.19a.9.9,0,0,1-1.1.51l-.21.51Z" fill="#002a5e"/>
    </g>
    <g>
      <g>
        <g>
          <g>
            <polyline points="155.5 48.56 136.95 61.02 143.09 76.36 200.34 66.89 155.5 48.56 183.38 77.9 143.09 76.36 132.75 82.38" fill="none" stroke="#002a5e" stroke-miterlimit="10" stroke-width="0.82"/>
            <polyline points="198.44 64.63 201.75 83.26 182.17 77.9" fill="none" stroke="#002a5e" stroke-miterlimit="10" stroke-width="0.82"/>
          </g>
          <g>
            <rect x="198.44" y="79.64" width="5.48" height="5.48" fill="#fff" stroke="#002a5e" stroke-miterlimit="10" stroke-width="0.82"/>
            <rect x="140.02" y="70.92" width="7.32" height="7.32" fill="#fff" stroke="#002a5e" stroke-miterlimit="10" stroke-width="0.82"/>
            <rect x="197.18" y="64.43" width="4.15" height="4.15" fill="#7d3787" stroke="#002a5e" stroke-miterlimit="10" stroke-width="0.82"/>
            <rect x="178.37" y="73.99" width="6.27" height="6.27" fill="#7d3787" stroke="#002a5e" stroke-miterlimit="10" stroke-width="0.82"/>
            <rect x="152.81" y="45.47" width="5.39" height="5.39" fill="#fff" stroke="#002a5e" stroke-miterlimit="10" stroke-width="0.82"/>
            <rect x="131.56" y="80.03" width="4.31" height="4.31" fill="#fff" stroke="#002a5e" stroke-miterlimit="10" stroke-width="0.82"/>
            <rect x="134.19" y="58.27" width="5.51" height="5.51" fill="#7d3787" stroke="#002a5e" stroke-miterlimit="10" stroke-width="0.82"/>
          </g>
        </g>
        <g>
          <path d="M155,60a28.69,28.69,0,0,1-6.57,5.1A4.25,4.25,0,0,1,146.84,63a2.86,2.86,0,0,1-.19-.65,4.35,4.35,0,0,1,6.76-4.44A4.28,4.28,0,0,1,155,60Z" fill="#fff" stroke="#002a5e" stroke-miterlimit="10" stroke-width="0.82"/>
          <path d="M155.19,60.65a4.36,4.36,0,0,1-3.41,5.14,4.29,4.29,0,0,1-3.35-.7A28.69,28.69,0,0,0,155,60,2.94,2.94,0,0,1,155.19,60.65Z" fill="#fff" stroke="#002a5e" stroke-miterlimit="10" stroke-width="0.82"/>
          <path d="M146.84,63a4.25,4.25,0,0,0,1.59,2.06c-1.59.86-2.8,1.19-3.13.77S145.6,64.35,146.84,63Z" fill="none" stroke="#002a5e" stroke-miterlimit="10" stroke-width="0.82"/>
          <path d="M155,60a4.28,4.28,0,0,0-1.59-2.05c1.59-.86,2.8-1.2,3.13-.77S156.24,58.68,155,60Z" fill="none" stroke="#002a5e" stroke-miterlimit="10" stroke-width="0.82"/>
        </g>
        <g>
          <g>
            <path d="M187.45,66a4.37,4.37,0,0,1-3.76-6.59,1.62,1.62,0,0,1,.21-.33h0s0,0,.06-.09a3.21,3.21,0,0,1,.48-.53,1.52,1.52,0,0,1,.3-.26,4,4,0,0,1,1.47-.77,2.86,2.86,0,0,1,.42-.1,3.86,3.86,0,0,1,.84-.08,4.36,4.36,0,0,1,4,6.07,1.48,1.48,0,0,1-.19.38,3.14,3.14,0,0,1-.35.57,3.24,3.24,0,0,1-.29.34,2.73,2.73,0,0,1-.35.33,4.19,4.19,0,0,1-2.26,1l-.15,0h0l-.4,0Z" fill="#7d3787"/>
            <path d="M187.47,57.7a4,4,0,0,1,3.64,5.5,1.27,1.27,0,0,1-.15.31,3.65,3.65,0,0,1-.6.86,2.81,2.81,0,0,1-.31.29,3.91,3.91,0,0,1-2.05.94h0a2.92,2.92,0,0,1-.51,0h0a4,4,0,0,1-3.41-6,2.29,2.29,0,0,1,.18-.29.76.76,0,0,1,.08-.11,2.92,2.92,0,0,1,.41-.45,2.1,2.1,0,0,1,.27-.24,3.77,3.77,0,0,1,1.34-.71c.13,0,.25-.07.38-.09a3.94,3.94,0,0,1,.77-.07m0-.82a4.88,4.88,0,0,0-.93.09,2.46,2.46,0,0,0-.45.11,4.41,4.41,0,0,0-1.63.86,2.23,2.23,0,0,0-.33.29,3.77,3.77,0,0,0-.49.54l-.1.14a3.85,3.85,0,0,0-.22.35,4.78,4.78,0,0,0,1.24,6.22,4.73,4.73,0,0,0,2.89,1h.32l.34,0a4.78,4.78,0,0,0,2.49-1.13,3.94,3.94,0,0,0,.37-.36,2.73,2.73,0,0,0,.3-.36,3.65,3.65,0,0,0,.41-.64,3.33,3.33,0,0,0,.21-.44,4.78,4.78,0,0,0-4.42-6.6Z" fill="#002a5e"/>
          </g>
          <g>
            <path d="M186.1,59.66a13.1,13.1,0,0,0-1.39-.85,2.1,2.1,0,0,1,.27-.24,13.22,13.22,0,0,1,1.32.8c1.36.93,2.68,1.77,3.2,1.61.08,0,.18-.07.26-.27s-.06-.66-2.07-1.71a4.18,4.18,0,0,1-1.37-1.14c.13,0,.25-.07.38-.09a4,4,0,0,0,1.14.92c1.93,1,2.5,1.55,2.24,2.16a.77.77,0,0,1-.48.47C189,61.48,188.13,61,186.1,59.66Z" fill="#fff"/>
            <path d="M189.43,62.8A28,28,0,0,1,184,59.66a2.29,2.29,0,0,1,.18-.29,28.45,28.45,0,0,0,5.37,3.12l.44.19a11.66,11.66,0,0,1,1.08.52,1.27,1.27,0,0,1-.15.31,11,11,0,0,0-1.06-.5C189.72,62.93,189.56,62.87,189.43,62.8Z" fill="#fff"/>
            <path d="M185,62.33c-.15.15-.12.52.25.93a27.79,27.79,0,0,0,2.7,2.33,2.92,2.92,0,0,1-.51,0A25.63,25.63,0,0,1,185,63.49c-.53-.6-.5-1.15-.23-1.41s.92-.34,1.79.44a7.87,7.87,0,0,0,3.77,1.85,2.81,2.81,0,0,1-.31.29,8,8,0,0,1-3.69-1.88C185.72,62.2,185.22,62.14,185,62.33Z" fill="#fff"/>
          </g>
        </g>
      </g>
      <g>
        <path d="M153.22,85.45l-2.43-.85,4-8.54s-2.91-6,3.91-11.67,15.26-5.18,19.17-2.88,8.53,6.23,7.93,13.1-4.92,12.39-5,15.2a61.51,61.51,0,0,0,1.1,9.13H162.34l-.81-4.21-4.39.54a2.5,2.5,0,0,1-2.77-2.11Z" fill="#fff" stroke="#002a5e" stroke-miterlimit="10" stroke-width="0.82"/>
        <g>
          <path d="M176.07,79.85l.33,2.64-1.78.84-1.82-2-1.63.14-1.44,2.25-1.91-.51-.13-2.67-1.34-.94-2.55.79-1.13-1.61,1.61-2.13-.42-1.58-2.46-1,.17-2,2.6-.59.69-1.49-1.21-2.37L165,66.27l2.37,1.21,1.49-.69.59-2.6,2-.17,1,2.46,1.58.42,2.13-1.61,1.61,1.13L177,69l.94,1.34,2.67.13.51,1.91-2.25,1.44-.14,1.63,2,1.82L179.87,79l-2.64-.33Z" fill="#7d3787" stroke="#002a5e" stroke-miterlimit="10" stroke-width="0.82"/>
          <circle cx="171.27" cy="73.89" r="3.2" fill="#fff" stroke="#002a5e" stroke-miterlimit="10" stroke-width="0.82"/>
        </g>
      </g>
    </g>
    <circle cx="223.78" cy="36.95" r="3.36" fill="#f8a908" stroke="#002a5e" stroke-miterlimit="10" stroke-width="0.82"/>
    <circle cx="111.61" cy="36.95" r="3.36" fill="#f8a908" stroke="#002a5e" stroke-miterlimit="10" stroke-width="0.82"/>
    <circle cx="234.7" cy="60.87" r="3.36" fill="#f8a908" stroke="#002a5e" stroke-miterlimit="10" stroke-width="0.82"/>
    <circle cx="271.54" cy="124.18" r="3.36" fill="#f8a908" stroke="#002a5e" stroke-miterlimit="10" stroke-width="0.82"/>
    <circle cx="284.23" cy="154.07" r="3.36" fill="#f8a908" stroke="#002a5e" stroke-miterlimit="10" stroke-width="0.82"/>
    <circle cx="282.68" cy="182.65" r="3.36" fill="#f8a908" stroke="#002a5e" stroke-miterlimit="10" stroke-width="0.82"/>
    <circle cx="266.84" cy="211.65" r="3.36" fill="#f8a908" stroke="#002a5e" stroke-miterlimit="10" stroke-width="0.82"/>
    <circle cx="64.12" cy="124.18" r="3.36" fill="#f8a908" stroke="#002a5e" stroke-miterlimit="10" stroke-width="0.82"/>
    <circle cx="51.42" cy="154.07" r="3.36" fill="#f8a908" stroke="#002a5e" stroke-miterlimit="10" stroke-width="0.82"/>
    <circle cx="52.98" cy="182.65" r="3.36" fill="#f8a908" stroke="#002a5e" stroke-miterlimit="10" stroke-width="0.82"/>
    <circle cx="68.82" cy="211.65" r="3.36" fill="#f8a908" stroke="#002a5e" stroke-miterlimit="10" stroke-width="0.82"/>
    <circle cx="100.57" cy="60.87" r="3.36" fill="#f8a908" stroke="#002a5e" stroke-miterlimit="10" stroke-width="0.82"/>
    <g>
      <g>
        <g>
          <line x1="122.84" y1="162.59" x2="122.84" y2="176.21" fill="none" stroke="#002a5e" stroke-miterlimit="10" stroke-width="0.82"/>
          <line x1="113.21" y1="166.58" x2="122.84" y2="176.21" fill="none" stroke="#002a5e" stroke-miterlimit="10" stroke-width="0.82"/>
          <line x1="109.22" y1="176.21" x2="122.84" y2="176.21" fill="none" stroke="#002a5e" stroke-miterlimit="10" stroke-width="0.82"/>
          <line x1="113.21" y1="185.85" x2="122.84" y2="176.21" fill="none" stroke="#002a5e" stroke-miterlimit="10" stroke-width="0.82"/>
          <line x1="122.84" y1="189.84" x2="122.84" y2="176.21" fill="none" stroke="#002a5e" stroke-miterlimit="10" stroke-width="0.82"/>
          <line x1="132.47" y1="185.85" x2="122.84" y2="176.21" fill="none" stroke="#002a5e" stroke-miterlimit="10" stroke-width="0.82"/>
          <line x1="136.46" y1="176.21" x2="122.84" y2="176.21" fill="none" stroke="#002a5e" stroke-miterlimit="10" stroke-width="0.82"/>
          <line x1="132.47" y1="166.58" x2="122.84" y2="176.21" fill="none" stroke="#002a5e" stroke-miterlimit="10" stroke-width="0.82"/>
        </g>
        <circle cx="122.84" cy="176.21" r="7.38" fill="#7d3787" stroke="#002a5e" stroke-miterlimit="10" stroke-width="0.82"/>
      </g>
      <g>
        <path d="M102.58,181c-4.82,4.82-13.24,4.21-13.24,4.21l17.44-17.45S107.4,176.2,102.58,181Z" fill="#7d3787" stroke="#002a5e" stroke-linecap="round" stroke-linejoin="round" stroke-width="0.82"/>
        <g>
          <line x1="89.31" y1="185.23" x2="89.31" y2="207.16" fill="#f8a908" stroke="#002a5e" stroke-linecap="round" stroke-linejoin="round" stroke-width="0.82"/>
          <path d="M89.27,185.23,71.81,167.78s8.42-.6,13.24,4.2S89.27,185.23,89.27,185.23Z" fill="#fff" stroke="#002a5e" stroke-linecap="round" stroke-linejoin="round" stroke-width="0.82"/>
          <path d="M89.27,185.23S80.85,185.84,76,181s-4.22-13.24-4.22-13.24Z" fill="#7d3787" stroke="#002a5e" stroke-linecap="round" stroke-linejoin="round" stroke-width="0.82"/>
          <path d="M106.78,167.78,89.34,185.23s-.6-8.43,4.2-13.25S106.78,167.78,106.78,167.78Z" fill="#fff" stroke="#002a5e" stroke-linecap="round" stroke-linejoin="round" stroke-width="0.82"/>
        </g>
      </g>
      <g>
        <path d="M123.41,197.35l-.39-2.87a4.06,4.06,0,0,0-4-3.5H107.63a4.06,4.06,0,0,0-3.89,2.94l-1,3.43h-2.4a5.25,5.25,0,0,0-5.25,5.25V207h33.49v-4.4A5.25,5.25,0,0,0,123.41,197.35Z" fill="#fff" stroke="#002a5e" stroke-miterlimit="10" stroke-width="0.82"/>
        <circle cx="103.73" cy="206.32" r="4.06" fill="#7d3787" stroke="#002a5e" stroke-miterlimit="10" stroke-width="0.82"/>
        <circle cx="119.1" cy="206.32" r="4.06" fill="#7d3787" stroke="#002a5e" stroke-miterlimit="10" stroke-width="0.82"/>
      </g>
    </g>
  </g>
</svg>
