<svg xmlns="http://www.w3.org/2000/svg" viewBox="0 0 960.78 514.24">
  <g>
    <line x1="606.23" y1="233.03" x2="225.22" y2="355.67" fill="none" stroke="#002a5e" stroke-miterlimit="10" stroke-width="2" stroke-dasharray="9 6.37 4 4"/>
    <g>
      <circle cx="181.72" cy="352.37" r="67.15" fill="#002a5e"/>
      <g>
        <path d="M147,350.54v4.29c0,1-.19,1.56-.81,1.87a5.68,5.68,0,0,1-2.71.4,7.49,7.49,0,0,0-.62-2c.72,0,1.46,0,1.7,0s.34-.09.34-.34V351.1l-1.82.47-.56-2.05,2.38-.53v-3.17h-2.15v-2h2.15v-3.42H147v3.42h1.89v2H147v2.65l1.32-.32.27,2Zm11.4-1.84a11.55,11.55,0,0,1-3.1,5.21,15.52,15.52,0,0,0,4.16,1.37,9.62,9.62,0,0,0-1.35,2,14.46,14.46,0,0,1-4.64-1.95,17.3,17.3,0,0,1-4.92,1.93,8.48,8.48,0,0,0-1-2,14.74,14.74,0,0,0,4.16-1.37,13.3,13.3,0,0,1-2.51-3.48l.67-.23h-1v-2h7.82l.38-.09Zm-9-.73a7.92,7.92,0,0,0-1.42-1.53,3.45,3.45,0,0,0,2.39-3.51V341h6.34v3.92c0,.53,0,.74.32.74h1a4.66,4.66,0,0,0,1-.12c0,.54.09,1.28.16,1.76a3,3,0,0,1-1.14.14h-1.2c-1.77,0-2.15-.75-2.15-2.55V343l-2.32,0A5,5,0,0,1,149.44,348Zm1.89,2.23a8.61,8.61,0,0,0,2.2,2.52,8.9,8.9,0,0,0,2.08-2.52Z" fill="#fff"/>
        <path d="M173.9,343.63c1,.95,2.88,1.4,5.31,1.53a6.87,6.87,0,0,0-1.18,1.71,8.57,8.57,0,0,1-4.72-1.82c-.69.79-2.18,1.49-5.21,1.84a5.37,5.37,0,0,0-.72-1.17h-4.77v-1.64h5.44v1.1c3.44-.36,3.89-1.17,3.89-1.84v-.27h-1.08a8.25,8.25,0,0,1-1.26,1.55,9.73,9.73,0,0,0-1.59-1.1,7.17,7.17,0,0,0,2.11-3.2l1.87.41c-.09.27-.19.54-.3.79h5.11l.32-.09,1.46.45a15.7,15.7,0,0,1-1.65,2.85l-1.66-.62a9.5,9.5,0,0,0,.63-1h-2v.56Zm.49,10.58c1.65.62,3.42,1.34,4.48,1.86l-1.93,1.15a33.12,33.12,0,0,0-4.68-2.12l1.1-.89h-5.08l1.57.73a23.92,23.92,0,0,1-5.62,2.34,13.79,13.79,0,0,0-1.58-1.57,19.85,19.85,0,0,0,4.91-1.5H165V346.9H177v7.31Zm-6.75-11.34H163v-1.56h4.61ZM167,349h7.8v-.78H167Zm0,2h7.8v-.78H167Zm0,2h7.8v-.81H167Z" fill="#fff"/>
        <path d="M197.59,351.28c0,.9-.18,1.33-.83,1.6a6.66,6.66,0,0,1-2.39.27,17.29,17.29,0,0,0,4.82,1.6,10,10,0,0,0-1.35,1.9,15.44,15.44,0,0,1-5.83-2.92v3.53h-2.3v-3.59a15.18,15.18,0,0,1-6,3.1,8.35,8.35,0,0,0-1.34-1.8,13.52,13.52,0,0,0,7.32-3.69V350h-3.44v3.19H184v-5h5.71v-.86h-6.86V345.5h4.86a15,15,0,0,0-1.73-1.76l.68-.6H185.6a12.25,12.25,0,0,1-1.85,2.34,13.85,13.85,0,0,0-1.43-1.44,10.32,10.32,0,0,0,2.61-3.78l1.89.54c-.09.23-.19.47-.3.7h3.92v1.64h-2.55a15.05,15.05,0,0,1,1.2,1.19l-1.26,1.17h1.88v-1h1.58a11,11,0,0,0-1.21-.88,8.15,8.15,0,0,0,2.25-3.39l1.95.49c-.09.25-.2.52-.31.77h4.95v1.62h-3.11a10.26,10.26,0,0,1,1.24,1.14l-1.42,1.22a11.91,11.91,0,0,0-1.84-1.71l.76-.65h-1.46a7.67,7.67,0,0,1-1.08,1.42v.94h6.48v1.84H192v.86h5.58Zm-5.58.32a11,11,0,0,0,2.25,1.5,9.16,9.16,0,0,0-.68-1.6c.57.05,1.31,0,1.51,0s.29,0,.29-.25V350H192Z" fill="#fff"/>
        <path d="M218.26,342.8a14,14,0,0,1-2.89,4.66,12.64,12.64,0,0,0,3.91,2,10.55,10.55,0,0,0-1.37,1.8l-.12-.06v6H215.7v-.55H212v.57h-2v-5.9l-.45.19a8.81,8.81,0,0,0-.62-.93v3.13h-4.68v1.48h-1.55V341.48H209v3.41a11.76,11.76,0,0,0,3.08-4.5l2,.55a10.34,10.34,0,0,1-.58,1.27h3l.36-.1Zm-14,.52v3.19h.85v-3.19Zm0,8.55h.85v-3.6h-.85Zm3.08-8.55h-.9v3.19h.9Zm0,8.55v-3.6h-.9v3.6Zm1.6-2.26a14.2,14.2,0,0,0,3.53-2.18,15.33,15.33,0,0,1-1.33-1.79,11.24,11.24,0,0,1-1.33,1.34,7.77,7.77,0,0,0-.87-.9Zm7.42,1a13.23,13.23,0,0,1-2.46-1.73,18.91,18.91,0,0,1-2.47,1.73Zm-.68,4.19v-2.32H212v2.32ZM212.44,344l-.11.14a12,12,0,0,0,1.55,2,12.3,12.3,0,0,0,1.58-2.14Z" fill="#fff"/>
      </g>
    </g>
    <ellipse cx="641.47" cy="261.44" rx="98.73" ry="164.05" transform="translate(279.14 851.82) rotate(-80.64)" fill="none" stroke="#002a5e" stroke-miterlimit="10" stroke-width="2"/>
    <g>
      <circle cx="516.54" cy="197" r="37.78" fill="#7d3787" stroke="#002a5e" stroke-miterlimit="10" stroke-width="2"/>
      <g>
        <path d="M515.14,190.71v1.45h-8.86v-1.45h1.13V180h-.88V181h-2.07v2.45c0,.22,0,.43,0,.67h2.35v1.43h-2.46c0,.42-.11.85-.19,1.29.68.7,2.18,2.5,2.58,3l-1,1.27c-.42-.69-1.3-1.85-2-2.74a9.26,9.26,0,0,1-2.84,4.32,4.72,4.72,0,0,0-1.08-1.06,8.71,8.71,0,0,0,3-6.06h-3v-1.43h3.05c0-.24,0-.47,0-.7V181h-.87a12.67,12.67,0,0,1-1,2.55,7.75,7.75,0,0,0-1.25-.83,14.14,14.14,0,0,0,1.5-5.26l1.45.25c-.1.62-.2,1.25-.33,1.85h4v-1.06h8.42V180h-6v2.25h5.42V188h-5.42v2.72Zm-6.21-7.06v2.91h3.94v-2.91Z" fill="#fff"/>
        <path d="M522.11,178.73c-.46,1.42-1.06,3.16-1.57,4.47a5.11,5.11,0,0,1,1.38,3.49,2.3,2.3,0,0,1-.7,2,1.87,1.87,0,0,1-.9.35,10.31,10.31,0,0,1-1.13,0,3.14,3.14,0,0,0-.37-1.39,4.36,4.36,0,0,0,.87,0,1,1,0,0,0,.5-.13,1.33,1.33,0,0,0,.31-1.06,4.53,4.53,0,0,0-1.35-3.11c.42-1.16.85-2.67,1.17-3.81h-1.78v13.21h-1.37V178.18h3.67l.25-.05Zm9.68,11.75h-4.3v2.31H526v-2.31H521.6v-1.39H526v-1.38h-3.52v-6H526v-1.34h-3.88V179H526v-1.52h1.5V179h4v1.35h-4v1.34h3.65v6h-3.65v1.38h4.3Zm-7.9-6.34h2.2v-1.29h-2.2Zm0,2.4h2.2v-1.3h-2.2Zm5.77-3.69h-2.25v1.29h2.25Zm0,2.39h-2.25v1.3h2.25Z" fill="#fff"/>
        <path d="M513.92,204.49a19.23,19.23,0,0,1-1.62,6.27,7.21,7.21,0,0,0,3,3.22,5.63,5.63,0,0,0-1,1.22,8,8,0,0,1-2.78-3.09,10,10,0,0,1-3.71,3.19,6.07,6.07,0,0,0-.55-.9l-.45.4a16,16,0,0,0-2.06-1,14.74,14.74,0,0,1-4.39,1.43,3.62,3.62,0,0,0-.63-1,14.84,14.84,0,0,0,3.56-1c-.8-.28-1.6-.53-2.33-.73.3-.38.63-.87,1-1.37h-2V210h2.62c.16-.31.33-.61.48-.91h-2.38v-2.79h3v-.63H501v-1.84h-1.13v-1.15H501V201h2.7v-1h1.21v1h2.86v1.72h.92v1.15h-.92v1.84H504.9v.63h3.16v.8a23.36,23.36,0,0,0,2.22-7.17l1.3.25c-.18,1-.4,2-.65,2.93h4.21v1.37Zm-12,3.67h1.73v-.92H502Zm.23-6.15v.76h1.5V202Zm1.5,2.63v-.88h-1.5v.88Zm-.36,6.47c-.17.29-.35.55-.5.8.56.17,1.15.37,1.71.57a2.84,2.84,0,0,0,1.09-1.37Zm3.6,0a3.84,3.84,0,0,1-1.08,1.89,14.6,14.6,0,0,1,1.76.83,8.15,8.15,0,0,0,3.24-3.13,23.41,23.41,0,0,1-1.13-4,17.12,17.12,0,0,1-.81,1.66,7.5,7.5,0,0,0-.85-.81v1.51h-3.61L504,210h1.84v-.56H507V210h1.53v1.1Zm-2-9.1v.76h1.63V202Zm1.63,2.63v-.88H504.9v.88Zm-1.63,2.6v.92h1.81v-.92Zm5.63-2.75,0,.14a25.11,25.11,0,0,0,1.1,4.5,19.14,19.14,0,0,0,1-4.64Z" fill="#fff"/>
        <path d="M516.85,200.74H525v1.43h-3.87c-.2.72-.43,1.47-.7,2.21h2.92l.27-.06,1,.32c-.87,5.44-3.17,8.89-6.22,10.64a6,6,0,0,0-1.17-1.13,10,10,0,0,0,3.95-3.82,28.33,28.33,0,0,0-2.73-1.92,9.69,9.69,0,0,1-1.15,1.37,8.82,8.82,0,0,0-1.09-1,13.73,13.73,0,0,0,3.35-6.59h-2.7Zm3,5a12.84,12.84,0,0,1-.71,1.44,28.31,28.31,0,0,1,2.68,1.76,15,15,0,0,0,1-3.2Zm7.21,5.09h-1.52v-9.06h1.52Zm4-10.62v13.07c0,.94-.22,1.37-.8,1.64a9.54,9.54,0,0,1-3,.28,6.78,6.78,0,0,0-.53-1.55c1.08,0,2.1,0,2.42,0s.41-.11.41-.4V200.26Z" fill="#fff"/>
      </g>
    </g>
    <g>
      <circle cx="541.55" cy="313.08" r="37.78" fill="#7d3787" stroke="#002a5e" stroke-miterlimit="10" stroke-width="2"/>
      <g>
        <path d="M527.58,304.2a15.51,15.51,0,0,1-1.69,3.36,8.76,8.76,0,0,0-1.07-.74,10.24,10.24,0,0,0,1.54-3Zm2.15-1.08v5.65h-1.5v-5.65H525V301.8h3.21v-1.52h-3.31V299h1.82a8.29,8.29,0,0,0-.58-2.08l1.27-.32a10.59,10.59,0,0,1,.61,2.05l-1.23.35h2.63a17.57,17.57,0,0,0,.82-2.41l1.44.3c-.29.73-.57,1.5-.86,2.11h2v1.3h-3.07v1.52h2.83v1.32Zm2.8-6.57h-7.34v-1.29h3c-.18-.46-.4-1-.6-1.41l1.54-.4c.28.56.61,1.26.83,1.81h2.52Zm-1.18,7.15a14.56,14.56,0,0,1,1.38,2.51l-1.08.65a17.39,17.39,0,0,0-1.34-2.59Zm8.77-3.17h-1.7v8.26H536.9v-8.26H535v.41c0,2.4-.22,5.73-1.7,7.85a5.57,5.57,0,0,0-1.19-.92c1.32-1.93,1.44-4.75,1.44-6.93v-5.78a25,25,0,0,0,5.1-1.35l1.22,1.14a27.7,27.7,0,0,1-4.87,1.23v2.92h5.17Z" fill="#fff"/>
        <path d="M543.82,299.47v9.4H542.3V294.15h6.19v5.32Zm0-4.26v1.07H547v-1.07Zm3.22,3.17v-1.05h-3.22v1.05Zm5.05,8.23v1.8h-1.4v-1.8h-6v-1.12h1.52v-4.17H545V300.2h8.17v1.12h-1.12v4.17h1.37v1.12Zm-4.55-5.29v.77h3.15v-.77Zm0,2.45h3.15V303h-3.15Zm3.15,1.72v-.79h-3.15v.79Zm5.39,1.7c0,.77-.15,1.15-.62,1.38a5.72,5.72,0,0,1-2.29.27,4.89,4.89,0,0,0-.45-1.37,14.27,14.27,0,0,0,1.56,0c.21,0,.28-.08.28-.3v-7.72h-4.79v-5.32h6.31Zm-4.82-12v1.07h3.3v-1.07Zm3.3,3.17v-1.05h-3.3v1.05Z" fill="#fff"/>
        <path d="M535.25,318.52a1.46,1.46,0,0,1,0,.4c.91.92,2.69,1.49,4.89,1.62a4.56,4.56,0,0,0-.83,1.27A8.15,8.15,0,0,1,534.8,320c-.6.77-1.92,1.49-4.79,1.89a4.41,4.41,0,0,0-.78-1.15H525v-1.22h4.84v1.1c3.62-.47,4-1.4,4-2.12v-.22h-1.38a8,8,0,0,1-1.22,1.56,6.83,6.83,0,0,0-1.17-.79A6.88,6.88,0,0,0,532,316l1.38.3c-.1.29-.2.55-.31.84h5.2l.22-.07,1.06.35a14.91,14.91,0,0,1-1.45,2.47l-1.21-.43c.21-.3.46-.74.7-1.16h-2.32Zm-.14,10.11a44.38,44.38,0,0,1,4.71,1.82l-1.4.85a33.4,33.4,0,0,0-4.49-1.89l1-.78h-5l1.39.63a23.1,23.1,0,0,1-5.11,2.09,12.68,12.68,0,0,0-1.15-1.17,17.93,17.93,0,0,0,4.8-1.55h-2.68v-6.71H538v6.71Zm-5.68-10.53h-4.09v-1.16h4.09Zm-.77,5.76h7.82v-.95h-7.82Zm0,1.87h7.82v-.94h-7.82Zm0,1.92h7.82v-1h-7.82Z" fill="#fff"/>
        <path d="M547.62,320h-6v-1.23h2.85a17.75,17.75,0,0,0-1.14-2.26l1.12-.61a16.66,16.66,0,0,1,1.15,2.18l-1.1.69h3.12Zm-5.34,2.2V321H547v1.22Zm0,1H547v1.2h-4.76Zm4.76,7.13H543.5v.75h-1.22v-5.63H547Zm-3.54-3.63v2.38h2.3v-2.38Zm11.66-9.81c-.12,6.17-.13,12.38.65,12.61a7.11,7.11,0,0,0,.27-2.17,8,8,0,0,0,.85,1.19c-.2,2.36-.89,2.9-1.75,2.53-1.62-.57-1.59-6.15-1.57-12.69h-2.47v4.7h2v1.44h-2v6.8h-1.45v-6.8h-2.07v-1.44h2.07v-4.7h-1.87v-1.47Z" fill="#fff"/>
      </g>
    </g>
    <g>
      <circle cx="768.55" cy="323.32" r="37.78" fill="#7d3787" stroke="#002a5e" stroke-miterlimit="10" stroke-width="2"/>
      <g>
        <path d="M756.37,316.55a9.35,9.35,0,0,0,4.12.65c1,0,5.54,0,6.74-.05a5.37,5.37,0,0,0-.64,1.53h-6.12c-3.43,0-5.48-.51-6.78-2.83a9.8,9.8,0,0,1-1.15,3.23,3.54,3.54,0,0,0-1-.91c1.1-1.94,1.2-4.66,1.14-6.86l1.28.07c0,.62,0,1.27,0,1.92a6.25,6.25,0,0,0,1,2.15v-5.36h-3v-1.36h2.61V307h-2.2v-1.37h2.2v-1.86H756v1.86h2v1.14a8,8,0,0,0,2.13-3.1l1.34.33c-.1.23-.22.47-.34.7h5.48s0,.32,0,.5c-.17,2.92-.32,4-.69,4.44a1.28,1.28,0,0,1-1,.4,9.92,9.92,0,0,1-1.56,0,2.74,2.74,0,0,0-.29-1c.55.05,1,.07,1.25.07a.52.52,0,0,0,.44-.15c.2-.23.35-1.08.46-3.19h-4.73c-.15.24-.3.47-.47.69h.13v1.25h1v-1.52h1v1.52h1v-1.25h1.07v2.15h-2.17a2.23,2.23,0,0,1-1.34,1.33l.52.14a7.77,7.77,0,0,1-.35.71h5.69l0,.54c-.16,3.17-.32,4.33-.72,4.78a1.19,1.19,0,0,1-1,.42,11.62,11.62,0,0,1-1.62,0,2.82,2.82,0,0,0-.28-1c.55,0,1,0,1.26,0s.35,0,.45-.15.39-1.2.52-3.53h-5c-.19.27-.37.52-.55.75h.21V314h1v-1.6h1.12V314h1v-1.3h1.09v2.25h-2.29c-.3.78-1.1,1.5-3,1.95a2.74,2.74,0,0,0-.66-.81,3.67,3.67,0,0,0,2.41-1.14h-1.76v-1.37l-.17.15a7.92,7.92,0,0,0-.65-.48v.13h-1.87Zm0-6.46V312h1.87v.45a8.39,8.39,0,0,0,1.52-2.06l-.64.13a2.45,2.45,0,0,0-.56-.77c1.5-.23,2.21-.65,2.52-1.1h-1.87v-1.12l-.19.19a9,9,0,0,0-1-.69h-2v1.69h2.43v1.36Z" fill="#fff"/>
        <path d="M771.85,307.49a3.3,3.3,0,0,1-2.6,2.29,4.32,4.32,0,0,0-.61-.92c1-.22,1.79-.63,2-1.37h-1.9v-1h3v-.77h-2.37v-1h2.37v-.9h1.41v.9h2.41v1h-2.41v.77h3.06v1h-2.07V308c0,.31,0,.43.25.43h.73a3.42,3.42,0,0,0,.77-.08c0,.3,0,.61.08.91a2.8,2.8,0,0,1-.83.09h-1c-1,0-1.14-.44-1.14-1.37v-.47Zm10.5-1.78c0,3.58,0,6.35.54,6.35.21,0,.28-.85.3-2a4.73,4.73,0,0,0,.88.86c-.11,1.74-.35,2.46-1.3,2.46-1.58,0-1.75-2.67-1.78-6.44h-1.45a17.81,17.81,0,0,1-.34,2.3,18.37,18.37,0,0,1,1.65,1.08l-.7,1.1c-.33-.25-.82-.6-1.35-1a5.32,5.32,0,0,1-2.12,2.6,3.83,3.83,0,0,0-.8-1v.57c-2.57.2-5.24.38-7.13.52l-.08-1.14c.85,0,1.92-.1,3.09-.16v-1h-2.39v-1h2.39v-.85h1.41v.85h2.46v1h-2.46v.88l2.72-.2v.45a4.59,4.59,0,0,0,1.79-2.3l-1.42-.88.67-1,1.1.65a14.79,14.79,0,0,0,.21-1.6h-1.65v-1.25h1.72c0-.59,0-1.24.05-1.9h1.32c0,.66,0,1.3,0,1.9Zm0,8.4s0,.44-.07.62c-.27,2.37-.53,3.42-1,3.87a1.84,1.84,0,0,1-1.28.48,20.63,20.63,0,0,1-2.36,0,3,3,0,0,0-.45-1.39c.9.09,1.82.1,2.17.1s.5,0,.65-.15.45-.88.62-2.3h-4.35c-.77,2-2.49,3.22-6.79,3.82a4.63,4.63,0,0,0-.7-1.27c3.57-.41,5.1-1.22,5.83-2.55h-4.9v-1.22h5.34c.06-.3.12-.61.17-.95h1.56c-.05.34-.1.65-.16.95Z" fill="#fff"/>
        <path d="M751.7,340.14a18.66,18.66,0,0,0,.72-3.6l.83.26a23,23,0,0,1-.66,3.67Zm6.56-5.07c-.12,4-.24,5.47-.59,5.94a1,1,0,0,1-.86.46,5.46,5.46,0,0,1-1.32,0,3.28,3.28,0,0,0-.34-1.17,9.82,9.82,0,0,0,1.06.05.41.41,0,0,0,.41-.18,5.5,5.5,0,0,0,.29-1.81l-.62.25c-.17-.58-.54-1.5-.82-2.18l.6-.2a16.19,16.19,0,0,1,.84,2.05c0-.62.06-1.45.09-2.5h-4.41V327h5.6v1.27h-1.9v1.33h1.62v.64a12.18,12.18,0,0,0,4.32-4.12l1.41.45a4.23,4.23,0,0,1-.33.53,14.25,14.25,0,0,0,3.89,2.67,7.39,7.39,0,0,0-.62,1.38,12.18,12.18,0,0,1-1.52-.95v1h-4.92l0-.8c-.44.32-.87.6-1.32.87a6.33,6.33,0,0,0-.93-.94v.49h-1.62V332h1.65v1.2h-1.65v1.32h2Zm-4.07,1.72a27.41,27.41,0,0,1,.21,3l-.75.08c0-.81,0-2.07-.15-3Zm-.39-8.54v1.33h1.27v-1.33Zm1.27,2.52H753.8V332h1.27Zm-1.27,3.77h1.27v-1.32H753.8Zm1.37,2c.22.85.47,2,.57,2.68l-.7.15c-.1-.75-.34-1.85-.55-2.72Zm6.16.26c-.11.47-.24.89-.37,1.32a8.43,8.43,0,0,1,1.72,1.34l-.81,1a8.78,8.78,0,0,0-1.38-1.2,7.77,7.77,0,0,1-1.57,2.25,12,12,0,0,0-1-.88A7.35,7.35,0,0,0,760,336.6Zm-2.49-4.58h3.4v3.92h-3.4Zm1,2.88h1.25V333.3h-1.25Zm4.85-5.2a17.24,17.24,0,0,1-2.16-1.88,14.76,14.76,0,0,1-1.91,1.88Zm.74,6.8a12,12,0,0,1-.49,1.86,16,16,0,0,1,2.07,1.66l-.93,1.07a11.26,11.26,0,0,0-1.67-1.48,6.69,6.69,0,0,1-1.23,1.71,10,10,0,0,0-1.14-.88,7.17,7.17,0,0,0,2-4.15Zm-2.57-4.48h3.54v3.92h-3.54Zm1.07,2.88h1.35V333.3H764Z" fill="#fff"/>
        <path d="M774.16,330.28h-5.65v-1.23h2.85a15.27,15.27,0,0,0-1.26-2.25l1.06-.65a15.07,15.07,0,0,1,1.3,2.13l-1.08.77h2.78Zm-.45,10.33h-3.38v.75h-1.22v-5.64h4.6Zm-.06-8.13h-4.49v-1.21h4.49Zm-4.49,1h4.49v1.2h-4.49Zm1.17,3.5v2.39h2.17V337Zm6.54-5.44a7.84,7.84,0,0,1-2,2,5.51,5.51,0,0,0-.93-1,6.56,6.56,0,0,0,1.78-1.75,13.65,13.65,0,0,0-1.43-1.07l.82-1a12.18,12.18,0,0,1,1.33.87,7.38,7.38,0,0,0,.6-1.45h-2.22v-1.23h2.74l.25-.05.91.3a12.31,12.31,0,0,1-1.46,3.82h3.45a14.73,14.73,0,0,1-1.7-4.27l1.28-.24a13.12,13.12,0,0,0,.39,1.27c.4-.37.81-.75,1.11-1.05l.9.85a14.5,14.5,0,0,1-1.56,1.27c.13.28.28.57.41.83a12.84,12.84,0,0,0,1.3-1l.9.86a18.18,18.18,0,0,1-1.6,1.09,7,7,0,0,0,1.89,1.72,4.9,4.9,0,0,0-1,1.13,7.31,7.31,0,0,1-2-2v.77h-4.17Zm5.08,6.06c-.38.78-.81,1.67-1.21,2.33h2.91v1.25h-9.37v-1.25H777a7.88,7.88,0,0,0-.88-2.28l1.32-.35a7.53,7.53,0,0,1,1,2.3l-1.17.33h2.1a18.26,18.26,0,0,0,1.11-2.72Zm-6.32-4.47h6.61v4.05h-6.61ZM777,336h3.88v-1.63H777Z" fill="#fff"/>
      </g>
    </g>
    <ellipse cx="647.08" cy="266.44" rx="150.24" ry="266.27" transform="translate(284.93 865.23) rotate(-81.21)" fill="none" stroke="#002a5e" stroke-miterlimit="10" stroke-width="2"/>
    <g>
      <circle cx="387.12" cy="226.88" r="31.18" fill="#fff" stroke="#002a5e" stroke-miterlimit="10" stroke-width="2"/>
      <g>
        <path d="M369.2,228c-.6.17-1.18.37-1.8.55v5.94h-1.82v-5.39c-.9.27-1.73.54-2.5.74L362.6,228c.83-.18,1.85-.45,3-.76V224h-1.12a15.18,15.18,0,0,1-.61,2.14,14.91,14.91,0,0,0-1.41-.92,20.69,20.69,0,0,0,1-5.37l1.65.28c-.07.67-.15,1.32-.25,2h.78v-3.21h1.82v3.21h1.38V224H367.4v2.69l1.53-.44Zm9-6.52s0,.67,0,.9c-.32,7.44-.62,10.16-1.25,11a1.84,1.84,0,0,1-1.3.87,10.15,10.15,0,0,1-1.89.05,5.5,5.5,0,0,0-.55-1.93c.62.06,1.17.06,1.49.06a.68.68,0,0,0,.61-.31c.42-.54.72-2.8,1-8.79h-.09c-.81,4.2-2.53,8.54-5.22,10.75a7.61,7.61,0,0,0-1.61-1.15c2.66-1.91,4.33-5.7,5.17-9.6h-.79a16.74,16.74,0,0,1-3.82,7.3,7.31,7.31,0,0,0-1.51-1.12,12.87,12.87,0,0,0,3.68-6.18h-.85a12.28,12.28,0,0,1-1.72,3,11.42,11.42,0,0,0-1.5-1.11,13.84,13.84,0,0,0,2.74-6.29l1.8.33c-.17.77-.39,1.52-.62,2.25Z" fill="#002a5e"/>
        <path d="M385.11,231.15c-1.84.65-3.84,1.28-5.44,1.8l-.45-2c.59-.15,1.27-.33,2-.55v-3.92h-1.69v-1.81h1.69v-2.94h-1.84v-1.85h5.51v1.85h-1.79v2.94h1.5v1.81h-1.5v3.34c.55-.17,1.1-.33,1.63-.52Zm9.91,1V234H384.29v-1.8h4.6v-1.59h-3.45V228.8h3.45v-1.44h-3.33v-7.75h8.7v7.75h-3.35v1.44h3.54v1.78h-3.54v1.59Zm-7.68-9.48h1.72v-1.4h-1.72Zm0,3h1.72v-1.44h-1.72Zm5-4.39h-1.65v1.4h1.65Zm0,3h-1.65v1.44h1.65Z" fill="#002a5e"/>
        <path d="M411.32,231.43H405v1.2c0,.89-.2,1.32-.88,1.59a9.63,9.63,0,0,1-2.85.25,6.78,6.78,0,0,0-.6-1.67c.78,0,1.78,0,2,0s.35,0,.35-.25v-1.14h-6.75v-1.57H403v-.48a11.66,11.66,0,0,0,1.84-1h-5.36V227h7.26l.41-.1,1.12,1a23.68,23.68,0,0,1-3.18,1.91h6.23Zm-12.89-3.13h-1.88v-3.42h1.25l-.3-5a22.23,22.23,0,0,0,3.37-.93l.81,1.15a16.67,16.67,0,0,1-2.28.64l0,.48h2.12v1.23H399.5l0,.57h2.05v.85a11.75,11.75,0,0,0,1.17-.63c-.32-.2-.63-.39-.93-.55l.92-.79,1.05.57a8.43,8.43,0,0,0,.65-.7l1.3.38a6.38,6.38,0,0,1-.89,1,8.7,8.7,0,0,1,1,.77l-1,.87a10.24,10.24,0,0,0-1-.82,12.79,12.79,0,0,1-1.35.87H408l.06-.59h-2v-1.23h2.09l0-.57h-2v-1.23h2.12l0-.55h-2.24v-1.25h4.17c-.08,1.75-.21,3.87-.35,5.42h1.24v3.42h-2v-2H398.43Zm1.2-3.42h2.71c-.19-.22-.51-.54-.76-.77v.18h-2Zm5.17-3.07a7.77,7.77,0,0,0-.86-.7,8.2,8.2,0,0,1-1.35.83,8.57,8.57,0,0,0-1-.88,8,8,0,0,0,1.27-.65c-.32-.18-.6-.35-.9-.5l.88-.77c.32.15.67.34,1,.53a5.26,5.26,0,0,0,.6-.66l1.3.38a6,6,0,0,1-.83.92,10.44,10.44,0,0,1,.86.67Z" fill="#002a5e"/>
      </g>
    </g>
    <g>
      <circle cx="548.47" cy="402.95" r="31.18" fill="#fff" stroke="#002a5e" stroke-miterlimit="10" stroke-width="2"/>
      <g>
        <path d="M547.67,395.71v2h-15v-2h6.44v-3.35h-4.53v-1.92h4.53V387.5h-3.46a13.46,13.46,0,0,1-1.55,2.42,14.46,14.46,0,0,0-1.78-1.18,14.43,14.43,0,0,0,2.95-6l2.05.45c-.23.8-.5,1.58-.78,2.35h2.57v-3h2.08v3h5.62v1.93H541.2v2.94h5v1.92h-5v3.35Z" fill="#002a5e"/>
        <path d="M555.56,391.66c-.6.16-1.19.36-1.8.55v5.93h-1.82v-5.38c-.9.26-1.74.53-2.5.73l-.49-1.88c.84-.19,1.85-.46,3-.77v-3.19h-1.12a13.88,13.88,0,0,1-.62,2.14,14.74,14.74,0,0,0-1.4-.92,20.72,20.72,0,0,0,1-5.37l1.65.28c-.06.67-.15,1.32-.25,2h.79v-3.2h1.82v3.2h1.38v1.88h-1.38v2.69l1.53-.44Zm9-6.52s0,.66,0,.9c-.32,7.43-.62,10.15-1.25,11a1.83,1.83,0,0,1-1.3.86,8.67,8.67,0,0,1-1.89.05,5.56,5.56,0,0,0-.55-1.93c.62.06,1.17.06,1.48.06a.68.68,0,0,0,.62-.31c.42-.53.72-2.8,1-8.79h-.09c-.81,4.2-2.53,8.54-5.22,10.76a7,7,0,0,0-1.62-1.15c2.67-1.92,4.34-5.71,5.17-9.61h-.78a16.74,16.74,0,0,1-3.82,7.3,7,7,0,0,0-1.52-1.11,12.92,12.92,0,0,0,3.69-6.19h-.85a12.28,12.28,0,0,1-1.72,3,12.13,12.13,0,0,0-1.5-1.11,13.79,13.79,0,0,0,2.74-6.29l1.8.33c-.17.77-.39,1.52-.62,2.26Z" fill="#002a5e"/>
        <path d="M534.61,408c.9.88,2.67,1.3,4.92,1.41a6.37,6.37,0,0,0-1.1,1.59,8,8,0,0,1-4.37-1.69c-.63.74-2,1.39-4.82,1.7a5.92,5.92,0,0,0-.66-1.08h-4.42v-1.52h5v1c3.19-.33,3.6-1.09,3.6-1.7v-.25h-1a7.37,7.37,0,0,1-1.16,1.43,9.29,9.29,0,0,0-1.47-1,6.78,6.78,0,0,0,2-3l1.73.38c-.08.25-.18.5-.28.73h4.74l.3-.08,1.35.42a14.34,14.34,0,0,1-1.54,2.63l-1.53-.56a10.36,10.36,0,0,0,.58-1h-1.85V408Zm.45,9.8c1.54.57,3.17,1.24,4.16,1.72l-1.79,1.07a30.25,30.25,0,0,0-4.34-2l1-.82h-4.7l1.45.67a21.75,21.75,0,0,1-5.2,2.17,13.44,13.44,0,0,0-1.47-1.45,18.61,18.61,0,0,0,4.55-1.39h-2.4V411H537.5v6.77Zm-6.25-10.51h-4.27v-1.45h4.27Zm-.55,5.64h7.22v-.72h-7.22Zm0,1.84h7.22V414h-7.22Zm0,1.86h7.22v-.75h-7.22Z" fill="#002a5e"/>
        <path d="M546.92,409.33H540.8v-1.57h2.65a14.69,14.69,0,0,0-1-2.1l1.41-.72a16.52,16.52,0,0,1,1.12,2.22l-1,.6h2.94Zm-5.44,2.25v-1.5h4.84v1.5Zm0,.73h4.87v1.5h-4.87Zm4.87,7.36H543v.7H541.5v-5.76h4.85ZM543,416.2v1.87h1.77V416.2Zm11.6-10.34c-.15,5.48-.13,12.32.49,12.52a9,9,0,0,0,.22-2.12,8.52,8.52,0,0,0,1,1.6c-.25,2.44-1.1,3-2.14,2.52-1.58-.66-1.6-6.43-1.58-12.64h-2v4.41h1.6V414h-1.6v6.57h-1.85V414H546.9v-1.85h1.87v-4.41h-1.63v-1.88Z" fill="#002a5e"/>
        <path d="M572.67,417.53H566.3v1.2c0,.89-.2,1.32-.89,1.59a9.63,9.63,0,0,1-2.85.25,6.4,6.4,0,0,0-.6-1.67c.79,0,1.79,0,2,0s.35-.05.35-.25v-1.14h-6.76V416h6.76v-.48a11.58,11.58,0,0,0,1.83-1h-5.35v-1.38h7.25l.42-.1,1.12,1a23.2,23.2,0,0,1-3.19,1.91h6.24Zm-12.89-3.13h-1.89V411h1.25l-.3-5a21.91,21.91,0,0,0,3.37-.93l.82,1.15a15.18,15.18,0,0,1-2.29.63l0,.49h2.12v1.23h-2.06l0,.57h2V410a11.75,11.75,0,0,0,1.17-.63l-.94-.56.92-.78,1,.57a7,7,0,0,0,.65-.7l1.3.38a6.85,6.85,0,0,1-.88,1,7.77,7.77,0,0,1,1,.77l-1,.87a11.39,11.39,0,0,0-1-.82,12.79,12.79,0,0,1-1.35.87h5.4l.07-.59h-2v-1.23h2.08l0-.57h-2v-1.23h2.12l0-.55H567.4v-1.25h4.17c-.09,1.75-.22,3.87-.35,5.42h1.23v3.42h-2v-2h-10.7ZM561,411h2.7a8.92,8.92,0,0,0-.75-.77v.18h-2Zm5.17-3.07a9.08,9.08,0,0,0-.87-.7,8.94,8.94,0,0,1-1.35.83,8.31,8.31,0,0,0-1-.88,7.91,7.91,0,0,0,1.26-.65c-.31-.19-.6-.35-.9-.5l.89-.77c.31.15.66.33,1,.53a4.59,4.59,0,0,0,.6-.66l1.3.38a5.9,5.9,0,0,1-.83.92c.33.23.63.46.87.66Z" fill="#002a5e"/>
      </g>
    </g>
    <g>
      <circle cx="732.86" cy="421.23" r="31.18" fill="#fff" stroke="#002a5e" stroke-miterlimit="10" stroke-width="2"/>
      <g>
        <path d="M719,408.62H717.2v-3.75h6.3v-.67H718v-1.3H731v1.3h-5.59v.67h6.44v3.75H730l-.35,1.18a26,26,0,0,0-3.85-.92l.38-1.11a22.08,22.08,0,0,1,3.75.78v-2.38H729l.6.85a17.47,17.47,0,0,1-3,.8l-.61-.94a21.09,21.09,0,0,0,2.28-.71h-2.85v3.47H723.5v-3.47h-3.18a17.64,17.64,0,0,1,2.6.68l-.53,1.07a20.54,20.54,0,0,0-2.87-.82l.47-.93h-.91v2.28c1-.12,2.42-.32,3.86-.53l.06,1.13-3.53.8Zm10.64,7.52c.85,0,1-.25,1.12-1.65a5.24,5.24,0,0,0,1.65.62c-.24,2-.79,2.53-2.6,2.53h-3.51c-2.26,0-2.92-.47-2.92-2.2v-.05h-2.76v.72h-1.91v-6.06h11.56v5.34h-5v.05c0,.6.2.7,1.2.7Zm-9-4.75v.75h2.76v-.75Zm2.76,2.67v-.76h-2.76v.76Zm4.92-2.67h-3v.75h3Zm0,2.67v-.76h-3v.76Z" fill="#002a5e"/>
        <path d="M738.93,415.84c0,.85-.13,1.37-.63,1.65a4.32,4.32,0,0,1-2.27.35,6.65,6.65,0,0,0-.49-1.75c.62,0,1.24,0,1.46,0s.28-.07.28-.3v-3.89c-.33.35-.68.7-1,1.05l-.47-1.13a19.82,19.82,0,0,1-1.16,6.12,6.43,6.43,0,0,0-1.34-1.12c.9-2.28,1-5.59,1-8v-5.95h4.67Zm-3-7c0,.72,0,1.52,0,2.39.42-.28.92-.67,1.45-1.07V408.5l-.64.43a8.29,8.29,0,0,0-.76-1.15Zm0-4.17v2.09l.51-.33c.29.31.62.68.89,1v-2.79Zm5.39,4.19a18.69,18.69,0,0,0-2.07-3.38,29.46,29.46,0,0,0,1.8-3.12l1.72.4c-.5.91-1.12,1.88-1.64,2.7a20.76,20.76,0,0,1,1.82,2.73Zm3.78-.3c-.2.32-.42.63-.63.93h4.13v8.33h-1.83v-.59h-5.24v.65h-1.77v-8.39h2.74a12.66,12.66,0,0,0,.52-1.31l1.16.21a17.8,17.8,0,0,0-1.93-2.93A26,26,0,0,0,744,402.5l1.72.41c-.5.85-1.09,1.75-1.6,2.52a17.5,17.5,0,0,1,1.8,2.55l-1.19.5Zm1.67,2.54h-1.65l1.32.7a12.77,12.77,0,0,1-1.06,1.35c.52.41,1,.83,1.36,1.18l-1.12,1.1a12.3,12.3,0,0,0-1.34-1.22,11.68,11.68,0,0,1-1.78,1.29,5.21,5.21,0,0,0-1-1v1.16h5.24Zm-5.24,0v3.31a10.88,10.88,0,0,0,1.6-1.11c-.48-.35-.93-.69-1.38-1l1-.95c.45.27.94.58,1.39.88a6.47,6.47,0,0,0,.9-1.16Zm5.89-2.49a16.37,16.37,0,0,0-2.22-3.15,26.74,26.74,0,0,0,1.82-2.94l1.75.42c-.5.83-1.08,1.73-1.62,2.49a18.32,18.32,0,0,1,1.89,2.46Z" fill="#002a5e"/>
        <path d="M722.22,435.39a19.2,19.2,0,0,0-1-1.83v6.77H719.3v-6a15.76,15.76,0,0,1-1.82,3.3,10.62,10.62,0,0,0-.91-1.89,15.85,15.85,0,0,0,2.47-4.47h-2.26v-1.85h2.52v-1.88c-.65.1-1.27.2-1.88.27a6,6,0,0,0-.54-1.54,26.22,26.22,0,0,0,5.37-1.37l1.12,1.62a15.16,15.16,0,0,1-2.15.62v2.28h2.2v1.85h-2.2v.14c.48.46,1.85,2,2.17,2.42Zm8.22.72v4.2h-2v-3.85l-5,.87-.31-1.89,5.35-.91v-9.78h2v9.44l1.65-.28.32,1.85Zm-4.18-2.32a15.22,15.22,0,0,0-2.66-2.55l1.27-1.13a14.4,14.4,0,0,1,2.74,2.42Zm.43-4.4a12.66,12.66,0,0,0-2.48-2.5l1.3-1.14a13.29,13.29,0,0,1,2.56,2.41Z" fill="#002a5e"/>
        <path d="M748.72,437.28h-6.37v1.2c0,.88-.2,1.32-.88,1.58a9.41,9.41,0,0,1-2.86.25,6,6,0,0,0-.6-1.66c.79,0,1.79,0,2,0s.35-.05.35-.25v-1.13h-6.76v-1.57h6.76v-.48a12.46,12.46,0,0,0,1.83-1h-5.35v-1.38h7.25l.42-.1,1.12,1a23.23,23.23,0,0,1-3.19,1.92h6.24Zm-12.89-3.14h-1.89v-3.42h1.25l-.3-5a24.44,24.44,0,0,0,3.37-.93l.82,1.15a16.7,16.7,0,0,1-2.28.63l0,.49H739v1.23H736.9l0,.57H739v.85a10,10,0,0,0,1.17-.64c-.32-.2-.64-.38-.94-.55l.92-.78,1,.57a6.14,6.14,0,0,0,.65-.71l1.3.39a7.42,7.42,0,0,1-.88,1,8.7,8.7,0,0,1,1,.77l-1,.86a11.78,11.78,0,0,0-1-.81,12.67,12.67,0,0,1-1.35.86h5.4l.07-.58h-2v-1.23h2.08l0-.57h-2v-1.23h2.12l0-.55h-2.23V425.3h4.17c-.08,1.76-.22,3.87-.35,5.42h1.23v3.42h-2v-2H735.83Zm1.2-3.42h2.7A10.61,10.61,0,0,0,739,430v.18h-2Zm5.17-3.07c-.22-.21-.54-.44-.87-.7a8.28,8.28,0,0,1-1.35.84,9.3,9.3,0,0,0-1-.89,7.17,7.17,0,0,0,1.26-.65c-.31-.18-.6-.35-.9-.5l.89-.76c.31.15.66.33,1,.53a5.43,5.43,0,0,0,.61-.67l1.3.39a6.47,6.47,0,0,1-.84.91c.34.24.64.47.87.67Z" fill="#002a5e"/>
      </g>
    </g>
    <g>
      <circle cx="876.2" cy="357.6" r="31.18" fill="#fff" stroke="#002a5e" stroke-miterlimit="10" stroke-width="2"/>
      <g>
        <path d="M865.67,338.35a26.5,26.5,0,0,1-1.61,3.47v11.42h-2V344.9c-.35.42-.7.84-1,1.2a13.35,13.35,0,0,0-1.1-2.11,17.33,17.33,0,0,0,3.8-6.24Zm5.28,3.93V344h4.32v1.8H871v1.88h4.54v1.84H871v3.7h-2v-11h-.64a18.09,18.09,0,0,1-2.18,3.24,12.6,12.6,0,0,0-1.52-1.38,16.57,16.57,0,0,0,3.54-6.29l1.92.48a20.23,20.23,0,0,1-.82,2.07h6.47v1.88Z" fill="#002a5e"/>
        <path d="M883.14,350.66a12.84,12.84,0,0,1-4.85,2.22,7.78,7.78,0,0,0-1.17-1.44,13.83,13.83,0,0,0,4.62-1.42Zm8.84-2.82v1.63h-6.47v3.81h-2v-3.81h-6.35v-1.63h6.35v-.74h-4.8v-1.43h4.8v-.75h-5.63v-1.5H881a10.68,10.68,0,0,0-.61-1.22l1.11-.25h-4.25V340.4h2.27a15.13,15.13,0,0,0-1.07-2.07l1.7-.57a11.37,11.37,0,0,1,1.27,2.34l-.8.3h1.53v-2.72H884v2.72h1.25v-2.72h1.87v2.72h1.48l-.6-.18a14.2,14.2,0,0,0,1.07-2.4l2.08.48c-.46.77-.91,1.52-1.33,2.1h2.15V342h-4.4l1.57.4c-.37.4-.72.77-1,1.07h3.22v1.5h-5.79v.75h5v1.43h-5v.74ZM882.36,342a8.21,8.21,0,0,1,.67,1.25l-.91.22h4.56l-.6-.19c.26-.38.61-.88.85-1.28Zm5.2,8c1.35.5,3.32,1.34,4.39,1.87l-1.4,1.09a46.07,46.07,0,0,0-4.32-2Z" fill="#002a5e"/>
        <path d="M863.91,362.72A26.18,26.18,0,0,1,863,366h3.12v7.67H863v1.22H861.3v-5.17c-.22.32-.44.62-.67.9a11.83,11.83,0,0,0-.68-2.37,13.92,13.92,0,0,0,2.11-5.57H860.3v-1.8h6.05v1.8Zm.54,5.07H863V372h1.5Zm11.21,1H873.9v6.94H872v-6.94h-1.9c-.1,2.46-.58,5.24-2.3,7.06a8.17,8.17,0,0,0-1.5-1.15c1.43-1.55,1.85-3.87,1.95-5.91h-1.55v-1.86h1.58v-4.12h-1.15V361h8.17v1.84H873.9v4.12h1.76ZM872,366.93v-4.12h-1.87v4.12Z" fill="#002a5e"/>
        <path d="M890.1,373.48c.38,0,.45-.3.51-2.37a6,6,0,0,0,1.87.85c-.2,2.74-.71,3.47-2.15,3.47h-1.57c-1.63,0-2.15-.58-2.15-2.53v-2.16h-2.18c-.42,2-1.87,4-6.19,5.09a10.11,10.11,0,0,0-1.4-1.7c3.45-.87,4.85-2.12,5.35-3.39h-4.08v-1.83h4.37v-1.83h2.1v1.83h4.12v4c0,.53.06.6.45.6ZM879.42,365h-2v-3.4h6.09c-.12-.42-.23-.84-.35-1.19l2.1-.33c.17.47.35,1,.5,1.52h6.07v3.25h-2.08v-1.47H887.4v2.14c0,.43.06.61.5.61h2a6.29,6.29,0,0,0,1.45-.13c0,.53.1,1.2.17,1.67a6.49,6.49,0,0,1-1.53.13h-2.25c-1.89,0-2.34-.67-2.34-2.3v-2.12h-1.72c-.31,2.37-1.26,3.79-5.08,4.59a4.83,4.83,0,0,0-1-1.62c3.15-.52,3.8-1.4,4-3h-2.2Z" fill="#002a5e"/>
      </g>
    </g>
    <g>
      <circle cx="892.2" cy="238.09" r="31.18" fill="#fff" stroke="#002a5e" stroke-miterlimit="10" stroke-width="2"/>
      <g>
        <path d="M890.53,220.51a19.88,19.88,0,0,1-1.55,6.16,7.14,7.14,0,0,0,2.87,3,6.25,6.25,0,0,0-1.25,1.54,8.46,8.46,0,0,1-2.64-2.89,9.57,9.57,0,0,1-3.6,3,9.27,9.27,0,0,0-.55-1l-.5.45a15.1,15.1,0,0,0-2-1,14.1,14.1,0,0,1-4.6,1.43,5.07,5.07,0,0,0-.77-1.28,16.17,16.17,0,0,0,3.48-.87,23.79,23.79,0,0,0-2.3-.68,14,14,0,0,0,.92-1.27h-1.77v-1.34h2.62c.15-.25.28-.5.4-.75H877v-3h3v-.48h-2.67v-1.84h-1.15v-1.4h1.15v-1.72h2.67v-1h1.5v1h2.86v1.72h.87v1.4h-.87v1.84h-2.86v.48h3.1v.67a26.69,26.69,0,0,0,2-7.11l1.63.3c-.15.92-.35,1.87-.58,2.79h4v1.73ZM878.61,224h1.32v-.73h-1.32Zm.11-6v.58h1.21v-.58Zm1.21,2.47v-.69h-1.21v.69Zm-.09,6.77c-.11.2-.25.38-.36.57.53.15,1.06.3,1.58.48a2.93,2.93,0,0,0,.87-1.05Zm3.74,0a3.66,3.66,0,0,1-.9,1.65c.53.23,1.05.45,1.52.67a7.5,7.5,0,0,0,3-2.87,23.37,23.37,0,0,1-1-3.44c-.22.52-.45,1-.68,1.42a11,11,0,0,0-1-1v1.46H881q-.18.38-.39.75h1.49v-.48h1.55v.48h1.38v1.34Zm-2.15-9.24v.58h1.3v-.58Zm1.3,2.47v-.69h-1.3v.69Zm-1.3,2.85V224h1.36v-.73Zm5.7-2.74a23,23,0,0,0,1,4,19.73,19.73,0,0,0,.75-4Z" fill="#002a5e"/>
        <path d="M908.06,228.22h-6.37v1.2c0,.88-.2,1.32-.89,1.58a9.31,9.31,0,0,1-2.85.25,6.33,6.33,0,0,0-.6-1.66c.79,0,1.79,0,2,0s.35,0,.35-.25v-1.13H893v-1.57h6.76v-.48a11.58,11.58,0,0,0,1.83-1h-5.35v-1.38h7.25l.42-.1,1.12,1a23.23,23.23,0,0,1-3.19,1.92h6.24Zm-12.89-3.14h-1.89v-3.41h1.25l-.3-5a23.11,23.11,0,0,0,3.37-.93l.82,1.15a15.18,15.18,0,0,1-2.29.63l0,.49h2.12v1.23h-2.06l0,.57h2.05v.85a10,10,0,0,0,1.17-.64c-.32-.2-.64-.38-.94-.55l.92-.78,1,.57a7,7,0,0,0,.65-.7l1.3.38a7.42,7.42,0,0,1-.88,1,8.7,8.7,0,0,1,1,.77l-1,.86a11.47,11.47,0,0,0-1-.81,14.62,14.62,0,0,1-1.35.87h5.4l.07-.59h-2v-1.23h2.08l0-.57h-2v-1.23H905l0-.55h-2.23v-1.26H907c-.09,1.76-.22,3.87-.35,5.43h1.23v3.41h-2v-2h-10.7Zm1.2-3.41h2.7a8.92,8.92,0,0,0-.75-.77v.18h-2Zm5.17-3.07a9.08,9.08,0,0,0-.87-.7,8.94,8.94,0,0,1-1.35.83,8.31,8.31,0,0,0-1-.88,7.91,7.91,0,0,0,1.26-.65c-.31-.19-.6-.35-.9-.51l.89-.76c.31.15.66.33,1,.53a4.65,4.65,0,0,0,.6-.67l1.31.39a7.14,7.14,0,0,1-.84.92,10.84,10.84,0,0,1,.87.66Z" fill="#002a5e"/>
        <path d="M869.75,249.36a18.86,18.86,0,0,1-.73,4.07,6.75,6.75,0,0,0-1.47-.54,14,14,0,0,0,.67-3.78Zm3-1a7.08,7.08,0,0,0-.15-.75,20,20,0,0,0-4.27.95,11.08,11.08,0,0,0-.62-1.76,2.72,2.72,0,0,0,1.31-1.1,14.21,14.21,0,0,0,1-1.32,6,6,0,0,0-1.83.35c-.1-.38-.4-1.25-.6-1.75.31-.09.6-.4.93-.9a19.65,19.65,0,0,0,2-4.09l1.77.77a26.51,26.51,0,0,1-2.32,4.15l1.1-.08c.45-.79.92-1.67,1.29-2.5l1.62,1a27.88,27.88,0,0,1-3.46,5.12l1.69-.26a11,11,0,0,0-.5-1.24l1.33-.51a14,14,0,0,1,1.17,3.33Zm-1.23.59a30.86,30.86,0,0,1,.45,3.43l-1.49.37a32.36,32.36,0,0,0-.35-3.44Zm1.76-.49a27.09,27.09,0,0,1,.84,2.71l-1.4.51a22,22,0,0,0-.77-2.76Zm8,3.21c.3,0,.35-.32.4-2.27a5.12,5.12,0,0,0,1.67.73c-.16,2.57-.61,3.29-1.87,3.29h-1.2c-1.51,0-1.85-.59-1.85-2.34v-5l-1,.12c-.13,3.57-.58,6.07-3.3,7.55a5.3,5.3,0,0,0-1.2-1.55c2.2-1.13,2.53-3,2.63-5.75a3.78,3.78,0,0,0-1.13.27,15.78,15.78,0,0,0-.67-1.9c.4-.12.74-.52,1.15-1.21a12.24,12.24,0,0,0,1-1.73h-2v-1.85h2.83c.27-.65.54-1.32.76-2l2.15.56c-.2.49-.4,1-.62,1.44H883v1.85h-4.86c-.5,1-1,1.83-1.58,2.64l3.52-.34c-.27-.45-.53-.88-.77-1.3l1.6-.72a23.23,23.23,0,0,1,2.26,4.14l-1.74.8a11.68,11.68,0,0,0-.52-1.3l-.65.08v5.17c0,.52,0,.59.32.59Z" fill="#002a5e"/>
        <path d="M891.87,242.47h-7V240.9h2.92a19.94,19.94,0,0,0-1.08-2.1l1.55-.72a17.92,17.92,0,0,1,1.22,2.22l-1.09.6h3.51Zm-6.29,2.25v-1.5h5.58v1.5Zm5.57,2.24h-5.57v-1.5h5.57Zm.05,5.85h-3.89v.7h-1.67v-5.75h5.56Zm-3.89-3.47v1.87h2.17v-1.87Zm12.56-3.7h-3.08v8.09h-2.07v-8.09H891.8v-1.95h2.92v-5.24h2.07v5.24h3.08Z" fill="#002a5e"/>
        <path d="M916.4,250.68H910v1.2c0,.88-.2,1.31-.89,1.58a9.63,9.63,0,0,1-2.85.25,6.53,6.53,0,0,0-.6-1.67c.78,0,1.78,0,2,0s.35-.05.35-.25v-1.13h-6.75v-1.57h6.75v-.49a12.47,12.47,0,0,0,1.84-1h-5.35v-1.39h7.25l.42-.1,1.11,1a23.1,23.1,0,0,1-3.18,1.92h6.24Zm-12.9-3.14h-1.88v-3.42h1.25l-.3-5a23.11,23.11,0,0,0,3.37-.94l.82,1.16a16.46,16.46,0,0,1-2.29.63l0,.48h2.11v1.24h-2l0,.56h2v.85a11.57,11.57,0,0,0,1.16-.63c-.31-.2-.63-.38-.93-.55l.92-.78c.33.16.68.36,1.05.56a5.34,5.34,0,0,0,.65-.7l1.3.39a7.42,7.42,0,0,1-.88,1,7,7,0,0,1,1,.76l-1,.87a11.39,11.39,0,0,0-1-.82,12.34,12.34,0,0,1-1.36.87H913l.06-.58h-2V242.3h2.08l0-.56h-2V240.5h2.12l0-.55h-2.23V238.7h4.17c-.09,1.75-.22,3.87-.35,5.42h1.23v3.42h-2v-2H903.5Zm1.21-3.42h2.7c-.19-.22-.5-.53-.75-.77v.19h-2Zm5.17-3.07a10.94,10.94,0,0,0-.87-.7,8.28,8.28,0,0,1-1.35.84,7.79,7.79,0,0,0-1-.89,6.92,6.92,0,0,0,1.27-.65c-.32-.18-.6-.35-.9-.5l.88-.77c.32.15.67.34,1,.54a5.25,5.25,0,0,0,.6-.67l1.3.38a5.48,5.48,0,0,1-.83.92c.33.24.63.47.87.67Z" fill="#002a5e"/>
      </g>
    </g>
    <g>
      <circle cx="738.94" cy="128.49" r="31.18" fill="#fff" stroke="#002a5e" stroke-miterlimit="10" stroke-width="2"/>
      <g>
        <path d="M726.86,119.88a14.87,14.87,0,0,0-.68-1.62V126h-1.7v-6.4a15.35,15.35,0,0,1-1.13,3,12.24,12.24,0,0,0-.79-2,16.37,16.37,0,0,0,1.82-5.22H723v-1.84h1.47v-3.1h1.7v3.1h1.13v1.84h-1.13v.73c.37.5,1.32,2,1.55,2.45ZM737.4,121a9.11,9.11,0,0,1-1.81,2.45,1.63,1.63,0,0,0,1,.6c.32,0,.52-.56.63-1.73a5.21,5.21,0,0,0,1.26,1.05c-.44,2.07-1.11,2.65-1.82,2.6a3.38,3.38,0,0,1-2.45-1.42A12.73,12.73,0,0,1,731.6,126a7.89,7.89,0,0,0-1-1.27,10.56,10.56,0,0,0,2.87-1.5,14.48,14.48,0,0,1-.85-2.67h-2.27c0,.12,0,.25,0,.37.68.55,1.63,1.32,2.12,1.78l-1.2,1.19c-.29-.34-.77-.77-1.25-1.22A6.61,6.61,0,0,1,727.7,126a6,6,0,0,0-1.32-1.13,5.41,5.41,0,0,0,2.27-4.34h-1V119h4.66a53.33,53.33,0,0,1-.57-5.83,23.34,23.34,0,0,1-2.27,3.47l.94-.1c-.07-.27-.15-.54-.22-.76l1.15-.3a15.39,15.39,0,0,1,.65,2.41l-1.22.36a3.51,3.51,0,0,0-.1-.56,10.64,10.64,0,0,0-2.62.51,11.19,11.19,0,0,0-.45-1.35,1.6,1.6,0,0,0,.82-.75,11.85,11.85,0,0,0,.8-1.2,4.8,4.8,0,0,0-1.33.28,12.71,12.71,0,0,0-.47-1.33,1.22,1.22,0,0,0,.6-.6,11.56,11.56,0,0,0,1.1-2.67l1.44.39a17.52,17.52,0,0,1-1.44,2.76l.75,0c.17-.35.34-.7.47-1l1.38.45c0-.8-.06-1.67-.1-2.54h1.64A55.09,55.09,0,0,0,734,119h1.53c-.28-.25-.6-.5-.86-.71l.75-.62a4,4,0,0,0-1.19.3,12,12,0,0,0-.45-1.37,1.85,1.85,0,0,0,.82-.77,7.68,7.68,0,0,0,.77-1.18,4.53,4.53,0,0,0-1.3.28c-.09-.3-.32-1-.47-1.33.2,0,.38-.27.57-.57a13.24,13.24,0,0,0,1-2.52l1.41.39a13.17,13.17,0,0,1-1.3,2.57l.75,0c.15-.34.3-.7.44-1l1.43.47a20.87,20.87,0,0,1-2.23,3.54l.93-.12c-.08-.24-.15-.49-.23-.69l1.13-.31a20.63,20.63,0,0,1,.77,2.42l-1.19.4a6,6,0,0,0-.15-.67l-1,.17a13.1,13.1,0,0,1,1.27,1l-.43.4H738v1.52h-1.93Zm-3.11-.5a10.4,10.4,0,0,0,.45,1.45,7.86,7.86,0,0,0,1-1.45Z" fill="#002a5e"/>
        <path d="M752,118.9a18.64,18.64,0,0,1,3.2,2.26l-1.34,1.16c-.13-.14-.28-.29-.45-.44v4h-1.81v-.4h-2v.5h-1.72v-5.35h3.9a20.17,20.17,0,0,0-3-1.75h-3.16a11.92,11.92,0,0,1-2.05,1.75h3.21v5.25h-1.81v-.4H743v.5h-1.72v-4l-.9.4a5.83,5.83,0,0,0-1-1.5A13.83,13.83,0,0,0,743,118.9h-3.25v-1.66h5a8.2,8.2,0,0,0,.85-1.26h-4.65v-4.86h5.64v4.56l1.11.22a9.32,9.32,0,0,1-.75,1.34h3.71a11.28,11.28,0,0,0-1.52-.75l.53-.51h-1.55v-4.86h5.69V116H751a9.37,9.37,0,0,1,1.42.83l-.43.43h2.85v1.66Zm-7.26-6.22h-2.07v1.73h2.07Zm.23,9.52H743v1.72h1.91Zm6.63,1.72V122.2h-2v1.72Zm-1.77-9.51H752v-1.73h-2.17Z" fill="#002a5e"/>
        <path d="M738.12,145.42h-6.37v1.2c0,.89-.2,1.32-.88,1.59a9.67,9.67,0,0,1-2.85.25,6.42,6.42,0,0,0-.61-1.67c.79,0,1.79,0,2,0s.35-.05.35-.25v-1.14h-6.75v-1.57h6.75v-.48a11.58,11.58,0,0,0,1.83-1h-5.35V141h7.26l.41-.1,1.12,1a23.2,23.2,0,0,1-3.19,1.91h6.24Zm-12.89-3.13h-1.88v-3.42h1.25l-.3-5a21.79,21.79,0,0,0,3.36-.93l.82,1.15a16.67,16.67,0,0,1-2.28.64l0,.48h2.12v1.23H726.3l0,.57h2v.85a11.75,11.75,0,0,0,1.17-.63c-.32-.2-.63-.39-.93-.55l.91-.79c.34.17.69.37,1.05.57a6,6,0,0,0,.65-.7l1.3.38a6.85,6.85,0,0,1-.88,1,8.7,8.7,0,0,1,1,.77l-1,.87a11.69,11.69,0,0,0-1-.82,12.79,12.79,0,0,1-1.35.87h5.4l.07-.59h-2v-1.23h2.09l0-.57h-2v-1.23h2.12l0-.55h-2.24v-1.25H737c-.08,1.75-.22,3.87-.35,5.42h1.23v3.42h-2v-2H725.23Zm1.2-3.42h2.7a8.92,8.92,0,0,0-.75-.77v.18h-2Zm5.17-3.07a8,8,0,0,0-.87-.7,8.2,8.2,0,0,1-1.35.83,7.74,7.74,0,0,0-1-.88,8,8,0,0,0,1.27-.65c-.32-.18-.6-.35-.9-.5l.88-.77c.32.15.67.33,1,.53a6.17,6.17,0,0,0,.6-.66l1.3.38a6.54,6.54,0,0,1-.84.92,9.23,9.23,0,0,1,.87.67Z" fill="#002a5e"/>
        <path d="M744.19,138.78c-1.33.59-2.75,1.17-3.94,1.66l-.68-1.62c1.08-.34,2.72-.9,4.32-1.45Zm4.15,1.49c-.2.43-.43.85-.65,1.22H753v7h-2.07v-.6h-7.14v.6h-2v-7h3.92c.13-.32.25-.67.34-1l-.05,0a6.61,6.61,0,0,1-2.26.21,5.32,5.32,0,0,0-.5-1.4c.56,0,1.21,0,1.4,0s.25-.07.25-.23v-4h-3.22a9.43,9.43,0,0,1,1.85,1.25l-1,1.26a9.24,9.24,0,0,0-2.1-1.51l.83-1H740v-1.54h6.69v5.52a2.13,2.13,0,0,1-.13.87Zm2.57,2.72h-7.14v1h7.14Zm0,3.42v-1h-7.14v1Zm3.32-7.31c0,.8-.17,1.2-.73,1.45a6.11,6.11,0,0,1-2.44.25,6.23,6.23,0,0,0-.53-1.5c.63,0,1.37,0,1.57,0s.28-.06.28-.25v-3.91h-3.19a10.74,10.74,0,0,1,1.86,1.18l-.91,1.2,1.54-.53.3,1.41c-1.44.55-3,1.12-4.2,1.57l-.67-1.48c.77-.24,1.78-.55,2.87-.92a10.34,10.34,0,0,0-2.1-1.45l.8-1h-1.09v-1.54h6.64Z" fill="#002a5e"/>
      </g>
    </g>
    <g>
      <circle cx="546.47" cy="114.53" r="31.18" fill="#fff" stroke="#002a5e" stroke-miterlimit="10" stroke-width="2"/>
      <g>
        <path d="M525.32,114.26a44.53,44.53,0,0,1-1.21,6.92l-2-.8a33.15,33.15,0,0,0,1.28-6.49Zm3.14-1.36v7.74c0,.79.13.92.93.92h2.39c.83,0,1-.53,1.1-3.14a5.82,5.82,0,0,0,1.87.84c-.24,3.17-.77,4.15-2.8,4.15h-2.79c-2.17,0-2.77-.67-2.77-2.77V112.9Zm-.15-4.48a30.51,30.51,0,0,1,4.62,3.45l-1.47,1.55a28.92,28.92,0,0,0-4.5-3.65Zm7.27,4.93a30.69,30.69,0,0,1,2.15,6.21l-2,.83a28.09,28.09,0,0,0-2-6.28Z" fill="#002a5e"/>
        <path d="M544.45,120.39c-1.83.65-3.83,1.29-5.43,1.8l-.46-2,2-.55v-3.92h-1.68v-1.82h1.68V111h-1.83V109.1h5.5V111h-1.79v2.94H544v1.82h-1.5V119c.55-.16,1.11-.33,1.64-.51Zm9.91,1v1.8H543.64v-1.8h4.6v-1.58h-3.45V118h3.45v-1.43H544.9v-7.76h8.71v7.76h-3.35V118h3.53v1.79h-3.53v1.58Zm-7.67-9.47h1.71v-1.4h-1.71Zm0,3h1.71v-1.43h-1.71Zm5-4.38h-1.65v1.4h1.65Zm0,2.95h-1.65v1.43h1.65Z" fill="#002a5e"/>
        <path d="M570.67,120.68H564.3v1.2c0,.88-.2,1.31-.89,1.58a9.63,9.63,0,0,1-2.85.25A6.53,6.53,0,0,0,560,122c.78,0,1.79,0,2,0s.35,0,.35-.25v-1.13h-6.76v-1.57h6.76v-.48a13.5,13.5,0,0,0,1.83-1h-5.35v-1.39h7.25l.42-.1,1.12,1a23.84,23.84,0,0,1-3.19,1.92h6.24Zm-12.89-3.14h-1.89v-3.42h1.25l-.3-5a23.11,23.11,0,0,0,3.37-.94l.82,1.16a16.46,16.46,0,0,1-2.29.63l0,.48h2.11v1.24h-2l0,.56h2v.85a11.75,11.75,0,0,0,1.17-.63c-.32-.2-.64-.38-.94-.55l.92-.78c.33.16.68.36,1,.56a5.34,5.34,0,0,0,.65-.7l1.3.39a7.42,7.42,0,0,1-.88,1,7,7,0,0,1,1,.76l-1,.87c-.25-.25-.58-.51-1-.82a10.71,10.71,0,0,1-1.36.87h5.41l.07-.58h-2V112.3h2.08l0-.56h-2V110.5h2.12l0-.55H565.4V108.7h4.17c-.09,1.75-.22,3.87-.35,5.42h1.23v3.42h-2v-2h-10.7Zm1.2-3.42h2.7c-.19-.22-.5-.53-.75-.77v.19h-2Zm5.17-3.07a10.94,10.94,0,0,0-.87-.7,8.28,8.28,0,0,1-1.35.84,7.79,7.79,0,0,0-1-.89,6.92,6.92,0,0,0,1.27-.65c-.31-.18-.6-.35-.9-.5l.88-.76a11.17,11.17,0,0,1,1,.53,5.25,5.25,0,0,0,.6-.67l1.3.39a5.84,5.84,0,0,1-.83.91c.33.24.63.47.87.67Z" fill="#002a5e"/>
      </g>
    </g>
    <circle cx="646.82" cy="226.88" r="81.05" fill="#f8a908" stroke="#002a5e" stroke-miterlimit="10" stroke-width="2"/>
    <g>
      <path d="M632.76,215.73c.72,0,.86-.31,1-1.89a5.67,5.67,0,0,0,1.73.73c-.23,2.25-.79,2.94-2.54,2.94h-3.13c-2.13,0-2.7-.58-2.7-2.63v-3.44l-.74.33-.74-1.73c-.07,4.39-.2,6.12-.61,6.68a1.56,1.56,0,0,1-1.15.75,9.23,9.23,0,0,1-1.86.09,5,5,0,0,0-.52-1.91,9.18,9.18,0,0,0,1.32.08.5.5,0,0,0,.5-.29c.23-.36.34-1.89.41-6.11h-1.4c-.25,3.25-.83,6.15-2.32,8.22a6.06,6.06,0,0,0-1.53-1.5c1.78-2.47,1.94-6.41,2-10.59h-1.72v-2h3.13a15.86,15.86,0,0,0-.74-2.32l1.91-.45a24.63,24.63,0,0,1,.85,2.36l-1.46.41H626v1.89a12.57,12.57,0,0,0,2-4.64l2.09.41a18.43,18.43,0,0,1-.56,1.87h5.69v2h-6.48a12.22,12.22,0,0,1-1,1.75H629v1.72l1-.43v-2.59h1.78v1.75l1.34-.62.3-.21,1.41.38-.09.28a53.7,53.7,0,0,1-.44,6.23l-1.51-.28c.09-1.08.15-2.69.16-4.24l-1.17.54v5H630v-4.2l-1,.45v4.34c0,.74.12.85,1,.85Zm-5.67-6.4v-1.89l-.16.18a12.92,12.92,0,0,0-1.61-1.51,6.09,6.09,0,0,0,.58-.65h-3.44c0,.65,0,1.28-.05,1.93h3.24v.83l0,1.8Z" fill="#002a5e"/>
      <path d="M655.06,217h-6.3v.59h-1.94v-7l-.18.18a12.91,12.91,0,0,0-1.59-1.19,10.1,10.1,0,0,0,2.72-4h-5.13l1,.39a16.69,16.69,0,0,1-2,2.5l1.31-.05a15.73,15.73,0,0,0,1.17-1.62l1.6.92a24.8,24.8,0,0,1-3.53,3.67l2.08-.2c-.15-.32-.29-.61-.42-.9l1.41-.5a12.23,12.23,0,0,1,1.17,3l-1.52.56a5.09,5.09,0,0,0-.18-.78c-4,.44-4.71.56-5.18.74a8.57,8.57,0,0,0-.65-1.35,3.24,3.24,0,0,0,1.48-.88c.23-.2.68-.6,1.22-1.13a8.87,8.87,0,0,0-2.21.32,9.25,9.25,0,0,0-.69-1.37,1.83,1.83,0,0,0,1.05-.67,13.21,13.21,0,0,0,1.9-2.62h-2.08v-4.29h14.6v4.29h-6.05l1.62.39a15,15,0,0,1-.72,1.59h1.75a12.29,12.29,0,0,0-.6-1.37l1.64-.49a9.71,9.71,0,0,1,.85,1.86h2.23v1.69h-2.36v.95h1.87v1.53h-1.87v1h1.87v1.53h-1.87v1h2.59Zm-13.92-3a12.9,12.9,0,0,1-.86,3.23c-.4-.13-1.19-.29-1.64-.38a9.08,9.08,0,0,0,.85-3.06Zm2-.25a18.43,18.43,0,0,1,.54,2.94L642,217a16,16,0,0,0-.45-3Zm.55-10.84h-2.1v1.23h2.1Zm1.52,10.48a12.79,12.79,0,0,1,1.11,2.72l-1.56.38a13.49,13.49,0,0,0-1-2.76Zm.45-9.25h2.16v-1.23h-2.16Zm5,5.2h-1.84v.95h1.84Zm0,2.48h-1.84v1h1.84Zm-1.84,3.5h1.84v-1h-1.84Zm1-11.18H652v-1.23h-2.22Z" fill="#002a5e"/>
      <path d="M663.81,205.39a27.58,27.58,0,0,1-1.41,2.5h0v9.67h-2V210.7a15.37,15.37,0,0,1-1.29,1.48,19.15,19.15,0,0,0-1.17-2,19.42,19.42,0,0,0,3.92-5.47Zm-.33-3.85a29.17,29.17,0,0,1-4.41,5,13.36,13.36,0,0,0-1-1.76,18.25,18.25,0,0,0,3.49-4ZM662.56,216a9.82,9.82,0,0,0,1.41-3.33l1.62.63a13.59,13.59,0,0,1-1.42,3.62Zm12.43-4h-5.46a20.85,20.85,0,0,1,1,1.91l-1.66.59a23.07,23.07,0,0,0-1.08-2.2l.92-.3h-5.37v-1.71H675Zm-7.1-7.29c0-.29.08-.6.11-.92h-4.39V202h4.54c0-.48.05-.91.07-1.33l2.27.07-.18,1.26h4.61v1.7h-4.85c-.05.32-.11.63-.14.92h4.45v4.77H664.26v-4.77Zm2.27,11.09c.51,0,.62-.2.67-1.5a5.83,5.83,0,0,0,1.64.63c-.2,2-.7,2.45-2.09,2.45h-2.23c-1.86,0-2.31-.5-2.31-2.07V213h1.87v2.18c0,.45.11.51.71.51Zm-3-9.58h-1.23v1.74h1.23Zm2.71,0h-1.26v1.74h1.26Zm1.45,1.74h1.31v-1.74h-1.31Zm1.92,4.65a13.28,13.28,0,0,1,1.91,3.4l-1.67.76a11.75,11.75,0,0,0-1.8-3.46Z" fill="#002a5e"/>
      <path d="M624.28,233a21.62,21.62,0,0,1-1.67,6.64,7.73,7.73,0,0,0,3.09,3.28,6.64,6.64,0,0,0-1.35,1.66,9,9,0,0,1-2.84-3.12,10.42,10.42,0,0,1-3.89,3.21,8.93,8.93,0,0,0-.59-1.05l-.54.49a18.29,18.29,0,0,0-2.16-1.05,14.77,14.77,0,0,1-5,1.55,5.57,5.57,0,0,0-.83-1.38,17.59,17.59,0,0,0,3.76-.94c-.83-.29-1.69-.54-2.48-.74a15.3,15.3,0,0,0,1-1.37h-1.91v-1.44h2.82a8.06,8.06,0,0,0,.44-.81h-2.51V234.7h3.19v-.53H610v-2h-1.24v-1.51H610v-1.85h2.88v-1.08h1.62v1.08h3.1v1.85h.93v1.51h-.93v2h-3.1v.53h3.35v.72a28.86,28.86,0,0,0,2.18-7.67l1.76.32c-.16,1-.37,2-.63,3h4.38V233Zm-12.87,3.74h1.42v-.79h-1.42Zm.12-6.53v.63h1.3v-.63Zm1.3,2.66v-.73h-1.3v.73Zm-.09,7.31c-.13.22-.27.42-.4.62.58.16,1.16.32,1.71.52a3.1,3.1,0,0,0,.94-1.14Zm4,0a3.88,3.88,0,0,1-1,1.79c.58.25,1.14.48,1.64.72a8.23,8.23,0,0,0,3.2-3.1,25.09,25.09,0,0,1-1.06-3.71,12.85,12.85,0,0,1-.74,1.53,10,10,0,0,0-1-1.06v1.58H614q-.19.41-.42.81h1.61v-.52h1.67v.52h1.5v1.44Zm-2.32-10v.63h1.41v-.63Zm1.41,2.66v-.73h-1.41v.73Zm-1.41,3.08v.79h1.48v-.79Zm6.16-3a24.65,24.65,0,0,0,1,4.34,21.91,21.91,0,0,0,.82-4.34Z" fill="#002a5e"/>
      <path d="M632.34,237.69v4.64c0,1-.16,1.51-.72,1.84a4.37,4.37,0,0,1-2.43.39,7.56,7.56,0,0,0-.54-1.94c.65,0,1.26,0,1.48,0s.3-.07.3-.32v-4.07c-.59.18-1.15.33-1.69.47l-.47-2q.94-.21,2.16-.54v-3H628.6v-2h1.83v-3.39h1.91v3.39h1.39v2h-1.39v2.5l1.37-.38.27,1.93Zm3.66-1.46c0,2.54-.25,6.06-1.84,8.32a6.91,6.91,0,0,0-1.57-1.07c1.45-2,1.57-5,1.57-7.25v-5.35h3.91V227.8h2v.88h4.11v1.48h-4.11v.72h3.4l.29,0,1.32.26a21.55,21.55,0,0,1-.89,2.91l-1.6-.34a9.8,9.8,0,0,0,.36-1.28h-3.22v.67l2.43-.22.12,1.15-2.55.24c0,.34.11.48.52.48h2a10.21,10.21,0,0,0,1.52-.1c0,.45.07.84.12,1.26a7.05,7.05,0,0,1-1.51.11H639.9c-1.26,0-1.69-.42-1.81-1.25l-1.7.18-.16-1.53,1.82-.16v-.83h-2Zm9.2,2.72c-.54.3-1.14.59-1.75.86a5.5,5.5,0,0,0,2,2.92,6.65,6.65,0,0,0-1.17,1.31,6.82,6.82,0,0,1-2.12-3.71c-.22.09-.43.15-.63.22a3.42,3.42,0,0,1-.42,3.45,1.72,1.72,0,0,1-1.42.6c-.29,0-.63,0-.93,0a3.43,3.43,0,0,0-.42-1.49,8.28,8.28,0,0,0,1,.07.68.68,0,0,0,.63-.27,1.62,1.62,0,0,0,.25-1.06,18,18,0,0,1-4.21,2.14,6.52,6.52,0,0,0-.78-1.1,13.52,13.52,0,0,0,4.72-2.25,3,3,0,0,0-.2-.4,16.34,16.34,0,0,1-3.4,1.61,3.78,3.78,0,0,0-.7-1.05,11.86,11.86,0,0,0,3.53-1.37c-.11-.09-.18-.19-.29-.28a17.18,17.18,0,0,1-2.34.82,6.25,6.25,0,0,0-.58-1,16.16,16.16,0,0,0,3.3-1.17h-3v-1.37h8.73v1.37h-3.75a7.39,7.39,0,0,1-1.13.75,4.57,4.57,0,0,1,.85,1,29.86,29.86,0,0,0,3-1.48Z" fill="#002a5e"/>
      <path d="M651.46,236.24a25.58,25.58,0,0,0-3.28-1.85l1.08-1.6a18,18,0,0,1,3.35,1.67Zm-2.83,6.59a47.75,47.75,0,0,0,3-5.52l1.65,1.42c-.81,1.85-1.82,3.82-2.77,5.55ZM650.2,228a23,23,0,0,1,3.18,1.73l-1.24,1.74a20,20,0,0,0-3.13-1.9Zm14.31,14.11c0,1.08-.18,1.68-.83,2.06a6.23,6.23,0,0,1-2.93.41,7.59,7.59,0,0,0-.63-2.16c.81.06,1.69,0,2,0s.36-.09.36-.38V230.32H655.4v14.24h-2V228.39h11.11Zm-2.77-8.8h-5.58v-1.76h5.58Zm-3.66,7.27v1h-1.63V234.5h4.95v6.08Zm0-4.32v2.54h1.64v-2.54Z" fill="#002a5e"/>
      <path d="M682.15,242.38c.61,0,.72-.3.81-2.39a7.15,7.15,0,0,0,2,.85c-.23,2.84-.79,3.58-2.57,3.58H680c-2.14,0-2.64-.65-2.64-2.67v-2.88h-2.18c-.38,2.87-1.44,4.76-5.89,5.77a6.66,6.66,0,0,0-1.19-1.91c3.69-.69,4.47-1.89,4.77-3.86h-2.19V228.3h11.77v10.57h-2.93v2.87c0,.57.1.64.79.64Zm-9.43-11.09h7.52v-1.11h-7.52Zm0,2.85h7.52V233h-7.52Zm0,2.86h7.52v-1.12h-7.52Z" fill="#002a5e"/>
    </g>
    <g>
      <circle cx="650.04" cy="357.6" r="37.78" fill="#7d3787" stroke="#002a5e" stroke-miterlimit="10" stroke-width="2"/>
      <g>
        <path d="M648,338.7v14.68h-1.5v-.62h-11v.62H634V338.7Zm-1.5,12.78V340h-11v11.48Zm-.63-7.56v.9h-9.71v-.9h4.12v-.65h-2.6v-2.6h6.6v2.6h-2.68v.65Zm-8.73,1.52h7.69v5.29h-7.69Zm1.21,4.37h5.22v-3.47h-5.22Zm.59-7.39h4v-.9h-4Zm.29,4.52h3.45v2.25H639.2Zm.9,1.52h1.62v-.78H640.1Z" fill="#fff"/>
        <path d="M655,338.6a24,24,0,0,1-1.63,3.62v11.14h-1.47v-8.74a17.66,17.66,0,0,1-1.23,1.54,8.55,8.55,0,0,0-.85-1.57,18.33,18.33,0,0,0,3.73-6.44Zm9.56,7.91c-.53.31-1.13.63-1.73.93a7,7,0,0,0,2.63,3.79,5.07,5.07,0,0,0-1,1.15,8.53,8.53,0,0,1-2.78-4.4c-.2.08-.4.18-.59.25.62,1.83.39,3.75-.36,4.47a2,2,0,0,1-1.55.63l-1.07,0a3.29,3.29,0,0,0-.35-1.32,9.93,9.93,0,0,0,1.1.07.83.83,0,0,0,.8-.36,2.68,2.68,0,0,0,.38-2,16.05,16.05,0,0,1-5.15,3,4.69,4.69,0,0,0-.88-1.07,14.46,14.46,0,0,0,5.73-3.18c-.08-.24-.2-.47-.31-.72a16.5,16.5,0,0,1-4.49,2.52,5.45,5.45,0,0,0-.83-1,13.89,13.89,0,0,0,4.75-2.4,4.58,4.58,0,0,0-.6-.65,16.08,16.08,0,0,1-3.47,1.82,5,5,0,0,0-.82-1,16.42,16.42,0,0,0,3.72-1.71h-2.42v-2.46c-.25.2-.48.4-.75.6a4.61,4.61,0,0,0-.95-1,12,12,0,0,0,3.71-4.29l1.43.27a8.09,8.09,0,0,1-.5.9H661l.29-.08.91.66a15.26,15.26,0,0,1-1.27,1.72h3.32v3.7h-4.91l-.16.15a5.67,5.67,0,0,1,1.46,1.79,24.12,24.12,0,0,0,2.82-1.69Zm-7.1-6.06c-.29.37-.59.75-.92,1.12h2.82a9.86,9.86,0,0,0,.83-1.12Zm-.79,3.67H659v-1.38h-2.34Zm6.19-1.38h-2.45v1.38h2.45Z" fill="#fff"/>
        <path d="M637.66,368.68a14.65,14.65,0,0,1-.85,3.52c1,1.78,3,2.05,6,2.05,1.75,0,4.28-.08,6.05-.25a5.71,5.71,0,0,0-.5,1.44c-1.62.1-3.72.15-5.57.15-3.22,0-5.22-.34-6.52-2.14a7.58,7.58,0,0,1-2,2.45,5,5,0,0,0-1-1.07,7.87,7.87,0,0,0,3-5.17h-1.4a1.83,1.83,0,0,0-1,.25,7.61,7.61,0,0,0-.52-1.31,1.64,1.64,0,0,0,.82-.52,25.72,25.72,0,0,0,1.78-2.43h-2.35V364.4h3.29l.21-.11,1,.44c-.65.95-1.77,2.58-2.64,3.72h1.44l.25,0Zm-1.73-4.79a17.54,17.54,0,0,0-2-2.66l1.19-.69a20.89,20.89,0,0,1,2,2.54Zm3.32.26H638v-3.06h10v3.06h-1.19v.54h-3v.84h3.5v4.79h-3.5v.88h4.41v1.18h-4.41v1.24h-1.5v-1.24h-4.17V371.2h4.17v-.88h-3.4v-4.79h3.4v-.84h-3Zm.12-1.89v1.32h2.88v-.74h1.5v.74h2.72v-1.32Zm.75,5.17h2.13v-.9h-2.13Zm2.13,1.87v-.92h-2.13v.92Zm1.5-2.77v.9h2.17v-.9Zm2.17,1.85h-2.17v.92h2.17Z" fill="#fff"/>
        <path d="M665.16,362.81H662.6a6.4,6.4,0,0,1,.91,1.12l-1,.41h.84v6.24h-2v1.27h3.67v1.25h-3.67v2.74h-1.6V373.1h-4.12c-.42,1-1.48,2-3.92,2.82a6,6,0,0,0-1-1.15,5.29,5.29,0,0,0,3.14-1.67h-3.67v-1.25h4.09v-1.27h-2.14v-6.24h2.4a6.4,6.4,0,0,0-.63-1.13l1.17-.38h-2.3a14.67,14.67,0,0,1-1.94,2.3,13.72,13.72,0,0,0-1-1.22,9.59,9.59,0,0,0,2.6-3.47l1.42.45c-.12.27-.25.5-.38.77h4.23v1.17h-2.5A6.22,6.22,0,0,1,656,364l-1.1.36h3.49a10.21,10.21,0,0,0-1.2-.65,7.42,7.42,0,0,0,2.33-3.26l1.49.36q-.18.45-.39.87h4.54Zm-3.4,2.52h-8v.78h8Zm0,1.7h-8v.82h8Zm0,1.75h-8v.83h8Zm-2,1.8h-3.89v1.27h3.89Zm2.37-6.24a6.56,6.56,0,0,0-.9-1.15l.85-.38h-2.2a9.47,9.47,0,0,1-1.27,1.53Z" fill="#fff"/>
      </g>
    </g>
    <g>
      <circle cx="776.72" cy="226.88" r="37.78" fill="#7d3787" stroke="#002a5e" stroke-miterlimit="10" stroke-width="2"/>
      <g>
        <path d="M766.54,215.42c-.48-.4-1.56-1.18-2.36-1.73A7.12,7.12,0,0,1,761,216.2a4.73,4.73,0,0,0-1-1,5.09,5.09,0,0,0,3.18-2.65h-3v-1.24h1.13a11.07,11.07,0,0,0-1.18-.7,7.77,7.77,0,0,0,1.83-3.28l1.39.28c-.12.39-.25.74-.39,1.1h4.32v1.24H765v.86a4.1,4.1,0,0,1,0,.5h2.74v1.24h-3l-.05.15c.68.33,2.52,1.42,3,1.73Zm-3.06-4.14c0-.18,0-.35,0-.51v-.85h-1.17a6.45,6.45,0,0,1-1,1.36Zm-1,4.51h10.46v6.85h-1.58v-.57H764v.59h-1.54ZM764,217v1.3h7.34V217Zm7.34,3.8v-1.33H764v1.33Zm3-12.15v6h-6v-6ZM772.8,210h-3v3.22h3Z" fill="#fff"/>
        <path d="M780.05,219.12a10.37,10.37,0,0,1-2.27,3.57,12.62,12.62,0,0,0-1.23-.91,7.42,7.42,0,0,0,2-3Zm3.39-.63h-6V208h6Zm-1.52-9.22h-3v1.83h3Zm0,3h-3v1.87h3Zm0,3h-3v1.9h3Zm.22,3.4a12.69,12.69,0,0,1,1.8,2.65l-1.32.68a13.8,13.8,0,0,0-1.75-2.76Zm9.87-6h-2v8.1c0,.84-.2,1.29-.7,1.56a6.72,6.72,0,0,1-2.53.3,5.69,5.69,0,0,0-.55-1.52c.87,0,1.65,0,1.88,0s.37-.08.37-.35V214.7a16.27,16.27,0,0,1-4,5.34,7.05,7.05,0,0,0-1.07-1.12,14.86,14.86,0,0,0,4.45-6.2h-4v-1.45h4.59v-3.86H790v3.86h2Z" fill="#fff"/>
        <path d="M775.17,241.51h-3.86v2.06c0,.73-.15,1.13-.75,1.34a9.15,9.15,0,0,1-2.73.21,5.28,5.28,0,0,0-.49-1.34c.92,0,1.87,0,2.12,0s.34-.09.34-.29v-2h-5.54a13.43,13.43,0,0,1,2.27,1.82l-1.14,1a13.66,13.66,0,0,0-2.62-2.17l.76-.65h-3.39v-1.25h9.66v-.85c-3.34.08-6.58.15-8.94.18l-.05-1.16c1.6,0,3.73,0,6.05,0v-.78h-5V233h5v-.78h-6.25V231h6.25v-1.17h1.52V231h6.15v1.2h-6.15V233h5.14v4.62H772a14.21,14.21,0,0,1,2.59,1.5l-.92.84a6.81,6.81,0,0,0-.87-.62l-1.45,0v.9h3.86Zm-11.81-6.69h3.5V234h-3.5Zm3.5,1.82v-.86h-3.5v.86Zm1.52-2.65v.83H772V234Zm3.62,1.79h-3.62v.86H772Zm-3.62,2.61,2.68,0a7.28,7.28,0,0,0-1-.43l.38-.32h-2Z" fill="#fff"/>
        <path d="M781.7,234.76h3v1.43h-3v1.1c.82.6,2.57,2.11,3,2.51l-.88,1.31c-.47-.53-1.35-1.45-2.14-2.2v6.19h-1.52v-6.62a17.1,17.1,0,0,1-2.88,4.45,10.36,10.36,0,0,0-.82-1.5,16.47,16.47,0,0,0,3.39-5.24h-3v-1.43h3.33v-2.49c-1,.2-2,.37-3,.49a4.75,4.75,0,0,0-.47-1.2,30.79,30.79,0,0,0,6.79-1.66l1.11,1.19a21,21,0,0,1-2.9.87Zm5.51,6.22h-1.5v-9.17h1.5Zm4-10.84v13c0,1-.23,1.42-.82,1.69a10.2,10.2,0,0,1-3.13.28,7.07,7.07,0,0,0-.55-1.6c1.13.05,2.18.05,2.52,0s.43-.11.43-.41v-13Z" fill="#fff"/>
      </g>
    </g>
    <ellipse cx="194.27" cy="366.25" rx="128.6" ry="60.67" transform="translate(-115.63 90.85) rotate(-20.43)" fill="none" stroke="#002a5e" stroke-miterlimit="10" stroke-width="2"/>
    <g>
      <circle cx="272.73" cy="279.23" r="42.19" fill="#7d3787" stroke="#002a5e" stroke-miterlimit="10" stroke-width="2"/>
      <g>
        <path d="M247.75,276.42h6.32v1.41H240v-1.41h6.12V274h-4.48v-1.35h4.48v-2.27h-3.73V269a20.33,20.33,0,0,1-2.17,1.34,5.87,5.87,0,0,0-1-1.27,20.11,20.11,0,0,0,5.89-4.2h-2.65v-1.45h5.32a16.12,16.12,0,0,0,7,5.45,7.42,7.42,0,0,0-1.05,1.4,15.5,15.5,0,0,1-2.15-1.22v1.3h-3.82v2.27h4.53V274h-4.53ZM242.41,269h9.06a20.8,20.8,0,0,1-4.51-4.12A24.48,24.48,0,0,1,242.41,269Z" fill="#fff"/>
        <path d="M271.11,268.69a41.74,41.74,0,0,1-2.82,3.43,9.31,9.31,0,0,0,3.25,3.74,3.29,3.29,0,0,0-1,1.2,10.81,10.81,0,0,1-3.53-4.34v3.72c0,.84-.2,1.27-.7,1.52a6.06,6.06,0,0,1-2.59.32,6.34,6.34,0,0,0-.53-1.49c.9,0,1.7,0,1.95,0s.37-.1.37-.37V273c-1.29,1.28-2.6,2.53-3.71,3.53l-1-1.35.24-.18c-1.72.57-3.52,1.13-4.92,1.57l-.34-1.49c.59-.15,1.32-.36,2.1-.6v-4.33H256.2v-1.44H258v-3.32h-1.9V264h5.16v1.43h-1.82v3.32H261v1.44h-1.57v3.9l1.9-.58.2,1.23c1.1-.88,2.62-2.17,4-3.38v-4.19h-4v-1.44h4V263h1.5v2.76h4.22v1.44h-4.22v.68a18.33,18.33,0,0,0,.7,3,23.82,23.82,0,0,0,2-2.83Zm-8.12-.6a12.56,12.56,0,0,1,1.73,3l-1.28.62a12.49,12.49,0,0,0-1.65-3.05Zm6.67-2.37a10.41,10.41,0,0,0-1.94-1.82l.87-.8a10.63,10.63,0,0,1,2,1.7Z" fill="#fff"/>
        <path d="M278.55,276.42c0,.72-.14,1.17-.57,1.42a4.43,4.43,0,0,1-2.1.29,6.11,6.11,0,0,0-.4-1.46c.63,0,1.22,0,1.4,0s.27-.08.27-.3v-4l-1.69,1-.48-1.08a18.77,18.77,0,0,1-1.12,5.92,4.51,4.51,0,0,0-1.27-.7c1-2.34,1.09-5.64,1.09-8.08v-5.95h4.87Zm-3.49-6.93c0,.75,0,1.6-.05,2.46l2.14-.88v-1.9l-.64.53a18.23,18.23,0,0,0-1.45-1.71Zm0-4.52v2.33l.52-.36a16.53,16.53,0,0,1,1.57,1.56V265Zm12.38,5.55a10.52,10.52,0,0,1-2.92,4.9,10.88,10.88,0,0,0,3.47,1.49,5.34,5.34,0,0,0-1,1.33,10.81,10.81,0,0,1-3.71-1.82,13.54,13.54,0,0,1-3.8,1.79,5.38,5.38,0,0,0-.83-1.34,12.17,12.17,0,0,0,3.48-1.46,12.37,12.37,0,0,1-2.37-3.6l.55-.17h-1.05v-1.45h6.91l.26-.05Zm-5.19-5.12a4.71,4.71,0,0,1-2.55,4.45,5.41,5.41,0,0,0-1-1.08,3.49,3.49,0,0,0,2.13-3.39v-1.8h5.27v3.74c0,.47,0,.63.23.63h.81a2.76,2.76,0,0,0,.75-.1l.11,1.25a2.4,2.4,0,0,1-.83.1h-1c-1.28,0-1.57-.53-1.57-1.9V265h-2.38Zm-1,6.24a8.92,8.92,0,0,0,2.07,2.85,8.53,8.53,0,0,0,2.13-2.85Z" fill="#fff"/>
        <path d="M294.49,274.92a13.07,13.07,0,0,1-3.84,3,12.92,12.92,0,0,0-1.16-1,10.54,10.54,0,0,0,3.56-2.51Zm10-2v1.25h-6.69v4.14h-1.54v-4.14H289.6v-1.25Zm-10.08-8.07h-4.55v-1.25h14.31v1.25h-4.62v1.1h3.78v3.92h-12.5v-3.92h3.58ZM291.6,272v-1.21h10.84V272Zm.64-3.28h2.13v-1.6h-2.13Zm5.8-3.85h-2.23v1.1H298Zm-2.23,3.85H298v-1.6h-2.23Zm4.6,5.8a25.32,25.32,0,0,1,3.92,2.54l-1.22.9a23.92,23.92,0,0,0-3.83-2.64Zm-.9-7.4v1.6h2.25v-1.6Z" fill="#fff"/>
        <path d="M253.05,294c-.53.17-1.09.34-1.62.47v4.37c0,.8-.17,1.2-.65,1.42a5.64,5.64,0,0,1-2.37.28,5.56,5.56,0,0,0-.45-1.4c.74,0,1.44,0,1.64,0s.33-.09.33-.34v-3.92l-1.93.54-.42-1.49c.67-.15,1.47-.35,2.35-.58v-3.3H247.8v-1.44h2.13v-3.25h1.5v3.25h1.94v1.44h-1.94V293l1.42-.38Zm8.84-1a10.44,10.44,0,0,1-3.07,4.79,13.09,13.09,0,0,0,4.15,1.52,6.83,6.83,0,0,0-1,1.43,13.38,13.38,0,0,1-4.49-1.95,15.72,15.72,0,0,1-4.72,1.95,4.26,4.26,0,0,0-.77-1.42,13.44,13.44,0,0,0,4.22-1.53,12.29,12.29,0,0,1-2.55-3.56l.44-.15h-.84v-1.45h7.34l.27-.05Zm-5.62-5.17a4.71,4.71,0,0,1-2.6,4.49,6.5,6.5,0,0,0-1-1.14,3.41,3.41,0,0,0,2.17-3.4V286h5.48v3.74c0,.46,0,.65.32.65h1.1a4.22,4.22,0,0,0,.87-.1,12.79,12.79,0,0,0,.12,1.3,3.44,3.44,0,0,1-1,.1h-1.25c-1.37,0-1.65-.55-1.65-2v-2.29h-2.57Zm-1.07,6.25a8.9,8.9,0,0,0,2.34,2.82,9.08,9.08,0,0,0,2.3-2.82Z" fill="#fff"/>
        <path d="M274.76,287.91a2,2,0,0,1,0,.4c.9.92,2.68,1.48,4.89,1.62a4.21,4.21,0,0,0-.84,1.26,8.08,8.08,0,0,1-4.47-1.83c-.6.77-1.92,1.48-4.79,1.88a4.58,4.58,0,0,0-.78-1.15H264.5v-1.22h4.84V290c3.62-.47,4-1.41,4-2.12v-.22H272a7.82,7.82,0,0,1-1.22,1.55,6,6,0,0,0-1.17-.78,6.79,6.79,0,0,0,1.92-3.07l1.39.3c-.1.28-.2.55-.32.83h5.2l.22-.06,1.07.35a16.44,16.44,0,0,1-1.45,2.47l-1.22-.44a11.19,11.19,0,0,0,.7-1.15h-2.32Zm-.13,10.1a43.29,43.29,0,0,1,4.7,1.82l-1.4.85a32.26,32.26,0,0,0-4.49-1.88l1-.79h-5l1.39.64a22.53,22.53,0,0,1-5.1,2.08,12.7,12.7,0,0,0-1.16-1.16,18.24,18.24,0,0,0,4.81-1.56h-2.69v-6.7h10.88V298Zm-5.69-10.52h-4.09v-1.17h4.09Zm-.77,5.75H276v-.95h-7.83Zm0,1.87H276v-.93h-7.83Zm0,1.92H276v-1h-7.83Z" fill="#fff"/>
        <path d="M295.46,295.56a25.45,25.45,0,0,1-3.31,2,11,11,0,0,0,4.32,1.65,6.12,6.12,0,0,0-1,1.4,10.17,10.17,0,0,1-7.62-5.92h-2.52v4l4.12-.9a9.76,9.76,0,0,0-.12,1.35,53.64,53.64,0,0,0-5.57,1.47l-.12.1a6.25,6.25,0,0,0-.66-1.57,1.31,1.31,0,0,0,.81-1.2v-3.29h-2.58v-1.37h2.87V286h10.3v1.28h-8.74v1.2h8.26v1.24h-8.26v1.17h8.26v1.21h-8.26v1.2h10.41v1.37h-1.87Zm-6-.85a8.4,8.4,0,0,0,1.6,2.05,22.38,22.38,0,0,0,3.09-2.05Z" fill="#fff"/>
      </g>
    </g>
    <g>
      <circle cx="67.99" cy="390.64" r="42.19" fill="#7d3787" stroke="#002a5e" stroke-miterlimit="10" stroke-width="2"/>
      <g>
        <path d="M43,384.6h6.32V386H35.26V384.6h6.12v-2.45H36.89V380.8h4.49v-2.27H37.64v-1.35a19.38,19.38,0,0,1-2.17,1.34,5.52,5.52,0,0,0-1-1.27,20.2,20.2,0,0,0,5.88-4.2H37.74V371.6h5.32a16.18,16.18,0,0,0,7,5.45,7.87,7.87,0,0,0-1.05,1.4,15.5,15.5,0,0,1-2.15-1.22v1.3H43v2.27h4.54v1.35H43Zm-5.34-7.43h9.06a20.51,20.51,0,0,1-4.5-4.12A24.23,24.23,0,0,1,37.67,377.17Z" fill="#fff"/>
        <path d="M66.37,376.87a43.87,43.87,0,0,1-2.81,3.43A9.23,9.23,0,0,0,66.81,384a3.19,3.19,0,0,0-1,1.2,10.84,10.84,0,0,1-3.54-4.34v3.72c0,.83-.2,1.27-.7,1.52a6,6,0,0,1-2.58.32A6.87,6.87,0,0,0,58.5,385c.9,0,1.7,0,2,0s.37-.1.37-.37v-3.4c-1.28,1.28-2.6,2.53-3.7,3.53l-.95-1.35.23-.18c-1.72.57-3.52,1.13-4.92,1.57l-.33-1.49c.58-.15,1.32-.36,2.1-.6v-4.33H51.46v-1.44h1.79v-3.32h-1.9v-1.43H56.5v1.43H54.68v3.32h1.57v1.44H54.68v3.9l1.9-.58.21,1.23c1.1-.88,2.61-2.17,4-3.39v-4.18h-4v-1.44h4v-2.76h1.5v2.76h4.22v1.44H62.32V376a20.71,20.71,0,0,0,.7,3,23.82,23.82,0,0,0,2-2.83Zm-8.12-.6a13,13,0,0,1,1.74,3l-1.29.62a12.16,12.16,0,0,0-1.65-3.05Zm6.67-2.37A10.65,10.65,0,0,0,63,372.08l.87-.8a11.31,11.31,0,0,1,2,1.7Z" fill="#fff"/>
        <path d="M83.23,384.69V386H71v-1.27h5.24v-1.37H72.54V382.1h3.71v-1.21H73.11A9.43,9.43,0,0,1,71.46,383a8.1,8.1,0,0,0-.75-1.36,8.85,8.85,0,0,1-1.74,5,5.22,5.22,0,0,0-1.18-1c1.33-1.6,1.48-3.85,1.48-5.54v-3.23h2.14a7.06,7.06,0,0,0-.68-.67c1.26-.21,2.71-.53,4.08-.86-1.2-.34-2.4-.64-3.5-.87l.85-.65H69.41v-1.22h5.94a9,9,0,0,0-.77-1.08l1.08-.52a9.46,9.46,0,0,1,1.17,1.6h5.65v1.22H80l.73.46a23.47,23.47,0,0,1-2.35,1c1.12.32,2.15.65,3,.93l-.77.67H83v1.27H70.78v2c0,.48,0,1-.07,1.54a8.78,8.78,0,0,0,2.12-3.31l1.33.39c-.12.31-.25.61-.4.93h2.49v-1.23h1.53v1.23H82.1v1.24H77.78v1.21h3.89v1.22H77.78v1.37Zm-3.38-7.84c-.89-.32-2-.67-3.22-1-1.37.41-2.77.75-4.07,1Zm-6.94-3.05c1.22.28,2.54.61,3.8,1a16.86,16.86,0,0,0,2.57-1Z" fill="#fff"/>
        <path d="M90.85,383.8a14.27,14.27,0,0,1-5,2.16,6.2,6.2,0,0,0-.93-1.14,14.08,14.08,0,0,0,4.77-1.55Zm8.73-2.53v1.3H93v3.87H91.49v-3.87H85v-1.3h6.47v-1H86.57V379.1h4.92v-1H85.75v-1.22H89.1a8.8,8.8,0,0,0-.73-1.43l1-.24H85.08V374h2.49a12.21,12.21,0,0,0-1.22-2.25l1.35-.47A11.92,11.92,0,0,1,89,373.65l-.89.33H90v-2.87h1.45V374h1.65v-2.87h1.47V374h1.82l-.65-.22a15,15,0,0,0,1.17-2.46l1.6.41A24.58,24.58,0,0,1,97.14,374h2.39v1.23H95.16l1.3.34c-.37.5-.75.95-1.09,1.33h3.54v1.22H93v1h5.12v1.17H93v1Zm-9.69-6.06a6.85,6.85,0,0,1,.78,1.47l-.75.2h4.55l-.6-.18a13.22,13.22,0,0,0,.94-1.49Zm5,8c1.47.53,3.51,1.33,4.62,1.87l-1,.9c-1-.52-3.07-1.4-4.59-2Z" fill="#fff"/>
        <path d="M34.77,394.44h5.91v1.4H38.17a28.6,28.6,0,0,1-1,3.67h3.22v7.33H37.16v1.29h-1.3v-5.64a9,9,0,0,1-.79,1.15,7.46,7.46,0,0,0-.61-1.75,15.11,15.11,0,0,0,2.25-6.05H34.77Zm4.32,6.45H37.16v4.59h1.93Zm10.81.95H48.1v7.06H46.61v-7.06H44.25c-.09,2.5-.52,5.27-2.32,7.14a8.43,8.43,0,0,0-1.19-.9c1.59-1.65,2-4.1,2-6.24H41.08v-1.47h1.73V395.9H41.53v-1.45h8v1.45H48.1v4.47h1.8Zm-3.29-1.47V395.9H44.26v4.47Z" fill="#fff"/>
        <path d="M64.64,407.06c.43,0,.52-.32.58-2.42a4.32,4.32,0,0,0,1.47.65c-.17,2.62-.58,3.29-1.88,3.29H63.06c-1.46,0-1.89-.45-1.89-2.07v-2.78H58.6c-.33,2-1.7,4-6.17,5.25a7.33,7.33,0,0,0-1.08-1.33c3.82-1,5.15-2.51,5.57-3.92h-4.4v-1.44H57.1v-1.93h1.62v1.93h4.07v4.22c0,.47.08.55.52.55Zm-11.17-8.75H51.92v-3.16h6.27c-.14-.43-.3-.91-.45-1.31l1.6-.29a16.4,16.4,0,0,1,.61,1.6h6.14v3H64.46v-1.61H61.52V399c0,.42.08.58.49.58h2.3a7.91,7.91,0,0,0,1.35-.1c0,.4.08,1,.13,1.3a6.21,6.21,0,0,1-1.42.1H61.91c-1.56,0-1.92-.53-1.92-1.9v-2.48H57.85c-.33,2.43-1.3,3.82-5,4.55a4,4,0,0,0-.83-1.25c3.18-.55,3.9-1.5,4.15-3.3H53.47Z" fill="#fff"/>
        <path d="M83.12,405.28H79.27v2.05c0,.73-.16,1.13-.76,1.35a9.59,9.59,0,0,1-2.73.2,5.39,5.39,0,0,0-.48-1.34c.91,0,1.86,0,2.11,0s.34-.08.34-.28v-2H72.21a13.42,13.42,0,0,1,2.27,1.81l-1.14,1a13.17,13.17,0,0,0-2.61-2.17l.75-.65H68.09V404h9.66v-.85c-3.34.08-6.57.14-8.94.18l0-1.17,6,0v-.79h-5v-4.62h5V396H68.56v-1.2h6.25V393.6h1.52v1.17h6.15V396H76.33v.78h5.14v4.62H79.92a14.09,14.09,0,0,1,2.58,1.5l-.92.84a8.84,8.84,0,0,0-.86-.62l-1.45,0V404h3.85Zm-11.81-6.69h3.5v-.84h-3.5Zm3.5,1.82v-.87h-3.5v.87Zm1.52-2.66v.84H80v-.84ZM80,399.54H76.33v.87H80Zm-3.62,2.62,2.68,0a10.92,10.92,0,0,0-1-.43l.38-.32h-2Z" fill="#fff"/>
        <path d="M98.21,400.54c-.72.58-1.54,1.17-2.35,1.73a7.54,7.54,0,0,0,4.17,4.67,5.37,5.37,0,0,0-1,1.25,8.8,8.8,0,0,1-4.37-5.13l-.67.4c.54,2.07.14,4.05-.76,4.75a2.27,2.27,0,0,1-1.81.67,13.36,13.36,0,0,1-1.38,0,3.77,3.77,0,0,0-.42-1.46c.59.05,1.12.09,1.49.09a1.16,1.16,0,0,0,1-.37,3.06,3.06,0,0,0,.58-2.37,24.52,24.52,0,0,1-6.94,3.41,5.17,5.17,0,0,0-.81-1.29,19.83,19.83,0,0,0,7.49-3.55,7.16,7.16,0,0,0-.35-.94A27.45,27.45,0,0,1,86,405.19a7.37,7.37,0,0,0-.79-1.21,21,21,0,0,0,6.26-2.62,6.71,6.71,0,0,0-.65-.8,22.51,22.51,0,0,1-4.71,1.86,7.88,7.88,0,0,0-.81-1.23,18.67,18.67,0,0,0,5.65-2.13H87.54v-1.34H97v1.34H93a9.81,9.81,0,0,1-1.08.81,7.13,7.13,0,0,1,1.6,2.34,29.41,29.41,0,0,0,3.4-2.67Zm-11.39-2h-1.5V395h6.1a8.3,8.3,0,0,0-.52-1.08l1.62-.47a10.79,10.79,0,0,1,.79,1.55h6v3.56H97.74V396.4H86.82Z" fill="#fff"/>
      </g>
    </g>
    <g>
      <circle cx="229.46" cy="414" r="42.19" fill="#7d3787" stroke="#002a5e" stroke-miterlimit="10" stroke-width="2"/>
      <g>
        <path d="M199.56,407.36a11.67,11.67,0,0,1-2.72,2.44,11.39,11.39,0,0,0-1-1,8.54,8.54,0,0,0,2.42-2.23Zm4.3-.8H196v-1.25h1.08v-7.25h2c0-.3.12-.64.17-1h-2.92v-1.21h3.09c0-.49.1-1,.13-1.37l1.5.08-.22,1.29h2.65v1.21h-2.88c-.07.35-.13.69-.2,1H203v7.25h.84ZM198.4,399v1h3.29v-1Zm3.29,1.83H198.4v1h3.29Zm-3.29,1.82v.9h3.29v-.9Zm0,2.65h3.29v-.88H198.4Zm4.81,3.3a8.57,8.57,0,0,0,2.45-1.9l1.28.8a10.72,10.72,0,0,1-3.1,2.29,9.77,9.77,0,0,0-1-.94l-.4.34a11.84,11.84,0,0,0-1.81-1.8l1.06-.75a11.74,11.74,0,0,1,1.85,1.68ZM206.43,398c.1-.45.18-1,.25-1.41h-2.87v-1.32h7.4v1.32h-3c-.15.48-.28,1-.42,1.41h2.87v8.59h-6.44V398Zm2.88,1.19h-3.68v1.31h3.68Zm0,2.43h-3.68v1.32h3.68Zm0,2.45h-3.68v1.32h3.68Zm-.38,2.77a19.36,19.36,0,0,1,2.57,2.12l-1.22.85a19.73,19.73,0,0,0-2.5-2.22Z" fill="#fff"/>
        <path d="M226.52,406.33a6.31,6.31,0,0,1-2.27,1.83,25.65,25.65,0,0,0,3.52.54,4.26,4.26,0,0,0-.7,1.08,22.62,22.62,0,0,1-4.48-.93,25.14,25.14,0,0,1-5.19,1,4.68,4.68,0,0,0-.58-1.05,26.67,26.67,0,0,0,4.15-.55,11.5,11.5,0,0,1-1.52-.83A15,15,0,0,1,218,408a6.32,6.32,0,0,0-.81-.83c.41-.15.85-.32,1.23-.5a7.66,7.66,0,0,1-.8-.81l1.07-.4a6.44,6.44,0,0,0,.76.71,7,7,0,0,0,1.2-.81H218.9v-2.61a9.23,9.23,0,0,1-.9.88,9,9,0,0,0-.8-.72,14,14,0,0,1-1,1.22v5.69h-1.37v-4.36c-.43.35-.88.71-1.32,1a8.16,8.16,0,0,0-.85-1,11.23,11.23,0,0,0,3.55-3.51l1.16.4a8.51,8.51,0,0,0,2-2.76H214v-2.8h3.7v-.66h-4.47V395h14.38v1.09H223v.66h3.94v2.8H219.7l1.08.3c-.08.15-.15.34-.23.5h6.79v1.06H219.9a4.1,4.1,0,0,1-.35.5h6.94v3.41H222.3a5,5,0,0,1-.56.57h3.71l.27-.05Zm-9.34-6.22a12.3,12.3,0,0,1-3.52,3.18,10.26,10.26,0,0,0-.91-1,9.85,9.85,0,0,0,3.08-2.66Zm-1.8-1.5h2.3v-.87h-2.3Zm3.69-1.84h2.45v-.66h-2.45Zm2.45,1.84v-.87h-2.45v.87Zm-1.34,4.67h5v-.59h-5Zm0,1.3h5V404h-5Zm.37,2.25a13.53,13.53,0,0,0,2.1.9,7.73,7.73,0,0,0,1.75-.9Zm2.42-9.09v.87h2.47v-.87Z" fill="#fff"/>
        <path d="M238.66,402.71a16.19,16.19,0,0,0,6.16,4.92,8.52,8.52,0,0,0-1.14,1.33,17.84,17.84,0,0,1-5.82-5v5.82h-1.63V404a18.23,18.23,0,0,1-5.81,4.92,9.39,9.39,0,0,0-1.13-1.32,16.1,16.1,0,0,0,6.12-4.92h-5.64v-1.53h6.46v-2.54H231v-1.53h5.26v-2.62h1.63v2.62h5.39v1.53h-5.39v2.54h6.55v1.53Z" fill="#fff"/>
        <path d="M260,404.08a30.55,30.55,0,0,0-2.4-2.17,7.79,7.79,0,0,1-1.31,1.72,7.69,7.69,0,0,0-1.25-.79,14.67,14.67,0,0,0,6.48,4.87,6,6,0,0,0-1.17,1.4,15.92,15.92,0,0,1-5.81-4.63v5.3h-1.63v-5.25a16.78,16.78,0,0,1-5.75,4.57,6.65,6.65,0,0,0-1.11-1.32,15.43,15.43,0,0,0,6.86-5.62v-4h-6.22v-1.5h6.22v-2.2h1.63v2.2h6.42v1.5H254.5v3.89c.15.25.3.48.47.71a7.84,7.84,0,0,0,2.29-4.32l1.5.27a11.32,11.32,0,0,1-.59,1.87,34.33,34.33,0,0,1,2.89,2.4Zm-9-5.32a13.8,13.8,0,0,1-.62,1.88,23.71,23.71,0,0,1,1.77,1.65l-1,1.1a14.39,14.39,0,0,0-1.37-1.41,8.76,8.76,0,0,1-2,2.46,7.45,7.45,0,0,0-1.21-1,8.37,8.37,0,0,0,3-5Z" fill="#fff"/>
        <path d="M204.18,431.07a7.47,7.47,0,0,0,2-1.82l1.29.74a12.06,12.06,0,0,1-2.75,2.3,6.58,6.58,0,0,0-1-1l.19-.1h-4.09v.83h-1.17v-4.59c-.13.17-.26.34-.4.5a3.25,3.25,0,0,0-.26-.4,18.81,18.81,0,0,1-.9,4.56,4.52,4.52,0,0,0-1.19-.64c.9-2.33.95-5.63.95-8v-5.32h0a32.83,32.83,0,0,0,5.82-1l1.13,1a31.83,31.83,0,0,1-5.67,1v.67h5.72v3.6h-5.72v0c0,.8,0,1.75-.06,2.74a10,10,0,0,0,1.23-2.7l1.1.28c-.11.38-.26.77-.4,1.13h1.22a11.21,11.21,0,0,0-.47-1.07l1-.26a7.77,7.77,0,0,1,.65,1.33h1.6v1h-1.74v.77h1.57v.91h-1.57v.77h1.59v.94h-1.59v.78h1.86Zm-6-10v1.22h4.34v-1.22Zm3.11,4.89h-1.44v.77h1.44Zm0,1.68h-1.44v.77h1.44Zm-1.44,2.49h1.44v-.78h-1.44Zm6.94-9.84c.07-.42.13-.9.18-1.32h-2.58v-1.32h6.8V419h-2.67c-.11.45-.23.9-.35,1.32h2.52v8.57h-5.88v-8.57Zm2.57,1.2h-3.27v1.28h3.27Zm0,2.42h-3.27v1.32h3.27Zm0,2.43h-3.27v1.32h3.27Zm0,2.89a14.57,14.57,0,0,1,2.08,2.08l-1.16.8a15.44,15.44,0,0,0-2-2.18Z" fill="#fff"/>
        <path d="M215.1,423.58v8.67h-1.54V417.61h6.14v6Zm0-4.73V420h3.13v-1.16Zm3.13,3.51v-1.25H215.1v1.25Zm.39,7.56v1h-1.44v-6h6.29v5Zm0-3.7v2.41H222v-2.41Zm8.69,4.07c0,.93-.22,1.41-.82,1.68a9.56,9.56,0,0,1-3.1.27,5.25,5.25,0,0,0-.54-1.59c1.05.05,2.14,0,2.47,0s.4-.12.4-.42V423.6H221v-6h6.29Zm-4.81-11.46V420h3.22v-1.18Zm3.22,3.55v-1.27H222.5v1.27Z" fill="#fff"/>
        <path d="M243.88,417.61V432.2H242.4v-.78H231.69v.85h-1.42V417.61ZM242.4,430.2V418.81H231.69V430.2Zm-.47-2.57h-2.27V429c0,.55-.13.73-.53.85a7.84,7.84,0,0,1-2,.13,2.85,2.85,0,0,0-.34-.83c.57,0,1.17,0,1.34,0s.23-.07.23-.22v-1.29h-6.19v-.9h6.19v-.55h1.3v.55h2.27Zm-1.85-3a10.5,10.5,0,0,1,1.58,1.47l-.81.63c-.17-.21-.4-.45-.65-.7-2.84.09-5.69.17-7.73.2l-.06-.88,3.93,0v-.69h-3.42v-3.37h3.42v-.58h-4v-.92h4v-.68h1.29v.68h4.05v.92h-4.05v.58h3.55v3.37Zm-5,5.06a7.92,7.92,0,0,0-1.31-1.56l1-.5a8.58,8.58,0,0,1,1.39,1.49Zm-1-7.09h2.2V422h-2.2Zm2.2,1.31v-.63h-2.2v.63Zm1.29-1.93v.62h2.3V422Zm2.3,1.93v-.63h-2.3v.63Zm-.55,1.37-.3-.25.62-.4h-2.07v.69Z" fill="#fff"/>
        <path d="M251.68,418.19c-.46,1.39-1.05,3.12-1.56,4.42a5.16,5.16,0,0,1,1.36,3.47,2.37,2.37,0,0,1-.68,2,2.4,2.4,0,0,1-.9.32,6.56,6.56,0,0,1-1.1,0,3.34,3.34,0,0,0-.35-1.34,4.16,4.16,0,0,0,.85,0,.84.84,0,0,0,.5-.15,1.3,1.3,0,0,0,.32-1.05,4.68,4.68,0,0,0-1.37-3.12c.43-1.13.87-2.6,1.17-3.72h-1.79v13.21h-1.36V417.66h3.68l.22-.05Zm9.36,4.52a23.93,23.93,0,0,1-2.1,1.4,13.13,13.13,0,0,0,2.72,4.83,5.63,5.63,0,0,0-1,1,16,16,0,0,1-2.8-5.18l-.2.1c.83,2.7.46,5.55-.5,6.43a2.14,2.14,0,0,1-1.77.74c-.32,0-.87,0-1.32,0a3.58,3.58,0,0,0-.38-1.38c.55.05,1.08.07,1.43.07a1,1,0,0,0,.93-.42,4.27,4.27,0,0,0,.6-2.85,18.89,18.89,0,0,1-4.5,2.67,4.57,4.57,0,0,0-.92-1.14,13.1,13.1,0,0,0,5.24-3,10.42,10.42,0,0,0-.28-1.1,23.12,23.12,0,0,1-3.5,2.21,5.9,5.9,0,0,0-.84-1.11,13.94,13.94,0,0,0,3.85-2.22,6.47,6.47,0,0,0-.7-1.14,16.91,16.91,0,0,1-2.91,1.77,6.57,6.57,0,0,0-.92-1.12,12.55,12.55,0,0,0,3.75-2.21h-3.37v-1.35h3a10,10,0,0,0-1.77-1.89l1.15-.72a9.4,9.4,0,0,1,2,2l-.83.57h1.7a14.55,14.55,0,0,0,1.67-2.68l1.48.45a20.69,20.69,0,0,1-1.53,2.23h2.85V421h-4.52a8.84,8.84,0,0,1-.75.75,7.68,7.68,0,0,1,1.25,2,23.16,23.16,0,0,0,2.84-2.05Z" fill="#fff"/>
      </g>
    </g>
  </g>
</svg>
