<svg xmlns="http://www.w3.org/2000/svg" viewBox="0 0 328 300">
  <g>
    <circle cx="167.3" cy="153.17" r="118.08" fill="none" stroke="#002a5e" stroke-miterlimit="10" stroke-width="0.92"/>
    <g>
      <circle cx="93.24" cy="249.56" r="29.23" fill="#f8a908" stroke="#002a5e" stroke-miterlimit="10" stroke-width="0.5"/>
      <g>
        <path d="M79.43,259.62V260h2.33v3.38H80.9v-.34H75.43v.34h-.84V260H77.1v-.39H73.59V259h9.13v.62Zm-5.29-4.53h-.31v-.56h4.43v.56H74.87v2.57c0,.35.08.47.43.47h2a5.3,5.3,0,0,0,.94-.06c0,.2,0,.43.08.58a4.84,4.84,0,0,1-1,.06H75.26c-.87,0-1.12-.29-1.12-1.07Zm1.66.89a3.4,3.4,0,0,1-.34.4,2.55,2.55,0,0,0-.48-.29,2.77,2.77,0,0,0,.69-1l.55.13c0,.09-.08.19-.13.29H78V256h-1v.45h1.2v.49H76.94a8.6,8.6,0,0,1,1.08.75l-.37.42a6.78,6.78,0,0,0-1-.75,2.4,2.4,0,0,1-1.15.8,1.71,1.71,0,0,0-.4-.45,1.62,1.62,0,0,0,1.12-.77H75.06v-.49h1.25V256Zm5.1,6.54v-1.09H79.67c-.78,0-1-.13-1-.69v-.2h-.89c-.11.51-.6.88-2,1.09a2.46,2.46,0,0,0-.4-.53c1.07-.1,1.48-.31,1.62-.56H75.43v2Zm-4.69-.81h4.05v.49H76.21Zm2.49-2.09h-.87V260h.87Zm-.13-3.14a2.84,2.84,0,0,0-.48-.54c.76-.28.89-.61.89-.95v-.51h2.48v.84c0,.19,0,.25.13.25H82a2,2,0,0,0,.43,0c0,.19,0,.44.06.62a1.54,1.54,0,0,1-.46.05h-.54c-.62,0-.75-.26-.75-.88v-.18h-1a1.46,1.46,0,0,1-.8,1.22h2.52l.13,0,.45.19a3.39,3.39,0,0,1-1,1.35c.46.21.89.4,1.19.57l-.34.54c-.35-.19-.86-.44-1.42-.7a6.61,6.61,0,0,1-1.76.7,2.7,2.7,0,0,0-.38-.57,6.75,6.75,0,0,0,1.4-.46l-1.12-.47.33-.47c.43.16.93.36,1.42.57a3.29,3.29,0,0,0,.68-.66H78.57Zm.86,4.06v.21c0,.19,0,.22.32.22H80.9v-.42Z" fill="#002a5e"/>
        <path d="M92.5,257.82a5.86,5.86,0,0,1-.77.66,5.1,5.1,0,0,0,1.1.59,3.07,3.07,0,0,0-.53.66,5,5,0,0,1-.71-.4v1.83H89.76v1.4c0,.41-.08.61-.38.73a4.13,4.13,0,0,1-1.37.13,2.87,2.87,0,0,0-.3-.75h1c.13,0,.17,0,.17-.14v-1.37h-1.8v-1.82a8.29,8.29,0,0,1-.73.44,2,2,0,0,0-.52-.58,6.93,6.93,0,0,1-1.41,4.21,3.37,3.37,0,0,0-.65-.61A5.24,5.24,0,0,0,84.9,260c-.38.23-.76.46-1.14.66l-.29-.83c.39-.16.93-.45,1.51-.74,0-.27,0-.51,0-.76V255.1h3.39c-.06-.24-.15-.48-.22-.7l.93-.19c.12.27.24.61.33.89h3.3v.79H85.85v2.4c0,.27,0,.54,0,.84a6.09,6.09,0,0,0,1.09-.67,7.23,7.23,0,0,0-.69-.55l.49-.42a8.17,8.17,0,0,1,.71.53,5.17,5.17,0,0,0,.54-.63H86.25v-.72H88.4a3.62,3.62,0,0,0,.31-.78l.87.12a4.06,4.06,0,0,1-.25.66h3.29v.72h-2a6,6,0,0,0,.63.7,7.47,7.47,0,0,0,.69-.66Zm-8.31.4c-.11-.49-.37-1.34-.59-2l.69-.26a16.56,16.56,0,0,1,.62,1.9Zm3.8,3.36a13.18,13.18,0,0,1-1.52,1.62,5.7,5.7,0,0,0-.71-.53,7.91,7.91,0,0,0,1.4-1.37ZM90.78,259H87.86v.51h2.92Zm0,1.06H87.86v.51h2.92ZM89,257.39a5.88,5.88,0,0,1-.79,1h2.37a5.37,5.37,0,0,1-.76-1Zm2.13,3.89c.47.46,1.14,1.12,1.47,1.52l-.71.44c-.31-.39-.94-1.08-1.43-1.57Z" fill="#002a5e"/>
        <path d="M96.89,260.35a13.76,13.76,0,0,0-.78-1.32v4.37h-.9v-4a9.71,9.71,0,0,1-1.28,2.33,5.87,5.87,0,0,0-.45-.86,10,10,0,0,0,1.6-2.93H93.61V257h1.6v-1.34c-.43.08-.86.14-1.26.2a2.83,2.83,0,0,0-.26-.72,15,15,0,0,0,3.18-.81l.53.76a9.44,9.44,0,0,1-1.29.38V257h1.4v.87h-1.4V258c.3.31,1.15,1.33,1.34,1.59Zm4.68.49v2.56h-.91V261l-3.15.53-.14-.89,3.29-.55v-5.86h.91v5.71l1.09-.18.14.87Zm-2.17-1.35A8.61,8.61,0,0,0,97.73,258l.59-.54a9.4,9.4,0,0,1,1.71,1.42Zm.25-2.63a8.14,8.14,0,0,0-1.55-1.45l.61-.53a8.24,8.24,0,0,1,1.59,1.39Z" fill="#002a5e"/>
        <path d="M107,259.38l-1.14.33v2.63c0,.48-.1.73-.39.87a3.44,3.44,0,0,1-1.42.16,3.6,3.6,0,0,0-.28-.84c.44,0,.86,0,1,0s.2,0,.2-.19V260l-1.1.3-.24-.89,1.34-.32v-2h-1.23v-.86h1.23v-1.95h.91v1.95h1v.86h-1v1.76l1-.27Zm5.38-1.22a7.26,7.26,0,0,1-1.94,3.31,7,7,0,0,0,2.45,1.16,3.3,3.3,0,0,0-.6.79,7.09,7.09,0,0,1-2.57-1.35,8.61,8.61,0,0,1-2.74,1.33,4,4,0,0,0-.5-.84,7.74,7.74,0,0,0,2.57-1.14,8.1,8.1,0,0,1-1.55-2.58l.13,0h-.4V258h2.06v-1.37H107v-.85h2.24v-1.5h.92v1.5h2.3v.85h-2.3V258h1.41l.16,0Zm-4,.64a6.38,6.38,0,0,0,1.34,2.06,5.82,5.82,0,0,0,1.46-2.06Z" fill="#002a5e"/>
      </g>
      <g>
        <g>
          <path d="M71.92,232.92l2.29,3.21-7.07,5L64.85,238a4.35,4.35,0,0,1,1-6.06,4.3,4.3,0,0,1,3.23-.74A4.36,4.36,0,0,1,71.92,232.92Z" fill="#fff" stroke="#002a5e" stroke-miterlimit="10" stroke-width="0.5"/>
          <path d="M74.21,236.13l2.29,3.21a4.34,4.34,0,1,1-7.06,5l-2.3-3.21Z" fill="#002a5e" stroke="#002a5e" stroke-miterlimit="10" stroke-width="0.5"/>
        </g>
        <rect x="82.79" y="216.71" width="24.13" height="32.54" fill="#fff" stroke="#002a5e" stroke-miterlimit="10" stroke-width="0.5"/>
        <g>
          <circle cx="78.67" cy="242.32" r="3.87" fill="#fff" stroke="#002a5e" stroke-miterlimit="10" stroke-width="0.5"/>
          <line x1="75.73" y1="239.81" x2="81.42" y2="245.04" fill="none" stroke="#002a5e" stroke-miterlimit="10" stroke-width="0.5"/>
        </g>
        <g>
          <circle cx="77.49" cy="232.43" r="2.54" fill="#fff" stroke="#002a5e" stroke-miterlimit="10" stroke-width="0.5"/>
          <line x1="75.57" y1="230.79" x2="79.3" y2="234.22" fill="none" stroke="#002a5e" stroke-miterlimit="10" stroke-width="0.5"/>
        </g>
        <g>
          <line x1="87.15" y1="232.43" x2="102.55" y2="232.43" fill="#fff" stroke="#002a5e" stroke-miterlimit="10" stroke-width="0.5"/>
          <line x1="87.15" y1="236.26" x2="102.55" y2="236.26" fill="#fff" stroke="#002a5e" stroke-miterlimit="10" stroke-width="0.5"/>
          <line x1="87.15" y1="240.08" x2="102.55" y2="240.08" fill="#fff" stroke="#002a5e" stroke-miterlimit="10" stroke-width="0.5"/>
          <line x1="87.15" y1="243.9" x2="102.55" y2="243.9" fill="#fff" stroke="#002a5e" stroke-miterlimit="10" stroke-width="0.5"/>
        </g>
        <polygon points="99.12 222.36 96.56 222.36 96.56 219.8 92.61 219.8 92.61 222.36 90.05 222.36 90.05 226.31 92.61 226.31 92.61 228.87 96.56 228.87 96.56 226.31 99.12 226.31 99.12 222.36" fill="#002a5e" stroke="#002a5e" stroke-miterlimit="10" stroke-width="0.5"/>
        <g>
          <line x1="125.47" y1="220.68" x2="129.52" y2="223.67" fill="#fff" stroke="#002a5e" stroke-miterlimit="10" stroke-width="0.5"/>
          <g>
            <line x1="111.74" y1="243.41" x2="108.89" y2="247.26" fill="#fff" stroke="#002a5e" stroke-miterlimit="10" stroke-width="0.5"/>
            <rect x="123.66" y="221.36" width="2.7" height="8.47" transform="translate(158.67 -30.11) rotate(36.49)" fill="#002a5e" stroke="#002a5e" stroke-miterlimit="10" stroke-width="0.5"/>
            <rect x="110.68" y="239.49" width="4.19" height="5.29" transform="translate(166.1 -19.6) rotate(36.49)" fill="#002a5e" stroke="#002a5e" stroke-miterlimit="10" stroke-width="0.5"/>
            <rect x="116.11" y="223.63" width="5.69" height="20.28" transform="translate(162.34 -24.91) rotate(36.49)" fill="#fff" stroke="#002a5e" stroke-miterlimit="10" stroke-width="0.5"/>
            <line x1="119.83" y1="228.23" x2="121.89" y2="229.76" fill="#fff" stroke="#002a5e" stroke-miterlimit="10" stroke-width="0.5"/>
            <line x1="114.44" y1="235.52" x2="116.5" y2="237.04" fill="#fff" stroke="#002a5e" stroke-miterlimit="10" stroke-width="0.5"/>
            <line x1="117.07" y1="231.96" x2="119.82" y2="233.99" fill="#fff" stroke="#002a5e" stroke-miterlimit="10" stroke-width="0.5"/>
            <line x1="121.5" y1="223.04" x2="128.48" y2="228.2" fill="#fff" stroke="#002a5e" stroke-miterlimit="10" stroke-width="0.5"/>
          </g>
        </g>
        <g>
          <circle cx="84.64" cy="239.38" r="3.87" fill="#fff" stroke="#002a5e" stroke-miterlimit="10" stroke-width="0.5"/>
          <line x1="81.95" y1="242.15" x2="87.53" y2="236.8" fill="#fff" stroke="#002a5e" stroke-miterlimit="10" stroke-width="0.5"/>
        </g>
      </g>
    </g>
    <g>
      <circle cx="275.71" cy="133.63" r="29.23" fill="#f8a908" stroke="#002a5e" stroke-miterlimit="10" stroke-width="0.5"/>
      <g>
        <path d="M268.15,149.78a10.65,10.65,0,0,0,1.73-.12c0,.24.09.67.14.88a11.17,11.17,0,0,1-1.9.1h-4.18c-1.63,0-2.39-.51-2.39-2.12v-5.4h-.4v-.82h8.38v.82h-7.07v5.47c0,.85.34,1.19,1.39,1.19Zm-5-3.25h2.65v2.61H263.1Zm.76,1.95H265v-1.29h-1.09Zm4.07-2.52h-3.77v-2.27h3.77Zm-.92-1.64h-2v1h2Zm2.05,4.82h-2.72v-2.61h2.72Zm-.81-1.95H267.1v1.29h1.15Z" fill="#002a5e"/>
        <path d="M274.27,148.55c-1.06.45-2.2.91-3.08,1.26l-.29-.95c.36-.11.8-.27,1.29-.45v-3.25h-1.13v-.88h1.13V142h.87v2.27h1v.88h-1v2.94l1-.39Zm5,1.64c.25,0,.3-.11.33-.72a2,2,0,0,0,.72.31c-.09.91-.32,1.16-1,1.16H278c-.88,0-1.09-.23-1.09-1.07V147h-.55c-.14,1.82-.51,3.26-2.09,4.08a2.62,2.62,0,0,0-.54-.7c1.38-.65,1.67-1.87,1.79-3.38h-1.1v-4.12h1c.12-.33.24-.74.31-1l1,.12c-.13.31-.27.63-.41.9h3.34V147h-2v2.86c0,.29.06.33.39.33Zm-4-5.61h1.38v-1h-1.38Zm0,1.67h1.38v-1h-1.38Zm3.58-2.62h-1.37v1h1.37Zm0,1.66h-1.37v1h1.37Zm.81,4.23c0-.09-.06-.2-.1-.3a7.52,7.52,0,0,0-1.62.25,3.08,3.08,0,0,0-.21-.57c.11,0,.21-.13.29-.29a5.1,5.1,0,0,0,.53-1.4l.59.18a8.69,8.69,0,0,1-.65,1.44l.88-.08c-.11-.26-.22-.52-.33-.75l.44-.17a13.38,13.38,0,0,1,.65,1.47Z" fill="#002a5e"/>
        <path d="M284.22,150l-3.05.78-.21-.83,1.36-.29v-2.81h-1.21v-.76h1.21v-.94h-.73v-.5a5.29,5.29,0,0,1-.41.41,4.61,4.61,0,0,0-.36-.8,6.83,6.83,0,0,0,1.74-2.41l.7.23a3.82,3.82,0,0,1-.21.46,7,7,0,0,1,1.3,1.2l-.35.72a7.71,7.71,0,0,0-1.32-1.28,8.71,8.71,0,0,1-.87,1.23h2v.74H283v.94h1.1v.76H283v2.67l1.14-.27Zm-2.45-2.66a12.45,12.45,0,0,1,.35,1.81l-.57.17a11.87,11.87,0,0,0-.31-1.83ZM283.1,149a17,17,0,0,0,.35-1.81l.63.2c-.17.6-.33,1.31-.47,1.77Zm3-2.33a11.49,11.49,0,0,1-.46,2.24c.49,1.06,1.36,1.25,2.54,1.25.59,0,1.44,0,2-.09a2.73,2.73,0,0,0-.25.81c-.53,0-1.21,0-1.81,0-1.3,0-2.2-.21-2.8-1.19a4.89,4.89,0,0,1-.87,1.37,2.57,2.57,0,0,0-.56-.58,5.87,5.87,0,0,0,1.34-3.22h-.29a.88.88,0,0,0-.53.15,5.29,5.29,0,0,0-.29-.73.58.58,0,0,0,.38-.3,13.07,13.07,0,0,0,.58-1.47h-.86v-.79h1.14l.19-.08.54.16c-.21.54-.59,1.59-.91,2.29h.42l.14,0Zm-.93-2.85a12.09,12.09,0,0,0-.83-1.57l.7-.25a12.63,12.63,0,0,1,.84,1.53Zm2.41-.35h-1.5v-.73h1.5v-.87h.79v.87h1.45v.73h-1.45v.66h1.29v3.2h-1.27V148h1.47v.73h-1.47v1.17h-.79v-1.17H286V148h1.55v-.69h-1.29v-3.2h1.27Zm-.63,2h.76v-.7h-.76Zm0,1.29h.76V146h-.76Zm2.05-2h-.75v.7H289Zm0,1.28h-.75v.71H289Z" fill="#002a5e"/>
      </g>
      <g>
        <g>
          <polyline points="274.64 123.41 261.36 123.41 256.54 120.78" fill="none" stroke="#002a5e" stroke-miterlimit="10" stroke-width="0.5"/>
          <polyline points="274.71 129.47 261.44 129.47 256.61 132.1" fill="none" stroke="#002a5e" stroke-miterlimit="10" stroke-width="0.5"/>
          <line x1="274.72" y1="126.53" x2="252.25" y2="126.53" fill="none" stroke="#002a5e" stroke-miterlimit="10" stroke-width="0.5"/>
          <circle cx="252.25" cy="126.53" r="1.86" fill="#002a5e" stroke="#002a5e" stroke-miterlimit="10" stroke-width="0.5"/>
          <circle cx="256.84" cy="131.89" r="1.86" fill="#fff" stroke="#002a5e" stroke-miterlimit="10" stroke-width="0.5"/>
          <circle cx="256.53" cy="120.78" r="1.86" fill="#fff" stroke="#002a5e" stroke-miterlimit="10" stroke-width="0.5"/>
        </g>
        <g>
          <polyline points="276.4 123.41 289.68 123.41 294.5 120.78" fill="none" stroke="#002a5e" stroke-miterlimit="10" stroke-width="0.5"/>
          <polyline points="276.32 129.47 289.6 129.47 294.43 132.1" fill="none" stroke="#002a5e" stroke-miterlimit="10" stroke-width="0.5"/>
          <line x1="276.32" y1="126.53" x2="298.79" y2="126.53" fill="none" stroke="#002a5e" stroke-miterlimit="10" stroke-width="0.5"/>
          <circle cx="298.79" cy="126.53" r="1.86" fill="#002a5e" stroke="#002a5e" stroke-miterlimit="10" stroke-width="0.5"/>
          <circle cx="294.2" cy="131.89" r="1.86" fill="#fff" stroke="#002a5e" stroke-miterlimit="10" stroke-width="0.5"/>
          <circle cx="294.5" cy="120.78" r="1.86" fill="#fff" stroke="#002a5e" stroke-miterlimit="10" stroke-width="0.5"/>
        </g>
        <g>
          <polyline points="272.48 116.81 272.48 103.53 269.86 98.7" fill="none" stroke="#002a5e" stroke-miterlimit="10" stroke-width="0.5"/>
          <polyline points="278.55 116.88 278.55 103.6 281.18 98.78" fill="none" stroke="#002a5e" stroke-miterlimit="10" stroke-width="0.5"/>
          <line x1="275.61" y1="116.88" x2="275.61" y2="94.41" fill="none" stroke="#002a5e" stroke-miterlimit="10" stroke-width="0.5"/>
          <circle cx="275.61" cy="94.41" r="1.86" fill="#002a5e" stroke="#002a5e" stroke-miterlimit="10" stroke-width="0.5"/>
          <circle cx="280.96" cy="99.01" r="1.86" fill="#fff" stroke="#002a5e" stroke-miterlimit="10" stroke-width="0.5"/>
          <circle cx="269.86" cy="98.7" r="1.86" fill="#fff" stroke="#002a5e" stroke-miterlimit="10" stroke-width="0.5"/>
        </g>
        <g>
          <path d="M283.93,117.26h-2.3a6.24,6.24,0,1,0-12.48,0h-2.3a8.54,8.54,0,0,1,17.08,0Z" fill="#fff" stroke="#002a5e" stroke-miterlimit="10" stroke-width="0.5"/>
          <rect x="265.45" y="116.75" width="19.92" height="18.72" fill="#fff" stroke="#002a5e" stroke-miterlimit="10" stroke-width="0.5"/>
          <circle cx="275.52" cy="126.71" r="1.87" fill="#002a5e"/>
          <rect x="274.94" y="126.71" width="1.16" height="8.76" fill="#002a5e"/>
        </g>
      </g>
    </g>
    <g>
      <circle cx="239.19" cy="249.56" r="29.23" fill="#f8a908" stroke="#002a5e" stroke-miterlimit="10" stroke-width="0.5"/>
      <g>
        <path d="M221.41,258.49a9.64,9.64,0,0,1-1,4.87,2.87,2.87,0,0,0-.74-.51,8.39,8.39,0,0,0,.9-4.37v-2.32h3.12v-1.93h.93v.7H228v.7h-3.36v.53h3.18l.15,0,.65.17a11.55,11.55,0,0,1-.56,1.61l-.78-.22a7.45,7.45,0,0,0,.25-.79h-3v.61l2.45-.2,0,.63-2.49.21v.08c0,.28.06.39.41.39H227a5.85,5.85,0,0,0,1.09-.08c0,.25.05.52.08.72a6.34,6.34,0,0,1-1.1.06h-2.24c-1,0-1.22-.31-1.22-1.09l-1.74.15,0-.65,1.79-.15v-.68h-2.21Zm4.68,3.83h2.48v.79h-7.35v-.79h2.37v-.67H222v-1.88h.72V261h.92v-1.34h.79v2.7h.91v-2.7h.8V261H227v-1.19h.73v1.88h-1.67Z" fill="#002a5e"/>
        <path d="M234,260.8c0,.11-.06.22-.08.33a7.38,7.38,0,0,1,.93.93l-.49.61a6.79,6.79,0,0,0-.72-.8,4.08,4.08,0,0,1-1.37,1.55,2.72,2.72,0,0,0-.54-.53,3.2,3.2,0,0,0,1.51-2.09H232v-.74h1.36c0-.11,0-.22,0-.31V259H233a4.48,4.48,0,0,1-.47.93,4.47,4.47,0,0,0-.6-.4,3.64,3.64,0,0,0,.23-.39l-.78.3v2.93c0,.45-.09.69-.33.82a2.6,2.6,0,0,1-1.23.17,2.79,2.79,0,0,0-.24-.82h.82c.12,0,.16,0,.16-.16v-2.62l-.87.32-.24-.89,1.11-.38V257h-1v-.86h1v-2h.82v2h.72V257h-.72v1.52l.73-.27.14.7a6.63,6.63,0,0,0,.44-1.53l.69.15a5.83,5.83,0,0,1-.15.7H235V259h-.84v.73c0,.09,0,.19,0,.3h1v.74Zm-.7-3.41c-.79,0-1-.3-1-1.09v-2.06h.77v.87h1.66v.69h-1.66v.51c0,.29,0,.38.23.38h1a3.83,3.83,0,0,0,.6-.05c0,.2,0,.51.08.69a2.47,2.47,0,0,1-.66.06Zm3.91,5.09a2.54,2.54,0,0,0,.56,0h1.07a2.88,2.88,0,0,0-.23.74h-.9a2,2,0,0,1-2.05-1.16,3.93,3.93,0,0,1-.7,1.33,2.82,2.82,0,0,0-.58-.43c.74-.83.92-2.13,1-3.73l.71,0a14.86,14.86,0,0,1-.15,1.74,2.44,2.44,0,0,0,.58,1.06v-3.56h-1.43v-.75h2.37a14.4,14.4,0,0,0-2-1.51l.53-.51.73.46a7.93,7.93,0,0,0,.73-1h-2.21v-.73h2.71l.14,0,.53.36a9,9,0,0,1-1.3,1.8,9,9,0,0,1,.72.58l-.53.57h.63l.11,0,.45.12a17.5,17.5,0,0,1-.39,1.76l-.56-.15c.06-.25.13-.6.18-.95h-.67V260h1.25v.75h-1.25Z" fill="#002a5e"/>
        <path d="M248.69,257v.68H247l-.08.84h-5.71l.11-.84h-1.58V257h1.67l.1-.8h5.63l-.08.8Zm-3.06,5c1,.26,2.06.58,2.74.81l-.63.59c-.7-.27-1.88-.66-3-1l.39-.43h-2l.58.4a11.35,11.35,0,0,1-3.29,1,6.61,6.61,0,0,0-.5-.64,12.38,12.38,0,0,0,2.86-.75H241v-3.16h6.37v3.16Zm-4.77-5.33H240v-1.65h3.73a5.45,5.45,0,0,0-.37-.68l.8-.23a4.45,4.45,0,0,1,.54.91h3.65v1.65h-.88v-.91h-6.63Zm1.07,3.06h4.53v-.38h-4.53Zm0,.87h4.53v-.39h-4.53Zm0,.89h4.53v-.4h-4.53Zm.14-3.51h1.63c0-.14,0-.28.05-.43h-1.63Zm.17-1.31-.05.38h1.61l0-.38Zm3.85,1.31,0-.43h-1.61c0,.15,0,.3-.05.43Zm.11-1.31h-1.59l0,.38h1.6Z" fill="#002a5e"/>
        <path d="M252.81,261c-1,.42-2.11.86-3,1.19l-.31-1c.34-.11.75-.24,1.2-.4v-3.3h-1v-.88h1v-2.27h.91v2.27h.91v.88h-.91v3l1-.36Zm4.68,1.58a1.07,1.07,0,0,0,.29,0,.29.29,0,0,0,.14-.21,5.58,5.58,0,0,0,.05-.8,2.43,2.43,0,0,0,.73.39,3.7,3.7,0,0,1-.13,1,.68.68,0,0,1-.39.34,2,2,0,0,1-.61.08h-.66a1.21,1.21,0,0,1-.71-.2c-.18-.14-.25-.32-.25-.88v-1.36h-.81c-.18,1.38-.68,2.16-2.52,2.62a2.15,2.15,0,0,0-.48-.73c1.58-.31,2-.85,2.11-1.89h-.93v-2.9h4.61v2.9h-1.12v1.41c0,.14,0,.23.07.26a.34.34,0,0,0,.22.05Zm.95-5.05h-5.56v-.78h1.31a7.27,7.27,0,0,0-.27-.83l.75-.17a5.49,5.49,0,0,1,.34,1l-.19.05h1.41c.12-.31.28-.69.36-1l.85.17c-.14.28-.26.56-.39.81h1.39Zm-.26-1.83h-5v-.77h2.05c-.07-.2-.14-.4-.22-.57l.86-.17a5.33,5.33,0,0,1,.32.74h2Zm-4,3.41H257v-.53h-2.87Zm0,1.14H257v-.56h-2.87Z" fill="#002a5e"/>
      </g>
      <g>
        <g>
          <g>
            <ellipse cx="231.59" cy="231.51" rx="21.43" ry="5.76" transform="translate(-95.87 231.57) rotate(-45)" fill="none" stroke="#002a5e" stroke-miterlimit="10" stroke-width="0.5"/>
            <ellipse cx="232.67" cy="231.51" rx="5.76" ry="21.43" transform="translate(-95.55 232.33) rotate(-45)" fill="none" stroke="#002a5e" stroke-miterlimit="10" stroke-width="0.5"/>
          </g>
          <circle cx="222.61" cy="217.17" r="1.24" fill="#002a5e" stroke="#002a5e" stroke-miterlimit="10" stroke-width="0.5"/>
          <circle cx="221.76" cy="228.07" r="1.24" fill="#fff" stroke="#002a5e" stroke-miterlimit="10" stroke-width="0.5"/>
          <circle cx="217.79" cy="239.92" r="1.24" fill="#002a5e" stroke="#002a5e" stroke-miterlimit="10" stroke-width="0.5"/>
          <circle cx="223.85" cy="244.98" r="1.24" fill="#fff" stroke="#002a5e" stroke-miterlimit="10" stroke-width="0.5"/>
          <circle cx="240.53" cy="245.31" r="1.24" fill="#fff" stroke="#002a5e" stroke-miterlimit="10" stroke-width="0.5"/>
          <circle cx="246.3" cy="215.91" r="1.26" fill="#fff" stroke="#002a5e" stroke-miterlimit="10" stroke-width="0.5"/>
          <circle cx="244.56" cy="224.49" r="1.24" fill="#fff" stroke="#002a5e" stroke-miterlimit="10" stroke-width="0.5"/>
        </g>
        <g>
          <rect x="229.42" y="233.31" width="3.62" height="5.88" rx="0.7" fill="#002a5e" stroke="#002a5e" stroke-miterlimit="10" stroke-width="0.5"/>
          <rect x="250.5" y="233.31" width="3.62" height="5.88" rx="0.7" fill="#002a5e" stroke="#002a5e" stroke-miterlimit="10" stroke-width="0.5"/>
          <g>
            <path d="M248,233.72H235.36a1.89,1.89,0,0,1-1.83-2.37l.4-1.5a1.89,1.89,0,0,1,1.82-1.4h11.87a1.9,1.9,0,0,1,1.83,1.4l.39,1.5A1.88,1.88,0,0,1,248,233.72Z" fill="#002a5e" stroke="#002a5e" stroke-miterlimit="10" stroke-width="0.5"/>
            <path d="M252.28,232.73v7.36a1.36,1.36,0,0,1-1.36,1.36h-6.81a1.36,1.36,0,0,1-1.18-.68h0a1.36,1.36,0,0,0-2.36,0h0a1.36,1.36,0,0,1-1.18.68h-6.8a1.36,1.36,0,0,1-1.36-1.36v-7.36a1.36,1.36,0,0,1,1.36-1.36h18.33A1.36,1.36,0,0,1,252.28,232.73Z" fill="#fff" stroke="#002a5e" stroke-miterlimit="10" stroke-width="0.5"/>
            <line x1="250.5" y1="234.93" x2="250.5" y2="233.58" fill="none" stroke="#002a5e" stroke-linecap="round" stroke-linejoin="round" stroke-width="0.5"/>
            <path d="M245.18,239.92h4.26a1.07,1.07,0,0,0,1.06-1.06v-1.92" fill="none" stroke="#002a5e" stroke-linecap="round" stroke-linejoin="round" stroke-width="0.5"/>
          </g>
        </g>
        <rect x="252.31" y="220.44" width="2.36" height="6.54" fill="#002a5e" stroke="#002a5e" stroke-miterlimit="10" stroke-width="0.5"/>
        <rect x="255.82" y="229.31" width="2.39" height="3.99" fill="#fff" stroke="#002a5e" stroke-miterlimit="10" stroke-width="0.5"/>
        <rect x="266.21" y="236.94" width="2.39" height="4.8" fill="#002a5e" stroke="#002a5e" stroke-miterlimit="10" stroke-width="0.5"/>
        <rect x="260.5" y="225.73" width="3.33" height="12.7" fill="#fff" stroke="#002a5e" stroke-miterlimit="10" stroke-width="0.5"/>
        <rect x="256.1" y="239.75" width="2.65" height="5.4" fill="#fff" stroke="#002a5e" stroke-miterlimit="10" stroke-width="0.5"/>
      </g>
    </g>
    <g>
      <circle cx="165.32" cy="48.37" r="29.23" fill="#f8a908" stroke="#002a5e" stroke-miterlimit="10" stroke-width="0.5"/>
      <g>
        <path d="M154.5,59.71c0,.52-.11.81-.48,1a6,6,0,0,1-1.81.15,3.4,3.4,0,0,0-.33-.94c.61,0,1.26,0,1.44,0s.24,0,.24-.2v-2a4,4,0,0,0-.66.8,5,5,0,0,1-2.34-3,4.84,4.84,0,0,1-2.43,3,3.62,3.62,0,0,0-.57-.71v3h-.94v-7h3.58c0-.31-.07-.64-.1-1h-1.73v-.82h2.54a13.71,13.71,0,0,0,.18,1.79h3.41Zm-6.94-1.9a4.34,4.34,0,0,0,2.31-3h-2.31Zm3.73-3a4.22,4.22,0,0,0,2.27,2.92V54.79Z" fill="#002a5e"/>
        <path d="M161.22,55l-.17.27a10.15,10.15,0,0,0,4.07,2.56,2.64,2.64,0,0,0-.59.78q-.61-.27-1.17-.57v2.8h-1v-.28h-3.78v.32h-.91V58.12a9.58,9.58,0,0,1-1.21.58,3.74,3.74,0,0,0-.59-.75,8.86,8.86,0,0,0,4.49-3.32Zm-3.95-.49h-.91V52.54h3.77c-.1-.25-.22-.51-.34-.74l1-.21a6,6,0,0,1,.47.95h3.48v1.94h-.94v-1.1h-6.49Zm2.41-.45a8.44,8.44,0,0,1-2.56,2.21,6.77,6.77,0,0,0-.64-.7,6.81,6.81,0,0,0,2.33-1.8Zm2.73,5.69v-1.4h-3.78v1.4Zm.09-2.22a9.88,9.88,0,0,1-1.95-1.63,9.41,9.41,0,0,1-1.81,1.63Zm-.59-3.75a14.52,14.52,0,0,1,2.55,1.87l-.67.61a14.53,14.53,0,0,0-2.52-2Z" fill="#002a5e"/>
        <path d="M174.55,56.33v3.32h-1v-.39H171v1.59h-1V59.26h-2.47v.4h-1V56.33H170V55.6h-3V52.8h3V51.67h1V52.8h3.12v2.8H171v.73ZM170,58.43V57.19h-2.47v1.24Zm0-3.64V53.61h-2.09v1.18Zm1-1.18v1.18h2.11V53.61Zm2.55,4.82V57.19H171v1.24Z" fill="#002a5e"/>
        <path d="M177.77,56.29a7.32,7.32,0,0,0-1.83-1.1l.49-.7a8.3,8.3,0,0,1,1.86,1Zm1,1.26c-.53,1-1.19,2.22-1.79,3.18l-.78-.63A29.89,29.89,0,0,0,178,56.93Zm-.64-3.86a7.16,7.16,0,0,0-1.71-1.22l.52-.68A7.71,7.71,0,0,1,178.65,53Zm1.5,2.7h.84v1A3.94,3.94,0,0,1,179,60.81a2.73,2.73,0,0,0-.65-.62,3.17,3.17,0,0,0,1.25-2.81Zm4.72,0c-.12-.19-.29-.43-.48-.68-3.89.26-4.37.3-4.69.43a9.1,9.1,0,0,0-.3-.87c.22-.05.45-.28.74-.63a8.52,8.52,0,0,0,.68-.88h-1.5v-.84h2.08c.24-.4.5-.83.7-1.25l.91.36c-.17.3-.36.6-.54.89h3v.84h-3.61q-.56.75-1.11,1.38l3.05-.18c-.22-.26-.43-.52-.61-.76l.7-.4c.56.66,1.33,1.57,1.71,2.11Zm-3,.08h.82v3.94h-.82Zm3.24,3.43a1.73,1.73,0,0,0,.45,0c0,.22,0,.52.07.71a1.59,1.59,0,0,1-.51.06H184c-.78,0-.93-.32-.93-1.12V56.39h.86v3.13c0,.29,0,.38.15.38Z" fill="#002a5e"/>
      </g>
      <g>
        <g>
          <g>
            <rect x="161.28" y="38.69" width="6.55" height="3.55" fill="#002a5e" stroke="#002a5e" stroke-miterlimit="10" stroke-width="0.5"/>
            <rect x="149.31" y="19.39" width="30.78" height="20.55" rx="1.14" fill="#fff" stroke="#002a5e" stroke-miterlimit="10"/>
            <g>
              <path d="M157.94,45.24a1.26,1.26,0,1,1,0-2.52h13.52a1.26,1.26,0,1,1,0,2.52Z" fill="#002a5e"/>
              <path d="M171.46,43a1,1,0,1,1,0,2H157.94a1,1,0,1,1,0-2h13.52m0-.5H157.94a1.51,1.51,0,1,0,0,3h13.52a1.51,1.51,0,1,0,0-3Z" fill="#002a5e"/>
            </g>
            <rect x="149.31" y="36.13" width="30.78" height="3.81" rx="0.49" fill="#002a5e" stroke="#002a5e" stroke-miterlimit="10" stroke-width="0.5"/>
          </g>
          <circle cx="164.7" cy="28.65" r="5.14" fill="#002a5e" stroke="#002a5e" stroke-miterlimit="10" stroke-width="0.5"/>
          <polygon points="166.96 28.65 163.25 26.51 163.25 30.79 166.96 28.65" fill="#fff"/>
        </g>
        <g>
          <g>
            <rect x="178.42" y="24.21" width="14.7" height="24.68" rx="2.89" transform="translate(29.4 -70.19) rotate(23.19)" fill="#002a5e" stroke="#002a5e" stroke-miterlimit="10" stroke-width="0.5"/>
            <rect x="180.47" y="26.52" width="11.92" height="16.97" transform="translate(28.84 -70.57) rotate(23.19)" fill="#fff" stroke="#002a5e" stroke-miterlimit="10" stroke-width="0.5"/>
            <circle cx="182.07" cy="45.18" r="1.58" fill="#fff" stroke="#002a5e" stroke-miterlimit="10" stroke-width="0.5"/>
          </g>
          <polygon points="187.97 35.66 186.24 33.35 185.11 36.01 187.97 35.66" fill="#002a5e"/>
          <circle cx="186.44" cy="35.01" r="3.1" fill="none" stroke="#002a5e" stroke-miterlimit="10" stroke-width="0.5"/>
        </g>
        <g>
          <g>
            <rect x="140.67" y="22.82" width="11.04" height="21.97" rx="3.19" fill="#fff" stroke="#002a5e" stroke-miterlimit="10" stroke-width="0.5"/>
            <circle cx="146.19" cy="33.54" r="2.87" fill="#fff" stroke="#002a5e" stroke-miterlimit="10" stroke-width="0.5"/>
            <circle cx="146.19" cy="33.54" r="0.75" fill="#002a5e"/>
            <g>
              <circle cx="143.49" cy="25.55" r="0.79" fill="#002a5e"/>
              <circle cx="146.19" cy="25.55" r="0.79" fill="#002a5e"/>
              <circle cx="148.88" cy="25.55" r="0.79" fill="#002a5e"/>
            </g>
            <g>
              <circle cx="143.49" cy="28.26" r="0.79" fill="#002a5e"/>
              <circle cx="146.19" cy="28.26" r="0.79" fill="#002a5e"/>
              <circle cx="148.88" cy="28.26" r="0.79" fill="#002a5e"/>
            </g>
            <g>
              <circle cx="143.49" cy="38.82" r="0.79" fill="#002a5e"/>
              <circle cx="146.19" cy="38.82" r="0.79" fill="#002a5e"/>
              <circle cx="148.88" cy="38.82" r="0.79" fill="#002a5e"/>
            </g>
            <g>
              <circle cx="143.49" cy="41.59" r="0.79" fill="#002a5e"/>
              <circle cx="146.19" cy="41.59" r="0.79" fill="#002a5e"/>
              <circle cx="148.88" cy="41.59" r="0.79" fill="#002a5e"/>
            </g>
          </g>
          <g>
            <circle cx="146.13" cy="19.97" r="1.56" fill="#002a5e" stroke="#002a5e" stroke-miterlimit="10" stroke-width="0.5"/>
            <path d="M143.71,17.54a3.45,3.45,0,0,1,2.43-1,3.36,3.36,0,0,1,2.42,1" fill="none" stroke="#002a5e" stroke-linecap="round" stroke-miterlimit="10" stroke-width="0.5"/>
            <path d="M142.32,16.15a5.41,5.41,0,0,1,7.64,0" fill="none" stroke="#002a5e" stroke-linecap="round" stroke-miterlimit="10" stroke-width="0.5"/>
            <path d="M140.87,14.7a7.44,7.44,0,0,1,10.54,0" fill="none" stroke="#002a5e" stroke-linecap="round" stroke-miterlimit="10" stroke-width="0.5"/>
          </g>
        </g>
      </g>
    </g>
    <g>
      <g>
        <circle cx="54.49" cy="133.63" r="29.23" fill="#f8a908" stroke="#002a5e" stroke-miterlimit="10" stroke-width="0.5"/>
        <g>
          <path d="M48.09,150c.37,0,.43-.26.47-1.74a3,3,0,0,0,.87.4c-.1,1.73-.34,2.22-1.27,2.22H46.83c-1,0-1.25-.31-1.25-1.29v-3.34H43.87c-.18,2.11-.63,3.84-3,4.78a2.44,2.44,0,0,0-.58-.75c2.09-.78,2.43-2.27,2.57-4H40.47v-.9h8.79v.9H46.54v3.33c0,.36.06.42.42.42Zm.3-6.49h-7v-.9h7Z" fill="#002a5e"/>
          <path d="M51.48,145.13h-.91V142.9h3.81a7.2,7.2,0,0,0-.34-.74l.93-.26a6.61,6.61,0,0,1,.49,1h3.65v2.23h-1v-1.37H51.48Zm7.65,2.77H55.4v2c0,.56-.15.82-.56,1a6.32,6.32,0,0,1-1.92.16,3.75,3.75,0,0,0-.39-.93c.68,0,1.41,0,1.62,0s.26,0,.26-.22v-2H50.59V147h3.82v-1.37H52v-.86h5.66v.86H55.4V147h3.73Z" fill="#002a5e"/>
          <path d="M69,143v2.21H68v-1.35H61.63v1.35h-.91V143h3.72a8.09,8.09,0,0,0-.42-.89l1-.29a8.46,8.46,0,0,1,.57,1.18Zm-3.7,2.67h3V151h-.94v-.43h-5V151h-.9v-5.4h2.9v-1.42h.92Zm-2.92.85v1.19h2v-1.19Zm0,3.26h2v-1.27h-2Zm2.92-3.26v1.19h2.07v-1.19Zm2.07,3.26v-1.27H65.29v1.27Z" fill="#002a5e"/>
        </g>
        <g>
          <g>
            <polyline points="40.87 101.19 20.59 114.81 27.31 131.57 89.89 121.22 40.87 101.19 71.34 133.26 27.31 131.57 16 138.15" fill="none" stroke="#002a5e" stroke-miterlimit="10" stroke-width="0.5"/>
            <polyline points="87.81 118.75 91.44 139.12 70.03 133.26" fill="none" stroke="#002a5e" stroke-miterlimit="10" stroke-width="0.5"/>
          </g>
          <g>
            <rect x="87.81" y="135.16" width="5.99" height="5.99" fill="#fff" stroke="#002a5e" stroke-miterlimit="10" stroke-width="0.5"/>
            <rect x="23.95" y="125.63" width="8" height="8" fill="#fff" stroke="#002a5e" stroke-miterlimit="10" stroke-width="0.5"/>
            <rect x="86.44" y="118.53" width="4.54" height="4.54" fill="#002a5e" stroke="#002a5e" stroke-miterlimit="10" stroke-width="0.5"/>
            <rect x="65.87" y="128.98" width="6.85" height="6.85" fill="#002a5e" stroke="#002a5e" stroke-miterlimit="10" stroke-width="0.5"/>
            <rect x="37.93" y="97.81" width="5.89" height="5.89" fill="#fff" stroke="#002a5e" stroke-miterlimit="10" stroke-width="0.5"/>
            <rect x="14.71" y="135.59" width="4.71" height="4.71" fill="#fff" stroke="#002a5e" stroke-miterlimit="10" stroke-width="0.5"/>
            <rect x="17.58" y="111.8" width="6.03" height="6.03" fill="#002a5e" stroke="#002a5e" stroke-miterlimit="10" stroke-width="0.5"/>
          </g>
        </g>
        <g>
          <path d="M54.13,114.93a48.66,48.66,0,0,1-5.9,5.3,48.09,48.09,0,0,1-6.61,4.4,8.19,8.19,0,0,1-3-3.91,7.23,7.23,0,0,1-.37-1.25A8.3,8.3,0,0,1,51.11,111,8.13,8.13,0,0,1,54.13,114.93Z" fill="#fff" stroke="#002a5e" stroke-miterlimit="10" stroke-width="0.5"/>
          <path d="M54.5,116.18a8.29,8.29,0,0,1-12.88,8.45,48.09,48.09,0,0,0,6.61-4.4,48.66,48.66,0,0,0,5.9-5.3A6.45,6.45,0,0,1,54.5,116.18Z" fill="#fff" stroke="#002a5e" stroke-miterlimit="10" stroke-width="0.5"/>
          <path d="M38.6,120.72a8.19,8.19,0,0,0,3,3.91c-3,1.63-5.31,2.27-5.94,1.46S36.25,123.22,38.6,120.72Z" fill="none" stroke="#002a5e" stroke-miterlimit="10" stroke-width="0.5"/>
          <path d="M54.13,114.93a8.13,8.13,0,0,0-3-3.91c3-1.63,5.32-2.27,6-1.46S56.48,112.43,54.13,114.93Z" fill="none" stroke="#002a5e" stroke-miterlimit="10" stroke-width="0.5"/>
        </g>
        <circle cx="53.19" cy="132.41" r="1.37" fill="#fff" stroke="#002a5e" stroke-miterlimit="10" stroke-width="0.5"/>
        <g>
          <path d="M78,116.1a5.27,5.27,0,0,1-.43.51c-.17.18-.34.34-.52.5a6.6,6.6,0,0,1-3.45,1.56h0a6.36,6.36,0,0,1-.86.07,6.66,6.66,0,0,1-5.78-10,3.66,3.66,0,0,1,.31-.49l.13-.18a4.56,4.56,0,0,1,.69-.76,2.47,2.47,0,0,1,.45-.4,6.23,6.23,0,0,1,2.26-1.19,4.47,4.47,0,0,1,.63-.16,6.65,6.65,0,0,1,7.41,9.11,2.57,2.57,0,0,1-.25.53A5.73,5.73,0,0,1,78,116.1Z" fill="#002a5e"/>
          <g>
            <path d="M70.45,108.71a23.59,23.59,0,0,0-2.34-1.43,2.47,2.47,0,0,1,.45-.4,22.08,22.08,0,0,1,2.21,1.34c2.28,1.56,4.5,3,5.38,2.7.13,0,.3-.12.43-.45s-.1-1.11-3.47-2.87a6.94,6.94,0,0,1-2.29-1.91,4.47,4.47,0,0,1,.63-.16,6.61,6.61,0,0,0,1.92,1.55c3.23,1.68,4.18,2.59,3.75,3.63a1.26,1.26,0,0,1-.8.78C75.38,111.76,73.85,111,70.45,108.71Z" fill="#fff"/>
            <path d="M76,114A47.77,47.77,0,0,1,67,108.71a3.66,3.66,0,0,1,.31-.49,47.6,47.6,0,0,0,9,5.24c.21.09.47.21.76.32.55.24,1.2.52,1.81.86a2.57,2.57,0,0,1-.25.53,17.58,17.58,0,0,0-1.79-.84C76.52,114.2,76.25,114.09,76,114Z" fill="#fff"/>
            <path d="M68.66,113.18c-.25.26-.19.88.43,1.57a46.64,46.64,0,0,0,4.53,3.91,6.36,6.36,0,0,1-.86.07,42.91,42.91,0,0,1-4.11-3.59c-.9-1-.84-1.94-.39-2.37s1.55-.58,3,.73a13.15,13.15,0,0,0,6.33,3.11c-.17.18-.34.34-.52.5a13.58,13.58,0,0,1-6.2-3.17C69.8,113,69,112.87,68.66,113.18Z" fill="#fff"/>
          </g>
        </g>
      </g>
      <circle cx="30.58" cy="108.22" r="1.37" fill="#fff" stroke="#002a5e" stroke-miterlimit="10" stroke-width="0.5"/>
      <circle cx="89.89" cy="130.36" r="1.37" fill="#fff" stroke="#002a5e" stroke-miterlimit="10" stroke-width="0.5"/>
    </g>
  </g>
</svg>
