<svg xmlns="http://www.w3.org/2000/svg" viewBox="0 0 328.22 319.44">
  <g>
    <circle cx="167.41" cy="172.61" r="118.08" fill="none" stroke="#002a5e" stroke-miterlimit="10" stroke-width="0.92"/>
    <g>
      <circle cx="93.35" cy="269" r="29.23" fill="#f8a908" stroke="#002a5e" stroke-miterlimit="10" stroke-width="0.5"/>
      <g>
        <path d="M79.54,279.06v.39h2.33v3.37H81v-.34H75.54v.34H74.7v-3.37h2.51v-.39H73.7v-.62h9.13v.62Zm-5.29-4.53h-.31V274h4.43v.56H75v2.57c0,.35.08.47.43.47h2a5.3,5.3,0,0,0,.94-.06c0,.2,0,.43.08.58a4.84,4.84,0,0,1-1,.06H75.37c-.87,0-1.12-.29-1.12-1.07Zm1.66.89a3.4,3.4,0,0,1-.34.4,2.55,2.55,0,0,0-.48-.29,2.77,2.77,0,0,0,.69-1l.55.13c0,.09-.08.19-.13.29h1.86v.47H77v.45h1.2v.49H77.05a8.6,8.6,0,0,1,1.08.75l-.37.42a6.78,6.78,0,0,0-1-.75,2.4,2.4,0,0,1-1.15.8,1.71,1.71,0,0,0-.4-.45,1.62,1.62,0,0,0,1.12-.77H75.17v-.49h1.25v-.44ZM81,282v-1.09H79.78c-.78,0-1-.13-1-.69V280h-.89c-.11.51-.6.88-2,1.09a2.46,2.46,0,0,0-.4-.53c1.07-.1,1.48-.31,1.62-.56H75.54v2Zm-4.69-.81h4.05v.48H76.32Zm2.49-2.09h-.87v.39h.87Zm-.13-3.14a2.84,2.84,0,0,0-.48-.54c.76-.28.89-.61.89-.95v-.51h2.48v.84c0,.19,0,.25.13.25h.4a2,2,0,0,0,.43-.05c0,.19,0,.44.06.62a1.54,1.54,0,0,1-.46.05h-.54c-.63,0-.75-.26-.75-.88v-.18h-1a1.46,1.46,0,0,1-.8,1.22h2.52l.13,0,.45.19a3.39,3.39,0,0,1-1,1.35c.46.21.89.4,1.19.57l-.34.54c-.35-.19-.86-.44-1.42-.7a6.61,6.61,0,0,1-1.76.7,2.7,2.7,0,0,0-.38-.57,6.75,6.75,0,0,0,1.4-.46l-1.12-.47.33-.47c.43.16.93.36,1.42.57a3.29,3.29,0,0,0,.68-.66H78.68Zm.86,4.06v.21c0,.19,0,.22.32.22H81V280Z" fill="#002a5e"/>
        <path d="M92.61,277.26a5.86,5.86,0,0,1-.77.66,5.1,5.1,0,0,0,1.1.59,3.07,3.07,0,0,0-.53.66,5.69,5.69,0,0,1-.72-.4v1.83H89.87V282c0,.4-.08.6-.38.72a4.13,4.13,0,0,1-1.37.13,2.87,2.87,0,0,0-.3-.75h1c.13,0,.17,0,.17-.14V280.6h-1.8v-1.82a8.29,8.29,0,0,1-.73.44,2,2,0,0,0-.52-.58,6.9,6.9,0,0,1-1.41,4.2,3.37,3.37,0,0,0-.65-.61A5.21,5.21,0,0,0,85,279.4c-.38.23-.76.46-1.14.66l-.29-.83c.39-.16.93-.45,1.51-.74,0-.27,0-.51,0-.76v-3.19h3.39c-.06-.24-.15-.48-.22-.7l.93-.19c.12.27.24.61.33.89h3.3v.79H86v2.4c0,.27,0,.54,0,.84A6.09,6.09,0,0,0,87,277.9a7.23,7.23,0,0,0-.69-.55l.49-.42a8.17,8.17,0,0,1,.71.53,5.17,5.17,0,0,0,.54-.63H86.36v-.72h2.15a3.62,3.62,0,0,0,.31-.78l.87.12a4.06,4.06,0,0,1-.25.66h3.29v.72h-2a6,6,0,0,0,.63.7,7.47,7.47,0,0,0,.69-.66Zm-8.31.4c-.11-.49-.37-1.34-.59-2l.69-.26a16.56,16.56,0,0,1,.62,1.9ZM88.1,281a13.07,13.07,0,0,1-1.52,1.61,5.7,5.7,0,0,0-.71-.53,7.52,7.52,0,0,0,1.4-1.36Zm2.79-2.58H88V279h2.92Zm0,1.06H88V280h2.92Zm-1.83-2.67a5.88,5.88,0,0,1-.79,1h2.37a5.37,5.37,0,0,1-.76-1Zm2.13,3.89c.47.45,1.14,1.11,1.47,1.51l-.71.44a20.69,20.69,0,0,0-1.43-1.56Z" fill="#002a5e"/>
        <path d="M97,279.79a13.76,13.76,0,0,0-.78-1.32v4.36h-.9v-4A9.71,9.71,0,0,1,94,281.12a5.87,5.87,0,0,0-.45-.86,10,10,0,0,0,1.6-2.93H93.72v-.87h1.6v-1.34c-.43.08-.86.14-1.26.2a2.83,2.83,0,0,0-.26-.72,15,15,0,0,0,3.18-.81l.53.76a9.44,9.44,0,0,1-1.29.38v1.53h1.4v.87h-1.4v.14c.3.31,1.15,1.33,1.34,1.59Zm4.68.49v2.55h-.91v-2.39l-3.15.52-.14-.88,3.29-.55v-5.86h.91v5.71l1.09-.18.14.87Zm-2.17-1.35a8.61,8.61,0,0,0-1.67-1.49l.59-.54a9.4,9.4,0,0,1,1.71,1.42Zm.25-2.63a8.14,8.14,0,0,0-1.55-1.45l.61-.53a8.24,8.24,0,0,1,1.59,1.39Z" fill="#002a5e"/>
        <path d="M107.06,278.82l-1.14.33v2.62c0,.48-.1.73-.39.87a3.44,3.44,0,0,1-1.42.16,3.6,3.6,0,0,0-.28-.84c.44,0,.86,0,1,0s.2,0,.2-.19v-2.36l-1.1.3-.24-.89,1.34-.32v-2h-1.23v-.86H105v-1.95h.91v1.95h1v.86h-1v1.76l1-.27Zm5.38-1.22a7.26,7.26,0,0,1-1.94,3.31,7.12,7.12,0,0,0,2.45,1.15,3.3,3.3,0,0,0-.6.79,7.09,7.09,0,0,1-2.57-1.35,8.61,8.61,0,0,1-2.74,1.33,3.67,3.67,0,0,0-.5-.83,8.17,8.17,0,0,0,2.57-1.14,8.1,8.1,0,0,1-1.55-2.58l.13,0h-.4v-.85h2.06V276h-2.24v-.85h2.24v-1.5h.92v1.5h2.3V276h-2.3v1.37h1.41l.16,0Zm-4,.64a6.38,6.38,0,0,0,1.34,2.06,5.82,5.82,0,0,0,1.46-2.06Z" fill="#002a5e"/>
      </g>
      <g>
        <g>
          <path d="M72,252.35l2.29,3.22-7.07,5L65,257.39a4.34,4.34,0,0,1,7.07-5Z" fill="#fff" stroke="#002a5e" stroke-miterlimit="10" stroke-width="0.5"/>
          <path d="M74.32,255.57l2.29,3.21a4.34,4.34,0,0,1-7.06,5l-2.3-3.21Z" fill="#002a5e" stroke="#002a5e" stroke-miterlimit="10" stroke-width="0.5"/>
        </g>
        <rect x="82.9" y="236.14" width="24.13" height="32.54" fill="#fff" stroke="#002a5e" stroke-miterlimit="10" stroke-width="0.5"/>
        <g>
          <circle cx="78.78" cy="261.76" r="3.87" fill="#fff" stroke="#002a5e" stroke-miterlimit="10" stroke-width="0.5"/>
          <line x1="75.84" y1="259.25" x2="81.53" y2="264.47" fill="none" stroke="#002a5e" stroke-miterlimit="10" stroke-width="0.5"/>
        </g>
        <g>
          <circle cx="77.6" cy="251.87" r="2.54" fill="#fff" stroke="#002a5e" stroke-miterlimit="10" stroke-width="0.5"/>
          <line x1="75.68" y1="250.22" x2="79.41" y2="253.65" fill="none" stroke="#002a5e" stroke-miterlimit="10" stroke-width="0.5"/>
        </g>
        <g>
          <line x1="87.26" y1="251.87" x2="102.66" y2="251.87" fill="#fff" stroke="#002a5e" stroke-miterlimit="10" stroke-width="0.5"/>
          <line x1="87.26" y1="255.69" x2="102.66" y2="255.69" fill="#fff" stroke="#002a5e" stroke-miterlimit="10" stroke-width="0.5"/>
          <line x1="87.26" y1="259.51" x2="102.66" y2="259.51" fill="#fff" stroke="#002a5e" stroke-miterlimit="10" stroke-width="0.5"/>
          <line x1="87.26" y1="263.33" x2="102.66" y2="263.33" fill="#fff" stroke="#002a5e" stroke-miterlimit="10" stroke-width="0.5"/>
        </g>
        <polygon points="99.23 241.8 96.67 241.8 96.67 239.24 92.72 239.24 92.72 241.8 90.16 241.8 90.16 245.75 92.72 245.75 92.72 248.31 96.67 248.31 96.67 245.75 99.23 245.75 99.23 241.8" fill="#002a5e" stroke="#002a5e" stroke-miterlimit="10" stroke-width="0.5"/>
        <g>
          <line x1="125.58" y1="240.11" x2="129.63" y2="243.11" fill="#fff" stroke="#002a5e" stroke-miterlimit="10" stroke-width="0.5"/>
          <g>
            <line x1="111.85" y1="262.84" x2="109" y2="266.69" fill="#fff" stroke="#002a5e" stroke-miterlimit="10" stroke-width="0.5"/>
            <rect x="123.77" y="240.8" width="2.7" height="8.47" transform="translate(170.25 -26.37) rotate(36.49)" fill="#002a5e" stroke="#002a5e" stroke-miterlimit="10" stroke-width="0.5"/>
            <rect x="110.79" y="258.92" width="4.19" height="5.29" transform="translate(177.68 -15.85) rotate(36.49)" fill="#002a5e" stroke="#002a5e" stroke-miterlimit="10" stroke-width="0.5"/>
            <rect x="116.22" y="243.07" width="5.69" height="20.28" transform="translate(173.92 -21.17) rotate(36.49)" fill="#fff" stroke="#002a5e" stroke-miterlimit="10" stroke-width="0.5"/>
            <line x1="119.94" y1="247.67" x2="122" y2="249.19" fill="#fff" stroke="#002a5e" stroke-miterlimit="10" stroke-width="0.5"/>
            <line x1="114.55" y1="254.95" x2="116.61" y2="256.48" fill="#fff" stroke="#002a5e" stroke-miterlimit="10" stroke-width="0.5"/>
            <line x1="117.18" y1="251.4" x2="119.93" y2="253.43" fill="#fff" stroke="#002a5e" stroke-miterlimit="10" stroke-width="0.5"/>
            <line x1="121.61" y1="242.47" x2="128.59" y2="247.64" fill="#fff" stroke="#002a5e" stroke-miterlimit="10" stroke-width="0.5"/>
          </g>
        </g>
        <g>
          <circle cx="84.75" cy="258.82" r="3.87" fill="#fff" stroke="#002a5e" stroke-miterlimit="10" stroke-width="0.5"/>
          <line x1="82.06" y1="261.59" x2="87.64" y2="256.24" fill="#fff" stroke="#002a5e" stroke-miterlimit="10" stroke-width="0.5"/>
        </g>
      </g>
    </g>
    <g>
      <circle cx="275.82" cy="153.06" r="29.23" fill="#f8a908" stroke="#002a5e" stroke-miterlimit="10" stroke-width="0.5"/>
      <g>
        <path d="M268.26,169.22a10.65,10.65,0,0,0,1.73-.12c0,.24.09.67.14.88a11.17,11.17,0,0,1-1.9.1h-4.18c-1.63,0-2.39-.51-2.39-2.12v-5.4h-.4v-.82h8.38v.82h-7.07V168c0,.85.34,1.19,1.39,1.19ZM263.21,166h2.65v2.61h-2.65Zm.76,1.95h1.09v-1.29H264ZM268,165.4h-3.77v-2.27H268Zm-.92-1.64h-2v1h2Zm2.05,4.82h-2.73V166h2.73Zm-.81-2h-1.15v1.29h1.15Z" fill="#002a5e"/>
        <path d="M274.38,168c-1.06.45-2.2.91-3.08,1.26l-.29-.95c.36-.11.8-.27,1.29-.45V164.6h-1.13v-.88h1.13v-2.27h.87v2.27h1v.88h-1v2.94l1-.39Zm5,1.64c.25,0,.3-.11.33-.72a2,2,0,0,0,.72.31c-.09.91-.32,1.16-1,1.16h-1.29c-.88,0-1.09-.23-1.09-1.07v-2.87h-.55c-.14,1.82-.51,3.26-2.09,4.08a2.62,2.62,0,0,0-.54-.7c1.38-.65,1.67-1.87,1.79-3.38h-1.1v-4.12h1a10.6,10.6,0,0,0,.31-1l1,.13a9.39,9.39,0,0,1-.42.9h3.35v4.12h-2v2.86c0,.29.06.33.39.33Zm-4-5.61h1.38v-1h-1.38Zm0,1.67h1.38v-1h-1.38Zm3.58-2.62h-1.37v1h1.37Zm0,1.66h-1.37v1h1.37Zm.81,4.23c0-.09-.06-.2-.1-.3a7.52,7.52,0,0,0-1.62.25,4,4,0,0,0-.21-.57c.11,0,.21-.13.29-.29a5.1,5.1,0,0,0,.53-1.4l.59.18a8.69,8.69,0,0,1-.65,1.44l.88-.08c-.11-.26-.22-.52-.33-.75l.44-.17a13.38,13.38,0,0,1,.65,1.47Z" fill="#002a5e"/>
        <path d="M284.33,169.42l-3.05.78-.21-.83,1.36-.29v-2.81h-1.21v-.76h1.21v-.94h-.73v-.5a5.29,5.29,0,0,1-.41.41,4.61,4.61,0,0,0-.36-.8,6.83,6.83,0,0,0,1.74-2.41l.7.23a3.82,3.82,0,0,1-.21.46,7,7,0,0,1,1.3,1.2l-.35.72a7.71,7.71,0,0,0-1.32-1.28,8.71,8.71,0,0,1-.87,1.23h2v.74h-.85v.94h1.1v.76h-1.1v2.67l1.14-.27Zm-2.45-2.66a12.45,12.45,0,0,1,.35,1.81l-.57.17a11.87,11.87,0,0,0-.31-1.83Zm1.33,1.69a17,17,0,0,0,.35-1.81l.63.2c-.17.6-.33,1.31-.47,1.77Zm3-2.33a11.49,11.49,0,0,1-.46,2.24c.49,1.06,1.36,1.25,2.54,1.25.59,0,1.44,0,2-.09a2.73,2.73,0,0,0-.25.81c-.53,0-1.21,0-1.81,0-1.3,0-2.2-.21-2.8-1.19a4.89,4.89,0,0,1-.87,1.37A2.57,2.57,0,0,0,284,170a5.87,5.87,0,0,0,1.34-3.22h-.29a.88.88,0,0,0-.53.15,5.29,5.29,0,0,0-.29-.73.58.58,0,0,0,.38-.3,13.07,13.07,0,0,0,.58-1.47h-.86v-.79h1.14l.19-.08.54.16c-.21.54-.59,1.59-.91,2.29h.42l.14,0Zm-.93-2.85a12.09,12.09,0,0,0-.83-1.57l.7-.25A12.63,12.63,0,0,1,286,163Zm2.41-.35h-1.5v-.73h1.5v-.87h.79v.87h1.45v.73h-1.45v.66h1.29v3.2h-1.27v.69h1.47v.73h-1.47v1.17h-.79V168.2h-1.55v-.73h1.55v-.69h-1.29v-3.2h1.27Zm-.63,2h.76v-.7H287Zm0,1.29h.76v-.71H287Zm2.05-2h-.75v.7h.75Zm0,1.28h-.75v.71h.75Z" fill="#002a5e"/>
      </g>
      <g>
        <g>
          <polyline points="274.75 142.84 261.47 142.84 256.64 140.22" fill="none" stroke="#002a5e" stroke-miterlimit="10" stroke-width="0.5"/>
          <polyline points="274.82 148.91 261.55 148.91 256.72 151.53" fill="none" stroke="#002a5e" stroke-miterlimit="10" stroke-width="0.5"/>
          <line x1="274.83" y1="145.96" x2="252.36" y2="145.96" fill="none" stroke="#002a5e" stroke-miterlimit="10" stroke-width="0.5"/>
          <circle cx="252.36" cy="145.96" r="1.86" fill="#002a5e" stroke="#002a5e" stroke-miterlimit="10" stroke-width="0.5"/>
          <circle cx="256.95" cy="151.32" r="1.86" fill="#fff" stroke="#002a5e" stroke-miterlimit="10" stroke-width="0.5"/>
          <circle cx="256.64" cy="140.22" r="1.86" fill="#fff" stroke="#002a5e" stroke-miterlimit="10" stroke-width="0.5"/>
        </g>
        <g>
          <polyline points="276.51 142.84 289.79 142.84 294.61 140.22" fill="none" stroke="#002a5e" stroke-miterlimit="10" stroke-width="0.5"/>
          <polyline points="276.43 148.91 289.71 148.91 294.54 151.53" fill="none" stroke="#002a5e" stroke-miterlimit="10" stroke-width="0.5"/>
          <line x1="276.43" y1="145.96" x2="298.9" y2="145.96" fill="none" stroke="#002a5e" stroke-miterlimit="10" stroke-width="0.5"/>
          <circle cx="298.9" cy="145.96" r="1.86" fill="#002a5e" stroke="#002a5e" stroke-miterlimit="10" stroke-width="0.5"/>
          <circle cx="294.31" cy="151.32" r="1.86" fill="#fff" stroke="#002a5e" stroke-miterlimit="10" stroke-width="0.5"/>
          <circle cx="294.61" cy="140.22" r="1.86" fill="#fff" stroke="#002a5e" stroke-miterlimit="10" stroke-width="0.5"/>
        </g>
        <g>
          <polyline points="272.59 136.24 272.59 122.96 269.97 118.14" fill="none" stroke="#002a5e" stroke-miterlimit="10" stroke-width="0.5"/>
          <polyline points="278.66 136.32 278.66 123.04 281.29 118.22" fill="none" stroke="#002a5e" stroke-miterlimit="10" stroke-width="0.5"/>
          <line x1="275.72" y1="136.32" x2="275.72" y2="113.85" fill="none" stroke="#002a5e" stroke-miterlimit="10" stroke-width="0.5"/>
          <circle cx="275.72" cy="113.85" r="1.86" fill="#002a5e" stroke="#002a5e" stroke-miterlimit="10" stroke-width="0.5"/>
          <circle cx="281.07" cy="118.44" r="1.86" fill="#fff" stroke="#002a5e" stroke-miterlimit="10" stroke-width="0.5"/>
          <circle cx="269.97" cy="118.14" r="1.86" fill="#fff" stroke="#002a5e" stroke-miterlimit="10" stroke-width="0.5"/>
        </g>
        <g>
          <path d="M284,136.69h-2.3a6.24,6.24,0,0,0-12.48,0H267a8.54,8.54,0,0,1,17.08,0Z" fill="#fff" stroke="#002a5e" stroke-miterlimit="10" stroke-width="0.5"/>
          <rect x="265.56" y="136.18" width="19.92" height="18.72" fill="#fff" stroke="#002a5e" stroke-miterlimit="10" stroke-width="0.5"/>
          <circle cx="275.63" cy="146.15" r="1.87" fill="#002a5e"/>
          <rect x="275.05" y="146.15" width="1.16" height="8.76" fill="#002a5e"/>
        </g>
      </g>
    </g>
    <g>
      <circle cx="239.3" cy="269" r="29.23" fill="#f8a908" stroke="#002a5e" stroke-miterlimit="10" stroke-width="0.5"/>
      <g>
        <path d="M221.52,277.93a9.6,9.6,0,0,1-1,4.86,2.87,2.87,0,0,0-.74-.51,8.35,8.35,0,0,0,.9-4.36V275.6h3.12v-1.93h.92v.7h3.37v.7h-3.37v.53h3.19l.15,0,.65.17a11.55,11.55,0,0,1-.56,1.61l-.78-.22a7.45,7.45,0,0,0,.25-.79h-3v.61l2.45-.2,0,.63-2.49.21v.08c0,.28.06.39.41.39h2.11a5.85,5.85,0,0,0,1.09-.08c0,.25,0,.52.08.72a6.34,6.34,0,0,1-1.1.06H225c-1,0-1.22-.31-1.22-1.09l-1.74.15-.05-.65,1.79-.15v-.68h-2.21Zm4.68,3.82h2.48v.79h-7.35v-.79h2.36v-.67h-1.63v-1.87h.72v1.19h.91v-1.34h.79v2.69h.92v-2.69h.8v1.34h.94v-1.19h.73v1.87H226.2Z" fill="#002a5e"/>
        <path d="M234.15,280.24c0,.11-.06.22-.08.33a7.38,7.38,0,0,1,.93.93l-.49.6a6.79,6.79,0,0,0-.72-.8,4.08,4.08,0,0,1-1.37,1.55,2.72,2.72,0,0,0-.54-.53,3.18,3.18,0,0,0,1.51-2.08h-1.27v-.74h1.36v-1h-.33a4.48,4.48,0,0,1-.47.93,4.47,4.47,0,0,0-.6-.4,3.64,3.64,0,0,0,.23-.39l-.78.3v2.92c0,.45-.09.69-.33.82a2.6,2.6,0,0,1-1.23.17,2.79,2.79,0,0,0-.24-.82h.82c.12,0,.16,0,.16-.16v-2.61l-.87.32-.24-.89,1.11-.38v-1.8h-1v-.86h1v-1.95h.82v1.95h.72v.86h-.72V278l.73-.27.14.7a6.63,6.63,0,0,0,.44-1.53l.69.15c-.05.23-.09.47-.15.7h1.7v.72h-.85v1h1v.74Zm-.71-3.41c-.78,0-1-.3-1-1.09v-2.06h.76v.87h1.67v.69h-1.67v.51c0,.29.05.38.24.38h1a3.83,3.83,0,0,0,.6-.05c0,.2,0,.51.08.69a2.47,2.47,0,0,1-.66.06Zm3.92,5.09a2.55,2.55,0,0,0,.56,0H239a2.7,2.7,0,0,0-.23.73h-.9a2,2,0,0,1-2.05-1.15,4,4,0,0,1-.7,1.32,3.12,3.12,0,0,0-.58-.43c.74-.83.92-2.12,1-3.72l.71,0a14.86,14.86,0,0,1-.15,1.74,2.34,2.34,0,0,0,.58,1.05V278H235.2v-.75h2.37a14.4,14.4,0,0,0-2-1.51l.53-.51.73.46a7.93,7.93,0,0,0,.73-1h-2.21V274h2.71l.14-.05.53.36a9,9,0,0,1-1.3,1.8,9,9,0,0,1,.72.58l-.53.57h.63l.11,0,.45.12a17.5,17.5,0,0,1-.39,1.76l-.56-.15c.06-.25.13-.6.18-.95h-.67v1.47h1.25v.75h-1.25Z" fill="#002a5e"/>
        <path d="M248.8,276.45v.68h-1.72L247,278h-5.71l.11-.84h-1.58v-.68h1.67l.1-.8h5.63l-.08.8Zm-3.06,5c1,.26,2.06.57,2.74.8l-.63.59a31.66,31.66,0,0,0-3-1l.39-.43h-2l.59.39a11.35,11.35,0,0,1-3.29,1,6.61,6.61,0,0,0-.5-.64,12.4,12.4,0,0,0,2.86-.74h-1.71v-3.16h6.37v3.16ZM241,276.16h-.84v-1.65h3.73a5.45,5.45,0,0,0-.37-.68l.8-.23a4.45,4.45,0,0,1,.54.91h3.65v1.65h-.88v-.91H241Zm1.07,3.06h4.53v-.38H242Zm0,.87h4.53v-.39H242Zm0,.89h4.53v-.4H242Zm.14-3.51h1.63c0-.14,0-.28.05-.43h-1.63Zm.17-1.31,0,.38h1.61l0-.38Zm3.85,1.31,0-.43h-1.61c0,.15,0,.3,0,.43Zm.11-1.31h-1.59l0,.38h1.6Z" fill="#002a5e"/>
        <path d="M252.92,280.41c-1,.42-2.11.85-3,1.18l-.31-.94c.34-.11.75-.24,1.2-.4V277h-1v-.88h1V273.8h.91v2.27h.91V277h-.91v3l1-.36ZM257.6,282l.29,0a.31.31,0,0,0,.14-.21,5.71,5.71,0,0,0,.05-.8,2.65,2.65,0,0,0,.73.38,3.7,3.7,0,0,1-.13.95.68.68,0,0,1-.39.34,2,2,0,0,1-.61.08H257a1.21,1.21,0,0,1-.71-.2c-.18-.14-.25-.32-.25-.88v-1.35h-.81c-.18,1.37-.68,2.15-2.52,2.61a2.15,2.15,0,0,0-.48-.73c1.58-.31,2-.85,2.11-1.88h-.93v-2.9H258v2.9h-1.12v1.4c0,.14,0,.23.07.26a.34.34,0,0,0,.22.05Zm.95-5H253v-.78h1.32c-.07-.25-.17-.57-.27-.83l.75-.17a5.49,5.49,0,0,1,.34.95l-.19.05h1.41c.12-.31.28-.69.36-1l.85.17c-.14.28-.26.56-.39.81h1.39Zm-.26-1.83h-5v-.77h2.05c-.07-.2-.14-.4-.22-.57l.86-.17a5.33,5.33,0,0,1,.32.74h2Zm-4,3.41h2.87V278h-2.87Zm0,1.14h2.87v-.56h-2.87Z" fill="#002a5e"/>
      </g>
      <g>
        <g>
          <g>
            <ellipse cx="231.7" cy="250.94" rx="21.43" ry="5.76" transform="translate(-109.58 237.34) rotate(-45)" fill="none" stroke="#002a5e" stroke-miterlimit="10" stroke-width="0.5"/>
            <ellipse cx="232.78" cy="250.94" rx="5.76" ry="21.43" transform="translate(-109.26 238.1) rotate(-45)" fill="none" stroke="#002a5e" stroke-miterlimit="10" stroke-width="0.5"/>
          </g>
          <circle cx="222.72" cy="236.61" r="1.24" fill="#002a5e" stroke="#002a5e" stroke-miterlimit="10" stroke-width="0.5"/>
          <circle cx="221.87" cy="247.51" r="1.24" fill="#fff" stroke="#002a5e" stroke-miterlimit="10" stroke-width="0.5"/>
          <circle cx="217.9" cy="259.36" r="1.24" fill="#002a5e" stroke="#002a5e" stroke-miterlimit="10" stroke-width="0.5"/>
          <circle cx="223.96" cy="264.42" r="1.24" fill="#fff" stroke="#002a5e" stroke-miterlimit="10" stroke-width="0.5"/>
          <circle cx="240.64" cy="264.75" r="1.24" fill="#fff" stroke="#002a5e" stroke-miterlimit="10" stroke-width="0.5"/>
          <circle cx="246.41" cy="235.35" r="1.26" fill="#fff" stroke="#002a5e" stroke-miterlimit="10" stroke-width="0.5"/>
          <circle cx="244.67" cy="243.93" r="1.24" fill="#fff" stroke="#002a5e" stroke-miterlimit="10" stroke-width="0.5"/>
        </g>
        <g>
          <rect x="229.53" y="252.74" width="3.62" height="5.88" rx="0.7" fill="#002a5e" stroke="#002a5e" stroke-miterlimit="10" stroke-width="0.5"/>
          <rect x="250.61" y="252.74" width="3.62" height="5.88" rx="0.7" fill="#002a5e" stroke="#002a5e" stroke-miterlimit="10" stroke-width="0.5"/>
          <g>
            <path d="M248.13,253.16H235.47a1.89,1.89,0,0,1-1.83-2.37l.4-1.5a1.89,1.89,0,0,1,1.82-1.41h11.87a1.89,1.89,0,0,1,1.83,1.41l.39,1.5A1.88,1.88,0,0,1,248.13,253.16Z" fill="#002a5e" stroke="#002a5e" stroke-miterlimit="10" stroke-width="0.5"/>
            <path d="M252.39,252.17v7.36a1.36,1.36,0,0,1-1.36,1.36h-6.81a1.36,1.36,0,0,1-1.18-.68h0a1.36,1.36,0,0,0-2.36,0h0a1.36,1.36,0,0,1-1.18.68h-6.8a1.36,1.36,0,0,1-1.36-1.36v-7.36a1.36,1.36,0,0,1,1.36-1.36H251A1.36,1.36,0,0,1,252.39,252.17Z" fill="#fff" stroke="#002a5e" stroke-miterlimit="10" stroke-width="0.5"/>
            <line x1="250.61" y1="254.37" x2="250.61" y2="253.02" fill="none" stroke="#002a5e" stroke-linecap="round" stroke-linejoin="round" stroke-width="0.5"/>
            <path d="M245.29,259.36h4.26a1.07,1.07,0,0,0,1.06-1.06v-1.92" fill="none" stroke="#002a5e" stroke-linecap="round" stroke-linejoin="round" stroke-width="0.5"/>
          </g>
        </g>
        <rect x="252.42" y="239.88" width="2.36" height="6.54" fill="#002a5e" stroke="#002a5e" stroke-miterlimit="10" stroke-width="0.5"/>
        <rect x="255.93" y="248.75" width="2.39" height="3.99" fill="#fff" stroke="#002a5e" stroke-miterlimit="10" stroke-width="0.5"/>
        <rect x="266.32" y="256.38" width="2.39" height="4.8" fill="#002a5e" stroke="#002a5e" stroke-miterlimit="10" stroke-width="0.5"/>
        <rect x="260.61" y="245.17" width="3.33" height="12.7" fill="#fff" stroke="#002a5e" stroke-miterlimit="10" stroke-width="0.5"/>
        <rect x="256.21" y="259.18" width="2.65" height="5.4" fill="#fff" stroke="#002a5e" stroke-miterlimit="10" stroke-width="0.5"/>
      </g>
    </g>
    <g>
      <circle cx="165.43" cy="67.81" r="29.23" fill="#f8a908" stroke="#002a5e" stroke-miterlimit="10" stroke-width="0.5"/>
      <g>
        <path d="M154.61,79.14c0,.53-.11.82-.48,1a5.6,5.6,0,0,1-1.81.16,3.47,3.47,0,0,0-.33-1c.61,0,1.26,0,1.44,0s.24-.06.24-.21v-2a4,4,0,0,0-.66.8,5,5,0,0,1-2.34-3A4.84,4.84,0,0,1,148.24,78a3.62,3.62,0,0,0-.57-.71v3h-.94v-7h3.58c0-.31-.07-.64-.1-1h-1.73v-.82H151a13.71,13.71,0,0,0,.18,1.79h3.41Zm-6.94-1.9a4.34,4.34,0,0,0,2.31-3h-2.31Zm3.73-3a4.22,4.22,0,0,0,2.27,2.92V74.22Z" fill="#002a5e"/>
        <path d="M161.33,74.41l-.17.26a10.15,10.15,0,0,0,4.07,2.56,2.64,2.64,0,0,0-.59.78q-.62-.27-1.17-.57v2.81h-.95V80h-3.78v.31h-.91V77.55a9.58,9.58,0,0,1-1.21.58,3.74,3.74,0,0,0-.59-.75,8.9,8.9,0,0,0,4.49-3.31Zm-4-.49h-.91V72h3.77c-.1-.25-.22-.51-.34-.74l1-.21a6,6,0,0,1,.47,1h3.48v1.94h-.94v-1.1h-6.49Zm2.41-.45a8.54,8.54,0,0,1-2.56,2.2,6.77,6.77,0,0,0-.64-.7,6.78,6.78,0,0,0,2.33-1.79Zm2.73,5.68v-1.4h-3.78v1.4Zm.09-2.22a9.88,9.88,0,0,1-2-1.63,9.41,9.41,0,0,1-1.81,1.63ZM162,73.19a15,15,0,0,1,2.55,1.86l-.67.61a14.05,14.05,0,0,0-2.52-2Z" fill="#002a5e"/>
        <path d="M174.66,75.76v3.32h-1v-.39h-2.55v1.59h-1V78.69h-2.47v.4h-1V75.76h3.44V75h-3V72.24h3V71.11h1v1.13h3.12V75h-3.12v.73Zm-4.55,2.1V76.62h-2.47v1.24Zm0-3.64V73.05H168v1.17Zm1-1.17v1.17h2.11V73.05Zm2.55,4.81V76.62h-2.55v1.24Z" fill="#002a5e"/>
        <path d="M177.88,75.72a7.32,7.32,0,0,0-1.83-1.1l.49-.7a8.3,8.3,0,0,1,1.86,1Zm1,1.26c-.53,1-1.19,2.23-1.79,3.18l-.78-.63a29.89,29.89,0,0,0,1.88-3.17Zm-.64-3.85a7.16,7.16,0,0,0-1.71-1.22l.52-.68a7.71,7.71,0,0,1,1.75,1.16Zm1.5,2.69h.84v1a3.94,3.94,0,0,1-1.44,3.41,2.89,2.89,0,0,0-.65-.61,3.19,3.19,0,0,0,1.25-2.82Zm4.72,0c-.12-.19-.29-.43-.48-.68-3.89.26-4.37.3-4.69.43a8.12,8.12,0,0,0-.3-.86c.22,0,.45-.29.74-.63a9.83,9.83,0,0,0,.68-.88h-1.5v-.84H181c.24-.4.5-.83.7-1.25l.91.36c-.17.3-.36.6-.54.89h3v.84h-3.61q-.56.75-1.11,1.38l3-.19c-.22-.26-.43-.51-.61-.75l.7-.4c.56.66,1.33,1.56,1.71,2.1Zm-3,.08h.82v3.95h-.82Zm3.24,3.44a1.74,1.74,0,0,0,.45-.06c0,.23,0,.53.07.72a1.59,1.59,0,0,1-.51.06h-.59c-.78,0-.93-.33-.93-1.13V75.82H184V79c0,.29,0,.39.15.39Z" fill="#002a5e"/>
      </g>
      <g>
        <g>
          <g>
            <rect x="161.39" y="58.12" width="6.55" height="3.55" fill="#002a5e" stroke="#002a5e" stroke-miterlimit="10" stroke-width="0.5"/>
            <rect x="149.42" y="38.83" width="30.78" height="20.55" rx="1.14" fill="#fff" stroke="#002a5e" stroke-miterlimit="10"/>
            <g>
              <path d="M158.05,64.68a1.26,1.26,0,0,1,0-2.52h13.52a1.26,1.26,0,1,1,0,2.52Z" fill="#002a5e"/>
              <path d="M171.57,62.41a1,1,0,1,1,0,2H158.05a1,1,0,0,1,0-2h13.52m0-.5H158.05a1.51,1.51,0,0,0,0,3h13.52a1.51,1.51,0,1,0,0-3Z" fill="#002a5e"/>
            </g>
            <rect x="149.42" y="55.57" width="30.78" height="3.81" rx="0.49" fill="#002a5e" stroke="#002a5e" stroke-miterlimit="10" stroke-width="0.5"/>
          </g>
          <circle cx="164.81" cy="48.08" r="5.14" fill="#002a5e" stroke="#002a5e" stroke-miterlimit="10" stroke-width="0.5"/>
          <polygon points="167.06 48.08 163.36 45.94 163.36 50.22 167.06 48.08" fill="#fff"/>
        </g>
        <g>
          <g>
            <rect x="178.53" y="43.65" width="14.7" height="24.68" rx="2.89" transform="translate(37.06 -68.66) rotate(23.19)" fill="#002a5e" stroke="#002a5e" stroke-miterlimit="10" stroke-width="0.5"/>
            <rect x="180.58" y="45.96" width="11.92" height="16.97" transform="translate(36.5 -69.05) rotate(23.19)" fill="#fff" stroke="#002a5e" stroke-miterlimit="10" stroke-width="0.5"/>
            <circle cx="182.18" cy="64.62" r="1.58" fill="#fff" stroke="#002a5e" stroke-miterlimit="10" stroke-width="0.5"/>
          </g>
          <polygon points="188.08 55.1 186.35 52.79 185.22 55.44 188.08 55.1" fill="#002a5e"/>
          <circle cx="186.55" cy="54.44" r="3.1" fill="none" stroke="#002a5e" stroke-miterlimit="10" stroke-width="0.5"/>
        </g>
        <g>
          <g>
            <rect x="140.78" y="42.25" width="11.04" height="21.97" rx="3.19" fill="#fff" stroke="#002a5e" stroke-miterlimit="10" stroke-width="0.5"/>
            <circle cx="146.3" cy="52.98" r="2.87" fill="#fff" stroke="#002a5e" stroke-miterlimit="10" stroke-width="0.5"/>
            <circle cx="146.3" cy="52.98" r="0.75" fill="#002a5e"/>
            <g>
              <circle cx="143.6" cy="44.98" r="0.79" fill="#002a5e"/>
              <circle cx="146.3" cy="44.98" r="0.79" fill="#002a5e"/>
              <circle cx="148.99" cy="44.98" r="0.79" fill="#002a5e"/>
            </g>
            <g>
              <circle cx="143.6" cy="47.7" r="0.79" fill="#002a5e"/>
              <circle cx="146.3" cy="47.7" r="0.79" fill="#002a5e"/>
              <circle cx="148.99" cy="47.7" r="0.79" fill="#002a5e"/>
            </g>
            <g>
              <circle cx="143.6" cy="58.26" r="0.79" fill="#002a5e"/>
              <circle cx="146.3" cy="58.26" r="0.79" fill="#002a5e"/>
              <circle cx="148.99" cy="58.26" r="0.79" fill="#002a5e"/>
            </g>
            <g>
              <circle cx="143.6" cy="61.03" r="0.79" fill="#002a5e"/>
              <circle cx="146.3" cy="61.03" r="0.79" fill="#002a5e"/>
              <circle cx="148.99" cy="61.03" r="0.79" fill="#002a5e"/>
            </g>
          </g>
          <g>
            <circle cx="146.24" cy="39.41" r="1.56" fill="#002a5e" stroke="#002a5e" stroke-miterlimit="10" stroke-width="0.5"/>
            <path d="M143.82,37a3.44,3.44,0,0,1,2.43-1,3.32,3.32,0,0,1,2.42,1" fill="none" stroke="#002a5e" stroke-linecap="round" stroke-miterlimit="10" stroke-width="0.5"/>
            <path d="M142.42,35.58a5.42,5.42,0,0,1,7.65,0" fill="none" stroke="#002a5e" stroke-linecap="round" stroke-miterlimit="10" stroke-width="0.5"/>
            <path d="M141,34.13a7.46,7.46,0,0,1,10.54,0" fill="none" stroke="#002a5e" stroke-linecap="round" stroke-miterlimit="10" stroke-width="0.5"/>
          </g>
        </g>
      </g>
    </g>
    <g>
      <g>
        <circle cx="54.6" cy="153.06" r="29.23" fill="#f8a908" stroke="#002a5e" stroke-miterlimit="10" stroke-width="0.5"/>
        <g>
          <path d="M48.2,169.45c.37,0,.43-.26.47-1.74a3,3,0,0,0,.87.4c-.1,1.73-.34,2.22-1.27,2.22H46.94c-1,0-1.25-.31-1.25-1.29V165.7H44c-.18,2.11-.63,3.84-3,4.78a2.44,2.44,0,0,0-.58-.75c2.09-.78,2.43-2.27,2.57-4H40.58v-.9h8.79v.9H46.65V169c0,.36.06.42.42.42Zm.3-6.49h-7v-.9h7Z" fill="#002a5e"/>
          <path d="M51.59,164.57h-.91v-2.23h3.81a7.2,7.2,0,0,0-.34-.74l.93-.26a6.61,6.61,0,0,1,.49,1h3.65v2.23h-1V163.2H51.59Zm7.65,2.77H55.51v2c0,.56-.15.82-.56,1a6.32,6.32,0,0,1-1.92.16,3.75,3.75,0,0,0-.39-.93c.68,0,1.41,0,1.62,0s.26,0,.26-.22v-2H50.7v-.89h3.82v-1.37H52.1v-.86h5.66v.86H55.51v1.37h3.73Z" fill="#002a5e"/>
          <path d="M69.1,162.41v2.21h-.95v-1.35H61.74v1.35h-.91v-2.21h3.72a8.09,8.09,0,0,0-.42-.89l1-.29a8.46,8.46,0,0,1,.57,1.18Zm-3.7,2.67h3v5.4h-.94v-.43h-5v.43h-.9v-5.4h2.9v-1.42h.92Zm-2.92.85v1.19h2v-1.19Zm0,3.26h2v-1.27h-2Zm2.92-3.26v1.19h2.07v-1.19Zm2.07,3.26v-1.27H65.4v1.27Z" fill="#002a5e"/>
        </g>
        <g>
          <g>
            <polyline points="40.98 120.63 20.7 134.25 27.42 151.01 90 140.66 40.98 120.63 71.45 152.7 27.42 151.01 16.11 157.59" fill="none" stroke="#002a5e" stroke-miterlimit="10" stroke-width="0.5"/>
            <polyline points="87.92 138.19 91.55 158.56 70.14 152.7" fill="none" stroke="#002a5e" stroke-miterlimit="10" stroke-width="0.5"/>
          </g>
          <g>
            <rect x="87.92" y="154.6" width="5.99" height="5.99" fill="#fff" stroke="#002a5e" stroke-miterlimit="10" stroke-width="0.5"/>
            <rect x="24.06" y="145.06" width="8" height="8" fill="#fff" stroke="#002a5e" stroke-miterlimit="10" stroke-width="0.5"/>
            <rect x="86.55" y="137.97" width="4.54" height="4.54" fill="#002a5e" stroke="#002a5e" stroke-miterlimit="10" stroke-width="0.5"/>
            <rect x="65.98" y="148.42" width="6.85" height="6.85" fill="#002a5e" stroke="#002a5e" stroke-miterlimit="10" stroke-width="0.5"/>
            <rect x="38.04" y="117.24" width="5.89" height="5.89" fill="#fff" stroke="#002a5e" stroke-miterlimit="10" stroke-width="0.5"/>
            <rect x="14.82" y="155.02" width="4.71" height="4.71" fill="#fff" stroke="#002a5e" stroke-miterlimit="10" stroke-width="0.5"/>
            <rect x="17.69" y="131.24" width="6.03" height="6.03" fill="#002a5e" stroke="#002a5e" stroke-miterlimit="10" stroke-width="0.5"/>
          </g>
        </g>
        <g>
          <path d="M54.24,134.37a48.66,48.66,0,0,1-5.9,5.3,50,50,0,0,1-6.61,4.4,8.24,8.24,0,0,1-3-3.91,7.09,7.09,0,0,1-.37-1.26,8.29,8.29,0,0,1,12.88-8.44A8.08,8.08,0,0,1,54.24,134.37Z" fill="#fff" stroke="#002a5e" stroke-miterlimit="10" stroke-width="0.5"/>
          <path d="M54.61,135.62a8.3,8.3,0,0,1-12.88,8.45,50,50,0,0,0,6.61-4.4,48.66,48.66,0,0,0,5.9-5.3A6.25,6.25,0,0,1,54.61,135.62Z" fill="#fff" stroke="#002a5e" stroke-miterlimit="10" stroke-width="0.5"/>
          <path d="M38.71,140.16a8.24,8.24,0,0,0,3,3.91c-3,1.63-5.31,2.27-5.94,1.46S36.36,142.66,38.71,140.16Z" fill="none" stroke="#002a5e" stroke-miterlimit="10" stroke-width="0.5"/>
          <path d="M54.24,134.37a8.08,8.08,0,0,0-3-3.91c3-1.64,5.32-2.27,6-1.47S56.59,131.86,54.24,134.37Z" fill="none" stroke="#002a5e" stroke-miterlimit="10" stroke-width="0.5"/>
        </g>
        <circle cx="53.3" cy="151.85" r="1.37" fill="#fff" stroke="#002a5e" stroke-miterlimit="10" stroke-width="0.5"/>
        <g>
          <path d="M78.14,135.54c-.13.17-.28.35-.43.51a5.94,5.94,0,0,1-.52.49,6.61,6.61,0,0,1-3.45,1.57h0a6.36,6.36,0,0,1-.86.07,6.66,6.66,0,0,1-5.78-10,3.56,3.56,0,0,1,.31-.48c0-.07.09-.13.13-.19a4.49,4.49,0,0,1,.69-.75,2.47,2.47,0,0,1,.45-.4A6.34,6.34,0,0,1,71.56,125,6.65,6.65,0,0,1,79,134.08a2.84,2.84,0,0,1-.25.53A5.73,5.73,0,0,1,78.14,135.54Z" fill="#002a5e"/>
          <g>
            <path d="M70.56,128.14a25.33,25.33,0,0,0-2.34-1.42,2.47,2.47,0,0,1,.45-.4,22.08,22.08,0,0,1,2.21,1.34c2.28,1.56,4.5,3,5.38,2.7.13,0,.3-.12.43-.45s-.1-1.11-3.47-2.87a6.88,6.88,0,0,1-2.29-1.92,6.42,6.42,0,0,1,.63-.15,6.8,6.8,0,0,0,1.92,1.55c3.23,1.68,4.18,2.59,3.75,3.63a1.31,1.31,0,0,1-.8.78C75.49,131.2,74,130.47,70.56,128.14Z" fill="#fff"/>
            <path d="M76.15,133.42a47.16,47.16,0,0,1-9.06-5.28,3.56,3.56,0,0,1,.31-.48,47.69,47.69,0,0,0,9,5.23c.21.1.47.22.76.33.55.24,1.2.52,1.81.86a2.84,2.84,0,0,1-.25.53,17.58,17.58,0,0,0-1.79-.84C76.63,133.64,76.36,133.53,76.15,133.42Z" fill="#fff"/>
            <path d="M68.77,132.62c-.25.26-.19.88.43,1.57a48.08,48.08,0,0,0,4.53,3.91,6.36,6.36,0,0,1-.86.07,44.19,44.19,0,0,1-4.11-3.6c-.9-1-.84-1.94-.39-2.36s1.55-.58,3,.73a13.24,13.24,0,0,0,6.33,3.11,5.94,5.94,0,0,1-.52.49,13.45,13.45,0,0,1-6.2-3.16C69.91,132.41,69.08,132.31,68.77,132.62Z" fill="#fff"/>
          </g>
        </g>
      </g>
      <circle cx="30.69" cy="127.66" r="1.37" fill="#fff" stroke="#002a5e" stroke-miterlimit="10" stroke-width="0.5"/>
      <circle cx="90" cy="149.8" r="1.37" fill="#fff" stroke="#002a5e" stroke-miterlimit="10" stroke-width="0.5"/>
    </g>
  </g>
</svg>
