<svg xmlns="http://www.w3.org/2000/svg" viewBox="0 0 329 270"><g id="動畫8"><circle cx="93.13" cy="238.91" r="29.23" fill="#f8a908" stroke="#002a5e" stroke-miterlimit="10" stroke-width="0.5"/><text transform="translate(71.06 252.85)" font-size="11" fill="#002a5e" font-family="SourceHanSansTW-Medium-B5pc-H, Source Han Sans TW">醫療科技</text><path d="M71.81,222.26l2.29,3.22-7.07,5-2.29-3.21a4.35,4.35,0,0,1,1-6.06,4.36,4.36,0,0,1,6,1Z" fill="#fff" stroke="#002a5e" stroke-miterlimit="10" stroke-width="0.5"/><path d="M74.1,225.48l2.29,3.21a4.34,4.34,0,1,1-7.06,5L67,230.52Z" fill="#002a5e" stroke="#002a5e" stroke-miterlimit="10" stroke-width="0.5"/><rect x="82.68" y="206.06" width="24.13" height="32.54" fill="#fff" stroke="#002a5e" stroke-miterlimit="10" stroke-width="0.5"/><circle cx="78.56" cy="231.67" r="3.87" fill="#fff" stroke="#002a5e" stroke-miterlimit="10" stroke-width="0.5"/><line x1="75.62" y1="229.16" x2="81.31" y2="234.39" fill="none" stroke="#002a5e" stroke-miterlimit="10" stroke-width="0.5"/><circle cx="77.38" cy="221.78" r="2.54" fill="#fff" stroke="#002a5e" stroke-miterlimit="10" stroke-width="0.5"/><line x1="75.45" y1="220.13" x2="79.19" y2="223.56" fill="none" stroke="#002a5e" stroke-miterlimit="10" stroke-width="0.5"/><line x1="87.04" y1="221.78" x2="102.44" y2="221.78" fill="#fff" stroke="#002a5e" stroke-miterlimit="10" stroke-width="0.5"/><line x1="87.04" y1="225.6" x2="102.44" y2="225.6" fill="#fff" stroke="#002a5e" stroke-miterlimit="10" stroke-width="0.5"/><line x1="87.04" y1="229.42" x2="102.44" y2="229.42" fill="#fff" stroke="#002a5e" stroke-miterlimit="10" stroke-width="0.5"/><line x1="87.04" y1="233.24" x2="102.44" y2="233.24" fill="#fff" stroke="#002a5e" stroke-miterlimit="10" stroke-width="0.5"/><polygon points="99.01 211.71 96.45 211.71 96.45 209.15 92.5 209.15 92.5 211.71 89.94 211.71 89.94 215.66 92.5 215.66 92.5 218.22 96.45 218.22 96.45 215.66 99.01 215.66 99.01 211.71" fill="#002a5e" stroke="#002a5e" stroke-miterlimit="10" stroke-width="0.5"/><line x1="125.36" y1="210.02" x2="129.41" y2="213.02" fill="#fff" stroke="#002a5e" stroke-miterlimit="10" stroke-width="0.5"/><line x1="111.63" y1="232.75" x2="108.78" y2="236.61" fill="#fff" stroke="#002a5e" stroke-miterlimit="10" stroke-width="0.5"/><rect x="123.55" y="210.71" width="2.7" height="8.47" transform="translate(152.31 -32.13) rotate(36.49)" fill="#002a5e" stroke="#002a5e" stroke-miterlimit="10" stroke-width="0.5"/><rect x="110.57" y="228.83" width="4.19" height="5.29" transform="translate(159.75 -21.62) rotate(36.49)" fill="#002a5e" stroke="#002a5e" stroke-miterlimit="10" stroke-width="0.5"/><rect x="116" y="212.98" width="5.69" height="20.28" transform="translate(155.99 -26.94) rotate(36.49)" fill="#fff" stroke="#002a5e" stroke-miterlimit="10" stroke-width="0.5"/><line x1="119.72" y1="217.58" x2="121.78" y2="219.1" fill="#fff" stroke="#002a5e" stroke-miterlimit="10" stroke-width="0.5"/><line x1="114.33" y1="224.87" x2="116.39" y2="226.39" fill="#fff" stroke="#002a5e" stroke-miterlimit="10" stroke-width="0.5"/><line x1="116.96" y1="221.31" x2="119.71" y2="223.34" fill="#fff" stroke="#002a5e" stroke-miterlimit="10" stroke-width="0.5"/><line x1="121.39" y1="212.38" x2="128.37" y2="217.55" fill="#fff" stroke="#002a5e" stroke-miterlimit="10" stroke-width="0.5"/><circle cx="84.53" cy="228.73" r="3.87" fill="#fff" stroke="#002a5e" stroke-miterlimit="10" stroke-width="0.5"/><line x1="81.84" y1="231.5" x2="87.42" y2="226.15" fill="#fff" stroke="#002a5e" stroke-miterlimit="10" stroke-width="0.5"/><circle cx="275.6" cy="122.98" r="29.23" fill="#f8a908" stroke="#002a5e" stroke-miterlimit="10" stroke-width="0.5"/><text transform="translate(258.91 140.5)" font-size="11" fill="#002a5e" font-family="SourceHanSansTW-Medium-B5pc-H, Source Han Sans TW">區塊鏈</text><polyline points="274.53 112.75 261.25 112.75 256.42 110.13" fill="none" stroke="#002a5e" stroke-miterlimit="10" stroke-width="0.5"/><polyline points="274.61 118.82 261.33 118.82 256.5 121.45" fill="none" stroke="#002a5e" stroke-miterlimit="10" stroke-width="0.5"/><line x1="274.6" y1="115.88" x2="252.14" y2="115.88" fill="none" stroke="#002a5e" stroke-miterlimit="10" stroke-width="0.5"/><circle cx="252.14" cy="115.88" r="1.86" fill="#002a5e" stroke="#002a5e" stroke-miterlimit="10" stroke-width="0.5"/><circle cx="256.73" cy="121.23" r="1.86" fill="#fff" stroke="#002a5e" stroke-miterlimit="10" stroke-width="0.5"/><circle cx="256.42" cy="110.13" r="1.86" fill="#fff" stroke="#002a5e" stroke-miterlimit="10" stroke-width="0.5"/><polyline points="276.29 112.75 289.57 112.75 294.39 110.13" fill="none" stroke="#002a5e" stroke-miterlimit="10" stroke-width="0.5"/><polyline points="276.21 118.82 289.49 118.82 294.31 121.45" fill="none" stroke="#002a5e" stroke-miterlimit="10" stroke-width="0.5"/><line x1="276.21" y1="115.88" x2="298.68" y2="115.88" fill="none" stroke="#002a5e" stroke-miterlimit="10" stroke-width="0.5"/><circle cx="298.68" cy="115.88" r="1.86" fill="#002a5e" stroke="#002a5e" stroke-miterlimit="10" stroke-width="0.5"/><circle cx="294.09" cy="121.23" r="1.86" fill="#fff" stroke="#002a5e" stroke-miterlimit="10" stroke-width="0.5"/><circle cx="294.39" cy="110.13" r="1.86" fill="#fff" stroke="#002a5e" stroke-miterlimit="10" stroke-width="0.5"/><polyline points="272.37 106.15 272.37 92.87 269.75 88.05" fill="none" stroke="#002a5e" stroke-miterlimit="10" stroke-width="0.5"/><polyline points="278.44 106.23 278.44 92.95 281.06 88.13" fill="none" stroke="#002a5e" stroke-miterlimit="10" stroke-width="0.5"/><line x1="275.5" y1="106.23" x2="275.5" y2="83.76" fill="none" stroke="#002a5e" stroke-miterlimit="10" stroke-width="0.5"/><circle cx="275.5" cy="83.76" r="1.86" fill="#002a5e" stroke="#002a5e" stroke-miterlimit="10" stroke-width="0.5"/><circle cx="280.85" cy="88.35" r="1.86" fill="#fff" stroke="#002a5e" stroke-miterlimit="10" stroke-width="0.5"/><circle cx="269.75" cy="88.05" r="1.86" fill="#fff" stroke="#002a5e" stroke-miterlimit="10" stroke-width="0.5"/><path d="M283.82,106.6h-2.3a6.24,6.24,0,0,0-12.48,0h-2.3a8.54,8.54,0,0,1,17.08,0Z" fill="#fff" stroke="#002a5e" stroke-miterlimit="10" stroke-width="0.5"/><rect x="265.34" y="106.1" width="19.92" height="18.72" fill="#fff" stroke="#002a5e" stroke-miterlimit="10" stroke-width="0.5"/><circle cx="275.41" cy="116.06" r="1.87" fill="#002a5e"/><rect x="274.83" y="116.06" width="1.16" height="8.76" fill="#002a5e"/><circle cx="239.08" cy="238.91" r="29.23" fill="#f8a908" stroke="#002a5e" stroke-miterlimit="10" stroke-width="0.5"/><text transform="translate(217.08 252.85)" font-size="11" fill="#002a5e" font-family="SourceHanSansTW-Medium-B5pc-H, Source Han Sans TW">虛擬實境</text><ellipse cx="231.48" cy="220.85" rx="21.43" ry="5.76" transform="translate(-88.37 228.37) rotate(-45)" fill="none" stroke="#002a5e" stroke-miterlimit="10" stroke-width="0.5"/><ellipse cx="232.56" cy="220.85" rx="5.76" ry="21.43" transform="translate(-88.05 229.13) rotate(-45)" fill="none" stroke="#002a5e" stroke-miterlimit="10" stroke-width="0.5"/><circle cx="222.5" cy="206.52" r="1.24" fill="#002a5e" stroke="#002a5e" stroke-miterlimit="10" stroke-width="0.5"/><circle cx="221.65" cy="217.42" r="1.24" fill="#fff" stroke="#002a5e" stroke-miterlimit="10" stroke-width="0.5"/><circle cx="217.68" cy="229.27" r="1.24" fill="#002a5e" stroke="#002a5e" stroke-miterlimit="10" stroke-width="0.5"/><circle cx="223.74" cy="234.33" r="1.24" fill="#fff" stroke="#002a5e" stroke-miterlimit="10" stroke-width="0.5"/><circle cx="240.42" cy="234.66" r="1.24" fill="#fff" stroke="#002a5e" stroke-miterlimit="10" stroke-width="0.5"/><circle cx="246.19" cy="205.26" r="1.26" fill="#fff" stroke="#002a5e" stroke-miterlimit="10" stroke-width="0.5"/><circle cx="244.45" cy="213.84" r="1.24" fill="#fff" stroke="#002a5e" stroke-miterlimit="10" stroke-width="0.5"/><rect x="229.31" y="222.65" width="3.62" height="5.88" rx="0.7" fill="#002a5e" stroke="#002a5e" stroke-miterlimit="10" stroke-width="0.5"/><rect x="250.39" y="222.65" width="3.62" height="5.88" rx="0.7" fill="#002a5e" stroke="#002a5e" stroke-miterlimit="10" stroke-width="0.5"/><path d="M247.91,223.07H235.25a1.89,1.89,0,0,1-1.83-2.37l.4-1.5a1.88,1.88,0,0,1,1.82-1.4h11.87a1.88,1.88,0,0,1,1.83,1.4l.39,1.5A1.88,1.88,0,0,1,247.91,223.07Z" fill="#002a5e" stroke="#002a5e" stroke-miterlimit="10" stroke-width="0.5"/><path d="M252.17,222.08v7.36a1.36,1.36,0,0,1-1.36,1.36H244a1.36,1.36,0,0,1-1.18-.68h0a1.36,1.36,0,0,0-2.36,0h0a1.36,1.36,0,0,1-1.18.68h-6.8a1.36,1.36,0,0,1-1.36-1.36v-7.36a1.36,1.36,0,0,1,1.36-1.36h18.33A1.36,1.36,0,0,1,252.17,222.08Z" fill="#fff" stroke="#002a5e" stroke-miterlimit="10" stroke-width="0.5"/><line x1="250.39" y1="224.28" x2="250.39" y2="222.93" fill="none" stroke="#002a5e" stroke-linecap="round" stroke-linejoin="round" stroke-width="0.5"/><path d="M245.07,229.27h4.26a1.07,1.07,0,0,0,1.06-1.06v-1.92" fill="none" stroke="#002a5e" stroke-linecap="round" stroke-linejoin="round" stroke-width="0.5"/><rect x="252.2" y="209.79" width="2.36" height="6.54" fill="#002a5e" stroke="#002a5e" stroke-miterlimit="10" stroke-width="0.5"/><rect x="255.71" y="218.66" width="2.39" height="3.99" fill="#fff" stroke="#002a5e" stroke-miterlimit="10" stroke-width="0.5"/><rect x="266.1" y="226.29" width="2.39" height="4.8" fill="#002a5e" stroke="#002a5e" stroke-miterlimit="10" stroke-width="0.5"/><rect x="260.39" y="215.08" width="3.33" height="12.7" fill="#fff" stroke="#002a5e" stroke-miterlimit="10" stroke-width="0.5"/><rect x="255.99" y="229.1" width="2.65" height="5.4" fill="#fff" stroke="#002a5e" stroke-miterlimit="10" stroke-width="0.5"/><circle cx="165.21" cy="37.72" r="29.23" fill="#f8a908" stroke="#002a5e" stroke-miterlimit="10" stroke-width="0.5"/><text transform="translate(143.42 50.28)" font-size="11" fill="#002a5e" font-family="SourceHanSansTW-Medium-B5pc-H, Source Han Sans TW">內容串流</text><rect x="161.17" y="28.04" width="6.55" height="3.55" fill="#002a5e" stroke="#002a5e" stroke-miterlimit="10" stroke-width="0.5"/><rect x="149.2" y="8.74" width="30.78" height="20.55" rx="1.14" fill="#fff" stroke="#002a5e" stroke-miterlimit="10"/><path d="M157.83,34.59a1.26,1.26,0,0,1,0-2.52h13.52a1.26,1.26,0,1,1,0,2.52Z" fill="#002a5e"/><path d="M171.35,32.32a1,1,0,1,1,0,2H157.83a1,1,0,0,1,0-2h13.52m0-.5H157.83a1.51,1.51,0,0,0,0,3h13.52a1.51,1.51,0,1,0,0-3Z" fill="#002a5e"/><rect x="149.2" y="25.48" width="30.78" height="3.81" rx="0.49" fill="#002a5e" stroke="#002a5e" stroke-miterlimit="10" stroke-width="0.5"/><circle cx="164.59" cy="17.99" r="5.14" fill="#002a5e" stroke="#002a5e" stroke-miterlimit="10" stroke-width="0.5"/><polygon points="166.84 18 163.14 15.86 163.14 20.13 166.84 18" fill="#fff"/><rect x="178.31" y="13.56" width="14.7" height="24.68" rx="2.89" transform="translate(25.19 -71) rotate(23.19)" fill="#002a5e" stroke="#002a5e" stroke-miterlimit="10" stroke-width="0.5"/><rect x="180.36" y="15.87" width="11.92" height="16.97" transform="translate(24.64 -71.39) rotate(23.19)" fill="#fff" stroke="#002a5e" stroke-miterlimit="10" stroke-width="0.5"/><circle cx="181.96" cy="34.53" r="1.58" fill="#fff" stroke="#002a5e" stroke-miterlimit="10" stroke-width="0.5"/><polygon points="187.86 25.01 186.13 22.7 185 25.35 187.86 25.01" fill="#002a5e"/><circle cx="186.33" cy="24.36" r="3.1" fill="none" stroke="#002a5e" stroke-miterlimit="10" stroke-width="0.5"/><rect x="140.56" y="12.16" width="11.04" height="21.97" rx="3.19" fill="#fff" stroke="#002a5e" stroke-miterlimit="10" stroke-width="0.5"/><circle cx="146.08" cy="22.89" r="2.87" fill="#fff" stroke="#002a5e" stroke-miterlimit="10" stroke-width="0.5"/><circle cx="146.08" cy="22.89" r="0.75" fill="#002a5e"/><circle cx="143.38" cy="14.9" r="0.79" fill="#002a5e"/><circle cx="146.08" cy="14.9" r="0.79" fill="#002a5e"/><circle cx="148.77" cy="14.9" r="0.79" fill="#002a5e"/><circle cx="143.38" cy="17.61" r="0.79" fill="#002a5e"/><circle cx="146.08" cy="17.61" r="0.79" fill="#002a5e"/><circle cx="148.77" cy="17.61" r="0.79" fill="#002a5e"/><circle cx="143.38" cy="28.17" r="0.79" fill="#002a5e"/><circle cx="146.08" cy="28.17" r="0.79" fill="#002a5e"/><circle cx="148.77" cy="28.17" r="0.79" fill="#002a5e"/><circle cx="143.38" cy="30.94" r="0.79" fill="#002a5e"/><circle cx="146.08" cy="30.94" r="0.79" fill="#002a5e"/><circle cx="148.77" cy="30.94" r="0.79" fill="#002a5e"/><circle cx="146.02" cy="9.32" r="1.56" fill="#002a5e" stroke="#002a5e" stroke-miterlimit="10" stroke-width="0.5"/><path d="M143.6,6.89a3.45,3.45,0,0,1,2.43-1,3.38,3.38,0,0,1,2.42,1" fill="none" stroke="#002a5e" stroke-linecap="round" stroke-miterlimit="10" stroke-width="0.5"/><path d="M142.2,5.49a5.44,5.44,0,0,1,7.65,0" fill="none" stroke="#002a5e" stroke-linecap="round" stroke-miterlimit="10" stroke-width="0.5"/><path d="M140.76,4A7.46,7.46,0,0,1,151.3,4" fill="none" stroke="#002a5e" stroke-linecap="round" stroke-miterlimit="10" stroke-width="0.5"/><circle cx="54.38" cy="122.98" r="29.23" fill="#f8a908" stroke="#002a5e" stroke-miterlimit="10" stroke-width="0.5"/><text transform="translate(38.24 140.5)" font-size="11" fill="#002a5e" font-family="SourceHanSansTW-Medium-B5pc-H, Source Han Sans TW">元宇宙</text><polyline points="40.76 90.54 20.48 104.16 27.2 120.92 89.78 110.57 40.76 90.54 71.23 122.61 27.2 120.92 15.89 127.5" fill="none" stroke="#002a5e" stroke-miterlimit="10" stroke-width="0.5"/><polyline points="87.7 108.1 91.33 128.47 69.92 122.61" fill="none" stroke="#002a5e" stroke-miterlimit="10" stroke-width="0.5"/><rect x="87.7" y="124.51" width="5.99" height="5.99" fill="#fff" stroke="#002a5e" stroke-miterlimit="10" stroke-width="0.5"/><rect x="23.84" y="114.97" width="8" height="8" fill="#fff" stroke="#002a5e" stroke-miterlimit="10" stroke-width="0.5"/><rect x="86.33" y="107.88" width="4.54" height="4.54" fill="#002a5e" stroke="#002a5e" stroke-miterlimit="10" stroke-width="0.5"/><rect x="65.76" y="118.33" width="6.85" height="6.85" fill="#002a5e" stroke="#002a5e" stroke-miterlimit="10" stroke-width="0.5"/><rect x="37.82" y="87.15" width="5.89" height="5.89" fill="#fff" stroke="#002a5e" stroke-miterlimit="10" stroke-width="0.5"/><rect x="14.6" y="124.94" width="4.71" height="4.71" fill="#fff" stroke="#002a5e" stroke-miterlimit="10" stroke-width="0.5"/><rect x="17.47" y="101.15" width="6.03" height="6.03" fill="#002a5e" stroke="#002a5e" stroke-miterlimit="10" stroke-width="0.5"/><path d="M54,104.28a48.66,48.66,0,0,1-5.9,5.3,49,49,0,0,1-6.61,4.4,8.24,8.24,0,0,1-3-3.91,7.23,7.23,0,0,1-.37-1.25A8.29,8.29,0,0,1,51,100.37,8.08,8.08,0,0,1,54,104.28Z" fill="#fff" stroke="#002a5e" stroke-miterlimit="10" stroke-width="0.5"/><path d="M54.39,105.53a8.29,8.29,0,0,1-6.5,9.78A8.2,8.2,0,0,1,41.51,114a49,49,0,0,0,6.61-4.4,48.66,48.66,0,0,0,5.9-5.3A6.45,6.45,0,0,1,54.39,105.53Z" fill="#fff" stroke="#002a5e" stroke-miterlimit="10" stroke-width="0.5"/><path d="M38.49,110.07a8.24,8.24,0,0,0,3,3.91c-3,1.63-5.31,2.27-5.94,1.46S36.14,112.57,38.49,110.07Z" fill="none" stroke="#002a5e" stroke-miterlimit="10" stroke-width="0.5"/><path d="M54,104.28a8.08,8.08,0,0,0-3-3.91c3-1.63,5.32-2.27,6-1.47S56.37,101.78,54,104.28Z" fill="none" stroke="#002a5e" stroke-miterlimit="10" stroke-width="0.5"/><circle cx="53.08" cy="121.76" r="1.37" fill="#fff" stroke="#002a5e" stroke-miterlimit="10" stroke-width="0.5"/><path d="M77.92,105.45c-.13.17-.28.35-.43.51a5.94,5.94,0,0,1-.52.49A6.53,6.53,0,0,1,73.52,108h0a6.36,6.36,0,0,1-.86.07,6.66,6.66,0,0,1-5.78-10,3.56,3.56,0,0,1,.31-.48l.13-.18a4.56,4.56,0,0,1,.69-.76,2.47,2.47,0,0,1,.45-.4,6.34,6.34,0,0,1,2.89-1.35A6.65,6.65,0,0,1,78.75,104a2.57,2.57,0,0,1-.25.53A5.73,5.73,0,0,1,77.92,105.45Z" fill="#002a5e"/><path d="M70.34,98.06A23.59,23.59,0,0,0,68,96.63a2.47,2.47,0,0,1,.45-.4,22.08,22.08,0,0,1,2.21,1.34c2.28,1.56,4.5,3,5.38,2.7.13,0,.3-.12.43-.45S76.37,98.71,73,97A6.88,6.88,0,0,1,70.71,95a6.42,6.42,0,0,1,.63-.15,6.8,6.8,0,0,0,1.92,1.55c3.23,1.68,4.18,2.59,3.75,3.63a1.31,1.31,0,0,1-.8.78C75.27,101.11,73.74,100.38,70.34,98.06Z" fill="#fff"/><path d="M75.93,103.33a47.16,47.16,0,0,1-9.06-5.28,3.56,3.56,0,0,1,.31-.48,48.16,48.16,0,0,0,9,5.24c.21.09.47.21.76.32.55.24,1.2.52,1.81.86a2.57,2.57,0,0,1-.25.53,17.58,17.58,0,0,0-1.79-.84C76.41,103.55,76.14,103.44,75.93,103.33Z" fill="#fff"/><path d="M68.55,102.53c-.25.26-.19.88.43,1.57A46.64,46.64,0,0,0,73.51,108a6.36,6.36,0,0,1-.86.07,42.74,42.74,0,0,1-4.11-3.6c-.9-1-.84-1.93-.39-2.36s1.55-.58,3,.73A13.15,13.15,0,0,0,77.49,106a5.94,5.94,0,0,1-.52.49,13.45,13.45,0,0,1-6.2-3.16C69.69,102.32,68.86,102.22,68.55,102.53Z" fill="#fff"/><circle cx="30.47" cy="97.57" r="1.37" fill="#fff" stroke="#002a5e" stroke-miterlimit="10" stroke-width="0.5"/><circle cx="89.78" cy="119.71" r="1.37" fill="#fff" stroke="#002a5e" stroke-miterlimit="10" stroke-width="0.5"/></g></svg>